<?xml version="1.0" encoding="UTF-8" standalone="no"?>
<!-- Created with Inkscape (http://www.inkscape.org/) -->

<svg
   xmlns:dc="http://purl.org/dc/elements/1.1/"
   xmlns:cc="http://creativecommons.org/ns#"
   xmlns:rdf="http://www.w3.org/1999/02/22-rdf-syntax-ns#"
   xmlns:svg="http://www.w3.org/2000/svg"
   xmlns="http://www.w3.org/2000/svg"
   xmlns:sodipodi="http://sodipodi.sourceforge.net/DTD/sodipodi-0.dtd"
   xmlns:inkscape="http://www.inkscape.org/namespaces/inkscape"
   width="1502.3036"
   height="649.24115"
   id="svg4402"
   version="1.1"
   inkscape:version="0.48.1 r9760"
   sodipodi:docname="support rita V2.svg">
  <defs
     id="defs4404" />
  <sodipodi:namedview
     id="base"
     pagecolor="#ffffff"
     bordercolor="#666666"
     borderopacity="1.0"
     inkscape:pageopacity="0.0"
     inkscape:pageshadow="2"
     inkscape:zoom="0.7"
     inkscape:cx="513.44996"
     inkscape:cy="271.66093"
     inkscape:document-units="px"
     inkscape:current-layer="layer1"
     showgrid="false"
     inkscape:window-width="911"
     inkscape:window-height="699"
     inkscape:window-x="20"
     inkscape:window-y="20"
     inkscape:window-maximized="0"
     units="cm"
     fit-margin-top="1"
     fit-margin-right="1"
     fit-margin-left="1"
     fit-margin-bottom="1" />
  <metadata
     id="metadata4407">
    <rdf:RDF>
      <cc:Work
         rdf:about="">
        <dc:format>image/svg+xml</dc:format>
        <dc:type
           rdf:resource="http://purl.org/dc/dcmitype/StillImage" />
        <dc:title></dc:title>
      </cc:Work>
    </rdf:RDF>
  </metadata>
  <g
     inkscape:label="Calque 1"
     inkscape:groupmode="layer"
     id="layer1"
     transform="translate(-0.00442913,-403.09818)">
    <path
       transform="matrix(0.57855088,0,0,-0.67497171,53.503325,1334.0625)"
       d="m 170,1258.189 c 0,8.2842 -7.83502,15 -17.5,15 -9.66498,0 -17.5,-6.7158 -17.5,-15 0,-8.2843 7.83502,-15 17.5,-15 9.66498,0 17.5,6.7157 17.5,15 z"
       sodipodi:ry="15"
       sodipodi:rx="17.5"
       sodipodi:cy="1258.189"
       sodipodi:cx="152.5"
       id="path3046"
       style="fill:none;stroke:#ff0000;stroke-width:0.1;stroke-miterlimit:4;stroke-opacity:1;stroke-dasharray:none"
       sodipodi:type="arc" />
    <path
       sodipodi:type="arc"
       style="fill:none;stroke:#ff0000;stroke-width:0.1;stroke-miterlimit:4;stroke-opacity:1;stroke-dasharray:none"
       id="path3048"
       sodipodi:cx="152.5"
       sodipodi:cy="1258.189"
       sodipodi:rx="17.5"
       sodipodi:ry="15"
       d="m 170,1258.189 c 0,8.2842 -7.83502,15 -17.5,15 -9.66498,0 -17.5,-6.7158 -17.5,-15 0,-8.2843 7.83502,-15 17.5,-15 9.66498,0 17.5,6.7157 17.5,15 z"
       transform="matrix(0.57855088,0,0,-0.67497171,53.503325,1507.5852)" />
    <text
       sodipodi:linespacing="125%"
       id="text3184"
       y="762.48816"
       x="73.19487"
       style="font-size:40px;font-style:normal;font-weight:normal;line-height:125%;letter-spacing:0px;word-spacing:0px;fill:#000000;fill-opacity:1;stroke:none;font-family:Sans"
       xml:space="preserve"><tspan
         style="font-size:46px;font-style:italic;font-variant:normal;font-weight:bold;font-stretch:normal;text-align:start;line-height:125%;writing-mode:lr-tb;text-anchor:start;fill:#000000;font-family:Footlight MT Light;-inkscape-font-specification:'Footlight MT Light, Bold Italic'"
         y="762.48816"
         x="73.19487"
         id="tspan3186"
         sodipodi:role="line">- Rita -</tspan></text>
    <g
       id="g3851"
       transform="matrix(1,0,0,-1,-479.99996,1455.4545)"
       style="fill:none">
      <path
         sodipodi:type="arc"
         style="fill:none;stroke:#ff0000;stroke-width:1.02062857;stroke-miterlimit:4;stroke-opacity:0.18039216;stroke-dasharray:none"
         id="path3853"
         sodipodi:cx="152.5"
         sodipodi:cy="1258.189"
         sodipodi:rx="17.5"
         sodipodi:ry="15"
         d="m 170,1258.189 c 0,8.2842 -7.83502,15 -17.5,15 -9.66498,0 -17.5,-6.7158 -17.5,-15 0,-8.2843 7.83502,-15 17.5,-15 9.66498,0 17.5,6.7157 17.5,15 z"
         transform="matrix(0.49073006,0,0,0.57251841,624.31814,160.02325)" />
      <path
         transform="matrix(0.49073006,0,0,0.57251841,469.47794,160.02325)"
         d="m 170,1258.189 c 0,8.2842 -7.83502,15 -17.5,15 -9.66498,0 -17.5,-6.7158 -17.5,-15 0,-8.2843 7.83502,-15 17.5,-15 9.66498,0 17.5,6.7157 17.5,15 z"
         sodipodi:ry="15"
         sodipodi:rx="17.5"
         sodipodi:cy="1258.189"
         sodipodi:cx="152.5"
         id="path3855"
         style="fill:none;stroke:#ff0000;stroke-width:1.02062857;stroke-miterlimit:4;stroke-opacity:0.18039216;stroke-dasharray:none"
         sodipodi:type="arc" />
    </g>
    <text
       xml:space="preserve"
       style="font-size:40px;font-style:normal;font-weight:normal;line-height:125%;letter-spacing:0px;word-spacing:0px;fill:#000000;fill-opacity:1;stroke:none;font-family:Sans"
       x="113.02924"
       y="544.30933"
       id="text4301"
       sodipodi:linespacing="125%"><tspan
         sodipodi:role="line"
         id="tspan4303"
         x="113.02924"
         y="544.30933"
         style="font-size:10px;fill:#000000">1</tspan></text>
    <rect
       transform="scale(1,-1)"
       y="-604.96979"
       x="120.5312"
       height="67.893074"
       width="42.406483"
       id="rect4362"
       style="fill:none;stroke:#ff0000;stroke-width:0.1051617;stroke-miterlimit:4;stroke-opacity:1;stroke-dasharray:none" />
    <path
       inkscape:connector-curvature="0"
       id="rect3034"
       d="m 72.06254,782.43881 c -0.0347,-19.5018 -16.14139,-35.2812 -36,-35.2812 -0.17895,0 -0.35291,0 -0.53125,0 l 0,-273.28118 c 0.17854,0 0.3521,0.031 0.53125,0.031 19.8479,0 35.94804,-15.7937 36,-35.2812 l 139.34375,0 c 0.052,19.4874 16.12086,35.2812 35.96875,35.2812 0.18651,0 0.37667,-0.028 0.5625,-0.031 l 0,273.28118 c -0.18565,0 -0.37617,0 -0.5625,0 -19.85861,0 -35.93408,15.7794 -35.96875,35.2812 l -139.34375,0 z"
       style="fill:none;stroke:#ff0000;stroke-width:0.16888961;stroke-miterlimit:4;stroke-opacity:1;stroke-dasharray:none" />
    <rect
       transform="scale(1,-1)"
       style="fill:none;stroke:#ff0000;stroke-width:0.1051617;stroke-miterlimit:4;stroke-opacity:1;stroke-dasharray:none"
       id="rect3047"
       width="42.406483"
       height="67.893074"
       x="360.52911"
       y="-604.96979" />
    <path
       sodipodi:type="arc"
       style="fill:none;stroke:#ff0000;stroke-width:0.1;stroke-miterlimit:4;stroke-opacity:1;stroke-dasharray:none"
       id="path3050"
       sodipodi:cx="152.5"
       sodipodi:cy="1258.189"
       sodipodi:rx="17.5"
       sodipodi:ry="15"
       d="m 170,1258.189 c 0,8.2842 -7.83502,15 -17.5,15 -9.66498,0 -17.5,-6.7158 -17.5,-15 0,-8.2843 7.83502,-15 17.5,-15 9.66498,0 17.5,6.7157 17.5,15 z"
       transform="matrix(0.57855088,0,0,-0.67497171,293.50335,1334.0625)" />
    <path
       transform="matrix(0.57855088,0,0,-0.67497171,293.50335,1507.5852)"
       d="m 170,1258.189 c 0,8.2842 -7.83502,15 -17.5,15 -9.66498,0 -17.5,-6.7158 -17.5,-15 0,-8.2843 7.83502,-15 17.5,-15 9.66498,0 17.5,6.7157 17.5,15 z"
       sodipodi:ry="15"
       sodipodi:rx="17.5"
       sodipodi:cy="1258.189"
       sodipodi:cx="152.5"
       id="path3052"
       style="fill:none;stroke:#ff0000;stroke-width:0.1;stroke-miterlimit:4;stroke-opacity:1;stroke-dasharray:none"
       sodipodi:type="arc" />
    <g
       transform="matrix(1,0,0,-1,-239.99996,1455.4545)"
       id="g3845"
       style="fill:none">
      <path
         transform="matrix(0.49073006,0,0,0.57251841,624.31814,160.02325)"
         d="m 170,1258.189 c 0,8.2842 -7.83502,15 -17.5,15 -9.66498,0 -17.5,-6.7158 -17.5,-15 0,-8.2843 7.83502,-15 17.5,-15 9.66498,0 17.5,6.7157 17.5,15 z"
         sodipodi:ry="15"
         sodipodi:rx="17.5"
         sodipodi:cy="1258.189"
         sodipodi:cx="152.5"
         id="path3847"
         style="fill:none;stroke:#ff0000;stroke-width:1.02062857;stroke-miterlimit:4;stroke-opacity:0.18039216;stroke-dasharray:none"
         sodipodi:type="arc" />
      <path
         sodipodi:type="arc"
         style="fill:none;stroke:#ff0000;stroke-width:1.02062857;stroke-miterlimit:4;stroke-opacity:0.18039216;stroke-dasharray:none"
         id="path3849"
         sodipodi:cx="152.5"
         sodipodi:cy="1258.189"
         sodipodi:rx="17.5"
         sodipodi:ry="15"
         d="m 170,1258.189 c 0,8.2842 -7.83502,15 -17.5,15 -9.66498,0 -17.5,-6.7158 -17.5,-15 0,-8.2843 7.83502,-15 17.5,-15 9.66498,0 17.5,6.7157 17.5,15 z"
         transform="matrix(0.49073006,0,0,0.57251841,469.47794,160.02325)" />
    </g>
    <text
       sodipodi:linespacing="125%"
       id="text4305"
       y="544.30933"
       x="353.02716"
       style="font-size:40px;font-style:normal;font-weight:normal;line-height:125%;letter-spacing:0px;word-spacing:0px;fill:#000000;fill-opacity:1;stroke:none;font-family:Sans"
       xml:space="preserve"><tspan
         style="font-size:10px;fill:#000000"
         y="544.30933"
         x="353.02716"
         id="tspan4307"
         sodipodi:role="line">2</tspan></text>
    <path
       inkscape:connector-curvature="0"
       id="rect3036"
       d="m 312.06255,711.56382 c -0.0511,-19.4882 -16.12031,-35.2812 -35.96875,-35.2812 -0.18632,0 -0.37685,0 -0.5625,0 l 0,-202.40619 c 0.17854,0 0.35209,0.031 0.53125,0.031 19.8479,0 35.94804,-15.7937 36,-35.2812 l 139.34375,0 c 0.052,19.4873 16.15211,35.2812 36,35.2812 0.17917,0 0.35271,-0.029 0.53125,-0.031 l 0,202.40619 c -0.18565,0 -0.37617,0 -0.5625,0 -19.84843,0 -35.91766,15.793 -35.96875,35.2812 l -139.34375,0 z"
       style="fill:none;stroke:#ff0000;stroke-width:0.15049118;stroke-miterlimit:4;stroke-opacity:1;stroke-dasharray:none" />
    <rect
       transform="scale(1,-1)"
       y="-604.96979"
       x="600.52911"
       height="67.893074"
       width="42.406483"
       id="rect3045"
       style="fill:none;stroke:#ff0000;stroke-width:0.1051617;stroke-miterlimit:4;stroke-opacity:1;stroke-dasharray:none" />
    <path
       transform="matrix(0.57855088,0,0,-0.67497171,533.50331,1334.0625)"
       d="m 170,1258.189 c 0,8.2842 -7.83502,15 -17.5,15 -9.66498,0 -17.5,-6.7158 -17.5,-15 0,-8.2843 7.83502,-15 17.5,-15 9.66498,0 17.5,6.7157 17.5,15 z"
       sodipodi:ry="15"
       sodipodi:rx="17.5"
       sodipodi:cy="1258.189"
       sodipodi:cx="152.5"
       id="path3054"
       style="fill:none;stroke:#ff0000;stroke-width:0.1;stroke-miterlimit:4;stroke-opacity:1;stroke-dasharray:none"
       sodipodi:type="arc" />
    <path
       sodipodi:type="arc"
       style="fill:none;stroke:#ff0000;stroke-width:0.10206286;stroke-miterlimit:4;stroke-opacity:1;stroke-dasharray:none"
       id="path3056"
       sodipodi:cx="152.5"
       sodipodi:cy="1258.189"
       sodipodi:rx="17.5"
       sodipodi:ry="15"
       d="m 170,1258.189 c 0,8.2842 -7.83502,15 -17.5,15 -9.66498,0 -17.5,-6.7158 -17.5,-15 0,-8.2843 7.83502,-15 17.5,-15 9.66498,0 17.5,6.7157 17.5,15 z"
       transform="matrix(0.57855088,0,0,-0.67497171,533.50331,1507.5852)" />
    <g
       transform="matrix(1,0,0,-1,4.350154e-5,1455.4545)"
       id="g3841"
       style="fill:none">
      <path
         sodipodi:type="arc"
         style="fill:none;stroke:#ff0000;stroke-width:1.02062857;stroke-miterlimit:4;stroke-opacity:0.18039216;stroke-dasharray:none"
         id="path3058"
         sodipodi:cx="152.5"
         sodipodi:cy="1258.189"
         sodipodi:rx="17.5"
         sodipodi:ry="15"
         d="m 170,1258.189 c 0,8.2842 -7.83502,15 -17.5,15 -9.66498,0 -17.5,-6.7158 -17.5,-15 0,-8.2843 7.83502,-15 17.5,-15 9.66498,0 17.5,6.7157 17.5,15 z"
         transform="matrix(0.49073006,0,0,0.57251841,624.31814,160.02325)" />
      <path
         transform="matrix(0.49073006,0,0,0.57251841,469.47794,160.02325)"
         d="m 170,1258.189 c 0,8.2842 -7.83502,15 -17.5,15 -9.66498,0 -17.5,-6.7158 -17.5,-15 0,-8.2843 7.83502,-15 17.5,-15 9.66498,0 17.5,6.7157 17.5,15 z"
         sodipodi:ry="15"
         sodipodi:rx="17.5"
         sodipodi:cy="1258.189"
         sodipodi:cx="152.5"
         id="path3839"
         style="fill:none;stroke:#ff0000;stroke-width:1.02062857;stroke-miterlimit:4;stroke-opacity:0.18039216;stroke-dasharray:none"
         sodipodi:type="arc" />
    </g>
    <text
       xml:space="preserve"
       style="font-size:40px;font-style:normal;font-weight:normal;line-height:125%;letter-spacing:0px;word-spacing:0px;fill:#000000;fill-opacity:1;stroke:none;font-family:Sans"
       x="593.10529"
       y="544.30933"
       id="text4309"
       sodipodi:linespacing="125%"><tspan
         sodipodi:role="line"
         id="tspan4311"
         x="593.10529"
         y="544.30933"
         style="font-size:10px;fill:#000000">3</tspan></text>
    <path
       inkscape:connector-curvature="0"
       id="rect3042"
       d="m 552.06255,711.56382 c -0.0511,-19.4882 -16.15156,-35.28119 -36,-35.28119 -0.17916,0 -0.35271,0.029 -0.53125,0.031 l 0,-202.4374 c 0.17854,0 0.35209,0.031 0.53125,0.031 19.8479,0 35.94803,-15.79369 36,-35.2812 l 139.34375,0 c 0.052,19.48751 16.12085,35.2812 35.96875,35.2812 0.18651,0 0.37666,-0.028 0.5625,-0.031 l 0,202.4374 c -0.18584,0 -0.37599,-0.031 -0.5625,-0.031 -19.84844,0 -35.91766,15.79299 -35.96875,35.28119 l -139.34375,0 z"
       style="fill:none;stroke:#ff0000;stroke-width:0.15049118;stroke-miterlimit:4;stroke-opacity:1;stroke-dasharray:none" />
    <rect
       transform="scale(1,-1)"
       style="fill:none;stroke:#ff0000;stroke-width:0.1051617;stroke-miterlimit:4;stroke-opacity:1;stroke-dasharray:none"
       id="rect3060"
       width="42.406483"
       height="67.893074"
       x="780.52905"
       y="-604.96979" />
    <path
       transform="matrix(0.57855088,0,0,-0.67497171,713.50331,1479.5852)"
       d="m 170,1258.189 c 0,8.2842 -7.83502,15 -17.5,15 -9.66498,0 -17.5,-6.7158 -17.5,-15 0,-8.2843 7.83502,-15 17.5,-15 9.66498,0 17.5,6.7157 17.5,15 z"
       sodipodi:ry="15"
       sodipodi:rx="17.5"
       sodipodi:cy="1258.189"
       sodipodi:cx="152.5"
       id="path3064"
       style="fill:none;stroke:#ff0000;stroke-width:0.1;stroke-miterlimit:4;stroke-opacity:1;stroke-dasharray:none"
       sodipodi:type="arc" />
    <path
       sodipodi:type="arc"
       style="fill:none;stroke:#ff0000;stroke-width:0.1;stroke-miterlimit:4;stroke-opacity:1;stroke-dasharray:none"
       id="path3146"
       sodipodi:cx="152.5"
       sodipodi:cy="1258.189"
       sodipodi:rx="17.5"
       sodipodi:ry="15"
       d="m 170,1258.189 c 0,8.2842 -7.83502,15 -17.5,15 -9.66498,0 -17.5,-6.7158 -17.5,-15 0,-8.2843 7.83502,-15 17.5,-15 9.66498,0 17.5,6.7157 17.5,15 z"
       transform="matrix(0.57855088,0,0,-0.67497171,713.50331,1507.5852)" />
    <path
       transform="matrix(0.57855088,0,0,-0.67497171,713.50331,1334.0625)"
       d="m 170,1258.189 c 0,8.2842 -7.83502,15 -17.5,15 -9.66498,0 -17.5,-6.7158 -17.5,-15 0,-8.2843 7.83502,-15 17.5,-15 9.66498,0 17.5,6.7157 17.5,15 z"
       sodipodi:ry="15"
       sodipodi:rx="17.5"
       sodipodi:cy="1258.189"
       sodipodi:cx="152.5"
       id="path3162"
       style="fill:none;stroke:#ff0000;stroke-width:0.1;stroke-miterlimit:4;stroke-opacity:1;stroke-dasharray:none"
       sodipodi:type="arc" />
    <text
       sodipodi:linespacing="125%"
       id="text4313"
       y="544.30933"
       x="773.10522"
       style="font-size:40px;font-style:normal;font-weight:normal;line-height:125%;letter-spacing:0px;word-spacing:0px;fill:#000000;fill-opacity:1;stroke:none;font-family:Sans"
       xml:space="preserve"><tspan
         style="font-size:10px;fill:#000000"
         y="544.30933"
         x="773.10522"
         id="tspan4315"
         sodipodi:role="line">4</tspan></text>
    <g
       transform="matrix(1,0,0,-1,-611.99997,1455.4545)"
       id="g4396"
       style="fill:none">
      <path
         sodipodi:type="arc"
         style="fill:none;stroke:#ff0000;stroke-width:0.1;stroke-miterlimit:4;stroke-opacity:1;stroke-dasharray:none"
         id="path4398"
         sodipodi:cx="152.5"
         sodipodi:cy="1258.189"
         sodipodi:rx="17.5"
         sodipodi:ry="15"
         d="m 170,1258.189 c 0,8.2842 -7.83502,15 -17.5,15 -9.66498,0 -17.5,-6.7158 -17.5,-15 0,-8.2843 7.83502,-15 17.5,-15 9.66498,0 17.5,6.7157 17.5,15 z"
         transform="matrix(0.57855088,0,0,0.67497171,1299.129,93.392094)" />
      <path
         transform="matrix(0.57855088,0,0,0.67497171,1351.8775,93.392094)"
         d="m 170,1258.189 c 0,8.2842 -7.83502,15 -17.5,15 -9.66498,0 -17.5,-6.7158 -17.5,-15 0,-8.2843 7.83502,-15 17.5,-15 9.66498,0 17.5,6.7157 17.5,15 z"
         sodipodi:ry="15"
         sodipodi:rx="17.5"
         sodipodi:cy="1258.189"
         sodipodi:cx="152.5"
         id="path4400"
         style="fill:none;stroke:#ff0000;stroke-width:0.1;stroke-miterlimit:4;stroke-opacity:1;stroke-dasharray:none"
         sodipodi:type="arc" />
    </g>
    <rect
       transform="scale(1,-1)"
       y="-686.50214"
       x="748.64532"
       height="230.17909"
       width="106.17397"
       id="rect3058"
       style="fill:none;stroke:#ff0000;stroke-width:0.12523635;stroke-miterlimit:4;stroke-opacity:1;stroke-dasharray:none" />
    <rect
       transform="scale(1,-1)"
       style="fill:none;stroke:#ff0000;stroke-width:0.10514253;stroke-miterlimit:4;stroke-opacity:1;stroke-dasharray:none"
       id="rect3084"
       width="42.406498"
       height="67.868301"
       x="900.52905"
       y="-604.95679" />
    <path
       transform="matrix(0.57855088,0,0,-0.67497171,833.50331,1479.5852)"
       d="m 170,1258.189 c 0,8.2842 -7.83502,15 -17.5,15 -9.66498,0 -17.5,-6.7158 -17.5,-15 0,-8.2843 7.83502,-15 17.5,-15 9.66498,0 17.5,6.7157 17.5,15 z"
       sodipodi:ry="15"
       sodipodi:rx="17.5"
       sodipodi:cy="1258.189"
       sodipodi:cx="152.5"
       id="path3088"
       style="fill:none;stroke:#ff0000;stroke-width:0.1;stroke-miterlimit:4;stroke-opacity:1;stroke-dasharray:none"
       sodipodi:type="arc" />
    <path
       sodipodi:type="arc"
       style="fill:none;stroke:#ff0000;stroke-width:0.1;stroke-miterlimit:4;stroke-opacity:1;stroke-dasharray:none"
       id="path3150"
       sodipodi:cx="152.5"
       sodipodi:cy="1258.189"
       sodipodi:rx="17.5"
       sodipodi:ry="15"
       d="m 170,1258.189 c 0,8.2842 -7.83502,15 -17.5,15 -9.66498,0 -17.5,-6.7158 -17.5,-15 0,-8.2843 7.83502,-15 17.5,-15 9.66498,0 17.5,6.7157 17.5,15 z"
       transform="matrix(0.57855088,0,0,-0.67497171,833.50331,1507.5852)" />
    <path
       transform="matrix(0.57855088,0,0,-0.67497171,833.50331,1334.0625)"
       d="m 170,1258.189 c 0,8.2842 -7.83502,15 -17.5,15 -9.66498,0 -17.5,-6.7158 -17.5,-15 0,-8.2843 7.83502,-15 17.5,-15 9.66498,0 17.5,6.7157 17.5,15 z"
       sodipodi:ry="15"
       sodipodi:rx="17.5"
       sodipodi:cy="1258.189"
       sodipodi:cx="152.5"
       id="path3166"
       style="fill:none;stroke:#ff0000;stroke-width:0.1;stroke-miterlimit:4;stroke-opacity:1;stroke-dasharray:none"
       sodipodi:type="arc" />
    <text
       xml:space="preserve"
       style="font-size:40px;font-style:normal;font-weight:normal;line-height:125%;letter-spacing:0px;word-spacing:0px;fill:#000000;fill-opacity:1;stroke:none;font-family:Sans"
       x="893.10522"
       y="544.30933"
       id="text4317"
       sodipodi:linespacing="125%"><tspan
         sodipodi:role="line"
         id="tspan4319"
         x="893.10522"
         y="544.30933"
         style="font-size:10px;fill:#000000">5</tspan></text>
    <g
       id="g4390"
       transform="matrix(1,0,0,-1,-491.99997,1455.4545)"
       style="fill:none">
      <path
         transform="matrix(0.57855088,0,0,0.67497171,1299.129,93.392094)"
         d="m 170,1258.189 c 0,8.2842 -7.83502,15 -17.5,15 -9.66498,0 -17.5,-6.7158 -17.5,-15 0,-8.2843 7.83502,-15 17.5,-15 9.66498,0 17.5,6.7157 17.5,15 z"
         sodipodi:ry="15"
         sodipodi:rx="17.5"
         sodipodi:cy="1258.189"
         sodipodi:cx="152.5"
         id="path4392"
         style="fill:none;stroke:#ff0000;stroke-width:0.1;stroke-miterlimit:4;stroke-opacity:1;stroke-dasharray:none"
         sodipodi:type="arc" />
      <path
         sodipodi:type="arc"
         style="fill:none;stroke:#ff0000;stroke-width:0.1;stroke-miterlimit:4;stroke-opacity:1;stroke-dasharray:none"
         id="path4394"
         sodipodi:cx="152.5"
         sodipodi:cy="1258.189"
         sodipodi:rx="17.5"
         sodipodi:ry="15"
         d="m 170,1258.189 c 0,8.2842 -7.83502,15 -17.5,15 -9.66498,0 -17.5,-6.7158 -17.5,-15 0,-8.2843 7.83502,-15 17.5,-15 9.66498,0 17.5,6.7157 17.5,15 z"
         transform="matrix(0.57855088,0,0,0.67497171,1351.8775,93.392094)" />
    </g>
    <rect
       transform="scale(1,-1)"
       style="fill:none;stroke:#ff0000;stroke-width:0.12523635;stroke-miterlimit:4;stroke-opacity:1;stroke-dasharray:none"
       id="rect3074"
       width="106.17397"
       height="230.17909"
       x="868.64532"
       y="-686.50214" />
    <rect
       transform="scale(1,-1)"
       y="-604.95679"
       x="1020.5291"
       height="67.868301"
       width="42.406498"
       id="rect3068"
       style="fill:none;stroke:#ff0000;stroke-width:0.10514253;stroke-miterlimit:4;stroke-opacity:1;stroke-dasharray:none" />
    <path
       sodipodi:type="arc"
       style="fill:none;stroke:#ff0000;stroke-width:0.1;stroke-miterlimit:4;stroke-opacity:1;stroke-dasharray:none"
       id="path3072"
       sodipodi:cx="152.5"
       sodipodi:cy="1258.189"
       sodipodi:rx="17.5"
       sodipodi:ry="15"
       d="m 170,1258.189 c 0,8.2842 -7.83502,15 -17.5,15 -9.66498,0 -17.5,-6.7158 -17.5,-15 0,-8.2843 7.83502,-15 17.5,-15 9.66498,0 17.5,6.7157 17.5,15 z"
       transform="matrix(0.57855088,0,0,-0.67497171,953.50331,1479.5852)" />
    <path
       transform="matrix(0.57855088,0,0,-0.67497171,953.50331,1507.5852)"
       d="m 170,1258.189 c 0,8.2842 -7.83502,15 -17.5,15 -9.66498,0 -17.5,-6.7158 -17.5,-15 0,-8.2843 7.83502,-15 17.5,-15 9.66498,0 17.5,6.7157 17.5,15 z"
       sodipodi:ry="15"
       sodipodi:rx="17.5"
       sodipodi:cy="1258.189"
       sodipodi:cx="152.5"
       id="path3148"
       style="fill:none;stroke:#ff0000;stroke-width:0.1;stroke-miterlimit:4;stroke-opacity:1;stroke-dasharray:none"
       sodipodi:type="arc" />
    <path
       sodipodi:type="arc"
       style="fill:none;stroke:#ff0000;stroke-width:0.1;stroke-miterlimit:4;stroke-opacity:1;stroke-dasharray:none"
       id="path3164"
       sodipodi:cx="152.5"
       sodipodi:cy="1258.189"
       sodipodi:rx="17.5"
       sodipodi:ry="15"
       d="m 170,1258.189 c 0,8.2842 -7.83502,15 -17.5,15 -9.66498,0 -17.5,-6.7158 -17.5,-15 0,-8.2843 7.83502,-15 17.5,-15 9.66498,0 17.5,6.7157 17.5,15 z"
       transform="matrix(0.57855088,0,0,-0.67497171,953.50331,1334.0625)" />
    <text
       sodipodi:linespacing="125%"
       id="text4321"
       y="544.30933"
       x="1013.1053"
       style="font-size:40px;font-style:normal;font-weight:normal;line-height:125%;letter-spacing:0px;word-spacing:0px;fill:#000000;fill-opacity:1;stroke:none;font-family:Sans"
       xml:space="preserve"><tspan
         style="font-size:10px;fill:#000000"
         y="544.30933"
         x="1013.1053"
         id="tspan4323"
         sodipodi:role="line">6</tspan></text>
    <g
       transform="matrix(1,0,0,-1,-371.99997,1455.4545)"
       id="g4384"
       style="fill:none">
      <path
         sodipodi:type="arc"
         style="fill:none;stroke:#ff0000;stroke-width:0.1;stroke-miterlimit:4;stroke-opacity:1;stroke-dasharray:none"
         id="path4386"
         sodipodi:cx="152.5"
         sodipodi:cy="1258.189"
         sodipodi:rx="17.5"
         sodipodi:ry="15"
         d="m 170,1258.189 c 0,8.2842 -7.83502,15 -17.5,15 -9.66498,0 -17.5,-6.7158 -17.5,-15 0,-8.2843 7.83502,-15 17.5,-15 9.66498,0 17.5,6.7157 17.5,15 z"
         transform="matrix(0.57855088,0,0,0.67497171,1299.129,93.392094)" />
      <path
         transform="matrix(0.57855088,0,0,0.67497171,1351.8775,93.392094)"
         d="m 170,1258.189 c 0,8.2842 -7.83502,15 -17.5,15 -9.66498,0 -17.5,-6.7158 -17.5,-15 0,-8.2843 7.83502,-15 17.5,-15 9.66498,0 17.5,6.7157 17.5,15 z"
         sodipodi:ry="15"
         sodipodi:rx="17.5"
         sodipodi:cy="1258.189"
         sodipodi:cx="152.5"
         id="path4388"
         style="fill:none;stroke:#ff0000;stroke-width:0.1;stroke-miterlimit:4;stroke-opacity:1;stroke-dasharray:none"
         sodipodi:type="arc" />
    </g>
    <rect
       transform="scale(1,-1)"
       style="fill:none;stroke:#ff0000;stroke-width:0.12523635;stroke-miterlimit:4;stroke-opacity:1;stroke-dasharray:none"
       id="rect3066"
       width="106.17397"
       height="230.17909"
       x="988.64532"
       y="-686.50214" />
    <rect
       transform="scale(1,-1)"
       style="fill:none;stroke:#ff0000;stroke-width:0.10514253;stroke-miterlimit:4;stroke-opacity:1;stroke-dasharray:none"
       id="rect3154"
       width="42.406498"
       height="67.868301"
       x="1140.5291"
       y="-604.95685" />
    <path
       transform="matrix(0.57855088,0,0,-0.67497171,1073.5032,1479.5852)"
       d="m 170,1258.189 c 0,8.2842 -7.83502,15 -17.5,15 -9.66498,0 -17.5,-6.7158 -17.5,-15 0,-8.2843 7.83502,-15 17.5,-15 9.66498,0 17.5,6.7157 17.5,15 z"
       sodipodi:ry="15"
       sodipodi:rx="17.5"
       sodipodi:cy="1258.189"
       sodipodi:cx="152.5"
       id="path3158"
       style="fill:none;stroke:#ff0000;stroke-width:0.1;stroke-miterlimit:4;stroke-opacity:1;stroke-dasharray:none"
       sodipodi:type="arc" />
    <rect
       transform="scale(1,-1)"
       y="-536.99103"
       x="1151.5717"
       height="80.696304"
       width="20.321419"
       id="rect3226"
       style="fill:none;stroke:#ff0000;stroke-width:0.04353571;stroke-miterlimit:4;stroke-opacity:1;stroke-dasharray:none" />
    <text
       xml:space="preserve"
       style="font-size:40px;font-style:normal;font-weight:normal;line-height:125%;letter-spacing:0px;word-spacing:0px;fill:#000000;fill-opacity:1;stroke:none;font-family:Sans"
       x="1133.1052"
       y="544.30939"
       id="text4325"
       sodipodi:linespacing="125%"><tspan
         sodipodi:role="line"
         id="tspan4327"
         x="1133.1052"
         y="544.30939"
         style="font-size:10px;fill:#000000">7</tspan></text>
    <g
       id="g4378"
       transform="matrix(1,0,0,-1,-251.99997,1455.4545)"
       style="fill:none">
      <path
         transform="matrix(0.57855088,0,0,0.67497171,1299.129,93.392094)"
         d="m 170,1258.189 c 0,8.2842 -7.83502,15 -17.5,15 -9.66498,0 -17.5,-6.7158 -17.5,-15 0,-8.2843 7.83502,-15 17.5,-15 9.66498,0 17.5,6.7157 17.5,15 z"
         sodipodi:ry="15"
         sodipodi:rx="17.5"
         sodipodi:cy="1258.189"
         sodipodi:cx="152.5"
         id="path4380"
         style="fill:none;stroke:#ff0000;stroke-width:0.1;stroke-miterlimit:4;stroke-opacity:1;stroke-dasharray:none"
         sodipodi:type="arc" />
      <path
         sodipodi:type="arc"
         style="fill:none;stroke:#ff0000;stroke-width:0.1;stroke-miterlimit:4;stroke-opacity:1;stroke-dasharray:none"
         id="path4382"
         sodipodi:cx="152.5"
         sodipodi:cy="1258.189"
         sodipodi:rx="17.5"
         sodipodi:ry="15"
         d="m 170,1258.189 c 0,8.2842 -7.83502,15 -17.5,15 -9.66498,0 -17.5,-6.7158 -17.5,-15 0,-8.2843 7.83502,-15 17.5,-15 9.66498,0 17.5,6.7157 17.5,15 z"
         transform="matrix(0.57855088,0,0,0.67497171,1351.8775,93.392094)" />
    </g>
    <rect
       transform="scale(1,-1)"
       y="-686.50214"
       x="1108.6453"
       height="230.17909"
       width="106.17397"
       id="rect3152"
       style="fill:none;stroke:#ff0000;stroke-width:0.12523635;stroke-miterlimit:4;stroke-opacity:1;stroke-dasharray:none" />
    <rect
       transform="scale(1,-1)"
       y="-604.95685"
       x="1266.5291"
       height="67.868301"
       width="42.406498"
       id="rect3170"
       style="fill:none;stroke:#ff0000;stroke-width:0.10514253;stroke-miterlimit:4;stroke-opacity:1;stroke-dasharray:none" />
    <path
       sodipodi:type="arc"
       style="fill:none;stroke:#ff0000;stroke-width:0.1;stroke-miterlimit:4;stroke-opacity:1;stroke-dasharray:none"
       id="path3174"
       sodipodi:cx="152.5"
       sodipodi:cy="1258.189"
       sodipodi:rx="17.5"
       sodipodi:ry="15"
       d="m 170,1258.189 c 0,8.2842 -7.83502,15 -17.5,15 -9.66498,0 -17.5,-6.7158 -17.5,-15 0,-8.2843 7.83502,-15 17.5,-15 9.66498,0 17.5,6.7157 17.5,15 z"
       transform="matrix(0.57855088,0,0,-0.67497171,1199.5032,1479.5852)" />
    <text
       sodipodi:linespacing="125%"
       id="text4329"
       y="544.30939"
       x="1259.1052"
       style="font-size:40px;font-style:normal;font-weight:normal;line-height:125%;letter-spacing:0px;word-spacing:0px;fill:#000000;fill-opacity:1;stroke:none;font-family:Sans"
       xml:space="preserve"><tspan
         style="font-size:10px;fill:#000000"
         y="544.30939"
         x="1259.1052"
         id="tspan4331"
         sodipodi:role="line">8</tspan></text>
    <g
       id="g4372"
       transform="matrix(1,0,0,-1,-125.99997,1455.4545)"
       style="fill:none">
      <path
         transform="matrix(0.57855088,0,0,0.67497171,1299.129,93.392094)"
         d="m 170,1258.189 c 0,8.2842 -7.83502,15 -17.5,15 -9.66498,0 -17.5,-6.7158 -17.5,-15 0,-8.2843 7.83502,-15 17.5,-15 9.66498,0 17.5,6.7157 17.5,15 z"
         sodipodi:ry="15"
         sodipodi:rx="17.5"
         sodipodi:cy="1258.189"
         sodipodi:cx="152.5"
         id="path4374"
         style="fill:none;stroke:#ff0000;stroke-width:0.1;stroke-miterlimit:4;stroke-opacity:1;stroke-dasharray:none"
         sodipodi:type="arc" />
      <path
         sodipodi:type="arc"
         style="fill:none;stroke:#ff0000;stroke-width:0.1;stroke-miterlimit:4;stroke-opacity:1;stroke-dasharray:none"
         id="path4376"
         sodipodi:cx="152.5"
         sodipodi:cy="1258.189"
         sodipodi:rx="17.5"
         sodipodi:ry="15"
         d="m 170,1258.189 c 0,8.2842 -7.83502,15 -17.5,15 -9.66498,0 -17.5,-6.7158 -17.5,-15 0,-8.2843 7.83502,-15 17.5,-15 9.66498,0 17.5,6.7157 17.5,15 z"
         transform="matrix(0.57855088,0,0,0.67497171,1351.8775,93.392094)" />
    </g>
    <rect
       transform="scale(1,-1)"
       style="fill:none;stroke:#ff0000;stroke-width:0.12523635;stroke-miterlimit:4;stroke-opacity:1;stroke-dasharray:none"
       id="rect3168"
       width="106.17397"
       height="230.17909"
       x="1234.6453"
       y="-686.50214" />
    <rect
       transform="scale(1,-1)"
       style="fill:none;stroke:#ff0000;stroke-width:0.10514253;stroke-miterlimit:4;stroke-opacity:1;stroke-dasharray:none"
       id="rect3178"
       width="42.406498"
       height="67.868301"
       x="1392.5291"
       y="-604.95685" />
    <path
       transform="matrix(0.57855088,0,0,-0.67497171,1325.5032,1479.5852)"
       d="m 170,1258.189 c 0,8.2842 -7.83502,15 -17.5,15 -9.66498,0 -17.5,-6.7158 -17.5,-15 0,-8.2843 7.83502,-15 17.5,-15 9.66498,0 17.5,6.7157 17.5,15 z"
       sodipodi:ry="15"
       sodipodi:rx="17.5"
       sodipodi:cy="1258.189"
       sodipodi:cx="152.5"
       id="path3182"
       style="fill:none;stroke:#ff0000;stroke-width:0.1;stroke-miterlimit:4;stroke-opacity:1;stroke-dasharray:none"
       sodipodi:type="arc" />
    <g
       transform="matrix(1,0,0,-1,3.12e-5,1455.4545)"
       id="g4368"
       style="fill:none">
      <path
         sodipodi:type="arc"
         style="fill:none;stroke:#ff0000;stroke-width:0.1;stroke-miterlimit:4;stroke-opacity:1;stroke-dasharray:none"
         id="path3216"
         sodipodi:cx="152.5"
         sodipodi:cy="1258.189"
         sodipodi:rx="17.5"
         sodipodi:ry="15"
         d="m 170,1258.189 c 0,8.2842 -7.83502,15 -17.5,15 -9.66498,0 -17.5,-6.7158 -17.5,-15 0,-8.2843 7.83502,-15 17.5,-15 9.66498,0 17.5,6.7157 17.5,15 z"
         transform="matrix(0.57855088,0,0,0.67497171,1299.129,93.392094)" />
      <path
         transform="matrix(0.57855088,0,0,0.67497171,1351.8775,93.392094)"
         d="m 170,1258.189 c 0,8.2842 -7.83502,15 -17.5,15 -9.66498,0 -17.5,-6.7158 -17.5,-15 0,-8.2843 7.83502,-15 17.5,-15 9.66498,0 17.5,6.7157 17.5,15 z"
         sodipodi:ry="15"
         sodipodi:rx="17.5"
         sodipodi:cy="1258.189"
         sodipodi:cx="152.5"
         id="path3218"
         style="fill:none;stroke:#ff0000;stroke-width:0.1;stroke-miterlimit:4;stroke-opacity:1;stroke-dasharray:none"
         sodipodi:type="arc" />
    </g>
    <rect
       transform="scale(1,-1)"
       y="-686.50214"
       x="1360.6453"
       height="230.17909"
       width="106.17397"
       id="rect3176"
       style="fill:none;stroke:#ff0000;stroke-width:0.12523635;stroke-miterlimit:4;stroke-opacity:1;stroke-dasharray:none" />
    <path
       style="fill:none;stroke:#ff0000;stroke-width:0.13351919"
       id="path4040"
       inkscape:connector-curvature="0"
       sodipodi:nodetypes="sscccccccssccccssssccccccccccssssccccscccc"
       d="m 1231.1949,1016.8473 139.4241,0 0,-5.8912 17.6484,0 0,5.8912 6.3312,0 c 7.877,0 14.1994,-6.3237 14.1994,-14.1982 l 0,-14.1054 c 0,-7.8745 -6.3237,-14.1982 -14.1994,-14.1982 l -6.3312,0 0,5.8924 -17.6484,0 0,-5.8924 -86.1079,-0.1567 c -19.5879,0 -35.4835,-15.8693 -35.4835,-35.4521 l 0,-120.9007 c 0,-19.5829 15.8969,-35.4522 35.4835,-35.4522 l 86.1079,-0.093 0,-5.8936 17.6484,0 0,5.8936 6.3312,0 c 7.877,0 14.1994,-6.3249 14.1994,-14.1994 l 0,-14.1067 c 0,-7.8719 -6.3237,-14.1969 -14.1994,-14.1969 l -6.3312,0 0,5.8912 -17.6484,0 0,-5.8912 -139.7714,-0.4037 c -19.5865,0 -35.4835,15.8694 -35.4835,35.4497 l 0.346,82.1889 -240.18526,0 0,42.5631 240.18656,0 0,81.8103 c 0,19.5816 15.8969,35.4509 35.4835,35.4509" />
    <path
       d="m 925.19489,1016.8472 139.42401,0 0,-5.8911 17.6484,0 0,5.8911 6.3312,0 c 7.877,0 14.1994,-6.3237 14.1994,-14.1982 l 0,-14.10537 c 0,-7.8745 -6.3237,-14.19818 -14.1994,-14.19818 l -6.3312,0 0,5.8924 -17.6484,0 0,-5.8924 -86.10787,-0.1567 c -19.58783,0 -35.48351,-15.86936 -35.48351,-35.45216 l 0,-120.90071 c 0,-19.58281 15.89693,-35.45216 35.48351,-35.45216 l 86.10787,-0.0928 0,-5.89365 17.6484,0 0,5.89365 6.3312,0 c 7.877,0 14.1994,-6.32492 14.1994,-14.19942 l 0,-14.10669 c 0,-7.8719 -6.3237,-14.1969 -14.1994,-14.1969 l -6.3312,0 0,5.8912 -17.6484,0 0,-5.8912 -139.77131,-0.4037 c -19.58657,0 -35.4835,15.8694 -35.4835,35.4497 l 0.34601,82.18886 -240.18534,0 0,42.56319 240.18661,0 0,81.81028 c -10e-4,19.58156 15.89693,35.45096 35.48352,35.45096"
       sodipodi:nodetypes="sscccccccssccccssssccccccccccssssccccscccc"
       inkscape:connector-curvature="0"
       id="path4038"
       style="fill:none;stroke:#ff0000;stroke-width:0.13351919" />
    <path
       style="fill:none;stroke:#ff0000;stroke-width:0.13351919"
       id="path4032"
       inkscape:connector-curvature="0"
       sodipodi:nodetypes="sscccccccssccccssssccccccccccssssccccscccc"
       d="m 617.19487,1016.8472 139.42411,0 0,-5.8912 17.64837,0 0,5.8912 6.33118,0 c 7.87701,0 14.19942,-6.3237 14.19942,-14.1982 l 0,-14.1054 c 0,-7.8745 -6.32367,-14.19818 -14.19942,-14.19818 l -6.33118,0 0,5.8924 -17.64837,0 0,-5.8924 -86.10796,-0.1567 c -19.58783,0 -35.48351,-15.86935 -35.48351,-35.45216 l 0,-120.9007 c 0,-19.58282 15.89693,-35.45216 35.48351,-35.45216 l 86.10796,-0.0928 0,-5.89365 17.64837,0 0,5.89365 6.33118,0 c 7.87701,0 14.19942,-6.32492 14.19942,-14.19942 l 0,-14.10665 c 0,-7.87198 -6.32367,-14.1969 -14.19942,-14.1969 l -6.33118,0 0,5.89113 -17.64837,0 0,-5.89113 -139.7714,-0.4037 c -19.58657,0 -35.4835,15.86936 -35.4835,35.44966 l 0.34601,82.18886 -240.18535,0 0,42.56319 240.18661,0 0,81.81028 c -0.001,19.58158 15.89694,35.45088 35.48352,35.45088" />
    <rect
       transform="scale(1,-1)"
       style="fill:#000000;stroke:#000000;stroke-width:0.11872552"
       id="rect4034"
       x="756.59766"
       y="-1010.8996"
       width="17.580652"
       height="30.533894" />
    <rect
       transform="scale(1,-1)"
       style="fill:#000000;stroke:#000000;stroke-width:0.11872552"
       id="rect4036"
       x="756.59827"
       y="-776.34845"
       width="17.579401"
       height="30.533894" />
    <path
       transform="matrix(0.57855088,0,0,-0.67497171,61.812501,1727.3577)"
       d="m 170,1258.189 c 0,8.2842 -7.83502,15 -17.5,15 -9.66498,0 -17.5,-6.7158 -17.5,-15 0,-8.2843 7.83502,-15 17.5,-15 9.66498,0 17.5,6.7157 17.5,15 z"
       sodipodi:ry="15"
       sodipodi:rx="17.5"
       sodipodi:cy="1258.189"
       sodipodi:cx="152.5"
       id="path4014"
       style="fill:none;stroke:#ff0000;stroke-width:0.10206286;stroke-miterlimit:4;stroke-opacity:1;stroke-dasharray:none"
       sodipodi:type="arc" />
    <path
       d="m 311.19487,1016.8472 139.42411,0 0,-5.8912 17.64837,0 0,5.8912 6.33118,0 c 7.87701,0 14.19942,-6.3237 14.19942,-14.1982 l 0,-14.1054 c 0,-7.8745 -6.32367,-14.19818 -14.19942,-14.19818 l -6.33118,0 0,5.8924 -17.64837,0 0,-5.8924 -86.10796,-0.1567 c -19.58783,0 -35.48351,-15.86935 -35.48351,-35.45216 l 0,-120.9007 c 0,-19.58282 15.89693,-35.45216 35.48351,-35.45216 l 86.10796,-0.0928 0,-5.89365 17.64837,0 0,5.89365 6.33118,0 c 7.87701,0 14.19942,-6.32492 14.19942,-14.19942 l 0,-14.10665 c 0,-7.87198 -6.32367,-14.1969 -14.19942,-14.1969 l -6.33118,0 0,5.89113 -17.64837,0 0,-5.89113 -139.7714,-0.4037 c -19.58657,0 -35.4835,15.86936 -35.4835,35.44966 l 0.34601,82.18886 -240.185348,0 0,42.56319 240.186608,0 0,81.81028 c -10e-4,19.58158 15.89694,35.45088 35.48352,35.45088"
       sodipodi:nodetypes="sscccccccssccccssssccccccccccssssccccscccc"
       inkscape:connector-curvature="0"
       id="path3121"
       style="fill:none;stroke:#ff0000;stroke-width:0.13351919" />
    <rect
       transform="scale(1,-1)"
       height="30.533894"
       width="17.580652"
       y="-1010.8996"
       x="450.59763"
       id="rect3161"
       style="fill:#000000;stroke:#000000;stroke-width:0.11872552" />
    <rect
       transform="scale(1,-1)"
       height="30.533894"
       width="17.579401"
       y="-776.34845"
       x="450.52118"
       id="rect3167"
       style="fill:#000000;stroke:#000000;stroke-width:0.11872552" />
  </g>
</svg>
