<?xml version="1.0" encoding="UTF-8" standalone="no"?>
<!-- Creator: CorelDRAW -->

<svg
   xmlns:dc="http://purl.org/dc/elements/1.1/"
   xmlns:cc="http://creativecommons.org/ns#"
   xmlns:rdf="http://www.w3.org/1999/02/22-rdf-syntax-ns#"
   xmlns:svg="http://www.w3.org/2000/svg"
   xmlns="http://www.w3.org/2000/svg"
   xmlns:sodipodi="http://sodipodi.sourceforge.net/DTD/sodipodi-0.dtd"
   xmlns:inkscape="http://www.inkscape.org/namespaces/inkscape"
   xml:space="preserve"
   width="2160"
   height="1080"
   style="fill-rule:evenodd"
   viewBox="0 0 24 12"
   id="svg2"
   version="1.1"
   inkscape:version="0.48.1 "
   sodipodi:docname="frabjous.svg"><metadata
   id="metadata13"><rdf:RDF><cc:Work
       rdf:about=""><dc:format>image/svg+xml</dc:format><dc:type
         rdf:resource="http://purl.org/dc/dcmitype/StillImage" /><dc:title></dc:title></cc:Work></rdf:RDF></metadata><sodipodi:namedview
   pagecolor="#ffffff"
   bordercolor="#666666"
   borderopacity="1"
   objecttolerance="10"
   gridtolerance="10"
   guidetolerance="10"
   inkscape:pageopacity="0"
   inkscape:pageshadow="2"
   inkscape:window-width="1920"
   inkscape:window-height="1144"
   id="namedview11"
   showgrid="false"
   units="in"
   inkscape:zoom="1.7000242"
   inkscape:cx="1031.7403"
   inkscape:cy="486.36281"
   inkscape:window-x="-4"
   inkscape:window-y="-4"
   inkscape:window-maximized="1"
   inkscape:current-layer="svg2"
   inkscape:snap-bbox="true"
   inkscape:snap-smooth-nodes="true"
   inkscape:object-nodes="true"
   inkscape:document-units="mm"
   inkscape:snap-center="true"
   inkscape:snap-bbox-midpoints="true"
   inkscape:snap-object-midpoints="true" />
 <defs
   id="defs4"><style
     type="text/css"
     id="style6">
   
    .str0 {stroke:#DD137B;stroke-width:0.003}
    .fil0 {fill:white}
   
  </style></defs>
 
<path
   sodipodi:nodetypes="cccc"
   inkscape:connector-curvature="0"
   id="path3027"
   d="M 8.8607841,4.0184258 C 8.7739399,4.3096564 8.8145345,4.6977825 8.9662434,4.9797197 8.9838004,4.7164975 9.0773191,4.4008838 9.1942216,4.2003008 z"
   style="fill:none;stroke:#0000d5;stroke-width:0.00901022;stroke-miterlimit:4;stroke-opacity:1" /><path
   style="fill:none;stroke:#0000d5;stroke-width:0.00901022;stroke-miterlimit:4;stroke-opacity:1"
   d="M 11.83141,8.8684255 C 11.91825,8.5771949 11.87766,8.1890688 11.725951,7.9071316 11.708391,8.1703539 11.614875,8.4859675 11.497973,8.6865505 z"
   id="path3002"
   inkscape:connector-curvature="0"
   sodipodi:nodetypes="cccc" /><path
   style="fill:none;stroke:#ff0000;stroke-width:0.00901022;stroke-miterlimit:4;stroke-opacity:1;stroke-dasharray:none"
   d="m 9.0277418,3.5655667 -0.09271,0.1704861 -0.2,-0.109375 c -0.04521,0.075099 -0.08185,0.1514774 -0.110764,0.2284722 l 0.100347,0.00451 -0.008,0.1802083 -0.145486,-0.0066 c -0.01212,0.054038 -0.02095,0.1083708 -0.02639,0.1625 l 0.164584,0.00729 -0.008,0.1802083 -0.162848,-0.00729 c 0.009,0.3454365 0.13859,0.6811057 0.321181,0.9597222 0.296703,0.4521694 1.136196,0.9828495 1.4367952,1.1851377 0.300599,0.2022882 0.99796,0.686504 1.132649,1.1235426 0.134689,0.4370385 -0.09055,0.8688987 -0.307638,1.1590276 l 0.165278,0.090278 -0.09306,0.1711805 0.169445,0.092361 0.09305,-0.1708333 0.131597,0.071875 -0.09271,0.1704861 0.169445,0.092708 0.09271,-0.1704861 0.2,0.109375 c 0.04521,-0.075099 0.08185,-0.1514773 0.110763,-0.2284722 l -0.100347,-0.00451 0.008,-0.1802084 0.145485,0.0066 c 0.01212,-0.054038 0.02095,-0.1083708 0.02639,-0.1625 l -0.164583,-0.00729 0.008,-0.1802083 0.162846,0.00729 c -0.009,-0.3454362 -0.1386,-0.6811054 -0.32119,-0.9597218 C 11.540778,7.1060292 10.718416,6.5636614 10.385183,6.354202 9.9198428,6.0450595 9.4279998,5.7198439 9.2631598,5.2426499 9.1284708,4.8056115 9.3537118,4.3737512 9.5707968,4.0836222 l -0.165277,-0.090278 0.09305,-0.1711806 -0.169444,-0.092361 -0.09306,0.1708334 -0.131596,-0.071875 0.09271,-0.1704861 z"
   id="path3097"
   inkscape:connector-curvature="0"
   sodipodi:nodetypes="cccccccccccczsccccccccccccccccccscccccccccc" /></svg>