<?xml version="1.0" encoding="UTF-8"?>
<!DOCTYPE svg PUBLIC "-//W3C//DTD SVG 1.1//EN" "http://www.w3.org/Graphics/SVG/1.1/DTD/svg11.dtd">
<!-- Creator: CorelDRAW -->
<svg xmlns="http://www.w3.org/2000/svg" xml:space="preserve" width="6.4in" height="3.3in" style="shape-rendering:geometricPrecision; text-rendering:geometricPrecision; image-rendering:optimizeQuality; fill-rule:evenodd; clip-rule:evenodd"
viewBox="0 0 6.4 3.3"
 xmlns:xlink="http://www.w3.org/1999/xlink"
 version="1.1">
 <defs>
  <style type="text/css">
   <![CDATA[
    .str0 {stroke:blue;stroke-width:0.003;stroke-linecap:round;stroke-linejoin:round}
    .fil0 {fill:none}
   ]]>
  </style>
 </defs>
 <g id="Layer_x0020_1">
  <metadata id="CorelCorpID_0Corel-Layer"/>
  <g id="face0">
   <line id="_190081768" class="fil0 str0" x1="6.395" y1="3.28" x2="6.395" y2= "0.02" />
   <line id="_190084712" class="fil0 str0" x1="6.395" y1="0.02" x2="0.005" y2= "0.02" />
   <line id="_190086368" class="fil0 str0" x1="0.005" y1="0.02" x2="0.005" y2= "3.28" />
   <line id="_190073336" class="fil0 str0" x1="0.005" y1="3.28" x2="0.76" y2= "3.28" />
   <line id="_190075360" class="fil0 str0" x1="0.76" y1="3.28" x2="0.76" y2= "2.65" />
   <line id="_190077408" class="fil0 str0" x1="0.76" y1="2.65" x2="5.64" y2= "2.65" />
   <line id="_190079096" class="fil0 str0" x1="5.64" y1="2.65" x2="5.64" y2= "3.28" />
   <line id="_190088424" class="fil0 str0" x1="5.64" y1="3.28" x2="6.395" y2= "3.28" />
   <line id="_190090592" class="fil0 str0" x1="0.694906" y1="2.70032" x2="0.685913" y2= "2.72203" />
   <line id="_190092824" class="fil0 str0" x1="0.685913" y1="2.72203" x2="0.67161" y2= "2.74067" />
   <line id="_190094944" class="fil0 str0" x1="0.67161" y1="2.74067" x2="0.652972" y2= "2.75497" />
   <line id="_190097064" class="fil0 str0" x1="0.652972" y1="2.75497" x2="0.631268" y2= "2.76396" />
   <line id="_190099184" class="fil0 str0" x1="0.631268" y1="2.76396" x2="0.607972" y2= "2.76703" />
   <line id="_190101304" class="fil0 str0" x1="0.607972" y1="2.76703" x2="0.584677" y2= "2.76396" />
   <line id="_190103424" class="fil0 str0" x1="0.584677" y1="2.76396" x2="0.562972" y2= "2.75497" />
   <line id="_190105544" class="fil0 str0" x1="0.562972" y1="2.75497" x2="0.544331" y2= "2.74067" />
   <line id="_190107664" class="fil0 str0" x1="0.544331" y1="2.74067" x2="0.530031" y2= "2.72203" />
   <line id="_190109784" class="fil0 str0" x1="0.530031" y1="2.72203" x2="0.521039" y2= "2.70032" />
   <line id="_190111904" class="fil0 str0" x1="0.521039" y1="2.70032" x2="0.517972" y2= "2.67703" />
   <line id="_190114024" class="fil0 str0" x1="0.517972" y1="2.67703" x2="0.521039" y2= "2.65374" />
   <line id="_190116144" class="fil0 str0" x1="0.521039" y1="2.65374" x2="0.530031" y2= "2.63203" />
   <line id="_190118264" class="fil0 str0" x1="0.530031" y1="2.63203" x2="0.544331" y2= "2.61339" />
   <line id="_190120384" class="fil0 str0" x1="0.544331" y1="2.61339" x2="0.562972" y2= "2.59909" />
   <line id="_190122528" class="fil0 str0" x1="0.562972" y1="2.59909" x2="0.584677" y2= "2.59009" />
   <line id="_190124632" class="fil0 str0" x1="0.584677" y1="2.59009" x2="0.607972" y2= "2.58703" />
   <line id="_190126712" class="fil0 str0" x1="0.607972" y1="2.58703" x2="0.631268" y2= "2.59009" />
   <line id="_190127904" class="fil0 str0" x1="0.631268" y1="2.59009" x2="0.635" y2= "2.59164" />
   <line id="_190128784" class="fil0 str0" x1="0.635" y1="2.59164" x2="0.652972" y2= "2.59909" />
   <line id="_190132976" class="fil0 str0" x1="0.652972" y1="2.59909" x2="0.67161" y2= "2.61339" />
   <line id="_190135096" class="fil0 str0" x1="0.67161" y1="2.61339" x2="0.685913" y2= "2.63203" />
   <line id="_190137216" class="fil0 str0" x1="0.685913" y1="2.63203" x2="0.693358" y2= "2.65" />
   <line id="_190139336" class="fil0 str0" x1="0.693358" y1="2.65" x2="0.694906" y2= "2.65374" />
   <line id="_190141456" class="fil0 str0" x1="0.694906" y1="2.65374" x2="0.697972" y2= "2.67703" />
   <line id="_190143576" class="fil0 str0" x1="0.697972" y1="2.67703" x2="0.694906" y2= "2.70032" />
   <line id="_190145696" class="fil0 str0" x1="0.0911102" y1="2.74067" x2="0.0768071" y2= "2.72203" />
   <line id="_190147840" class="fil0 str0" x1="0.0768071" y1="2.72203" x2="0.067815" y2= "2.70032" />
   <line id="_190149952" class="fil0 str0" x1="0.067815" y1="2.70032" x2="0.064748" y2= "2.67703" />
   <line id="_190152056" class="fil0 str0" x1="0.064748" y1="2.67703" x2="0.067815" y2= "2.65374" />
   <line id="_190154160" class="fil0 str0" x1="0.067815" y1="2.65374" x2="0.0768071" y2= "2.63203" />
   <line id="_190156240" class="fil0 str0" x1="0.0768071" y1="2.63203" x2="0.0911102" y2= "2.61339" />
   <line id="_190158360" class="fil0 str0" x1="0.0911102" y1="2.61339" x2="0.109748" y2= "2.59909" />
   <line id="_190160480" class="fil0 str0" x1="0.109748" y1="2.59909" x2="0.131457" y2= "2.59009" />
   <line id="_190162600" class="fil0 str0" x1="0.131457" y1="2.59009" x2="0.154748" y2= "2.58703" />
   <line id="_190164720" class="fil0 str0" x1="0.154748" y1="2.58703" x2="0.178043" y2= "2.59009" />
   <line id="_190166840" class="fil0 str0" x1="0.178043" y1="2.59009" x2="0.199748" y2= "2.59909" />
   <line id="_190169608" class="fil0 str0" x1="0.199748" y1="2.59909" x2="0.21839" y2= "2.61339" />
   <line id="_190172376" class="fil0 str0" x1="0.21839" y1="2.61339" x2="0.232693" y2= "2.63203" />
   <line id="_190175144" class="fil0 str0" x1="0.232693" y1="2.63203" x2="0.241681" y2= "2.65374" />
   <line id="_190177912" class="fil0 str0" x1="0.241681" y1="2.65374" x2="0.244748" y2= "2.67703" />
   <line id="_190180680" class="fil0 str0" x1="0.244748" y1="2.67703" x2="0.241681" y2= "2.70032" />
   <line id="_190183448" class="fil0 str0" x1="0.241681" y1="2.70032" x2="0.232693" y2= "2.72203" />
   <line id="_190186216" class="fil0 str0" x1="0.232693" y1="2.72203" x2="0.21839" y2= "2.74067" />
   <line id="_190188984" class="fil0 str0" x1="0.21839" y1="2.74067" x2="0.199748" y2= "2.75497" />
   <line id="_190191752" class="fil0 str0" x1="0.199748" y1="2.75497" x2="0.178043" y2= "2.76396" />
   <line id="_190194520" class="fil0 str0" x1="0.178043" y1="2.76396" x2="0.154748" y2= "2.76703" />
   <line id="_190197288" class="fil0 str0" x1="0.154748" y1="2.76703" x2="0.131457" y2= "2.76396" />
   <line id="_190200056" class="fil0 str0" x1="0.131457" y1="2.76396" x2="0.109748" y2= "2.75497" />
   <line id="_190202824" class="fil0 str0" x1="0.109748" y1="2.75497" x2="0.0911102" y2= "2.74067" />
   <line id="_190205592" class="fil0 str0" x1="0.178043" y1="3.04332" x2="0.199748" y2= "3.05231" />
   <line id="_190208360" class="fil0 str0" x1="0.199748" y1="3.05231" x2="0.21839" y2= "3.06661" />
   <line id="_190211128" class="fil0 str0" x1="0.21839" y1="3.06661" x2="0.232693" y2= "3.08525" />
   <line id="_190213896" class="fil0 str0" x1="0.232693" y1="3.08525" x2="0.241681" y2= "3.10696" />
   <line id="_190216664" class="fil0 str0" x1="0.241681" y1="3.10696" x2="0.244748" y2= "3.13025" />
   <line id="_190219432" class="fil0 str0" x1="0.244748" y1="3.13025" x2="0.241681" y2= "3.15354" />
   <line id="_190222200" class="fil0 str0" x1="0.241681" y1="3.15354" x2="0.232693" y2= "3.17525" />
   <line id="_190224968" class="fil0 str0" x1="0.232693" y1="3.17525" x2="0.21839" y2= "3.19389" />
   <line id="_190227776" class="fil0 str0" x1="0.21839" y1="3.19389" x2="0.199748" y2= "3.20819" />
   <line id="_190230504" class="fil0 str0" x1="0.199748" y1="3.20819" x2="0.178043" y2= "3.21719" />
   <line id="_190233408" class="fil0 str0" x1="0.178043" y1="3.21719" x2="0.154748" y2= "3.22025" />
   <line id="_190236304" class="fil0 str0" x1="0.154748" y1="3.22025" x2="0.131457" y2= "3.21719" />
   <line id="_190239200" class="fil0 str0" x1="0.131457" y1="3.21719" x2="0.109748" y2= "3.20819" />
   <line id="_190242096" class="fil0 str0" x1="0.109748" y1="3.20819" x2="0.0911102" y2= "3.19389" />
   <line id="_190245000" class="fil0 str0" x1="0.0911102" y1="3.19389" x2="0.0768071" y2= "3.17525" />
   <line id="_190247896" class="fil0 str0" x1="0.0768071" y1="3.17525" x2="0.067815" y2= "3.15354" />
   <line id="_190250792" class="fil0 str0" x1="0.067815" y1="3.15354" x2="0.064748" y2= "3.13025" />
   <line id="_190253712" class="fil0 str0" x1="0.064748" y1="3.13025" x2="0.067815" y2= "3.10696" />
   <line id="_190256592" class="fil0 str0" x1="0.067815" y1="3.10696" x2="0.0768071" y2= "3.08525" />
   <line id="_190259448" class="fil0 str0" x1="0.0768071" y1="3.08525" x2="0.0911102" y2= "3.06661" />
   <line id="_190262344" class="fil0 str0" x1="0.0911102" y1="3.06661" x2="0.109748" y2= "3.05231" />
   <line id="_190265280" class="fil0 str0" x1="0.109748" y1="3.05231" x2="0.131457" y2= "3.04332" />
   <line id="_190268136" class="fil0 str0" x1="0.131457" y1="3.04332" x2="0.154748" y2= "3.04025" />
   <line id="_190271032" class="fil0 str0" x1="0.154748" y1="3.04025" x2="0.178043" y2= "3.04332" />
   <line id="_190273952" class="fil0 str0" x1="0.529228" y1="3.17383" x2="0.52063" y2= "3.15197" />
   <line id="_190276832" class="fil0 str0" x1="0.52063" y1="3.15197" x2="0.517988" y2= "3.12862" />
   <line id="_190279688" class="fil0 str0" x1="0.517988" y1="3.12862" x2="0.521472" y2= "3.10539" />
   <line id="_190282584" class="fil0 str0" x1="0.521472" y1="3.10539" x2="0.530858" y2= "3.08385" />
   <line id="_190285480" class="fil0 str0" x1="0.530858" y1="3.08385" x2="0.545492" y2= "3.06547" />
   <line id="_190288400" class="fil0 str0" x1="0.545492" y1="3.06547" x2="0.56439" y2= "3.05151" />
   <line id="_190291280" class="fil0 str0" x1="0.56439" y1="3.05151" x2="0.586256" y2= "3.04291" />
   <line id="_190294144" class="fil0 str0" x1="0.586256" y1="3.04291" x2="0.609598" y2= "3.04027" />
   <line id="_190297184" class="fil0 str0" x1="0.609598" y1="3.04027" x2="0.632835" y2= "3.04375" />
   <line id="_190300224" class="fil0 str0" x1="0.632835" y1="3.04375" x2="0.654374" y2= "3.05313" />
   <line id="_190303264" class="fil0 str0" x1="0.654374" y1="3.05313" x2="0.672752" y2= "3.06777" />
   <line id="_190306304" class="fil0 str0" x1="0.672752" y1="3.06777" x2="0.686717" y2= "3.08667" />
   <line id="_190307640" class="fil0 str0" x1="0.686717" y1="3.08667" x2="0.695311" y2= "3.10854" />
   <line id="_190312384" class="fil0 str0" x1="0.695311" y1="3.10854" x2="0.697957" y2= "3.13188" />
   <line id="_190315424" class="fil0 str0" x1="0.697957" y1="3.13188" x2="0.694469" y2= "3.15511" />
   <line id="_190318464" class="fil0 str0" x1="0.694469" y1="3.15511" x2="0.685087" y2= "3.17665" />
   <line id="_190321504" class="fil0 str0" x1="0.685087" y1="3.17665" x2="0.670449" y2= "3.19503" />
   <line id="_190324544" class="fil0 str0" x1="0.670449" y1="3.19503" x2="0.651555" y2= "3.209" />
   <line id="_190327584" class="fil0 str0" x1="0.651555" y1="3.209" x2="0.629689" y2= "3.21759" />
   <line id="_190330784" class="fil0 str0" x1="0.629689" y1="3.21759" x2="0.606343" y2= "3.22024" />
   <line id="_190333944" class="fil0 str0" x1="0.606343" y1="3.22024" x2="0.58311" y2= "3.21675" />
   <line id="_190337080" class="fil0 str0" x1="0.58311" y1="3.21675" x2="0.561571" y2= "3.20737" />
   <line id="_190340256" class="fil0 str0" x1="0.561571" y1="3.20737" x2="0.543193" y2= "3.19273" />
   <line id="_190343432" class="fil0 str0" x1="0.543193" y1="3.19273" x2="0.529228" y2= "3.17383" />
   <line id="_190346608" class="fil0 str0" x1="6.32991" y1="0.195323" x2="6.32091" y2= "0.217028" />
   <line id="_190349784" class="fil0 str0" x1="6.32091" y1="0.217028" x2="6.30661" y2= "0.235669" />
   <line id="_190352984" class="fil0 str0" x1="6.30661" y1="0.235669" x2="6.28797" y2= "0.249969" />
   <line id="_190356144" class="fil0 str0" x1="6.28797" y1="0.249969" x2="6.26626" y2= "0.258961" />
   <line id="_190359304" class="fil0 str0" x1="6.26626" y1="0.258961" x2="6.24297" y2= "0.262028" />
   <line id="_190362464" class="fil0 str0" x1="6.24297" y1="0.262028" x2="6.21968" y2= "0.258961" />
   <line id="_190365608" class="fil0 str0" x1="6.21968" y1="0.258961" x2="6.19797" y2= "0.249969" />
   <line id="_190368752" class="fil0 str0" x1="6.19797" y1="0.249969" x2="6.17933" y2= "0.235669" />
   <line id="_190371888" class="fil0 str0" x1="6.17933" y1="0.235669" x2="6.16503" y2= "0.217028" />
   <line id="_190375072" class="fil0 str0" x1="6.16503" y1="0.217028" x2="6.15604" y2= "0.195323" />
   <line id="_190378328" class="fil0 str0" x1="6.15604" y1="0.195323" x2="6.15297" y2= "0.172028" />
   <line id="_190381488" class="fil0 str0" x1="6.15297" y1="0.172028" x2="6.15604" y2= "0.148732" />
   <line id="_190384624" class="fil0 str0" x1="6.15604" y1="0.148732" x2="6.16503" y2= "0.127028" />
   <line id="_190387800" class="fil0 str0" x1="6.16503" y1="0.127028" x2="6.17933" y2= "0.10839" />
   <line id="_190391000" class="fil0 str0" x1="6.17933" y1="0.10839" x2="6.19797" y2= "0.0940866" />
   <line id="_190394160" class="fil0 str0" x1="6.19797" y1="0.0940866" x2="6.21968" y2= "0.0850945" />
   <line id="_190397320" class="fil0 str0" x1="6.21968" y1="0.0850945" x2="6.24297" y2= "0.0820276" />
   <line id="_190400480" class="fil0 str0" x1="6.24297" y1="0.0820276" x2="6.26626" y2= "0.0850945" />
   <line id="_190401912" class="fil0 str0" x1="6.26626" y1="0.0850945" x2="6.27" y2= "0.0866417" />
   <line id="_190403440" class="fil0 str0" x1="6.27" y1="0.0866417" x2="6.28797" y2= "0.0940866" />
   <line id="_190409880" class="fil0 str0" x1="6.28797" y1="0.0940866" x2="6.30661" y2= "0.10839" />
   <line id="_190413016" class="fil0 str0" x1="6.30661" y1="0.10839" x2="6.32091" y2= "0.127028" />
   <line id="_190416168" class="fil0 str0" x1="6.32091" y1="0.127028" x2="6.32836" y2= "0.145" />
   <line id="_190416016" class="fil0 str0" x1="6.32836" y1="0.145" x2="6.32991" y2= "0.148732" />
   <line id="_190422472" class="fil0 str0" x1="6.32991" y1="0.148732" x2="6.33297" y2= "0.172028" />
   <line id="_190425640" class="fil0 str0" x1="6.33297" y1="0.172028" x2="6.32991" y2= "0.195323" />
   <line id="_190428776" class="fil0 str0" x1="5.72611" y1="0.235669" x2="5.71181" y2= "0.217028" />
   <line id="_190431952" class="fil0 str0" x1="5.71181" y1="0.217028" x2="5.70281" y2= "0.195323" />
   <line id="_190435128" class="fil0 str0" x1="5.70281" y1="0.195323" x2="5.69975" y2= "0.172028" />
   <line id="_190438304" class="fil0 str0" x1="5.69975" y1="0.172028" x2="5.70281" y2= "0.148732" />
   <line id="_190441488" class="fil0 str0" x1="5.70281" y1="0.148732" x2="5.71181" y2= "0.127028" />
   <line id="_190442960" class="fil0 str0" x1="5.71181" y1="0.127028" x2="5.72611" y2= "0.10839" />
   <line id="_190447840" class="fil0 str0" x1="5.72611" y1="0.10839" x2="5.74475" y2= "0.0940866" />
   <line id="_190451040" class="fil0 str0" x1="5.74475" y1="0.0940866" x2="5.76646" y2= "0.0850945" />
   <line id="_190454312" class="fil0 str0" x1="5.76646" y1="0.0850945" x2="5.78975" y2= "0.0820276" />
   <line id="_190457448" class="fil0 str0" x1="5.78975" y1="0.0820276" x2="5.81304" y2= "0.0850945" />
   <line id="_190460624" class="fil0 str0" x1="5.81304" y1="0.0850945" x2="5.83475" y2= "0.0940866" />
   <line id="_190463800" class="fil0 str0" x1="5.83475" y1="0.0940866" x2="5.85339" y2= "0.10839" />
   <line id="_190466976" class="fil0 str0" x1="5.85339" y1="0.10839" x2="5.86769" y2= "0.127028" />
   <line id="_190470160" class="fil0 str0" x1="5.86769" y1="0.127028" x2="5.87668" y2= "0.148732" />
   <line id="_190471632" class="fil0 str0" x1="5.87668" y1="0.148732" x2="5.87975" y2= "0.172028" />
   <line id="_190476512" class="fil0 str0" x1="5.87975" y1="0.172028" x2="5.87668" y2= "0.195323" />
   <line id="_190479688" class="fil0 str0" x1="5.87668" y1="0.195323" x2="5.86769" y2= "0.217028" />
   <line id="_190482864" class="fil0 str0" x1="5.86769" y1="0.217028" x2="5.85339" y2= "0.235669" />
   <line id="_190486064" class="fil0 str0" x1="5.85339" y1="0.235669" x2="5.83475" y2= "0.249969" />
   <line id="_190489224" class="fil0 str0" x1="5.83475" y1="0.249969" x2="5.81304" y2= "0.258961" />
   <line id="_190492360" class="fil0 str0" x1="5.81304" y1="0.258961" x2="5.78975" y2= "0.262028" />
   <line id="_190495560" class="fil0 str0" x1="5.78975" y1="0.262028" x2="5.76646" y2= "0.258961" />
   <line id="_190498704" class="fil0 str0" x1="5.76646" y1="0.258961" x2="5.74475" y2= "0.249969" />
   <line id="_190501864" class="fil0 str0" x1="5.74475" y1="0.249969" x2="5.72611" y2= "0.235669" />
   <line id="_190505000" class="fil0 str0" x1="5.81304" y1="0.538319" x2="5.83475" y2= "0.547307" />
   <line id="_190508176" class="fil0 str0" x1="5.83475" y1="0.547307" x2="5.85339" y2= "0.56161" />
   <line id="_190511352" class="fil0 str0" x1="5.85339" y1="0.56161" x2="5.86769" y2= "0.580252" />
   <line id="_190514528" class="fil0 str0" x1="5.86769" y1="0.580252" x2="5.87668" y2= "0.601957" />
   <line id="_190517704" class="fil0 str0" x1="5.87668" y1="0.601957" x2="5.87975" y2= "0.625252" />
   <line id="_190520880" class="fil0 str0" x1="5.87975" y1="0.625252" x2="5.87668" y2= "0.648543" />
   <line id="_190524056" class="fil0 str0" x1="5.87668" y1="0.648543" x2="5.86769" y2= "0.670252" />
   <line id="_190527232" class="fil0 str0" x1="5.86769" y1="0.670252" x2="5.85339" y2= "0.68889" />
   <line id="_190530408" class="fil0 str0" x1="5.85339" y1="0.68889" x2="5.83475" y2= "0.703193" />
   <line id="_190533584" class="fil0 str0" x1="5.83475" y1="0.703193" x2="5.81304" y2= "0.712185" />
   <line id="_190536784" class="fil0 str0" x1="5.81304" y1="0.712185" x2="5.78975" y2= "0.715252" />
   <line id="_190539928" class="fil0 str0" x1="5.78975" y1="0.715252" x2="5.76646" y2= "0.712185" />
   <line id="_190541392" class="fil0 str0" x1="5.76646" y1="0.712185" x2="5.765" y2= "0.711583" />
   <line id="_190542912" class="fil0 str0" x1="5.765" y1="0.711583" x2="5.74475" y2= "0.703193" />
   <line id="_190549304" class="fil0 str0" x1="5.74475" y1="0.703193" x2="5.72611" y2= "0.68889" />
   <line id="_190552496" class="fil0 str0" x1="5.72611" y1="0.68889" x2="5.71181" y2= "0.670252" />
   <line id="_190555648" class="fil0 str0" x1="5.71181" y1="0.670252" x2="5.70342" y2= "0.65" />
   <line id="_190555496" class="fil0 str0" x1="5.70342" y1="0.65" x2="5.70281" y2= "0.648543" />
   <line id="_190561928" class="fil0 str0" x1="5.70281" y1="0.648543" x2="5.69975" y2= "0.625252" />
   <line id="_190565104" class="fil0 str0" x1="5.69975" y1="0.625252" x2="5.70281" y2= "0.601957" />
   <line id="_190568320" class="fil0 str0" x1="5.70281" y1="0.601957" x2="5.71181" y2= "0.580252" />
   <line id="_190571496" class="fil0 str0" x1="5.71181" y1="0.580252" x2="5.72611" y2= "0.56161" />
   <line id="_190574632" class="fil0 str0" x1="5.72611" y1="0.56161" x2="5.74475" y2= "0.547307" />
   <line id="_190577832" class="fil0 str0" x1="5.74475" y1="0.547307" x2="5.76646" y2= "0.538319" />
   <line id="_190580992" class="fil0 str0" x1="5.76646" y1="0.538319" x2="5.78975" y2= "0.535252" />
   <line id="_190584128" class="fil0 str0" x1="5.78975" y1="0.535252" x2="5.81304" y2= "0.538319" />
   <line id="_190587304" class="fil0 str0" x1="6.16423" y1="0.668835" x2="6.15563" y2= "0.646969" />
   <line id="_190590480" class="fil0 str0" x1="6.15563" y1="0.646969" x2="6.15299" y2= "0.623622" />
   <line id="_190593656" class="fil0 str0" x1="6.15299" y1="0.623622" x2="6.15648" y2= "0.60039" />
   <line id="_190596832" class="fil0 str0" x1="6.15648" y1="0.60039" x2="6.16585" y2= "0.57885" />
   <line id="_190600008" class="fil0 str0" x1="6.16585" y1="0.57885" x2="6.18049" y2= "0.560472" />
   <line id="_190603208" class="fil0 str0" x1="6.18049" y1="0.560472" x2="6.19939" y2= "0.546508" />
   <line id="_190606376" class="fil0 str0" x1="6.19939" y1="0.546508" x2="6.22126" y2= "0.537909" />
   <line id="_190609512" class="fil0 str0" x1="6.22126" y1="0.537909" x2="6.2446" y2= "0.535268" />
   <line id="_190612688" class="fil0 str0" x1="6.2446" y1="0.535268" x2="6.26783" y2= "0.538752" />
   <line id="_190615888" class="fil0 str0" x1="6.26783" y1="0.538752" x2="6.28937" y2= "0.548134" />
   <line id="_190619048" class="fil0 str0" x1="6.28937" y1="0.548134" x2="6.30775" y2= "0.562772" />
   <line id="_190622184" class="fil0 str0" x1="6.30775" y1="0.562772" x2="6.32172" y2= "0.581669" />
   <line id="_190625360" class="fil0 str0" x1="6.32172" y1="0.581669" x2="6.33031" y2= "0.603535" />
   <line id="_190628536" class="fil0 str0" x1="6.33031" y1="0.603535" x2="6.33296" y2= "0.626878" />
   <line id="_190631736" class="fil0 str0" x1="6.33296" y1="0.626878" x2="6.32947" y2= "0.650114" />
   <line id="_190634896" class="fil0 str0" x1="6.32947" y1="0.650114" x2="6.32009" y2= "0.671654" />
   <line id="_190638032" class="fil0 str0" x1="6.32009" y1="0.671654" x2="6.30545" y2= "0.690031" />
   <line id="_190641208" class="fil0 str0" x1="6.30545" y1="0.690031" x2="6.28656" y2= "0.703996" />
   <line id="_190644384" class="fil0 str0" x1="6.28656" y1="0.703996" x2="6.26469" y2= "0.712591" />
   <line id="_190647560" class="fil0 str0" x1="6.26469" y1="0.712591" x2="6.24135" y2= "0.715236" />
   <line id="_190650744" class="fil0 str0" x1="6.24135" y1="0.715236" x2="6.21811" y2= "0.711748" />
   <line id="_190653920" class="fil0 str0" x1="6.21811" y1="0.711748" x2="6.19657" y2= "0.702366" />
   <line id="_190657096" class="fil0 str0" x1="6.19657" y1="0.702366" x2="6.17819" y2= "0.687728" />
   <line id="_190660272" class="fil0 str0" x1="6.17819" y1="0.687728" x2="6.16423" y2= "0.668835" />
   <line id="_190663448" class="fil0 str0" x1="6.16423" y1="3.17383" x2="6.15563" y2= "3.15197" />
   <line id="_190666624" class="fil0 str0" x1="6.15563" y1="3.15197" x2="6.15299" y2= "3.12862" />
   <line id="_190669800" class="fil0 str0" x1="6.15299" y1="3.12862" x2="6.15648" y2= "3.10539" />
   <line id="_190673000" class="fil0 str0" x1="6.15648" y1="3.10539" x2="6.16585" y2= "3.08385" />
   <line id="_190676160" class="fil0 str0" x1="6.16585" y1="3.08385" x2="6.18049" y2= "3.06547" />
   <line id="_190679320" class="fil0 str0" x1="6.18049" y1="3.06547" x2="6.19939" y2= "3.05151" />
   <line id="_190682480" class="fil0 str0" x1="6.19939" y1="3.05151" x2="6.22126" y2= "3.04291" />
   <line id="_190685616" class="fil0 str0" x1="6.22126" y1="3.04291" x2="6.2446" y2= "3.04027" />
   <line id="_190688792" class="fil0 str0" x1="6.2446" y1="3.04027" x2="6.26783" y2= "3.04375" />
   <line id="_190691992" class="fil0 str0" x1="6.26783" y1="3.04375" x2="6.28937" y2= "3.05313" />
   <line id="_190695152" class="fil0 str0" x1="6.28937" y1="3.05313" x2="6.30775" y2= "3.06777" />
   <line id="_190698288" class="fil0 str0" x1="6.30775" y1="3.06777" x2="6.32172" y2= "3.08667" />
   <line id="_190701464" class="fil0 str0" x1="6.32172" y1="3.08667" x2="6.33031" y2= "3.10854" />
   <line id="_190704640" class="fil0 str0" x1="6.33031" y1="3.10854" x2="6.33296" y2= "3.13188" />
   <line id="_190707840" class="fil0 str0" x1="6.33296" y1="3.13188" x2="6.32947" y2= "3.15511" />
   <line id="_190711000" class="fil0 str0" x1="6.32947" y1="3.15511" x2="6.32009" y2= "3.17665" />
   <line id="_190714136" class="fil0 str0" x1="6.32009" y1="3.17665" x2="6.30545" y2= "3.19503" />
   <line id="_190717312" class="fil0 str0" x1="6.30545" y1="3.19503" x2="6.28656" y2= "3.209" />
   <line id="_190720488" class="fil0 str0" x1="6.28656" y1="3.209" x2="6.26469" y2= "3.21759" />
   <line id="_190723664" class="fil0 str0" x1="6.26469" y1="3.21759" x2="6.24135" y2= "3.22024" />
   <line id="_190726840" class="fil0 str0" x1="6.24135" y1="3.22024" x2="6.21811" y2= "3.21675" />
   <line id="_190730016" class="fil0 str0" x1="6.21811" y1="3.21675" x2="6.19657" y2= "3.20737" />
   <line id="_190733192" class="fil0 str0" x1="6.19657" y1="3.20737" x2="6.17819" y2= "3.19273" />
   <line id="_190736368" class="fil0 str0" x1="6.17819" y1="3.19273" x2="6.16423" y2= "3.17383" />
   <line id="_190739584" class="fil0 str0" x1="5.81304" y1="3.04332" x2="5.83475" y2= "3.05231" />
   <line id="_190742720" class="fil0 str0" x1="5.83475" y1="3.05231" x2="5.85339" y2= "3.06661" />
   <line id="_190745920" class="fil0 str0" x1="5.85339" y1="3.06661" x2="5.86769" y2= "3.08525" />
   <line id="_190749088" class="fil0 str0" x1="5.86769" y1="3.08525" x2="5.87668" y2= "3.10696" />
   <line id="_190752224" class="fil0 str0" x1="5.87668" y1="3.10696" x2="5.87975" y2= "3.13025" />
   <line id="_190755400" class="fil0 str0" x1="5.87975" y1="3.13025" x2="5.87668" y2= "3.15354" />
   <line id="_190758576" class="fil0 str0" x1="5.87668" y1="3.15354" x2="5.86769" y2= "3.17525" />
   <line id="_190761752" class="fil0 str0" x1="5.86769" y1="3.17525" x2="5.85339" y2= "3.19389" />
   <line id="_190764928" class="fil0 str0" x1="5.85339" y1="3.19389" x2="5.83475" y2= "3.20819" />
   <line id="_190768104" class="fil0 str0" x1="5.83475" y1="3.20819" x2="5.81304" y2= "3.21719" />
   <line id="_190771304" class="fil0 str0" x1="5.81304" y1="3.21719" x2="5.78975" y2= "3.22025" />
   <line id="_190774448" class="fil0 str0" x1="5.78975" y1="3.22025" x2="5.76646" y2= "3.21719" />
   <line id="_190777608" class="fil0 str0" x1="5.76646" y1="3.21719" x2="5.74475" y2= "3.20819" />
   <line id="_190780744" class="fil0 str0" x1="5.74475" y1="3.20819" x2="5.72611" y2= "3.19389" />
   <line id="_190783920" class="fil0 str0" x1="5.72611" y1="3.19389" x2="5.71181" y2= "3.17525" />
   <line id="_190787096" class="fil0 str0" x1="5.71181" y1="3.17525" x2="5.70281" y2= "3.15354" />
   <line id="_190790272" class="fil0 str0" x1="5.70281" y1="3.15354" x2="5.69975" y2= "3.13025" />
   <line id="_190793488" class="fil0 str0" x1="5.69975" y1="3.13025" x2="5.70281" y2= "3.10696" />
   <line id="_190796648" class="fil0 str0" x1="5.70281" y1="3.10696" x2="5.71181" y2= "3.08525" />
   <line id="_190799808" class="fil0 str0" x1="5.71181" y1="3.08525" x2="5.72611" y2= "3.06661" />
   <line id="_190802944" class="fil0 str0" x1="5.72611" y1="3.06661" x2="5.74475" y2= "3.05231" />
   <line id="_190806144" class="fil0 str0" x1="5.74475" y1="3.05231" x2="5.76646" y2= "3.04332" />
   <line id="_190809304" class="fil0 str0" x1="5.76646" y1="3.04332" x2="5.78975" y2= "3.04025" />
   <line id="_190812440" class="fil0 str0" x1="5.78975" y1="3.04025" x2="5.81304" y2= "3.04332" />
   <line id="_190815616" class="fil0 str0" x1="5.72611" y1="2.74067" x2="5.71181" y2= "2.72203" />
   <line id="_190818816" class="fil0 str0" x1="5.71181" y1="2.72203" x2="5.70281" y2= "2.70032" />
   <line id="_190821976" class="fil0 str0" x1="5.70281" y1="2.70032" x2="5.69975" y2= "2.67703" />
   <line id="_190825112" class="fil0 str0" x1="5.69975" y1="2.67703" x2="5.70281" y2= "2.65374" />
   <line id="_190828264" class="fil0 str0" x1="5.70281" y1="2.65374" x2="5.70436" y2= "2.65" />
   <line id="_190828112" class="fil0 str0" x1="5.70436" y1="2.65" x2="5.71181" y2= "2.63203" />
   <line id="_190834544" class="fil0 str0" x1="5.71181" y1="2.63203" x2="5.72611" y2= "2.61339" />
   <line id="_190837720" class="fil0 str0" x1="5.72611" y1="2.61339" x2="5.74475" y2= "2.59909" />
   <line id="_190839192" class="fil0 str0" x1="5.74475" y1="2.59909" x2="5.765" y2= "2.5907" />
   <line id="_190840720" class="fil0 str0" x1="5.765" y1="2.5907" x2="5.76646" y2= "2.59009" />
   <line id="_190847160" class="fil0 str0" x1="5.76646" y1="2.59009" x2="5.78975" y2= "2.58703" />
   <line id="_190850296" class="fil0 str0" x1="5.78975" y1="2.58703" x2="5.81304" y2= "2.59009" />
   <line id="_190853472" class="fil0 str0" x1="5.81304" y1="2.59009" x2="5.83475" y2= "2.59909" />
   <line id="_190856648" class="fil0 str0" x1="5.83475" y1="2.59909" x2="5.85339" y2= "2.61339" />
   <line id="_190859832" class="fil0 str0" x1="5.85339" y1="2.61339" x2="5.86769" y2= "2.63203" />
   <line id="_190863008" class="fil0 str0" x1="5.86769" y1="2.63203" x2="5.87668" y2= "2.65374" />
   <line id="_190866184" class="fil0 str0" x1="5.87668" y1="2.65374" x2="5.87975" y2= "2.67703" />
   <line id="_190869384" class="fil0 str0" x1="5.87975" y1="2.67703" x2="5.87668" y2= "2.70032" />
   <line id="_190872544" class="fil0 str0" x1="5.87668" y1="2.70032" x2="5.86769" y2= "2.72203" />
   <line id="_190875688" class="fil0 str0" x1="5.86769" y1="2.72203" x2="5.85339" y2= "2.74067" />
   <line id="_190878864" class="fil0 str0" x1="5.85339" y1="2.74067" x2="5.83475" y2= "2.75497" />
   <line id="_190882040" class="fil0 str0" x1="5.83475" y1="2.75497" x2="5.81304" y2= "2.76396" />
   <line id="_190885216" class="fil0 str0" x1="5.81304" y1="2.76396" x2="5.78975" y2= "2.76703" />
   <line id="_190888528" class="fil0 str0" x1="5.78975" y1="2.76703" x2="5.76646" y2= "2.76396" />
   <line id="_190891688" class="fil0 str0" x1="5.76646" y1="2.76396" x2="5.74475" y2= "2.75497" />
   <line id="_190894824" class="fil0 str0" x1="5.74475" y1="2.75497" x2="5.72611" y2= "2.74067" />
   <line id="_190898024" class="fil0 str0" x1="6.32991" y1="2.70032" x2="6.32091" y2= "2.72203" />
   <line id="_190901160" class="fil0 str0" x1="6.32091" y1="2.72203" x2="6.30661" y2= "2.74067" />
   <line id="_190904360" class="fil0 str0" x1="6.30661" y1="2.74067" x2="6.28797" y2= "2.75497" />
   <line id="_190907520" class="fil0 str0" x1="6.28797" y1="2.75497" x2="6.26626" y2= "2.76396" />
   <line id="_190910680" class="fil0 str0" x1="6.26626" y1="2.76396" x2="6.24297" y2= "2.76703" />
   <line id="_190913840" class="fil0 str0" x1="6.24297" y1="2.76703" x2="6.21968" y2= "2.76396" />
   <line id="_190917008" class="fil0 str0" x1="6.21968" y1="2.76396" x2="6.19797" y2= "2.75497" />
   <line id="_190920168" class="fil0 str0" x1="6.19797" y1="2.75497" x2="6.17933" y2= "2.74067" />
   <line id="_190923304" class="fil0 str0" x1="6.17933" y1="2.74067" x2="6.16503" y2= "2.72203" />
   <line id="_190926504" class="fil0 str0" x1="6.16503" y1="2.72203" x2="6.15604" y2= "2.70032" />
   <line id="_190929648" class="fil0 str0" x1="6.15604" y1="2.70032" x2="6.15297" y2= "2.67703" />
   <line id="_190932808" class="fil0 str0" x1="6.15297" y1="2.67703" x2="6.15604" y2= "2.65374" />
   <line id="_190935944" class="fil0 str0" x1="6.15604" y1="2.65374" x2="6.16503" y2= "2.63203" />
   <line id="_190939120" class="fil0 str0" x1="6.16503" y1="2.63203" x2="6.17933" y2= "2.61339" />
   <line id="_190942320" class="fil0 str0" x1="6.17933" y1="2.61339" x2="6.19797" y2= "2.59909" />
   <line id="_190945488" class="fil0 str0" x1="6.19797" y1="2.59909" x2="6.21968" y2= "2.59009" />
   <line id="_190948656" class="fil0 str0" x1="6.21968" y1="2.59009" x2="6.24297" y2= "2.58703" />
   <line id="_190951872" class="fil0 str0" x1="6.24297" y1="2.58703" x2="6.26626" y2= "2.59009" />
   <line id="_190953304" class="fil0 str0" x1="6.26626" y1="2.59009" x2="6.27" y2= "2.59164" />
   <line id="_190954832" class="fil0 str0" x1="6.27" y1="2.59164" x2="6.28797" y2= "2.59909" />
   <line id="_190961272" class="fil0 str0" x1="6.28797" y1="2.59909" x2="6.30661" y2= "2.61339" />
   <line id="_190964408" class="fil0 str0" x1="6.30661" y1="2.61339" x2="6.32091" y2= "2.63203" />
   <line id="_190967560" class="fil0 str0" x1="6.32091" y1="2.63203" x2="6.32836" y2= "2.65" />
   <line id="_190967408" class="fil0 str0" x1="6.32836" y1="2.65" x2="6.32991" y2= "2.65374" />
   <line id="_190973864" class="fil0 str0" x1="6.32991" y1="2.65374" x2="6.33297" y2= "2.67703" />
   <line id="_190977008" class="fil0 str0" x1="6.33297" y1="2.67703" x2="6.32991" y2= "2.70032" />
   <line id="_190980168" class="fil0 str0" x1="0.529228" y1="0.668835" x2="0.52063" y2= "0.646969" />
   <line id="_190983328" class="fil0 str0" x1="0.52063" y1="0.646969" x2="0.517988" y2= "0.623622" />
   <line id="_190986464" class="fil0 str0" x1="0.517988" y1="0.623622" x2="0.521472" y2= "0.60039" />
   <line id="_190989640" class="fil0 str0" x1="0.521472" y1="0.60039" x2="0.530858" y2= "0.57885" />
   <line id="_190992840" class="fil0 str0" x1="0.530858" y1="0.57885" x2="0.545492" y2= "0.560472" />
   <line id="_190995984" class="fil0 str0" x1="0.545492" y1="0.560472" x2="0.56439" y2= "0.546508" />
   <line id="_190999144" class="fil0 str0" x1="0.56439" y1="0.546508" x2="0.586256" y2= "0.537909" />
   <line id="_191002280" class="fil0 str0" x1="0.586256" y1="0.537909" x2="0.609598" y2= "0.535268" />
   <line id="_191005456" class="fil0 str0" x1="0.609598" y1="0.535268" x2="0.632835" y2= "0.538752" />
   <line id="_191008656" class="fil0 str0" x1="0.632835" y1="0.538752" x2="0.654374" y2= "0.548134" />
   <line id="_191011816" class="fil0 str0" x1="0.654374" y1="0.548134" x2="0.672752" y2= "0.562772" />
   <line id="_191014952" class="fil0 str0" x1="0.672752" y1="0.562772" x2="0.686717" y2= "0.581669" />
   <line id="_191018128" class="fil0 str0" x1="0.686717" y1="0.581669" x2="0.695311" y2= "0.603535" />
   <line id="_191021304" class="fil0 str0" x1="0.695311" y1="0.603535" x2="0.697957" y2= "0.626878" />
   <line id="_191024480" class="fil0 str0" x1="0.697957" y1="0.626878" x2="0.694469" y2= "0.650114" />
   <line id="_191027768" class="fil0 str0" x1="0.694469" y1="0.650114" x2="0.685087" y2= "0.671654" />
   <line id="_191030944" class="fil0 str0" x1="0.685087" y1="0.671654" x2="0.670449" y2= "0.690031" />
   <line id="_191034120" class="fil0 str0" x1="0.670449" y1="0.690031" x2="0.651555" y2= "0.703996" />
   <line id="_191035592" class="fil0 str0" x1="0.651555" y1="0.703996" x2="0.635" y2= "0.710504" />
   <line id="_191037120" class="fil0 str0" x1="0.635" y1="0.710504" x2="0.629689" y2= "0.712591" />
   <line id="_191043544" class="fil0 str0" x1="0.629689" y1="0.712591" x2="0.606343" y2= "0.715236" />
   <line id="_191046704" class="fil0 str0" x1="0.606343" y1="0.715236" x2="0.58311" y2= "0.711748" />
   <line id="_191049840" class="fil0 str0" x1="0.58311" y1="0.711748" x2="0.561571" y2= "0.702366" />
   <line id="_191053016" class="fil0 str0" x1="0.561571" y1="0.702366" x2="0.543193" y2= "0.687728" />
   <line id="_191056192" class="fil0 str0" x1="0.543193" y1="0.687728" x2="0.529228" y2= "0.668835" />
   <line id="_191059392" class="fil0 str0" x1="0.178043" y1="0.538319" x2="0.199748" y2= "0.547307" />
   <line id="_191062552" class="fil0 str0" x1="0.199748" y1="0.547307" x2="0.21839" y2= "0.56161" />
   <line id="_191065688" class="fil0 str0" x1="0.21839" y1="0.56161" x2="0.232693" y2= "0.580252" />
   <line id="_191068864" class="fil0 str0" x1="0.232693" y1="0.580252" x2="0.241681" y2= "0.601957" />
   <line id="_191072040" class="fil0 str0" x1="0.241681" y1="0.601957" x2="0.244748" y2= "0.625252" />
   <line id="_191075216" class="fil0 str0" x1="0.244748" y1="0.625252" x2="0.241681" y2= "0.648543" />
   <line id="_191078392" class="fil0 str0" x1="0.241681" y1="0.648543" x2="0.232693" y2= "0.670252" />
   <line id="_191081568" class="fil0 str0" x1="0.232693" y1="0.670252" x2="0.21839" y2= "0.68889" />
   <line id="_191084744" class="fil0 str0" x1="0.21839" y1="0.68889" x2="0.199748" y2= "0.703193" />
   <line id="_191087928" class="fil0 str0" x1="0.199748" y1="0.703193" x2="0.178043" y2= "0.712185" />
   <line id="_191091184" class="fil0 str0" x1="0.178043" y1="0.712185" x2="0.154748" y2= "0.715252" />
   <line id="_191094344" class="fil0 str0" x1="0.154748" y1="0.715252" x2="0.131457" y2= "0.712185" />
   <line id="_191097480" class="fil0 str0" x1="0.131457" y1="0.712185" x2="0.109748" y2= "0.703193" />
   <line id="_191100656" class="fil0 str0" x1="0.109748" y1="0.703193" x2="0.0911102" y2= "0.68889" />
   <line id="_191103840" class="fil0 str0" x1="0.0911102" y1="0.68889" x2="0.0768071" y2= "0.670252" />
   <line id="_191107080" class="fil0 str0" x1="0.0768071" y1="0.670252" x2="0.067815" y2= "0.648543" />
   <line id="_191110256" class="fil0 str0" x1="0.067815" y1="0.648543" x2="0.064748" y2= "0.625252" />
   <line id="_191113440" class="fil0 str0" x1="0.064748" y1="0.625252" x2="0.067815" y2= "0.601957" />
   <line id="_191116616" class="fil0 str0" x1="0.067815" y1="0.601957" x2="0.0768071" y2= "0.580252" />
   <line id="_191119792" class="fil0 str0" x1="0.0768071" y1="0.580252" x2="0.0911102" y2= "0.56161" />
   <line id="_191122968" class="fil0 str0" x1="0.0911102" y1="0.56161" x2="0.109748" y2= "0.547307" />
   <line id="_191126144" class="fil0 str0" x1="0.109748" y1="0.547307" x2="0.131457" y2= "0.538319" />
   <line id="_191129360" class="fil0 str0" x1="0.131457" y1="0.538319" x2="0.154748" y2= "0.535252" />
   <line id="_191132496" class="fil0 str0" x1="0.154748" y1="0.535252" x2="0.178043" y2= "0.538319" />
   <line id="_191135696" class="fil0 str0" x1="0.0911102" y1="0.235669" x2="0.0768071" y2= "0.217028" />
   <line id="_191138840" class="fil0 str0" x1="0.0768071" y1="0.217028" x2="0.067815" y2= "0.195323" />
   <line id="_191141984" class="fil0 str0" x1="0.067815" y1="0.195323" x2="0.064748" y2= "0.172028" />
   <line id="_191145144" class="fil0 str0" x1="0.064748" y1="0.172028" x2="0.067815" y2= "0.148732" />
   <line id="_191148304" class="fil0 str0" x1="0.067815" y1="0.148732" x2="0.0768071" y2= "0.127028" />
   <line id="_191151440" class="fil0 str0" x1="0.0768071" y1="0.127028" x2="0.0911102" y2= "0.10839" />
   <line id="_191154624" class="fil0 str0" x1="0.0911102" y1="0.10839" x2="0.109748" y2= "0.0940866" />
   <line id="_191157808" class="fil0 str0" x1="0.109748" y1="0.0940866" x2="0.131457" y2= "0.0850945" />
   <line id="_191160984" class="fil0 str0" x1="0.131457" y1="0.0850945" x2="0.154748" y2= "0.0820276" />
   <line id="_191164160" class="fil0 str0" x1="0.154748" y1="0.0820276" x2="0.178043" y2= "0.0850945" />
   <line id="_191167336" class="fil0 str0" x1="0.178043" y1="0.0850945" x2="0.199748" y2= "0.0940866" />
   <line id="_191170512" class="fil0 str0" x1="0.199748" y1="0.0940866" x2="0.21839" y2= "0.10839" />
   <line id="_191173688" class="fil0 str0" x1="0.21839" y1="0.10839" x2="0.232693" y2= "0.127028" />
   <line id="_191176864" class="fil0 str0" x1="0.232693" y1="0.127028" x2="0.241681" y2= "0.148732" />
   <line id="_191180040" class="fil0 str0" x1="0.241681" y1="0.148732" x2="0.244748" y2= "0.172028" />
   <line id="_191183248" class="fil0 str0" x1="0.244748" y1="0.172028" x2="0.241681" y2= "0.195323" />
   <line id="_191186408" class="fil0 str0" x1="0.241681" y1="0.195323" x2="0.232693" y2= "0.217028" />
   <line id="_191189544" class="fil0 str0" x1="0.232693" y1="0.217028" x2="0.21839" y2= "0.235669" />
   <line id="_191192720" class="fil0 str0" x1="0.21839" y1="0.235669" x2="0.199748" y2= "0.249969" />
   <line id="_191195896" class="fil0 str0" x1="0.199748" y1="0.249969" x2="0.178043" y2= "0.258961" />
   <line id="_191199072" class="fil0 str0" x1="0.178043" y1="0.258961" x2="0.154748" y2= "0.262028" />
   <line id="_191202248" class="fil0 str0" x1="0.154748" y1="0.262028" x2="0.131457" y2= "0.258961" />
   <line id="_191205424" class="fil0 str0" x1="0.131457" y1="0.258961" x2="0.109748" y2= "0.249969" />
   <line id="_191208624" class="fil0 str0" x1="0.109748" y1="0.249969" x2="0.0911102" y2= "0.235669" />
   <line id="_191211768" class="fil0 str0" x1="0.694906" y1="0.195323" x2="0.685913" y2= "0.217028" />
   <line id="_191214904" class="fil0 str0" x1="0.685913" y1="0.217028" x2="0.67161" y2= "0.235669" />
   <line id="_191218080" class="fil0 str0" x1="0.67161" y1="0.235669" x2="0.652972" y2= "0.249969" />
   <line id="_191221256" class="fil0 str0" x1="0.652972" y1="0.249969" x2="0.631268" y2= "0.258961" />
   <line id="_191224432" class="fil0 str0" x1="0.631268" y1="0.258961" x2="0.607972" y2= "0.262028" />
   <line id="_191227608" class="fil0 str0" x1="0.607972" y1="0.262028" x2="0.584677" y2= "0.258961" />
   <line id="_191230784" class="fil0 str0" x1="0.584677" y1="0.258961" x2="0.562972" y2= "0.249969" />
   <line id="_191233960" class="fil0 str0" x1="0.562972" y1="0.249969" x2="0.544331" y2= "0.235669" />
   <line id="_191237160" class="fil0 str0" x1="0.544331" y1="0.235669" x2="0.530031" y2= "0.217028" />
   <line id="_191240304" class="fil0 str0" x1="0.530031" y1="0.217028" x2="0.521039" y2= "0.195323" />
   <line id="_191243464" class="fil0 str0" x1="0.521039" y1="0.195323" x2="0.517972" y2= "0.172028" />
   <line id="_191246600" class="fil0 str0" x1="0.517972" y1="0.172028" x2="0.521039" y2= "0.148732" />
   <line id="_191249776" class="fil0 str0" x1="0.521039" y1="0.148732" x2="0.530031" y2= "0.127028" />
   <line id="_191252952" class="fil0 str0" x1="0.530031" y1="0.127028" x2="0.544331" y2= "0.10839" />
   <line id="_191256128" class="fil0 str0" x1="0.544331" y1="0.10839" x2="0.562972" y2= "0.0940866" />
   <line id="_191259304" class="fil0 str0" x1="0.562972" y1="0.0940866" x2="0.584677" y2= "0.0850945" />
   <line id="_191262480" class="fil0 str0" x1="0.584677" y1="0.0850945" x2="0.607972" y2= "0.0820276" />
   <line id="_191265656" class="fil0 str0" x1="0.607972" y1="0.0820276" x2="0.631268" y2= "0.0850945" />
   <line id="_191267128" class="fil0 str0" x1="0.631268" y1="0.0850945" x2="0.635" y2= "0.0866417" />
   <line id="_191268656" class="fil0 str0" x1="0.635" y1="0.0866417" x2="0.652972" y2= "0.0940866" />
   <line id="_191275088" class="fil0 str0" x1="0.652972" y1="0.0940866" x2="0.67161" y2= "0.10839" />
   <line id="_191278264" class="fil0 str0" x1="0.67161" y1="0.10839" x2="0.685913" y2= "0.127028" />
   <line id="_191281416" class="fil0 str0" x1="0.685913" y1="0.127028" x2="0.693358" y2= "0.145" />
   <line id="_191281264" class="fil0 str0" x1="0.693358" y1="0.145" x2="0.694906" y2= "0.148732" />
   <line id="_191287704" class="fil0 str0" x1="0.694906" y1="0.148732" x2="0.697972" y2= "0.172028" />
   <line id="_191290848" class="fil0 str0" x1="0.697972" y1="0.172028" x2="0.694906" y2= "0.195323" />
  </g>
 </g>
</svg>
