  0
SECTION
  2
HEADER
  9
$ACADVER
  1
AC1009
  9
$DWGCODEPAGE
  3
ansi_1252
  9
$INSBASE
 10
0.0
 20
0.0
 30
0.0
  9
$EXTMIN
 10
0.0
 20
0.0
 30
0.0
  9
$EXTMAX
 10
200.0
 20
200.0
 30
0.0
  9
$LIMMIN
 10
0.0
 20
0.0
  9
$LIMMAX
 10
200.0
 20
200.0
  9
$ORTHOMODE
 70
     0
  9
$REGENMODE
 70
     1
  9
$FILLMODE
 70
     1
  9
$QTEXTMODE
 70
     0
  9
$MIRRTEXT
 70
     1
  9
$DRAGMODE
 70
     2
  9
$LTSCALE
 40
1.0
  9
$OSMODE
 70
    37
  9
$ATTMODE
 70
     1
  9
$TEXTSIZE
 40
3.5
  9
$TRACEWID
 40
1.0
  9
$TEXTSTYLE
  7
STANDARD
  9
$CLAYER
  8
0
  9
$CELTYPE
  6
BYLAYER
  9
$CECOLOR
 62
   256
  9
$DIMSCALE
 40
1.0
  9
$DIMASZ
 40
3.302
  9
$DIMEXO
 40
1.0
  9
$DIMDLI
 40
3.75
  9
$DIMRND
 40
0.0
  9
$DIMDLE
 40
0.0
  9
$DIMEXE
 40
1.0
  9
$DIMTP
 40
0.0
  9
$DIMTM
 40
0.0
  9
$DIMTXT
 40
3.5
  9
$DIMCEN
 40
2.5
  9
$DIMTSZ
 40
0.0
  9
$DIMTOL
 70
     0
  9
$DIMLIM
 70
     0
  9
$DIMTIH
 70
     1
  9
$DIMTOH
 70
     1
  9
$DIMSE1
 70
     0
  9
$DIMSE2
 70
     0
  9
$DIMTAD
 70
     1
  9
$DIMZIN
 70
     0
  9
$DIMBLK
  1

  9
$DIMASO
 70
     1
  9
$DIMSHO
 70
     1
  9
$DIMPOST
  1

  9
$DIMAPOST
  1

  9
$DIMALT
 70
     0
  9
$DIMALTD
 70
     3
  9
$DIMALTF
 40
0.0393700787
  9
$DIMLFAC
 40
1.0
  9
$DIMTOFL
 70
     1
  9
$DIMTVP
 40
0.0
  9
$DIMTIX
 70
     0
  9
$DIMSOXD
 70
     0
  9
$DIMSAH
 70
     0
  9
$DIMBLK1
  1

  9
$DIMBLK2
  1

  9
$DIMSTYLE
  2
ISO-25
  9
$DIMCLRD
 70
     0
  9
$DIMCLRE
 70
     0
  9
$DIMCLRT
 70
     0
  9
$DIMTFAC
 40
1.0
  9
$DIMGAP
 40
1.524
  9
$LUNITS
 70
     2
  9
$LUPREC
 70
     2
  9
$SKETCHINC
 40
1.0
  9
$FILLETRAD
 40
10.0
  9
$AUNITS
 70
     0
  9
$AUPREC
 70
     2
  9
$MENU
  1
.
  9
$ELEVATION
 40
0.0
  9
$PELEVATION
 40
0.0
  9
$THICKNESS
 40
0.0
  9
$LIMCHECK
 70
     0
  9
$CHAMFERA
 40
10.0
  9
$CHAMFERB
 40
10.0
  9
$SKPOLY
 70
     0
  9
$TDCREATE
 40
2455593.220419248
  9
$TDUPDATE
 40
2455593.220419259
  9
$TDINDWG
 40
0.0000000116
  9
$TDUSRTIMER
 40
0.0000000116
  9
$USRTIMER
 70
     1
  9
$ANGBASE
 50
0.0
  9
$ANGDIR
 70
     0
  9
$PDMODE
 70
     0
  9
$PDSIZE
 40
-1.0
  9
$PLINEWID
 40
0.0
  9
$COORDS
 70
     1
  9
$SPLFRAME
 70
     0
  9
$SPLINETYPE
 70
     6
  9
$SPLINESEGS
 70
     8
  9
$ATTDIA
 70
     0
  9
$ATTREQ
 70
     1
  9
$HANDLING
 70
     1
  9
$HANDSEED
  5
3D3
  9
$SURFTAB1
 70
     6
  9
$SURFTAB2
 70
     6
  9
$SURFTYPE
 70
     6
  9
$SURFU
 70
     6
  9
$SURFV
 70
     6
  9
$UCSNAME
  2

  9
$UCSORG
 10
0.0
 20
0.0
 30
0.0
  9
$UCSXDIR
 10
1.0
 20
0.0
 30
0.0
  9
$UCSYDIR
 10
0.0
 20
1.0
 30
0.0
  9
$PUCSNAME
  2

  9
$PUCSORG
 10
0.0
 20
0.0
 30
0.0
  9
$PUCSXDIR
 10
1.0
 20
0.0
 30
0.0
  9
$PUCSYDIR
 10
0.0
 20
1.0
 30
0.0
  9
$USERI1
 70
     0
  9
$USERI2
 70
     0
  9
$USERI3
 70
     0
  9
$USERI4
 70
     0
  9
$USERI5
 70
     0
  9
$USERR1
 40
0.0
  9
$USERR2
 40
0.0
  9
$USERR3
 40
0.0
  9
$USERR4
 40
0.0
  9
$USERR5
 40
0.0
  9
$WORLDVIEW
 70
     1
  9
$SHADEDGE
 70
     3
  9
$SHADEDIF
 70
    70
  9
$TILEMODE
 70
     1
  9
$MAXACTVP
 70
    64
  9
$PLIMCHECK
 70
     0
  9
$PEXTMIN
 10
1.0000000000E+20
 20
1.0000000000E+20
 30
1.0000000000E+20
  9
$PEXTMAX
 10
-1.0000000000E+20
 20
-1.0000000000E+20
 30
-1.0000000000E+20
  9
$PLIMMIN
 10
0.0
 20
0.0
  9
$PLIMMAX
 10
420.0
 20
297.0
  9
$UNITMODE
 70
     0
  9
$VISRETAIN
 70
     1
  9
$PLINEGEN
 70
     0
  9
$PSLTSCALE
 70
     1
  0
ENDSEC
  0
SECTION
  2
TABLES
  0
TABLE
  2
VPORT
 70
     1
  0
VPORT
  2
*ACTIVE
 70
     0
 10
0.0
 20
0.0
 11
1.0
 21
1.0
 12
100.0
 22
100.0
 13
0.0
 23
0.0
 14
10.0
 24
10.0
 15
10.0
 25
10.0
 16
0.0
 26
0.0
 36
1.0
 17
0.0
 27
0.0
 37
0.0
 40
200.0
 41
1.0
 42
50.0
 43
0.0
 44
0.0
 50
0.0
 51
0.0
 71
     0
 72
  2000
 73
     1
 74
     3
 75
     0
 76
     0
 77
     0
 78
     0
  0
ENDTAB
  0
TABLE
  2
LTYPE
 70
     6
  0
LTYPE
  2
CONTINUOUS
 70
     0
  3
Solid line
 72
    65
 73
     0
 40
0.0
  0
LTYPE
  2
HIDDEN
 70
     0
  3
Hidden __ __ __ __ __ __ __ __ __ __ __ __ __ __
 72
    65
 73
     2
 40
1.905
 49
1.27
 49
-0.635
  0
LTYPE
  2
PHANTOM
 70
     0
  3
Phantom ______  __  __  ______  __  __  ______
 72
    65
 73
     6
 40
12.7
 49
6.35
 49
-1.27
 49
1.27
 49
-1.27
 49
1.27
 49
-1.27
  0
LTYPE
  2
CENTER
 70
     0
  3
Center ____ _ ____ _ ____ _ ____ _ ____ _ ____
 72
    65
 73
     4
 40
10.16
 49
6.35
 49
-1.27
 49
1.27
 49
-1.27
  0
LTYPE
  2
CENTERX2
 70
     0
  3
Center (2x) ________  __  ________  __  _____
 72
    65
 73
     4
 40
20.32
 49
12.7
 49
-2.54
 49
2.54
 49
-2.54
  0
LTYPE
  2
DOT2
 70
     0
  3
Dot (.5x) ........................................
 72
    65
 73
     2
 40
0.635
 49
0.0
 49
-0.635
  0
ENDTAB
  0
TABLE
  2
LAYER
 70
     1
  0
LAYER
  2
0
 70
     0
 62
     7
  6
CONTINUOUS
  0
ENDTAB
  0
TABLE
  2
STYLE
 70
     1
  0
STYLE
  2
STANDARD
 70
     0
 40
0.0
 41
1.0
 50
0.0
 71
     0
 42
2.5
  3
txt
  4

  0
ENDTAB
  0
TABLE
  2
VIEW
 70
     0
  0
ENDTAB
  0
TABLE
  2
UCS
 70
     0
  0
ENDTAB
  0
TABLE
  2
APPID
 70
     1
  0
APPID
  2
ACAD
 70
     0
  0
ENDTAB
  0
TABLE
  2
DIMSTYLE
 70
     1
  0
DIMSTYLE
  2
ISO-25
 70
     0
  3

  4

  5

  6

  7

 40
1.0
 41
2.5
 42
0.625
 43
3.75
 44
1.25
 45
0.0
 46
0.0
 47
0.0
 48
0.0
140
2.5
141
2.5
142
0.0
143
0.0393700787
144
1.0
145
0.0
146
1.0
147
0.625
 71
     0
 72
     0
 73
     0
 74
     0
 75
     0
 76
     0
 77
     1
 78
     8
170
     0
171
     3
172
     1
173
     0
174
     0
175
     0
176
     0
177
     0
178
     0
  0
ENDTAB
  0
ENDSEC
  0
SECTION
  2
BLOCKS
  0
BLOCK
  8
0
  2
$MODEL_SPACE
 70
     0
 10
0.0
 20
0.0
 30
0.0
  3
$MODEL_SPACE
  1

  0
ENDBLK
  5
21
  8
0
  0
BLOCK
 67
     1
  8
0
  2
$PAPER_SPACE
 70
     0
 10
0.0
 20
0.0
 30
0.0
  3
$PAPER_SPACE
  1

  0
ENDBLK
  5
1D
 67
     1
  8
0
  0
ENDSEC
  0
SECTION
  2
ENTITIES
  0
ARC
  5
44
  8
0
  6
CONTINUOUS
 62
     7
 10
13.8452405999
 20
178.2819071664
 30
0.0
 40
3.0
 50
90.0
 51
180.0
  0
LINE
  5
45
  8
0
  6
CONTINUOUS
 62
     7
 10
10.8452405999
 20
178.2819071664
 30
0.0
 11
10.8452405999
 21
174.2819071664
 31
0.0
  0
ARC
  5
46
  8
0
  6
CONTINUOUS
 62
     7
 10
13.8452405999
 20
174.2819071664
 30
0.0
 40
3.000000000000028
 50
180.0
 51
270.0
  0
LINE
  5
47
  8
0
  6
CONTINUOUS
 62
     7
 10
13.8452405999
 20
171.2819071664
 30
0.0
 11
47.8452405999
 21
171.2819071664
 31
0.0
  0
ARC
  5
48
  8
0
  6
CONTINUOUS
 62
     7
 10
47.8452405999
 20
174.2819071664
 30
0.0
 40
3.000000000000028
 50
270.0
 51
0.0
  0
LINE
  5
49
  8
0
  6
CONTINUOUS
 62
     7
 10
50.8452405999
 20
174.2819071664
 30
0.0
 11
50.8452405999
 21
178.2819071664
 31
0.0
  0
ARC
  5
4A
  8
0
  6
CONTINUOUS
 62
     7
 10
47.8452405999
 20
178.2819071664
 30
0.0
 40
3.0
 50
0.0
 51
90.0
  0
LINE
  5
4B
  8
0
  6
CONTINUOUS
 62
     7
 10
47.8452405999
 20
181.2819071664
 30
0.0
 11
13.8452405999
 21
181.2819071664
 31
0.0
  0
LINE
  5
4C
  8
0
  6
CONTINUOUS
 62
     7
 10
2.3452405999
 20
154.7819071664
 30
0.0
 11
59.3452405999
 21
154.7819071664
 31
0.0
  0
LINE
  5
4D
  8
0
  6
CONTINUOUS
 62
     7
 10
2.3452405999
 20
197.7819071664
 30
0.0
 11
2.3452405999
 21
154.7819071664
 31
0.0
  0
LINE
  5
4E
  8
0
  6
CONTINUOUS
 62
     7
 10
59.3452405999
 20
197.7819071664
 30
0.0
 11
2.3452405999
 21
197.7819071664
 31
0.0
  0
LINE
  5
4F
  8
0
  6
CONTINUOUS
 62
     7
 10
59.3452405999
 20
154.7819071664
 30
0.0
 11
59.3452405999
 21
197.7819071664
 31
0.0
  0
ARC
  5
50
  8
0
  6
CONTINUOUS
 62
     7
 10
73.4148759934
 20
178.1418671129
 30
0.0
 40
3.0
 50
90.0
 51
180.0
  0
LINE
  5
51
  8
0
  6
CONTINUOUS
 62
     7
 10
70.4148759934
 20
178.1418671129
 30
0.0
 11
70.4148759934
 21
174.1418671129
 31
0.0
  0
ARC
  5
52
  8
0
  6
CONTINUOUS
 62
     7
 10
73.4148759934
 20
174.1418671129
 30
0.0
 40
3.0
 50
180.0
 51
270.0
  0
LINE
  5
53
  8
0
  6
CONTINUOUS
 62
     7
 10
73.4148759934
 20
171.1418671129
 30
0.0
 11
107.4148759934
 21
171.1418671129
 31
0.0
  0
ARC
  5
54
  8
0
  6
CONTINUOUS
 62
     7
 10
107.4148759934
 20
174.1418671129
 30
0.0
 40
3.0
 50
270.0
 51
0.0
  0
LINE
  5
55
  8
0
  6
CONTINUOUS
 62
     7
 10
110.4148759934
 20
174.1418671129
 30
0.0
 11
110.4148759934
 21
178.1418671129
 31
0.0
  0
ARC
  5
56
  8
0
  6
CONTINUOUS
 62
     7
 10
107.4148759934
 20
178.1418671129
 30
0.0
 40
3.0
 50
0.0
 51
90.0
  0
LINE
  5
57
  8
0
  6
CONTINUOUS
 62
     7
 10
107.4148759934
 20
181.1418671129
 30
0.0
 11
73.4148759934
 21
181.1418671129
 31
0.0
  0
LINE
  5
58
  8
0
  6
CONTINUOUS
 62
     7
 10
61.9148759934
 20
154.6418671129
 30
0.0
 11
118.9148759934
 21
154.6418671129
 31
0.0
  0
LINE
  5
59
  8
0
  6
CONTINUOUS
 62
     7
 10
61.9148759934
 20
197.6418671129
 30
0.0
 11
61.9148759934
 21
154.6418671129
 31
0.0
  0
LINE
  5
5A
  8
0
  6
CONTINUOUS
 62
     7
 10
118.9148759934
 20
197.6418671129
 30
0.0
 11
61.9148759934
 21
197.6418671129
 31
0.0
  0
LINE
  5
5B
  8
0
  6
CONTINUOUS
 62
     7
 10
118.9148759934
 20
154.6418671129
 30
0.0
 11
118.9148759934
 21
197.6418671129
 31
0.0
  0
LINE
  5
5C
  8
0
  6
CONTINUOUS
 62
     7
 10
194.3654038282
 20
163.7729329122
 30
0.0
 11
197.3654038282
 21
163.7729329122
 31
0.0
  0
LINE
  5
5D
  8
0
  6
CONTINUOUS
 62
     7
 10
197.3654038282
 20
158.7729329122
 30
0.0
 11
197.3654038282
 21
163.7729329122
 31
0.0
  0
LINE
  5
5E
  8
0
  6
CONTINUOUS
 62
     7
 10
194.3654038282
 20
158.7729329122
 30
0.0
 11
197.3654038282
 21
158.7729329122
 31
0.0
  0
LINE
  5
5F
  8
0
  6
CONTINUOUS
 62
     7
 10
194.3654038282
 20
152.7729329122
 30
0.0
 11
194.3654038282
 21
158.7729329122
 31
0.0
  0
LINE
  5
60
  8
0
  6
CONTINUOUS
 62
     7
 10
197.3654038282
 20
152.7729329122
 30
0.0
 11
194.3654038282
 21
152.7729329122
 31
0.0
  0
LINE
  5
61
  8
0
  6
CONTINUOUS
 62
     7
 10
197.3654038282
 20
146.7729329122
 30
0.0
 11
197.3654038282
 21
152.7729329122
 31
0.0
  0
LINE
  5
62
  8
0
  6
CONTINUOUS
 62
     7
 10
194.3654038282
 20
146.7729329122
 30
0.0
 11
197.3654038282
 21
146.7729329122
 31
0.0
  0
LINE
  5
63
  8
0
  6
CONTINUOUS
 62
     7
 10
194.3654038282
 20
140.7729329122
 30
0.0
 11
194.3654038282
 21
146.7729329122
 31
0.0
  0
LINE
  5
64
  8
0
  6
CONTINUOUS
 62
     7
 10
197.3654038282
 20
140.7729329122
 30
0.0
 11
194.3654038282
 21
140.7729329122
 31
0.0
  0
LINE
  5
65
  8
0
  6
CONTINUOUS
 62
     7
 10
197.3654038282
 20
134.7729329122
 30
0.0
 11
197.3654038282
 21
140.7729329122
 31
0.0
  0
LINE
  5
66
  8
0
  6
CONTINUOUS
 62
     7
 10
191.3654038282
 20
134.7729329122
 30
0.0
 11
197.3654038282
 21
134.7729329122
 31
0.0
  0
LINE
  5
67
  8
0
  6
CONTINUOUS
 62
     7
 10
191.3654038282
 20
137.7729329122
 30
0.0
 11
191.3654038282
 21
134.7729329122
 31
0.0
  0
LINE
  5
68
  8
0
  6
CONTINUOUS
 62
     7
 10
185.3654038282
 20
137.7729329122
 30
0.0
 11
191.3654038282
 21
137.7729329122
 31
0.0
  0
LINE
  5
69
  8
0
  6
CONTINUOUS
 62
     7
 10
185.3654038282
 20
134.7729329122
 30
0.0
 11
185.3654038282
 21
137.7729329122
 31
0.0
  0
LINE
  5
6A
  8
0
  6
CONTINUOUS
 62
     7
 10
179.3654038282
 20
134.7729329122
 30
0.0
 11
185.3654038282
 21
134.7729329122
 31
0.0
  0
LINE
  5
6B
  8
0
  6
CONTINUOUS
 62
     7
 10
179.3654038282
 20
137.7729329122
 30
0.0
 11
179.3654038282
 21
134.7729329122
 31
0.0
  0
LINE
  5
6C
  8
0
  6
CONTINUOUS
 62
     7
 10
173.3654038282
 20
137.7729329122
 30
0.0
 11
179.3654038282
 21
137.7729329122
 31
0.0
  0
LINE
  5
6D
  8
0
  6
CONTINUOUS
 62
     7
 10
173.3654038282
 20
134.7729329122
 30
0.0
 11
173.3654038282
 21
137.7729329122
 31
0.0
  0
LINE
  5
6E
  8
0
  6
CONTINUOUS
 62
     7
 10
167.3654038282
 20
134.7729329122
 30
0.0
 11
173.3654038282
 21
134.7729329122
 31
0.0
  0
LINE
  5
6F
  8
0
  6
CONTINUOUS
 62
     7
 10
167.3654038282
 20
137.7729329122
 30
0.0
 11
167.3654038282
 21
134.7729329122
 31
0.0
  0
LINE
  5
70
  8
0
  6
CONTINUOUS
 62
     7
 10
161.3654038282
 20
137.7729329122
 30
0.0
 11
167.3654038282
 21
137.7729329122
 31
0.0
  0
LINE
  5
71
  8
0
  6
CONTINUOUS
 62
     7
 10
161.3654038282
 20
134.7729329122
 30
0.0
 11
161.3654038282
 21
137.7729329122
 31
0.0
  0
LINE
  5
72
  8
0
  6
CONTINUOUS
 62
     7
 10
154.3654038282
 20
134.7729329122
 30
0.0
 11
161.3654038282
 21
134.7729329122
 31
0.0
  0
LINE
  5
73
  8
0
  6
CONTINUOUS
 62
     7
 10
154.3654038282
 20
137.7729329122
 30
0.0
 11
154.3654038282
 21
134.7729329122
 31
0.0
  0
ARC
  5
74
  8
0
  6
CONTINUOUS
 62
     7
 10
157.3654038282
 20
137.7729329122
 30
0.0
 40
3.0
 50
90.0
 51
180.0
  0
LINE
  5
75
  8
0
  6
CONTINUOUS
 62
     7
 10
157.3654038282
 20
140.7729329122
 30
0.0
 11
188.3654038282
 21
140.7729329122
 31
0.0
  0
ARC
  5
76
  8
0
  6
CONTINUOUS
 62
     7
 10
188.3654038282
 20
143.7729329122
 30
0.0
 40
3.0
 50
270.0
 51
0.0
  0
LINE
  5
77
  8
0
  6
CONTINUOUS
 62
     7
 10
191.3654038282
 20
143.7729329122
 30
0.0
 11
191.3654038282
 21
188.7729329122
 31
0.0
  0
ARC
  5
78
  8
0
  6
CONTINUOUS
 62
     7
 10
188.3654038282
 20
188.7729329122
 30
0.0
 40
3.0
 50
0.0
 51
90.0
  0
LINE
  5
79
  8
0
  6
CONTINUOUS
 62
     7
 10
188.3654038282
 20
191.7729329122
 30
0.0
 11
157.3654038282
 21
191.7729329122
 31
0.0
  0
ARC
  5
7A
  8
0
  6
CONTINUOUS
 62
     7
 10
157.3654038282
 20
194.7729329122
 30
0.0
 40
3.0
 50
180.0
 51
270.0
  0
LINE
  5
7B
  8
0
  6
CONTINUOUS
 62
     7
 10
154.3654038282
 20
197.7729329122
 30
0.0
 11
154.3654038282
 21
194.7729329122
 31
0.0
  0
LINE
  5
7C
  8
0
  6
CONTINUOUS
 62
     7
 10
161.3654038282
 20
197.7729329122
 30
0.0
 11
154.3654038282
 21
197.7729329122
 31
0.0
  0
LINE
  5
7D
  8
0
  6
CONTINUOUS
 62
     7
 10
161.3654038282
 20
197.7729329122
 30
0.0
 11
161.3654038282
 21
194.7729329122
 31
0.0
  0
LINE
  5
7E
  8
0
  6
CONTINUOUS
 62
     7
 10
161.3654038282
 20
194.7729329122
 30
0.0
 11
167.3654038282
 21
194.7729329122
 31
0.0
  0
LINE
  5
7F
  8
0
  6
CONTINUOUS
 62
     7
 10
167.3654038282
 20
194.7729329122
 30
0.0
 11
167.3654038282
 21
197.7729329122
 31
0.0
  0
LINE
  5
80
  8
0
  6
CONTINUOUS
 62
     7
 10
173.3654038282
 20
197.7729329122
 30
0.0
 11
167.3654038282
 21
197.7729329122
 31
0.0
  0
LINE
  5
81
  8
0
  6
CONTINUOUS
 62
     7
 10
173.3654038282
 20
197.7729329122
 30
0.0
 11
173.3654038282
 21
194.7729329122
 31
0.0
  0
LINE
  5
82
  8
0
  6
CONTINUOUS
 62
     7
 10
173.3654038282
 20
194.7729329122
 30
0.0
 11
179.3654038282
 21
194.7729329122
 31
0.0
  0
LINE
  5
83
  8
0
  6
CONTINUOUS
 62
     7
 10
179.3654038282
 20
194.7729329122
 30
0.0
 11
179.3654038282
 21
197.7729329122
 31
0.0
  0
LINE
  5
84
  8
0
  6
CONTINUOUS
 62
     7
 10
185.3654038282
 20
197.7729329122
 30
0.0
 11
179.3654038282
 21
197.7729329122
 31
0.0
  0
LINE
  5
85
  8
0
  6
CONTINUOUS
 62
     7
 10
185.3654038282
 20
197.7729329122
 30
0.0
 11
185.3654038282
 21
194.7729329122
 31
0.0
  0
LINE
  5
86
  8
0
  6
CONTINUOUS
 62
     7
 10
185.3654038282
 20
194.7729329122
 30
0.0
 11
191.3654038282
 21
194.7729329122
 31
0.0
  0
LINE
  5
87
  8
0
  6
CONTINUOUS
 62
     7
 10
191.3654038282
 20
194.7729329122
 30
0.0
 11
191.3654038282
 21
197.7729329122
 31
0.0
  0
LINE
  5
88
  8
0
  6
CONTINUOUS
 62
     7
 10
197.3654038282
 20
197.7729329122
 30
0.0
 11
191.3654038282
 21
197.7729329122
 31
0.0
  0
LINE
  5
89
  8
0
  6
CONTINUOUS
 62
     7
 10
197.3654038282
 20
191.7729329122
 30
0.0
 11
197.3654038282
 21
197.7729329122
 31
0.0
  0
LINE
  5
8A
  8
0
  6
CONTINUOUS
 62
     7
 10
197.3654038282
 20
191.7729329122
 30
0.0
 11
194.3654038282
 21
191.7729329122
 31
0.0
  0
LINE
  5
8B
  8
0
  6
CONTINUOUS
 62
     7
 10
194.3654038282
 20
191.7729329122
 30
0.0
 11
194.3654038282
 21
185.7729329122
 31
0.0
  0
LINE
  5
8C
  8
0
  6
CONTINUOUS
 62
     7
 10
194.3654038282
 20
185.7729329122
 30
0.0
 11
197.3654038282
 21
185.7729329122
 31
0.0
  0
LINE
  5
8D
  8
0
  6
CONTINUOUS
 62
     7
 10
197.3654038282
 20
179.7729329122
 30
0.0
 11
197.3654038282
 21
185.7729329122
 31
0.0
  0
LINE
  5
8E
  8
0
  6
CONTINUOUS
 62
     7
 10
197.3654038282
 20
179.7729329122
 30
0.0
 11
194.3654038282
 21
179.7729329122
 31
0.0
  0
LINE
  5
8F
  8
0
  6
CONTINUOUS
 62
     7
 10
194.3654038282
 20
179.7729329122
 30
0.0
 11
194.3654038282
 21
173.7729329122
 31
0.0
  0
LINE
  5
90
  8
0
  6
CONTINUOUS
 62
     7
 10
194.3654038282
 20
173.7729329122
 30
0.0
 11
197.3654038282
 21
173.7729329122
 31
0.0
  0
LINE
  5
91
  8
0
  6
CONTINUOUS
 62
     7
 10
197.3654038282
 20
168.7729329122
 30
0.0
 11
194.3654038282
 21
168.7729329122
 31
0.0
  0
LINE
  5
92
  8
0
  6
CONTINUOUS
 62
     7
 10
194.3654038282
 20
168.7729329122
 30
0.0
 11
194.3654038282
 21
163.7729329122
 31
0.0
  0
LINE
  5
93
  8
0
  6
CONTINUOUS
 62
     7
 10
197.3654038282
 20
168.7729329122
 30
0.0
 11
197.3654038282
 21
173.7729329122
 31
0.0
  0
LINE
  5
94
  8
0
  6
CONTINUOUS
 62
     7
 10
153.1461240025
 20
148.0136386245
 30
0.0
 11
153.1461240025
 21
145.0136386245
 31
0.0
  0
LINE
  5
95
  8
0
  6
CONTINUOUS
 62
     7
 10
148.1461240025
 20
145.0136386245
 30
0.0
 11
153.1461240025
 21
145.0136386245
 31
0.0
  0
LINE
  5
96
  8
0
  6
CONTINUOUS
 62
     7
 10
148.1461240025
 20
148.0136386245
 30
0.0
 11
148.1461240025
 21
145.0136386245
 31
0.0
  0
LINE
  5
97
  8
0
  6
CONTINUOUS
 62
     7
 10
142.1461240025
 20
148.0136386245
 30
0.0
 11
148.1461240025
 21
148.0136386245
 31
0.0
  0
LINE
  5
98
  8
0
  6
CONTINUOUS
 62
     7
 10
142.1461240025
 20
145.0136386245
 30
0.0
 11
142.1461240025
 21
148.0136386245
 31
0.0
  0
LINE
  5
99
  8
0
  6
CONTINUOUS
 62
     7
 10
136.1461240025
 20
145.0136386245
 30
0.0
 11
142.1461240025
 21
145.0136386245
 31
0.0
  0
LINE
  5
9A
  8
0
  6
CONTINUOUS
 62
     7
 10
136.1461240025
 20
148.0136386245
 30
0.0
 11
136.1461240025
 21
145.0136386245
 31
0.0
  0
LINE
  5
9B
  8
0
  6
CONTINUOUS
 62
     7
 10
130.1461240025
 20
148.0136386245
 30
0.0
 11
136.1461240025
 21
148.0136386245
 31
0.0
  0
LINE
  5
9C
  8
0
  6
CONTINUOUS
 62
     7
 10
130.1461240025
 20
145.0136386245
 30
0.0
 11
130.1461240025
 21
148.0136386245
 31
0.0
  0
LINE
  5
9D
  8
0
  6
CONTINUOUS
 62
     7
 10
124.1461240025
 20
145.0136386245
 30
0.0
 11
130.1461240025
 21
145.0136386245
 31
0.0
  0
LINE
  5
9E
  8
0
  6
CONTINUOUS
 62
     7
 10
124.1461240025
 20
151.0136386245
 30
0.0
 11
124.1461240025
 21
145.0136386245
 31
0.0
  0
LINE
  5
9F
  8
0
  6
CONTINUOUS
 62
     7
 10
127.1461240025
 20
151.0136386245
 30
0.0
 11
124.1461240025
 21
151.0136386245
 31
0.0
  0
LINE
  5
A0
  8
0
  6
CONTINUOUS
 62
     7
 10
127.1461240025
 20
157.0136386245
 30
0.0
 11
127.1461240025
 21
151.0136386245
 31
0.0
  0
LINE
  5
A1
  8
0
  6
CONTINUOUS
 62
     7
 10
124.1461240025
 20
157.0136386245
 30
0.0
 11
127.1461240025
 21
157.0136386245
 31
0.0
  0
LINE
  5
A2
  8
0
  6
CONTINUOUS
 62
     7
 10
124.1461240025
 20
163.0136386245
 30
0.0
 11
124.1461240025
 21
157.0136386245
 31
0.0
  0
LINE
  5
A3
  8
0
  6
CONTINUOUS
 62
     7
 10
127.1461240025
 20
163.0136386245
 30
0.0
 11
124.1461240025
 21
163.0136386245
 31
0.0
  0
LINE
  5
A4
  8
0
  6
CONTINUOUS
 62
     7
 10
127.1461240025
 20
169.0136386245
 30
0.0
 11
127.1461240025
 21
163.0136386245
 31
0.0
  0
LINE
  5
A5
  8
0
  6
CONTINUOUS
 62
     7
 10
124.1461240025
 20
169.0136386245
 30
0.0
 11
127.1461240025
 21
169.0136386245
 31
0.0
  0
LINE
  5
A6
  8
0
  6
CONTINUOUS
 62
     7
 10
124.1461240025
 20
175.0136386245
 30
0.0
 11
124.1461240025
 21
169.0136386245
 31
0.0
  0
LINE
  5
A7
  8
0
  6
CONTINUOUS
 62
     7
 10
127.1461240025
 20
175.0136386245
 30
0.0
 11
124.1461240025
 21
175.0136386245
 31
0.0
  0
LINE
  5
A8
  8
0
  6
CONTINUOUS
 62
     7
 10
127.1461240025
 20
181.0136386245
 30
0.0
 11
127.1461240025
 21
175.0136386245
 31
0.0
  0
LINE
  5
A9
  8
0
  6
CONTINUOUS
 62
     7
 10
124.1461240025
 20
181.0136386245
 30
0.0
 11
127.1461240025
 21
181.0136386245
 31
0.0
  0
LINE
  5
AA
  8
0
  6
CONTINUOUS
 62
     7
 10
124.1461240025
 20
188.0136386245
 30
0.0
 11
124.1461240025
 21
181.0136386245
 31
0.0
  0
LINE
  5
AB
  8
0
  6
CONTINUOUS
 62
     7
 10
127.1461240025
 20
188.0136386245
 30
0.0
 11
124.1461240025
 21
188.0136386245
 31
0.0
  0
ARC
  5
AC
  8
0
  6
CONTINUOUS
 62
     7
 10
127.1461240025
 20
185.0136386245
 30
0.0
 40
3.000000000000014
 50
0.0
 51
90.0
  0
LINE
  5
AD
  8
0
  6
CONTINUOUS
 62
     7
 10
130.1461240025
 20
185.0136386245
 30
0.0
 11
130.1461240025
 21
154.0136386245
 31
0.0
  0
ARC
  5
AE
  8
0
  6
CONTINUOUS
 62
     7
 10
133.1461240025
 20
154.0136386245
 30
0.0
 40
3.0
 50
180.0
 51
270.0
  0
LINE
  5
AF
  8
0
  6
CONTINUOUS
 62
     7
 10
133.1461240025
 20
151.0136386245
 30
0.0
 11
178.1461240025
 21
151.0136386245
 31
0.0
  0
ARC
  5
B0
  8
0
  6
CONTINUOUS
 62
     7
 10
178.1461240025
 20
154.0136386245
 30
0.0
 40
3.0
 50
270.0
 51
0.0
  0
LINE
  5
B1
  8
0
  6
CONTINUOUS
 62
     7
 10
181.1461240025
 20
154.0136386245
 30
0.0
 11
181.1461240025
 21
185.0136386245
 31
0.0
  0
ARC
  5
B2
  8
0
  6
CONTINUOUS
 62
     7
 10
184.1461240025
 20
185.0136386245
 30
0.0
 40
3.0
 50
90.0
 51
180.0
  0
LINE
  5
B3
  8
0
  6
CONTINUOUS
 62
     7
 10
187.1461240025
 20
188.0136386245
 30
0.0
 11
184.1461240025
 21
188.0136386245
 31
0.0
  0
LINE
  5
B4
  8
0
  6
CONTINUOUS
 62
     7
 10
187.1461240025
 20
181.0136386245
 30
0.0
 11
187.1461240025
 21
188.0136386245
 31
0.0
  0
LINE
  5
B5
  8
0
  6
CONTINUOUS
 62
     7
 10
187.1461240025
 20
181.0136386245
 30
0.0
 11
184.1461240025
 21
181.0136386245
 31
0.0
  0
LINE
  5
B6
  8
0
  6
CONTINUOUS
 62
     7
 10
184.1461240025
 20
181.0136386245
 30
0.0
 11
184.1461240025
 21
175.0136386245
 31
0.0
  0
LINE
  5
B7
  8
0
  6
CONTINUOUS
 62
     7
 10
184.1461240025
 20
175.0136386245
 30
0.0
 11
187.1461240025
 21
175.0136386245
 31
0.0
  0
LINE
  5
B8
  8
0
  6
CONTINUOUS
 62
     7
 10
187.1461240025
 20
169.0136386245
 30
0.0
 11
187.1461240025
 21
175.0136386245
 31
0.0
  0
LINE
  5
B9
  8
0
  6
CONTINUOUS
 62
     7
 10
187.1461240025
 20
169.0136386245
 30
0.0
 11
184.1461240025
 21
169.0136386245
 31
0.0
  0
LINE
  5
BA
  8
0
  6
CONTINUOUS
 62
     7
 10
184.1461240025
 20
169.0136386245
 30
0.0
 11
184.1461240025
 21
163.0136386245
 31
0.0
  0
LINE
  5
BB
  8
0
  6
CONTINUOUS
 62
     7
 10
184.1461240025
 20
163.0136386245
 30
0.0
 11
187.1461240025
 21
163.0136386245
 31
0.0
  0
LINE
  5
BC
  8
0
  6
CONTINUOUS
 62
     7
 10
187.1461240025
 20
157.0136386245
 30
0.0
 11
187.1461240025
 21
163.0136386245
 31
0.0
  0
LINE
  5
BD
  8
0
  6
CONTINUOUS
 62
     7
 10
187.1461240025
 20
157.0136386245
 30
0.0
 11
184.1461240025
 21
157.0136386245
 31
0.0
  0
LINE
  5
BE
  8
0
  6
CONTINUOUS
 62
     7
 10
184.1461240025
 20
157.0136386245
 30
0.0
 11
184.1461240025
 21
151.0136386245
 31
0.0
  0
LINE
  5
BF
  8
0
  6
CONTINUOUS
 62
     7
 10
184.1461240025
 20
151.0136386245
 30
0.0
 11
187.1461240025
 21
151.0136386245
 31
0.0
  0
LINE
  5
C0
  8
0
  6
CONTINUOUS
 62
     7
 10
187.1461240025
 20
145.0136386245
 30
0.0
 11
187.1461240025
 21
151.0136386245
 31
0.0
  0
LINE
  5
C1
  8
0
  6
CONTINUOUS
 62
     7
 10
181.1461240025
 20
145.0136386245
 30
0.0
 11
187.1461240025
 21
145.0136386245
 31
0.0
  0
LINE
  5
C2
  8
0
  6
CONTINUOUS
 62
     7
 10
181.1461240025
 20
145.0136386245
 30
0.0
 11
181.1461240025
 21
148.0136386245
 31
0.0
  0
LINE
  5
C3
  8
0
  6
CONTINUOUS
 62
     7
 10
181.1461240025
 20
148.0136386245
 30
0.0
 11
175.1461240025
 21
148.0136386245
 31
0.0
  0
LINE
  5
C4
  8
0
  6
CONTINUOUS
 62
     7
 10
175.1461240025
 20
148.0136386245
 30
0.0
 11
175.1461240025
 21
145.0136386245
 31
0.0
  0
LINE
  5
C5
  8
0
  6
CONTINUOUS
 62
     7
 10
169.1461240025
 20
145.0136386245
 30
0.0
 11
175.1461240025
 21
145.0136386245
 31
0.0
  0
LINE
  5
C6
  8
0
  6
CONTINUOUS
 62
     7
 10
169.1461240025
 20
145.0136386245
 30
0.0
 11
169.1461240025
 21
148.0136386245
 31
0.0
  0
LINE
  5
C7
  8
0
  6
CONTINUOUS
 62
     7
 10
169.1461240025
 20
148.0136386245
 30
0.0
 11
163.1461240025
 21
148.0136386245
 31
0.0
  0
LINE
  5
C8
  8
0
  6
CONTINUOUS
 62
     7
 10
163.1461240025
 20
148.0136386245
 30
0.0
 11
163.1461240025
 21
145.0136386245
 31
0.0
  0
LINE
  5
C9
  8
0
  6
CONTINUOUS
 62
     7
 10
158.1461240025
 20
145.0136386245
 30
0.0
 11
158.1461240025
 21
148.0136386245
 31
0.0
  0
LINE
  5
CA
  8
0
  6
CONTINUOUS
 62
     7
 10
158.1461240025
 20
148.0136386245
 30
0.0
 11
153.1461240025
 21
148.0136386245
 31
0.0
  0
LINE
  5
CB
  8
0
  6
CONTINUOUS
 62
     7
 10
158.1461240025
 20
145.0136386245
 30
0.0
 11
163.1461240025
 21
145.0136386245
 31
0.0
  0
LINE
  5
CC
  8
0
  6
CONTINUOUS
 62
     7
 10
7.6269164873
 20
143.4792987842
 30
0.0
 11
58.6269164873
 21
143.4792987842
 31
0.0
  0
LINE
  5
CD
  8
0
  6
CONTINUOUS
 62
     7
 10
7.6269164873
 20
143.4792987842
 30
0.0
 11
7.6269164873
 21
145.2792987842
 31
0.0
  0
LINE
  5
CE
  8
0
  6
CONTINUOUS
 62
     7
 10
7.6269164873
 20
145.2792987842
 30
0.0
 11
1.6269164873
 21
145.2792987842
 31
0.0
  0
LINE
  5
CF
  8
0
  6
CONTINUOUS
 62
     7
 10
1.6269164873
 20
147.0792987842
 30
0.0
 11
1.6269164873
 21
145.2792987842
 31
0.0
  0
LINE
  5
D0
  8
0
  6
CONTINUOUS
 62
     7
 10
1.6269164873
 20
147.0792987842
 30
0.0
 11
7.6269164873
 21
147.0792987842
 31
0.0
  0
LINE
  5
D1
  8
0
  6
CONTINUOUS
 62
     7
 10
7.6269164873
 20
147.0792987842
 30
0.0
 11
7.6269164873
 21
148.8792987842
 31
0.0
  0
LINE
  5
D2
  8
0
  6
CONTINUOUS
 62
     7
 10
7.6269164873
 20
148.8792987842
 30
0.0
 11
1.6269164873
 21
148.8792987842
 31
0.0
  0
LINE
  5
D3
  8
0
  6
CONTINUOUS
 62
     7
 10
1.6269164873
 20
150.6792987842
 30
0.0
 11
1.6269164873
 21
148.8792987842
 31
0.0
  0
LINE
  5
D4
  8
0
  6
CONTINUOUS
 62
     7
 10
1.6269164873
 20
150.6792987842
 30
0.0
 11
7.6269164873
 21
150.6792987842
 31
0.0
  0
LINE
  5
D5
  8
0
  6
CONTINUOUS
 62
     7
 10
7.6269164873
 20
150.6792987842
 30
0.0
 11
7.6269164873
 21
152.4792987842
 31
0.0
  0
LINE
  5
D6
  8
0
  6
CONTINUOUS
 62
     7
 10
58.6269164873
 20
152.4792987842
 30
0.0
 11
7.6269164873
 21
152.4792987842
 31
0.0
  0
LINE
  5
D7
  8
0
  6
CONTINUOUS
 62
     7
 10
58.6269164873
 20
150.6792987842
 30
0.0
 11
58.6269164873
 21
152.4792987842
 31
0.0
  0
LINE
  5
D8
  8
0
  6
CONTINUOUS
 62
     7
 10
64.6269164873
 20
150.6792987842
 30
0.0
 11
58.6269164873
 21
150.6792987842
 31
0.0
  0
LINE
  5
D9
  8
0
  6
CONTINUOUS
 62
     7
 10
64.6269164873
 20
148.8792987842
 30
0.0
 11
64.6269164873
 21
150.6792987842
 31
0.0
  0
LINE
  5
DA
  8
0
  6
CONTINUOUS
 62
     7
 10
58.6269164873
 20
148.8792987842
 30
0.0
 11
64.6269164873
 21
148.8792987842
 31
0.0
  0
LINE
  5
DB
  8
0
  6
CONTINUOUS
 62
     7
 10
58.6269164873
 20
147.0792987842
 30
0.0
 11
58.6269164873
 21
148.8792987842
 31
0.0
  0
LINE
  5
DC
  8
0
  6
CONTINUOUS
 62
     7
 10
64.6269164873
 20
147.0792987842
 30
0.0
 11
58.6269164873
 21
147.0792987842
 31
0.0
  0
LINE
  5
DD
  8
0
  6
CONTINUOUS
 62
     7
 10
58.6269164873
 20
145.2792987842
 30
0.0
 11
64.6269164873
 21
145.2792987842
 31
0.0
  0
LINE
  5
DE
  8
0
  6
CONTINUOUS
 62
     7
 10
58.6269164873
 20
143.4792987842
 30
0.0
 11
58.6269164873
 21
145.2792987842
 31
0.0
  0
LINE
  5
DF
  8
0
  6
CONTINUOUS
 62
     7
 10
34.6269164873
 20
148.8792987842
 30
0.0
 11
34.6269164873
 21
150.6792987842
 31
0.0
  0
LINE
  5
E0
  8
0
  6
CONTINUOUS
 62
     7
 10
34.6269164873
 20
150.6792987842
 30
0.0
 11
31.6269164873
 21
150.6792987842
 31
0.0
  0
LINE
  5
E1
  8
0
  6
CONTINUOUS
 62
     7
 10
31.6269164873
 20
150.6792987842
 30
0.0
 11
31.6269164873
 21
148.8792987842
 31
0.0
  0
LINE
  5
E2
  8
0
  6
CONTINUOUS
 62
     7
 10
31.6269164873
 20
148.8792987842
 30
0.0
 11
34.6269164873
 21
148.8792987842
 31
0.0
  0
LINE
  5
E3
  8
0
  6
CONTINUOUS
 62
     7
 10
31.6269164873
 20
147.0792987842
 30
0.0
 11
31.6269164873
 21
145.2792987842
 31
0.0
  0
LINE
  5
E4
  8
0
  6
CONTINUOUS
 62
     7
 10
31.6269164873
 20
145.2792987842
 30
0.0
 11
34.6269164873
 21
145.2792987842
 31
0.0
  0
LINE
  5
E5
  8
0
  6
CONTINUOUS
 62
     7
 10
34.6269164873
 20
145.2792987842
 30
0.0
 11
34.6269164873
 21
147.0792987842
 31
0.0
  0
LINE
  5
E6
  8
0
  6
CONTINUOUS
 62
     7
 10
34.6269164873
 20
147.0792987842
 30
0.0
 11
31.6269164873
 21
147.0792987842
 31
0.0
  0
LINE
  5
E7
  8
0
  6
CONTINUOUS
 62
     7
 10
64.6269164873
 20
145.2792987842
 30
0.0
 11
64.6269164873
 21
147.0792987842
 31
0.0
  0
LINE
  5
E8
  8
0
  6
CONTINUOUS
 62
     7
 10
7.6269164873
 20
132.888247447
 30
0.0
 11
58.6269164873
 21
132.888247447
 31
0.0
  0
LINE
  5
E9
  8
0
  6
CONTINUOUS
 62
     7
 10
7.6269164873
 20
132.888247447
 30
0.0
 11
7.6269164873
 21
134.688247447
 31
0.0
  0
LINE
  5
EA
  8
0
  6
CONTINUOUS
 62
     7
 10
7.6269164873
 20
134.688247447
 30
0.0
 11
1.6269164873
 21
134.688247447
 31
0.0
  0
LINE
  5
EB
  8
0
  6
CONTINUOUS
 62
     7
 10
1.6269164873
 20
136.488247447
 30
0.0
 11
1.6269164873
 21
134.688247447
 31
0.0
  0
LINE
  5
EC
  8
0
  6
CONTINUOUS
 62
     7
 10
1.6269164873
 20
136.488247447
 30
0.0
 11
7.6269164873
 21
136.488247447
 31
0.0
  0
LINE
  5
ED
  8
0
  6
CONTINUOUS
 62
     7
 10
7.6269164873
 20
136.488247447
 30
0.0
 11
7.6269164873
 21
138.288247447
 31
0.0
  0
LINE
  5
EE
  8
0
  6
CONTINUOUS
 62
     7
 10
7.6269164873
 20
138.288247447
 30
0.0
 11
1.6269164873
 21
138.288247447
 31
0.0
  0
LINE
  5
EF
  8
0
  6
CONTINUOUS
 62
     7
 10
1.6269164873
 20
140.088247447
 30
0.0
 11
1.6269164873
 21
138.288247447
 31
0.0
  0
LINE
  5
F0
  8
0
  6
CONTINUOUS
 62
     7
 10
1.6269164873
 20
140.088247447
 30
0.0
 11
7.6269164873
 21
140.088247447
 31
0.0
  0
LINE
  5
F1
  8
0
  6
CONTINUOUS
 62
     7
 10
7.6269164873
 20
140.088247447
 30
0.0
 11
7.6269164873
 21
141.888247447
 31
0.0
  0
LINE
  5
F2
  8
0
  6
CONTINUOUS
 62
     7
 10
58.6269164873
 20
141.888247447
 30
0.0
 11
7.6269164873
 21
141.888247447
 31
0.0
  0
LINE
  5
F3
  8
0
  6
CONTINUOUS
 62
     7
 10
58.6269164873
 20
140.088247447
 30
0.0
 11
58.6269164873
 21
141.888247447
 31
0.0
  0
LINE
  5
F4
  8
0
  6
CONTINUOUS
 62
     7
 10
64.6269164873
 20
140.088247447
 30
0.0
 11
58.6269164873
 21
140.088247447
 31
0.0
  0
LINE
  5
F5
  8
0
  6
CONTINUOUS
 62
     7
 10
64.6269164873
 20
138.288247447
 30
0.0
 11
64.6269164873
 21
140.088247447
 31
0.0
  0
LINE
  5
F6
  8
0
  6
CONTINUOUS
 62
     7
 10
58.6269164873
 20
138.288247447
 30
0.0
 11
64.6269164873
 21
138.288247447
 31
0.0
  0
LINE
  5
F7
  8
0
  6
CONTINUOUS
 62
     7
 10
58.6269164873
 20
136.488247447
 30
0.0
 11
58.6269164873
 21
138.288247447
 31
0.0
  0
LINE
  5
F8
  8
0
  6
CONTINUOUS
 62
     7
 10
64.6269164873
 20
136.488247447
 30
0.0
 11
58.6269164873
 21
136.488247447
 31
0.0
  0
LINE
  5
F9
  8
0
  6
CONTINUOUS
 62
     7
 10
58.6269164873
 20
134.688247447
 30
0.0
 11
64.6269164873
 21
134.688247447
 31
0.0
  0
LINE
  5
FA
  8
0
  6
CONTINUOUS
 62
     7
 10
58.6269164873
 20
132.888247447
 30
0.0
 11
58.6269164873
 21
134.688247447
 31
0.0
  0
LINE
  5
FB
  8
0
  6
CONTINUOUS
 62
     7
 10
34.6269164873
 20
138.288247447
 30
0.0
 11
34.6269164873
 21
140.088247447
 31
0.0
  0
LINE
  5
FC
  8
0
  6
CONTINUOUS
 62
     7
 10
34.6269164873
 20
140.088247447
 30
0.0
 11
31.6269164873
 21
140.088247447
 31
0.0
  0
LINE
  5
FD
  8
0
  6
CONTINUOUS
 62
     7
 10
31.6269164873
 20
140.088247447
 30
0.0
 11
31.6269164873
 21
138.288247447
 31
0.0
  0
LINE
  5
FE
  8
0
  6
CONTINUOUS
 62
     7
 10
31.6269164873
 20
138.288247447
 30
0.0
 11
34.6269164873
 21
138.288247447
 31
0.0
  0
LINE
  5
FF
  8
0
  6
CONTINUOUS
 62
     7
 10
31.6269164873
 20
136.488247447
 30
0.0
 11
31.6269164873
 21
134.688247447
 31
0.0
  0
LINE
  5
100
  8
0
  6
CONTINUOUS
 62
     7
 10
31.6269164873
 20
134.688247447
 30
0.0
 11
34.6269164873
 21
134.688247447
 31
0.0
  0
LINE
  5
101
  8
0
  6
CONTINUOUS
 62
     7
 10
34.6269164873
 20
134.688247447
 30
0.0
 11
34.6269164873
 21
136.488247447
 31
0.0
  0
LINE
  5
102
  8
0
  6
CONTINUOUS
 62
     7
 10
34.6269164873
 20
136.488247447
 30
0.0
 11
31.6269164873
 21
136.488247447
 31
0.0
  0
LINE
  5
103
  8
0
  6
CONTINUOUS
 62
     7
 10
64.6269164873
 20
134.688247447
 30
0.0
 11
64.6269164873
 21
136.488247447
 31
0.0
  0
LINE
  5
104
  8
0
  6
CONTINUOUS
 62
     7
 10
7.6269164873
 20
122.2971961097
 30
0.0
 11
58.6269164873
 21
122.2971961097
 31
0.0
  0
LINE
  5
105
  8
0
  6
CONTINUOUS
 62
     7
 10
7.6269164873
 20
122.2971961097
 30
0.0
 11
7.6269164873
 21
124.0971961097
 31
0.0
  0
LINE
  5
106
  8
0
  6
CONTINUOUS
 62
     7
 10
7.6269164873
 20
124.0971961097
 30
0.0
 11
1.6269164873
 21
124.0971961097
 31
0.0
  0
LINE
  5
107
  8
0
  6
CONTINUOUS
 62
     7
 10
1.6269164873
 20
125.8971961097
 30
0.0
 11
1.6269164873
 21
124.0971961097
 31
0.0
  0
LINE
  5
108
  8
0
  6
CONTINUOUS
 62
     7
 10
1.6269164873
 20
125.8971961097
 30
0.0
 11
7.6269164873
 21
125.8971961097
 31
0.0
  0
LINE
  5
109
  8
0
  6
CONTINUOUS
 62
     7
 10
7.6269164873
 20
125.8971961097
 30
0.0
 11
7.6269164873
 21
127.6971961097
 31
0.0
  0
LINE
  5
10A
  8
0
  6
CONTINUOUS
 62
     7
 10
7.6269164873
 20
127.6971961097
 30
0.0
 11
1.6269164873
 21
127.6971961097
 31
0.0
  0
LINE
  5
10B
  8
0
  6
CONTINUOUS
 62
     7
 10
1.6269164873
 20
129.4971961097
 30
0.0
 11
1.6269164873
 21
127.6971961097
 31
0.0
  0
LINE
  5
10C
  8
0
  6
CONTINUOUS
 62
     7
 10
1.6269164873
 20
129.4971961097
 30
0.0
 11
7.6269164873
 21
129.4971961097
 31
0.0
  0
LINE
  5
10D
  8
0
  6
CONTINUOUS
 62
     7
 10
7.6269164873
 20
129.4971961097
 30
0.0
 11
7.6269164873
 21
131.2971961097
 31
0.0
  0
LINE
  5
10E
  8
0
  6
CONTINUOUS
 62
     7
 10
58.6269164873
 20
131.2971961097
 30
0.0
 11
7.6269164873
 21
131.2971961097
 31
0.0
  0
LINE
  5
10F
  8
0
  6
CONTINUOUS
 62
     7
 10
58.6269164873
 20
129.4971961097
 30
0.0
 11
58.6269164873
 21
131.2971961097
 31
0.0
  0
LINE
  5
110
  8
0
  6
CONTINUOUS
 62
     7
 10
64.6269164873
 20
129.4971961097
 30
0.0
 11
58.6269164873
 21
129.4971961097
 31
0.0
  0
LINE
  5
111
  8
0
  6
CONTINUOUS
 62
     7
 10
64.6269164873
 20
127.6971961097
 30
0.0
 11
64.6269164873
 21
129.4971961097
 31
0.0
  0
LINE
  5
112
  8
0
  6
CONTINUOUS
 62
     7
 10
58.6269164873
 20
127.6971961097
 30
0.0
 11
64.6269164873
 21
127.6971961097
 31
0.0
  0
LINE
  5
113
  8
0
  6
CONTINUOUS
 62
     7
 10
58.6269164873
 20
125.8971961097
 30
0.0
 11
58.6269164873
 21
127.6971961097
 31
0.0
  0
LINE
  5
114
  8
0
  6
CONTINUOUS
 62
     7
 10
64.6269164873
 20
125.8971961097
 30
0.0
 11
58.6269164873
 21
125.8971961097
 31
0.0
  0
LINE
  5
115
  8
0
  6
CONTINUOUS
 62
     7
 10
58.6269164873
 20
124.0971961097
 30
0.0
 11
64.6269164873
 21
124.0971961097
 31
0.0
  0
LINE
  5
116
  8
0
  6
CONTINUOUS
 62
     7
 10
58.6269164873
 20
122.2971961097
 30
0.0
 11
58.6269164873
 21
124.0971961097
 31
0.0
  0
LINE
  5
117
  8
0
  6
CONTINUOUS
 62
     7
 10
34.6269164873
 20
127.6971961097
 30
0.0
 11
34.6269164873
 21
129.4971961097
 31
0.0
  0
LINE
  5
118
  8
0
  6
CONTINUOUS
 62
     7
 10
34.6269164873
 20
129.4971961097
 30
0.0
 11
31.6269164873
 21
129.4971961097
 31
0.0
  0
LINE
  5
119
  8
0
  6
CONTINUOUS
 62
     7
 10
31.6269164873
 20
129.4971961097
 30
0.0
 11
31.6269164873
 21
127.6971961097
 31
0.0
  0
LINE
  5
11A
  8
0
  6
CONTINUOUS
 62
     7
 10
31.6269164873
 20
127.6971961097
 30
0.0
 11
34.6269164873
 21
127.6971961097
 31
0.0
  0
LINE
  5
11B
  8
0
  6
CONTINUOUS
 62
     7
 10
31.6269164873
 20
125.8971961097
 30
0.0
 11
31.6269164873
 21
124.0971961097
 31
0.0
  0
LINE
  5
11C
  8
0
  6
CONTINUOUS
 62
     7
 10
31.6269164873
 20
124.0971961097
 30
0.0
 11
34.6269164873
 21
124.0971961097
 31
0.0
  0
LINE
  5
11D
  8
0
  6
CONTINUOUS
 62
     7
 10
34.6269164873
 20
124.0971961097
 30
0.0
 11
34.6269164873
 21
125.8971961097
 31
0.0
  0
LINE
  5
11E
  8
0
  6
CONTINUOUS
 62
     7
 10
34.6269164873
 20
125.8971961097
 30
0.0
 11
31.6269164873
 21
125.8971961097
 31
0.0
  0
LINE
  5
11F
  8
0
  6
CONTINUOUS
 62
     7
 10
64.6269164873
 20
124.0971961097
 30
0.0
 11
64.6269164873
 21
125.8971961097
 31
0.0
  0
LINE
  5
120
  8
0
  6
CONTINUOUS
 62
     7
 10
138.8868297147
 20
157.9110558337
 30
0.0
 11
132.8868297147
 21
157.9110558337
 31
0.0
  0
LINE
  5
121
  8
0
  6
CONTINUOUS
 62
     7
 10
138.8868297147
 20
159.7110558337
 30
0.0
 11
138.8868297147
 21
157.9110558337
 31
0.0
  0
LINE
  5
122
  8
0
  6
CONTINUOUS
 62
     7
 10
132.8868297147
 20
159.7110558337
 30
0.0
 11
138.8868297147
 21
159.7110558337
 31
0.0
  0
LINE
  5
123
  8
0
  6
CONTINUOUS
 62
     7
 10
138.8868297147
 20
161.5110558337
 30
0.0
 11
132.8868297147
 21
161.5110558337
 31
0.0
  0
LINE
  5
124
  8
0
  6
CONTINUOUS
 62
     7
 10
138.8868297147
 20
163.3110558337
 30
0.0
 11
138.8868297147
 21
161.5110558337
 31
0.0
  0
LINE
  5
125
  8
0
  6
CONTINUOUS
 62
     7
 10
172.8868297147
 20
161.5110558337
 30
0.0
 11
172.8868297147
 21
163.3110558337
 31
0.0
  0
LINE
  5
126
  8
0
  6
CONTINUOUS
 62
     7
 10
178.8868297147
 20
161.5110558337
 30
0.0
 11
172.8868297147
 21
161.5110558337
 31
0.0
  0
LINE
  5
127
  8
0
  6
CONTINUOUS
 62
     7
 10
172.8868297147
 20
159.7110558337
 30
0.0
 11
178.8868297147
 21
159.7110558337
 31
0.0
  0
LINE
  5
128
  8
0
  6
CONTINUOUS
 62
     7
 10
172.8868297147
 20
157.9110558337
 30
0.0
 11
172.8868297147
 21
159.7110558337
 31
0.0
  0
LINE
  5
129
  8
0
  6
CONTINUOUS
 62
     7
 10
178.8868297147
 20
157.9110558337
 30
0.0
 11
172.8868297147
 21
157.9110558337
 31
0.0
  0
LINE
  5
12A
  8
0
  6
CONTINUOUS
 62
     7
 10
172.8868297147
 20
156.1110558337
 30
0.0
 11
178.8868297147
 21
156.1110558337
 31
0.0
  0
LINE
  5
12B
  8
0
  6
CONTINUOUS
 62
     7
 10
172.8868297147
 20
154.3110558337
 30
0.0
 11
172.8868297147
 21
156.1110558337
 31
0.0
  0
LINE
  5
12C
  8
0
  6
CONTINUOUS
 62
     7
 10
138.8868297147
 20
156.1110558337
 30
0.0
 11
138.8868297147
 21
154.3110558337
 31
0.0
  0
LINE
  5
12D
  8
0
  6
CONTINUOUS
 62
     7
 10
132.8868297147
 20
156.1110558337
 30
0.0
 11
138.8868297147
 21
156.1110558337
 31
0.0
  0
LINE
  5
12E
  8
0
  6
CONTINUOUS
 62
     7
 10
138.8868297147
 20
154.3110558337
 30
0.0
 11
172.8868297147
 21
154.3110558337
 31
0.0
  0
LINE
  5
12F
  8
0
  6
CONTINUOUS
 62
     7
 10
132.8868297147
 20
157.9110558337
 30
0.0
 11
132.8868297147
 21
156.1110558337
 31
0.0
  0
LINE
  5
130
  8
0
  6
CONTINUOUS
 62
     7
 10
172.8868297147
 20
163.3110558337
 30
0.0
 11
138.8868297147
 21
163.3110558337
 31
0.0
  0
LINE
  5
131
  8
0
  6
CONTINUOUS
 62
     7
 10
178.8868297147
 20
156.1110558337
 30
0.0
 11
178.8868297147
 21
157.9110558337
 31
0.0
  0
LINE
  5
132
  8
0
  6
CONTINUOUS
 62
     7
 10
178.8868297147
 20
159.7110558337
 30
0.0
 11
178.8868297147
 21
161.5110558337
 31
0.0
  0
LINE
  5
133
  8
0
  6
CONTINUOUS
 62
     7
 10
132.8868297147
 20
161.5110558337
 30
0.0
 11
132.8868297147
 21
159.7110558337
 31
0.0
  0
LINE
  5
134
  8
0
  6
CONTINUOUS
 62
     7
 10
135.8868297147
 20
171.048924235
 30
0.0
 11
135.8868297147
 21
168.048924235
 31
0.0
  0
ARC
  5
135
  8
0
  6
CONTINUOUS
 62
     7
 10
135.8868297147
 20
171.048924235
 30
0.0
 40
3.0
 50
180.0
 51
270.0
  0
LINE
  5
136
  8
0
  6
CONTINUOUS
 62
     7
 10
138.8868297147
 20
175.848924235
 30
0.0
 11
132.8868297147
 21
175.848924235
 31
0.0
  0
LINE
  5
137
  8
0
  6
CONTINUOUS
 62
     7
 10
138.8868297147
 20
177.648924235
 30
0.0
 11
138.8868297147
 21
175.848924235
 31
0.0
  0
LINE
  5
138
  8
0
  6
CONTINUOUS
 62
     7
 10
132.8868297147
 20
177.648924235
 30
0.0
 11
138.8868297147
 21
177.648924235
 31
0.0
  0
LINE
  5
139
  8
0
  6
CONTINUOUS
 62
     7
 10
138.8868297147
 20
179.448924235
 30
0.0
 11
132.8868297147
 21
179.448924235
 31
0.0
  0
LINE
  5
13A
  8
0
  6
CONTINUOUS
 62
     7
 10
138.8868297147
 20
181.248924235
 30
0.0
 11
138.8868297147
 21
179.448924235
 31
0.0
  0
LINE
  5
13B
  8
0
  6
CONTINUOUS
 62
     7
 10
132.8868297147
 20
181.248924235
 30
0.0
 11
138.8868297147
 21
181.248924235
 31
0.0
  0
ARC
  5
13C
  8
0
  6
CONTINUOUS
 62
     7
 10
135.8868297147
 20
186.048924235
 30
0.0
 40
3.0
 50
90.0
 51
180.0
  0
LINE
  5
13D
  8
0
  6
CONTINUOUS
 62
     7
 10
135.8868297147
 20
189.048924235
 30
0.0
 11
135.8868297147
 21
186.048924235
 31
0.0
  0
LINE
  5
13E
  8
0
  6
CONTINUOUS
 62
     7
 10
135.8868297147
 20
186.048924235
 30
0.0
 11
142.8868297147
 21
186.048924235
 31
0.0
  0
LINE
  5
13F
  8
0
  6
CONTINUOUS
 62
     7
 10
142.8868297147
 20
186.048924235
 30
0.0
 11
142.8868297147
 21
189.048924235
 31
0.0
  0
LINE
  5
140
  8
0
  6
CONTINUOUS
 62
     7
 10
148.8868297147
 20
189.048924235
 30
0.0
 11
148.8868297147
 21
186.048924235
 31
0.0
  0
LINE
  5
141
  8
0
  6
CONTINUOUS
 62
     7
 10
148.8868297147
 20
186.048924235
 30
0.0
 11
154.8868297147
 21
186.048924235
 31
0.0
  0
LINE
  5
142
  8
0
  6
CONTINUOUS
 62
     7
 10
154.8868297147
 20
186.048924235
 30
0.0
 11
154.8868297147
 21
189.048924235
 31
0.0
  0
LINE
  5
143
  8
0
  6
CONTINUOUS
 62
     7
 10
160.8868297147
 20
189.048924235
 30
0.0
 11
160.8868297147
 21
186.048924235
 31
0.0
  0
LINE
  5
144
  8
0
  6
CONTINUOUS
 62
     7
 10
160.8868297147
 20
186.048924235
 30
0.0
 11
166.8868297147
 21
186.048924235
 31
0.0
  0
LINE
  5
145
  8
0
  6
CONTINUOUS
 62
     7
 10
166.8868297147
 20
186.048924235
 30
0.0
 11
166.8868297147
 21
189.048924235
 31
0.0
  0
LINE
  5
146
  8
0
  6
CONTINUOUS
 62
     7
 10
172.8868297147
 20
189.048924235
 30
0.0
 11
172.8868297147
 21
186.048924235
 31
0.0
  0
LINE
  5
147
  8
0
  6
CONTINUOUS
 62
     7
 10
172.8868297147
 20
186.048924235
 30
0.0
 11
178.8868297147
 21
186.048924235
 31
0.0
  0
LINE
  5
148
  8
0
  6
CONTINUOUS
 62
     7
 10
172.8868297147
 20
181.248924235
 30
0.0
 11
178.8868297147
 21
181.248924235
 31
0.0
  0
LINE
  5
149
  8
0
  6
CONTINUOUS
 62
     7
 10
172.8868297147
 20
179.448924235
 30
0.0
 11
172.8868297147
 21
181.248924235
 31
0.0
  0
LINE
  5
14A
  8
0
  6
CONTINUOUS
 62
     7
 10
178.8868297147
 20
179.448924235
 30
0.0
 11
172.8868297147
 21
179.448924235
 31
0.0
  0
LINE
  5
14B
  8
0
  6
CONTINUOUS
 62
     7
 10
172.8868297147
 20
177.648924235
 30
0.0
 11
178.8868297147
 21
177.648924235
 31
0.0
  0
LINE
  5
14C
  8
0
  6
CONTINUOUS
 62
     7
 10
172.8868297147
 20
175.848924235
 30
0.0
 11
172.8868297147
 21
177.648924235
 31
0.0
  0
LINE
  5
14D
  8
0
  6
CONTINUOUS
 62
     7
 10
178.8868297147
 20
175.848924235
 30
0.0
 11
172.8868297147
 21
175.848924235
 31
0.0
  0
LINE
  5
14E
  8
0
  6
CONTINUOUS
 62
     7
 10
178.8868297147
 20
171.048924235
 30
0.0
 11
172.8868297147
 21
171.048924235
 31
0.0
  0
LINE
  5
14F
  8
0
  6
CONTINUOUS
 62
     7
 10
172.8868297147
 20
171.048924235
 30
0.0
 11
172.8868297147
 21
168.048924235
 31
0.0
  0
LINE
  5
150
  8
0
  6
CONTINUOUS
 62
     7
 10
166.8868297147
 20
168.048924235
 30
0.0
 11
166.8868297147
 21
171.048924235
 31
0.0
  0
LINE
  5
151
  8
0
  6
CONTINUOUS
 62
     7
 10
166.8868297147
 20
171.048924235
 30
0.0
 11
160.8868297147
 21
171.048924235
 31
0.0
  0
LINE
  5
152
  8
0
  6
CONTINUOUS
 62
     7
 10
160.8868297147
 20
171.048924235
 30
0.0
 11
160.8868297147
 21
168.048924235
 31
0.0
  0
LINE
  5
153
  8
0
  6
CONTINUOUS
 62
     7
 10
154.8868297147
 20
168.048924235
 30
0.0
 11
154.8868297147
 21
171.048924235
 31
0.0
  0
LINE
  5
154
  8
0
  6
CONTINUOUS
 62
     7
 10
154.8868297147
 20
171.048924235
 30
0.0
 11
148.8868297147
 21
171.048924235
 31
0.0
  0
LINE
  5
155
  8
0
  6
CONTINUOUS
 62
     7
 10
148.8868297147
 20
171.048924235
 30
0.0
 11
148.8868297147
 21
168.048924235
 31
0.0
  0
LINE
  5
156
  8
0
  6
CONTINUOUS
 62
     7
 10
142.8868297147
 20
168.048924235
 30
0.0
 11
142.8868297147
 21
171.048924235
 31
0.0
  0
LINE
  5
157
  8
0
  6
CONTINUOUS
 62
     7
 10
142.8868297147
 20
171.048924235
 30
0.0
 11
135.8868297147
 21
171.048924235
 31
0.0
  0
LINE
  5
158
  8
0
  6
CONTINUOUS
 62
     7
 10
142.8868297147
 20
168.048924235
 30
0.0
 11
148.8868297147
 21
168.048924235
 31
0.0
  0
LINE
  5
159
  8
0
  6
CONTINUOUS
 62
     7
 10
132.8868297147
 20
175.848924235
 30
0.0
 11
132.8868297147
 21
171.048924235
 31
0.0
  0
LINE
  5
15A
  8
0
  6
CONTINUOUS
 62
     7
 10
172.8868297147
 20
189.048924235
 30
0.0
 11
166.8868297147
 21
189.048924235
 31
0.0
  0
LINE
  5
15B
  8
0
  6
CONTINUOUS
 62
     7
 10
178.8868297147
 20
181.248924235
 30
0.0
 11
178.8868297147
 21
186.048924235
 31
0.0
  0
LINE
  5
15C
  8
0
  6
CONTINUOUS
 62
     7
 10
132.8868297147
 20
186.048924235
 30
0.0
 11
132.8868297147
 21
181.248924235
 31
0.0
  0
LINE
  5
15D
  8
0
  6
CONTINUOUS
 62
     7
 10
132.8868297147
 20
179.448924235
 30
0.0
 11
132.8868297147
 21
177.648924235
 31
0.0
  0
LINE
  5
15E
  8
0
  6
CONTINUOUS
 62
     7
 10
178.8868297147
 20
171.048924235
 30
0.0
 11
178.8868297147
 21
175.848924235
 31
0.0
  0
LINE
  5
15F
  8
0
  6
CONTINUOUS
 62
     7
 10
178.8868297147
 20
177.648924235
 30
0.0
 11
178.8868297147
 21
179.448924235
 31
0.0
  0
LINE
  5
160
  8
0
  6
CONTINUOUS
 62
     7
 10
148.8868297147
 20
189.048924235
 30
0.0
 11
142.8868297147
 21
189.048924235
 31
0.0
  0
LINE
  5
161
  8
0
  6
CONTINUOUS
 62
     7
 10
160.8868297147
 20
189.048924235
 30
0.0
 11
154.8868297147
 21
189.048924235
 31
0.0
  0
LINE
  5
162
  8
0
  6
CONTINUOUS
 62
     7
 10
166.8868297147
 20
168.048924235
 30
0.0
 11
172.8868297147
 21
168.048924235
 31
0.0
  0
LINE
  5
163
  8
0
  6
CONTINUOUS
 62
     7
 10
154.8868297147
 20
168.048924235
 30
0.0
 11
160.8868297147
 21
168.048924235
 31
0.0
  0
LINE
  5
164
  8
0
  6
CONTINUOUS
 62
     7
 10
70.4148759934
 20
134.9430674034
 30
0.0
 11
70.4148759934
 21
131.9430674034
 31
0.0
  0
ARC
  5
165
  8
0
  6
CONTINUOUS
 62
     7
 10
70.4148759934
 20
134.9430674034
 30
0.0
 40
3.000000000000028
 50
180.0
 51
270.0
  0
LINE
  5
166
  8
0
  6
CONTINUOUS
 62
     7
 10
73.4148759934
 20
139.7430674034
 30
0.0
 11
67.4148759934
 21
139.7430674034
 31
0.0
  0
LINE
  5
167
  8
0
  6
CONTINUOUS
 62
     7
 10
73.4148759934
 20
141.5430674034
 30
0.0
 11
73.4148759934
 21
139.7430674034
 31
0.0
  0
LINE
  5
168
  8
0
  6
CONTINUOUS
 62
     7
 10
67.4148759934
 20
141.5430674034
 30
0.0
 11
73.4148759934
 21
141.5430674034
 31
0.0
  0
LINE
  5
169
  8
0
  6
CONTINUOUS
 62
     7
 10
73.4148759934
 20
143.3430674034
 30
0.0
 11
67.4148759934
 21
143.3430674034
 31
0.0
  0
LINE
  5
16A
  8
0
  6
CONTINUOUS
 62
     7
 10
73.4148759934
 20
145.1430674034
 30
0.0
 11
73.4148759934
 21
143.3430674034
 31
0.0
  0
LINE
  5
16B
  8
0
  6
CONTINUOUS
 62
     7
 10
67.4148759934
 20
145.1430674034
 30
0.0
 11
73.4148759934
 21
145.1430674034
 31
0.0
  0
ARC
  5
16C
  8
0
  6
CONTINUOUS
 62
     7
 10
70.4148759934
 20
149.9430674034
 30
0.0
 40
3.0
 50
90.0
 51
180.0
  0
LINE
  5
16D
  8
0
  6
CONTINUOUS
 62
     7
 10
70.4148759934
 20
152.9430674034
 30
0.0
 11
70.4148759934
 21
149.9430674034
 31
0.0
  0
LINE
  5
16E
  8
0
  6
CONTINUOUS
 62
     7
 10
70.4148759934
 20
149.9430674034
 30
0.0
 11
77.4148759934
 21
149.9430674034
 31
0.0
  0
LINE
  5
16F
  8
0
  6
CONTINUOUS
 62
     7
 10
77.4148759934
 20
149.9430674034
 30
0.0
 11
77.4148759934
 21
152.9430674034
 31
0.0
  0
LINE
  5
170
  8
0
  6
CONTINUOUS
 62
     7
 10
83.4148759934
 20
152.9430674034
 30
0.0
 11
83.4148759934
 21
149.9430674034
 31
0.0
  0
LINE
  5
171
  8
0
  6
CONTINUOUS
 62
     7
 10
83.4148759934
 20
149.9430674034
 30
0.0
 11
89.4148759934
 21
149.9430674034
 31
0.0
  0
LINE
  5
172
  8
0
  6
CONTINUOUS
 62
     7
 10
89.4148759934
 20
149.9430674034
 30
0.0
 11
89.4148759934
 21
152.9430674034
 31
0.0
  0
LINE
  5
173
  8
0
  6
CONTINUOUS
 62
     7
 10
95.4148759934
 20
152.9430674034
 30
0.0
 11
95.4148759934
 21
149.9430674034
 31
0.0
  0
LINE
  5
174
  8
0
  6
CONTINUOUS
 62
     7
 10
95.4148759934
 20
149.9430674034
 30
0.0
 11
101.4148759934
 21
149.9430674034
 31
0.0
  0
LINE
  5
175
  8
0
  6
CONTINUOUS
 62
     7
 10
101.4148759934
 20
149.9430674034
 30
0.0
 11
101.4148759934
 21
152.9430674034
 31
0.0
  0
LINE
  5
176
  8
0
  6
CONTINUOUS
 62
     7
 10
107.4148759934
 20
152.9430674034
 30
0.0
 11
107.4148759934
 21
149.9430674034
 31
0.0
  0
LINE
  5
177
  8
0
  6
CONTINUOUS
 62
     7
 10
107.4148759934
 20
149.9430674034
 30
0.0
 11
113.4148759934
 21
149.9430674034
 31
0.0
  0
LINE
  5
178
  8
0
  6
CONTINUOUS
 62
     7
 10
107.4148759934
 20
145.1430674034
 30
0.0
 11
113.4148759934
 21
145.1430674034
 31
0.0
  0
LINE
  5
179
  8
0
  6
CONTINUOUS
 62
     7
 10
107.4148759934
 20
143.3430674034
 30
0.0
 11
107.4148759934
 21
145.1430674034
 31
0.0
  0
LINE
  5
17A
  8
0
  6
CONTINUOUS
 62
     7
 10
113.4148759934
 20
143.3430674034
 30
0.0
 11
107.4148759934
 21
143.3430674034
 31
0.0
  0
LINE
  5
17B
  8
0
  6
CONTINUOUS
 62
     7
 10
107.4148759934
 20
141.5430674034
 30
0.0
 11
113.4148759934
 21
141.5430674034
 31
0.0
  0
LINE
  5
17C
  8
0
  6
CONTINUOUS
 62
     7
 10
107.4148759934
 20
139.7430674034
 30
0.0
 11
107.4148759934
 21
141.5430674034
 31
0.0
  0
LINE
  5
17D
  8
0
  6
CONTINUOUS
 62
     7
 10
113.4148759934
 20
139.7430674034
 30
0.0
 11
107.4148759934
 21
139.7430674034
 31
0.0
  0
LINE
  5
17E
  8
0
  6
CONTINUOUS
 62
     7
 10
113.4148759934
 20
134.9430674034
 30
0.0
 11
107.4148759934
 21
134.9430674034
 31
0.0
  0
LINE
  5
17F
  8
0
  6
CONTINUOUS
 62
     7
 10
107.4148759934
 20
134.9430674034
 30
0.0
 11
107.4148759934
 21
131.9430674034
 31
0.0
  0
LINE
  5
180
  8
0
  6
CONTINUOUS
 62
     7
 10
101.4148759934
 20
131.9430674034
 30
0.0
 11
101.4148759934
 21
134.9430674034
 31
0.0
  0
LINE
  5
181
  8
0
  6
CONTINUOUS
 62
     7
 10
101.4148759934
 20
134.9430674034
 30
0.0
 11
95.4148759934
 21
134.9430674034
 31
0.0
  0
LINE
  5
182
  8
0
  6
CONTINUOUS
 62
     7
 10
95.4148759934
 20
134.9430674034
 30
0.0
 11
95.4148759934
 21
131.9430674034
 31
0.0
  0
LINE
  5
183
  8
0
  6
CONTINUOUS
 62
     7
 10
89.4148759934
 20
131.9430674034
 30
0.0
 11
89.4148759934
 21
134.9430674034
 31
0.0
  0
LINE
  5
184
  8
0
  6
CONTINUOUS
 62
     7
 10
89.4148759934
 20
134.9430674034
 30
0.0
 11
83.4148759934
 21
134.9430674034
 31
0.0
  0
LINE
  5
185
  8
0
  6
CONTINUOUS
 62
     7
 10
83.4148759934
 20
134.9430674034
 30
0.0
 11
83.4148759934
 21
131.9430674034
 31
0.0
  0
LINE
  5
186
  8
0
  6
CONTINUOUS
 62
     7
 10
77.4148759934
 20
131.9430674034
 30
0.0
 11
77.4148759934
 21
134.9430674034
 31
0.0
  0
LINE
  5
187
  8
0
  6
CONTINUOUS
 62
     7
 10
77.4148759934
 20
134.9430674034
 30
0.0
 11
70.4148759934
 21
134.9430674034
 31
0.0
  0
LINE
  5
188
  8
0
  6
CONTINUOUS
 62
     7
 10
77.4148759934
 20
131.9430674034
 30
0.0
 11
83.4148759934
 21
131.9430674034
 31
0.0
  0
LINE
  5
189
  8
0
  6
CONTINUOUS
 62
     7
 10
67.4148759934
 20
139.7430674034
 30
0.0
 11
67.4148759934
 21
134.9430674034
 31
0.0
  0
LINE
  5
18A
  8
0
  6
CONTINUOUS
 62
     7
 10
107.4148759934
 20
152.9430674034
 30
0.0
 11
101.4148759934
 21
152.9430674034
 31
0.0
  0
LINE
  5
18B
  8
0
  6
CONTINUOUS
 62
     7
 10
113.4148759934
 20
145.1430674034
 30
0.0
 11
113.4148759934
 21
149.9430674034
 31
0.0
  0
LINE
  5
18C
  8
0
  6
CONTINUOUS
 62
     7
 10
67.4148759934
 20
149.9430674034
 30
0.0
 11
67.4148759934
 21
145.1430674034
 31
0.0
  0
LINE
  5
18D
  8
0
  6
CONTINUOUS
 62
     7
 10
67.4148759934
 20
143.3430674034
 30
0.0
 11
67.4148759934
 21
141.5430674034
 31
0.0
  0
LINE
  5
18E
  8
0
  6
CONTINUOUS
 62
     7
 10
113.4148759934
 20
134.9430674034
 30
0.0
 11
113.4148759934
 21
139.7430674034
 31
0.0
  0
LINE
  5
18F
  8
0
  6
CONTINUOUS
 62
     7
 10
113.4148759934
 20
141.5430674034
 30
0.0
 11
113.4148759934
 21
143.3430674034
 31
0.0
  0
LINE
  5
190
  8
0
  6
CONTINUOUS
 62
     7
 10
83.4148759934
 20
152.9430674034
 30
0.0
 11
77.4148759934
 21
152.9430674034
 31
0.0
  0
LINE
  5
191
  8
0
  6
CONTINUOUS
 62
     7
 10
95.4148759934
 20
152.9430674034
 30
0.0
 11
89.4148759934
 21
152.9430674034
 31
0.0
  0
LINE
  5
192
  8
0
  6
CONTINUOUS
 62
     7
 10
101.4148759934
 20
131.9430674034
 30
0.0
 11
107.4148759934
 21
131.9430674034
 31
0.0
  0
LINE
  5
193
  8
0
  6
CONTINUOUS
 62
     7
 10
89.4148759934
 20
131.9430674034
 30
0.0
 11
95.4148759934
 21
131.9430674034
 31
0.0
  0
LINE
  5
194
  8
0
  6
CONTINUOUS
 62
     7
 10
113.1741702812
 20
124.4529618364
 30
0.0
 11
107.1741702812
 21
124.4529618364
 31
0.0
  0
LINE
  5
195
  8
0
  6
CONTINUOUS
 62
     7
 10
107.1741702812
 20
124.4529618364
 30
0.0
 11
107.1741702812
 21
122.6529618364
 31
0.0
  0
LINE
  5
196
  8
0
  6
CONTINUOUS
 62
     7
 10
107.1741702812
 20
122.6529618364
 30
0.0
 11
113.1741702812
 21
122.6529618364
 31
0.0
  0
LINE
  5
197
  8
0
  6
CONTINUOUS
 62
     7
 10
67.1741702812
 20
122.6529618364
 30
0.0
 11
73.1741702812
 21
122.6529618364
 31
0.0
  0
LINE
  5
198
  8
0
  6
CONTINUOUS
 62
     7
 10
73.1741702812
 20
122.6529618364
 30
0.0
 11
73.1741702812
 21
124.4529618364
 31
0.0
  0
LINE
  5
199
  8
0
  6
CONTINUOUS
 62
     7
 10
73.1741702812
 20
124.4529618364
 30
0.0
 11
67.1741702812
 21
124.4529618364
 31
0.0
  0
LINE
  5
19A
  8
0
  6
CONTINUOUS
 62
     7
 10
67.1741702812
 20
126.2529618364
 30
0.0
 11
73.1741702812
 21
126.2529618364
 31
0.0
  0
LINE
  5
19B
  8
0
  6
CONTINUOUS
 62
     7
 10
73.1741702812
 20
126.2529618364
 30
0.0
 11
73.1741702812
 21
128.0529618364
 31
0.0
  0
LINE
  5
19C
  8
0
  6
CONTINUOUS
 62
     7
 10
73.1741702812
 20
128.0529618364
 30
0.0
 11
67.1741702812
 21
128.0529618364
 31
0.0
  0
LINE
  5
19D
  8
0
  6
CONTINUOUS
 62
     7
 10
113.1741702812
 20
128.0529618364
 30
0.0
 11
107.1741702812
 21
128.0529618364
 31
0.0
  0
LINE
  5
19E
  8
0
  6
CONTINUOUS
 62
     7
 10
107.1741702812
 20
128.0529618364
 30
0.0
 11
107.1741702812
 21
126.2529618364
 31
0.0
  0
LINE
  5
19F
  8
0
  6
CONTINUOUS
 62
     7
 10
107.1741702812
 20
126.2529618364
 30
0.0
 11
113.1741702812
 21
126.2529618364
 31
0.0
  0
LINE
  5
1A0
  8
0
  6
CONTINUOUS
 62
     7
 10
67.1741702812
 20
120.8529618364
 30
0.0
 11
113.1741702812
 21
120.8529618364
 31
0.0
  0
LINE
  5
1A1
  8
0
  6
CONTINUOUS
 62
     7
 10
67.1741702812
 20
129.8529618364
 30
0.0
 11
67.1741702812
 21
128.0529618364
 31
0.0
  0
LINE
  5
1A2
  8
0
  6
CONTINUOUS
 62
     7
 10
113.1741702812
 20
129.8529618364
 30
0.0
 11
67.1741702812
 21
129.8529618364
 31
0.0
  0
LINE
  5
1A3
  8
0
  6
CONTINUOUS
 62
     7
 10
113.1741702812
 20
120.8529618364
 30
0.0
 11
113.1741702812
 21
122.6529618364
 31
0.0
  0
LINE
  5
1A4
  8
0
  6
CONTINUOUS
 62
     7
 10
67.1741702812
 20
126.2529618364
 30
0.0
 11
67.1741702812
 21
124.4529618364
 31
0.0
  0
LINE
  5
1A5
  8
0
  6
CONTINUOUS
 62
     7
 10
67.1741702812
 20
122.6529618364
 30
0.0
 11
67.1741702812
 21
120.8529618364
 31
0.0
  0
LINE
  5
1A6
  8
0
  6
CONTINUOUS
 62
     7
 10
113.1741702812
 20
128.0529618364
 30
0.0
 11
113.1741702812
 21
129.8529618364
 31
0.0
  0
LINE
  5
1A7
  8
0
  6
CONTINUOUS
 62
     7
 10
113.1741702812
 20
124.4529618364
 30
0.0
 11
113.1741702812
 21
126.2529618364
 31
0.0
  0
LINE
  5
1A8
  8
0
  6
CONTINUOUS
 62
     7
 10
47.4615108477
 20
115.3061447724
 30
0.0
 11
41.4615108477
 21
115.3061447724
 31
0.0
  0
LINE
  5
1A9
  8
0
  6
CONTINUOUS
 62
     7
 10
41.4615108477
 20
115.3061447724
 30
0.0
 11
41.4615108477
 21
113.5061447724
 31
0.0
  0
LINE
  5
1AA
  8
0
  6
CONTINUOUS
 62
     7
 10
41.4615108477
 20
113.5061447724
 30
0.0
 11
47.4615108477
 21
113.5061447724
 31
0.0
  0
LINE
  5
1AB
  8
0
  6
CONTINUOUS
 62
     7
 10
1.4615108477
 20
113.5061447724
 30
0.0
 11
7.4615108477
 21
113.5061447724
 31
0.0
  0
LINE
  5
1AC
  8
0
  6
CONTINUOUS
 62
     7
 10
7.4615108477
 20
113.5061447724
 30
0.0
 11
7.4615108477
 21
115.3061447724
 31
0.0
  0
LINE
  5
1AD
  8
0
  6
CONTINUOUS
 62
     7
 10
7.4615108477
 20
115.3061447724
 30
0.0
 11
1.4615108477
 21
115.3061447724
 31
0.0
  0
LINE
  5
1AE
  8
0
  6
CONTINUOUS
 62
     7
 10
1.4615108477
 20
117.1061447724
 30
0.0
 11
7.4615108477
 21
117.1061447724
 31
0.0
  0
LINE
  5
1AF
  8
0
  6
CONTINUOUS
 62
     7
 10
7.4615108477
 20
117.1061447724
 30
0.0
 11
7.4615108477
 21
118.9061447724
 31
0.0
  0
LINE
  5
1B0
  8
0
  6
CONTINUOUS
 62
     7
 10
7.4615108477
 20
118.9061447724
 30
0.0
 11
1.4615108477
 21
118.9061447724
 31
0.0
  0
LINE
  5
1B1
  8
0
  6
CONTINUOUS
 62
     7
 10
47.4615108477
 20
118.9061447724
 30
0.0
 11
41.4615108477
 21
118.9061447724
 31
0.0
  0
LINE
  5
1B2
  8
0
  6
CONTINUOUS
 62
     7
 10
41.4615108477
 20
118.9061447724
 30
0.0
 11
41.4615108477
 21
117.1061447724
 31
0.0
  0
LINE
  5
1B3
  8
0
  6
CONTINUOUS
 62
     7
 10
41.4615108477
 20
117.1061447724
 30
0.0
 11
47.4615108477
 21
117.1061447724
 31
0.0
  0
LINE
  5
1B4
  8
0
  6
CONTINUOUS
 62
     7
 10
1.4615108477
 20
111.7061447724
 30
0.0
 11
47.4615108477
 21
111.7061447724
 31
0.0
  0
LINE
  5
1B5
  8
0
  6
CONTINUOUS
 62
     7
 10
1.4615108477
 20
120.7061447724
 30
0.0
 11
1.4615108477
 21
118.9061447724
 31
0.0
  0
LINE
  5
1B6
  8
0
  6
CONTINUOUS
 62
     7
 10
47.4615108477
 20
120.7061447724
 30
0.0
 11
1.4615108477
 21
120.7061447724
 31
0.0
  0
LINE
  5
1B7
  8
0
  6
CONTINUOUS
 62
     7
 10
47.4615108477
 20
111.7061447724
 30
0.0
 11
47.4615108477
 21
113.5061447724
 31
0.0
  0
LINE
  5
1B8
  8
0
  6
CONTINUOUS
 62
     7
 10
1.4615108477
 20
117.1061447724
 30
0.0
 11
1.4615108477
 21
115.3061447724
 31
0.0
  0
LINE
  5
1B9
  8
0
  6
CONTINUOUS
 62
     7
 10
1.4615108477
 20
113.5061447724
 30
0.0
 11
1.4615108477
 21
111.7061447724
 31
0.0
  0
LINE
  5
1BA
  8
0
  6
CONTINUOUS
 62
     7
 10
47.4615108477
 20
118.9061447724
 30
0.0
 11
47.4615108477
 21
120.7061447724
 31
0.0
  0
LINE
  5
1BB
  8
0
  6
CONTINUOUS
 62
     7
 10
47.4615108477
 20
115.3061447724
 30
0.0
 11
47.4615108477
 21
117.1061447724
 31
0.0
  0
LINE
  5
1BC
  8
0
  6
CONTINUOUS
 62
     7
 10
165.4592924764
 20
122.8830818655
 30
0.0
 11
165.4592924764
 21
124.6830818655
 31
0.0
  0
LINE
  5
1BD
  8
0
  6
CONTINUOUS
 62
     7
 10
168.4592924764
 20
122.8830818655
 30
0.0
 11
165.4592924764
 21
122.8830818655
 31
0.0
  0
LINE
  5
1BE
  8
0
  6
CONTINUOUS
 62
     7
 10
168.4592924764
 20
124.6830818655
 30
0.0
 11
168.4592924764
 21
122.8830818655
 31
0.0
  0
LINE
  5
1BF
  8
0
  6
CONTINUOUS
 62
     7
 10
165.4592924764
 20
124.6830818655
 30
0.0
 11
168.4592924764
 21
124.6830818655
 31
0.0
  0
LINE
  5
1C0
  8
0
  6
CONTINUOUS
 62
     7
 10
165.4592924764
 20
119.2830818655
 30
0.0
 11
165.4592924764
 21
121.0830818655
 31
0.0
  0
LINE
  5
1C1
  8
0
  6
CONTINUOUS
 62
     7
 10
168.4592924764
 20
119.2830818655
 30
0.0
 11
165.4592924764
 21
119.2830818655
 31
0.0
  0
LINE
  5
1C2
  8
0
  6
CONTINUOUS
 62
     7
 10
168.4592924764
 20
121.0830818655
 30
0.0
 11
168.4592924764
 21
119.2830818655
 31
0.0
  0
LINE
  5
1C3
  8
0
  6
CONTINUOUS
 62
     7
 10
165.4592924764
 20
121.0830818655
 30
0.0
 11
168.4592924764
 21
121.0830818655
 31
0.0
  0
LINE
  5
1C4
  8
0
  6
CONTINUOUS
 62
     7
 10
186.4592924764
 20
114.4830818655
 30
0.0
 11
186.4592924764
 21
111.4830818655
 31
0.0
  0
LINE
  5
1C5
  8
0
  6
CONTINUOUS
 62
     7
 10
180.4592924764
 20
114.4830818655
 30
0.0
 11
186.4592924764
 21
114.4830818655
 31
0.0
  0
LINE
  5
1C6
  8
0
  6
CONTINUOUS
 62
     7
 10
180.4592924764
 20
111.4830818655
 30
0.0
 11
180.4592924764
 21
114.4830818655
 31
0.0
  0
LINE
  5
1C7
  8
0
  6
CONTINUOUS
 62
     7
 10
174.4592924764
 20
111.4830818655
 30
0.0
 11
180.4592924764
 21
111.4830818655
 31
0.0
  0
LINE
  5
1C8
  8
0
  6
CONTINUOUS
 62
     7
 10
174.4592924764
 20
114.4830818655
 30
0.0
 11
174.4592924764
 21
111.4830818655
 31
0.0
  0
LINE
  5
1C9
  8
0
  6
CONTINUOUS
 62
     7
 10
169.4592924764
 20
114.4830818655
 30
0.0
 11
174.4592924764
 21
114.4830818655
 31
0.0
  0
LINE
  5
1CA
  8
0
  6
CONTINUOUS
 62
     7
 10
169.4592924764
 20
111.4830818655
 30
0.0
 11
169.4592924764
 21
114.4830818655
 31
0.0
  0
LINE
  5
1CB
  8
0
  6
CONTINUOUS
 62
     7
 10
164.4592924764
 20
114.4830818655
 30
0.0
 11
164.4592924764
 21
111.4830818655
 31
0.0
  0
LINE
  5
1CC
  8
0
  6
CONTINUOUS
 62
     7
 10
159.4592924764
 20
114.4830818655
 30
0.0
 11
164.4592924764
 21
114.4830818655
 31
0.0
  0
LINE
  5
1CD
  8
0
  6
CONTINUOUS
 62
     7
 10
159.4592924764
 20
111.4830818655
 30
0.0
 11
159.4592924764
 21
114.4830818655
 31
0.0
  0
LINE
  5
1CE
  8
0
  6
CONTINUOUS
 62
     7
 10
153.4592924764
 20
114.4830818655
 30
0.0
 11
153.4592924764
 21
111.4830818655
 31
0.0
  0
LINE
  5
1CF
  8
0
  6
CONTINUOUS
 62
     7
 10
147.4592924764
 20
114.4830818655
 30
0.0
 11
153.4592924764
 21
114.4830818655
 31
0.0
  0
LINE
  5
1D0
  8
0
  6
CONTINUOUS
 62
     7
 10
147.4592924764
 20
111.4830818655
 30
0.0
 11
147.4592924764
 21
114.4830818655
 31
0.0
  0
LINE
  5
1D1
  8
0
  6
CONTINUOUS
 62
     7
 10
141.4592924764
 20
111.4830818655
 30
0.0
 11
147.4592924764
 21
111.4830818655
 31
0.0
  0
LINE
  5
1D2
  8
0
  6
CONTINUOUS
 62
     7
 10
141.4592924764
 20
114.4830818655
 30
0.0
 11
141.4592924764
 21
111.4830818655
 31
0.0
  0
LINE
  5
1D3
  8
0
  6
CONTINUOUS
 62
     7
 10
138.4592924764
 20
117.4830818655
 30
0.0
 11
138.4592924764
 21
114.4830818655
 31
0.0
  0
LINE
  5
1D4
  8
0
  6
CONTINUOUS
 62
     7
 10
141.4592924764
 20
117.4830818655
 30
0.0
 11
138.4592924764
 21
117.4830818655
 31
0.0
  0
LINE
  5
1D5
  8
0
  6
CONTINUOUS
 62
     7
 10
141.4592924764
 20
119.2830818655
 30
0.0
 11
141.4592924764
 21
117.4830818655
 31
0.0
  0
LINE
  5
1D6
  8
0
  6
CONTINUOUS
 62
     7
 10
135.4592924764
 20
119.2830818655
 30
0.0
 11
141.4592924764
 21
119.2830818655
 31
0.0
  0
LINE
  5
1D7
  8
0
  6
CONTINUOUS
 62
     7
 10
141.4592924764
 20
121.0830818655
 30
0.0
 11
135.4592924764
 21
121.0830818655
 31
0.0
  0
LINE
  5
1D8
  8
0
  6
CONTINUOUS
 62
     7
 10
141.4592924764
 20
122.8830818655
 30
0.0
 11
141.4592924764
 21
121.0830818655
 31
0.0
  0
LINE
  5
1D9
  8
0
  6
CONTINUOUS
 62
     7
 10
135.4592924764
 20
122.8830818655
 30
0.0
 11
141.4592924764
 21
122.8830818655
 31
0.0
  0
LINE
  5
1DA
  8
0
  6
CONTINUOUS
 62
     7
 10
135.4592924764
 20
124.6830818655
 30
0.0
 11
135.4592924764
 21
122.8830818655
 31
0.0
  0
LINE
  5
1DB
  8
0
  6
CONTINUOUS
 62
     7
 10
141.4592924764
 20
124.6830818655
 30
0.0
 11
135.4592924764
 21
124.6830818655
 31
0.0
  0
LINE
  5
1DC
  8
0
  6
CONTINUOUS
 62
     7
 10
141.4592924764
 20
126.4830818655
 30
0.0
 11
141.4592924764
 21
124.6830818655
 31
0.0
  0
LINE
  5
1DD
  8
0
  6
CONTINUOUS
 62
     7
 10
138.4592924764
 20
126.4830818655
 30
0.0
 11
141.4592924764
 21
126.4830818655
 31
0.0
  0
LINE
  5
1DE
  8
0
  6
CONTINUOUS
 62
     7
 10
138.4592924764
 20
129.4830818655
 30
0.0
 11
138.4592924764
 21
126.4830818655
 31
0.0
  0
LINE
  5
1DF
  8
0
  6
CONTINUOUS
 62
     7
 10
141.4592924764
 20
132.4830818655
 30
0.0
 11
141.4592924764
 21
129.4830818655
 31
0.0
  0
LINE
  5
1E0
  8
0
  6
CONTINUOUS
 62
     7
 10
147.4592924764
 20
129.4830818655
 30
0.0
 11
147.4592924764
 21
132.4830818655
 31
0.0
  0
LINE
  5
1E1
  8
0
  6
CONTINUOUS
 62
     7
 10
153.4592924764
 20
129.4830818655
 30
0.0
 11
147.4592924764
 21
129.4830818655
 31
0.0
  0
LINE
  5
1E2
  8
0
  6
CONTINUOUS
 62
     7
 10
153.4592924764
 20
132.4830818655
 30
0.0
 11
153.4592924764
 21
129.4830818655
 31
0.0
  0
LINE
  5
1E3
  8
0
  6
CONTINUOUS
 62
     7
 10
159.4592924764
 20
129.4830818655
 30
0.0
 11
159.4592924764
 21
132.4830818655
 31
0.0
  0
LINE
  5
1E4
  8
0
  6
CONTINUOUS
 62
     7
 10
164.4592924764
 20
129.4830818655
 30
0.0
 11
159.4592924764
 21
129.4830818655
 31
0.0
  0
LINE
  5
1E5
  8
0
  6
CONTINUOUS
 62
     7
 10
164.4592924764
 20
132.4830818655
 30
0.0
 11
164.4592924764
 21
129.4830818655
 31
0.0
  0
LINE
  5
1E6
  8
0
  6
CONTINUOUS
 62
     7
 10
169.4592924764
 20
132.4830818655
 30
0.0
 11
164.4592924764
 21
132.4830818655
 31
0.0
  0
LINE
  5
1E7
  8
0
  6
CONTINUOUS
 62
     7
 10
169.4592924764
 20
129.4830818655
 30
0.0
 11
169.4592924764
 21
132.4830818655
 31
0.0
  0
LINE
  5
1E8
  8
0
  6
CONTINUOUS
 62
     7
 10
174.4592924764
 20
129.4830818655
 30
0.0
 11
169.4592924764
 21
129.4830818655
 31
0.0
  0
LINE
  5
1E9
  8
0
  6
CONTINUOUS
 62
     7
 10
174.4592924764
 20
132.4830818655
 30
0.0
 11
174.4592924764
 21
129.4830818655
 31
0.0
  0
LINE
  5
1EA
  8
0
  6
CONTINUOUS
 62
     7
 10
180.4592924764
 20
129.4830818655
 30
0.0
 11
180.4592924764
 21
132.4830818655
 31
0.0
  0
LINE
  5
1EB
  8
0
  6
CONTINUOUS
 62
     7
 10
186.4592924764
 20
129.4830818655
 30
0.0
 11
180.4592924764
 21
129.4830818655
 31
0.0
  0
LINE
  5
1EC
  8
0
  6
CONTINUOUS
 62
     7
 10
186.4592924764
 20
132.4830818655
 30
0.0
 11
186.4592924764
 21
129.4830818655
 31
0.0
  0
LINE
  5
1ED
  8
0
  6
CONTINUOUS
 62
     7
 10
192.4592924764
 20
129.4830818655
 30
0.0
 11
192.4592924764
 21
132.4830818655
 31
0.0
  0
LINE
  5
1EE
  8
0
  6
CONTINUOUS
 62
     7
 10
195.4592924764
 20
126.4830818655
 30
0.0
 11
195.4592924764
 21
129.4830818655
 31
0.0
  0
LINE
  5
1EF
  8
0
  6
CONTINUOUS
 62
     7
 10
192.4592924764
 20
126.4830818655
 30
0.0
 11
195.4592924764
 21
126.4830818655
 31
0.0
  0
LINE
  5
1F0
  8
0
  6
CONTINUOUS
 62
     7
 10
192.4592924764
 20
124.6830818655
 30
0.0
 11
192.4592924764
 21
126.4830818655
 31
0.0
  0
LINE
  5
1F1
  8
0
  6
CONTINUOUS
 62
     7
 10
198.4592924764
 20
124.6830818655
 30
0.0
 11
192.4592924764
 21
124.6830818655
 31
0.0
  0
LINE
  5
1F2
  8
0
  6
CONTINUOUS
 62
     7
 10
192.4592924764
 20
122.8830818655
 30
0.0
 11
198.4592924764
 21
122.8830818655
 31
0.0
  0
LINE
  5
1F3
  8
0
  6
CONTINUOUS
 62
     7
 10
192.4592924764
 20
121.0830818655
 30
0.0
 11
192.4592924764
 21
122.8830818655
 31
0.0
  0
LINE
  5
1F4
  8
0
  6
CONTINUOUS
 62
     7
 10
198.4592924764
 20
121.0830818655
 30
0.0
 11
192.4592924764
 21
121.0830818655
 31
0.0
  0
LINE
  5
1F5
  8
0
  6
CONTINUOUS
 62
     7
 10
192.4592924764
 20
119.2830818655
 30
0.0
 11
198.4592924764
 21
119.2830818655
 31
0.0
  0
LINE
  5
1F6
  8
0
  6
CONTINUOUS
 62
     7
 10
192.4592924764
 20
117.4830818655
 30
0.0
 11
192.4592924764
 21
119.2830818655
 31
0.0
  0
LINE
  5
1F7
  8
0
  6
CONTINUOUS
 62
     7
 10
195.4592924764
 20
117.4830818655
 30
0.0
 11
192.4592924764
 21
117.4830818655
 31
0.0
  0
LINE
  5
1F8
  8
0
  6
CONTINUOUS
 62
     7
 10
195.4592924764
 20
114.4830818655
 30
0.0
 11
195.4592924764
 21
117.4830818655
 31
0.0
  0
LINE
  5
1F9
  8
0
  6
CONTINUOUS
 62
     7
 10
192.4592924764
 20
111.4830818655
 30
0.0
 11
192.4592924764
 21
114.4830818655
 31
0.0
  0
LINE
  5
1FA
  8
0
  6
CONTINUOUS
 62
     7
 10
186.4592924764
 20
111.4830818655
 30
0.0
 11
192.4592924764
 21
111.4830818655
 31
0.0
  0
LINE
  5
1FB
  8
0
  6
CONTINUOUS
 62
     7
 10
159.4592924764
 20
132.4830818655
 30
0.0
 11
153.4592924764
 21
132.4830818655
 31
0.0
  0
LINE
  5
1FC
  8
0
  6
CONTINUOUS
 62
     7
 10
198.4592924764
 20
122.8830818655
 30
0.0
 11
198.4592924764
 21
124.6830818655
 31
0.0
  0
LINE
  5
1FD
  8
0
  6
CONTINUOUS
 62
     7
 10
198.4592924764
 20
119.2830818655
 30
0.0
 11
198.4592924764
 21
121.0830818655
 31
0.0
  0
LINE
  5
1FE
  8
0
  6
CONTINUOUS
 62
     7
 10
135.4592924764
 20
121.0830818655
 30
0.0
 11
135.4592924764
 21
119.2830818655
 31
0.0
  0
LINE
  5
1FF
  8
0
  6
CONTINUOUS
 62
     7
 10
147.4592924764
 20
132.4830818655
 30
0.0
 11
141.4592924764
 21
132.4830818655
 31
0.0
  0
LINE
  5
200
  8
0
  6
CONTINUOUS
 62
     7
 10
192.4592924764
 20
132.4830818655
 30
0.0
 11
186.4592924764
 21
132.4830818655
 31
0.0
  0
LINE
  5
201
  8
0
  6
CONTINUOUS
 62
     7
 10
180.4592924764
 20
132.4830818655
 30
0.0
 11
174.4592924764
 21
132.4830818655
 31
0.0
  0
LINE
  5
202
  8
0
  6
CONTINUOUS
 62
     7
 10
164.4592924764
 20
111.4830818655
 30
0.0
 11
169.4592924764
 21
111.4830818655
 31
0.0
  0
LINE
  5
203
  8
0
  6
CONTINUOUS
 62
     7
 10
153.4592924764
 20
111.4830818655
 30
0.0
 11
159.4592924764
 21
111.4830818655
 31
0.0
  0
LINE
  5
204
  8
0
  6
CONTINUOUS
 62
     7
 10
141.4592924764
 20
129.4830818655
 30
0.0
 11
138.4592924764
 21
129.4830818655
 31
0.0
  0
LINE
  5
205
  8
0
  6
CONTINUOUS
 62
     7
 10
195.4592924764
 20
129.4830818655
 30
0.0
 11
192.4592924764
 21
129.4830818655
 31
0.0
  0
LINE
  5
206
  8
0
  6
CONTINUOUS
 62
     7
 10
138.4592924764
 20
114.4830818655
 30
0.0
 11
141.4592924764
 21
114.4830818655
 31
0.0
  0
LINE
  5
207
  8
0
  6
CONTINUOUS
 62
     7
 10
192.4592924764
 20
114.4830818655
 30
0.0
 11
195.4592924764
 21
114.4830818655
 31
0.0
  0
ARC
  5
208
  8
0
  6
CONTINUOUS
 62
     7
 10
13.5887418054
 20
87.2072236358
 30
0.0
 40
2.999999999999998
 50
90.0
 51
180.0
  0
LINE
  5
209
  8
0
  6
CONTINUOUS
 62
     7
 10
10.5887418054
 20
87.2072236358
 30
0.0
 11
10.5887418054
 21
83.2072236358
 31
0.0
  0
ARC
  5
20A
  8
0
  6
CONTINUOUS
 62
     7
 10
13.5887418054
 20
83.2072236358
 30
0.0
 40
3.0
 50
180.0
 51
270.0
  0
LINE
  5
20B
  8
0
  6
CONTINUOUS
 62
     7
 10
13.5887418054
 20
80.2072236358
 30
0.0
 11
47.5887418054
 21
80.2072236358
 31
0.0
  0
ARC
  5
20C
  8
0
  6
CONTINUOUS
 62
     7
 10
47.5887418054
 20
83.2072236358
 30
0.0
 40
3.000000000000007
 50
270.0
 51
0.0
  0
LINE
  5
20D
  8
0
  6
CONTINUOUS
 62
     7
 10
50.5887418054
 20
83.2072236358
 30
0.0
 11
50.5887418054
 21
87.2072236358
 31
0.0
  0
ARC
  5
20E
  8
0
  6
CONTINUOUS
 62
     7
 10
47.5887418054
 20
87.2072236358
 30
0.0
 40
3.000000000000007
 50
0.0
 51
90.0
  0
LINE
  5
20F
  8
0
  6
CONTINUOUS
 62
     7
 10
47.5887418054
 20
90.2072236358
 30
0.0
 11
13.5887418054
 21
90.2072236358
 31
0.0
  0
LINE
  5
210
  8
0
  6
CONTINUOUS
 62
     7
 10
2.0887418054
 20
63.7072236358
 30
0.0
 11
59.0887418054
 21
63.7072236358
 31
0.0
  0
LINE
  5
211
  8
0
  6
CONTINUOUS
 62
     7
 10
2.0887418054
 20
106.7072236358
 30
0.0
 11
2.0887418054
 21
63.7072236358
 31
0.0
  0
LINE
  5
212
  8
0
  6
CONTINUOUS
 62
     7
 10
59.0887418054
 20
106.7072236358
 30
0.0
 11
2.0887418054
 21
106.7072236358
 31
0.0
  0
LINE
  5
213
  8
0
  6
CONTINUOUS
 62
     7
 10
59.0887418054
 20
63.7072236358
 30
0.0
 11
59.0887418054
 21
106.7072236358
 31
0.0
  0
ARC
  5
214
  8
0
  6
CONTINUOUS
 62
     7
 10
73.1583771989
 20
87.0671835823
 30
0.0
 40
3.000000000000014
 50
90.0
 51
180.0
  0
LINE
  5
215
  8
0
  6
CONTINUOUS
 62
     7
 10
70.1583771989
 20
87.0671835823
 30
0.0
 11
70.1583771989
 21
83.0671835823
 31
0.0
  0
ARC
  5
216
  8
0
  6
CONTINUOUS
 62
     7
 10
73.1583771989
 20
83.0671835823
 30
0.0
 40
3.000000000000014
 50
180.0
 51
270.0
  0
LINE
  5
217
  8
0
  6
CONTINUOUS
 62
     7
 10
73.1583771989
 20
80.0671835823
 30
0.0
 11
107.1583771989
 21
80.0671835823
 31
0.0
  0
ARC
  5
218
  8
0
  6
CONTINUOUS
 62
     7
 10
107.1583771989
 20
83.0671835823
 30
0.0
 40
3.0
 50
270.0
 51
0.0
  0
LINE
  5
219
  8
0
  6
CONTINUOUS
 62
     7
 10
110.1583771989
 20
83.0671835823
 30
0.0
 11
110.1583771989
 21
87.0671835823
 31
0.0
  0
ARC
  5
21A
  8
0
  6
CONTINUOUS
 62
     7
 10
107.1583771989
 20
87.0671835823
 30
0.0
 40
3.0
 50
0.0
 51
90.0
  0
LINE
  5
21B
  8
0
  6
CONTINUOUS
 62
     7
 10
107.1583771989
 20
90.0671835823
 30
0.0
 11
73.1583771989
 21
90.0671835823
 31
0.0
  0
LINE
  5
21C
  8
0
  6
CONTINUOUS
 62
     7
 10
61.6583771989
 20
63.5671835823
 30
0.0
 11
118.6583771989
 21
63.5671835823
 31
0.0
  0
LINE
  5
21D
  8
0
  6
CONTINUOUS
 62
     7
 10
61.6583771989
 20
106.5671835823
 30
0.0
 11
61.6583771989
 21
63.5671835823
 31
0.0
  0
LINE
  5
21E
  8
0
  6
CONTINUOUS
 62
     7
 10
118.6583771989
 20
106.5671835823
 30
0.0
 11
61.6583771989
 21
106.5671835823
 31
0.0
  0
LINE
  5
21F
  8
0
  6
CONTINUOUS
 62
     7
 10
118.6583771989
 20
63.5671835823
 30
0.0
 11
118.6583771989
 21
106.5671835823
 31
0.0
  0
LINE
  5
220
  8
0
  6
CONTINUOUS
 62
     7
 10
194.1089050336
 20
72.6982493817
 30
0.0
 11
197.1089050336
 21
72.6982493817
 31
0.0
  0
LINE
  5
221
  8
0
  6
CONTINUOUS
 62
     7
 10
197.1089050336
 20
67.6982493817
 30
0.0
 11
197.1089050336
 21
72.6982493817
 31
0.0
  0
LINE
  5
222
  8
0
  6
CONTINUOUS
 62
     7
 10
194.1089050336
 20
67.6982493817
 30
0.0
 11
197.1089050336
 21
67.6982493817
 31
0.0
  0
LINE
  5
223
  8
0
  6
CONTINUOUS
 62
     7
 10
194.1089050336
 20
61.6982493817
 30
0.0
 11
194.1089050336
 21
67.6982493817
 31
0.0
  0
LINE
  5
224
  8
0
  6
CONTINUOUS
 62
     7
 10
197.1089050336
 20
61.6982493817
 30
0.0
 11
194.1089050336
 21
61.6982493817
 31
0.0
  0
LINE
  5
225
  8
0
  6
CONTINUOUS
 62
     7
 10
197.1089050336
 20
55.6982493817
 30
0.0
 11
197.1089050336
 21
61.6982493817
 31
0.0
  0
LINE
  5
226
  8
0
  6
CONTINUOUS
 62
     7
 10
194.1089050336
 20
55.6982493817
 30
0.0
 11
197.1089050336
 21
55.6982493817
 31
0.0
  0
LINE
  5
227
  8
0
  6
CONTINUOUS
 62
     7
 10
194.1089050336
 20
49.6982493817
 30
0.0
 11
194.1089050336
 21
55.6982493817
 31
0.0
  0
LINE
  5
228
  8
0
  6
CONTINUOUS
 62
     7
 10
197.1089050336
 20
49.6982493817
 30
0.0
 11
194.1089050336
 21
49.6982493817
 31
0.0
  0
LINE
  5
229
  8
0
  6
CONTINUOUS
 62
     7
 10
197.1089050336
 20
43.6982493817
 30
0.0
 11
197.1089050336
 21
49.6982493817
 31
0.0
  0
LINE
  5
22A
  8
0
  6
CONTINUOUS
 62
     7
 10
191.1089050336
 20
43.6982493817
 30
0.0
 11
197.1089050336
 21
43.6982493817
 31
0.0
  0
LINE
  5
22B
  8
0
  6
CONTINUOUS
 62
     7
 10
191.1089050336
 20
46.6982493817
 30
0.0
 11
191.1089050336
 21
43.6982493817
 31
0.0
  0
LINE
  5
22C
  8
0
  6
CONTINUOUS
 62
     7
 10
185.1089050336
 20
46.6982493817
 30
0.0
 11
191.1089050336
 21
46.6982493817
 31
0.0
  0
LINE
  5
22D
  8
0
  6
CONTINUOUS
 62
     7
 10
185.1089050336
 20
43.6982493817
 30
0.0
 11
185.1089050336
 21
46.6982493817
 31
0.0
  0
LINE
  5
22E
  8
0
  6
CONTINUOUS
 62
     7
 10
179.1089050336
 20
43.6982493817
 30
0.0
 11
185.1089050336
 21
43.6982493817
 31
0.0
  0
LINE
  5
22F
  8
0
  6
CONTINUOUS
 62
     7
 10
179.1089050336
 20
46.6982493817
 30
0.0
 11
179.1089050336
 21
43.6982493817
 31
0.0
  0
LINE
  5
230
  8
0
  6
CONTINUOUS
 62
     7
 10
173.1089050336
 20
46.6982493817
 30
0.0
 11
179.1089050336
 21
46.6982493817
 31
0.0
  0
LINE
  5
231
  8
0
  6
CONTINUOUS
 62
     7
 10
173.1089050336
 20
43.6982493817
 30
0.0
 11
173.1089050336
 21
46.6982493817
 31
0.0
  0
LINE
  5
232
  8
0
  6
CONTINUOUS
 62
     7
 10
167.1089050336
 20
43.6982493817
 30
0.0
 11
173.1089050336
 21
43.6982493817
 31
0.0
  0
LINE
  5
233
  8
0
  6
CONTINUOUS
 62
     7
 10
167.1089050336
 20
46.6982493817
 30
0.0
 11
167.1089050336
 21
43.6982493817
 31
0.0
  0
LINE
  5
234
  8
0
  6
CONTINUOUS
 62
     7
 10
161.1089050336
 20
46.6982493817
 30
0.0
 11
167.1089050336
 21
46.6982493817
 31
0.0
  0
LINE
  5
235
  8
0
  6
CONTINUOUS
 62
     7
 10
161.1089050336
 20
43.6982493817
 30
0.0
 11
161.1089050336
 21
46.6982493817
 31
0.0
  0
LINE
  5
236
  8
0
  6
CONTINUOUS
 62
     7
 10
154.1089050336
 20
43.6982493817
 30
0.0
 11
161.1089050336
 21
43.6982493817
 31
0.0
  0
LINE
  5
237
  8
0
  6
CONTINUOUS
 62
     7
 10
154.1089050336
 20
46.6982493817
 30
0.0
 11
154.1089050336
 21
43.6982493817
 31
0.0
  0
ARC
  5
238
  8
0
  6
CONTINUOUS
 62
     7
 10
157.1089050336
 20
46.6982493817
 30
0.0
 40
3.000000000000028
 50
90.0
 51
180.0
  0
LINE
  5
239
  8
0
  6
CONTINUOUS
 62
     7
 10
157.1089050336
 20
49.6982493817
 30
0.0
 11
188.1089050336
 21
49.6982493817
 31
0.0
  0
ARC
  5
23A
  8
0
  6
CONTINUOUS
 62
     7
 10
188.1089050336
 20
52.6982493817
 30
0.0
 40
3.0
 50
270.0
 51
0.0
  0
LINE
  5
23B
  8
0
  6
CONTINUOUS
 62
     7
 10
191.1089050336
 20
52.6982493817
 30
0.0
 11
191.1089050336
 21
97.6982493817
 31
0.0
  0
ARC
  5
23C
  8
0
  6
CONTINUOUS
 62
     7
 10
188.1089050336
 20
97.6982493817
 30
0.0
 40
3.0
 50
0.0
 51
90.0
  0
LINE
  5
23D
  8
0
  6
CONTINUOUS
 62
     7
 10
188.1089050336
 20
100.6982493817
 30
0.0
 11
157.1089050336
 21
100.6982493817
 31
0.0
  0
ARC
  5
23E
  8
0
  6
CONTINUOUS
 62
     7
 10
157.1089050336
 20
103.6982493817
 30
0.0
 40
3.000000000000028
 50
180.0
 51
270.0
  0
LINE
  5
23F
  8
0
  6
CONTINUOUS
 62
     7
 10
154.1089050336
 20
106.6982493817
 30
0.0
 11
154.1089050336
 21
103.6982493817
 31
0.0
  0
LINE
  5
240
  8
0
  6
CONTINUOUS
 62
     7
 10
161.1089050336
 20
106.6982493817
 30
0.0
 11
154.1089050336
 21
106.6982493817
 31
0.0
  0
LINE
  5
241
  8
0
  6
CONTINUOUS
 62
     7
 10
161.1089050336
 20
106.6982493817
 30
0.0
 11
161.1089050336
 21
103.6982493817
 31
0.0
  0
LINE
  5
242
  8
0
  6
CONTINUOUS
 62
     7
 10
161.1089050336
 20
103.6982493817
 30
0.0
 11
167.1089050336
 21
103.6982493817
 31
0.0
  0
LINE
  5
243
  8
0
  6
CONTINUOUS
 62
     7
 10
167.1089050336
 20
103.6982493817
 30
0.0
 11
167.1089050336
 21
106.6982493817
 31
0.0
  0
LINE
  5
244
  8
0
  6
CONTINUOUS
 62
     7
 10
173.1089050336
 20
106.6982493817
 30
0.0
 11
167.1089050336
 21
106.6982493817
 31
0.0
  0
LINE
  5
245
  8
0
  6
CONTINUOUS
 62
     7
 10
173.1089050336
 20
106.6982493817
 30
0.0
 11
173.1089050336
 21
103.6982493817
 31
0.0
  0
LINE
  5
246
  8
0
  6
CONTINUOUS
 62
     7
 10
173.1089050336
 20
103.6982493817
 30
0.0
 11
179.1089050336
 21
103.6982493817
 31
0.0
  0
LINE
  5
247
  8
0
  6
CONTINUOUS
 62
     7
 10
179.1089050336
 20
103.6982493817
 30
0.0
 11
179.1089050336
 21
106.6982493817
 31
0.0
  0
LINE
  5
248
  8
0
  6
CONTINUOUS
 62
     7
 10
185.1089050336
 20
106.6982493817
 30
0.0
 11
179.1089050336
 21
106.6982493817
 31
0.0
  0
LINE
  5
249
  8
0
  6
CONTINUOUS
 62
     7
 10
185.1089050336
 20
106.6982493817
 30
0.0
 11
185.1089050336
 21
103.6982493817
 31
0.0
  0
LINE
  5
24A
  8
0
  6
CONTINUOUS
 62
     7
 10
185.1089050336
 20
103.6982493817
 30
0.0
 11
191.1089050336
 21
103.6982493817
 31
0.0
  0
LINE
  5
24B
  8
0
  6
CONTINUOUS
 62
     7
 10
191.1089050336
 20
103.6982493817
 30
0.0
 11
191.1089050336
 21
106.6982493817
 31
0.0
  0
LINE
  5
24C
  8
0
  6
CONTINUOUS
 62
     7
 10
197.1089050336
 20
106.6982493817
 30
0.0
 11
191.1089050336
 21
106.6982493817
 31
0.0
  0
LINE
  5
24D
  8
0
  6
CONTINUOUS
 62
     7
 10
197.1089050336
 20
100.6982493817
 30
0.0
 11
197.1089050336
 21
106.6982493817
 31
0.0
  0
LINE
  5
24E
  8
0
  6
CONTINUOUS
 62
     7
 10
197.1089050336
 20
100.6982493817
 30
0.0
 11
194.1089050336
 21
100.6982493817
 31
0.0
  0
LINE
  5
24F
  8
0
  6
CONTINUOUS
 62
     7
 10
194.1089050336
 20
100.6982493817
 30
0.0
 11
194.1089050336
 21
94.6982493817
 31
0.0
  0
LINE
  5
250
  8
0
  6
CONTINUOUS
 62
     7
 10
194.1089050336
 20
94.6982493817
 30
0.0
 11
197.1089050336
 21
94.6982493817
 31
0.0
  0
LINE
  5
251
  8
0
  6
CONTINUOUS
 62
     7
 10
197.1089050336
 20
88.6982493817
 30
0.0
 11
197.1089050336
 21
94.6982493817
 31
0.0
  0
LINE
  5
252
  8
0
  6
CONTINUOUS
 62
     7
 10
197.1089050336
 20
88.6982493817
 30
0.0
 11
194.1089050336
 21
88.6982493817
 31
0.0
  0
LINE
  5
253
  8
0
  6
CONTINUOUS
 62
     7
 10
194.1089050336
 20
88.6982493817
 30
0.0
 11
194.1089050336
 21
82.6982493817
 31
0.0
  0
LINE
  5
254
  8
0
  6
CONTINUOUS
 62
     7
 10
194.1089050336
 20
82.6982493817
 30
0.0
 11
197.1089050336
 21
82.6982493817
 31
0.0
  0
LINE
  5
255
  8
0
  6
CONTINUOUS
 62
     7
 10
197.1089050336
 20
77.6982493817
 30
0.0
 11
194.1089050336
 21
77.6982493817
 31
0.0
  0
LINE
  5
256
  8
0
  6
CONTINUOUS
 62
     7
 10
194.1089050336
 20
77.6982493817
 30
0.0
 11
194.1089050336
 21
72.6982493817
 31
0.0
  0
LINE
  5
257
  8
0
  6
CONTINUOUS
 62
     7
 10
197.1089050336
 20
77.6982493817
 30
0.0
 11
197.1089050336
 21
82.6982493817
 31
0.0
  0
LINE
  5
258
  8
0
  6
CONTINUOUS
 62
     7
 10
152.8896252079
 20
56.9389550939
 30
0.0
 11
152.8896252079
 21
53.9389550939
 31
0.0
  0
LINE
  5
259
  8
0
  6
CONTINUOUS
 62
     7
 10
147.8896252079
 20
53.9389550939
 30
0.0
 11
152.8896252079
 21
53.9389550939
 31
0.0
  0
LINE
  5
25A
  8
0
  6
CONTINUOUS
 62
     7
 10
147.8896252079
 20
56.9389550939
 30
0.0
 11
147.8896252079
 21
53.9389550939
 31
0.0
  0
LINE
  5
25B
  8
0
  6
CONTINUOUS
 62
     7
 10
141.8896252079
 20
56.9389550939
 30
0.0
 11
147.8896252079
 21
56.9389550939
 31
0.0
  0
LINE
  5
25C
  8
0
  6
CONTINUOUS
 62
     7
 10
141.8896252079
 20
53.9389550939
 30
0.0
 11
141.8896252079
 21
56.9389550939
 31
0.0
  0
LINE
  5
25D
  8
0
  6
CONTINUOUS
 62
     7
 10
135.8896252079
 20
53.9389550939
 30
0.0
 11
141.8896252079
 21
53.9389550939
 31
0.0
  0
LINE
  5
25E
  8
0
  6
CONTINUOUS
 62
     7
 10
135.8896252079
 20
56.9389550939
 30
0.0
 11
135.8896252079
 21
53.9389550939
 31
0.0
  0
LINE
  5
25F
  8
0
  6
CONTINUOUS
 62
     7
 10
129.8896252079
 20
56.9389550939
 30
0.0
 11
135.8896252079
 21
56.9389550939
 31
0.0
  0
LINE
  5
260
  8
0
  6
CONTINUOUS
 62
     7
 10
129.8896252079
 20
53.9389550939
 30
0.0
 11
129.8896252079
 21
56.9389550939
 31
0.0
  0
LINE
  5
261
  8
0
  6
CONTINUOUS
 62
     7
 10
123.8896252079
 20
53.9389550939
 30
0.0
 11
129.8896252079
 21
53.9389550939
 31
0.0
  0
LINE
  5
262
  8
0
  6
CONTINUOUS
 62
     7
 10
123.8896252079
 20
59.9389550939
 30
0.0
 11
123.8896252079
 21
53.9389550939
 31
0.0
  0
LINE
  5
263
  8
0
  6
CONTINUOUS
 62
     7
 10
126.8896252079
 20
59.9389550939
 30
0.0
 11
123.8896252079
 21
59.9389550939
 31
0.0
  0
LINE
  5
264
  8
0
  6
CONTINUOUS
 62
     7
 10
126.8896252079
 20
65.9389550939
 30
0.0
 11
126.8896252079
 21
59.9389550939
 31
0.0
  0
LINE
  5
265
  8
0
  6
CONTINUOUS
 62
     7
 10
123.8896252079
 20
65.9389550939
 30
0.0
 11
126.8896252079
 21
65.9389550939
 31
0.0
  0
LINE
  5
266
  8
0
  6
CONTINUOUS
 62
     7
 10
123.8896252079
 20
71.9389550939
 30
0.0
 11
123.8896252079
 21
65.9389550939
 31
0.0
  0
LINE
  5
267
  8
0
  6
CONTINUOUS
 62
     7
 10
126.8896252079
 20
71.9389550939
 30
0.0
 11
123.8896252079
 21
71.9389550939
 31
0.0
  0
LINE
  5
268
  8
0
  6
CONTINUOUS
 62
     7
 10
126.8896252079
 20
77.9389550939
 30
0.0
 11
126.8896252079
 21
71.9389550939
 31
0.0
  0
LINE
  5
269
  8
0
  6
CONTINUOUS
 62
     7
 10
123.8896252079
 20
77.9389550939
 30
0.0
 11
126.8896252079
 21
77.9389550939
 31
0.0
  0
LINE
  5
26A
  8
0
  6
CONTINUOUS
 62
     7
 10
123.8896252079
 20
83.9389550939
 30
0.0
 11
123.8896252079
 21
77.9389550939
 31
0.0
  0
LINE
  5
26B
  8
0
  6
CONTINUOUS
 62
     7
 10
126.8896252079
 20
83.9389550939
 30
0.0
 11
123.8896252079
 21
83.9389550939
 31
0.0
  0
LINE
  5
26C
  8
0
  6
CONTINUOUS
 62
     7
 10
126.8896252079
 20
89.9389550939
 30
0.0
 11
126.8896252079
 21
83.9389550939
 31
0.0
  0
LINE
  5
26D
  8
0
  6
CONTINUOUS
 62
     7
 10
123.8896252079
 20
89.9389550939
 30
0.0
 11
126.8896252079
 21
89.9389550939
 31
0.0
  0
LINE
  5
26E
  8
0
  6
CONTINUOUS
 62
     7
 10
123.8896252079
 20
96.9389550939
 30
0.0
 11
123.8896252079
 21
89.9389550939
 31
0.0
  0
LINE
  5
26F
  8
0
  6
CONTINUOUS
 62
     7
 10
126.8896252079
 20
96.9389550939
 30
0.0
 11
123.8896252079
 21
96.9389550939
 31
0.0
  0
ARC
  5
270
  8
0
  6
CONTINUOUS
 62
     7
 10
126.8896252079
 20
93.9389550939
 30
0.0
 40
3.0
 50
0.0
 51
90.0
  0
LINE
  5
271
  8
0
  6
CONTINUOUS
 62
     7
 10
129.8896252079
 20
93.9389550939
 30
0.0
 11
129.8896252079
 21
62.9389550939
 31
0.0
  0
ARC
  5
272
  8
0
  6
CONTINUOUS
 62
     7
 10
132.8896252079
 20
62.9389550939
 30
0.0
 40
3.0
 50
180.0
 51
270.0
  0
LINE
  5
273
  8
0
  6
CONTINUOUS
 62
     7
 10
132.8896252079
 20
59.9389550939
 30
0.0
 11
177.8896252079
 21
59.9389550939
 31
0.0
  0
ARC
  5
274
  8
0
  6
CONTINUOUS
 62
     7
 10
177.8896252079
 20
62.9389550939
 30
0.0
 40
3.0
 50
270.0
 51
0.0
  0
LINE
  5
275
  8
0
  6
CONTINUOUS
 62
     7
 10
180.8896252079
 20
62.9389550939
 30
0.0
 11
180.8896252079
 21
93.9389550939
 31
0.0
  0
ARC
  5
276
  8
0
  6
CONTINUOUS
 62
     7
 10
183.8896252079
 20
93.9389550939
 30
0.0
 40
3.0
 50
90.0
 51
180.0
  0
LINE
  5
277
  8
0
  6
CONTINUOUS
 62
     7
 10
186.8896252079
 20
96.9389550939
 30
0.0
 11
183.8896252079
 21
96.9389550939
 31
0.0
  0
LINE
  5
278
  8
0
  6
CONTINUOUS
 62
     7
 10
186.8896252079
 20
89.9389550939
 30
0.0
 11
186.8896252079
 21
96.9389550939
 31
0.0
  0
LINE
  5
279
  8
0
  6
CONTINUOUS
 62
     7
 10
186.8896252079
 20
89.9389550939
 30
0.0
 11
183.8896252079
 21
89.9389550939
 31
0.0
  0
LINE
  5
27A
  8
0
  6
CONTINUOUS
 62
     7
 10
183.8896252079
 20
89.9389550939
 30
0.0
 11
183.8896252079
 21
83.9389550939
 31
0.0
  0
LINE
  5
27B
  8
0
  6
CONTINUOUS
 62
     7
 10
183.8896252079
 20
83.9389550939
 30
0.0
 11
186.8896252079
 21
83.9389550939
 31
0.0
  0
LINE
  5
27C
  8
0
  6
CONTINUOUS
 62
     7
 10
186.8896252079
 20
77.9389550939
 30
0.0
 11
186.8896252079
 21
83.9389550939
 31
0.0
  0
LINE
  5
27D
  8
0
  6
CONTINUOUS
 62
     7
 10
186.8896252079
 20
77.9389550939
 30
0.0
 11
183.8896252079
 21
77.9389550939
 31
0.0
  0
LINE
  5
27E
  8
0
  6
CONTINUOUS
 62
     7
 10
183.8896252079
 20
77.9389550939
 30
0.0
 11
183.8896252079
 21
71.9389550939
 31
0.0
  0
LINE
  5
27F
  8
0
  6
CONTINUOUS
 62
     7
 10
183.8896252079
 20
71.9389550939
 30
0.0
 11
186.8896252079
 21
71.9389550939
 31
0.0
  0
LINE
  5
280
  8
0
  6
CONTINUOUS
 62
     7
 10
186.8896252079
 20
65.9389550939
 30
0.0
 11
186.8896252079
 21
71.9389550939
 31
0.0
  0
LINE
  5
281
  8
0
  6
CONTINUOUS
 62
     7
 10
186.8896252079
 20
65.9389550939
 30
0.0
 11
183.8896252079
 21
65.9389550939
 31
0.0
  0
LINE
  5
282
  8
0
  6
CONTINUOUS
 62
     7
 10
183.8896252079
 20
65.9389550939
 30
0.0
 11
183.8896252079
 21
59.9389550939
 31
0.0
  0
LINE
  5
283
  8
0
  6
CONTINUOUS
 62
     7
 10
183.8896252079
 20
59.9389550939
 30
0.0
 11
186.8896252079
 21
59.9389550939
 31
0.0
  0
LINE
  5
284
  8
0
  6
CONTINUOUS
 62
     7
 10
186.8896252079
 20
53.9389550939
 30
0.0
 11
186.8896252079
 21
59.9389550939
 31
0.0
  0
LINE
  5
285
  8
0
  6
CONTINUOUS
 62
     7
 10
180.8896252079
 20
53.9389550939
 30
0.0
 11
186.8896252079
 21
53.9389550939
 31
0.0
  0
LINE
  5
286
  8
0
  6
CONTINUOUS
 62
     7
 10
180.8896252079
 20
53.9389550939
 30
0.0
 11
180.8896252079
 21
56.9389550939
 31
0.0
  0
LINE
  5
287
  8
0
  6
CONTINUOUS
 62
     7
 10
180.8896252079
 20
56.9389550939
 30
0.0
 11
174.8896252079
 21
56.9389550939
 31
0.0
  0
LINE
  5
288
  8
0
  6
CONTINUOUS
 62
     7
 10
174.8896252079
 20
56.9389550939
 30
0.0
 11
174.8896252079
 21
53.9389550939
 31
0.0
  0
LINE
  5
289
  8
0
  6
CONTINUOUS
 62
     7
 10
168.8896252079
 20
53.9389550939
 30
0.0
 11
174.8896252079
 21
53.9389550939
 31
0.0
  0
LINE
  5
28A
  8
0
  6
CONTINUOUS
 62
     7
 10
168.8896252079
 20
53.9389550939
 30
0.0
 11
168.8896252079
 21
56.9389550939
 31
0.0
  0
LINE
  5
28B
  8
0
  6
CONTINUOUS
 62
     7
 10
168.8896252079
 20
56.9389550939
 30
0.0
 11
162.8896252079
 21
56.9389550939
 31
0.0
  0
LINE
  5
28C
  8
0
  6
CONTINUOUS
 62
     7
 10
162.8896252079
 20
56.9389550939
 30
0.0
 11
162.8896252079
 21
53.9389550939
 31
0.0
  0
LINE
  5
28D
  8
0
  6
CONTINUOUS
 62
     7
 10
157.8896252079
 20
53.9389550939
 30
0.0
 11
157.8896252079
 21
56.9389550939
 31
0.0
  0
LINE
  5
28E
  8
0
  6
CONTINUOUS
 62
     7
 10
157.8896252079
 20
56.9389550939
 30
0.0
 11
152.8896252079
 21
56.9389550939
 31
0.0
  0
LINE
  5
28F
  8
0
  6
CONTINUOUS
 62
     7
 10
157.8896252079
 20
53.9389550939
 30
0.0
 11
162.8896252079
 21
53.9389550939
 31
0.0
  0
LINE
  5
290
  8
0
  6
CONTINUOUS
 62
     7
 10
7.3704176928
 20
52.4046152537
 30
0.0
 11
58.3704176928
 21
52.4046152537
 31
0.0
  0
LINE
  5
291
  8
0
  6
CONTINUOUS
 62
     7
 10
7.3704176928
 20
52.4046152537
 30
0.0
 11
7.3704176928
 21
54.2046152537
 31
0.0
  0
LINE
  5
292
  8
0
  6
CONTINUOUS
 62
     7
 10
7.3704176928
 20
54.2046152537
 30
0.0
 11
1.3704176928
 21
54.2046152537
 31
0.0
  0
LINE
  5
293
  8
0
  6
CONTINUOUS
 62
     7
 10
1.3704176928
 20
56.0046152537
 30
0.0
 11
1.3704176928
 21
54.2046152537
 31
0.0
  0
LINE
  5
294
  8
0
  6
CONTINUOUS
 62
     7
 10
1.3704176928
 20
56.0046152537
 30
0.0
 11
7.3704176928
 21
56.0046152537
 31
0.0
  0
LINE
  5
295
  8
0
  6
CONTINUOUS
 62
     7
 10
7.3704176928
 20
56.0046152537
 30
0.0
 11
7.3704176928
 21
57.8046152537
 31
0.0
  0
LINE
  5
296
  8
0
  6
CONTINUOUS
 62
     7
 10
7.3704176928
 20
57.8046152537
 30
0.0
 11
1.3704176928
 21
57.8046152537
 31
0.0
  0
LINE
  5
297
  8
0
  6
CONTINUOUS
 62
     7
 10
1.3704176928
 20
59.6046152537
 30
0.0
 11
1.3704176928
 21
57.8046152537
 31
0.0
  0
LINE
  5
298
  8
0
  6
CONTINUOUS
 62
     7
 10
1.3704176928
 20
59.6046152537
 30
0.0
 11
7.3704176928
 21
59.6046152537
 31
0.0
  0
LINE
  5
299
  8
0
  6
CONTINUOUS
 62
     7
 10
7.3704176928
 20
59.6046152537
 30
0.0
 11
7.3704176928
 21
61.4046152537
 31
0.0
  0
LINE
  5
29A
  8
0
  6
CONTINUOUS
 62
     7
 10
58.3704176928
 20
61.4046152537
 30
0.0
 11
7.3704176928
 21
61.4046152537
 31
0.0
  0
LINE
  5
29B
  8
0
  6
CONTINUOUS
 62
     7
 10
58.3704176928
 20
59.6046152537
 30
0.0
 11
58.3704176928
 21
61.4046152537
 31
0.0
  0
LINE
  5
29C
  8
0
  6
CONTINUOUS
 62
     7
 10
64.3704176928
 20
59.6046152537
 30
0.0
 11
58.3704176928
 21
59.6046152537
 31
0.0
  0
LINE
  5
29D
  8
0
  6
CONTINUOUS
 62
     7
 10
64.3704176928
 20
57.8046152537
 30
0.0
 11
64.3704176928
 21
59.6046152537
 31
0.0
  0
LINE
  5
29E
  8
0
  6
CONTINUOUS
 62
     7
 10
58.3704176928
 20
57.8046152537
 30
0.0
 11
64.3704176928
 21
57.8046152537
 31
0.0
  0
LINE
  5
29F
  8
0
  6
CONTINUOUS
 62
     7
 10
58.3704176928
 20
56.0046152537
 30
0.0
 11
58.3704176928
 21
57.8046152537
 31
0.0
  0
LINE
  5
2A0
  8
0
  6
CONTINUOUS
 62
     7
 10
64.3704176928
 20
56.0046152537
 30
0.0
 11
58.3704176928
 21
56.0046152537
 31
0.0
  0
LINE
  5
2A1
  8
0
  6
CONTINUOUS
 62
     7
 10
58.3704176928
 20
54.2046152537
 30
0.0
 11
64.3704176928
 21
54.2046152537
 31
0.0
  0
LINE
  5
2A2
  8
0
  6
CONTINUOUS
 62
     7
 10
58.3704176928
 20
52.4046152537
 30
0.0
 11
58.3704176928
 21
54.2046152537
 31
0.0
  0
LINE
  5
2A3
  8
0
  6
CONTINUOUS
 62
     7
 10
34.3704176928
 20
57.8046152537
 30
0.0
 11
34.3704176928
 21
59.6046152537
 31
0.0
  0
LINE
  5
2A4
  8
0
  6
CONTINUOUS
 62
     7
 10
34.3704176928
 20
59.6046152537
 30
0.0
 11
31.3704176928
 21
59.6046152537
 31
0.0
  0
LINE
  5
2A5
  8
0
  6
CONTINUOUS
 62
     7
 10
31.3704176928
 20
59.6046152537
 30
0.0
 11
31.3704176928
 21
57.8046152537
 31
0.0
  0
LINE
  5
2A6
  8
0
  6
CONTINUOUS
 62
     7
 10
31.3704176928
 20
57.8046152537
 30
0.0
 11
34.3704176928
 21
57.8046152537
 31
0.0
  0
LINE
  5
2A7
  8
0
  6
CONTINUOUS
 62
     7
 10
31.3704176928
 20
56.0046152537
 30
0.0
 11
31.3704176928
 21
54.2046152537
 31
0.0
  0
LINE
  5
2A8
  8
0
  6
CONTINUOUS
 62
     7
 10
31.3704176928
 20
54.2046152537
 30
0.0
 11
34.3704176928
 21
54.2046152537
 31
0.0
  0
LINE
  5
2A9
  8
0
  6
CONTINUOUS
 62
     7
 10
34.3704176928
 20
54.2046152537
 30
0.0
 11
34.3704176928
 21
56.0046152537
 31
0.0
  0
LINE
  5
2AA
  8
0
  6
CONTINUOUS
 62
     7
 10
34.3704176928
 20
56.0046152537
 30
0.0
 11
31.3704176928
 21
56.0046152537
 31
0.0
  0
LINE
  5
2AB
  8
0
  6
CONTINUOUS
 62
     7
 10
64.3704176928
 20
54.2046152537
 30
0.0
 11
64.3704176928
 21
56.0046152537
 31
0.0
  0
LINE
  5
2AC
  8
0
  6
CONTINUOUS
 62
     7
 10
7.3704176928
 20
41.8135639164
 30
0.0
 11
58.3704176928
 21
41.8135639164
 31
0.0
  0
LINE
  5
2AD
  8
0
  6
CONTINUOUS
 62
     7
 10
7.3704176928
 20
41.8135639164
 30
0.0
 11
7.3704176928
 21
43.6135639164
 31
0.0
  0
LINE
  5
2AE
  8
0
  6
CONTINUOUS
 62
     7
 10
7.3704176928
 20
43.6135639164
 30
0.0
 11
1.3704176928
 21
43.6135639164
 31
0.0
  0
LINE
  5
2AF
  8
0
  6
CONTINUOUS
 62
     7
 10
1.3704176928
 20
45.4135639164
 30
0.0
 11
1.3704176928
 21
43.6135639164
 31
0.0
  0
LINE
  5
2B0
  8
0
  6
CONTINUOUS
 62
     7
 10
1.3704176928
 20
45.4135639164
 30
0.0
 11
7.3704176928
 21
45.4135639164
 31
0.0
  0
LINE
  5
2B1
  8
0
  6
CONTINUOUS
 62
     7
 10
7.3704176928
 20
45.4135639164
 30
0.0
 11
7.3704176928
 21
47.2135639164
 31
0.0
  0
LINE
  5
2B2
  8
0
  6
CONTINUOUS
 62
     7
 10
7.3704176928
 20
47.2135639164
 30
0.0
 11
1.3704176928
 21
47.2135639164
 31
0.0
  0
LINE
  5
2B3
  8
0
  6
CONTINUOUS
 62
     7
 10
1.3704176928
 20
49.0135639164
 30
0.0
 11
1.3704176928
 21
47.2135639164
 31
0.0
  0
LINE
  5
2B4
  8
0
  6
CONTINUOUS
 62
     7
 10
1.3704176928
 20
49.0135639164
 30
0.0
 11
7.3704176928
 21
49.0135639164
 31
0.0
  0
LINE
  5
2B5
  8
0
  6
CONTINUOUS
 62
     7
 10
7.3704176928
 20
49.0135639164
 30
0.0
 11
7.3704176928
 21
50.8135639164
 31
0.0
  0
LINE
  5
2B6
  8
0
  6
CONTINUOUS
 62
     7
 10
58.3704176928
 20
50.8135639164
 30
0.0
 11
7.3704176928
 21
50.8135639164
 31
0.0
  0
LINE
  5
2B7
  8
0
  6
CONTINUOUS
 62
     7
 10
58.3704176928
 20
49.0135639164
 30
0.0
 11
58.3704176928
 21
50.8135639164
 31
0.0
  0
LINE
  5
2B8
  8
0
  6
CONTINUOUS
 62
     7
 10
64.3704176928
 20
49.0135639164
 30
0.0
 11
58.3704176928
 21
49.0135639164
 31
0.0
  0
LINE
  5
2B9
  8
0
  6
CONTINUOUS
 62
     7
 10
64.3704176928
 20
47.2135639164
 30
0.0
 11
64.3704176928
 21
49.0135639164
 31
0.0
  0
LINE
  5
2BA
  8
0
  6
CONTINUOUS
 62
     7
 10
58.3704176928
 20
47.2135639164
 30
0.0
 11
64.3704176928
 21
47.2135639164
 31
0.0
  0
LINE
  5
2BB
  8
0
  6
CONTINUOUS
 62
     7
 10
58.3704176928
 20
45.4135639164
 30
0.0
 11
58.3704176928
 21
47.2135639164
 31
0.0
  0
LINE
  5
2BC
  8
0
  6
CONTINUOUS
 62
     7
 10
64.3704176928
 20
45.4135639164
 30
0.0
 11
58.3704176928
 21
45.4135639164
 31
0.0
  0
LINE
  5
2BD
  8
0
  6
CONTINUOUS
 62
     7
 10
58.3704176928
 20
43.6135639164
 30
0.0
 11
64.3704176928
 21
43.6135639164
 31
0.0
  0
LINE
  5
2BE
  8
0
  6
CONTINUOUS
 62
     7
 10
58.3704176928
 20
41.8135639164
 30
0.0
 11
58.3704176928
 21
43.6135639164
 31
0.0
  0
LINE
  5
2BF
  8
0
  6
CONTINUOUS
 62
     7
 10
34.3704176928
 20
47.2135639164
 30
0.0
 11
34.3704176928
 21
49.0135639164
 31
0.0
  0
LINE
  5
2C0
  8
0
  6
CONTINUOUS
 62
     7
 10
34.3704176928
 20
49.0135639164
 30
0.0
 11
31.3704176928
 21
49.0135639164
 31
0.0
  0
LINE
  5
2C1
  8
0
  6
CONTINUOUS
 62
     7
 10
31.3704176928
 20
49.0135639164
 30
0.0
 11
31.3704176928
 21
47.2135639164
 31
0.0
  0
LINE
  5
2C2
  8
0
  6
CONTINUOUS
 62
     7
 10
31.3704176928
 20
47.2135639164
 30
0.0
 11
34.3704176928
 21
47.2135639164
 31
0.0
  0
LINE
  5
2C3
  8
0
  6
CONTINUOUS
 62
     7
 10
31.3704176928
 20
45.4135639164
 30
0.0
 11
31.3704176928
 21
43.6135639164
 31
0.0
  0
LINE
  5
2C4
  8
0
  6
CONTINUOUS
 62
     7
 10
31.3704176928
 20
43.6135639164
 30
0.0
 11
34.3704176928
 21
43.6135639164
 31
0.0
  0
LINE
  5
2C5
  8
0
  6
CONTINUOUS
 62
     7
 10
34.3704176928
 20
43.6135639164
 30
0.0
 11
34.3704176928
 21
45.4135639164
 31
0.0
  0
LINE
  5
2C6
  8
0
  6
CONTINUOUS
 62
     7
 10
34.3704176928
 20
45.4135639164
 30
0.0
 11
31.3704176928
 21
45.4135639164
 31
0.0
  0
LINE
  5
2C7
  8
0
  6
CONTINUOUS
 62
     7
 10
64.3704176928
 20
43.6135639164
 30
0.0
 11
64.3704176928
 21
45.4135639164
 31
0.0
  0
LINE
  5
2C8
  8
0
  6
CONTINUOUS
 62
     7
 10
7.3704176928
 20
31.2225125792
 30
0.0
 11
58.3704176928
 21
31.2225125792
 31
0.0
  0
LINE
  5
2C9
  8
0
  6
CONTINUOUS
 62
     7
 10
7.3704176928
 20
31.2225125792
 30
0.0
 11
7.3704176928
 21
33.0225125792
 31
0.0
  0
LINE
  5
2CA
  8
0
  6
CONTINUOUS
 62
     7
 10
7.3704176928
 20
33.0225125792
 30
0.0
 11
1.3704176928
 21
33.0225125792
 31
0.0
  0
LINE
  5
2CB
  8
0
  6
CONTINUOUS
 62
     7
 10
1.3704176928
 20
34.8225125792
 30
0.0
 11
1.3704176928
 21
33.0225125792
 31
0.0
  0
LINE
  5
2CC
  8
0
  6
CONTINUOUS
 62
     7
 10
1.3704176928
 20
34.8225125792
 30
0.0
 11
7.3704176928
 21
34.8225125792
 31
0.0
  0
LINE
  5
2CD
  8
0
  6
CONTINUOUS
 62
     7
 10
7.3704176928
 20
34.8225125792
 30
0.0
 11
7.3704176928
 21
36.6225125792
 31
0.0
  0
LINE
  5
2CE
  8
0
  6
CONTINUOUS
 62
     7
 10
7.3704176928
 20
36.6225125792
 30
0.0
 11
1.3704176928
 21
36.6225125792
 31
0.0
  0
LINE
  5
2CF
  8
0
  6
CONTINUOUS
 62
     7
 10
1.3704176928
 20
38.4225125792
 30
0.0
 11
1.3704176928
 21
36.6225125792
 31
0.0
  0
LINE
  5
2D0
  8
0
  6
CONTINUOUS
 62
     7
 10
1.3704176928
 20
38.4225125792
 30
0.0
 11
7.3704176928
 21
38.4225125792
 31
0.0
  0
LINE
  5
2D1
  8
0
  6
CONTINUOUS
 62
     7
 10
7.3704176928
 20
38.4225125792
 30
0.0
 11
7.3704176928
 21
40.2225125792
 31
0.0
  0
LINE
  5
2D2
  8
0
  6
CONTINUOUS
 62
     7
 10
58.3704176928
 20
40.2225125792
 30
0.0
 11
7.3704176928
 21
40.2225125792
 31
0.0
  0
LINE
  5
2D3
  8
0
  6
CONTINUOUS
 62
     7
 10
58.3704176928
 20
38.4225125792
 30
0.0
 11
58.3704176928
 21
40.2225125792
 31
0.0
  0
LINE
  5
2D4
  8
0
  6
CONTINUOUS
 62
     7
 10
64.3704176928
 20
38.4225125792
 30
0.0
 11
58.3704176928
 21
38.4225125792
 31
0.0
  0
LINE
  5
2D5
  8
0
  6
CONTINUOUS
 62
     7
 10
64.3704176928
 20
36.6225125792
 30
0.0
 11
64.3704176928
 21
38.4225125792
 31
0.0
  0
LINE
  5
2D6
  8
0
  6
CONTINUOUS
 62
     7
 10
58.3704176928
 20
36.6225125792
 30
0.0
 11
64.3704176928
 21
36.6225125792
 31
0.0
  0
LINE
  5
2D7
  8
0
  6
CONTINUOUS
 62
     7
 10
58.3704176928
 20
34.8225125792
 30
0.0
 11
58.3704176928
 21
36.6225125792
 31
0.0
  0
LINE
  5
2D8
  8
0
  6
CONTINUOUS
 62
     7
 10
64.3704176928
 20
34.8225125792
 30
0.0
 11
58.3704176928
 21
34.8225125792
 31
0.0
  0
LINE
  5
2D9
  8
0
  6
CONTINUOUS
 62
     7
 10
58.3704176928
 20
33.0225125792
 30
0.0
 11
64.3704176928
 21
33.0225125792
 31
0.0
  0
LINE
  5
2DA
  8
0
  6
CONTINUOUS
 62
     7
 10
58.3704176928
 20
31.2225125792
 30
0.0
 11
58.3704176928
 21
33.0225125792
 31
0.0
  0
LINE
  5
2DB
  8
0
  6
CONTINUOUS
 62
     7
 10
34.3704176928
 20
36.6225125792
 30
0.0
 11
34.3704176928
 21
38.4225125792
 31
0.0
  0
LINE
  5
2DC
  8
0
  6
CONTINUOUS
 62
     7
 10
34.3704176928
 20
38.4225125792
 30
0.0
 11
31.3704176928
 21
38.4225125792
 31
0.0
  0
LINE
  5
2DD
  8
0
  6
CONTINUOUS
 62
     7
 10
31.3704176928
 20
38.4225125792
 30
0.0
 11
31.3704176928
 21
36.6225125792
 31
0.0
  0
LINE
  5
2DE
  8
0
  6
CONTINUOUS
 62
     7
 10
31.3704176928
 20
36.6225125792
 30
0.0
 11
34.3704176928
 21
36.6225125792
 31
0.0
  0
LINE
  5
2DF
  8
0
  6
CONTINUOUS
 62
     7
 10
31.3704176928
 20
34.8225125792
 30
0.0
 11
31.3704176928
 21
33.0225125792
 31
0.0
  0
LINE
  5
2E0
  8
0
  6
CONTINUOUS
 62
     7
 10
31.3704176928
 20
33.0225125792
 30
0.0
 11
34.3704176928
 21
33.0225125792
 31
0.0
  0
LINE
  5
2E1
  8
0
  6
CONTINUOUS
 62
     7
 10
34.3704176928
 20
33.0225125792
 30
0.0
 11
34.3704176928
 21
34.8225125792
 31
0.0
  0
LINE
  5
2E2
  8
0
  6
CONTINUOUS
 62
     7
 10
34.3704176928
 20
34.8225125792
 30
0.0
 11
31.3704176928
 21
34.8225125792
 31
0.0
  0
LINE
  5
2E3
  8
0
  6
CONTINUOUS
 62
     7
 10
64.3704176928
 20
33.0225125792
 30
0.0
 11
64.3704176928
 21
34.8225125792
 31
0.0
  0
LINE
  5
2E4
  8
0
  6
CONTINUOUS
 62
     7
 10
138.6303309202
 20
66.8363723032
 30
0.0
 11
132.6303309202
 21
66.8363723032
 31
0.0
  0
LINE
  5
2E5
  8
0
  6
CONTINUOUS
 62
     7
 10
138.6303309202
 20
68.6363723032
 30
0.0
 11
138.6303309202
 21
66.8363723032
 31
0.0
  0
LINE
  5
2E6
  8
0
  6
CONTINUOUS
 62
     7
 10
132.6303309202
 20
68.6363723032
 30
0.0
 11
138.6303309202
 21
68.6363723032
 31
0.0
  0
LINE
  5
2E7
  8
0
  6
CONTINUOUS
 62
     7
 10
138.6303309202
 20
70.4363723032
 30
0.0
 11
132.6303309202
 21
70.4363723032
 31
0.0
  0
LINE
  5
2E8
  8
0
  6
CONTINUOUS
 62
     7
 10
138.6303309202
 20
72.2363723032
 30
0.0
 11
138.6303309202
 21
70.4363723032
 31
0.0
  0
LINE
  5
2E9
  8
0
  6
CONTINUOUS
 62
     7
 10
172.6303309202
 20
70.4363723032
 30
0.0
 11
172.6303309202
 21
72.2363723032
 31
0.0
  0
LINE
  5
2EA
  8
0
  6
CONTINUOUS
 62
     7
 10
178.6303309202
 20
70.4363723032
 30
0.0
 11
172.6303309202
 21
70.4363723032
 31
0.0
  0
LINE
  5
2EB
  8
0
  6
CONTINUOUS
 62
     7
 10
172.6303309202
 20
68.6363723032
 30
0.0
 11
178.6303309202
 21
68.6363723032
 31
0.0
  0
LINE
  5
2EC
  8
0
  6
CONTINUOUS
 62
     7
 10
172.6303309202
 20
66.8363723032
 30
0.0
 11
172.6303309202
 21
68.6363723032
 31
0.0
  0
LINE
  5
2ED
  8
0
  6
CONTINUOUS
 62
     7
 10
178.6303309202
 20
66.8363723032
 30
0.0
 11
172.6303309202
 21
66.8363723032
 31
0.0
  0
LINE
  5
2EE
  8
0
  6
CONTINUOUS
 62
     7
 10
172.6303309202
 20
65.0363723032
 30
0.0
 11
178.6303309202
 21
65.0363723032
 31
0.0
  0
LINE
  5
2EF
  8
0
  6
CONTINUOUS
 62
     7
 10
172.6303309202
 20
63.2363723032
 30
0.0
 11
172.6303309202
 21
65.0363723032
 31
0.0
  0
LINE
  5
2F0
  8
0
  6
CONTINUOUS
 62
     7
 10
138.6303309202
 20
65.0363723032
 30
0.0
 11
138.6303309202
 21
63.2363723032
 31
0.0
  0
LINE
  5
2F1
  8
0
  6
CONTINUOUS
 62
     7
 10
132.6303309202
 20
65.0363723032
 30
0.0
 11
138.6303309202
 21
65.0363723032
 31
0.0
  0
LINE
  5
2F2
  8
0
  6
CONTINUOUS
 62
     7
 10
138.6303309202
 20
63.2363723032
 30
0.0
 11
172.6303309202
 21
63.2363723032
 31
0.0
  0
LINE
  5
2F3
  8
0
  6
CONTINUOUS
 62
     7
 10
132.6303309202
 20
66.8363723032
 30
0.0
 11
132.6303309202
 21
65.0363723032
 31
0.0
  0
LINE
  5
2F4
  8
0
  6
CONTINUOUS
 62
     7
 10
172.6303309202
 20
72.2363723032
 30
0.0
 11
138.6303309202
 21
72.2363723032
 31
0.0
  0
LINE
  5
2F5
  8
0
  6
CONTINUOUS
 62
     7
 10
178.6303309202
 20
65.0363723032
 30
0.0
 11
178.6303309202
 21
66.8363723032
 31
0.0
  0
LINE
  5
2F6
  8
0
  6
CONTINUOUS
 62
     7
 10
178.6303309202
 20
68.6363723032
 30
0.0
 11
178.6303309202
 21
70.4363723032
 31
0.0
  0
LINE
  5
2F7
  8
0
  6
CONTINUOUS
 62
     7
 10
132.6303309202
 20
70.4363723032
 30
0.0
 11
132.6303309202
 21
68.6363723032
 31
0.0
  0
LINE
  5
2F8
  8
0
  6
CONTINUOUS
 62
     7
 10
135.6303309201
 20
79.9742407044
 30
0.0
 11
135.6303309201
 21
76.9742407044
 31
0.0
  0
ARC
  5
2F9
  8
0
  6
CONTINUOUS
 62
     7
 10
135.6303309201
 20
79.9742407044
 30
0.0
 40
3.0
 50
180.0
 51
270.0
  0
LINE
  5
2FA
  8
0
  6
CONTINUOUS
 62
     7
 10
138.6303309201
 20
84.7742407044
 30
0.0
 11
132.6303309201
 21
84.7742407044
 31
0.0
  0
LINE
  5
2FB
  8
0
  6
CONTINUOUS
 62
     7
 10
138.6303309201
 20
86.5742407044
 30
0.0
 11
138.6303309201
 21
84.7742407044
 31
0.0
  0
LINE
  5
2FC
  8
0
  6
CONTINUOUS
 62
     7
 10
132.6303309201
 20
86.5742407044
 30
0.0
 11
138.6303309201
 21
86.5742407044
 31
0.0
  0
LINE
  5
2FD
  8
0
  6
CONTINUOUS
 62
     7
 10
138.6303309201
 20
88.3742407044
 30
0.0
 11
132.6303309201
 21
88.3742407044
 31
0.0
  0
LINE
  5
2FE
  8
0
  6
CONTINUOUS
 62
     7
 10
138.6303309201
 20
90.1742407044
 30
0.0
 11
138.6303309201
 21
88.3742407044
 31
0.0
  0
LINE
  5
2FF
  8
0
  6
CONTINUOUS
 62
     7
 10
132.6303309201
 20
90.1742407044
 30
0.0
 11
138.6303309201
 21
90.1742407044
 31
0.0
  0
ARC
  5
300
  8
0
  6
CONTINUOUS
 62
     7
 10
135.6303309201
 20
94.9742407044
 30
0.0
 40
3.0
 50
90.0
 51
180.0
  0
LINE
  5
301
  8
0
  6
CONTINUOUS
 62
     7
 10
135.6303309201
 20
97.9742407044
 30
0.0
 11
135.6303309201
 21
94.9742407044
 31
0.0
  0
LINE
  5
302
  8
0
  6
CONTINUOUS
 62
     7
 10
135.6303309201
 20
94.9742407044
 30
0.0
 11
142.6303309201
 21
94.9742407044
 31
0.0
  0
LINE
  5
303
  8
0
  6
CONTINUOUS
 62
     7
 10
142.6303309201
 20
94.9742407044
 30
0.0
 11
142.6303309201
 21
97.9742407044
 31
0.0
  0
LINE
  5
304
  8
0
  6
CONTINUOUS
 62
     7
 10
148.6303309201
 20
97.9742407044
 30
0.0
 11
148.6303309201
 21
94.9742407044
 31
0.0
  0
LINE
  5
305
  8
0
  6
CONTINUOUS
 62
     7
 10
148.6303309201
 20
94.9742407044
 30
0.0
 11
154.6303309201
 21
94.9742407044
 31
0.0
  0
LINE
  5
306
  8
0
  6
CONTINUOUS
 62
     7
 10
154.6303309201
 20
94.9742407044
 30
0.0
 11
154.6303309201
 21
97.9742407044
 31
0.0
  0
LINE
  5
307
  8
0
  6
CONTINUOUS
 62
     7
 10
160.6303309201
 20
97.9742407044
 30
0.0
 11
160.6303309201
 21
94.9742407044
 31
0.0
  0
LINE
  5
308
  8
0
  6
CONTINUOUS
 62
     7
 10
160.6303309201
 20
94.9742407044
 30
0.0
 11
166.6303309201
 21
94.9742407044
 31
0.0
  0
LINE
  5
309
  8
0
  6
CONTINUOUS
 62
     7
 10
166.6303309201
 20
94.9742407044
 30
0.0
 11
166.6303309201
 21
97.9742407044
 31
0.0
  0
LINE
  5
30A
  8
0
  6
CONTINUOUS
 62
     7
 10
172.6303309201
 20
97.9742407044
 30
0.0
 11
172.6303309201
 21
94.9742407044
 31
0.0
  0
LINE
  5
30B
  8
0
  6
CONTINUOUS
 62
     7
 10
172.6303309201
 20
94.9742407044
 30
0.0
 11
178.6303309201
 21
94.9742407044
 31
0.0
  0
LINE
  5
30C
  8
0
  6
CONTINUOUS
 62
     7
 10
172.6303309201
 20
90.1742407044
 30
0.0
 11
178.6303309201
 21
90.1742407044
 31
0.0
  0
LINE
  5
30D
  8
0
  6
CONTINUOUS
 62
     7
 10
172.6303309201
 20
88.3742407044
 30
0.0
 11
172.6303309201
 21
90.1742407044
 31
0.0
  0
LINE
  5
30E
  8
0
  6
CONTINUOUS
 62
     7
 10
178.6303309201
 20
88.3742407044
 30
0.0
 11
172.6303309201
 21
88.3742407044
 31
0.0
  0
LINE
  5
30F
  8
0
  6
CONTINUOUS
 62
     7
 10
172.6303309201
 20
86.5742407044
 30
0.0
 11
178.6303309201
 21
86.5742407044
 31
0.0
  0
LINE
  5
310
  8
0
  6
CONTINUOUS
 62
     7
 10
172.6303309201
 20
84.7742407044
 30
0.0
 11
172.6303309201
 21
86.5742407044
 31
0.0
  0
LINE
  5
311
  8
0
  6
CONTINUOUS
 62
     7
 10
178.6303309201
 20
84.7742407044
 30
0.0
 11
172.6303309201
 21
84.7742407044
 31
0.0
  0
LINE
  5
312
  8
0
  6
CONTINUOUS
 62
     7
 10
178.6303309201
 20
79.9742407044
 30
0.0
 11
172.6303309201
 21
79.9742407044
 31
0.0
  0
LINE
  5
313
  8
0
  6
CONTINUOUS
 62
     7
 10
172.6303309201
 20
79.9742407044
 30
0.0
 11
172.6303309201
 21
76.9742407044
 31
0.0
  0
LINE
  5
314
  8
0
  6
CONTINUOUS
 62
     7
 10
166.6303309201
 20
76.9742407044
 30
0.0
 11
166.6303309201
 21
79.9742407044
 31
0.0
  0
LINE
  5
315
  8
0
  6
CONTINUOUS
 62
     7
 10
166.6303309201
 20
79.9742407044
 30
0.0
 11
160.6303309201
 21
79.9742407044
 31
0.0
  0
LINE
  5
316
  8
0
  6
CONTINUOUS
 62
     7
 10
160.6303309201
 20
79.9742407044
 30
0.0
 11
160.6303309201
 21
76.9742407044
 31
0.0
  0
LINE
  5
317
  8
0
  6
CONTINUOUS
 62
     7
 10
154.6303309201
 20
76.9742407044
 30
0.0
 11
154.6303309201
 21
79.9742407044
 31
0.0
  0
LINE
  5
318
  8
0
  6
CONTINUOUS
 62
     7
 10
154.6303309201
 20
79.9742407044
 30
0.0
 11
148.6303309201
 21
79.9742407044
 31
0.0
  0
LINE
  5
319
  8
0
  6
CONTINUOUS
 62
     7
 10
148.6303309201
 20
79.9742407044
 30
0.0
 11
148.6303309201
 21
76.9742407044
 31
0.0
  0
LINE
  5
31A
  8
0
  6
CONTINUOUS
 62
     7
 10
142.6303309201
 20
76.9742407044
 30
0.0
 11
142.6303309201
 21
79.9742407044
 31
0.0
  0
LINE
  5
31B
  8
0
  6
CONTINUOUS
 62
     7
 10
142.6303309201
 20
79.9742407044
 30
0.0
 11
135.6303309201
 21
79.9742407044
 31
0.0
  0
LINE
  5
31C
  8
0
  6
CONTINUOUS
 62
     7
 10
142.6303309201
 20
76.9742407044
 30
0.0
 11
148.6303309201
 21
76.9742407044
 31
0.0
  0
LINE
  5
31D
  8
0
  6
CONTINUOUS
 62
     7
 10
132.6303309201
 20
84.7742407044
 30
0.0
 11
132.6303309201
 21
79.9742407044
 31
0.0
  0
LINE
  5
31E
  8
0
  6
CONTINUOUS
 62
     7
 10
172.6303309201
 20
97.9742407044
 30
0.0
 11
166.6303309201
 21
97.9742407044
 31
0.0
  0
LINE
  5
31F
  8
0
  6
CONTINUOUS
 62
     7
 10
178.6303309201
 20
90.1742407044
 30
0.0
 11
178.6303309201
 21
94.9742407044
 31
0.0
  0
LINE
  5
320
  8
0
  6
CONTINUOUS
 62
     7
 10
132.6303309201
 20
94.9742407044
 30
0.0
 11
132.6303309201
 21
90.1742407044
 31
0.0
  0
LINE
  5
321
  8
0
  6
CONTINUOUS
 62
     7
 10
132.6303309201
 20
88.3742407044
 30
0.0
 11
132.6303309201
 21
86.5742407044
 31
0.0
  0
LINE
  5
322
  8
0
  6
CONTINUOUS
 62
     7
 10
178.6303309201
 20
79.9742407044
 30
0.0
 11
178.6303309201
 21
84.7742407044
 31
0.0
  0
LINE
  5
323
  8
0
  6
CONTINUOUS
 62
     7
 10
178.6303309201
 20
86.5742407044
 30
0.0
 11
178.6303309201
 21
88.3742407044
 31
0.0
  0
LINE
  5
324
  8
0
  6
CONTINUOUS
 62
     7
 10
148.6303309201
 20
97.9742407044
 30
0.0
 11
142.6303309201
 21
97.9742407044
 31
0.0
  0
LINE
  5
325
  8
0
  6
CONTINUOUS
 62
     7
 10
160.6303309201
 20
97.9742407044
 30
0.0
 11
154.6303309201
 21
97.9742407044
 31
0.0
  0
LINE
  5
326
  8
0
  6
CONTINUOUS
 62
     7
 10
166.6303309201
 20
76.9742407044
 30
0.0
 11
172.6303309201
 21
76.9742407044
 31
0.0
  0
LINE
  5
327
  8
0
  6
CONTINUOUS
 62
     7
 10
154.6303309201
 20
76.9742407044
 30
0.0
 11
160.6303309201
 21
76.9742407044
 31
0.0
  0
LINE
  5
328
  8
0
  6
CONTINUOUS
 62
     7
 10
70.1583771989
 20
43.8683838728
 30
0.0
 11
70.1583771989
 21
40.8683838728
 31
0.0
  0
ARC
  5
329
  8
0
  6
CONTINUOUS
 62
     7
 10
70.1583771989
 20
43.8683838728
 30
0.0
 40
3.0
 50
180.0
 51
270.0
  0
LINE
  5
32A
  8
0
  6
CONTINUOUS
 62
     7
 10
73.1583771989
 20
48.6683838728
 30
0.0
 11
67.1583771989
 21
48.6683838728
 31
0.0
  0
LINE
  5
32B
  8
0
  6
CONTINUOUS
 62
     7
 10
73.1583771989
 20
50.4683838728
 30
0.0
 11
73.1583771989
 21
48.6683838728
 31
0.0
  0
LINE
  5
32C
  8
0
  6
CONTINUOUS
 62
     7
 10
67.1583771989
 20
50.4683838728
 30
0.0
 11
73.1583771989
 21
50.4683838728
 31
0.0
  0
LINE
  5
32D
  8
0
  6
CONTINUOUS
 62
     7
 10
73.1583771989
 20
52.2683838728
 30
0.0
 11
67.1583771989
 21
52.2683838728
 31
0.0
  0
LINE
  5
32E
  8
0
  6
CONTINUOUS
 62
     7
 10
73.1583771989
 20
54.0683838728
 30
0.0
 11
73.1583771989
 21
52.2683838728
 31
0.0
  0
LINE
  5
32F
  8
0
  6
CONTINUOUS
 62
     7
 10
67.1583771989
 20
54.0683838728
 30
0.0
 11
73.1583771989
 21
54.0683838728
 31
0.0
  0
ARC
  5
330
  8
0
  6
CONTINUOUS
 62
     7
 10
70.1583771989
 20
58.8683838728
 30
0.0
 40
3.0
 50
90.0
 51
180.0
  0
LINE
  5
331
  8
0
  6
CONTINUOUS
 62
     7
 10
70.1583771989
 20
61.8683838728
 30
0.0
 11
70.1583771989
 21
58.8683838728
 31
0.0
  0
LINE
  5
332
  8
0
  6
CONTINUOUS
 62
     7
 10
70.1583771989
 20
58.8683838728
 30
0.0
 11
77.1583771989
 21
58.8683838728
 31
0.0
  0
LINE
  5
333
  8
0
  6
CONTINUOUS
 62
     7
 10
77.1583771989
 20
58.8683838728
 30
0.0
 11
77.1583771989
 21
61.8683838728
 31
0.0
  0
LINE
  5
334
  8
0
  6
CONTINUOUS
 62
     7
 10
83.1583771989
 20
61.8683838728
 30
0.0
 11
83.1583771989
 21
58.8683838728
 31
0.0
  0
LINE
  5
335
  8
0
  6
CONTINUOUS
 62
     7
 10
83.1583771989
 20
58.8683838728
 30
0.0
 11
89.1583771989
 21
58.8683838728
 31
0.0
  0
LINE
  5
336
  8
0
  6
CONTINUOUS
 62
     7
 10
89.1583771989
 20
58.8683838728
 30
0.0
 11
89.1583771989
 21
61.8683838728
 31
0.0
  0
LINE
  5
337
  8
0
  6
CONTINUOUS
 62
     7
 10
95.1583771989
 20
61.8683838728
 30
0.0
 11
95.1583771989
 21
58.8683838728
 31
0.0
  0
LINE
  5
338
  8
0
  6
CONTINUOUS
 62
     7
 10
95.1583771989
 20
58.8683838728
 30
0.0
 11
101.1583771989
 21
58.8683838728
 31
0.0
  0
LINE
  5
339
  8
0
  6
CONTINUOUS
 62
     7
 10
101.1583771989
 20
58.8683838728
 30
0.0
 11
101.1583771989
 21
61.8683838728
 31
0.0
  0
LINE
  5
33A
  8
0
  6
CONTINUOUS
 62
     7
 10
107.1583771989
 20
61.8683838728
 30
0.0
 11
107.1583771989
 21
58.8683838728
 31
0.0
  0
LINE
  5
33B
  8
0
  6
CONTINUOUS
 62
     7
 10
107.1583771989
 20
58.8683838728
 30
0.0
 11
113.1583771989
 21
58.8683838728
 31
0.0
  0
LINE
  5
33C
  8
0
  6
CONTINUOUS
 62
     7
 10
107.1583771989
 20
54.0683838728
 30
0.0
 11
113.1583771989
 21
54.0683838728
 31
0.0
  0
LINE
  5
33D
  8
0
  6
CONTINUOUS
 62
     7
 10
107.1583771989
 20
52.2683838728
 30
0.0
 11
107.1583771989
 21
54.0683838728
 31
0.0
  0
LINE
  5
33E
  8
0
  6
CONTINUOUS
 62
     7
 10
113.1583771989
 20
52.2683838728
 30
0.0
 11
107.1583771989
 21
52.2683838728
 31
0.0
  0
LINE
  5
33F
  8
0
  6
CONTINUOUS
 62
     7
 10
107.1583771989
 20
50.4683838728
 30
0.0
 11
113.1583771989
 21
50.4683838728
 31
0.0
  0
LINE
  5
340
  8
0
  6
CONTINUOUS
 62
     7
 10
107.1583771989
 20
48.6683838728
 30
0.0
 11
107.1583771989
 21
50.4683838728
 31
0.0
  0
LINE
  5
341
  8
0
  6
CONTINUOUS
 62
     7
 10
113.1583771989
 20
48.6683838728
 30
0.0
 11
107.1583771989
 21
48.6683838728
 31
0.0
  0
LINE
  5
342
  8
0
  6
CONTINUOUS
 62
     7
 10
113.1583771989
 20
43.8683838728
 30
0.0
 11
107.1583771989
 21
43.8683838728
 31
0.0
  0
LINE
  5
343
  8
0
  6
CONTINUOUS
 62
     7
 10
107.1583771989
 20
43.8683838728
 30
0.0
 11
107.1583771989
 21
40.8683838728
 31
0.0
  0
LINE
  5
344
  8
0
  6
CONTINUOUS
 62
     7
 10
101.1583771989
 20
40.8683838728
 30
0.0
 11
101.1583771989
 21
43.8683838728
 31
0.0
  0
LINE
  5
345
  8
0
  6
CONTINUOUS
 62
     7
 10
101.1583771989
 20
43.8683838728
 30
0.0
 11
95.1583771989
 21
43.8683838728
 31
0.0
  0
LINE
  5
346
  8
0
  6
CONTINUOUS
 62
     7
 10
95.1583771989
 20
43.8683838728
 30
0.0
 11
95.1583771989
 21
40.8683838728
 31
0.0
  0
LINE
  5
347
  8
0
  6
CONTINUOUS
 62
     7
 10
89.1583771989
 20
40.8683838728
 30
0.0
 11
89.1583771989
 21
43.8683838728
 31
0.0
  0
LINE
  5
348
  8
0
  6
CONTINUOUS
 62
     7
 10
89.1583771989
 20
43.8683838728
 30
0.0
 11
83.1583771989
 21
43.8683838728
 31
0.0
  0
LINE
  5
349
  8
0
  6
CONTINUOUS
 62
     7
 10
83.1583771989
 20
43.8683838728
 30
0.0
 11
83.1583771989
 21
40.8683838728
 31
0.0
  0
LINE
  5
34A
  8
0
  6
CONTINUOUS
 62
     7
 10
77.1583771989
 20
40.8683838728
 30
0.0
 11
77.1583771989
 21
43.8683838728
 31
0.0
  0
LINE
  5
34B
  8
0
  6
CONTINUOUS
 62
     7
 10
77.1583771989
 20
43.8683838728
 30
0.0
 11
70.1583771989
 21
43.8683838728
 31
0.0
  0
LINE
  5
34C
  8
0
  6
CONTINUOUS
 62
     7
 10
77.1583771989
 20
40.8683838728
 30
0.0
 11
83.1583771989
 21
40.8683838728
 31
0.0
  0
LINE
  5
34D
  8
0
  6
CONTINUOUS
 62
     7
 10
67.1583771989
 20
48.6683838728
 30
0.0
 11
67.1583771989
 21
43.8683838728
 31
0.0
  0
LINE
  5
34E
  8
0
  6
CONTINUOUS
 62
     7
 10
107.1583771989
 20
61.8683838728
 30
0.0
 11
101.1583771989
 21
61.8683838728
 31
0.0
  0
LINE
  5
34F
  8
0
  6
CONTINUOUS
 62
     7
 10
113.1583771989
 20
54.0683838728
 30
0.0
 11
113.1583771989
 21
58.8683838728
 31
0.0
  0
LINE
  5
350
  8
0
  6
CONTINUOUS
 62
     7
 10
67.1583771989
 20
58.8683838728
 30
0.0
 11
67.1583771989
 21
54.0683838728
 31
0.0
  0
LINE
  5
351
  8
0
  6
CONTINUOUS
 62
     7
 10
67.1583771989
 20
52.2683838728
 30
0.0
 11
67.1583771989
 21
50.4683838728
 31
0.0
  0
LINE
  5
352
  8
0
  6
CONTINUOUS
 62
     7
 10
113.1583771989
 20
43.8683838728
 30
0.0
 11
113.1583771989
 21
48.6683838728
 31
0.0
  0
LINE
  5
353
  8
0
  6
CONTINUOUS
 62
     7
 10
113.1583771989
 20
50.4683838728
 30
0.0
 11
113.1583771989
 21
52.2683838728
 31
0.0
  0
LINE
  5
354
  8
0
  6
CONTINUOUS
 62
     7
 10
83.1583771989
 20
61.8683838728
 30
0.0
 11
77.1583771989
 21
61.8683838728
 31
0.0
  0
LINE
  5
355
  8
0
  6
CONTINUOUS
 62
     7
 10
95.1583771989
 20
61.8683838728
 30
0.0
 11
89.1583771989
 21
61.8683838728
 31
0.0
  0
LINE
  5
356
  8
0
  6
CONTINUOUS
 62
     7
 10
101.1583771989
 20
40.8683838728
 30
0.0
 11
107.1583771989
 21
40.8683838728
 31
0.0
  0
LINE
  5
357
  8
0
  6
CONTINUOUS
 62
     7
 10
89.1583771989
 20
40.8683838728
 30
0.0
 11
95.1583771989
 21
40.8683838728
 31
0.0
  0
LINE
  5
358
  8
0
  6
CONTINUOUS
 62
     7
 10
112.9176714867
 20
33.3782783059
 30
0.0
 11
106.9176714867
 21
33.3782783059
 31
0.0
  0
LINE
  5
359
  8
0
  6
CONTINUOUS
 62
     7
 10
106.9176714867
 20
33.3782783059
 30
0.0
 11
106.9176714867
 21
31.5782783059
 31
0.0
  0
LINE
  5
35A
  8
0
  6
CONTINUOUS
 62
     7
 10
106.9176714867
 20
31.5782783059
 30
0.0
 11
112.9176714867
 21
31.5782783059
 31
0.0
  0
LINE
  5
35B
  8
0
  6
CONTINUOUS
 62
     7
 10
66.9176714867
 20
31.5782783059
 30
0.0
 11
72.9176714867
 21
31.5782783059
 31
0.0
  0
LINE
  5
35C
  8
0
  6
CONTINUOUS
 62
     7
 10
72.9176714867
 20
31.5782783059
 30
0.0
 11
72.9176714867
 21
33.3782783059
 31
0.0
  0
LINE
  5
35D
  8
0
  6
CONTINUOUS
 62
     7
 10
72.9176714867
 20
33.3782783059
 30
0.0
 11
66.9176714867
 21
33.3782783059
 31
0.0
  0
LINE
  5
35E
  8
0
  6
CONTINUOUS
 62
     7
 10
66.9176714867
 20
35.1782783059
 30
0.0
 11
72.9176714867
 21
35.1782783059
 31
0.0
  0
LINE
  5
35F
  8
0
  6
CONTINUOUS
 62
     7
 10
72.9176714867
 20
35.1782783059
 30
0.0
 11
72.9176714867
 21
36.9782783059
 31
0.0
  0
LINE
  5
360
  8
0
  6
CONTINUOUS
 62
     7
 10
72.9176714867
 20
36.9782783059
 30
0.0
 11
66.9176714867
 21
36.9782783059
 31
0.0
  0
LINE
  5
361
  8
0
  6
CONTINUOUS
 62
     7
 10
112.9176714867
 20
36.9782783059
 30
0.0
 11
106.9176714867
 21
36.9782783059
 31
0.0
  0
LINE
  5
362
  8
0
  6
CONTINUOUS
 62
     7
 10
106.9176714867
 20
36.9782783059
 30
0.0
 11
106.9176714867
 21
35.1782783059
 31
0.0
  0
LINE
  5
363
  8
0
  6
CONTINUOUS
 62
     7
 10
106.9176714867
 20
35.1782783059
 30
0.0
 11
112.9176714867
 21
35.1782783059
 31
0.0
  0
LINE
  5
364
  8
0
  6
CONTINUOUS
 62
     7
 10
66.9176714867
 20
29.7782783059
 30
0.0
 11
112.9176714867
 21
29.7782783059
 31
0.0
  0
LINE
  5
365
  8
0
  6
CONTINUOUS
 62
     7
 10
66.9176714867
 20
38.7782783059
 30
0.0
 11
66.9176714867
 21
36.9782783059
 31
0.0
  0
LINE
  5
366
  8
0
  6
CONTINUOUS
 62
     7
 10
112.9176714867
 20
38.7782783059
 30
0.0
 11
66.9176714867
 21
38.7782783059
 31
0.0
  0
LINE
  5
367
  8
0
  6
CONTINUOUS
 62
     7
 10
112.9176714867
 20
29.7782783059
 30
0.0
 11
112.9176714867
 21
31.5782783059
 31
0.0
  0
LINE
  5
368
  8
0
  6
CONTINUOUS
 62
     7
 10
66.9176714867
 20
35.1782783059
 30
0.0
 11
66.9176714867
 21
33.3782783059
 31
0.0
  0
LINE
  5
369
  8
0
  6
CONTINUOUS
 62
     7
 10
66.9176714867
 20
31.5782783059
 30
0.0
 11
66.9176714867
 21
29.7782783059
 31
0.0
  0
LINE
  5
36A
  8
0
  6
CONTINUOUS
 62
     7
 10
112.9176714867
 20
36.9782783059
 30
0.0
 11
112.9176714867
 21
38.7782783059
 31
0.0
  0
LINE
  5
36B
  8
0
  6
CONTINUOUS
 62
     7
 10
112.9176714867
 20
33.3782783059
 30
0.0
 11
112.9176714867
 21
35.1782783059
 31
0.0
  0
LINE
  5
36C
  8
0
  6
CONTINUOUS
 62
     7
 10
47.2050120532
 20
24.2314612419
 30
0.0
 11
41.2050120532
 21
24.2314612419
 31
0.0
  0
LINE
  5
36D
  8
0
  6
CONTINUOUS
 62
     7
 10
41.2050120532
 20
24.2314612419
 30
0.0
 11
41.2050120532
 21
22.4314612419
 31
0.0
  0
LINE
  5
36E
  8
0
  6
CONTINUOUS
 62
     7
 10
41.2050120532
 20
22.4314612419
 30
0.0
 11
47.2050120532
 21
22.4314612419
 31
0.0
  0
LINE
  5
36F
  8
0
  6
CONTINUOUS
 62
     7
 10
1.2050120532
 20
22.4314612419
 30
0.0
 11
7.2050120532
 21
22.4314612419
 31
0.0
  0
LINE
  5
370
  8
0
  6
CONTINUOUS
 62
     7
 10
7.2050120532
 20
22.4314612419
 30
0.0
 11
7.2050120532
 21
24.2314612419
 31
0.0
  0
LINE
  5
371
  8
0
  6
CONTINUOUS
 62
     7
 10
7.2050120532
 20
24.2314612419
 30
0.0
 11
1.2050120532
 21
24.2314612419
 31
0.0
  0
LINE
  5
372
  8
0
  6
CONTINUOUS
 62
     7
 10
1.2050120532
 20
26.0314612419
 30
0.0
 11
7.2050120532
 21
26.0314612419
 31
0.0
  0
LINE
  5
373
  8
0
  6
CONTINUOUS
 62
     7
 10
7.2050120532
 20
26.0314612419
 30
0.0
 11
7.2050120532
 21
27.8314612419
 31
0.0
  0
LINE
  5
374
  8
0
  6
CONTINUOUS
 62
     7
 10
7.2050120532
 20
27.8314612419
 30
0.0
 11
1.2050120532
 21
27.8314612419
 31
0.0
  0
LINE
  5
375
  8
0
  6
CONTINUOUS
 62
     7
 10
47.2050120532
 20
27.8314612419
 30
0.0
 11
41.2050120532
 21
27.8314612419
 31
0.0
  0
LINE
  5
376
  8
0
  6
CONTINUOUS
 62
     7
 10
41.2050120532
 20
27.8314612419
 30
0.0
 11
41.2050120532
 21
26.0314612419
 31
0.0
  0
LINE
  5
377
  8
0
  6
CONTINUOUS
 62
     7
 10
41.2050120532
 20
26.0314612419
 30
0.0
 11
47.2050120532
 21
26.0314612419
 31
0.0
  0
LINE
  5
378
  8
0
  6
CONTINUOUS
 62
     7
 10
1.2050120532
 20
20.6314612419
 30
0.0
 11
47.2050120532
 21
20.6314612419
 31
0.0
  0
LINE
  5
379
  8
0
  6
CONTINUOUS
 62
     7
 10
1.2050120532
 20
29.6314612419
 30
0.0
 11
1.2050120532
 21
27.8314612419
 31
0.0
  0
LINE
  5
37A
  8
0
  6
CONTINUOUS
 62
     7
 10
47.2050120532
 20
29.6314612419
 30
0.0
 11
1.2050120532
 21
29.6314612419
 31
0.0
  0
LINE
  5
37B
  8
0
  6
CONTINUOUS
 62
     7
 10
47.2050120532
 20
20.6314612419
 30
0.0
 11
47.2050120532
 21
22.4314612419
 31
0.0
  0
LINE
  5
37C
  8
0
  6
CONTINUOUS
 62
     7
 10
1.2050120532
 20
26.0314612419
 30
0.0
 11
1.2050120532
 21
24.2314612419
 31
0.0
  0
LINE
  5
37D
  8
0
  6
CONTINUOUS
 62
     7
 10
1.2050120532
 20
22.4314612419
 30
0.0
 11
1.2050120532
 21
20.6314612419
 31
0.0
  0
LINE
  5
37E
  8
0
  6
CONTINUOUS
 62
     7
 10
47.2050120532
 20
27.8314612419
 30
0.0
 11
47.2050120532
 21
29.6314612419
 31
0.0
  0
LINE
  5
37F
  8
0
  6
CONTINUOUS
 62
     7
 10
47.2050120532
 20
24.2314612419
 30
0.0
 11
47.2050120532
 21
26.0314612419
 31
0.0
  0
LINE
  5
380
  8
0
  6
CONTINUOUS
 62
     7
 10
165.2027936818
 20
31.8083983349
 30
0.0
 11
165.2027936818
 21
33.6083983349
 31
0.0
  0
LINE
  5
381
  8
0
  6
CONTINUOUS
 62
     7
 10
168.2027936818
 20
31.8083983349
 30
0.0
 11
165.2027936818
 21
31.8083983349
 31
0.0
  0
LINE
  5
382
  8
0
  6
CONTINUOUS
 62
     7
 10
168.2027936818
 20
33.6083983349
 30
0.0
 11
168.2027936818
 21
31.8083983349
 31
0.0
  0
LINE
  5
383
  8
0
  6
CONTINUOUS
 62
     7
 10
165.2027936818
 20
33.6083983349
 30
0.0
 11
168.2027936818
 21
33.6083983349
 31
0.0
  0
LINE
  5
384
  8
0
  6
CONTINUOUS
 62
     7
 10
165.2027936818
 20
28.2083983349
 30
0.0
 11
165.2027936818
 21
30.0083983349
 31
0.0
  0
LINE
  5
385
  8
0
  6
CONTINUOUS
 62
     7
 10
168.2027936818
 20
28.2083983349
 30
0.0
 11
165.2027936818
 21
28.2083983349
 31
0.0
  0
LINE
  5
386
  8
0
  6
CONTINUOUS
 62
     7
 10
168.2027936818
 20
30.0083983349
 30
0.0
 11
168.2027936818
 21
28.2083983349
 31
0.0
  0
LINE
  5
387
  8
0
  6
CONTINUOUS
 62
     7
 10
165.2027936818
 20
30.0083983349
 30
0.0
 11
168.2027936818
 21
30.0083983349
 31
0.0
  0
LINE
  5
388
  8
0
  6
CONTINUOUS
 62
     7
 10
186.2027936818
 20
23.4083983349
 30
0.0
 11
186.2027936818
 21
20.4083983349
 31
0.0
  0
LINE
  5
389
  8
0
  6
CONTINUOUS
 62
     7
 10
180.2027936818
 20
23.4083983349
 30
0.0
 11
186.2027936818
 21
23.4083983349
 31
0.0
  0
LINE
  5
38A
  8
0
  6
CONTINUOUS
 62
     7
 10
180.2027936818
 20
20.4083983349
 30
0.0
 11
180.2027936818
 21
23.4083983349
 31
0.0
  0
LINE
  5
38B
  8
0
  6
CONTINUOUS
 62
     7
 10
174.2027936818
 20
20.4083983349
 30
0.0
 11
180.2027936818
 21
20.4083983349
 31
0.0
  0
LINE
  5
38C
  8
0
  6
CONTINUOUS
 62
     7
 10
174.2027936818
 20
23.4083983349
 30
0.0
 11
174.2027936818
 21
20.4083983349
 31
0.0
  0
LINE
  5
38D
  8
0
  6
CONTINUOUS
 62
     7
 10
169.2027936818
 20
23.4083983349
 30
0.0
 11
174.2027936818
 21
23.4083983349
 31
0.0
  0
LINE
  5
38E
  8
0
  6
CONTINUOUS
 62
     7
 10
169.2027936818
 20
20.4083983349
 30
0.0
 11
169.2027936818
 21
23.4083983349
 31
0.0
  0
LINE
  5
38F
  8
0
  6
CONTINUOUS
 62
     7
 10
164.2027936818
 20
23.4083983349
 30
0.0
 11
164.2027936818
 21
20.4083983349
 31
0.0
  0
LINE
  5
390
  8
0
  6
CONTINUOUS
 62
     7
 10
159.2027936818
 20
23.4083983349
 30
0.0
 11
164.2027936818
 21
23.4083983349
 31
0.0
  0
LINE
  5
391
  8
0
  6
CONTINUOUS
 62
     7
 10
159.2027936818
 20
20.4083983349
 30
0.0
 11
159.2027936818
 21
23.4083983349
 31
0.0
  0
LINE
  5
392
  8
0
  6
CONTINUOUS
 62
     7
 10
153.2027936818
 20
23.4083983349
 30
0.0
 11
153.2027936818
 21
20.4083983349
 31
0.0
  0
LINE
  5
393
  8
0
  6
CONTINUOUS
 62
     7
 10
147.2027936818
 20
23.4083983349
 30
0.0
 11
153.2027936818
 21
23.4083983349
 31
0.0
  0
LINE
  5
394
  8
0
  6
CONTINUOUS
 62
     7
 10
147.2027936818
 20
20.4083983349
 30
0.0
 11
147.2027936818
 21
23.4083983349
 31
0.0
  0
LINE
  5
395
  8
0
  6
CONTINUOUS
 62
     7
 10
141.2027936818
 20
20.4083983349
 30
0.0
 11
147.2027936818
 21
20.4083983349
 31
0.0
  0
LINE
  5
396
  8
0
  6
CONTINUOUS
 62
     7
 10
141.2027936818
 20
23.4083983349
 30
0.0
 11
141.2027936818
 21
20.4083983349
 31
0.0
  0
LINE
  5
397
  8
0
  6
CONTINUOUS
 62
     7
 10
138.2027936818
 20
26.4083983349
 30
0.0
 11
138.2027936818
 21
23.4083983349
 31
0.0
  0
LINE
  5
398
  8
0
  6
CONTINUOUS
 62
     7
 10
141.2027936818
 20
26.4083983349
 30
0.0
 11
138.2027936818
 21
26.4083983349
 31
0.0
  0
LINE
  5
399
  8
0
  6
CONTINUOUS
 62
     7
 10
141.2027936818
 20
28.2083983349
 30
0.0
 11
141.2027936818
 21
26.4083983349
 31
0.0
  0
LINE
  5
39A
  8
0
  6
CONTINUOUS
 62
     7
 10
135.2027936818
 20
28.2083983349
 30
0.0
 11
141.2027936818
 21
28.2083983349
 31
0.0
  0
LINE
  5
39B
  8
0
  6
CONTINUOUS
 62
     7
 10
141.2027936818
 20
30.0083983349
 30
0.0
 11
135.2027936818
 21
30.0083983349
 31
0.0
  0
LINE
  5
39C
  8
0
  6
CONTINUOUS
 62
     7
 10
141.2027936818
 20
31.8083983349
 30
0.0
 11
141.2027936818
 21
30.0083983349
 31
0.0
  0
LINE
  5
39D
  8
0
  6
CONTINUOUS
 62
     7
 10
135.2027936818
 20
31.8083983349
 30
0.0
 11
141.2027936818
 21
31.8083983349
 31
0.0
  0
LINE
  5
39E
  8
0
  6
CONTINUOUS
 62
     7
 10
135.2027936818
 20
33.6083983349
 30
0.0
 11
135.2027936818
 21
31.8083983349
 31
0.0
  0
LINE
  5
39F
  8
0
  6
CONTINUOUS
 62
     7
 10
141.2027936818
 20
33.6083983349
 30
0.0
 11
135.2027936818
 21
33.6083983349
 31
0.0
  0
LINE
  5
3A0
  8
0
  6
CONTINUOUS
 62
     7
 10
141.2027936818
 20
35.4083983349
 30
0.0
 11
141.2027936818
 21
33.6083983349
 31
0.0
  0
LINE
  5
3A1
  8
0
  6
CONTINUOUS
 62
     7
 10
138.2027936818
 20
35.4083983349
 30
0.0
 11
141.2027936818
 21
35.4083983349
 31
0.0
  0
LINE
  5
3A2
  8
0
  6
CONTINUOUS
 62
     7
 10
138.2027936818
 20
38.4083983349
 30
0.0
 11
138.2027936818
 21
35.4083983349
 31
0.0
  0
LINE
  5
3A3
  8
0
  6
CONTINUOUS
 62
     7
 10
141.2027936818
 20
41.4083983349
 30
0.0
 11
141.2027936818
 21
38.4083983349
 31
0.0
  0
LINE
  5
3A4
  8
0
  6
CONTINUOUS
 62
     7
 10
147.2027936818
 20
38.4083983349
 30
0.0
 11
147.2027936818
 21
41.4083983349
 31
0.0
  0
LINE
  5
3A5
  8
0
  6
CONTINUOUS
 62
     7
 10
153.2027936818
 20
38.4083983349
 30
0.0
 11
147.2027936818
 21
38.4083983349
 31
0.0
  0
LINE
  5
3A6
  8
0
  6
CONTINUOUS
 62
     7
 10
153.2027936818
 20
41.4083983349
 30
0.0
 11
153.2027936818
 21
38.4083983349
 31
0.0
  0
LINE
  5
3A7
  8
0
  6
CONTINUOUS
 62
     7
 10
159.2027936818
 20
38.4083983349
 30
0.0
 11
159.2027936818
 21
41.4083983349
 31
0.0
  0
LINE
  5
3A8
  8
0
  6
CONTINUOUS
 62
     7
 10
164.2027936818
 20
38.4083983349
 30
0.0
 11
159.2027936818
 21
38.4083983349
 31
0.0
  0
LINE
  5
3A9
  8
0
  6
CONTINUOUS
 62
     7
 10
164.2027936818
 20
41.4083983349
 30
0.0
 11
164.2027936818
 21
38.4083983349
 31
0.0
  0
LINE
  5
3AA
  8
0
  6
CONTINUOUS
 62
     7
 10
169.2027936818
 20
41.4083983349
 30
0.0
 11
164.2027936818
 21
41.4083983349
 31
0.0
  0
LINE
  5
3AB
  8
0
  6
CONTINUOUS
 62
     7
 10
169.2027936818
 20
38.4083983349
 30
0.0
 11
169.2027936818
 21
41.4083983349
 31
0.0
  0
LINE
  5
3AC
  8
0
  6
CONTINUOUS
 62
     7
 10
174.2027936818
 20
38.4083983349
 30
0.0
 11
169.2027936818
 21
38.4083983349
 31
0.0
  0
LINE
  5
3AD
  8
0
  6
CONTINUOUS
 62
     7
 10
174.2027936818
 20
41.4083983349
 30
0.0
 11
174.2027936818
 21
38.4083983349
 31
0.0
  0
LINE
  5
3AE
  8
0
  6
CONTINUOUS
 62
     7
 10
180.2027936818
 20
38.4083983349
 30
0.0
 11
180.2027936818
 21
41.4083983349
 31
0.0
  0
LINE
  5
3AF
  8
0
  6
CONTINUOUS
 62
     7
 10
186.2027936818
 20
38.4083983349
 30
0.0
 11
180.2027936818
 21
38.4083983349
 31
0.0
  0
LINE
  5
3B0
  8
0
  6
CONTINUOUS
 62
     7
 10
186.2027936818
 20
41.4083983349
 30
0.0
 11
186.2027936818
 21
38.4083983349
 31
0.0
  0
LINE
  5
3B1
  8
0
  6
CONTINUOUS
 62
     7
 10
192.2027936818
 20
38.4083983349
 30
0.0
 11
192.2027936818
 21
41.4083983349
 31
0.0
  0
LINE
  5
3B2
  8
0
  6
CONTINUOUS
 62
     7
 10
195.2027936818
 20
35.4083983349
 30
0.0
 11
195.2027936818
 21
38.4083983349
 31
0.0
  0
LINE
  5
3B3
  8
0
  6
CONTINUOUS
 62
     7
 10
192.2027936818
 20
35.4083983349
 30
0.0
 11
195.2027936818
 21
35.4083983349
 31
0.0
  0
LINE
  5
3B4
  8
0
  6
CONTINUOUS
 62
     7
 10
192.2027936818
 20
33.6083983349
 30
0.0
 11
192.2027936818
 21
35.4083983349
 31
0.0
  0
LINE
  5
3B5
  8
0
  6
CONTINUOUS
 62
     7
 10
198.2027936818
 20
33.6083983349
 30
0.0
 11
192.2027936818
 21
33.6083983349
 31
0.0
  0
LINE
  5
3B6
  8
0
  6
CONTINUOUS
 62
     7
 10
192.2027936818
 20
31.8083983349
 30
0.0
 11
198.2027936818
 21
31.8083983349
 31
0.0
  0
LINE
  5
3B7
  8
0
  6
CONTINUOUS
 62
     7
 10
192.2027936818
 20
30.0083983349
 30
0.0
 11
192.2027936818
 21
31.8083983349
 31
0.0
  0
LINE
  5
3B8
  8
0
  6
CONTINUOUS
 62
     7
 10
198.2027936818
 20
30.0083983349
 30
0.0
 11
192.2027936818
 21
30.0083983349
 31
0.0
  0
LINE
  5
3B9
  8
0
  6
CONTINUOUS
 62
     7
 10
192.2027936818
 20
28.2083983349
 30
0.0
 11
198.2027936818
 21
28.2083983349
 31
0.0
  0
LINE
  5
3BA
  8
0
  6
CONTINUOUS
 62
     7
 10
192.2027936818
 20
26.4083983349
 30
0.0
 11
192.2027936818
 21
28.2083983349
 31
0.0
  0
LINE
  5
3BB
  8
0
  6
CONTINUOUS
 62
     7
 10
195.2027936818
 20
26.4083983349
 30
0.0
 11
192.2027936818
 21
26.4083983349
 31
0.0
  0
LINE
  5
3BC
  8
0
  6
CONTINUOUS
 62
     7
 10
195.2027936818
 20
23.4083983349
 30
0.0
 11
195.2027936818
 21
26.4083983349
 31
0.0
  0
LINE
  5
3BD
  8
0
  6
CONTINUOUS
 62
     7
 10
192.2027936818
 20
20.4083983349
 30
0.0
 11
192.2027936818
 21
23.4083983349
 31
0.0
  0
LINE
  5
3BE
  8
0
  6
CONTINUOUS
 62
     7
 10
186.2027936818
 20
20.4083983349
 30
0.0
 11
192.2027936818
 21
20.4083983349
 31
0.0
  0
LINE
  5
3BF
  8
0
  6
CONTINUOUS
 62
     7
 10
159.2027936818
 20
41.4083983349
 30
0.0
 11
153.2027936818
 21
41.4083983349
 31
0.0
  0
LINE
  5
3C0
  8
0
  6
CONTINUOUS
 62
     7
 10
198.2027936818
 20
31.8083983349
 30
0.0
 11
198.2027936818
 21
33.6083983349
 31
0.0
  0
LINE
  5
3C1
  8
0
  6
CONTINUOUS
 62
     7
 10
198.2027936818
 20
28.2083983349
 30
0.0
 11
198.2027936818
 21
30.0083983349
 31
0.0
  0
LINE
  5
3C2
  8
0
  6
CONTINUOUS
 62
     7
 10
135.2027936818
 20
30.0083983349
 30
0.0
 11
135.2027936818
 21
28.2083983349
 31
0.0
  0
LINE
  5
3C3
  8
0
  6
CONTINUOUS
 62
     7
 10
147.2027936818
 20
41.4083983349
 30
0.0
 11
141.2027936818
 21
41.4083983349
 31
0.0
  0
LINE
  5
3C4
  8
0
  6
CONTINUOUS
 62
     7
 10
192.2027936818
 20
41.4083983349
 30
0.0
 11
186.2027936818
 21
41.4083983349
 31
0.0
  0
LINE
  5
3C5
  8
0
  6
CONTINUOUS
 62
     7
 10
180.2027936818
 20
41.4083983349
 30
0.0
 11
174.2027936818
 21
41.4083983349
 31
0.0
  0
LINE
  5
3C6
  8
0
  6
CONTINUOUS
 62
     7
 10
164.2027936818
 20
20.4083983349
 30
0.0
 11
169.2027936818
 21
20.4083983349
 31
0.0
  0
LINE
  5
3C7
  8
0
  6
CONTINUOUS
 62
     7
 10
153.2027936818
 20
20.4083983349
 30
0.0
 11
159.2027936818
 21
20.4083983349
 31
0.0
  0
LINE
  5
3C8
  8
0
  6
CONTINUOUS
 62
     7
 10
141.2027936818
 20
38.4083983349
 30
0.0
 11
138.2027936818
 21
38.4083983349
 31
0.0
  0
LINE
  5
3C9
  8
0
  6
CONTINUOUS
 62
     7
 10
195.2027936818
 20
38.4083983349
 30
0.0
 11
192.2027936818
 21
38.4083983349
 31
0.0
  0
LINE
  5
3CA
  8
0
  6
CONTINUOUS
 62
     7
 10
138.2027936818
 20
23.4083983349
 30
0.0
 11
141.2027936818
 21
23.4083983349
 31
0.0
  0
LINE
  5
3CB
  8
0
  6
CONTINUOUS
 62
     7
 10
192.2027936818
 20
23.4083983349
 30
0.0
 11
195.2027936818
 21
23.4083983349
 31
0.0
  0
ENDSEC
  0
EOF
