<?xml version="1.0" encoding="UTF-8"?>
<!DOCTYPE svg PUBLIC "-//W3C//DTD SVG 1.1//EN" "http://www.w3.org/Graphics/SVG/1.1/DTD/svg11.dtd">
<!-- Creator: CorelDRAW -->
<svg xmlns="http://www.w3.org/2000/svg" xml:space="preserve" width="24in" height="12in" style="shape-rendering:geometricPrecision; text-rendering:geometricPrecision; image-rendering:optimizeQuality; fill-rule:evenodd; clip-rule:evenodd"
viewBox="0 0 24 12"
 xmlns:xlink="http://www.w3.org/1999/xlink">
 <defs>
  <style type="text/css">
   <![CDATA[
    .str0 {stroke:black;stroke-width:0.003}
    .fil0 {fill:none}
   ]]>
  </style>
 </defs>
 <g id="Layer_x0020_1">
  <metadata id="CorelCorpID_0Corel-Layer"/>
  <g id="_219203848">
   <g>
    <line id="_219464960" class="fil0 str0" x1="0.562618" y1="7" x2="0.187618" y2= "7" />
    <line id="_219464864" class="fil0 str0" x1="0.562618" y1="6.8125" x2="0.187618" y2= "6.8125" />
    <line id="_219464768" class="fil0 str0" x1="0.562618" y1="6.625" x2="0.187618" y2= "6.625" />
    <line id="_219464672" class="fil0 str0" x1="0.562618" y1="6.4375" x2="0.187618" y2= "6.4375" />
    <line id="_219464576" class="fil0 str0" x1="0.562618" y1="6.25" x2="0.187618" y2= "6.25" />
    <line id="_219464480" class="fil0 str0" x1="0.562618" y1="6.0625" x2="0.187618" y2= "6.0625" />
    <line id="_219464384" class="fil0 str0" x1="0.562618" y1="5.875" x2="0.187618" y2= "5.875" />
    <line id="_219464288" class="fil0 str0" x1="0.562618" y1="5.6875" x2="0.187618" y2= "5.6875" />
    <line id="_219464192" class="fil0 str0" x1="0.562618" y1="5.5" x2="0.187618" y2= "5.5" />
    <line id="_219464096" class="fil0 str0" x1="0.562618" y1="5.3125" x2="0.187618" y2= "5.3125" />
    <line id="_219464000" class="fil0 str0" x1="0.562618" y1="5.125" x2="0.187618" y2= "5.125" />
    <line id="_219463904" class="fil0 str0" x1="0.562618" y1="4.9375" x2="0.187618" y2= "4.9375" />
    <line id="_219463808" class="fil0 str0" x1="0.562618" y1="4.75" x2="0.187618" y2= "4.75" />
    <line id="_219463712" class="fil0 str0" x1="0.562618" y1="4.5625" x2="0.187618" y2= "4.5625" />
    <line id="_219463616" class="fil0 str0" x1="0.562618" y1="4.375" x2="0.187618" y2= "4.375" />
    <line id="_219463520" class="fil0 str0" x1="0.562618" y1="4.1875" x2="0.187618" y2= "4.1875" />
    <line id="_219463424" class="fil0 str0" x1="0.562618" y1="4" x2="0.187618" y2= "4" />
    <line id="_219463328" class="fil0 str0" x1="0.562618" y1="3.8125" x2="0.187618" y2= "3.8125" />
    <line id="_219463232" class="fil0 str0" x1="0.562618" y1="3.625" x2="0.187618" y2= "3.625" />
    <line id="_219463136" class="fil0 str0" x1="0.562618" y1="3.4375" x2="0.187618" y2= "3.4375" />
    <line id="_219463040" class="fil0 str0" x1="0.562618" y1="3.25" x2="0.187618" y2= "3.25" />
    <line id="_219462944" class="fil0 str0" x1="0.562618" y1="3.0625" x2="0.187618" y2= "3.0625" />
    <line id="_219462848" class="fil0 str0" x1="0.562618" y1="2.875" x2="0.187618" y2= "2.875" />
    <line id="_219462752" class="fil0 str0" x1="0.562618" y1="2.6875" x2="0.187618" y2= "2.6875" />
    <line id="_219462656" class="fil0 str0" x1="0.562618" y1="2.5" x2="0.187618" y2= "2.5" />
    <line id="_219462560" class="fil0 str0" x1="0.562618" y1="2.3125" x2="0.187618" y2= "2.3125" />
    <line id="_219462464" class="fil0 str0" x1="0.562618" y1="2.125" x2="0.187618" y2= "2.125" />
    <line id="_219462368" class="fil0 str0" x1="0.562618" y1="1.9375" x2="0.187618" y2= "1.9375" />
    <line id="_219462272" class="fil0 str0" x1="0.562618" y1="1.75" x2="0.187618" y2= "1.75" />
    <line id="_219462176" class="fil0 str0" x1="0.562618" y1="1.5625" x2="0.187618" y2= "1.5625" />
    <line id="_219462080" class="fil0 str0" x1="0.562618" y1="1.375" x2="0.187618" y2= "1.375" />
    <line id="_219461984" class="fil0 str0" x1="0.562618" y1="1.1875" x2="0.187618" y2= "1.1875" />
    <line id="_219461888" class="fil0 str0" x1="1.06312" y1="7" x2="0.688118" y2= "7" />
    <line id="_219461792" class="fil0 str0" x1="1.06312" y1="6.8125" x2="0.688118" y2= "6.8125" />
    <line id="_219461696" class="fil0 str0" x1="1.06312" y1="6.625" x2="0.688118" y2= "6.625" />
    <line id="_219461600" class="fil0 str0" x1="1.06312" y1="6.4375" x2="0.688118" y2= "6.4375" />
    <line id="_219461504" class="fil0 str0" x1="1.06312" y1="6.25" x2="0.688118" y2= "6.25" />
    <line id="_219461408" class="fil0 str0" x1="1.06312" y1="6.0625" x2="0.688118" y2= "6.0625" />
    <line id="_219461312" class="fil0 str0" x1="1.06312" y1="5.875" x2="0.688118" y2= "5.875" />
    <line id="_219461216" class="fil0 str0" x1="1.06312" y1="5.6875" x2="0.688118" y2= "5.6875" />
    <line id="_219461120" class="fil0 str0" x1="1.06312" y1="5.5" x2="0.688118" y2= "5.5" />
    <line id="_219461024" class="fil0 str0" x1="1.06312" y1="5.3125" x2="0.688118" y2= "5.3125" />
    <line id="_219460928" class="fil0 str0" x1="1.06312" y1="5.125" x2="0.688118" y2= "5.125" />
    <line id="_219460832" class="fil0 str0" x1="1.06312" y1="4.9375" x2="0.688118" y2= "4.9375" />
    <line id="_219460736" class="fil0 str0" x1="1.06312" y1="4.75" x2="0.688118" y2= "4.75" />
    <line id="_219460640" class="fil0 str0" x1="1.06312" y1="4.5625" x2="0.688118" y2= "4.5625" />
    <line id="_219460544" class="fil0 str0" x1="1.06312" y1="4.375" x2="0.688118" y2= "4.375" />
    <line id="_219460448" class="fil0 str0" x1="1.06312" y1="4.1875" x2="0.688118" y2= "4.1875" />
    <line id="_219460352" class="fil0 str0" x1="1.06312" y1="4" x2="0.688118" y2= "4" />
    <line id="_219460256" class="fil0 str0" x1="1.06312" y1="3.8125" x2="0.688118" y2= "3.8125" />
    <line id="_219460160" class="fil0 str0" x1="1.06312" y1="3.625" x2="0.688118" y2= "3.625" />
    <line id="_219460064" class="fil0 str0" x1="1.06312" y1="3.4375" x2="0.688118" y2= "3.4375" />
    <line id="_219459968" class="fil0 str0" x1="1.06312" y1="3.25" x2="0.688118" y2= "3.25" />
    <line id="_219459872" class="fil0 str0" x1="1.06312" y1="3.0625" x2="0.688118" y2= "3.0625" />
    <line id="_219459776" class="fil0 str0" x1="1.06312" y1="2.875" x2="0.688118" y2= "2.875" />
    <line id="_219459680" class="fil0 str0" x1="1.06312" y1="2.6875" x2="0.688118" y2= "2.6875" />
    <line id="_219459584" class="fil0 str0" x1="1.06312" y1="2.5" x2="0.688118" y2= "2.5" />
    <line id="_219459488" class="fil0 str0" x1="1.06312" y1="2.3125" x2="0.688118" y2= "2.3125" />
    <line id="_219459392" class="fil0 str0" x1="1.06312" y1="2.125" x2="0.688118" y2= "2.125" />
    <line id="_219459296" class="fil0 str0" x1="1.06312" y1="1.9375" x2="0.688118" y2= "1.9375" />
    <line id="_219213424" class="fil0 str0" x1="1.06312" y1="1.75" x2="0.688118" y2= "1.75" />
    <line id="_219213328" class="fil0 str0" x1="1.06312" y1="1.5625" x2="0.688118" y2= "1.5625" />
    <line id="_219213232" class="fil0 str0" x1="1.06312" y1="1.375" x2="0.688118" y2= "1.375" />
    <line id="_219213136" class="fil0 str0" x1="1.06312" y1="1.1875" x2="0.688118" y2= "1.1875" />
    <line id="_219213040" class="fil0 str0" x1="0.125004" y1="6.90625" x2="0.312618" y2= "6.90625" />
    <line id="_219212944" class="fil0 str0" x1="0.125004" y1="6.71875" x2="0.312618" y2= "6.71875" />
    <line id="_219212848" class="fil0 str0" x1="0.125004" y1="6.53125" x2="0.312618" y2= "6.53125" />
    <line id="_219212752" class="fil0 str0" x1="0.125004" y1="6.34375" x2="0.312618" y2= "6.34375" />
    <line id="_219212656" class="fil0 str0" x1="0.125004" y1="6.15625" x2="0.312618" y2= "6.15625" />
    <line id="_219212560" class="fil0 str0" x1="0.125004" y1="5.96875" x2="0.312618" y2= "5.96875" />
    <line id="_219212464" class="fil0 str0" x1="0.125004" y1="5.78125" x2="0.312618" y2= "5.78125" />
    <line id="_219212368" class="fil0 str0" x1="0.125004" y1="5.59375" x2="0.312618" y2= "5.59375" />
    <line id="_219212272" class="fil0 str0" x1="0.125004" y1="5.40625" x2="0.312618" y2= "5.40625" />
    <line id="_219212176" class="fil0 str0" x1="0.125004" y1="5.21875" x2="0.312618" y2= "5.21875" />
    <line id="_219212080" class="fil0 str0" x1="0.125004" y1="5.03125" x2="0.312618" y2= "5.03125" />
    <line id="_219211984" class="fil0 str0" x1="0.125004" y1="4.84375" x2="0.312618" y2= "4.84375" />
    <line id="_219211888" class="fil0 str0" x1="0.125004" y1="4.65625" x2="0.312618" y2= "4.65625" />
    <line id="_219211792" class="fil0 str0" x1="0.125004" y1="4.46875" x2="0.312618" y2= "4.46875" />
    <line id="_219211696" class="fil0 str0" x1="0.125004" y1="4.28125" x2="0.312618" y2= "4.28125" />
    <line id="_219211600" class="fil0 str0" x1="0.125004" y1="4.09375" x2="0.312618" y2= "4.09375" />
    <line id="_219211504" class="fil0 str0" x1="0.125004" y1="3.90625" x2="0.312618" y2= "3.90625" />
    <line id="_219211408" class="fil0 str0" x1="0.125004" y1="3.71875" x2="0.312618" y2= "3.71875" />
    <line id="_219211312" class="fil0 str0" x1="0.125004" y1="3.53125" x2="0.312618" y2= "3.53125" />
    <line id="_219211216" class="fil0 str0" x1="0.125004" y1="3.34375" x2="0.312618" y2= "3.34375" />
    <line id="_219211120" class="fil0 str0" x1="0.125004" y1="3.15625" x2="0.312618" y2= "3.15625" />
    <line id="_219211024" class="fil0 str0" x1="0.125004" y1="2.96875" x2="0.312618" y2= "2.96875" />
    <line id="_219210928" class="fil0 str0" x1="0.125004" y1="2.78125" x2="0.312618" y2= "2.78125" />
    <line id="_219210832" class="fil0 str0" x1="0.125004" y1="2.59375" x2="0.312618" y2= "2.59375" />
    <line id="_219210736" class="fil0 str0" x1="0.125004" y1="2.40625" x2="0.312618" y2= "2.40625" />
    <line id="_219210640" class="fil0 str0" x1="0.125004" y1="2.21875" x2="0.312618" y2= "2.21875" />
    <line id="_219210544" class="fil0 str0" x1="0.125004" y1="2.03125" x2="0.312618" y2= "2.03125" />
    <line id="_219210448" class="fil0 str0" x1="0.125004" y1="1.84375" x2="0.312618" y2= "1.84375" />
    <line id="_219210352" class="fil0 str0" x1="0.125004" y1="1.65625" x2="0.312618" y2= "1.65625" />
    <line id="_219210256" class="fil0 str0" x1="0.125004" y1="1.46875" x2="0.312618" y2= "1.46875" />
    <line id="_219210160" class="fil0 str0" x1="0.125004" y1="1.28125" x2="0.312618" y2= "1.28125" />
    <line id="_219210064" class="fil0 str0" x1="0.437618" y1="6.90625" x2="0.813618" y2= "6.90625" />
    <line id="_219209968" class="fil0 str0" x1="0.437618" y1="6.71875" x2="0.813618" y2= "6.71875" />
    <line id="_219209872" class="fil0 str0" x1="0.437618" y1="6.53125" x2="0.813618" y2= "6.53125" />
    <line id="_219209776" class="fil0 str0" x1="0.437618" y1="6.34375" x2="0.813618" y2= "6.34375" />
    <line id="_219209680" class="fil0 str0" x1="0.437618" y1="6.15625" x2="0.813618" y2= "6.15625" />
    <line id="_219209584" class="fil0 str0" x1="0.437618" y1="5.96875" x2="0.813618" y2= "5.96875" />
    <line id="_219209488" class="fil0 str0" x1="0.437618" y1="5.78125" x2="0.813618" y2= "5.78125" />
    <line id="_219209392" class="fil0 str0" x1="0.437618" y1="5.59375" x2="0.813618" y2= "5.59375" />
    <line id="_219209296" class="fil0 str0" x1="0.437618" y1="5.40625" x2="0.813618" y2= "5.40625" />
    <line id="_219209200" class="fil0 str0" x1="0.437618" y1="5.21875" x2="0.813618" y2= "5.21875" />
    <line id="_219209104" class="fil0 str0" x1="0.437618" y1="5.03125" x2="0.813618" y2= "5.03125" />
    <line id="_219209008" class="fil0 str0" x1="0.437618" y1="4.84375" x2="0.813618" y2= "4.84375" />
    <line id="_219208912" class="fil0 str0" x1="0.437618" y1="4.65625" x2="0.813618" y2= "4.65625" />
    <line id="_219208816" class="fil0 str0" x1="0.437618" y1="4.46875" x2="0.813618" y2= "4.46875" />
    <line id="_219208720" class="fil0 str0" x1="0.437618" y1="4.28125" x2="0.813618" y2= "4.28125" />
    <line id="_219208624" class="fil0 str0" x1="0.437618" y1="4.09375" x2="0.813618" y2= "4.09375" />
    <line id="_219208528" class="fil0 str0" x1="0.437618" y1="3.90625" x2="0.813618" y2= "3.90625" />
    <line id="_219208432" class="fil0 str0" x1="0.437618" y1="3.71875" x2="0.813618" y2= "3.71875" />
    <line id="_219208336" class="fil0 str0" x1="0.437618" y1="3.53125" x2="0.813618" y2= "3.53125" />
    <line id="_219208240" class="fil0 str0" x1="0.437618" y1="3.34375" x2="0.813618" y2= "3.34375" />
    <line id="_219208144" class="fil0 str0" x1="0.437618" y1="3.15625" x2="0.813618" y2= "3.15625" />
    <line id="_219208048" class="fil0 str0" x1="0.437618" y1="2.96875" x2="0.813618" y2= "2.96875" />
    <line id="_219207952" class="fil0 str0" x1="0.437618" y1="2.78125" x2="0.813618" y2= "2.78125" />
    <line id="_219207856" class="fil0 str0" x1="0.437618" y1="2.59375" x2="0.813618" y2= "2.59375" />
    <line id="_219207760" class="fil0 str0" x1="0.437618" y1="2.40625" x2="0.813618" y2= "2.40625" />
    <line id="_219207664" class="fil0 str0" x1="0.437618" y1="2.21875" x2="0.813618" y2= "2.21875" />
    <line id="_219207568" class="fil0 str0" x1="0.437618" y1="2.03125" x2="0.813618" y2= "2.03125" />
    <line id="_219207472" class="fil0 str0" x1="0.437618" y1="1.84375" x2="0.813618" y2= "1.84375" />
    <line id="_219207376" class="fil0 str0" x1="0.437618" y1="1.65625" x2="0.813618" y2= "1.65625" />
    <line id="_219207280" class="fil0 str0" x1="0.437618" y1="1.46875" x2="0.813618" y2= "1.46875" />
    <line id="_219207184" class="fil0 str0" x1="0.437618" y1="1.28125" x2="0.813618" y2= "1.28125" />
    <line id="_219207088" class="fil0 str0" x1="0.938618" y1="6.90625" x2="1.125" y2= "6.90625" />
    <line id="_219206992" class="fil0 str0" x1="0.938618" y1="6.71875" x2="1.125" y2= "6.71875" />
    <line id="_219206896" class="fil0 str0" x1="0.938618" y1="6.53125" x2="1.125" y2= "6.53125" />
    <line id="_219206800" class="fil0 str0" x1="0.938618" y1="6.34375" x2="1.125" y2= "6.34375" />
    <line id="_219206704" class="fil0 str0" x1="0.938618" y1="6.15625" x2="1.125" y2= "6.15625" />
    <line id="_219206608" class="fil0 str0" x1="0.938618" y1="5.96875" x2="1.125" y2= "5.96875" />
    <line id="_219206512" class="fil0 str0" x1="0.938618" y1="5.78125" x2="1.125" y2= "5.78125" />
    <line id="_219206416" class="fil0 str0" x1="0.938618" y1="5.59375" x2="1.125" y2= "5.59375" />
    <line id="_219206320" class="fil0 str0" x1="0.938618" y1="5.40625" x2="1.125" y2= "5.40625" />
    <line id="_219206224" class="fil0 str0" x1="0.938618" y1="5.21875" x2="1.125" y2= "5.21875" />
    <line id="_219206128" class="fil0 str0" x1="0.938618" y1="5.03125" x2="1.125" y2= "5.03125" />
    <line id="_219206032" class="fil0 str0" x1="0.938618" y1="4.84375" x2="1.125" y2= "4.84375" />
    <line id="_219205936" class="fil0 str0" x1="0.938618" y1="4.65625" x2="1.125" y2= "4.65625" />
    <line id="_219205840" class="fil0 str0" x1="0.938618" y1="4.46875" x2="1.125" y2= "4.46875" />
    <line id="_219205744" class="fil0 str0" x1="0.938618" y1="4.28125" x2="1.125" y2= "4.28125" />
    <line id="_219205648" class="fil0 str0" x1="0.938618" y1="4.09375" x2="1.125" y2= "4.09375" />
    <line id="_219205552" class="fil0 str0" x1="0.938618" y1="3.90625" x2="1.125" y2= "3.90625" />
    <line id="_219205456" class="fil0 str0" x1="0.938618" y1="3.71875" x2="1.125" y2= "3.71875" />
    <line id="_219205360" class="fil0 str0" x1="0.938618" y1="3.53125" x2="1.125" y2= "3.53125" />
    <line id="_219205264" class="fil0 str0" x1="0.938618" y1="3.34375" x2="1.125" y2= "3.34375" />
    <line id="_219205168" class="fil0 str0" x1="0.938618" y1="3.15625" x2="1.125" y2= "3.15625" />
    <line id="_219205072" class="fil0 str0" x1="0.938618" y1="2.96875" x2="1.125" y2= "2.96875" />
    <line id="_219204976" class="fil0 str0" x1="0.938618" y1="2.78125" x2="1.125" y2= "2.78125" />
    <line id="_219204880" class="fil0 str0" x1="0.938618" y1="2.59375" x2="1.125" y2= "2.59375" />
    <line id="_219204784" class="fil0 str0" x1="0.938618" y1="2.40625" x2="1.125" y2= "2.40625" />
    <line id="_219204688" class="fil0 str0" x1="0.938618" y1="2.21875" x2="1.125" y2= "2.21875" />
    <line id="_219204592" class="fil0 str0" x1="0.938618" y1="2.03125" x2="1.125" y2= "2.03125" />
    <line id="_219204496" class="fil0 str0" x1="0.938618" y1="1.84375" x2="1.125" y2= "1.84375" />
    <line id="_219204400" class="fil0 str0" x1="0.938618" y1="1.65625" x2="1.125" y2= "1.65625" />
    <line id="_219204280" class="fil0 str0" x1="0.938618" y1="1.46875" x2="1.125" y2= "1.46875" />
    <line id="_219204136" class="fil0 str0" x1="0.938618" y1="1.28125" x2="1.125" y2= "1.28125" />
   </g>
   <polygon id="_219203992" class="fil0 str0" points="1,0.86 0.125,0.86 0.125004,0.985 0.125004,7 0.125,7 0.125,7.25 0.25,7.25 0.25,7.5 0.125,7.5 0.125,7.75 0.25,7.75 0.25,8 0.125,8 0.125,8.25 0.25,8.25 0.25,8.5 0.125,8.5 0.125,8.75 0.25,8.75 0.25,9 0.125,9 0.125,9.25 0.25,9.25 0.25,9.5 0.125,9.5 0.125,9.75 0.25,9.75 0.25,10 0.125,10 0.125,10.25 0.25,10.25 0.25,10.5 0.125,10.5 0.125,10.75 0.237772,10.75 0.237772,10.875 0.487772,10.875 0.487772,10.75 0.737772,10.75 0.737772,10.875 0.987772,10.875 0.987772,10.75 1.125,10.75 1.125,10.5 1,10.5 1,10.25 1.125,10.25 1.125,10 1,10 1,9.75 1.125,9.75 1.125,9.5 1,9.5 1,9.25 1.125,9.25 1.125,9 1,9 1,8.75 1.125,8.75 1.125,8.5 1,8.5 1,8.25 1.125,8.25 1.125,8 1,8 1,7.75 1.125,7.75 1.125,7.5 1,7.5 1,7.25 1.125,7.25 1.125,7 1.125,1.11 0.625004,1.11 0.625004,0.985 1,0.985 "/>
   <path id="_219203896" class="fil0 str0" d="M1.125 10.75l0.25 0 0 0.125 0.25 0 0 -0.125 0.25 0 0 0.125 0.25 0 0 -0.125 0.25 0 0 0.125 0.25 0 0 -0.125 0.25 0 0 0.125 0.25 0 0 -0.125 0.25 0 0 0.125 0.25 0 0 -0.125 0.25 0 0 0.125 0.25 0 0 -0.125 0.25 0 0 0.125 0.25 0 0 -0.125 0.25 0c1.03553,0 1.875,-0.839465 1.875,-1.875 0,-1.03554 -0.839469,-1.875 -1.875,-1.875l-0.125 0 0 -0.125 0.120898 0c-1.5748e-005,-0.000220472 -2.75591e-005,-0.000437008 -4.33071e-005,-0.00065748 -0.0646417,-0.976941 -0.877547,-1.74934 -1.87085,-1.74934 -1.03553,0 -1.875,0.839465 -1.875,1.875"/>
  </g>
  <g id="_217967240">
   <g>
    <line id="_219203752" class="fil0 str0" x1="7.81261" y1="4" x2="7.43761" y2= "4" />
    <line id="_219203656" class="fil0 str0" x1="7.81261" y1="4.1875" x2="7.43761" y2= "4.1875" />
    <line id="_219203560" class="fil0 str0" x1="7.81261" y1="4.375" x2="7.43761" y2= "4.375" />
    <line id="_219203464" class="fil0 str0" x1="7.81261" y1="4.5625" x2="7.43761" y2= "4.5625" />
    <line id="_219203368" class="fil0 str0" x1="7.81261" y1="4.75" x2="7.43761" y2= "4.75" />
    <line id="_219203272" class="fil0 str0" x1="7.81261" y1="4.9375" x2="7.43761" y2= "4.9375" />
    <line id="_219203176" class="fil0 str0" x1="7.81261" y1="5.125" x2="7.43761" y2= "5.125" />
    <line id="_219203080" class="fil0 str0" x1="7.81261" y1="5.3125" x2="7.43761" y2= "5.3125" />
    <line id="_219202984" class="fil0 str0" x1="7.81261" y1="5.5" x2="7.43761" y2= "5.5" />
    <line id="_219202888" class="fil0 str0" x1="7.81261" y1="5.6875" x2="7.43761" y2= "5.6875" />
    <line id="_219202792" class="fil0 str0" x1="7.81261" y1="5.875" x2="7.43761" y2= "5.875" />
    <line id="_219202696" class="fil0 str0" x1="7.81261" y1="6.0625" x2="7.43761" y2= "6.0625" />
    <line id="_219202600" class="fil0 str0" x1="7.81261" y1="6.25" x2="7.43761" y2= "6.25" />
    <line id="_219202504" class="fil0 str0" x1="7.81261" y1="6.4375" x2="7.43761" y2= "6.4375" />
    <line id="_219202408" class="fil0 str0" x1="7.81261" y1="6.625" x2="7.43761" y2= "6.625" />
    <line id="_219202312" class="fil0 str0" x1="7.81261" y1="6.8125" x2="7.43761" y2= "6.8125" />
    <line id="_219202216" class="fil0 str0" x1="7.81261" y1="7" x2="7.43761" y2= "7" />
    <line id="_219202120" class="fil0 str0" x1="7.81261" y1="7.1875" x2="7.43761" y2= "7.1875" />
    <line id="_219202024" class="fil0 str0" x1="7.81261" y1="7.375" x2="7.43761" y2= "7.375" />
    <line id="_219201928" class="fil0 str0" x1="7.81261" y1="7.5625" x2="7.43761" y2= "7.5625" />
    <line id="_219201832" class="fil0 str0" x1="7.81261" y1="7.75" x2="7.43761" y2= "7.75" />
    <line id="_219201736" class="fil0 str0" x1="7.81261" y1="7.9375" x2="7.43761" y2= "7.9375" />
    <line id="_219201640" class="fil0 str0" x1="7.81261" y1="8.125" x2="7.43761" y2= "8.125" />
    <line id="_219201544" class="fil0 str0" x1="7.81261" y1="8.3125" x2="7.43761" y2= "8.3125" />
    <line id="_219201448" class="fil0 str0" x1="7.81261" y1="8.5" x2="7.43761" y2= "8.5" />
    <line id="_219201352" class="fil0 str0" x1="7.81261" y1="8.6875" x2="7.43761" y2= "8.6875" />
    <line id="_219201256" class="fil0 str0" x1="7.81261" y1="8.875" x2="7.43761" y2= "8.875" />
    <line id="_219201160" class="fil0 str0" x1="7.81261" y1="9.0625" x2="7.43761" y2= "9.0625" />
    <line id="_219201064" class="fil0 str0" x1="7.81261" y1="9.25" x2="7.43761" y2= "9.25" />
    <line id="_219200968" class="fil0 str0" x1="7.81261" y1="9.4375" x2="7.43761" y2= "9.4375" />
    <line id="_219200872" class="fil0 str0" x1="7.81261" y1="9.625" x2="7.43761" y2= "9.625" />
    <line id="_219200776" class="fil0 str0" x1="7.81261" y1="9.8125" x2="7.43761" y2= "9.8125" />
    <line id="_219200680" class="fil0 str0" x1="8.31311" y1="4" x2="7.93811" y2= "4" />
    <line id="_219200584" class="fil0 str0" x1="8.31311" y1="4.1875" x2="7.93811" y2= "4.1875" />
    <line id="_219200488" class="fil0 str0" x1="8.31311" y1="4.375" x2="7.93811" y2= "4.375" />
    <line id="_219200392" class="fil0 str0" x1="8.31311" y1="4.5625" x2="7.93811" y2= "4.5625" />
    <line id="_219200296" class="fil0 str0" x1="8.31311" y1="4.75" x2="7.93811" y2= "4.75" />
    <line id="_219200200" class="fil0 str0" x1="8.31311" y1="4.9375" x2="7.93811" y2= "4.9375" />
    <line id="_219200104" class="fil0 str0" x1="8.31311" y1="5.125" x2="7.93811" y2= "5.125" />
    <line id="_219200008" class="fil0 str0" x1="8.31311" y1="5.3125" x2="7.93811" y2= "5.3125" />
    <line id="_219199912" class="fil0 str0" x1="8.31311" y1="5.5" x2="7.93811" y2= "5.5" />
    <line id="_219199816" class="fil0 str0" x1="8.31311" y1="5.6875" x2="7.93811" y2= "5.6875" />
    <line id="_219199720" class="fil0 str0" x1="8.31311" y1="5.875" x2="7.93811" y2= "5.875" />
    <line id="_219199624" class="fil0 str0" x1="8.31311" y1="6.0625" x2="7.93811" y2= "6.0625" />
    <line id="_219199528" class="fil0 str0" x1="8.31311" y1="6.25" x2="7.93811" y2= "6.25" />
    <line id="_219199432" class="fil0 str0" x1="8.31311" y1="6.4375" x2="7.93811" y2= "6.4375" />
    <line id="_219199336" class="fil0 str0" x1="8.31311" y1="6.625" x2="7.93811" y2= "6.625" />
    <line id="_219199240" class="fil0 str0" x1="8.31311" y1="6.8125" x2="7.93811" y2= "6.8125" />
    <line id="_219199144" class="fil0 str0" x1="8.31311" y1="7" x2="7.93811" y2= "7" />
    <line id="_219199048" class="fil0 str0" x1="8.31311" y1="7.1875" x2="7.93811" y2= "7.1875" />
    <line id="_219198952" class="fil0 str0" x1="8.31311" y1="7.375" x2="7.93811" y2= "7.375" />
    <line id="_219198856" class="fil0 str0" x1="8.31311" y1="7.5625" x2="7.93811" y2= "7.5625" />
    <line id="_219198760" class="fil0 str0" x1="8.31311" y1="7.75" x2="7.93811" y2= "7.75" />
    <line id="_219198664" class="fil0 str0" x1="8.31311" y1="7.9375" x2="7.93811" y2= "7.9375" />
    <line id="_219198568" class="fil0 str0" x1="8.31311" y1="8.125" x2="7.93811" y2= "8.125" />
    <line id="_219198472" class="fil0 str0" x1="8.31311" y1="8.3125" x2="7.93811" y2= "8.3125" />
    <line id="_219198376" class="fil0 str0" x1="8.31311" y1="8.5" x2="7.93811" y2= "8.5" />
    <line id="_219198280" class="fil0 str0" x1="8.31311" y1="8.6875" x2="7.93811" y2= "8.6875" />
    <line id="_219198184" class="fil0 str0" x1="8.31311" y1="8.875" x2="7.93811" y2= "8.875" />
    <line id="_219198088" class="fil0 str0" x1="8.31311" y1="9.0625" x2="7.93811" y2= "9.0625" />
    <line id="_219197992" class="fil0 str0" x1="8.31311" y1="9.25" x2="7.93811" y2= "9.25" />
    <line id="_219197896" class="fil0 str0" x1="8.31311" y1="9.4375" x2="7.93811" y2= "9.4375" />
    <line id="_219197800" class="fil0 str0" x1="8.31311" y1="9.625" x2="7.93811" y2= "9.625" />
    <line id="_219197704" class="fil0 str0" x1="8.31311" y1="9.8125" x2="7.93811" y2= "9.8125" />
    <line id="_219197608" class="fil0 str0" x1="7.375" y1="4.09375" x2="7.56261" y2= "4.09375" />
    <line id="_219197512" class="fil0 str0" x1="7.375" y1="4.28125" x2="7.56261" y2= "4.28125" />
    <line id="_219197416" class="fil0 str0" x1="7.375" y1="4.46875" x2="7.56261" y2= "4.46875" />
    <line id="_219197320" class="fil0 str0" x1="7.375" y1="4.65625" x2="7.56261" y2= "4.65625" />
    <line id="_219197224" class="fil0 str0" x1="7.375" y1="4.84375" x2="7.56261" y2= "4.84375" />
    <line id="_216366336" class="fil0 str0" x1="7.375" y1="5.03125" x2="7.56261" y2= "5.03125" />
    <line id="_216366480" class="fil0 str0" x1="7.375" y1="5.21875" x2="7.56261" y2= "5.21875" />
    <line id="_216380024" class="fil0 str0" x1="7.375" y1="5.40625" x2="7.56261" y2= "5.40625" />
    <line id="_216378560" class="fil0 str0" x1="7.375" y1="5.59375" x2="7.56261" y2= "5.59375" />
    <line id="_218130800" class="fil0 str0" x1="7.375" y1="5.78125" x2="7.56261" y2= "5.78125" />
    <line id="_218131256" class="fil0 str0" x1="7.375" y1="5.96875" x2="7.56261" y2= "5.96875" />
    <line id="_218131640" class="fil0 str0" x1="7.375" y1="6.15625" x2="7.56261" y2= "6.15625" />
    <line id="_218132024" class="fil0 str0" x1="7.375" y1="6.34375" x2="7.56261" y2= "6.34375" />
    <line id="_218132408" class="fil0 str0" x1="7.375" y1="6.53125" x2="7.56261" y2= "6.53125" />
    <line id="_218132792" class="fil0 str0" x1="7.375" y1="6.71875" x2="7.56261" y2= "6.71875" />
    <line id="_218133176" class="fil0 str0" x1="7.375" y1="6.90625" x2="7.56261" y2= "6.90625" />
    <line id="_218133560" class="fil0 str0" x1="7.375" y1="7.09375" x2="7.56261" y2= "7.09375" />
    <line id="_218133944" class="fil0 str0" x1="7.375" y1="7.28125" x2="7.56261" y2= "7.28125" />
    <line id="_218134328" class="fil0 str0" x1="7.375" y1="7.46875" x2="7.56261" y2= "7.46875" />
    <line id="_218131040" class="fil0 str0" x1="7.375" y1="7.65625" x2="7.56261" y2= "7.65625" />
    <line id="_218131424" class="fil0 str0" x1="7.375" y1="7.84375" x2="7.56261" y2= "7.84375" />
    <line id="_218131808" class="fil0 str0" x1="7.375" y1="8.03125" x2="7.56261" y2= "8.03125" />
    <line id="_218132192" class="fil0 str0" x1="7.375" y1="8.21875" x2="7.56261" y2= "8.21875" />
    <line id="_218132576" class="fil0 str0" x1="7.375" y1="8.40625" x2="7.56261" y2= "8.40625" />
    <line id="_218132960" class="fil0 str0" x1="7.375" y1="8.59375" x2="7.56261" y2= "8.59375" />
    <line id="_218133344" class="fil0 str0" x1="7.375" y1="8.78125" x2="7.56261" y2= "8.78125" />
    <line id="_218133728" class="fil0 str0" x1="7.375" y1="8.96875" x2="7.56261" y2= "8.96875" />
    <line id="_218134112" class="fil0 str0" x1="7.375" y1="9.15625" x2="7.56261" y2= "9.15625" />
    <line id="_218130848" class="fil0 str0" x1="7.375" y1="9.34375" x2="7.56261" y2= "9.34375" />
    <line id="_218131016" class="fil0 str0" x1="7.375" y1="9.53125" x2="7.56261" y2= "9.53125" />
    <line id="_218131088" class="fil0 str0" x1="7.375" y1="9.71875" x2="7.56261" y2= "9.71875" />
    <line id="_218131280" class="fil0 str0" x1="7.68761" y1="4.09375" x2="8.06361" y2= "4.09375" />
    <line id="_218131472" class="fil0 str0" x1="7.68761" y1="4.28125" x2="8.06361" y2= "4.28125" />
    <line id="_218131664" class="fil0 str0" x1="7.68761" y1="4.46875" x2="8.06361" y2= "4.46875" />
    <line id="_218131856" class="fil0 str0" x1="7.68761" y1="4.65625" x2="8.06361" y2= "4.65625" />
    <line id="_218132048" class="fil0 str0" x1="7.68761" y1="4.84375" x2="8.06361" y2= "4.84375" />
    <line id="_218132240" class="fil0 str0" x1="7.68761" y1="5.03125" x2="8.06361" y2= "5.03125" />
    <line id="_218132432" class="fil0 str0" x1="7.68761" y1="5.21875" x2="8.06361" y2= "5.21875" />
    <line id="_218132624" class="fil0 str0" x1="7.68761" y1="5.40625" x2="8.06361" y2= "5.40625" />
    <line id="_218132816" class="fil0 str0" x1="7.68761" y1="5.59375" x2="8.06361" y2= "5.59375" />
    <line id="_218133008" class="fil0 str0" x1="7.68761" y1="5.78125" x2="8.06361" y2= "5.78125" />
    <line id="_218133200" class="fil0 str0" x1="7.68761" y1="5.96875" x2="8.06361" y2= "5.96875" />
    <line id="_218133392" class="fil0 str0" x1="7.68761" y1="6.15625" x2="8.06361" y2= "6.15625" />
    <line id="_218133584" class="fil0 str0" x1="7.68761" y1="6.34375" x2="8.06361" y2= "6.34375" />
    <line id="_218133776" class="fil0 str0" x1="7.68761" y1="6.53125" x2="8.06361" y2= "6.53125" />
    <line id="_218133968" class="fil0 str0" x1="7.68761" y1="6.71875" x2="8.06361" y2= "6.71875" />
    <line id="_218134160" class="fil0 str0" x1="7.68761" y1="6.90625" x2="8.06361" y2= "6.90625" />
    <line id="_218129864" class="fil0 str0" x1="7.68761" y1="7.09375" x2="8.06361" y2= "7.09375" />
    <line id="_218129960" class="fil0 str0" x1="7.68761" y1="7.28125" x2="8.06361" y2= "7.28125" />
    <line id="_218130056" class="fil0 str0" x1="7.68761" y1="7.46875" x2="8.06361" y2= "7.46875" />
    <line id="_218130152" class="fil0 str0" x1="7.68761" y1="7.65625" x2="8.06361" y2= "7.65625" />
    <line id="_218130248" class="fil0 str0" x1="7.68761" y1="7.84375" x2="8.06361" y2= "7.84375" />
    <line id="_218130344" class="fil0 str0" x1="7.68761" y1="8.03125" x2="8.06361" y2= "8.03125" />
    <line id="_218130440" class="fil0 str0" x1="7.68761" y1="8.21875" x2="8.06361" y2= "8.21875" />
    <line id="_218130536" class="fil0 str0" x1="7.68761" y1="8.40625" x2="8.06361" y2= "8.40625" />
    <line id="_218129648" class="fil0 str0" x1="7.68761" y1="8.59375" x2="8.06361" y2= "8.59375" />
    <line id="_217975376" class="fil0 str0" x1="7.68761" y1="8.78125" x2="8.06361" y2= "8.78125" />
    <line id="_217975280" class="fil0 str0" x1="7.68761" y1="8.96875" x2="8.06361" y2= "8.96875" />
    <line id="_217975184" class="fil0 str0" x1="7.68761" y1="9.15625" x2="8.06361" y2= "9.15625" />
    <line id="_217975088" class="fil0 str0" x1="7.68761" y1="9.34375" x2="8.06361" y2= "9.34375" />
    <line id="_217974992" class="fil0 str0" x1="7.68761" y1="9.53125" x2="8.06361" y2= "9.53125" />
    <line id="_217974896" class="fil0 str0" x1="7.68761" y1="9.71875" x2="8.06361" y2= "9.71875" />
    <line id="_217974800" class="fil0 str0" x1="8.18861" y1="4.09375" x2="8.375" y2= "4.09375" />
    <line id="_217974704" class="fil0 str0" x1="8.18861" y1="4.28125" x2="8.375" y2= "4.28125" />
    <line id="_217974608" class="fil0 str0" x1="8.18861" y1="4.46875" x2="8.375" y2= "4.46875" />
    <line id="_217974512" class="fil0 str0" x1="8.18861" y1="4.65625" x2="8.375" y2= "4.65625" />
    <line id="_217974416" class="fil0 str0" x1="8.18861" y1="4.84375" x2="8.375" y2= "4.84375" />
    <line id="_217974320" class="fil0 str0" x1="8.18861" y1="5.03125" x2="8.375" y2= "5.03125" />
    <line id="_217974224" class="fil0 str0" x1="8.18861" y1="5.21875" x2="8.375" y2= "5.21875" />
    <line id="_217974128" class="fil0 str0" x1="8.18861" y1="5.40625" x2="8.375" y2= "5.40625" />
    <line id="_217974032" class="fil0 str0" x1="8.18861" y1="5.59375" x2="8.375" y2= "5.59375" />
    <line id="_217973936" class="fil0 str0" x1="8.18861" y1="5.78125" x2="8.375" y2= "5.78125" />
    <line id="_217973840" class="fil0 str0" x1="8.18861" y1="5.96875" x2="8.375" y2= "5.96875" />
    <line id="_217973744" class="fil0 str0" x1="8.18861" y1="6.15625" x2="8.375" y2= "6.15625" />
    <line id="_217973648" class="fil0 str0" x1="8.18861" y1="6.34375" x2="8.375" y2= "6.34375" />
    <line id="_217973552" class="fil0 str0" x1="8.18861" y1="6.53125" x2="8.375" y2= "6.53125" />
    <line id="_217973456" class="fil0 str0" x1="8.18861" y1="6.71875" x2="8.375" y2= "6.71875" />
    <line id="_217973360" class="fil0 str0" x1="8.18861" y1="6.90625" x2="8.375" y2= "6.90625" />
    <line id="_217973264" class="fil0 str0" x1="8.18861" y1="7.09375" x2="8.375" y2= "7.09375" />
    <line id="_217973168" class="fil0 str0" x1="8.18861" y1="7.28125" x2="8.375" y2= "7.28125" />
    <line id="_217973072" class="fil0 str0" x1="8.18861" y1="7.46875" x2="8.375" y2= "7.46875" />
    <line id="_217972976" class="fil0 str0" x1="8.18861" y1="7.65625" x2="8.375" y2= "7.65625" />
    <line id="_217972880" class="fil0 str0" x1="8.18861" y1="7.84375" x2="8.375" y2= "7.84375" />
    <line id="_217972784" class="fil0 str0" x1="8.18861" y1="8.03125" x2="8.375" y2= "8.03125" />
    <line id="_217972688" class="fil0 str0" x1="8.18861" y1="8.21875" x2="8.375" y2= "8.21875" />
    <line id="_217972592" class="fil0 str0" x1="8.18861" y1="8.40625" x2="8.375" y2= "8.40625" />
    <line id="_217972496" class="fil0 str0" x1="8.18861" y1="8.59375" x2="8.375" y2= "8.59375" />
    <line id="_217972400" class="fil0 str0" x1="8.18861" y1="8.78125" x2="8.375" y2= "8.78125" />
    <line id="_217972304" class="fil0 str0" x1="8.18861" y1="8.96875" x2="8.375" y2= "8.96875" />
    <line id="_217967288" class="fil0 str0" x1="8.18861" y1="9.15625" x2="8.375" y2= "9.15625" />
    <line id="_217967936" class="fil0 str0" x1="8.18861" y1="9.34375" x2="8.375" y2= "9.34375" />
    <line id="_217969328" class="fil0 str0" x1="8.18861" y1="9.53125" x2="8.375" y2= "9.53125" />
    <line id="_217967888" class="fil0 str0" x1="8.18861" y1="9.71875" x2="8.375" y2= "9.71875" />
   </g>
   <polygon id="_217970240" class="fil0 str0" points="7.375,0.25 7.375,0.125 7.50909,0.125 7.50909,0.25 7.75909,0.25 7.75909,0.125 8.00909,0.125 8.00909,0.25 8.25909,0.25 8.25909,0.125 8.375,0.125 8.375,0.5 8.25,0.5 8.25,0.75 8.375,0.75 8.375,1 8.25,1 8.25,1.25 8.375,1.25 8.375,1.5 8.25,1.5 8.25,1.75 8.375,1.75 8.375,2 8.25,2 8.25,2.25 8.375,2.25 8.375,2.5 8.25,2.5 8.25,2.75 8.375,2.75 8.375,3 8.25,3 8.25,3.25 8.375,3.25 8.375,3.5 8.25,3.5 8.25,3.75 8.375,3.75 8.375,4 8.375,10.015 8.375,10.14 7.5,10.14 7.5,10.015 7.875,10.015 7.875,9.89 7.375,9.89 7.375,4 7.375,3.75 7.5,3.75 7.5,3.5 7.375,3.5 7.375,3.25 7.5,3.25 7.5,3 7.375,3 7.375,2.75 7.5,2.75 7.5,2.5 7.375,2.5 7.375,2.25 7.5,2.25 7.5,2 7.375,2 7.375,1.75 7.5,1.75 7.5,1.5 7.375,1.5 7.375,1.25 7.5,1.25 7.5,1 7.375,1 7.375,0.75 7.5,0.75 7.5,0.5 7.375,0.5 7.375,0.25 "/>
   <path id="_217968800" class="fil0 str0" d="M7.375 0.25l-0.25 0 0 -0.125 -0.25 0 0 0.125 -0.25 0 0 -0.125 -0.25 0 0 0.125 -0.25 0 0 -0.125 -0.25 0 0 0.125 -0.25 0 0 -0.125 -0.25 0 0 0.125 -0.25 0 0 -0.125 -0.25 0 0 0.125 -0.25 0 0 -0.125 -0.25 0 0 0.125 -0.25 0 0 -0.125 -0.25 0 0 0.125 -0.25 0c-1.03553,0 -1.875,0.839465 -1.875,1.875 0,1.03554 0.839469,1.875 1.875,1.875l0.125 0 0 0.125 -0.120898 0c1.5748e-005,0.000220472 2.75591e-005,0.000437008 4.33071e-005,0.00065748 0.0646417,0.976941 0.877547,1.74934 1.87085,1.74934 1.03553,0 1.875,-0.839465 1.875,-1.875"/>
  </g>
 </g>
</svg>
