<?xml version="1.0" encoding="utf-8"?>
<!-- Generator: Adobe Illustrator 13.0.2, SVG Export Plug-In . SVG Version: 6.00 Build 14948)  -->
<!DOCTYPE svg PUBLIC "-//W3C//DTD SVG 1.1//EN" "http://www.w3.org/Graphics/SVG/1.1/DTD/svg11.dtd">
<svg version="1.1" id="Your_Design" xmlns="http://www.w3.org/2000/svg" xmlns:xlink="http://www.w3.org/1999/xlink" x="0px"
	 y="0px" width="1067.146px" height="1084.366px" viewBox="0 0 1067.146 1084.366" enable-background="new 0 0 1067.146 1084.366"
	 xml:space="preserve">
<g>
	<circle fill="none" stroke="#0000FF" stroke-width="0.0028" cx="727.461" cy="136.402" r="117.638"/>
	<path fill="none" stroke="#0000FF" stroke-width="0.0028" d="M680.645,175.413l-19.521,19.521c-0.279-0.252-0.705-0.25-0.975,0.019
		c-0.277,0.276-0.277,0.726,0,1.002c0.275,0.275,0.721,0.276,0.998,0.005l6.756,6.757c-0.271,0.277-0.271,0.722,0.004,0.997
		c0.277,0.276,0.727,0.276,1.004,0c0.264-0.265,0.268-0.681,0.027-0.96l19.523-19.524c9.242,7.706,20.801,12.719,33.48,13.857
		v27.612c-0.375,0.019-0.676,0.321-0.676,0.701c0,0.392,0.316,0.709,0.709,0.709c0.389,0,0.703-0.313,0.707-0.702h9.557
		c0.004,0.389,0.318,0.702,0.707,0.702c0.393,0,0.709-0.317,0.709-0.709c0-0.374-0.291-0.671-0.658-0.698v-27.616
		c12.677-1.142,24.234-6.158,33.475-13.867l19.521,19.521c-0.252,0.278-0.25,0.705,0.018,0.974c0.277,0.277,0.727,0.277,1.004,0
		c0.275-0.274,0.275-0.72,0.004-0.997l6.756-6.757c0.279,0.272,0.723,0.271,0.998-0.004c0.277-0.277,0.277-0.726,0-1.003
		c-0.264-0.265-0.682-0.268-0.959-0.027l-19.525-19.523c7.707-9.243,12.719-20.803,13.858-33.48h27.61
		c0.02,0.375,0.322,0.676,0.701,0.676c0.393,0,0.709-0.317,0.709-0.709c0-0.389-0.313-0.704-0.701-0.708v-9.556
		c0.389-0.004,0.701-0.318,0.701-0.708c0-0.392-0.316-0.709-0.709-0.709c-0.373,0-0.67,0.292-0.697,0.659h-27.615
		c-1.143-12.678-6.159-24.235-13.868-33.477L793.8,77.869c0.277,0.252,0.705,0.251,0.973-0.018c0.277-0.277,0.277-0.726,0-1.003
		c-0.275-0.274-0.719-0.276-0.996-0.004l-6.758-6.757c0.271-0.277,0.271-0.722-0.004-0.997c-0.277-0.277-0.727-0.277-1.002,0
		c-0.266,0.265-0.27,0.681-0.027,0.96L766.46,89.574c-9.244-7.706-20.803-12.718-33.48-13.856V48.105
		c0.375-0.019,0.676-0.321,0.676-0.701c0-0.392-0.316-0.709-0.709-0.709c-0.389,0-0.703,0.313-0.707,0.702h-9.557
		c-0.004-0.389-0.318-0.702-0.707-0.702c-0.393,0-0.709,0.317-0.709,0.709c0,0.374,0.291,0.671,0.658,0.698v27.616
		c-12.678,1.143-24.234,6.159-33.476,13.866l-19.521-19.521c0.252-0.278,0.25-0.705-0.018-0.974c-0.277-0.276-0.727-0.276-1.004,0
		c-0.275,0.275-0.275,0.72-0.004,0.997l-6.756,6.757c-0.279-0.271-0.723-0.271-0.998,0.005c-0.277,0.276-0.277,0.726,0,1.002
		c0.264,0.265,0.682,0.269,0.959,0.028l19.525,19.524c-7.706,9.242-12.719,20.801-13.857,33.479h-27.613
		c-0.018-0.375-0.32-0.676-0.701-0.676c-0.391,0-0.709,0.317-0.709,0.709c0,0.389,0.314,0.704,0.703,0.708v9.556
		c-0.389,0.004-0.703,0.318-0.703,0.708c0,0.392,0.318,0.709,0.709,0.709c0.375,0,0.672-0.292,0.699-0.659h27.617
		C667.92,154.614,672.937,166.173,680.645,175.413z"/>
</g>
<g>
	<line fill="none" stroke="#0000FF" stroke-width="0.0028" x1="225.755" y1="666.602" x2="225.755" y2="666.599"/>
	<path fill="none" stroke="#0000FF" stroke-width="0.0028" d="M225.755,666.602c-3.826,64.71-213.528,175.912,1.087,274.597
		l0.079,20.13v19.707c0,0.796,0.088,2.504,0.088,2.504c0,2.969,0.754,6.298,2.037,9.607c1.363,3.746,3.342,7.195,5.811,10.229
		c2.32,2.985,4.969,5.497,7.707,7.063c0,0-30.865,18.494-38.971,45.578c-1.568,3.999-3.193,7.79-4.873,11.339
		c-1.311,2.771-2.658,5.384-4.039,7.843c-1.895,3.377-3.854,6.453-5.883,9.166h-43.379l-0.021-17.584h27.639
		c0,0.393,0.317,0.709,0.708,0.709c0.393,0,0.709-0.316,0.709-0.709c0-0.391-0.316-0.708-0.709-0.708v-9.355
		c0.392-0.001,0.708-0.316,0.708-0.709c0-0.391-0.316-0.708-0.709-0.708c-0.391,0-0.708,0.317-0.708,0.708h-27.589
		C63.293,1013.633,7.114,927.948,7.114,829.139c0-98.731,82.497-139.476,138.222-226.607h27.593c0,0.393,0.318,0.709,0.709,0.709
		c0.393,0,0.709-0.316,0.709-0.709c0-0.391-0.316-0.708-0.709-0.708v-9.355c0.391-0.001,0.707-0.316,0.707-0.709
		c0-0.391-0.316-0.708-0.709-0.708c-0.391,0-0.707,0.317-0.707,0.708H145.29l0.033-17.566l-0.125,0.141
		c0-67.134-19.48-147.182,69.902-0.141l0.097-0.064c3.281,5.4,6.707,11.097,10.289,17.121l0.018,0.028v11.712L225.755,666.602"/>
</g>
<g>
	<line fill="none" stroke="#0000FF" stroke-width="0.0028" x1="408.734" y1="632.3" x2="408.734" y2="632.297"/>
	<path fill="none" stroke="#0000FF" stroke-width="0.0028" d="M408.734,632.3c-3.826,64.71-213.528,175.912,1.087,274.597
		l0.079,20.13v19.707c0,0.796,0.088,2.504,0.088,2.504c0,2.969,0.754,6.298,2.037,9.607c1.363,3.746,3.342,7.195,5.811,10.229
		c2.32,2.985,4.969,5.497,7.707,7.063c0,0-30.865,18.494-38.971,45.578c-1.568,3.999-3.193,7.79-4.873,11.339
		c-1.311,2.771-2.658,5.384-4.039,7.843c-1.895,3.377-3.854,6.453-5.883,9.166h-43.379l-0.021-17.584h27.639
		c0,0.393,0.317,0.709,0.708,0.709c0.393,0,0.709-0.316,0.709-0.709c0-0.391-0.316-0.708-0.709-0.708v-9.355
		c0.392-0.001,0.708-0.316,0.708-0.709c0-0.391-0.316-0.708-0.709-0.708c-0.391,0-0.708,0.317-0.708,0.708h-27.589
		c-82.154-42.376-138.334-128.061-138.334-226.87c0-98.731,82.497-139.476,138.222-226.607h27.593c0,0.393,0.318,0.709,0.709,0.709
		c0.393,0,0.709-0.316,0.709-0.709c0-0.391-0.316-0.708-0.709-0.708v-9.355c0.391-0.001,0.707-0.316,0.707-0.709
		c0-0.391-0.316-0.708-0.709-0.708c-0.391,0-0.707,0.317-0.707,0.708h-27.639l0.033-17.566l-0.125,0.141
		c0-67.135-19.48-147.182,69.902-0.141l0.097-0.064c3.281,5.4,6.707,11.097,10.289,17.121l0.018,0.028v11.712L408.734,632.3"/>
</g>
<g>
	<line fill="none" stroke="#0000FF" stroke-width="0.0028" x1="590.008" y1="596.147" x2="590.008" y2="596.144"/>
	<path fill="none" stroke="#0000FF" stroke-width="0.0028" d="M590.008,596.147c-3.826,64.709-213.529,175.912,1.086,274.596
		l0.08,20.131v19.707c0,0.795,0.088,2.504,0.088,2.504c0,2.969,0.754,6.297,2.037,9.607c1.363,3.746,3.342,7.195,5.811,10.229
		c2.32,2.986,4.969,5.498,7.707,7.064c0,0-30.865,18.494-38.971,45.578c-1.568,3.998-3.193,7.789-4.873,11.338
		c-1.311,2.771-2.658,5.385-4.039,7.844c-1.895,3.377-3.854,6.453-5.883,9.166h-43.379l-0.021-17.584h27.639
		c0,0.393,0.317,0.709,0.708,0.709c0.393,0,0.709-0.316,0.709-0.709c0-0.391-0.316-0.709-0.709-0.709v-9.355
		c0.392,0,0.708-0.316,0.708-0.709c0-0.391-0.316-0.707-0.709-0.707c-0.391,0-0.708,0.316-0.708,0.707H509.7
		c-82.154-42.375-138.334-128.061-138.334-226.869c0-98.732,82.497-139.477,138.222-226.608h27.593c0,0.393,0.318,0.709,0.709,0.709
		c0.393,0,0.709-0.316,0.709-0.709c0-0.391-0.316-0.708-0.709-0.708v-9.355c0.391-0.001,0.707-0.316,0.707-0.709
		c0-0.391-0.316-0.708-0.709-0.708c-0.391,0-0.707,0.317-0.707,0.708h-27.639l0.033-17.566l-0.125,0.141
		c0-67.135-19.48-147.182,69.902-0.141l0.098-0.064c3.281,5.4,6.707,11.097,10.289,17.121l0.018,0.028v11.712L590.008,596.147"/>
</g>
<g>
	<line fill="none" stroke="#0000FF" stroke-width="0.0028" x1="770.34" y1="564.305" x2="770.34" y2="564.302"/>
	<path fill="none" stroke="#0000FF" stroke-width="0.0028" d="M770.34,564.305c-3.826,64.71-213.529,175.912,1.086,274.597
		l0.08,20.13v19.707c0,0.796,0.088,2.504,0.088,2.504c0,2.969,0.754,6.298,2.037,9.607c1.363,3.746,3.342,7.195,5.811,10.229
		c2.32,2.985,4.969,5.497,7.707,7.063c0,0-30.865,18.494-38.971,45.578c-1.568,3.999-3.193,7.79-4.873,11.339
		c-1.311,2.771-2.658,5.384-4.039,7.843c-1.895,3.377-3.854,6.453-5.883,9.166h-43.379l-0.021-17.584h27.639
		c0,0.393,0.318,0.709,0.709,0.709c0.393,0,0.709-0.316,0.709-0.709c0-0.391-0.316-0.708-0.709-0.708v-9.355
		c0.391-0.001,0.707-0.316,0.707-0.709c0-0.391-0.316-0.708-0.709-0.708c-0.391,0-0.707,0.317-0.707,0.708h-27.59
		c-82.154-42.376-138.334-128.061-138.334-226.87c0-98.731,82.498-139.476,138.223-226.607h27.592c0,0.393,0.318,0.709,0.709,0.709
		c0.393,0,0.709-0.316,0.709-0.709c0-0.391-0.316-0.708-0.709-0.708v-9.355c0.391-0.001,0.707-0.316,0.707-0.709
		c0-0.391-0.316-0.708-0.709-0.708c-0.391,0-0.707,0.317-0.707,0.708h-27.639l0.033-17.566l-0.125,0.141
		c0-67.135-19.48-147.182,69.902-0.141l0.098-0.064c3.281,5.4,6.707,11.097,10.289,17.121l0.018,0.028v11.712L770.34,564.305"/>
</g>
<g>
	<line fill="none" stroke="#0000FF" stroke-width="0.0028" x1="953.318" y1="530.003" x2="953.318" y2="530"/>
	<path fill="none" stroke="#0000FF" stroke-width="0.0028" d="M953.318,530.003c-3.826,64.71-213.529,175.912,1.086,274.597
		l0.08,20.13v19.707c0,0.796,0.088,2.504,0.088,2.504c0,2.969,0.754,6.298,2.037,9.607c1.363,3.746,3.342,7.195,5.811,10.229
		c2.32,2.985,4.969,5.497,7.707,7.063c0,0-30.865,18.494-38.971,45.578c-1.568,3.999-3.193,7.79-4.873,11.339
		c-1.311,2.771-2.658,5.384-4.039,7.843c-1.895,3.377-3.854,6.453-5.883,9.166h-43.379l-0.021-17.584H900.6
		c0,0.393,0.318,0.709,0.709,0.709c0.393,0,0.709-0.316,0.709-0.709c0-0.391-0.316-0.708-0.709-0.708v-9.355
		c0.391-0.001,0.707-0.316,0.707-0.709c0-0.391-0.316-0.708-0.709-0.708c-0.391,0-0.707,0.317-0.707,0.708h-27.59
		c-82.154-42.376-138.334-128.061-138.334-226.87c0-98.731,82.498-139.476,138.223-226.607h27.592c0,0.393,0.318,0.709,0.709,0.709
		c0.393,0,0.709-0.316,0.709-0.709c0-0.391-0.316-0.708-0.709-0.708v-9.355c0.391-0.001,0.707-0.316,0.707-0.709
		c0-0.391-0.316-0.708-0.709-0.708c-0.391,0-0.707,0.317-0.707,0.708h-27.639l0.033-17.566l-0.125,0.141
		c0-67.135-19.48-147.182,69.902-0.141l0.098-0.064c3.281,5.4,6.707,11.097,10.289,17.121l0.018,0.028v11.712L953.318,530.003"/>
</g>
<g>
	<line fill="none" stroke="#0000FF" stroke-width="0.0028" x1="380.122" y1="417.765" x2="380.122" y2="417.769"/>
	<path fill="none" stroke="#0000FF" stroke-width="0.0028" d="M380.122,417.765c3.826-64.709,213.529-175.912-1.086-274.596
		l-0.08-20.131v-19.707c0-0.795-0.088-2.504-0.088-2.504c0-2.969-0.754-6.297-2.037-9.607c-1.363-3.746-3.342-7.195-5.811-10.229
		c-2.32-2.986-4.969-5.498-7.707-7.064c0,0,30.865-18.494,38.971-45.578c1.568-3.998,3.193-7.789,4.873-11.338
		c1.311-2.771,2.658-5.385,4.039-7.844c1.895-3.377,3.854-6.453,5.883-9.166h43.379l0.021,17.584h-27.639
		c0-0.393-0.318-0.709-0.709-0.709c-0.393,0-0.709,0.316-0.709,0.709c0,0.391,0.316,0.709,0.709,0.709v9.355
		c-0.391,0-0.707,0.316-0.707,0.709c0,0.391,0.316,0.707,0.709,0.707c0.391,0,0.707-0.316,0.707-0.707h27.59
		c82.154,42.375,138.334,128.061,138.334,226.869c0,98.732-82.498,139.477-138.223,226.608H432.95c0-0.393-0.318-0.709-0.709-0.709
		c-0.393,0-0.709,0.316-0.709,0.709c0,0.391,0.316,0.708,0.709,0.708v9.355c-0.391,0.001-0.707,0.316-0.707,0.709
		c0,0.391,0.316,0.708,0.709,0.708c0.391,0,0.707-0.317,0.707-0.708h27.639l-0.033,17.566l0.125-0.141
		c0,67.135,19.48,147.182-69.902,0.141l-0.098,0.064c-3.281-5.4-6.707-11.097-10.289-17.121l-0.018-0.028v-11.712L380.122,417.765"
		/>
</g>
<g>
	<line fill="none" stroke="#0000FF" stroke-width="0.0028" x1="199.79" y1="449.608" x2="199.79" y2="449.611"/>
	<path fill="none" stroke="#0000FF" stroke-width="0.0028" d="M199.79,449.608c3.826-64.71,213.529-175.912-1.086-274.597
		l-0.08-20.13v-19.707c0-0.796-0.088-2.504-0.088-2.504c0-2.969-0.754-6.298-2.037-9.607c-1.363-3.746-3.342-7.195-5.811-10.229
		c-2.32-2.985-4.969-5.497-7.707-7.063c0,0,30.865-18.494,38.971-45.578c1.568-3.999,3.193-7.79,4.873-11.339
		c1.311-2.771,2.658-5.384,4.039-7.843c1.895-3.377,3.854-6.453,5.883-9.166h43.379l0.021,17.584h-27.639
		c0-0.393-0.318-0.709-0.709-0.709c-0.393,0-0.709,0.316-0.709,0.709c0,0.391,0.316,0.708,0.709,0.708v9.355
		c-0.391,0.001-0.707,0.316-0.707,0.709c0,0.391,0.316,0.708,0.709,0.708c0.391,0,0.707-0.317,0.707-0.708h27.59
		c82.154,42.376,138.334,128.061,138.334,226.87c0,98.731-82.498,139.476-138.223,226.607h-27.592c0-0.393-0.318-0.709-0.709-0.709
		c-0.393,0-0.709,0.316-0.709,0.709c0,0.391,0.316,0.708,0.709,0.708v9.355c-0.391,0.001-0.707,0.316-0.707,0.709
		c0,0.391,0.316,0.708,0.709,0.708c0.391,0,0.707-0.317,0.707-0.708h27.639l-0.033,17.566l0.125-0.141
		c0,67.135,19.48,147.182-69.902,0.141l-0.098,0.064c-3.281-5.4-6.707-11.097-10.289-17.121l-0.018-0.028V513.22L199.79,449.608"/>
</g>
<g>
	<line fill="none" stroke="#0000FF" stroke-width="0.0028" x1="16.812" y1="483.91" x2="16.812" y2="483.913"/>
	<path fill="none" stroke="#0000FF" stroke-width="0.0028" d="M16.812,483.91c3.826-64.71,213.529-175.912-1.086-274.597
		l-0.08-20.13v-19.707c0-0.796-0.088-2.504-0.088-2.504c0-2.969-0.754-6.298-2.037-9.607c-1.363-3.746-3.342-7.195-5.811-10.229
		c-2.32-2.985-4.969-5.497-7.707-7.063c0,0,30.865-18.494,38.971-45.578c1.568-3.999,3.193-7.79,4.873-11.339
		c1.311-2.771,2.658-5.384,4.039-7.843c1.895-3.377,3.854-6.453,5.883-9.166h43.379l0.021,17.584H69.53
		c0-0.393-0.318-0.709-0.709-0.709c-0.393,0-0.709,0.316-0.709,0.709c0,0.391,0.316,0.708,0.709,0.708v9.355
		c-0.391,0.001-0.707,0.316-0.707,0.709c0,0.391,0.316,0.708,0.709,0.708c0.391,0,0.707-0.317,0.707-0.708h27.59
		c82.154,42.376,138.334,128.061,138.334,226.87c0,98.731-82.498,139.476-138.223,226.607H69.64c0-0.393-0.318-0.709-0.709-0.709
		c-0.393,0-0.709,0.316-0.709,0.709c0,0.391,0.316,0.709,0.709,0.709v9.355c-0.391,0-0.707,0.316-0.707,0.709
		c0,0.391,0.316,0.707,0.709,0.707c0.391,0,0.707-0.316,0.707-0.707h27.639l-0.033,17.566l0.125-0.142
		c0,67.134,19.48,147.183-69.902,0.142l-0.098,0.064c-3.281-5.4-6.707-11.098-10.289-17.121l-0.018-0.029v-11.711L16.812,483.91"/>
</g>
<g>
	<circle fill="none" stroke="#0000FF" stroke-width="0.0028" cx="949.507" cy="236.607" r="117.638"/>
	<path fill="none" stroke="#0000FF" stroke-width="0.0028" d="M902.69,275.618l-19.521,19.521c-0.279-0.252-0.705-0.25-0.975,0.019
		c-0.277,0.276-0.277,0.726,0,1.002c0.275,0.275,0.721,0.276,0.998,0.005l6.756,6.757c-0.271,0.277-0.271,0.722,0.004,0.997
		c0.277,0.276,0.727,0.276,1.004,0c0.264-0.265,0.268-0.681,0.027-0.96l19.523-19.524c9.242,7.706,20.801,12.719,33.48,13.857
		v27.612c-0.375,0.019-0.676,0.321-0.676,0.701c0,0.392,0.316,0.709,0.709,0.709c0.389,0,0.703-0.313,0.707-0.702h9.557
		c0.004,0.389,0.318,0.702,0.707,0.702c0.393,0,0.709-0.317,0.709-0.709c0-0.374-0.291-0.671-0.658-0.698v-27.616
		c12.677-1.142,24.234-6.158,33.475-13.867l19.521,19.521c-0.252,0.278-0.25,0.705,0.018,0.974c0.277,0.277,0.727,0.277,1.004,0
		c0.275-0.274,0.275-0.72,0.004-0.997l6.756-6.757c0.279,0.272,0.723,0.271,0.998-0.004c0.277-0.277,0.277-0.726,0-1.003
		c-0.264-0.265-0.682-0.268-0.959-0.027l-19.525-19.523c7.707-9.243,12.719-20.803,13.858-33.48h27.61
		c0.02,0.375,0.322,0.676,0.701,0.676c0.393,0,0.709-0.317,0.709-0.709c0-0.389-0.313-0.704-0.701-0.708v-9.556
		c0.389-0.004,0.701-0.318,0.701-0.708c0-0.392-0.316-0.709-0.709-0.709c-0.373,0-0.67,0.292-0.697,0.659h-27.615
		c-1.143-12.678-6.159-24.235-13.868-33.477l19.522-19.521c0.277,0.252,0.705,0.251,0.973-0.018c0.277-0.277,0.277-0.726,0-1.003
		c-0.275-0.274-0.719-0.276-0.996-0.004l-6.758-6.757c0.271-0.277,0.271-0.722-0.004-0.997c-0.277-0.277-0.727-0.277-1.002,0
		c-0.266,0.265-0.27,0.681-0.027,0.96l-19.525,19.523c-9.244-7.706-20.803-12.718-33.48-13.856V148.31
		c0.375-0.019,0.676-0.321,0.676-0.701c0-0.392-0.316-0.709-0.709-0.709c-0.389,0-0.703,0.313-0.707,0.702h-9.557
		c-0.004-0.389-0.318-0.702-0.707-0.702c-0.393,0-0.709,0.317-0.709,0.709c0,0.374,0.291,0.671,0.658,0.698v27.616
		c-12.678,1.143-24.234,6.159-33.476,13.866l-19.521-19.521c0.252-0.278,0.25-0.705-0.018-0.974c-0.277-0.276-0.727-0.276-1.004,0
		c-0.275,0.275-0.275,0.72-0.004,0.997l-6.756,6.757c-0.279-0.271-0.723-0.271-0.998,0.005c-0.277,0.276-0.277,0.726,0,1.002
		c0.264,0.265,0.682,0.269,0.959,0.028l19.525,19.524c-7.706,9.242-12.719,20.801-13.857,33.479h-27.613
		c-0.018-0.375-0.32-0.676-0.701-0.676c-0.391,0-0.709,0.317-0.709,0.709c0,0.389,0.314,0.704,0.703,0.708v9.556
		c-0.389,0.004-0.703,0.318-0.703,0.708c0,0.392,0.318,0.709,0.709,0.709c0.375,0,0.672-0.292,0.699-0.659h27.617
		C889.966,254.819,894.982,266.377,902.69,275.618z"/>
</g>
</svg>
