  0
SECTION
  2
BLOCKS
  0
ENDSEC
  0
SECTION
  2
ENTITIES
  0
LINE
  8
0
 10
-175
 11
-175
 20
-71.891
 21
150
  0
LINE
  8
0
 10
-175
 11
155
 20
150
 21
150
  0
LINE
  8
0
 10
155
 11
155
 20
150
 21
130
  0
LINE
  8
0
 10
155
 11
175
 20
130
 21
130
  0
LINE
  8
0
 10
175
 11
175
 20
130
 21
-71.891
  0
LINE
  8
0
 10
175
 11
129.904
 20
-71.891
 21
-150
  0
LINE
  8
0
 10
129.904
 11
-129.904
 20
-150
 21
-150
  0
LINE
  8
0
 10
-129.904
 11
-175
 20
-150
 21
-71.891
  0
LINE
  8
0
 10
-161.751
 11
-161.467
 20
-82.519
 21
-81.457
  0
LINE
  8
0
 10
-161.467
 11
-160.689
 20
-81.457
 21
-80.679
  0
LINE
  8
0
 10
-160.689
 11
-159.626
 20
-80.679
 21
-80.394
  0
LINE
  8
0
 10
-159.626
 11
-158.564
 20
-80.394
 21
-80.679
  0
LINE
  8
0
 10
-158.564
 11
-157.786
 20
-80.679
 21
-81.457
  0
LINE
  8
0
 10
-157.786
 11
-157.501
 20
-81.457
 21
-82.52
  0
LINE
  8
0
 10
-157.501
 11
-157.786
 20
-82.52
 21
-83.581
  0
LINE
  8
0
 10
-157.786
 11
-158.564
 20
-83.581
 21
-84.36
  0
LINE
  8
0
 10
-158.564
 11
-159.627
 20
-84.36
 21
-84.644
  0
LINE
  8
0
 10
-159.627
 11
-160.688
 20
-84.644
 21
-84.36
  0
LINE
  8
0
 10
-160.688
 11
-161.467
 20
-84.36
 21
-83.582
  0
LINE
  8
0
 10
-161.467
 11
-161.751
 20
-83.582
 21
-82.519
  0
LINE
  8
0
 10
-160.625
 11
-160.407
 20
-40
 21
-39.187
  0
LINE
  8
0
 10
-160.407
 11
-159.813
 20
-39.187
 21
-38.593
  0
LINE
  8
0
 10
-159.813
 11
-159
 20
-38.593
 21
-38.375
  0
LINE
  8
0
 10
-159
 11
-158.187
 20
-38.375
 21
-38.593
  0
LINE
  8
0
 10
-158.187
 11
-157.593
 20
-38.593
 21
-39.187
  0
LINE
  8
0
 10
-157.593
 11
-157.375
 20
-39.187
 21
-40
  0
LINE
  8
0
 10
-157.375
 11
-157.593
 20
-40
 21
-40.813
  0
LINE
  8
0
 10
-157.593
 11
-158.187
 20
-40.813
 21
-41.407
  0
LINE
  8
0
 10
-158.187
 11
-159
 20
-41.407
 21
-41.625
  0
LINE
  8
0
 10
-159
 11
-159.813
 20
-41.625
 21
-41.407
  0
LINE
  8
0
 10
-159.813
 11
-160.407
 20
-41.407
 21
-40.813
  0
LINE
  8
0
 10
-160.407
 11
-160.625
 20
-40.813
 21
-40
  0
LINE
  8
0
 10
-160.625
 11
-160.407
 20
68
 21
68.813
  0
LINE
  8
0
 10
-160.407
 11
-159.813
 20
68.813
 21
69.407
  0
LINE
  8
0
 10
-159.813
 11
-159
 20
69.407
 21
69.625
  0
LINE
  8
0
 10
-159
 11
-158.187
 20
69.625
 21
69.407
  0
LINE
  8
0
 10
-158.187
 11
-157.593
 20
69.407
 21
68.813
  0
LINE
  8
0
 10
-157.593
 11
-157.375
 20
68.813
 21
68
  0
LINE
  8
0
 10
-157.375
 11
-157.593
 20
68
 21
67.187
  0
LINE
  8
0
 10
-157.593
 11
-158.187
 20
67.187
 21
66.593
  0
LINE
  8
0
 10
-158.187
 11
-159
 20
66.593
 21
66.375
  0
LINE
  8
0
 10
-159
 11
-159.813
 20
66.375
 21
66.593
  0
LINE
  8
0
 10
-159.813
 11
-160.407
 20
66.593
 21
67.187
  0
LINE
  8
0
 10
-160.407
 11
-160.625
 20
67.187
 21
68
  0
LINE
  8
0
 10
-151.625
 11
-151.407
 20
89.66
 21
90.473
  0
LINE
  8
0
 10
-151.407
 11
-150.813
 20
90.473
 21
91.067
  0
LINE
  8
0
 10
-150.813
 11
-150
 20
91.067
 21
91.285
  0
LINE
  8
0
 10
-150
 11
-149.187
 20
91.285
 21
91.067
  0
LINE
  8
0
 10
-149.187
 11
-148.593
 20
91.067
 21
90.473
  0
LINE
  8
0
 10
-148.593
 11
-148.375
 20
90.473
 21
89.66
  0
LINE
  8
0
 10
-148.375
 11
-148.593
 20
89.66
 21
88.847
  0
LINE
  8
0
 10
-148.593
 11
-149.187
 20
88.847
 21
88.253
  0
LINE
  8
0
 10
-149.187
 11
-150
 20
88.253
 21
88.035
  0
LINE
  8
0
 10
-150
 11
-150.813
 20
88.035
 21
88.253
  0
LINE
  8
0
 10
-150.813
 11
-151.407
 20
88.253
 21
88.847
  0
LINE
  8
0
 10
-151.407
 11
-151.625
 20
88.847
 21
89.66
  0
LINE
  8
0
 10
-151.625
 11
-151.407
 20
143
 21
143.813
  0
LINE
  8
0
 10
-151.407
 11
-150.813
 20
143.813
 21
144.407
  0
LINE
  8
0
 10
-150.813
 11
-150
 20
144.407
 21
144.625
  0
LINE
  8
0
 10
-150
 11
-149.187
 20
144.625
 21
144.407
  0
LINE
  8
0
 10
-149.187
 11
-148.593
 20
144.407
 21
143.813
  0
LINE
  8
0
 10
-148.593
 11
-148.375
 20
143.813
 21
143
  0
LINE
  8
0
 10
-148.375
 11
-148.593
 20
143
 21
142.187
  0
LINE
  8
0
 10
-148.593
 11
-149.187
 20
142.187
 21
141.593
  0
LINE
  8
0
 10
-149.187
 11
-150
 20
141.593
 21
141.375
  0
LINE
  8
0
 10
-150
 11
-150.813
 20
141.375
 21
141.593
  0
LINE
  8
0
 10
-150.813
 11
-151.407
 20
141.593
 21
142.187
  0
LINE
  8
0
 10
-151.407
 11
-151.625
 20
142.187
 21
143
  0
LINE
  8
0
 10
-131.751
 11
-131.467
 20
-134.48
 21
-133.419
  0
LINE
  8
0
 10
-131.467
 11
-130.689
 20
-133.419
 21
-132.64
  0
LINE
  8
0
 10
-130.689
 11
-129.626
 20
-132.64
 21
-132.356
  0
LINE
  8
0
 10
-129.626
 11
-128.564
 20
-132.356
 21
-132.64
  0
LINE
  8
0
 10
-128.564
 11
-127.786
 20
-132.64
 21
-133.418
  0
LINE
  8
0
 10
-127.786
 11
-127.501
 20
-133.418
 21
-134.481
  0
LINE
  8
0
 10
-127.501
 11
-127.786
 20
-134.481
 21
-135.543
  0
LINE
  8
0
 10
-127.786
 11
-128.564
 20
-135.543
 21
-136.321
  0
LINE
  8
0
 10
-128.564
 11
-129.627
 20
-136.321
 21
-136.606
  0
LINE
  8
0
 10
-129.627
 11
-130.688
 20
-136.606
 21
-136.321
  0
LINE
  8
0
 10
-130.688
 11
-131.467
 20
-136.321
 21
-135.543
  0
LINE
  8
0
 10
-131.467
 11
-131.751
 20
-135.543
 21
-134.48
  0
LINE
  8
0
 10
-130.574
 11
-130.29
 20
-64.519
 21
-63.457
  0
LINE
  8
0
 10
-130.29
 11
-129.512
 20
-63.457
 21
-62.679
  0
LINE
  8
0
 10
-129.512
 11
-128.449
 20
-62.679
 21
-62.394
  0
LINE
  8
0
 10
-128.449
 11
-127.387
 20
-62.394
 21
-62.679
  0
LINE
  8
0
 10
-127.387
 11
-126.609
 20
-62.679
 21
-63.457
  0
LINE
  8
0
 10
-126.609
 11
-126.324
 20
-63.457
 21
-64.52
  0
LINE
  8
0
 10
-126.324
 11
-126.609
 20
-64.52
 21
-65.581
  0
LINE
  8
0
 10
-126.609
 11
-127.387
 20
-65.581
 21
-66.36
  0
LINE
  8
0
 10
-127.387
 11
-128.45
 20
-66.36
 21
-66.644
  0
LINE
  8
0
 10
-128.45
 11
-129.511
 20
-66.644
 21
-66.36
  0
LINE
  8
0
 10
-129.511
 11
-130.29
 20
-66.36
 21
-65.582
  0
LINE
  8
0
 10
-130.29
 11
-130.574
 20
-65.582
 21
-64.519
  0
LINE
  8
0
 10
-106.07
 11
-106.07
 20
-129.92
 21
-129.08
  0
LINE
  8
0
 10
-106.07
 11
-105.649
 20
-129.08
 21
-128.351
  0
LINE
  8
0
 10
-105.649
 11
-104.92
 20
-128.351
 21
-127.93
  0
LINE
  8
0
 10
-104.92
 11
-104.08
 20
-127.93
 21
-127.93
  0
LINE
  8
0
 10
-104.08
 11
-103.351
 20
-127.93
 21
-128.351
  0
LINE
  8
0
 10
-103.351
 11
-102.93
 20
-128.351
 21
-129.08
  0
LINE
  8
0
 10
-102.93
 11
-102.93
 20
-129.08
 21
-129.92
  0
LINE
  8
0
 10
-102.93
 11
-103.351
 20
-129.92
 21
-130.649
  0
LINE
  8
0
 10
-103.351
 11
-104.08
 20
-130.649
 21
-131.07
  0
LINE
  8
0
 10
-104.08
 11
-104.92
 20
-131.07
 21
-131.07
  0
LINE
  8
0
 10
-104.92
 11
-105.649
 20
-131.07
 21
-130.649
  0
LINE
  8
0
 10
-105.649
 11
-106.07
 20
-130.649
 21
-129.92
  0
LINE
  8
0
 10
-106.07
 11
-106.07
 20
79.08
 21
79.92
  0
LINE
  8
0
 10
-106.07
 11
-105.649
 20
79.92
 21
80.649
  0
LINE
  8
0
 10
-105.649
 11
-104.92
 20
80.649
 21
81.07
  0
LINE
  8
0
 10
-104.92
 11
-104.08
 20
81.07
 21
81.07
  0
LINE
  8
0
 10
-104.08
 11
-103.351
 20
81.07
 21
80.649
  0
LINE
  8
0
 10
-103.351
 11
-102.93
 20
80.649
 21
79.92
  0
LINE
  8
0
 10
-102.93
 11
-102.93
 20
79.92
 21
79.08
  0
LINE
  8
0
 10
-102.93
 11
-103.351
 20
79.08
 21
78.351
  0
LINE
  8
0
 10
-103.351
 11
-104.08
 20
78.351
 21
77.93
  0
LINE
  8
0
 10
-104.08
 11
-104.92
 20
77.93
 21
77.93
  0
LINE
  8
0
 10
-104.92
 11
-105.649
 20
77.93
 21
78.351
  0
LINE
  8
0
 10
-105.649
 11
-106.07
 20
78.351
 21
79.08
  0
LINE
  8
0
 10
-100.574
 11
-100.29
 20
-116.48
 21
-115.419
  0
LINE
  8
0
 10
-100.29
 11
-99.512
 20
-115.419
 21
-114.64
  0
LINE
  8
0
 10
-99.512
 11
-98.449
 20
-114.64
 21
-114.356
  0
LINE
  8
0
 10
-98.449
 11
-97.387
 20
-114.356
 21
-114.64
  0
LINE
  8
0
 10
-97.387
 11
-96.609
 20
-114.64
 21
-115.418
  0
LINE
  8
0
 10
-96.609
 11
-96.324
 20
-115.418
 21
-116.481
  0
LINE
  8
0
 10
-96.324
 11
-96.609
 20
-116.481
 21
-117.543
  0
LINE
  8
0
 10
-96.609
 11
-97.387
 20
-117.543
 21
-118.321
  0
LINE
  8
0
 10
-97.387
 11
-98.45
 20
-118.321
 21
-118.606
  0
LINE
  8
0
 10
-98.45
 11
-99.511
 20
-118.606
 21
-118.321
  0
LINE
  8
0
 10
-99.511
 11
-100.29
 20
-118.321
 21
-117.543
  0
LINE
  8
0
 10
-100.29
 11
-100.574
 20
-117.543
 21
-116.48
  0
LINE
  8
0
 10
-59.165
 11
-58.947
 20
89.66
 21
90.473
  0
LINE
  8
0
 10
-58.947
 11
-58.353
 20
90.473
 21
91.067
  0
LINE
  8
0
 10
-58.353
 11
-57.54
 20
91.067
 21
91.285
  0
LINE
  8
0
 10
-57.54
 11
-56.727
 20
91.285
 21
91.067
  0
LINE
  8
0
 10
-56.727
 11
-56.133
 20
91.067
 21
90.473
  0
LINE
  8
0
 10
-56.133
 11
-55.915
 20
90.473
 21
89.66
  0
LINE
  8
0
 10
-55.915
 11
-56.133
 20
89.66
 21
88.847
  0
LINE
  8
0
 10
-56.133
 11
-56.727
 20
88.847
 21
88.253
  0
LINE
  8
0
 10
-56.727
 11
-57.54
 20
88.253
 21
88.035
  0
LINE
  8
0
 10
-57.54
 11
-58.353
 20
88.035
 21
88.253
  0
LINE
  8
0
 10
-58.353
 11
-58.947
 20
88.253
 21
88.847
  0
LINE
  8
0
 10
-58.947
 11
-59.165
 20
88.847
 21
89.66
  0
LINE
  8
0
 10
-59.165
 11
-58.947
 20
143
 21
143.813
  0
LINE
  8
0
 10
-58.947
 11
-58.353
 20
143.813
 21
144.407
  0
LINE
  8
0
 10
-58.353
 11
-57.54
 20
144.407
 21
144.625
  0
LINE
  8
0
 10
-57.54
 11
-56.727
 20
144.625
 21
144.407
  0
LINE
  8
0
 10
-56.727
 11
-56.133
 20
144.407
 21
143.813
  0
LINE
  8
0
 10
-56.133
 11
-55.915
 20
143.813
 21
143
  0
LINE
  8
0
 10
-55.915
 11
-56.133
 20
143
 21
142.187
  0
LINE
  8
0
 10
-56.133
 11
-56.727
 20
142.187
 21
141.593
  0
LINE
  8
0
 10
-56.727
 11
-57.54
 20
141.593
 21
141.375
  0
LINE
  8
0
 10
-57.54
 11
-58.353
 20
141.375
 21
141.593
  0
LINE
  8
0
 10
-58.353
 11
-58.947
 20
141.593
 21
142.187
  0
LINE
  8
0
 10
-58.947
 11
-59.165
 20
142.187
 21
143
  0
LINE
  8
0
 10
-32.125
 11
-31.84
 20
106
 21
107.063
  0
LINE
  8
0
 10
-31.84
 11
-31.063
 20
107.063
 21
107.84
  0
LINE
  8
0
 10
-31.063
 11
-30
 20
107.84
 21
108.125
  0
LINE
  8
0
 10
-30
 11
-28.937
 20
108.125
 21
107.84
  0
LINE
  8
0
 10
-28.937
 11
-28.16
 20
107.84
 21
107.063
  0
LINE
  8
0
 10
-28.16
 11
-27.875
 20
107.063
 21
106
  0
LINE
  8
0
 10
-27.875
 11
-28.16
 20
106
 21
104.937
  0
LINE
  8
0
 10
-28.16
 11
-28.937
 20
104.937
 21
104.16
  0
LINE
  8
0
 10
-28.937
 11
-30
 20
104.16
 21
103.875
  0
LINE
  8
0
 10
-30
 11
-31.063
 20
103.875
 21
104.16
  0
LINE
  8
0
 10
-31.063
 11
-31.84
 20
104.16
 21
104.937
  0
LINE
  8
0
 10
-31.84
 11
-32.125
 20
104.937
 21
106
  0
LINE
  8
0
 10
-32.125
 11
-31.84
 20
142
 21
143.063
  0
LINE
  8
0
 10
-31.84
 11
-31.063
 20
143.063
 21
143.84
  0
LINE
  8
0
 10
-31.063
 11
-30
 20
143.84
 21
144.125
  0
LINE
  8
0
 10
-30
 11
-28.937
 20
144.125
 21
143.84
  0
LINE
  8
0
 10
-28.937
 11
-28.16
 20
143.84
 21
143.063
  0
LINE
  8
0
 10
-28.16
 11
-27.875
 20
143.063
 21
142
  0
LINE
  8
0
 10
-27.875
 11
-28.16
 20
142
 21
140.937
  0
LINE
  8
0
 10
-28.16
 11
-28.937
 20
140.937
 21
140.16
  0
LINE
  8
0
 10
-28.937
 11
-30
 20
140.16
 21
139.875
  0
LINE
  8
0
 10
-30
 11
-31.063
 20
139.875
 21
140.16
  0
LINE
  8
0
 10
-31.063
 11
-31.84
 20
140.16
 21
140.937
  0
LINE
  8
0
 10
-31.84
 11
-32.125
 20
140.937
 21
142
  0
LINE
  8
0
 10
27.875
 11
28.16
 20
106
 21
107.063
  0
LINE
  8
0
 10
28.16
 11
28.937
 20
107.063
 21
107.84
  0
LINE
  8
0
 10
28.937
 11
30
 20
107.84
 21
108.125
  0
LINE
  8
0
 10
30
 11
31.063
 20
108.125
 21
107.84
  0
LINE
  8
0
 10
31.063
 11
31.84
 20
107.84
 21
107.063
  0
LINE
  8
0
 10
31.84
 11
32.125
 20
107.063
 21
106
  0
LINE
  8
0
 10
32.125
 11
31.84
 20
106
 21
104.937
  0
LINE
  8
0
 10
31.84
 11
31.063
 20
104.937
 21
104.16
  0
LINE
  8
0
 10
31.063
 11
30
 20
104.16
 21
103.875
  0
LINE
  8
0
 10
30
 11
28.937
 20
103.875
 21
104.16
  0
LINE
  8
0
 10
28.937
 11
28.16
 20
104.16
 21
104.937
  0
LINE
  8
0
 10
28.16
 11
27.875
 20
104.937
 21
106
  0
LINE
  8
0
 10
27.875
 11
28.16
 20
142
 21
143.063
  0
LINE
  8
0
 10
28.16
 11
28.937
 20
143.063
 21
143.84
  0
LINE
  8
0
 10
28.937
 11
30
 20
143.84
 21
144.125
  0
LINE
  8
0
 10
30
 11
31.063
 20
144.125
 21
143.84
  0
LINE
  8
0
 10
31.063
 11
31.84
 20
143.84
 21
143.063
  0
LINE
  8
0
 10
31.84
 11
32.125
 20
143.063
 21
142
  0
LINE
  8
0
 10
32.125
 11
31.84
 20
142
 21
140.937
  0
LINE
  8
0
 10
31.84
 11
31.063
 20
140.937
 21
140.16
  0
LINE
  8
0
 10
31.063
 11
30
 20
140.16
 21
139.875
  0
LINE
  8
0
 10
30
 11
28.937
 20
139.875
 21
140.16
  0
LINE
  8
0
 10
28.937
 11
28.16
 20
140.16
 21
140.937
  0
LINE
  8
0
 10
28.16
 11
27.875
 20
140.937
 21
142
  0
LINE
  8
0
 10
68.375
 11
68.593
 20
135.75
 21
136.563
  0
LINE
  8
0
 10
68.593
 11
69.187
 20
136.563
 21
137.157
  0
LINE
  8
0
 10
69.187
 11
70
 20
137.157
 21
137.375
  0
LINE
  8
0
 10
70
 11
70.813
 20
137.375
 21
137.157
  0
LINE
  8
0
 10
70.813
 11
71.407
 20
137.157
 21
136.563
  0
LINE
  8
0
 10
71.407
 11
71.625
 20
136.563
 21
135.75
  0
LINE
  8
0
 10
71.625
 11
71.407
 20
135.75
 21
134.937
  0
LINE
  8
0
 10
71.407
 11
70.813
 20
134.937
 21
134.343
  0
LINE
  8
0
 10
70.813
 11
70
 20
134.343
 21
134.125
  0
LINE
  8
0
 10
70
 11
69.187
 20
134.125
 21
134.343
  0
LINE
  8
0
 10
69.187
 11
68.593
 20
134.343
 21
134.937
  0
LINE
  8
0
 10
68.593
 11
68.375
 20
134.937
 21
135.75
  0
LINE
  8
0
 10
96.324
 11
96.609
 20
-116.481
 21
-115.418
  0
LINE
  8
0
 10
96.609
 11
97.387
 20
-115.418
 21
-114.64
  0
LINE
  8
0
 10
97.387
 11
98.449
 20
-114.64
 21
-114.356
  0
LINE
  8
0
 10
98.449
 11
99.512
 20
-114.356
 21
-114.64
  0
LINE
  8
0
 10
99.512
 11
100.29
 20
-114.64
 21
-115.419
  0
LINE
  8
0
 10
100.29
 11
100.574
 20
-115.419
 21
-116.48
  0
LINE
  8
0
 10
100.574
 11
100.29
 20
-116.48
 21
-117.543
  0
LINE
  8
0
 10
100.29
 11
99.511
 20
-117.543
 21
-118.321
  0
LINE
  8
0
 10
99.511
 11
98.45
 20
-118.321
 21
-118.606
  0
LINE
  8
0
 10
98.45
 11
97.387
 20
-118.606
 21
-118.321
  0
LINE
  8
0
 10
97.387
 11
96.609
 20
-118.321
 21
-117.543
  0
LINE
  8
0
 10
96.609
 11
96.324
 20
-117.543
 21
-116.481
  0
LINE
  8
0
 10
102.93
 11
102.93
 20
-129.92
 21
-129.08
  0
LINE
  8
0
 10
102.93
 11
103.351
 20
-129.08
 21
-128.351
  0
LINE
  8
0
 10
103.351
 11
104.08
 20
-128.351
 21
-127.93
  0
LINE
  8
0
 10
104.08
 11
104.92
 20
-127.93
 21
-127.93
  0
LINE
  8
0
 10
104.92
 11
105.649
 20
-127.93
 21
-128.351
  0
LINE
  8
0
 10
105.649
 11
106.07
 20
-128.351
 21
-129.08
  0
LINE
  8
0
 10
106.07
 11
106.07
 20
-129.08
 21
-129.92
  0
LINE
  8
0
 10
106.07
 11
105.649
 20
-129.92
 21
-130.649
  0
LINE
  8
0
 10
105.649
 11
104.92
 20
-130.649
 21
-131.07
  0
LINE
  8
0
 10
104.92
 11
104.08
 20
-131.07
 21
-131.07
  0
LINE
  8
0
 10
104.08
 11
103.351
 20
-131.07
 21
-130.649
  0
LINE
  8
0
 10
103.351
 11
102.93
 20
-130.649
 21
-129.92
  0
LINE
  8
0
 10
102.93
 11
102.93
 20
79.08
 21
79.92
  0
LINE
  8
0
 10
102.93
 11
103.351
 20
79.92
 21
80.649
  0
LINE
  8
0
 10
103.351
 11
104.08
 20
80.649
 21
81.07
  0
LINE
  8
0
 10
104.08
 11
104.92
 20
81.07
 21
81.07
  0
LINE
  8
0
 10
104.92
 11
105.649
 20
81.07
 21
80.649
  0
LINE
  8
0
 10
105.649
 11
106.07
 20
80.649
 21
79.92
  0
LINE
  8
0
 10
106.07
 11
106.07
 20
79.92
 21
79.08
  0
LINE
  8
0
 10
106.07
 11
105.649
 20
79.08
 21
78.351
  0
LINE
  8
0
 10
105.649
 11
104.92
 20
78.351
 21
77.93
  0
LINE
  8
0
 10
104.92
 11
104.08
 20
77.93
 21
77.93
  0
LINE
  8
0
 10
104.08
 11
103.351
 20
77.93
 21
78.351
  0
LINE
  8
0
 10
103.351
 11
102.93
 20
78.351
 21
79.08
  0
LINE
  8
0
 10
126.324
 11
126.609
 20
-64.52
 21
-63.457
  0
LINE
  8
0
 10
126.609
 11
127.387
 20
-63.457
 21
-62.679
  0
LINE
  8
0
 10
127.387
 11
128.449
 20
-62.679
 21
-62.394
  0
LINE
  8
0
 10
128.449
 11
129.512
 20
-62.394
 21
-62.679
  0
LINE
  8
0
 10
129.512
 11
130.29
 20
-62.679
 21
-63.457
  0
LINE
  8
0
 10
130.29
 11
130.574
 20
-63.457
 21
-64.519
  0
LINE
  8
0
 10
130.574
 11
130.29
 20
-64.519
 21
-65.582
  0
LINE
  8
0
 10
130.29
 11
129.511
 20
-65.582
 21
-66.36
  0
LINE
  8
0
 10
129.511
 11
128.45
 20
-66.36
 21
-66.644
  0
LINE
  8
0
 10
128.45
 11
127.387
 20
-66.644
 21
-66.36
  0
LINE
  8
0
 10
127.387
 11
126.609
 20
-66.36
 21
-65.581
  0
LINE
  8
0
 10
126.609
 11
126.324
 20
-65.581
 21
-64.52
  0
LINE
  8
0
 10
127.501
 11
127.786
 20
-134.481
 21
-133.418
  0
LINE
  8
0
 10
127.786
 11
128.564
 20
-133.418
 21
-132.64
  0
LINE
  8
0
 10
128.564
 11
129.626
 20
-132.64
 21
-132.356
  0
LINE
  8
0
 10
129.626
 11
130.689
 20
-132.356
 21
-132.64
  0
LINE
  8
0
 10
130.689
 11
131.467
 20
-132.64
 21
-133.419
  0
LINE
  8
0
 10
131.467
 11
131.751
 20
-133.419
 21
-134.48
  0
LINE
  8
0
 10
131.751
 11
131.467
 20
-134.48
 21
-135.543
  0
LINE
  8
0
 10
131.467
 11
130.688
 20
-135.543
 21
-136.321
  0
LINE
  8
0
 10
130.688
 11
129.627
 20
-136.321
 21
-136.606
  0
LINE
  8
0
 10
129.627
 11
128.564
 20
-136.606
 21
-136.321
  0
LINE
  8
0
 10
128.564
 11
127.786
 20
-136.321
 21
-135.543
  0
LINE
  8
0
 10
127.786
 11
127.501
 20
-135.543
 21
-134.481
  0
LINE
  8
0
 10
139.375
 11
139.593
 20
135.75
 21
136.563
  0
LINE
  8
0
 10
139.593
 11
140.187
 20
136.563
 21
137.157
  0
LINE
  8
0
 10
140.187
 11
141
 20
137.157
 21
137.375
  0
LINE
  8
0
 10
141
 11
141.813
 20
137.375
 21
137.157
  0
LINE
  8
0
 10
141.813
 11
142.407
 20
137.157
 21
136.563
  0
LINE
  8
0
 10
142.407
 11
142.625
 20
136.563
 21
135.75
  0
LINE
  8
0
 10
142.625
 11
142.407
 20
135.75
 21
134.937
  0
LINE
  8
0
 10
142.407
 11
141.813
 20
134.937
 21
134.343
  0
LINE
  8
0
 10
141.813
 11
141
 20
134.343
 21
134.125
  0
LINE
  8
0
 10
141
 11
140.187
 20
134.125
 21
134.343
  0
LINE
  8
0
 10
140.187
 11
139.593
 20
134.343
 21
134.937
  0
LINE
  8
0
 10
139.593
 11
139.375
 20
134.937
 21
135.75
  0
LINE
  8
0
 10
157.501
 11
157.786
 20
-82.52
 21
-81.457
  0
LINE
  8
0
 10
157.786
 11
158.564
 20
-81.457
 21
-80.679
  0
LINE
  8
0
 10
158.564
 11
159.626
 20
-80.679
 21
-80.394
  0
LINE
  8
0
 10
159.626
 11
160.689
 20
-80.394
 21
-80.679
  0
LINE
  8
0
 10
160.689
 11
161.467
 20
-80.679
 21
-81.457
  0
LINE
  8
0
 10
161.467
 11
161.751
 20
-81.457
 21
-82.519
  0
LINE
  8
0
 10
161.751
 11
161.467
 20
-82.519
 21
-83.582
  0
LINE
  8
0
 10
161.467
 11
160.688
 20
-83.582
 21
-84.36
  0
LINE
  8
0
 10
160.688
 11
159.627
 20
-84.36
 21
-84.644
  0
LINE
  8
0
 10
159.627
 11
158.564
 20
-84.644
 21
-84.36
  0
LINE
  8
0
 10
158.564
 11
157.786
 20
-84.36
 21
-83.581
  0
LINE
  8
0
 10
157.786
 11
157.501
 20
-83.581
 21
-82.52
  0
LINE
  8
0
 10
159.125
 11
159.343
 20
-40
 21
-39.187
  0
LINE
  8
0
 10
159.343
 11
159.937
 20
-39.187
 21
-38.593
  0
LINE
  8
0
 10
159.937
 11
160.75
 20
-38.593
 21
-38.375
  0
LINE
  8
0
 10
160.75
 11
161.563
 20
-38.375
 21
-38.593
  0
LINE
  8
0
 10
161.563
 11
162.157
 20
-38.593
 21
-39.187
  0
LINE
  8
0
 10
162.157
 11
162.375
 20
-39.187
 21
-40
  0
LINE
  8
0
 10
162.375
 11
162.157
 20
-40
 21
-40.813
  0
LINE
  8
0
 10
162.157
 11
161.563
 20
-40.813
 21
-41.407
  0
LINE
  8
0
 10
161.563
 11
160.75
 20
-41.407
 21
-41.625
  0
LINE
  8
0
 10
160.75
 11
159.937
 20
-41.625
 21
-41.407
  0
LINE
  8
0
 10
159.937
 11
159.343
 20
-41.407
 21
-40.813
  0
LINE
  8
0
 10
159.343
 11
159.125
 20
-40.813
 21
-40
  0
LINE
  8
0
 10
159.125
 11
159.343
 20
37.5
 21
38.313
  0
LINE
  8
0
 10
159.343
 11
159.937
 20
38.313
 21
38.907
  0
LINE
  8
0
 10
159.937
 11
160.75
 20
38.907
 21
39.125
  0
LINE
  8
0
 10
160.75
 11
161.563
 20
39.125
 21
38.907
  0
LINE
  8
0
 10
161.563
 11
162.157
 20
38.907
 21
38.313
  0
LINE
  8
0
 10
162.157
 11
162.375
 20
38.313
 21
37.5
  0
LINE
  8
0
 10
162.375
 11
162.157
 20
37.5
 21
36.687
  0
LINE
  8
0
 10
162.157
 11
161.563
 20
36.687
 21
36.093
  0
LINE
  8
0
 10
161.563
 11
160.75
 20
36.093
 21
35.875
  0
LINE
  8
0
 10
160.75
 11
159.937
 20
35.875
 21
36.093
  0
LINE
  8
0
 10
159.937
 11
159.343
 20
36.093
 21
36.687
  0
LINE
  8
0
 10
159.343
 11
159.125
 20
36.687
 21
37.5
  0
LINE
  8
0
 10
159.125
 11
159.343
 20
115
 21
115.813
  0
LINE
  8
0
 10
159.343
 11
159.937
 20
115.813
 21
116.407
  0
LINE
  8
0
 10
159.937
 11
160.75
 20
116.407
 21
116.625
  0
LINE
  8
0
 10
160.75
 11
161.563
 20
116.625
 21
116.407
  0
LINE
  8
0
 10
161.563
 11
162.157
 20
116.407
 21
115.813
  0
LINE
  8
0
 10
162.157
 11
162.375
 20
115.813
 21
115
  0
LINE
  8
0
 10
162.375
 11
162.157
 20
115
 21
114.187
  0
LINE
  8
0
 10
162.157
 11
161.563
 20
114.187
 21
113.593
  0
LINE
  8
0
 10
161.563
 11
160.75
 20
113.593
 21
113.375
  0
LINE
  8
0
 10
160.75
 11
159.937
 20
113.375
 21
113.593
  0
LINE
  8
0
 10
159.937
 11
159.343
 20
113.593
 21
114.187
  0
LINE
  8
0
 10
159.343
 11
159.125
 20
114.187
 21
115
  0
ENDSEC
  0
SECTION
  2
OBJECTS
  0
DICTIONARY
  0
ENDSEC
  0
EOF
