  0
SECTION
  2
BLOCKS
  0
ENDSEC
  0
SECTION
  2
ENTITIES
  0
LINE
  8
0
 10
-161.751
 11
-161.467
 20
-82.519
 21
-81.457
  0
LINE
  8
0
 10
-161.467
 11
-160.689
 20
-81.457
 21
-80.679
  0
LINE
  8
0
 10
-160.689
 11
-159.626
 20
-80.679
 21
-80.394
  0
LINE
  8
0
 10
-159.626
 11
-158.564
 20
-80.394
 21
-80.679
  0
LINE
  8
0
 10
-158.564
 11
-157.786
 20
-80.679
 21
-81.457
  0
LINE
  8
0
 10
-157.786
 11
-157.501
 20
-81.457
 21
-82.52
  0
LINE
  8
0
 10
-157.501
 11
-157.786
 20
-82.52
 21
-83.581
  0
LINE
  8
0
 10
-157.786
 11
-158.564
 20
-83.581
 21
-84.36
  0
LINE
  8
0
 10
-158.564
 11
-159.627
 20
-84.36
 21
-84.644
  0
LINE
  8
0
 10
-159.627
 11
-160.688
 20
-84.644
 21
-84.36
  0
LINE
  8
0
 10
-160.688
 11
-161.467
 20
-84.36
 21
-83.582
  0
LINE
  8
0
 10
-161.467
 11
-161.751
 20
-83.582
 21
-82.519
  0
LINE
  8
0
 10
-131.751
 11
-131.467
 20
-134.48
 21
-133.419
  0
LINE
  8
0
 10
-131.467
 11
-130.689
 20
-133.419
 21
-132.64
  0
LINE
  8
0
 10
-130.689
 11
-129.626
 20
-132.64
 21
-132.356
  0
LINE
  8
0
 10
-129.626
 11
-128.564
 20
-132.356
 21
-132.64
  0
LINE
  8
0
 10
-128.564
 11
-127.786
 20
-132.64
 21
-133.418
  0
LINE
  8
0
 10
-127.786
 11
-127.501
 20
-133.418
 21
-134.481
  0
LINE
  8
0
 10
-127.501
 11
-127.786
 20
-134.481
 21
-135.543
  0
LINE
  8
0
 10
-127.786
 11
-128.564
 20
-135.543
 21
-136.321
  0
LINE
  8
0
 10
-128.564
 11
-129.627
 20
-136.321
 21
-136.606
  0
LINE
  8
0
 10
-129.627
 11
-130.688
 20
-136.606
 21
-136.321
  0
LINE
  8
0
 10
-130.688
 11
-131.467
 20
-136.321
 21
-135.543
  0
LINE
  8
0
 10
-131.467
 11
-131.751
 20
-135.543
 21
-134.48
  0
LINE
  8
0
 10
-32.125
 11
-31.84
 20
142
 21
143.063
  0
LINE
  8
0
 10
-31.84
 11
-31.063
 20
143.063
 21
143.84
  0
LINE
  8
0
 10
-31.063
 11
-30
 20
143.84
 21
144.125
  0
LINE
  8
0
 10
-30
 11
-28.937
 20
144.125
 21
143.84
  0
LINE
  8
0
 10
-28.937
 11
-28.16
 20
143.84
 21
143.063
  0
LINE
  8
0
 10
-28.16
 11
-27.875
 20
143.063
 21
142
  0
LINE
  8
0
 10
-27.875
 11
-28.16
 20
142
 21
140.937
  0
LINE
  8
0
 10
-28.16
 11
-28.937
 20
140.937
 21
140.16
  0
LINE
  8
0
 10
-28.937
 11
-30
 20
140.16
 21
139.875
  0
LINE
  8
0
 10
-30
 11
-31.063
 20
139.875
 21
140.16
  0
LINE
  8
0
 10
-31.063
 11
-31.84
 20
140.16
 21
140.937
  0
LINE
  8
0
 10
-31.84
 11
-32.125
 20
140.937
 21
142
  0
LINE
  8
0
 10
27.875
 11
28.16
 20
142
 21
143.063
  0
LINE
  8
0
 10
28.16
 11
28.937
 20
143.063
 21
143.84
  0
LINE
  8
0
 10
28.937
 11
30
 20
143.84
 21
144.125
  0
LINE
  8
0
 10
30
 11
31.063
 20
144.125
 21
143.84
  0
LINE
  8
0
 10
31.063
 11
31.84
 20
143.84
 21
143.063
  0
LINE
  8
0
 10
31.84
 11
32.125
 20
143.063
 21
142
  0
LINE
  8
0
 10
32.125
 11
31.84
 20
142
 21
140.937
  0
LINE
  8
0
 10
31.84
 11
31.063
 20
140.937
 21
140.16
  0
LINE
  8
0
 10
31.063
 11
30
 20
140.16
 21
139.875
  0
LINE
  8
0
 10
30
 11
28.937
 20
139.875
 21
140.16
  0
LINE
  8
0
 10
28.937
 11
28.16
 20
140.16
 21
140.937
  0
LINE
  8
0
 10
28.16
 11
27.875
 20
140.937
 21
142
  0
LINE
  8
0
 10
68.375
 11
68.593
 20
135.75
 21
136.563
  0
LINE
  8
0
 10
68.593
 11
69.187
 20
136.563
 21
137.157
  0
LINE
  8
0
 10
69.187
 11
70
 20
137.157
 21
137.375
  0
LINE
  8
0
 10
70
 11
70.813
 20
137.375
 21
137.157
  0
LINE
  8
0
 10
70.813
 11
71.407
 20
137.157
 21
136.563
  0
LINE
  8
0
 10
71.407
 11
71.625
 20
136.563
 21
135.75
  0
LINE
  8
0
 10
71.625
 11
71.407
 20
135.75
 21
134.937
  0
LINE
  8
0
 10
71.407
 11
70.813
 20
134.937
 21
134.343
  0
LINE
  8
0
 10
70.813
 11
70
 20
134.343
 21
134.125
  0
LINE
  8
0
 10
70
 11
69.187
 20
134.125
 21
134.343
  0
LINE
  8
0
 10
69.187
 11
68.593
 20
134.343
 21
134.937
  0
LINE
  8
0
 10
68.593
 11
68.375
 20
134.937
 21
135.75
  0
LINE
  8
0
 10
127.501
 11
127.786
 20
-134.481
 21
-133.418
  0
LINE
  8
0
 10
127.786
 11
128.564
 20
-133.418
 21
-132.64
  0
LINE
  8
0
 10
128.564
 11
129.626
 20
-132.64
 21
-132.356
  0
LINE
  8
0
 10
129.626
 11
130.689
 20
-132.356
 21
-132.64
  0
LINE
  8
0
 10
130.689
 11
131.467
 20
-132.64
 21
-133.419
  0
LINE
  8
0
 10
131.467
 11
131.751
 20
-133.419
 21
-134.48
  0
LINE
  8
0
 10
131.751
 11
131.467
 20
-134.48
 21
-135.543
  0
LINE
  8
0
 10
131.467
 11
130.688
 20
-135.543
 21
-136.321
  0
LINE
  8
0
 10
130.688
 11
129.627
 20
-136.321
 21
-136.606
  0
LINE
  8
0
 10
129.627
 11
128.564
 20
-136.606
 21
-136.321
  0
LINE
  8
0
 10
128.564
 11
127.786
 20
-136.321
 21
-135.543
  0
LINE
  8
0
 10
127.786
 11
127.501
 20
-135.543
 21
-134.481
  0
LINE
  8
0
 10
139.375
 11
139.593
 20
135.75
 21
136.563
  0
LINE
  8
0
 10
139.593
 11
140.187
 20
136.563
 21
137.157
  0
LINE
  8
0
 10
140.187
 11
141
 20
137.157
 21
137.375
  0
LINE
  8
0
 10
141
 11
141.813
 20
137.375
 21
137.157
  0
LINE
  8
0
 10
141.813
 11
142.407
 20
137.157
 21
136.563
  0
LINE
  8
0
 10
142.407
 11
142.625
 20
136.563
 21
135.75
  0
LINE
  8
0
 10
142.625
 11
142.407
 20
135.75
 21
134.937
  0
LINE
  8
0
 10
142.407
 11
141.813
 20
134.937
 21
134.343
  0
LINE
  8
0
 10
141.813
 11
141
 20
134.343
 21
134.125
  0
LINE
  8
0
 10
141
 11
140.187
 20
134.125
 21
134.343
  0
LINE
  8
0
 10
140.187
 11
139.593
 20
134.343
 21
134.937
  0
LINE
  8
0
 10
139.593
 11
139.375
 20
134.937
 21
135.75
  0
LINE
  8
0
 10
-175
 11
-175
 20
-71.891
 21
150
  0
LINE
  8
0
 10
-175
 11
-20.125
 20
150
 21
150
  0
LINE
  8
0
 10
-20.125
 11
-20.125
 20
150
 21
137
  0
LINE
  8
0
 10
-20.125
 11
-19.84
 20
137
 21
135.937
  0
LINE
  8
0
 10
-19.84
 11
-19.063
 20
135.937
 21
135.16
  0
LINE
  8
0
 10
-19.063
 11
-18
 20
135.16
 21
134.875
  0
LINE
  8
0
 10
-18
 11
-16.937
 20
134.875
 21
135.16
  0
LINE
  8
0
 10
-16.937
 11
-16.16
 20
135.16
 21
135.937
  0
LINE
  8
0
 10
-16.16
 11
-15.875
 20
135.937
 21
137
  0
LINE
  8
0
 10
-15.875
 11
-15.875
 20
137
 21
150
  0
LINE
  8
0
 10
-15.875
 11
155
 20
150
 21
150
  0
LINE
  8
0
 10
155
 11
155
 20
150
 21
130
  0
LINE
  8
0
 10
155
 11
175
 20
130
 21
130
  0
LINE
  8
0
 10
175
 11
175
 20
130
 21
-71.891
  0
LINE
  8
0
 10
175
 11
161.617
 20
-71.891
 21
-95.071
  0
LINE
  8
0
 10
161.617
 11
150.359
 20
-95.071
 21
-88.571
  0
LINE
  8
0
 10
150.359
 11
149.296
 20
-88.571
 21
-88.287
  0
LINE
  8
0
 10
149.296
 11
148.234
 20
-88.287
 21
-88.571
  0
LINE
  8
0
 10
148.234
 11
147.456
 20
-88.571
 21
-89.349
  0
LINE
  8
0
 10
147.456
 11
147.171
 20
-89.349
 21
-90.412
  0
LINE
  8
0
 10
147.171
 11
147.456
 20
-90.412
 21
-91.474
  0
LINE
  8
0
 10
147.456
 11
148.234
 20
-91.474
 21
-92.252
  0
LINE
  8
0
 10
148.234
 11
159.492
 20
-92.252
 21
-98.752
  0
LINE
  8
0
 10
159.492
 11
129.904
 20
-98.752
 21
-150
  0
LINE
  8
0
 10
129.904
 11
-129.904
 20
-150
 21
-150
  0
LINE
  8
0
 10
-129.904
 11
-141.492
 20
-150
 21
-129.929
  0
LINE
  8
0
 10
-141.492
 11
-130.234
 20
-129.929
 21
-123.429
  0
LINE
  8
0
 10
-130.234
 11
-129.456
 20
-123.429
 21
-122.65
  0
LINE
  8
0
 10
-129.456
 11
-129.171
 20
-122.65
 21
-121.589
  0
LINE
  8
0
 10
-129.171
 11
-129.456
 20
-121.589
 21
-120.526
  0
LINE
  8
0
 10
-129.456
 11
-130.234
 20
-120.526
 21
-119.748
  0
LINE
  8
0
 10
-130.234
 11
-131.296
 20
-119.748
 21
-119.463
  0
LINE
  8
0
 10
-131.296
 11
-132.359
 20
-119.463
 21
-119.748
  0
LINE
  8
0
 10
-132.359
 11
-143.617
 20
-119.748
 21
-126.248
  0
LINE
  8
0
 10
-143.617
 11
-175
 20
-126.248
 21
-71.891
  0
LINE
  8
0
 10
157.501
 11
157.786
 20
-82.52
 21
-81.457
  0
LINE
  8
0
 10
157.786
 11
158.564
 20
-81.457
 21
-80.679
  0
LINE
  8
0
 10
158.564
 11
159.626
 20
-80.679
 21
-80.394
  0
LINE
  8
0
 10
159.626
 11
160.689
 20
-80.394
 21
-80.679
  0
LINE
  8
0
 10
160.689
 11
161.467
 20
-80.679
 21
-81.457
  0
LINE
  8
0
 10
161.467
 11
161.751
 20
-81.457
 21
-82.519
  0
LINE
  8
0
 10
161.751
 11
161.467
 20
-82.519
 21
-83.582
  0
LINE
  8
0
 10
161.467
 11
160.688
 20
-83.582
 21
-84.36
  0
LINE
  8
0
 10
160.688
 11
159.627
 20
-84.36
 21
-84.644
  0
LINE
  8
0
 10
159.627
 11
158.564
 20
-84.644
 21
-84.36
  0
LINE
  8
0
 10
158.564
 11
157.786
 20
-84.36
 21
-83.581
  0
LINE
  8
0
 10
157.786
 11
157.501
 20
-83.581
 21
-82.52
  0
LINE
  8
0
 10
159.125
 11
159.343
 20
-40
 21
-39.187
  0
LINE
  8
0
 10
159.343
 11
159.937
 20
-39.187
 21
-38.593
  0
LINE
  8
0
 10
159.937
 11
160.75
 20
-38.593
 21
-38.375
  0
LINE
  8
0
 10
160.75
 11
161.563
 20
-38.375
 21
-38.593
  0
LINE
  8
0
 10
161.563
 11
162.157
 20
-38.593
 21
-39.187
  0
LINE
  8
0
 10
162.157
 11
162.375
 20
-39.187
 21
-40
  0
LINE
  8
0
 10
162.375
 11
162.157
 20
-40
 21
-40.813
  0
LINE
  8
0
 10
162.157
 11
161.563
 20
-40.813
 21
-41.407
  0
LINE
  8
0
 10
161.563
 11
160.75
 20
-41.407
 21
-41.625
  0
LINE
  8
0
 10
160.75
 11
159.937
 20
-41.625
 21
-41.407
  0
LINE
  8
0
 10
159.937
 11
159.343
 20
-41.407
 21
-40.813
  0
LINE
  8
0
 10
159.343
 11
159.125
 20
-40.813
 21
-40
  0
LINE
  8
0
 10
159.125
 11
159.343
 20
37.5
 21
38.313
  0
LINE
  8
0
 10
159.343
 11
159.937
 20
38.313
 21
38.907
  0
LINE
  8
0
 10
159.937
 11
160.75
 20
38.907
 21
39.125
  0
LINE
  8
0
 10
160.75
 11
161.563
 20
39.125
 21
38.907
  0
LINE
  8
0
 10
161.563
 11
162.157
 20
38.907
 21
38.313
  0
LINE
  8
0
 10
162.157
 11
162.375
 20
38.313
 21
37.5
  0
LINE
  8
0
 10
162.375
 11
162.157
 20
37.5
 21
36.687
  0
LINE
  8
0
 10
162.157
 11
161.563
 20
36.687
 21
36.093
  0
LINE
  8
0
 10
161.563
 11
160.75
 20
36.093
 21
35.875
  0
LINE
  8
0
 10
160.75
 11
159.937
 20
35.875
 21
36.093
  0
LINE
  8
0
 10
159.937
 11
159.343
 20
36.093
 21
36.687
  0
LINE
  8
0
 10
159.343
 11
159.125
 20
36.687
 21
37.5
  0
LINE
  8
0
 10
159.125
 11
159.343
 20
115
 21
115.813
  0
LINE
  8
0
 10
159.343
 11
159.937
 20
115.813
 21
116.407
  0
LINE
  8
0
 10
159.937
 11
160.75
 20
116.407
 21
116.625
  0
LINE
  8
0
 10
160.75
 11
161.563
 20
116.625
 21
116.407
  0
LINE
  8
0
 10
161.563
 11
162.157
 20
116.407
 21
115.813
  0
LINE
  8
0
 10
162.157
 11
162.375
 20
115.813
 21
115
  0
LINE
  8
0
 10
162.375
 11
162.157
 20
115
 21
114.187
  0
LINE
  8
0
 10
162.157
 11
161.563
 20
114.187
 21
113.593
  0
LINE
  8
0
 10
161.563
 11
160.75
 20
113.593
 21
113.375
  0
LINE
  8
0
 10
160.75
 11
159.937
 20
113.375
 21
113.593
  0
LINE
  8
0
 10
159.937
 11
159.343
 20
113.593
 21
114.187
  0
LINE
  8
0
 10
159.343
 11
159.125
 20
114.187
 21
115
  0
ENDSEC
  0
SECTION
  2
OBJECTS
  0
DICTIONARY
  0
ENDSEC
  0
EOF
