<?xml version="1.0" encoding="UTF-8" standalone="no"?>
<!-- Created with Inkscape (http://www.inkscape.org/) -->

<svg
   xmlns:dc="http://purl.org/dc/elements/1.1/"
   xmlns:cc="http://creativecommons.org/ns#"
   xmlns:rdf="http://www.w3.org/1999/02/22-rdf-syntax-ns#"
   xmlns:svg="http://www.w3.org/2000/svg"
   xmlns="http://www.w3.org/2000/svg"
   xmlns:sodipodi="http://sodipodi.sourceforge.net/DTD/sodipodi-0.dtd"
   xmlns:inkscape="http://www.inkscape.org/namespaces/inkscape"
   width="744.09448819"
   height="1052.3622047"
   id="svg2"
   version="1.1"
   inkscape:version="0.48.1 r9760"
   sodipodi:docname="phonerack2.svg">
  <defs
     id="defs4" />
  <sodipodi:namedview
     id="base"
     pagecolor="#ffffff"
     bordercolor="#666666"
     borderopacity="1.0"
     inkscape:pageopacity="0.0"
     inkscape:pageshadow="2"
     inkscape:zoom="0.70710678"
     inkscape:cx="320.25493"
     inkscape:cy="812.66571"
     inkscape:document-units="px"
     inkscape:current-layer="layer1"
     showgrid="true"
     inkscape:window-width="1280"
     inkscape:window-height="724"
     inkscape:window-x="22"
     inkscape:window-y="11"
     inkscape:window-maximized="0"
     showguides="true"
     inkscape:guide-bbox="true">
    <inkscape:grid
       type="xygrid"
       id="grid2985"
       units="mm"
       empspacing="10"
       dotted="true"
       visible="true"
       enabled="true"
       snapvisiblegridlinesonly="true"
       spacingx="3mm"
       spacingy="3mm" />
  </sodipodi:namedview>
  <metadata
     id="metadata7">
    <rdf:RDF>
      <cc:Work
         rdf:about="">
        <dc:format>image/svg+xml</dc:format>
        <dc:type
           rdf:resource="http://purl.org/dc/dcmitype/StillImage" />
        <dc:title></dc:title>
      </cc:Work>
    </rdf:RDF>
  </metadata>
  <g
     inkscape:label="Layer 1"
     inkscape:groupmode="layer"
     id="layer1">
    <path
       style="fill:#000000;fill-opacity:0.50196078;stroke:#000000;stroke-width:1;stroke-linecap:round;stroke-linejoin:miter;stroke-miterlimit:3.7688334;stroke-opacity:1;stroke-dasharray:none;stroke-dashoffset:0"
       d="m 10.626476,213.92542 0,158.09375 -10.62499962,0 0,31.90625 10.62499962,0 0,21.25 -10.62499962,0 0,31.90625 10.62499962,0 0,10.625 233.875004,0 0,-10.625 10.625,0 0,-31.90625 -10.625,0 0,-21.25 10.625,0 0,-31.90625 -10.625,0 0,-158.09375 -233.875004,0 z m 21.28125,232.53125 31.875,0 0,10.625 -31.875,0 0,-10.625 z m 53.15625,0 31.875004,0 0,10.625 -31.875004,0 0,-10.625 z m 53.125004,0 31.90625,0 0,10.625 -31.90625,0 0,-10.625 z m 53.15625,0 31.90625,0 0,10.625 -31.90625,0 0,-10.625 z"
       id="path4452"
       inkscape:connector-curvature="0" />
    <path
       style="fill:#000000;fill-opacity:0.50196078;stroke:#000000;stroke-width:1;stroke-linecap:round;stroke-linejoin:miter;stroke-miterlimit:3.7688334;stroke-opacity:1;stroke-dasharray:none;stroke-dashoffset:0"
       d="M 29.71875 10.65625 L 29.71875 21.28125 L 8.4375 21.28125 L 8.4375 42.53125 L -2.1875 42.53125 L -2.1875 85.0625 L 8.4375 85.0625 L 8.4375 106.3125 L 29.71875 106.3125 L 29.71875 116.96875 L 61.59375 116.96875 L 61.59375 106.3125 L 82.875 106.3125 L 82.875 116.96875 L 114.75 116.96875 L 114.75 106.3125 L 136 106.3125 L 136 116.96875 L 167.90625 116.96875 L 167.90625 106.3125 L 189.15625 106.3125 L 189.15625 116.96875 L 221.0625 116.96875 L 221.0625 106.3125 L 242.3125 106.3125 L 242.3125 85.0625 L 252.9375 85.0625 L 252.9375 42.53125 L 242.3125 42.53125 L 242.3125 21.28125 L 221.0625 21.28125 L 221.0625 10.65625 L 189.15625 10.65625 L 189.15625 21.28125 L 167.90625 21.28125 L 167.90625 10.65625 L 136 10.65625 L 136 21.28125 L 114.75 21.28125 L 114.75 10.65625 L 82.875 10.65625 L 82.875 21.28125 L 61.59375 21.28125 L 61.59375 10.65625 L 29.71875 10.65625 z M 23.875 43.03125 L 65.40625 43.03125 L 65.40625 84.5625 L 23.875 84.5625 L 23.875 43.03125 z M 185.34375 43.03125 L 226.84375 43.03125 L 226.84375 84.5625 L 185.34375 84.5625 L 185.34375 43.03125 z "
       id="rect3876" />
    <path
       style="fill:#000000;fill-opacity:0.50196078;stroke:#000000;stroke-width:0.99999988;stroke-linecap:round;stroke-linejoin:miter;stroke-miterlimit:3.7688334;stroke-opacity:1;stroke-dasharray:none;stroke-dashoffset:0"
       d="m 10.63317,138.19388 0,10.625 -10.62499992,0 0,31.90625 10.62499992,0 0,10.625 233.875,0 0,-10.625 10.625,0 0,-31.90625 -10.625,0 0,-10.625 -233.875,0 z m 21.25,10.625 31.9062,0 0,10.625 -31.9062,0 0,-10.625 z m 53.1562,0 31.9063,0 0,10.625 -31.9063,0 0,-10.625 z m 53.1563,0 31.875,0 0,10.625 -31.875,0 0,-10.625 z m 53.1563,0 31.875,0 0,10.625 -31.875,0 0,-10.625 z"
       id="path3984"
       inkscape:connector-curvature="0" />
    <path
       style="fill:#000000;fill-opacity:0.50196078;stroke:#000000;stroke-width:1;stroke-linecap:round;stroke-linejoin:miter;stroke-miterlimit:3.7688334;stroke-opacity:1;stroke-dasharray:none;stroke-dashoffset:0"
       d="M 271.625 309.3125 L 271.625 319.9375 L 261 319.9375 L 261 351.84375 L 271.625 351.84375 L 271.625 373.09375 L 261 373.09375 L 261 404.96875 L 271.625 404.96875 L 271.625 426.25 L 261 426.25 L 261 458.125 L 271.625 458.125 L 271.625 468.75 L 505.46875 468.75 L 505.46875 458.125 L 516.09375 458.125 L 516.09375 426.25 L 505.46875 426.25 L 505.46875 404.96875 L 516.09375 404.96875 L 516.09375 373.09375 L 505.46875 373.09375 L 505.46875 351.84375 L 516.09375 351.84375 L 516.09375 319.9375 L 505.46875 319.9375 L 505.46875 309.3125 L 271.625 309.3125 z M 331.875 384.21875 C 334.53423 384.21875 336.6875 386.37202 336.6875 389.03125 C 336.6875 391.69048 334.53423 393.84375 331.875 393.84375 C 329.21577 393.84375 327.0625 391.69048 327.0625 389.03125 C 327.0625 386.37202 329.21577 384.21875 331.875 384.21875 z M 445.1875 384.21875 C 447.84673 384.21875 450 386.37202 450 389.03125 C 450 391.69048 447.84673 393.84375 445.1875 393.84375 C 442.52827 393.84375 440.375 391.69048 440.375 389.03125 C 440.375 386.37202 442.52827 384.21875 445.1875 384.21875 z "
       id="rect4344" />
    <path
       style="fill:#000000;fill-opacity:0.50196078;stroke:#000000;stroke-width:1;stroke-linecap:round;stroke-linejoin:miter;stroke-miterlimit:3.7688334;stroke-opacity:1;stroke-dasharray:none;stroke-dashoffset:0"
       d="M 263.125 11.6875 L 263.125 298.6875 L 422.5625 298.6875 L 422.5625 11.6875 L 263.125 11.6875 z M 273.75 22.3125 L 305.625 22.3125 L 305.625 32.9375 L 273.75 32.9375 L 273.75 22.3125 z M 326.90625 22.3125 L 358.78125 22.3125 L 358.78125 32.9375 L 326.90625 32.9375 L 326.90625 22.3125 z M 380.03125 22.3125 L 411.9375 22.3125 L 411.9375 32.9375 L 380.03125 32.9375 L 380.03125 22.3125 z M 361.0625 155.5625 L 366.375 164.78125 L 338.75 180.71875 L 333.4375 171.53125 L 361.0625 155.5625 z M 315.03125 182.15625 L 320.34375 191.34375 L 292.71875 207.3125 L 287.40625 198.09375 L 315.03125 182.15625 z M 312.9375 219.625 L 334.1875 256.4375 L 325 261.75 L 303.75 224.9375 L 312.9375 219.625 z M 362.875 265 L 368.1875 274.21875 L 340.5625 290.15625 L 335.25 280.9375 L 362.875 265 z "
       id="path4621" />
    <path
       inkscape:connector-curvature="0"
       style="fill:#000000;fill-opacity:0.50196078;stroke:#000000;stroke-width:1;stroke-linecap:round;stroke-linejoin:miter;stroke-miterlimit:3.7688334;stroke-opacity:1;stroke-dasharray:none;stroke-dashoffset:0"
       d="m 431.71481,11.68718 0,287 159.4375,0 0,-287 -159.4375,0 z m 10.625,10.625 31.875,0 0,10.625 -31.875,0 0,-10.625 z m 53.15625,0 31.875,0 0,10.625 -31.875,0 0,-10.625 z m 53.125,0 31.90625,0 0,10.625 -31.90625,0 0,-10.625 z m -18.96875,133.25 5.3125,9.21875 -27.625,15.9375 -5.3125,-9.1875 27.625,-15.96875 z m -46.03125,26.59375 5.3125,9.1875 -27.625,15.96875 -5.3125,-9.21875 27.625,-15.9375 z m -2.09375,37.46875 21.25,36.8125 -9.1875,5.3125 -21.25,-36.8125 9.1875,-5.3125 z m 49.9375,45.375 5.3125,9.21875 -27.625,15.9375 -5.3125,-9.21875 27.625,-15.9375 z"
       id="path4621-6" />
  </g>
</svg>
