<?xml version="1.0" encoding="UTF-8" standalone="no"?>
<!-- Created with Inkscape (http://www.inkscape.org/) -->

<svg
   xmlns:dc="http://purl.org/dc/elements/1.1/"
   xmlns:cc="http://creativecommons.org/ns#"
   xmlns:rdf="http://www.w3.org/1999/02/22-rdf-syntax-ns#"
   xmlns:svg="http://www.w3.org/2000/svg"
   xmlns="http://www.w3.org/2000/svg"
   xmlns:inkscape="http://www.inkscape.org/namespaces/inkscape"
   version="1.1"
   width="2480.3149"
   height="1052.3622"
   id="svg2">
  <defs
     id="defs4">
    <inkscape:path-effect
       effect="vonkoch"
       id="path-effect3027" />
    <inkscape:path-effect
       effect="knot"
       id="path-effect3025" />
    <inkscape:path-effect
       effect="knot"
       id="path-effect3023" />
    <inkscape:path-effect
       effect="rough_hatches"
       id="path-effect3021" />
    <inkscape:path-effect
       effect="envelope"
       id="path-effect3019" />
    <inkscape:path-effect
       effect="rough_hatches"
       id="path-effect3017" />
    <inkscape:path-effect
       effect="spiro"
       id="path-effect3015" />
    <inkscape:path-effect
       effect="gears"
       id="path-effect3013" />
    <clipPath
       id="clipPath8242-0">
      <path
         d="m 256,186.25 c -38.51503,0 -69.75,31.23498 -69.75,69.75 0,38.51503 31.23497,69.75 69.75,69.75 38.51504,0 69.75,-31.23497 69.75,-69.75 0,-38.51502 -31.23496,-69.75 -69.75,-69.75 z m 0,23.6875 c 25.44074,0 46.0625,20.62178 46.0625,46.0625 0,25.44073 -20.62176,46.0625 -46.0625,46.0625 -25.44072,0 -46.0625,-20.62177 -46.0625,-46.0625 0,-25.44072 20.62178,-46.0625 46.0625,-46.0625 z"
         id="path8244-9"
         style="color:#000000;fill:#000000;fill-opacity:1;stroke:none;stroke-width:1;marker:none;visibility:visible;display:inline;overflow:visible;enable-background:accumulate" />
    </clipPath>
    <clipPath
       id="clipPath8242">
      <path
         d="m 256,186.25 c -38.51503,0 -69.75,31.23498 -69.75,69.75 0,38.51503 31.23497,69.75 69.75,69.75 38.51504,0 69.75,-31.23497 69.75,-69.75 0,-38.51502 -31.23496,-69.75 -69.75,-69.75 z m 0,23.6875 c 25.44074,0 46.0625,20.62178 46.0625,46.0625 0,25.44073 -20.62176,46.0625 -46.0625,46.0625 -25.44072,0 -46.0625,-20.62177 -46.0625,-46.0625 0,-25.44072 20.62178,-46.0625 46.0625,-46.0625 z"
         id="path8244"
         style="color:#000000;fill:#000000;fill-opacity:1;stroke:none;stroke-width:1;marker:none;visibility:visible;display:inline;overflow:visible;enable-background:accumulate" />
    </clipPath>
    <inkscape:path-effect
       effect="gears"
       id="path-effect3013-9" />
    <inkscape:path-effect
       effect="spiro"
       id="path-effect3015-6" />
    <inkscape:path-effect
       effect="rough_hatches"
       id="path-effect3017-5" />
    <inkscape:path-effect
       effect="envelope"
       id="path-effect3019-6" />
    <inkscape:path-effect
       effect="rough_hatches"
       id="path-effect3021-6" />
    <inkscape:path-effect
       effect="knot"
       id="path-effect3023-0" />
    <inkscape:path-effect
       effect="knot"
       id="path-effect3025-3" />
    <inkscape:path-effect
       effect="vonkoch"
       id="path-effect3027-1" />
  </defs>
  <metadata
     id="metadata7">
    <rdf:RDF>
      <cc:Work
         rdf:about="">
        <dc:format>image/svg+xml</dc:format>
        <dc:type
           rdf:resource="http://purl.org/dc/dcmitype/StillImage" />
        <dc:title></dc:title>
      </cc:Work>
    </rdf:RDF>
  </metadata>
  <g
     transform="translate(0,-2.7859377e-5)"
     id="layer1">
    <path
       d="m 516.57147,123.66392 c -220.0367,0 -398.4062,178.36949 -398.4062,398.40625 0,220.03673 178.3695,398.40625 398.4062,398.40625 220.0367,0 398.4375,-178.36952 398.4375,-398.40625 0,-220.03675 -178.4008,-398.40625 -398.4375,-398.40625 z m 41.0625,45.3125 c 67.0854,7.66486 128.3686,33.87254 178.6875,73.40625 a 42.897901,42.897901 0 0 0 -19.0313,11 l -17.6562,17.65625 c -39.5282,-28.96821 -86.2195,-48.82446 -136.75,-56.59375 l 0,-25.03125 a 42.897901,42.897901 0 0 0 -5.25,-20.4375 z m -84.9375,0.34375 a 42.897901,42.897901 0 0 0 -5.0625,20.09375 l 0,25.03125 c -50.5304,7.76929 -97.2218,27.62554 -136.75,56.59375 l -17.6562,-17.65625 a 42.897901,42.897901 0 0 0 -17.0938,-10.4375 c 49.7414,-39.28807 110.2661,-65.5172 176.5625,-73.625 z m 37.8438,20.09375 9.4375,0 0,64.28125 c 70.7565,1.2193 134.8525,29.72415 182.2187,75.46875 l 45.4375,-45.4375 6.6875,6.65625 -45.4687,45.46875 c 45.7535,47.36771 74.2806,111.45441 75.5,182.21875 l 64.25,0 0,9.4375 -64.25,0 c -1.2193,70.75619 -29.7242,134.86002 -75.4688,182.21875 l 45.4375,45.4375 -6.6875,6.65625 -45.4375,-45.43751 c -47.3666,45.73954 -111.4601,74.24973 -182.2187,75.46876 l 0,64.28125 -9.4375,0 0,-64.28125 c -70.7587,-1.21903 -134.8522,-29.72922 -182.2188,-75.46876 l -45.4375,45.43751 -6.6875,-6.65625 45.4375,-45.4375 c -45.7446,-47.35873 -74.2494,-111.46256 -75.4687,-182.21875 l -64.2813,0 0,-9.4375 64.2813,0 c 1.2194,-70.76434 29.7465,-134.85103 75.5,-182.21875 l -45.4688,-45.46875 6.6875,-6.65625 45.4375,45.4375 c 47.3662,-45.7446 111.4623,-74.24945 182.2188,-75.46875 l 0,-64.28125 z m 285.1249,112.15625 c 39.8271,50.39473 66.258,111.86072 74,179.1875 a 42.897901,42.897901 0 0 0 -21.0624,-5.59375 l -25,0 c -7.7721,-50.5464 -27.6444,-97.21801 -56.625,-136.75 l 17.6874,-17.6875 a 42.897901,42.897901 0 0 0 11,-19.15625 z m -560.0937,2.4375 a 42.897901,42.897901 0 0 0 10.2813,16.71875 l 17.6875,17.6875 c -28.9808,39.53199 -48.853,86.20361 -56.625,136.75 l -25.0313,0 a 42.897901,42.897901 0 0 0 -18.1875,4.125 c 7.8257,-65.66743 33.4093,-125.71867 71.875,-175.28125 z m 633.9063,260.90625 c -7.983,66.87439 -34.392,127.92645 -74.0626,178 a 42.897901,42.897901 0 0 0 -10.75,-18.09375 l -17.6562,-17.65625 c 28.9697,-39.52774 48.8246,-86.21848 56.5938,-136.75 l 25,0 a 42.897901,42.897901 0 0 0 20.875,-5.5 z m -705.5938,1.46875 a 42.897901,42.897901 0 0 0 18,4.03125 l 25.0313,0 c 7.769,50.53151 27.6241,97.22225 56.5937,136.75 l -17.6562,17.65625 a 42.897901,42.897901 0 0 0 -9.9375,15.75 c -38.3556,-49.26107 -63.9679,-108.92441 -72.0313,-174.1875 z m 167,208.125 c 39.5268,28.96604 86.2186,48.82352 136.75,56.59375 l 0,25.03125 a 42.897901,42.897901 0 0 0 4.3125,18.59375 c -65.4682,-8.14709 -125.3006,-33.9481 -174.625,-72.5625 a 42.897901,42.897901 0 0 0 15.9063,-10 l 17.6562,-17.65625 z m 368.75,0 17.6562,17.65625 a 42.897901,42.897901 0 0 0 17.7188,10.625 c -49.8816,38.81302 -110.4165,64.57464 -176.625,72.28125 a 42.897901,42.897901 0 0 0 4.5,-18.9375 l 0,-25.03125 c 50.5315,-7.77023 97.2232,-27.62771 136.75,-56.59375 z"
       id="path4488"
       style="fill:none;stroke:#000000;stroke-width:0.03543307;stroke-linecap:round;stroke-linejoin:round;stroke-miterlimit:4;stroke-opacity:1;stroke-dasharray:none" />
    <path
       d="m 518.03677,8.3043933 c -283.6005,0 -513.500004,229.8994867 -513.500004,513.4999967 0,283.60051 229.899504,513.50001 513.500004,513.50001 283.6005,0 513.50013,-229.8995 513.50003,-513.50001 0,-283.60051 -229.89953,-513.4999967 -513.50003,-513.4999967 z m -17.4375,28.4999997 a 28.061491,28.061491 0 0 0 -4.7813,14.96875 l -0.4062,17.5625 c -104.1405,5.13938 -199.1983,45.603107 -273.25,109.531247 l -12.5,-12.5 a 28.061491,28.061491 0 0 0 -14.0313,-7.59375 C 277.27697,86.235217 383.61197,40.928553 500.59927,36.804393 z m 57.6875,1.34375 c 112.0134,9.17098 213.1261,56.193278 290.5937,128.343747 a 28.061491,28.061491 0 0 0 -14.1875,7.21875 l -12.7812,12.1875 C 751.73597,122.39537 661.47957,80.584293 561.94297,70.991893 l 0.4063,-17.65625 a 28.061491,28.061491 0 0 0 -4.0625,-15.1875 z m -34.4063,14.28125 10.4063,0.25 -1.0313,44.437498 c 113.0123,3.976279 214.8008,52.065209 288.6563,127.593749 l 32.1562,-30.6875 7.1875,7.53125 -32.1562,30.6875 c 69.5762,74.70935 112.555,174.51378 113.875,284.34375 l 44.4374,0 0,10.40625 -44.4374,0 c -1.3551,113.42764 -47.1508,216.1472 -120.7813,291.59375 l 31.4375,31.4375 -7.375,7.34375 -31.4062,-31.40625 c -76.5951,74.75923 -181.3261,120.8125 -296.8125,120.8125 -1.6044,0 -3.2123,-0.0136 -4.8125,-0.0312 l -1.0313,44.43755 -10.4062,-0.25 1.0312,-44.43755 c -113.0122,-3.97638 -214.8007,-52.06526 -288.6562,-127.5938 l -32.1563,30.65625 -7.1875,-7.53125 32.1563,-30.65625 C 137.39147,736.65047 94.411565,636.83414 93.099265,526.99189 l -44.437499,0 0,-10.40625 44.437499,0 c 1.3631,-113.41529 47.157505,-216.12286 120.781205,-291.5625 l -31.4375,-31.4375 7.375,-7.375 31.4375,31.4375 c 76.5937,-74.74995 181.303,-120.812499 296.7813,-120.812499 1.6044,0 3.2123,0.0136 4.8125,0.0312 l 1.0312,-44.437498 z M 155.03677,199.39814 a 28.061491,28.061491 0 0 0 7.5625,14.03125 l 12.5,12.5 C 113.36017,297.44322 73.598266,388.5545 66.317966,488.52314 l -17.6562,0 a 28.061491,28.061491 0 0 0 -15.1563,4.4375 c 6.5747,-112.49968 51.348001,-214.57307 121.531304,-293.5625 z m 733.5312,8.65625 c 65.8571,77.7347 107.66963,176.49895 114.00003,284.9375 a 28.061491,28.061491 0 0 0 -15.15633,-4.46875 l -17.6562,0 c -7.006,-96.20422 -44.0999,-184.21301 -101.9062,-254.4375 l 12.7812,-12.21875 a 28.061491,28.061491 0 0 0 7.9375,-13.8125 z M 33.505466,550.58564 a 28.061491,28.061491 0 0 0 15.1563,4.46875 l 17.6562,0 c 7.0004,96.21495 44.094904,184.23722 101.906304,254.46875 l -12.7813,12.1875 a 28.061491,28.061491 0 0 0 -7.9375,13.84375 C 81.642067,757.81222 39.829666,659.03645 33.505466,550.58564 z m 969.062534,0.0312 c -6.5681,112.512 -51.34143,214.59701 -121.53123,293.59375 a 28.061491,28.061491 0 0 0 -7.5625,-14.03125 l -12.5,-12.5 c 61.7439,-71.52029 101.5065,-162.6463 108.7812,-262.625 l 17.6562,0 a 28.061491,28.061491 0 0 0 15.15633,-4.4375 z m -788.40623,307.0625 c 70.1779,63.51058 160.4249,105.34436 259.9687,114.9375 l -0.4062,17.65625 a 28.061491,28.061491 0 0 0 4.0625,15.18751 c -112.029,-9.17231 -213.1532,-56.20751 -290.625,-128.37501 a 28.061491,28.061491 0 0 0 14.2187,-7.21875 l 12.7813,-12.1875 z m 599.7812,7.0625 12.4688,12.46875 a 28.061491,28.061491 0 0 0 14.0312,7.59375 c -81.6484,72.54592 -187.9741,117.87556 -304.9687,122.00016 a 28.061491,28.061491 0 0 0 4.7812,-14.96881 l 0.4063,-17.56255 c 104.1494,-5.13839 199.2229,-45.59323 273.2812,-109.53125 z"
       id="path4564"
       style="fill:none;stroke:#000000;stroke-width:0.03543307;stroke-linecap:round;stroke-linejoin:round;stroke-miterlimit:4;stroke-opacity:1;stroke-dasharray:none" />
    <g
       transform="matrix(2.1990473,0,0,2.22561,19.415317,-14.810445)"
       id="g4909"
       style="stroke-width:0.16016476;stroke-miterlimit:4;stroke-dasharray:none">
      <title
         id="title4911">Layer 1</title>
      <g
         id="layer1-2"
         style="stroke-width:0.16016476;stroke-miterlimit:4;stroke-dasharray:none" />
    </g>
    <g
       transform="translate(-1197.6129,-392.78223)"
       id="g4259" />
    <g
       transform="translate(-1197.6129,-392.78223)"
       id="g4311" />
    <g
       transform="translate(-58.206358,-591.31469)"
       id="g4430"
       style="fill:none;stroke:#000000;stroke-width:0.03543307;stroke-miterlimit:4;stroke-opacity:1;stroke-dasharray:none">
      <path
         d="m 1120.6562,469.25 c -18.8016,2.17608 -34.066,15.55137 -38.5937,33.09375 0.037,0.58475 0.086,1.16578 0.125,1.75 l 44.9687,0 0,10.5625 -44.1562,0 c 3.9618,45.70899 13.9047,89.69873 29.0625,131.1875 l 51.2187,0 0,10.53125 -47.25,0 c 18.5915,47.59512 44.0865,91.73759 75.25,131.1875 l 65.875,0 0,10.53125 -57.3124,0 c 50.538,60.62225 114.7869,109.42015 188,141.59375 l 101.5937,0 0,-12 -0.031,0 0,-1.15625 85.875,0 0,-0.0625 0.2188,0 0,-0.5625 0,-12.84375 1.1562,0 0,-34.59375 0,-0.375 0,-13.65625 -1.125,0 0,-20.90625 -34.4062,0 0,20.90625 -54.125,0 0,-20.71875 -34.4062,0 0,10.78125 -35,0 0,-12.5 c -135.4167,-57.4045 -232.57,-180.2777 -246.4063,-334.125 l 0,0.53125 c -2.2534,-20.47035 -18.8129,-36.75652 -39.75,-39.15625 l -10.7813,0 z m 25.875,65.15625 c 4.2733,29.25005 11.4182,57.38922 21.1563,84.15625 a 27.666175,27.666175 0 0 0 -4.4063,-0.375 l -31.4062,0 c -7.8571,-24.4951 -13.8524,-49.84217 -17.75,-75.875 l 13.0312,0 a 27.666175,27.666175 0 0 0 19.375,-7.90625 z m 42.25,132.625 c 17.4792,33.9989 39.5881,65.03814 65.1876,92.875 l -48.9688,0 c -17.7119,-23.71478 -33.3052,-49.10373 -46.5,-75.875 l 4.7812,0 a 27.666175,27.666175 0 0 0 25.5,-17 z m 96.0313,123.53125 c 31.2147,27.74213 66.6734,50.89827 105.125,69.09375 l 0,4.78125 a 27.666175,27.666175 0 0 0 27.6563,27.65625 l 35,0 a 27.666175,27.666175 0 0 0 17.2187,-6.03125 27.666175,27.666175 0 0 0 5.9063,3.59375 27.666175,27.666175 0 0 0 -13.9063,22.375 l -67.7813,0 C 1345.792,890.17485 1301.7542,860.65497 1263.4688,825 a 27.666175,27.666175 0 0 0 21.3437,-26.90625 l 0,-7.53125 z"
         transform="translate(115.61158,505.25414)"
         id="path4432"
         style="fill:none;stroke:#000000;stroke-width:0.03543307;stroke-linecap:round;stroke-linejoin:round;stroke-miterlimit:4;stroke-opacity:1;stroke-dasharray:none" />
    </g>
    <g
       transform="translate(19.263165,-695.66124)"
       id="g3861"
       style="fill:none;stroke:#000000;stroke-width:0.03543307;stroke-miterlimit:4;stroke-opacity:1;stroke-dasharray:none">
      <path
         d="m 1120.6562,469.25 c -18.8016,2.17608 -34.066,15.55137 -38.5937,33.09375 0.037,0.58475 0.086,1.16578 0.125,1.75 l 44.9687,0 0,10.5625 -44.1562,0 c 3.9618,45.70899 13.9047,89.69873 29.0625,131.1875 l 51.2187,0 0,10.53125 -47.25,0 c 18.5915,47.59512 44.0865,91.73759 75.25,131.1875 l 65.875,0 0,10.53125 -57.3124,0 c 50.538,60.62225 114.7869,109.42015 188,141.59375 l 101.5937,0 0,-12 -0.031,0 0,-1.15625 85.875,0 0,-0.0625 0.2188,0 0,-0.5625 0,-12.84375 1.1562,0 0,-34.59375 0,-0.375 0,-13.65625 -1.125,0 0,-20.90625 -34.4062,0 0,20.90625 -54.125,0 0,-20.71875 -34.4062,0 0,10.78125 -35,0 0,-12.5 c -135.4167,-57.4045 -232.57,-180.2777 -246.4063,-334.125 l 0,0.53125 c -2.2534,-20.47035 -18.8129,-36.75652 -39.75,-39.15625 l -10.7813,0 z m 25.875,65.15625 c 4.2733,29.25005 11.4182,57.38922 21.1563,84.15625 a 27.666175,27.666175 0 0 0 -4.4063,-0.375 l -31.4062,0 c -7.8571,-24.4951 -13.8524,-49.84217 -17.75,-75.875 l 13.0312,0 a 27.666175,27.666175 0 0 0 19.375,-7.90625 z m 42.25,132.625 c 17.4792,33.9989 39.5881,65.03814 65.1876,92.875 l -48.9688,0 c -17.7119,-23.71478 -33.3052,-49.10373 -46.5,-75.875 l 4.7812,0 a 27.666175,27.666175 0 0 0 25.5,-17 z m 96.0313,123.53125 c 31.2147,27.74213 66.6734,50.89827 105.125,69.09375 l 0,4.78125 a 27.666175,27.666175 0 0 0 27.6563,27.65625 l 35,0 a 27.666175,27.666175 0 0 0 17.2187,-6.03125 27.666175,27.666175 0 0 0 5.9063,3.59375 27.666175,27.666175 0 0 0 -13.9063,22.375 l -67.7813,0 C 1345.792,890.17485 1301.7542,860.65497 1263.4688,825 a 27.666175,27.666175 0 0 0 21.3437,-26.90625 l 0,-7.53125 z"
         transform="translate(115.61158,505.25414)"
         id="path3863"
         style="fill:none;stroke:#000000;stroke-width:0.03543307;stroke-linecap:round;stroke-linejoin:round;stroke-miterlimit:4;stroke-opacity:1;stroke-dasharray:none" />
    </g>
    <g
       transform="translate(98.257148,-794.34952)"
       id="g3865"
       style="fill:none;stroke:#000000;stroke-width:0.03543307;stroke-miterlimit:4;stroke-opacity:1;stroke-dasharray:none">
      <path
         d="m 1120.6562,469.25 c -18.8016,2.17608 -34.066,15.55137 -38.5937,33.09375 0.037,0.58475 0.086,1.16578 0.125,1.75 l 44.9687,0 0,10.5625 -44.1562,0 c 3.9618,45.70899 13.9047,89.69873 29.0625,131.1875 l 51.2187,0 0,10.53125 -47.25,0 c 18.5915,47.59512 44.0865,91.73759 75.25,131.1875 l 65.875,0 0,10.53125 -57.3124,0 c 50.538,60.62225 114.7869,109.42015 188,141.59375 l 101.5937,0 0,-12 -0.031,0 0,-1.15625 85.875,0 0,-0.0625 0.2188,0 0,-0.5625 0,-12.84375 1.1562,0 0,-34.59375 0,-0.375 0,-13.65625 -1.125,0 0,-20.90625 -34.4062,0 0,20.90625 -54.125,0 0,-20.71875 -34.4062,0 0,10.78125 -35,0 0,-12.5 c -135.4167,-57.4045 -232.57,-180.2777 -246.4063,-334.125 l 0,0.53125 c -2.2534,-20.47035 -18.8129,-36.75652 -39.75,-39.15625 l -10.7813,0 z m 25.875,65.15625 c 4.2733,29.25005 11.4182,57.38922 21.1563,84.15625 a 27.666175,27.666175 0 0 0 -4.4063,-0.375 l -31.4062,0 c -7.8571,-24.4951 -13.8524,-49.84217 -17.75,-75.875 l 13.0312,0 a 27.666175,27.666175 0 0 0 19.375,-7.90625 z m 42.25,132.625 c 17.4792,33.9989 39.5881,65.03814 65.1876,92.875 l -48.9688,0 c -17.7119,-23.71478 -33.3052,-49.10373 -46.5,-75.875 l 4.7812,0 a 27.666175,27.666175 0 0 0 25.5,-17 z m 96.0313,123.53125 c 31.2147,27.74213 66.6734,50.89827 105.125,69.09375 l 0,4.78125 a 27.666175,27.666175 0 0 0 27.6563,27.65625 l 35,0 a 27.666175,27.666175 0 0 0 17.2187,-6.03125 27.666175,27.666175 0 0 0 5.9063,3.59375 27.666175,27.666175 0 0 0 -13.9063,22.375 l -67.7813,0 C 1345.792,890.17485 1301.7542,860.65497 1263.4688,825 a 27.666175,27.666175 0 0 0 21.3437,-26.90625 l 0,-7.53125 z"
         transform="translate(115.61158,505.25414)"
         id="path3867"
         style="fill:none;stroke:#000000;stroke-width:0.03543307;stroke-linecap:round;stroke-linejoin:round;stroke-miterlimit:4;stroke-opacity:1;stroke-dasharray:none" />
    </g>
    <path
       d="m 518.10321,336.64806 c -97.2851,0 -176.12494,78.8399 -176.12494,176.12501 0,97.2849 78.83984,176.1562 176.12494,176.1562 97.2851,0 176.1563,-78.8713 176.1563,-176.1562 0,-97.28511 -78.8712,-176.12501 -176.1563,-176.12501 z m -4.5937,35.0625 9.2812,0 0,34.0938 -9.2812,0 0,-34.0938 z m -91.84373,38.0313 24.125,24.125 -6.5625,6.56251 -24.125,-24.12501 6.5625,-6.5625 z m 192.93743,0 6.5625,6.5625 -24.0937,24.12501 -6.5625,-6.56251 24.0937,-24.125 z m -101.3125,50.37501 9.2813,0 0,32.125 c 2.3367,0.4781 4.5171,1.3773 6.5,2.5625 l 22.75,-22.75 6.5625,6.5625 -22.5625,22.5625 c 1.3113,1.9723 2.2904,4.197 2.875,6.5625 l 31.9375,0 0,9.2812 -31.75,0 c -0.5017,2.4342 -1.4529,4.704 -2.7188,6.75 l 22.5,22.5 -6.5625,6.5625 -22.4375,-22.4375 c -2.017,1.297 -4.2759,2.2676 -6.6875,2.8125 l 0,31.8437 -9.2812,0 0,-31.8437 c -2.37609,-0.539 -4.60009,-1.4796 -6.59379,-2.75 l -22.6562,22.6562 -6.5625,-6.5624 22.6875,-22.6875 c -1.2241,-1.9562 -2.1303,-4.119 -2.6563,-6.4375 l -32.24995,0 0,-9.2813 32.24995,0 c 0.5168,-2.2871 1.3969,-4.439 2.5938,-6.375 l -22.9063,-22.875 6.5625,-6.5625 22.8438,22.8125 c 1.9056,-1.2287 4.0186,-2.1268 6.28119,-2.6875 l 0,-32.3437 z m -136.21869,48.0312 34.09376,0 0,9.2813 -34.09376,0 0,-9.2813 z m 248.03119,0 34.0938,0 0,9.2813 -34.0938,0 0,-9.2813 z m -185.87493,77 6.5625,6.5625 -24.125,24.0937 -6.5625,-6.5625 24.125,-24.0937 z m 157.84373,0 24.0937,24.0937 -6.5625,6.5625 -24.0937,-24.0937 6.5625,-6.5625 z m -83.5625,34.5937 9.2812,0 0,34.0937 -9.2812,0 0,-34.0937 z"
       id="path3818-2"
       style="fill:none;stroke:#000000;stroke-width:0.03543307;stroke-linecap:round;stroke-linejoin:round;stroke-miterlimit:4;stroke-opacity:1;stroke-dasharray:none" />
    <path
       d="m 1577.6026,300.37342 c -43.9922,0 -79.6563,35.66456 -79.6563,79.65625 0,43.99165 35.6641,79.65625 79.6563,79.65625 43.9921,0 79.6562,-35.6646 79.6562,-79.65625 0,-43.99169 -35.6641,-79.65625 -79.6562,-79.65625 z m -3.9063,26.46875 9.2813,0 0,34.0625 -9.2813,0 0,-34.0625 z m 38.5313,11.9375 6.5625,6.5625 -24.0938,24.09375 -6.5625,-6.5625 24.0938,-24.09375 z m -67.6563,0.28125 24.125,24.09375 -6.5625,6.5625 -24.125,-24.09375 6.5625,-6.5625 z m 33.9688,33.03125 c 6.8088,0 7.9062,0.62681 7.9062,7.4375 0,6.81069 -0.9724,7.625 -7.7812,7.625 -6.8088,0 -7.8125,-0.97056 -7.8125,-7.78125 0,-6.81069 0.8787,-7.28125 7.6875,-7.28125 z m 18.4062,2.375 34.0938,0 0,9.28125 -34.0938,0 0,-9.28125 z m -70.875,0.40625 34.0938,0 0,9.28125 -34.0938,0 0,-9.28125 z m 68.9063,14 24.0937,24.125 -6.5625,6.5625 -24.0937,-24.09375 6.5625,-6.59375 z m -32.5625,0.28125 6.5625,6.5625 -24.125,24.12505 -6.5625,-6.56255 24.125,-24.125 z m 11.6875,8.53125 9.2812,0 0,34.0937 -9.2812,0 0,-34.0937 z"
       id="path3181"
       style="fill:none;stroke:#000000;stroke-width:0.03543307;stroke-linecap:round;stroke-linejoin:round;stroke-miterlimit:4;stroke-opacity:1;stroke-dasharray:none" />
    <path
       d="m 1516.1294,5.045062 c -264.9816,0 -479.7812,214.830938 -479.7812,479.812558 0,264.9815 214.7996,479.78122 479.7812,479.78122 264.9815,0 479.8124,-214.79972 479.8124,-479.78122 0,-264.98162 -214.8309,-479.812558 -479.8124,-479.812558 z m 34.125,32.937509 c 96.7098,7.25669 184.7487,44.97887 254.5624,103.750019 a 31.509142,31.509142 0 0 0 -9.875,6.65622 l -12.7188,12.7188 C 1718.759,107.89149 1639.078,73.259321 1551.8169,65.638811 l 0,-17.96874 a 31.509142,31.509142 0 0 0 -1.5625,-9.6875 z m -69.9375,0.125 a 31.509142,31.509142 0 0 0 -1.5,9.5625 l 0,17.96874 c -87.261,7.62051 -166.9421,42.252659 -230.4062,95.468799 l -12.7188,-12.7188 a 31.509142,31.509142 0 0 0 -8.8125,-6.18747 c 69.4912,-58.698089 157.1329,-96.506109 253.4375,-104.093769 z m 30,9.5625 10,0 0,47.8125 c 102.3195,1.30424 194.9749,42.616029 263.0937,109.000029 l 33.8124,-33.81249 7.0626,7.0625 -33.8126,33.81249 c 66.384,68.1187 107.6957,160.77421 109,263.09372 l 47.8126,0 0,10 -47.8126,0 c -1.3043,102.3196 -42.616,194.975 -109,263.0938 l 33.8126,33.8125 -7.0626,7.0625 -33.8124,-33.8125 C 1715.2918,821.179 1622.6364,862.4908 1520.3169,863.7951 l 0,47.8125 -10,0 0,-47.8125 c -102.3195,-1.3043 -194.975,-42.6161 -263.0937,-108.99998 l -33.8125,33.8125 -7.0625,-7.0625 33.8125,-33.8125 c -66.384,-68.1188 -107.6958,-160.7742 -109,-263.0938 l -47.8125,0 0,-10 47.8125,0 c 1.3042,-102.31951 42.616,-194.97502 109,-263.09372 l -33.8125,-33.81249 7.0625,-7.0625 33.8125,33.81249 c 68.1187,-66.384 160.7742,-107.695789 263.0937,-109.000029 l 0,-47.8125 z M 1853.473,189.51381 c 61.3165,70.00409 101.1224,159.2547 109.2813,257.68751 a 31.509142,31.509142 0 0 0 -15.4687,-4.0625 l -17.9688,0 C 1921.6963,355.87781 1887.0643,276.1967 1833.848,212.7326 l 12.7188,-12.7188 a 31.509142,31.509142 0 0 0 6.9062,-10.49999 z m -675.7811,1.24999 a 31.509142,31.509142 0 0 0 6.375,9.25 l 12.7188,12.7188 c -53.2161,63.4641 -87.8484,143.14521 -95.4689,230.40622 l -17.9686,0 a 31.509142,31.509142 0 0 0 -13.75,3.1563 c 8.2758,-97.48831 47.5931,-185.93172 108.0937,-255.53132 z m 785.8749,320.81252 c -5.9545,101.6437 -45.6302,194.039 -108.0312,266.2813 a 31.509142,31.509142 0 0 0 -8.9688,-18.5938 l -12.7188,-12.7187 c 53.2163,-63.4642 87.8483,-143.1452 95.4688,-230.4063 l 17.9688,0 a 31.509142,31.509142 0 0 0 16.2812,-4.5625 z m -894.7811,0.9688 a 31.509142,31.509142 0 0 0 14.5625,3.5937 l 17.9686,0 c 7.6205,87.2611 42.2528,166.9421 95.4689,230.4063 l -12.7188,12.7187 a 31.509142,31.509142 0 0 0 -8.75,16.9375 c -61.376,-71.7648 -100.4296,-163.1695 -106.5312,-263.6562 z m 179.625,285.62498 c 63.4641,53.2161 143.1452,87.8482 230.4062,95.4687 l 0,17.9688 a 31.509142,31.509142 0 0 0 7.5625,20.43754 c -102.8861,-6.7186 -196.171,-47.93954 -268.4375,-112.31254 a 31.509142,31.509142 0 0 0 17.75,-8.8438 l 12.7188,-12.7187 z m 533.8123,0 12.7188,12.7187 a 31.509142,31.509142 0 0 0 19.1562,9.0625 c -72.6442,64.6147 -166.4786,105.85764 -269.9373,112.21884 a 31.509142,31.509142 0 0 0 7.6562,-20.56254 l 0,-17.9688 c 87.2611,-7.6205 166.9421,-42.2526 230.4061,-95.4687 z"
       id="path4509"
       style="fill:none;stroke:#000000;stroke-width:0.03543307;stroke-linecap:round;stroke-linejoin:round;stroke-miterlimit:4;stroke-opacity:1;stroke-dasharray:none" />
    <g
       transform="matrix(-0.78271712,-0.62237762,0.62237762,-0.78271712,2475.0022,2189.014)"
       id="g4003"
       style="fill:none;stroke:#000000;stroke-width:0.03543307;stroke-miterlimit:4;stroke-opacity:1;stroke-dasharray:none">
      <path
         d="m 1120.6562,469.25 c -18.8016,2.17608 -34.066,15.55137 -38.5937,33.09375 0.037,0.58475 0.086,1.16578 0.125,1.75 l 44.9687,0 0,10.5625 -44.1562,0 c 3.9618,45.70899 13.9047,89.69873 29.0625,131.1875 l 51.2187,0 0,10.53125 -47.25,0 c 18.5915,47.59512 44.0865,91.73759 75.25,131.1875 l 65.875,0 0,10.53125 -57.3124,0 c 50.538,60.62225 114.7869,109.42015 188,141.59375 l 101.5937,0 0,-12 -0.031,0 0,-1.15625 85.875,0 0,-0.0625 0.2188,0 0,-0.5625 0,-12.84375 1.1562,0 0,-34.59375 0,-0.375 0,-13.65625 -1.125,0 0,-20.90625 -34.4062,0 0,20.90625 -54.125,0 0,-20.71875 -34.4062,0 0,10.78125 -35,0 0,-12.5 c -135.4167,-57.4045 -232.57,-180.2777 -246.4063,-334.125 l 0,0.53125 c -2.2534,-20.47035 -18.8129,-36.75652 -39.75,-39.15625 l -10.7813,0 z m 25.875,65.15625 c 4.2733,29.25005 11.4182,57.38922 21.1563,84.15625 a 27.666175,27.666175 0 0 0 -4.4063,-0.375 l -31.4062,0 c -7.8571,-24.4951 -13.8524,-49.84217 -17.75,-75.875 l 13.0312,0 a 27.666175,27.666175 0 0 0 19.375,-7.90625 z m 42.25,132.625 c 17.4792,33.9989 39.5881,65.03814 65.1876,92.875 l -48.9688,0 c -17.7119,-23.71478 -33.3052,-49.10373 -46.5,-75.875 l 4.7812,0 a 27.666175,27.666175 0 0 0 25.5,-17 z m 96.0313,123.53125 c 31.2147,27.74213 66.6734,50.89827 105.125,69.09375 l 0,4.78125 a 27.666175,27.666175 0 0 0 27.6563,27.65625 l 35,0 a 27.666175,27.666175 0 0 0 17.2187,-6.03125 27.666175,27.666175 0 0 0 5.9063,3.59375 27.666175,27.666175 0 0 0 -13.9063,22.375 l -67.7813,0 C 1345.792,890.17485 1301.7542,860.65497 1263.4688,825 a 27.666175,27.666175 0 0 0 21.3437,-26.90625 l 0,-7.53125 z"
         transform="translate(115.61158,505.25414)"
         id="path4005"
         style="fill:none;stroke:#000000;stroke-width:0.03543307;stroke-linecap:round;stroke-linejoin:round;stroke-miterlimit:4;stroke-opacity:1;stroke-dasharray:none" />
    </g>
    <g
       transform="matrix(0.74823524,0.66343351,-0.66343351,0.74823524,839.27931,-2156.6303)"
       id="g4007"
       style="fill:none;stroke:#000000;stroke-width:0.03543307;stroke-miterlimit:4;stroke-opacity:1;stroke-dasharray:none">
      <path
         d="m 2666.6728,1056.4233 c -18.8016,2.1761 -34.066,15.5514 -38.5937,33.0937 0.037,0.5847 0.086,1.1658 0.125,1.75 l 44.9687,0 0,10.5625 -44.1562,0 c 3.9618,45.709 13.9047,89.6987 29.0625,131.1875 l 51.2187,0 0,10.5312 -47.25,0 c 18.5915,47.5952 44.0865,91.7376 75.25,131.1875 l 65.875,0 0,10.5313 -57.3124,0 c 50.538,60.6222 114.7869,109.4201 188,141.5937 l 101.5937,0 0,-12 -0.031,0 0,-1.1562 85.875,0 0,-0.062 0.2188,0 0,-0.5625 0,-12.8438 1.1562,0 0,-34.5937 0,-0.375 0,-13.6563 -1.125,0 0,-20.9062 -34.4062,0 0,20.9062 -54.125,0 0,-20.7187 -34.4062,0 0,10.7812 -35,0 0,-12.5 c -135.4167,-57.4045 -232.57,-180.2777 -246.4063,-334.125 l 0,0.5313 c -2.2534,-20.4703 -18.8129,-36.7565 -39.75,-39.1562 l -10.7813,0 z m 25.875,65.1562 c 4.2733,29.25 11.4182,57.3892 21.1563,84.1562 a 27.666175,27.666175 0 0 0 -4.4063,-0.375 l -31.4062,0 c -7.8571,-24.4951 -13.8524,-49.8421 -17.75,-75.875 l 13.0312,0 a 27.666175,27.666175 0 0 0 19.375,-7.9062 z m 42.25,132.625 c 17.4792,33.9989 39.5881,65.0381 65.1876,92.875 l -48.9688,0 c -17.7119,-23.7148 -33.3052,-49.1037 -46.5,-75.875 l 4.7812,0 a 27.666175,27.666175 0 0 0 25.5,-17 z m 96.0313,123.5312 c 31.2147,27.7422 66.6734,50.8983 105.125,69.0938 l 0,4.7812 a 27.666175,27.666175 0 0 0 27.6563,27.6563 l 35,0 a 27.666175,27.666175 0 0 0 17.2187,-6.0313 27.666175,27.666175 0 0 0 5.9063,3.5938 27.666175,27.666175 0 0 0 -13.9063,22.375 l -67.7813,0 c -48.2392,-21.8564 -92.277,-51.3763 -130.5624,-87.0313 a 27.666175,27.666175 0 0 0 21.3437,-26.9062 l 0,-7.5313 z"
         id="path4009"
         style="fill:none;stroke:#000000;stroke-width:0.03543307;stroke-linecap:round;stroke-linejoin:round;stroke-miterlimit:4;stroke-opacity:1;stroke-dasharray:none" />
    </g>
    <g
       transform="matrix(-0.83291763,-0.55339697,0.55339697,-0.83291763,2842.5199,2137.2316)"
       id="g4011"
       style="fill:none;stroke:#000000;stroke-width:0.03543307;stroke-miterlimit:4;stroke-opacity:1;stroke-dasharray:none">
      <path
         d="m 1120.6562,469.25 c -18.8016,2.17608 -34.066,15.55137 -38.5937,33.09375 0.037,0.58475 0.086,1.16578 0.125,1.75 l 44.9687,0 0,10.5625 -44.1562,0 c 3.9618,45.70899 13.9047,89.69873 29.0625,131.1875 l 51.2187,0 0,10.53125 -47.25,0 c 18.5915,47.59512 44.0865,91.73759 75.25,131.1875 l 65.875,0 0,10.53125 -57.3124,0 c 50.538,60.62225 114.7869,109.42015 188,141.59375 l 101.5937,0 0,-12 -0.031,0 0,-1.15625 85.875,0 0,-0.0625 0.2188,0 0,-0.5625 0,-12.84375 1.1562,0 0,-34.59375 0,-0.375 0,-13.65625 -1.125,0 0,-20.90625 -34.4062,0 0,20.90625 -54.125,0 0,-20.71875 -34.4062,0 0,10.78125 -35,0 0,-12.5 c -135.4167,-57.4045 -232.57,-180.2777 -246.4063,-334.125 l 0,0.53125 c -2.2534,-20.47035 -18.8129,-36.75652 -39.75,-39.15625 l -10.7813,0 z m 25.875,65.15625 c 4.2733,29.25005 11.4182,57.38922 21.1563,84.15625 a 27.666175,27.666175 0 0 0 -4.4063,-0.375 l -31.4062,0 c -7.8571,-24.4951 -13.8524,-49.84217 -17.75,-75.875 l 13.0312,0 a 27.666175,27.666175 0 0 0 19.375,-7.90625 z m 42.25,132.625 c 17.4792,33.9989 39.5881,65.03814 65.1876,92.875 l -48.9688,0 c -17.7119,-23.71478 -33.3052,-49.10373 -46.5,-75.875 l 4.7812,0 a 27.666175,27.666175 0 0 0 25.5,-17 z m 96.0313,123.53125 c 31.2147,27.74213 66.6734,50.89827 105.125,69.09375 l 0,4.78125 a 27.666175,27.666175 0 0 0 27.6563,27.65625 l 35,0 a 27.666175,27.666175 0 0 0 17.2187,-6.03125 27.666175,27.666175 0 0 0 5.9063,3.59375 27.666175,27.666175 0 0 0 -13.9063,22.375 l -67.7813,0 C 1345.792,890.17485 1301.7542,860.65497 1263.4688,825 a 27.666175,27.666175 0 0 0 21.3437,-26.90625 l 0,-7.53125 z"
         transform="translate(115.61158,505.25414)"
         id="path4013"
         style="fill:none;stroke:#000000;stroke-width:0.03543307;stroke-linecap:round;stroke-linejoin:round;stroke-miterlimit:4;stroke-opacity:1;stroke-dasharray:none" />
    </g>
    <g
       transform="matrix(0.99910571,0.04228205,-0.04228205,0.99910571,2368.5246,-356.50899)"
       id="g4015"
       style="fill:none;stroke:#000000;stroke-width:0.03543307;stroke-miterlimit:4;stroke-opacity:1;stroke-dasharray:none">
      <path
         d="m 14.728223,757.99687 c -16.4775072,-9.31275 -36.690904,-7.49099 -50.680376,4.02118 -0.314435,0.4944 -0.616975,0.99287 -0.929481,1.48802 L -0.53638352,789.9864 -6.7562264,798.52336 -42.444786,772.5215 c -23.714185,39.27654 -41.581821,80.6855 -53.761902,123.14403 l 41.39671,30.16069 -6.201405,8.51165 -38.189069,-27.82371 c -13.000678,49.4159 -18.388498,100.10644 -16.431608,150.34214 l 53.242446,38.7912 -6.201469,8.5117 -46.321847,-33.749 c 5.14849,78.7568 28.34147,156.0306 68.569044,225.1467 l 82.111512,59.8246 7.066311,-9.6987 -0.02511,-0.018 0.68083,-0.9344 69.407103,50.5686 0.0367,-0.051 0.1768,0.1292 0.33126,-0.4547 7.5632,-10.3808 0.93449,0.6808 20.37087,-27.9598 0.22084,-0.3031 8.04166,-11.0375 -0.90925,-0.6625 12.31082,-16.897 -27.80827,-20.2604 -12.31085,16.897 -43.745687,-31.8721 12.200444,-16.7455 -27.808252,-20.2605 -6.348646,8.7137 -28.28819,-20.6101 7.360766,-10.103 C -40.419475,1107.9835 -46.586851,951.46332 32.824839,818.97101 l -0.312834,0.42938 c 10.232917,-17.87177 6.439251,-40.78607 -9.069724,-55.05465 l -8.713814,-6.3487 z M -2.7266919,825.89518 C -16.497056,852.05242 -27.292379,879.00283 -35.18375,906.3712 a 27.666175,27.666175 0 0 0 -3.340514,-2.89774 l -25.383565,-18.49389 c 8.07383,-24.42455 18.154081,-48.44126 30.33365,-71.77705 l 10.532266,7.67357 a 27.666175,27.666175 0 0 0 20.3152211,5.01909 z M -46.676501,957.96666 c -5.893327,37.77185 -6.301941,75.87794 -2.003605,113.45124 l -39.578272,-28.8358 c -0.350658,-29.597 1.996857,-59.29957 7.096919,-88.70682 l 3.864348,2.8154 a 27.666175,27.666175 0 0 0 30.62061,1.27598 z m 4.873068,156.39134 c 8.892496,40.8033 23.915718,80.399 44.2789987,117.7478 l -2.81545942,3.8644 a 27.666175,27.666175 0 0 0 6.06703242,38.6386 l 28.2881973,20.6102 a 27.666175,27.666175 0 0 0 17.468384,5.2645 27.666175,27.666175 0 0 0 2.657417,6.3827 27.666175,27.666175 0 0 0 -24.415298,9.8953 l -54.783182,-39.9137 c -26.118197,-46.0714 -44.327924,-95.8625 -54.275656,-147.225 a 27.666175,27.666175 0 0 0 33.094717,-9.1779 l 4.434877,-6.087 z"
         id="path4017"
         style="fill:none;stroke:#000000;stroke-width:0.03543307;stroke-linecap:round;stroke-linejoin:round;stroke-miterlimit:4;stroke-opacity:1;stroke-dasharray:none" />
    </g>
    <g
       transform="matrix(-1,0,0,-1,3080.0362,1553.9894)"
       id="g4019"
       style="fill:none;stroke:#000000;stroke-width:0.03543307;stroke-miterlimit:4;stroke-opacity:1;stroke-dasharray:none">
      <path
         d="m 1120.6562,469.25 c -18.8016,2.17608 -34.066,15.55137 -38.5937,33.09375 0.037,0.58475 0.086,1.16578 0.125,1.75 l 44.9687,0 0,10.5625 -44.1562,0 c 3.9618,45.70899 13.9047,89.69873 29.0625,131.1875 l 51.2187,0 0,10.53125 -47.25,0 c 18.5915,47.59512 44.0865,91.73759 75.25,131.1875 l 65.875,0 0,10.53125 -57.3124,0 c 50.538,60.62225 114.7869,109.42015 188,141.59375 l 101.5937,0 0,-12 -0.031,0 0,-1.15625 85.875,0 0,-0.0625 0.2188,0 0,-0.5625 0,-12.84375 1.1562,0 0,-34.59375 0,-0.375 0,-13.65625 -1.125,0 0,-20.90625 -34.4062,0 0,20.90625 -54.125,0 0,-20.71875 -34.4062,0 0,10.78125 -35,0 0,-12.5 c -135.4167,-57.4045 -232.57,-180.2777 -246.4063,-334.125 l 0,0.53125 c -2.2534,-20.47035 -18.8129,-36.75652 -39.75,-39.15625 l -10.7813,0 z m 25.875,65.15625 c 4.2733,29.25005 11.4182,57.38922 21.1563,84.15625 a 27.666175,27.666175 0 0 0 -4.4063,-0.375 l -31.4062,0 c -7.8571,-24.4951 -13.8524,-49.84217 -17.75,-75.875 l 13.0312,0 a 27.666175,27.666175 0 0 0 19.375,-7.90625 z m 42.25,132.625 c 17.4792,33.9989 39.5881,65.03814 65.1876,92.875 l -48.9688,0 c -17.7119,-23.71478 -33.3052,-49.10373 -46.5,-75.875 l 4.7812,0 a 27.666175,27.666175 0 0 0 25.5,-17 z m 96.0313,123.53125 c 31.2147,27.74213 66.6734,50.89827 105.125,69.09375 l 0,4.78125 a 27.666175,27.666175 0 0 0 27.6563,27.65625 l 35,0 a 27.666175,27.666175 0 0 0 17.2187,-6.03125 27.666175,27.666175 0 0 0 5.9063,3.59375 27.666175,27.666175 0 0 0 -13.9063,22.375 l -67.7813,0 C 1345.792,890.17485 1301.7542,860.65497 1263.4688,825 a 27.666175,27.666175 0 0 0 21.3437,-26.90625 l 0,-7.53125 z"
         transform="translate(115.61158,505.25414)"
         id="path4021"
         style="fill:none;stroke:#000000;stroke-width:0.03543307;stroke-linecap:round;stroke-linejoin:round;stroke-miterlimit:4;stroke-opacity:1;stroke-dasharray:none" />
    </g>
  </g>
</svg>
