  0
SECTION
  2
HEADER
  9
$ACADVER
  1
AC1021
  9
$ACADMAINTVER
 70
     1
  9
$DWGCODEPAGE
  3
ANSI_1252
  9
$LASTSAVEDBY
  1
rward
  9
$INSBASE
 10
0.0
 20
0.0
 30
0.0
  9
$EXTMIN
 10
-202.9693268759765
 20
-277.8045976901317
 30
0.0
  9
$EXTMAX
 10
3431.81374260009
 20
1410.504308055448
 30
0.0
  9
$LIMMIN
 10
0.0
 20
0.0
  9
$LIMMAX
 10
420.0
 20
297.0
  9
$ORTHOMODE
 70
     0
  9
$REGENMODE
 70
     1
  9
$FILLMODE
 70
     1
  9
$QTEXTMODE
 70
     0
  9
$MIRRTEXT
 70
     0
  9
$LTSCALE
 40
1.0
  9
$ATTMODE
 70
     1
  9
$TEXTSIZE
 40
2.5
  9
$TRACEWID
 40
1.0
  9
$TEXTSTYLE
  7
Standard
  9
$CLAYER
  8
0
  9
$CELTYPE
  6
ByLayer
  9
$CECOLOR
 62
   256
  9
$CELTSCALE
 40
1.0
  9
$DISPSILH
 70
     0
  9
$DIMSCALE
 40
1.0
  9
$DIMASZ
 40
2.5
  9
$DIMEXO
 40
0.625
  9
$DIMDLI
 40
3.75
  9
$DIMRND
 40
0.0
  9
$DIMDLE
 40
0.0
  9
$DIMEXE
 40
1.25
  9
$DIMTP
 40
0.0
  9
$DIMTM
 40
0.0
  9
$DIMTXT
 40
2.5
  9
$DIMCEN
 40
2.5
  9
$DIMTSZ
 40
0.0
  9
$DIMTOL
 70
     0
  9
$DIMLIM
 70
     0
  9
$DIMTIH
 70
     0
  9
$DIMTOH
 70
     0
  9
$DIMSE1
 70
     0
  9
$DIMSE2
 70
     0
  9
$DIMTAD
 70
     1
  9
$DIMZIN
 70
     8
  9
$DIMBLK
  1

  9
$DIMASO
 70
     1
  9
$DIMSHO
 70
     1
  9
$DIMPOST
  1

  9
$DIMAPOST
  1

  9
$DIMALT
 70
     0
  9
$DIMALTD
 70
     3
  9
$DIMALTF
 40
0.03937007874016
  9
$DIMLFAC
 40
1.0
  9
$DIMTOFL
 70
     1
  9
$DIMTVP
 40
0.0
  9
$DIMTIX
 70
     0
  9
$DIMSOXD
 70
     0
  9
$DIMSAH
 70
     0
  9
$DIMBLK1
  1

  9
$DIMBLK2
  1

  9
$DIMSTYLE
  2
ISO-25
  9
$DIMCLRD
 70
     0
  9
$DIMCLRE
 70
     0
  9
$DIMCLRT
 70
     0
  9
$DIMTFAC
 40
1.0
  9
$DIMGAP
 40
0.625
  9
$DIMJUST
 70
     0
  9
$DIMSD1
 70
     0
  9
$DIMSD2
 70
     0
  9
$DIMTOLJ
 70
     0
  9
$DIMTZIN
 70
     8
  9
$DIMALTZ
 70
     0
  9
$DIMALTTZ
 70
     0
  9
$DIMUPT
 70
     0
  9
$DIMDEC
 70
     2
  9
$DIMTDEC
 70
     2
  9
$DIMALTU
 70
     2
  9
$DIMALTTD
 70
     3
  9
$DIMTXSTY
  7
Standard
  9
$DIMAUNIT
 70
     0
  9
$DIMADEC
 70
     0
  9
$DIMALTRND
 40
0.0
  9
$DIMAZIN
 70
     0
  9
$DIMDSEP
 70
    44
  9
$DIMATFIT
 70
     3
  9
$DIMFRAC
 70
     0
  9
$DIMLDRBLK
  1

  9
$DIMLUNIT
 70
     2
  9
$DIMLWD
 70
    -2
  9
$DIMLWE
 70
    -2
  9
$DIMTMOVE
 70
     0
  9
$DIMFXL
 40
1.0
  9
$DIMFXLON
 70
     0
  9
$DIMJOGANG
 40
0.7853981633974483
  9
$DIMTFILL
 70
     0
  9
$DIMTFILLCLR
 70
     0
  9
$DIMARCSYM
 70
     0
  9
$DIMLTYPE
  6

  9
$DIMLTEX1
  6

  9
$DIMLTEX2
  6

  9
$LUNITS
 70
     2
  9
$LUPREC
 70
     4
  9
$SKETCHINC
 40
1.0
  9
$FILLETRAD
 40
20.0
  9
$AUNITS
 70
     0
  9
$AUPREC
 70
     0
  9
$MENU
  1
.
  9
$ELEVATION
 40
0.0
  9
$PELEVATION
 40
0.0
  9
$THICKNESS
 40
0.0
  9
$LIMCHECK
 70
     0
  9
$CHAMFERA
 40
0.0
  9
$CHAMFERB
 40
0.0
  9
$CHAMFERC
 40
0.0
  9
$CHAMFERD
 40
0.0
  9
$SKPOLY
 70
     0
  9
$TDCREATE
 40
2455529.643394271
  9
$TDUCREATE
 40
2455529.185060937
  9
$TDUPDATE
 40
2455529.764796354
  9
$TDUUPDATE
 40
2455529.306463021
  9
$TDINDWG
 40
0.1214069792
  9
$TDUSRTIMER
 40
0.1214022685
  9
$USRTIMER
 70
     1
  9
$ANGBASE
 50
0.0
  9
$ANGDIR
 70
     0
  9
$PDMODE
 70
     0
  9
$PDSIZE
 40
0.0
  9
$PLINEWID
 40
0.0
  9
$SPLFRAME
 70
     0
  9
$SPLINETYPE
 70
     6
  9
$SPLINESEGS
 70
     8
  9
$HANDSEED
  5
642
  9
$SURFTAB1
 70
     6
  9
$SURFTAB2
 70
     6
  9
$SURFTYPE
 70
     6
  9
$SURFU
 70
     6
  9
$SURFV
 70
     6
  9
$UCSBASE
  2

  9
$UCSNAME
  2

  9
$UCSORG
 10
0.0
 20
0.0
 30
0.0
  9
$UCSXDIR
 10
1.0
 20
0.0
 30
0.0
  9
$UCSYDIR
 10
0.0
 20
1.0
 30
0.0
  9
$UCSORTHOREF
  2

  9
$UCSORTHOVIEW
 70
     0
  9
$UCSORGTOP
 10
0.0
 20
0.0
 30
0.0
  9
$UCSORGBOTTOM
 10
0.0
 20
0.0
 30
0.0
  9
$UCSORGLEFT
 10
0.0
 20
0.0
 30
0.0
  9
$UCSORGRIGHT
 10
0.0
 20
0.0
 30
0.0
  9
$UCSORGFRONT
 10
0.0
 20
0.0
 30
0.0
  9
$UCSORGBACK
 10
0.0
 20
0.0
 30
0.0
  9
$PUCSBASE
  2

  9
$PUCSNAME
  2

  9
$PUCSORG
 10
0.0
 20
0.0
 30
0.0
  9
$PUCSXDIR
 10
1.0
 20
0.0
 30
0.0
  9
$PUCSYDIR
 10
0.0
 20
1.0
 30
0.0
  9
$PUCSORTHOREF
  2

  9
$PUCSORTHOVIEW
 70
     0
  9
$PUCSORGTOP
 10
0.0
 20
0.0
 30
0.0
  9
$PUCSORGBOTTOM
 10
0.0
 20
0.0
 30
0.0
  9
$PUCSORGLEFT
 10
0.0
 20
0.0
 30
0.0
  9
$PUCSORGRIGHT
 10
0.0
 20
0.0
 30
0.0
  9
$PUCSORGFRONT
 10
0.0
 20
0.0
 30
0.0
  9
$PUCSORGBACK
 10
0.0
 20
0.0
 30
0.0
  9
$USERI1
 70
     0
  9
$USERI2
 70
     0
  9
$USERI3
 70
     0
  9
$USERI4
 70
     0
  9
$USERI5
 70
     0
  9
$USERR1
 40
0.0
  9
$USERR2
 40
0.0
  9
$USERR3
 40
0.0
  9
$USERR4
 40
0.0
  9
$USERR5
 40
0.0
  9
$WORLDVIEW
 70
     1
  9
$SHADEDGE
 70
     3
  9
$SHADEDIF
 70
    70
  9
$TILEMODE
 70
     1
  9
$MAXACTVP
 70
    64
  9
$PINSBASE
 10
0.0
 20
0.0
 30
0.0
  9
$PLIMCHECK
 70
     0
  9
$PEXTMIN
 10
0.0
 20
0.0
 30
0.0
  9
$PEXTMAX
 10
0.0
 20
0.0
 30
0.0
  9
$PLIMMIN
 10
0.0
 20
0.0
  9
$PLIMMAX
 10
12.0
 20
9.0
  9
$UNITMODE
 70
     0
  9
$VISRETAIN
 70
     1
  9
$PLINEGEN
 70
     0
  9
$PSLTSCALE
 70
     1
  9
$TREEDEPTH
 70
  3020
  9
$CMLSTYLE
  2
Standard
  9
$CMLJUST
 70
     0
  9
$CMLSCALE
 40
20.0
  9
$PROXYGRAPHICS
 70
     1
  9
$MEASUREMENT
 70
     1
  9
$CELWEIGHT
370
    -1
  9
$ENDCAPS
280
     0
  9
$JOINSTYLE
280
     0
  9
$LWDISPLAY
290
     0
  9
$INSUNITS
 70
     4
  9
$HYPERLINKBASE
  1

  9
$STYLESHEET
  1

  9
$XEDIT
290
     1
  9
$CEPSNTYPE
380
     0
  9
$PSTYLEMODE
290
     1
  9
$FINGERPRINTGUID
  2
{69599FCD-5708-42C7-9BD0-A03143713E3F}
  9
$VERSIONGUID
  2
{BE706871-7E6A-4907-9454-ADB906C1BEE6}
  9
$EXTNAMES
290
     1
  9
$PSVPSCALE
 40
0.0
  9
$OLESTARTUP
290
     0
  9
$SORTENTS
280
   127
  9
$INDEXCTL
280
     0
  9
$HIDETEXT
280
     1
  9
$XCLIPFRAME
290
     0
  9
$HALOGAP
280
     0
  9
$OBSCOLOR
 70
   257
  9
$OBSLTYPE
280
     0
  9
$INTERSECTIONDISPLAY
280
     0
  9
$INTERSECTIONCOLOR
 70
   257
  9
$DIMASSOC
280
     2
  9
$PROJECTNAME
  1

  9
$CAMERADISPLAY
290
     0
  9
$LENSLENGTH
 40
50.0
  9
$CAMERAHEIGHT
 40
0.0
  9
$STEPSPERSEC
 40
2.0
  9
$STEPSIZE
 40
6.0
  9
$3DDWFPREC
 40
2.0
  9
$PSOLWIDTH
 40
5.0
  9
$PSOLHEIGHT
 40
80.0
  9
$LOFTANG1
 40
1.570796326794896
  9
$LOFTANG2
 40
1.570796326794896
  9
$LOFTMAG1
 40
0.0
  9
$LOFTMAG2
 40
0.0
  9
$LOFTPARAM
 70
     7
  9
$LOFTNORMALS
280
     1
  9
$LATITUDE
 40
37.795
  9
$LONGITUDE
 40
-122.394
  9
$NORTHDIRECTION
 40
0.0
  9
$TIMEZONE
 70
 -8000
  9
$LIGHTGLYPHDISPLAY
280
     1
  9
$TILEMODELIGHTSYNCH
280
     1
  9
$CMATERIAL
347
EC
  9
$SOLIDHIST
280
     1
  9
$SHOWHIST
280
     1
  9
$DWFFRAME
280
     2
  9
$DGNFRAME
280
     0
  9
$REALWORLDSCALE
290
     1
  9
$INTERFERECOLOR
 62
     1
  9
$INTERFEREOBJVS
345
F9
  9
$INTERFEREVPVS
346
F6
  9
$CSHADOW
280
     0
  9
$SHADOWPLANELOCATION
 40
0.0
  0
ENDSEC
  0
SECTION
  2
CLASSES
  0
CLASS
  1
ACDBDICTIONARYWDFLT
  2
AcDbDictionaryWithDefault
  3
ObjectDBX Classes
 90
        0
 91
        1
280
     0
281
     0
  0
CLASS
  1
DICTIONARYVAR
  2
AcDbDictionaryVar
  3
ObjectDBX Classes
 90
        0
 91
        3
280
     0
281
     0
  0
CLASS
  1
TABLESTYLE
  2
AcDbTableStyle
  3
ObjectDBX Classes
 90
     4095
 91
        1
280
     0
281
     0
  0
CLASS
  1
MATERIAL
  2
AcDbMaterial
  3
ObjectDBX Classes
 90
     1024
 91
        3
280
     0
281
     0
  0
CLASS
  1
VISUALSTYLE
  2
AcDbVisualStyle
  3
ObjectDBX Classes
 90
     4095
 91
       16
280
     0
281
     0
  0
CLASS
  1
SORTENTSTABLE
  2
AcDbSortentsTable
  3
ObjectDBX Classes
 90
        0
 91
        1
280
     0
281
     0
  0
CLASS
  1
DIMASSOC
  2
AcDbDimAssoc
  3
"AcDbDimAssoc|Product Desc:     AcDim ARX App For Dimension|Company:          Autodesk, Inc.|WEB Address:      www.autodesk.com"
 90
        0
 91
        4
280
     0
281
     0
  0
ENDSEC
  0
SECTION
  2
TABLES
  0
TABLE
  2
VPORT
  5
8
330
0
100
AcDbSymbolTable
 70
     1
  0
VPORT
  5
EA
330
8
100
AcDbSymbolTableRecord
100
AcDbViewportTableRecord
  2
*Active
 70
     0
 10
0.0
 20
0.0
 11
1.0
 21
1.0
 12
1686.091167275207
 22
389.3997734299392
 13
0.0
 23
0.0
 14
10.0
 24
10.0
 15
10.0
 25
10.0
 16
0.0
 26
0.0
 36
1.0
 17
0.0
 27
0.0
 37
0.0
 40
1136.117413118344
 41
2.112135176651305
 42
50.0
 43
0.0
 44
0.0
 50
0.0
 51
0.0
 71
     0
 72
  1000
 73
     1
 74
     3
 75
     0
 76
     0
 77
     0
 78
     0
281
     0
 65
     1
110
0.0
120
0.0
130
0.0
111
1.0
121
0.0
131
0.0
112
0.0
122
1.0
132
0.0
 79
     0
146
0.0
348
F5
 60
     2
 61
     5
292
     1
282
     1
141
0.0
142
0.0
 63
   250
421
  3355443
  0
ENDTAB
  0
TABLE
  2
LTYPE
  5
5
330
0
100
AcDbSymbolTable
 70
     2
  0
LTYPE
  5
14
330
5
100
AcDbSymbolTableRecord
100
AcDbLinetypeTableRecord
  2
ByBlock
 70
     0
  3

 72
    65
 73
     0
 40
0.0
  0
LTYPE
  5
15
330
5
100
AcDbSymbolTableRecord
100
AcDbLinetypeTableRecord
  2
ByLayer
 70
     0
  3

 72
    65
 73
     0
 40
0.0
  0
LTYPE
  5
16
330
5
100
AcDbSymbolTableRecord
100
AcDbLinetypeTableRecord
  2
Continuous
 70
     0
  3
Solid line
 72
    65
 73
     0
 40
0.0
  0
ENDTAB
  0
TABLE
  2
LAYER
  5
2
330
0
100
AcDbSymbolTable
 70
     2
  0
LAYER
  5
10
330
2
100
AcDbSymbolTableRecord
100
AcDbLayerTableRecord
  2
0
 70
     0
 62
     7
  6
Continuous
370
    -3
390
F
347
EE
  0
LAYER
  5
1C2
330
2
100
AcDbSymbolTableRecord
100
AcDbLayerTableRecord
  2
Defpoints
 70
     0
 62
     7
  6
Continuous
290
     0
370
    -3
390
F
347
EE
  0
ENDTAB
  0
TABLE
  2
STYLE
  5
3
330
0
100
AcDbSymbolTable
 70
     1
  0
STYLE
  5
11
330
3
100
AcDbSymbolTableRecord
100
AcDbTextStyleTableRecord
  2
Standard
 70
     0
 40
0.0
 41
1.0
 50
0.0
 71
     0
 42
2.5
  3
txt
  4

  0
ENDTAB
  0
TABLE
  2
VIEW
  5
6
330
0
100
AcDbSymbolTable
 70
     0
  0
ENDTAB
  0
TABLE
  2
UCS
  5
7
330
0
100
AcDbSymbolTable
 70
     0
  0
ENDTAB
  0
TABLE
  2
APPID
  5
9
330
0
100
AcDbSymbolTable
 70
     3
  0
APPID
  5
12
330
9
100
AcDbSymbolTableRecord
100
AcDbRegAppTableRecord
  2
ACAD
 70
     0
  0
APPID
  5
9E
330
9
100
AcDbSymbolTableRecord
100
AcDbRegAppTableRecord
  2
ACAD_PSEXT
 70
     0
  0
APPID
  5
110
330
9
100
AcDbSymbolTableRecord
100
AcDbRegAppTableRecord
  2
ACAD_EXEMPT_FROM_CAD_STANDARDS
 70
     0
  0
ENDTAB
  0
TABLE
  2
DIMSTYLE
  5
A
330
0
100
AcDbSymbolTable
 70
     2
100
AcDbDimStyleTable
 71
     1
340
27
  0
DIMSTYLE
105
27
330
A
100
AcDbSymbolTableRecord
100
AcDbDimStyleTableRecord
  2
ISO-25
 70
     0
 41
2.5
 42
0.625
 43
3.75
 44
1.25
 73
     0
 74
     0
 77
     1
 78
     8
140
2.5
141
2.5
143
0.03937007874016
147
0.625
171
     3
172
     1
271
     2
272
     2
274
     3
278
    44
283
     0
284
     8
340
11
  0
ENDTAB
  0
TABLE
  2
BLOCK_RECORD
  5
1
330
0
100
AcDbSymbolTable
 70
     6
  0
BLOCK_RECORD
  5
1F
102
{ACAD_XDICTIONARY
360
13C
102
}
330
1
100
AcDbSymbolTableRecord
100
AcDbBlockTableRecord
  2
*Model_Space
340
22
 70
     0
280
     1
281
     0
  0
BLOCK_RECORD
  5
D2
330
1
100
AcDbSymbolTableRecord
100
AcDbBlockTableRecord
  2
*Paper_Space
340
D3
 70
     0
280
     1
281
     0
  0
BLOCK_RECORD
  5
D6
330
1
100
AcDbSymbolTableRecord
100
AcDbBlockTableRecord
  2
*Paper_Space0
340
D7
 70
     0
280
     1
281
     0
  0
BLOCK_RECORD
  5
1C3
330
1
100
AcDbSymbolTableRecord
100
AcDbBlockTableRecord
  2
*D2
340
0
 70
     0
280
     1
281
     0
  0
BLOCK_RECORD
  5
1DB
330
1
100
AcDbSymbolTableRecord
100
AcDbBlockTableRecord
  2
*D3
340
0
 70
     0
280
     1
281
     0
  0
BLOCK_RECORD
  5
2B3
330
1
100
AcDbSymbolTableRecord
100
AcDbBlockTableRecord
  2
*D4
340
0
 70
     0
280
     1
281
     0
  0
BLOCK_RECORD
  5
2CC
330
1
100
AcDbSymbolTableRecord
100
AcDbBlockTableRecord
  2
*D5
340
0
 70
     0
280
     1
281
     0
  0
ENDTAB
  0
ENDSEC
  0
SECTION
  2
BLOCKS
  0
BLOCK
  5
20
330
1F
100
AcDbEntity
  8
0
100
AcDbBlockBegin
  2
*Model_Space
 70
     0
 10
0.0
 20
0.0
 30
0.0
  3
*Model_Space
  1

  0
ENDBLK
  5
21
330
1F
100
AcDbEntity
  8
0
100
AcDbBlockEnd
  0
BLOCK
  5
D4
330
D2
100
AcDbEntity
 67
     1
  8
0
100
AcDbBlockBegin
  2
*Paper_Space
 70
     0
 10
0.0
 20
0.0
 30
0.0
  3
*Paper_Space
  1

  0
ENDBLK
  5
D5
330
D2
100
AcDbEntity
 67
     1
  8
0
100
AcDbBlockEnd
  0
BLOCK
  5
D8
330
D6
100
AcDbEntity
 67
     1
  8
0
100
AcDbBlockBegin
  2
*Paper_Space0
 70
     0
 10
0.0
 20
0.0
 30
0.0
  3
*Paper_Space0
  1

  0
ENDBLK
  5
D9
330
D6
100
AcDbEntity
 67
     1
  8
0
100
AcDbBlockEnd
  0
BLOCK
  5
1CD
330
1C3
100
AcDbEntity
  8
0
100
AcDbBlockBegin
  2
*D2
 70
     1
 10
0.0
 20
0.0
 30
0.0
  3
*D2
  1

  0
LINE
  5
1D0
330
1C3
100
AcDbEntity
  8
0
 62
     0
370
    -2
100
AcDbLine
 10
2148.121912697905
 20
580.2559298901437
 30
0.0
 11
2148.121912697905
 21
514.7446661547383
 31
0.0
  0
LINE
  5
1D1
330
1C3
100
AcDbEntity
  8
0
 62
     0
370
    -2
100
AcDbLine
 10
2680.163614318446
 20
580.2559298901437
 30
0.0
 11
2680.163614318446
 21
514.7446661547383
 31
0.0
  0
LINE
  5
1D2
330
1C3
100
AcDbEntity
  8
0
 62
     0
370
    -2
100
AcDbLine
 10
2150.621912697905
 20
515.9946661547382
 30
0.0
 11
2677.663614318446
 21
515.9946661547382
 31
0.0
  0
SOLID
  5
1D3
330
1C3
100
AcDbEntity
  8
0
 62
     0
100
AcDbTrace
 10
2150.621912697905
 20
516.4113328214049
 30
0.0
 11
2150.621912697905
 21
515.5779994880716
 31
0.0
 12
2148.121912697905
 22
515.9946661547382
 32
0.0
 13
2148.121912697905
 23
515.9946661547382
 33
0.0
  0
SOLID
  5
1D4
330
1C3
100
AcDbEntity
  8
0
 62
     0
100
AcDbTrace
 10
2677.663614318446
 20
516.4113328214049
 30
0.0
 11
2677.663614318446
 21
515.5779994880716
 31
0.0
 12
2680.163614318446
 22
515.9946661547382
 32
0.0
 13
2680.163614318446
 23
515.9946661547382
 33
0.0
  0
MTEXT
  5
1D5
330
1C3
100
AcDbEntity
  8
0
 62
     0
100
AcDbMText
 10
2414.142763508176
 20
518.0779994880716
 30
0.0
 40
2.5
 41
0.0
 46
0.0
 71
     5
 72
     1
  1
532,04
 73
     1
 44
1.0
  0
POINT
  5
1D6
330
1C3
100
AcDbEntity
  8
Defpoints
 62
     0
100
AcDbPoint
 10
2148.121912697905
 20
580.8809298901437
 30
0.0
  0
POINT
  5
1D7
330
1C3
100
AcDbEntity
  8
Defpoints
 62
     0
100
AcDbPoint
 10
2680.163614318446
 20
580.8809298901437
 30
0.0
  0
POINT
  5
1D8
330
1C3
100
AcDbEntity
  8
Defpoints
 62
     0
100
AcDbPoint
 10
2680.163614318446
 20
515.9946661547382
 30
0.0
  0
ENDBLK
  5
1CE
330
1C3
100
AcDbEntity
  8
0
100
AcDbBlockEnd
  0
BLOCK
  5
1E5
330
1DB
100
AcDbEntity
  8
0
100
AcDbBlockBegin
  2
*D3
 70
     1
 10
0.0
 20
0.0
 30
0.0
  3
*D3
  1

  0
LINE
  5
1E8
330
1DB
100
AcDbEntity
  8
0
 62
     0
370
    -2
100
AcDbLine
 10
2680.788614318446
 20
915.5574571292262
 30
0.0
 11
2747.491599874118
 21
915.5574571292262
 31
0.0
  0
LINE
  5
1E9
330
1DB
100
AcDbEntity
  8
0
 62
     0
370
    -2
100
AcDbLine
 10
2680.788614318446
 20
580.2559298901437
 30
0.0
 11
2747.491599874118
 21
580.2559298901437
 31
0.0
  0
LINE
  5
1EA
330
1DB
100
AcDbEntity
  8
0
 62
     0
370
    -2
100
AcDbLine
 10
2746.241599874118
 20
913.0574571292264
 30
0.0
 11
2746.241599874118
 21
582.7559298901437
 31
0.0
  0
SOLID
  5
1EB
330
1DB
100
AcDbEntity
  8
0
 62
     0
100
AcDbTrace
 10
2745.824933207452
 20
913.0574571292264
 30
0.0
 11
2746.658266540785
 21
913.0574571292264
 31
0.0
 12
2746.241599874118
 22
915.5574571292262
 32
0.0
 13
2746.241599874118
 23
915.5574571292262
 33
0.0
  0
SOLID
  5
1EC
330
1DB
100
AcDbEntity
  8
0
 62
     0
100
AcDbTrace
 10
2745.824933207452
 20
582.7559298901437
 30
0.0
 11
2746.658266540785
 21
582.7559298901437
 31
0.0
 12
2746.241599874118
 22
580.2559298901437
 32
0.0
 13
2746.241599874118
 23
580.2559298901437
 33
0.0
  0
MTEXT
  5
1ED
330
1DB
100
AcDbEntity
  8
0
 62
     0
100
AcDbMText
 10
2744.158266540785
 20
747.9066935096855
 30
0.0
 40
2.5
 41
0.0
 46
0.0
 71
     5
 72
     1
  1
335,3
 11
0.0000000000000001
 21
1.0
 31
0.0
 73
     1
 44
1.0
  0
POINT
  5
1EE
330
1DB
100
AcDbEntity
  8
Defpoints
 62
     0
100
AcDbPoint
 10
2680.163614318446
 20
915.5574571292262
 30
0.0
  0
POINT
  5
1EF
330
1DB
100
AcDbEntity
  8
Defpoints
 62
     0
100
AcDbPoint
 10
2680.163614318446
 20
580.2559298901437
 30
0.0
  0
POINT
  5
1F0
330
1DB
100
AcDbEntity
  8
Defpoints
 62
     0
100
AcDbPoint
 10
2746.241599874118
 20
580.2559298901437
 30
0.0
  0
ENDBLK
  5
1E6
330
1DB
100
AcDbEntity
  8
0
100
AcDbBlockEnd
  0
BLOCK
  5
2BD
330
2B3
100
AcDbEntity
  8
0
100
AcDbBlockBegin
  2
*D4
 70
     1
 10
0.0
 20
0.0
 30
0.0
  3
*D4
  1

  0
LINE
  5
2C0
330
2B3
100
AcDbEntity
  8
0
 62
     0
370
    -2
100
AcDbLine
 10
1415.792298666311
 20
614.627154027724
 30
0.0
 11
1415.792298666311
 21
559.3574381635839
 31
0.0
  0
LINE
  5
2C1
330
2B3
100
AcDbEntity
  8
0
 62
     0
370
    -2
100
AcDbLine
 10
1875.792298666311
 20
614.627154027724
 30
0.0
 11
1875.792298666311
 21
559.3574381635839
 31
0.0
  0
LINE
  5
2C2
330
2B3
100
AcDbEntity
  8
0
 62
     0
370
    -2
100
AcDbLine
 10
1418.29229866631
 20
560.6074381635839
 30
0.0
 11
1873.292298666311
 21
560.6074381635839
 31
0.0
  0
SOLID
  5
2C3
330
2B3
100
AcDbEntity
  8
0
 62
     0
100
AcDbTrace
 10
1418.29229866631
 20
561.0241048302506
 30
0.0
 11
1418.29229866631
 21
560.1907714969173
 31
0.0
 12
1415.792298666311
 22
560.6074381635839
 32
0.0
 13
1415.792298666311
 23
560.6074381635839
 33
0.0
  0
SOLID
  5
2C4
330
2B3
100
AcDbEntity
  8
0
 62
     0
100
AcDbTrace
 10
1873.292298666311
 20
561.0241048302506
 30
0.0
 11
1873.292298666311
 21
560.1907714969173
 31
0.0
 12
1875.792298666311
 22
560.6074381635839
 32
0.0
 13
1875.792298666311
 23
560.6074381635839
 33
0.0
  0
MTEXT
  5
2C5
330
2B3
100
AcDbEntity
  8
0
 62
     0
100
AcDbMText
 10
1645.79229866631
 20
562.4824381635839
 30
0.0
 40
2.5
 41
0.0
 46
0.0
 71
     5
 72
     1
  1
460
 73
     1
 44
1.0
  0
POINT
  5
2C6
330
2B3
100
AcDbEntity
  8
Defpoints
 62
     0
100
AcDbPoint
 10
1415.792298666311
 20
615.252154027724
 30
0.0
  0
POINT
  5
2C7
330
2B3
100
AcDbEntity
  8
Defpoints
 62
     0
100
AcDbPoint
 10
1875.792298666311
 20
615.252154027724
 30
0.0
  0
POINT
  5
2C8
330
2B3
100
AcDbEntity
  8
Defpoints
 62
     0
100
AcDbPoint
 10
1875.792298666311
 20
560.6074381635839
 30
0.0
  0
ENDBLK
  5
2BE
330
2B3
100
AcDbEntity
  8
0
100
AcDbBlockEnd
  0
BLOCK
  5
2D6
330
2CC
100
AcDbEntity
  8
0
100
AcDbBlockBegin
  2
*D5
 70
     1
 10
0.0
 20
0.0
 30
0.0
  3
*D5
  1

  0
LINE
  5
2D9
330
2CC
100
AcDbEntity
  8
0
 62
     0
370
    -2
100
AcDbLine
 10
1590.16729866631
 20
905.2521540277238
 30
0.0
 11
1334.128695859419
 21
905.2521540277238
 31
0.0
  0
LINE
  5
2DA
330
2CC
100
AcDbEntity
  8
0
 62
     0
370
    -2
100
AcDbLine
 10
1590.16729866631
 20
595.252154027724
 30
0.0
 11
1334.128695859419
 21
595.252154027724
 31
0.0
  0
LINE
  5
2DB
330
2CC
100
AcDbEntity
  8
0
 62
     0
370
    -2
100
AcDbLine
 10
1335.378695859419
 20
902.7521540277239
 30
0.0
 11
1335.378695859419
 21
597.752154027724
 31
0.0
  0
SOLID
  5
2DC
330
2CC
100
AcDbEntity
  8
0
 62
     0
100
AcDbTrace
 10
1334.962029192752
 20
902.7521540277239
 30
0.0
 11
1335.795362526086
 21
902.7521540277239
 31
0.0
 12
1335.378695859419
 22
905.2521540277238
 32
0.0
 13
1335.378695859419
 23
905.2521540277238
 33
0.0
  0
SOLID
  5
2DD
330
2CC
100
AcDbEntity
  8
0
 62
     0
100
AcDbTrace
 10
1334.962029192752
 20
597.752154027724
 30
0.0
 11
1335.795362526086
 21
597.752154027724
 31
0.0
 12
1335.378695859419
 22
595.252154027724
 32
0.0
 13
1335.378695859419
 23
595.252154027724
 33
0.0
  0
MTEXT
  5
2DE
330
2CC
100
AcDbEntity
  8
0
 62
     0
100
AcDbMText
 10
1333.503695859419
 20
750.2521540277243
 30
0.0
 40
2.5
 41
0.0
 46
0.0
 71
     5
 72
     1
  1
310
 11
0.0000000000000001
 21
1.0
 31
0.0
 73
     1
 44
1.0
  0
POINT
  5
2DF
330
2CC
100
AcDbEntity
  8
Defpoints
 62
     0
100
AcDbPoint
 10
1590.79229866631
 20
905.2521540277238
 30
0.0
  0
POINT
  5
2E0
330
2CC
100
AcDbEntity
  8
Defpoints
 62
     0
100
AcDbPoint
 10
1590.79229866631
 20
595.252154027724
 30
0.0
  0
POINT
  5
2E1
330
2CC
100
AcDbEntity
  8
Defpoints
 62
     0
100
AcDbPoint
 10
1335.378695859419
 20
595.252154027724
 30
0.0
  0
ENDBLK
  5
2D7
330
2CC
100
AcDbEntity
  8
0
100
AcDbBlockEnd
  0
ENDSEC
  0
SECTION
  2
ENTITIES
  0
CIRCLE
  5
25E
330
1F
100
AcDbEntity
  8
0
100
AcDbCircle
 10
1480.79229866631
 20
660.2521540277239
 30
0.0
 40
45.0
  0
CIRCLE
  5
25F
330
1F
100
AcDbEntity
  8
0
100
AcDbCircle
 10
1590.79229866631
 20
660.2521540277239
 30
0.0
 40
45.0
  0
CIRCLE
  5
260
330
1F
100
AcDbEntity
  8
0
100
AcDbCircle
 10
1700.792298666311
 20
660.2521540277239
 30
0.0
 40
45.0
  0
CIRCLE
  5
261
330
1F
100
AcDbEntity
  8
0
100
AcDbCircle
 10
1810.792298666311
 20
660.2521540277239
 30
0.0
 40
45.0
  0
LINE
  5
262
330
1F
100
AcDbEntity
  8
0
100
AcDbLine
 10
1438.79229866631
 20
595.252154027724
 30
0.0
 11
1534.292298666311
 21
595.252154027724
 31
0.0
  0
LINE
  5
263
330
1F
100
AcDbEntity
  8
0
100
AcDbLine
 10
1537.292298666311
 20
595.252154027724
 30
0.0
 11
1644.29229866631
 21
595.252154027724
 31
0.0
  0
LINE
  5
264
330
1F
100
AcDbEntity
  8
0
100
AcDbLine
 10
1647.29229866631
 20
595.252154027724
 30
0.0
 11
1754.29229866631
 21
595.252154027724
 31
0.0
  0
LINE
  5
265
330
1F
100
AcDbEntity
  8
0
100
AcDbLine
 10
1757.292298666311
 20
595.252154027724
 30
0.0
 11
1852.792298666311
 21
595.252154027724
 31
0.0
  0
ARC
  5
266
330
1F
100
AcDbEntity
  8
0
100
AcDbCircle
 10
1855.792298666311
 20
615.252154027724
 30
0.0
 40
20.0
100
AcDbArc
 50
270.0
 51
0.0
  0
ARC
  5
267
330
1F
100
AcDbEntity
  8
0
100
AcDbCircle
 10
1435.79229866631
 20
615.252154027724
 30
0.0
 40
20.0
100
AcDbArc
 50
179.9999999999999
 51
270.0
  0
CIRCLE
  5
268
330
1F
100
AcDbEntity
  8
0
100
AcDbCircle
 10
1535.792298666311
 20
750.2521540277239
 30
0.0
 40
45.0
  0
CIRCLE
  5
269
330
1F
100
AcDbEntity
  8
0
100
AcDbCircle
 10
1645.79229866631
 20
750.2521540277239
 30
0.0
 40
45.0
  0
CIRCLE
  5
26A
330
1F
100
AcDbEntity
  8
0
100
AcDbCircle
 10
1755.79229866631
 20
750.2521540277239
 30
0.0
 40
45.0
  0
CIRCLE
  5
26B
330
1F
100
AcDbEntity
  8
0
100
AcDbCircle
 10
1865.79229866631
 20
750.2521540277239
 30
0.0
 40
45.0
  0
LINE
  5
26C
330
1F
100
AcDbEntity
  8
0
100
AcDbLine
 10
1415.792298666311
 20
615.252154027724
 30
0.0
 11
1415.792298666311
 21
660.2521540277239
 31
0.0
  0
ARC
  5
26D
330
1F
100
AcDbEntity
  8
0
100
AcDbCircle
 10
1480.79229866631
 20
660.2521540277239
 30
0.0
 40
64.99999999999989
100
AcDbArc
 50
110.222026049471
 51
179.9999999999999
  0
ARC
  5
26E
330
1F
100
AcDbEntity
  8
0
100
AcDbCircle
 10
1451.411287439344
 20
740.0127719997587
 30
0.0
 40
20.0
100
AcDbArc
 50
290.222026049471
 51
324.2692120804934
  0
ARC
  5
26F
330
1F
100
AcDbEntity
  8
0
100
AcDbCircle
 10
1451.411287439344
 20
740.0127719997587
 30
0.0
 40
20.0
100
AcDbArc
 50
332.871656689833
 51
6.918842720853028
  0
ARC
  5
270
330
1F
100
AcDbEntity
  8
0
100
AcDbCircle
 10
1535.792298666311
 20
750.2521540277239
 30
0.0
 40
65.0
100
AcDbArc
 50
110.222026049471
 51
186.9188427208531
  0
ARC
  5
271
330
1F
100
AcDbEntity
  8
0
100
AcDbCircle
 10
1506.411287439344
 20
830.0127719997588
 30
0.0
 40
20.0
100
AcDbArc
 50
290.222026049471
 51
323.8495616557623
  0
ARC
  5
272
330
1F
100
AcDbEntity
  8
0
100
AcDbCircle
 10
1506.411287439344
 20
830.0127719997588
 30
0.0
 40
20.0
100
AcDbArc
 50
332.4529842187132
 51
6.918842720853028
  0
ARC
  5
273
330
1F
100
AcDbEntity
  8
0
100
AcDbCircle
 10
1895.792298666311
 20
670.7222854247895
 30
0.0
 40
20.0
100
AcDbArc
 50
110.6673164935138
 51
144.7131419726616
  0
ARC
  5
274
330
1F
100
AcDbEntity
  8
0
100
AcDbCircle
 10
1895.792298666311
 20
670.7222854247895
 30
0.0
 40
20.0
100
AcDbArc
 50
153.3155865820036
 51
180.0000000000007
  0
LINE
  5
275
330
1F
100
AcDbEntity
  8
0
100
AcDbLine
 10
1875.792298666311
 20
660.2521540277239
 30
0.0
 11
1875.792298666311
 21
615.252154027724
 31
0.0
  0
LINE
  5
276
330
1F
100
AcDbEntity
  8
0
100
AcDbLine
 10
1875.792298666311
 20
660.2521540277239
 30
0.0
 11
1875.792298666311
 21
670.7222854247893
 31
0.0
  0
CIRCLE
  5
277
330
1F
100
AcDbEntity
  8
0
100
AcDbCircle
 10
1590.79229866631
 20
840.2521540277239
 30
0.0
 40
45.0
  0
CIRCLE
  5
278
330
1F
100
AcDbEntity
  8
0
100
AcDbCircle
 10
1810.792298666311
 20
840.2521540277239
 30
0.0
 40
45.0
  0
ARC
  5
27D
330
1F
100
AcDbEntity
  8
0
100
AcDbCircle
 10
1865.79229866631
 20
750.2521540277239
 30
0.0
 40
65.0
100
AcDbArc
 50
290.6673164935138
 51
69.33268350648616
  0
ARC
  5
27E
330
1F
100
AcDbEntity
  8
0
100
AcDbCircle
 10
1895.792298666311
 20
829.7820226306582
 30
0.0
 40
20.0
100
AcDbArc
 50
180.0
 51
206.0633912666085
  0
ARC
  5
27F
330
1F
100
AcDbEntity
  8
0
100
AcDbCircle
 10
1895.792298666311
 20
829.7820226306582
 30
0.0
 40
20.0
100
AcDbArc
 50
214.6663417532429
 51
249.3326835064861
  0
LINE
  5
280
330
1F
100
AcDbEntity
  8
0
100
AcDbLine
 10
1875.792298666311
 20
840.2521540277239
 30
0.0
 11
1875.792298666311
 21
829.7820226306582
 31
0.0
  0
LINE
  5
285
330
1F
100
AcDbEntity
  8
0
100
AcDbLine
 10
1534.292298666311
 20
605.2521540277241
 30
0.0
 11
1534.292298666311
 21
595.252154027724
 31
0.0
  0
LINE
  5
286
330
1F
100
AcDbEntity
  8
0
100
AcDbLine
 10
1537.292298666311
 20
605.2521540277241
 30
0.0
 11
1537.292298666311
 21
595.252154027724
 31
0.0
  0
LINE
  5
287
330
1F
100
AcDbEntity
  8
0
100
AcDbLine
 10
1644.29229866631
 20
605.2521540277241
 30
0.0
 11
1644.29229866631
 21
595.252154027724
 31
0.0
  0
LINE
  5
288
330
1F
100
AcDbEntity
  8
0
100
AcDbLine
 10
1647.29229866631
 20
605.2521540277241
 30
0.0
 11
1647.29229866631
 21
595.252154027724
 31
0.0
  0
LINE
  5
289
330
1F
100
AcDbEntity
  8
0
100
AcDbLine
 10
1754.29229866631
 20
605.252154027724
 30
0.0
 11
1754.29229866631
 21
595.252154027724
 31
0.0
  0
LINE
  5
28A
330
1F
100
AcDbEntity
  8
0
100
AcDbLine
 10
1757.292298666311
 20
605.252154027724
 30
0.0
 11
1757.292298666311
 21
595.252154027724
 31
0.0
  0
LINE
  5
28B
330
1F
100
AcDbEntity
  8
0
100
AcDbLine
 10
1435.79229866631
 20
595.252154027724
 30
0.0
 11
1435.79229866631
 21
605.252154027724
 31
0.0
  0
LINE
  5
28C
330
1F
100
AcDbEntity
  8
0
100
AcDbLine
 10
1435.79229866631
 20
605.252154027724
 30
0.0
 11
1438.79229866631
 21
605.252154027724
 31
0.0
  0
LINE
  5
28D
330
1F
100
AcDbEntity
  8
0
100
AcDbLine
 10
1438.79229866631
 20
605.252154027724
 30
0.0
 11
1438.79229866631
 21
595.252154027724
 31
0.0
  0
LINE
  5
28E
330
1F
100
AcDbEntity
  8
0
100
AcDbLine
 10
1855.792298666311
 20
595.252154027724
 30
0.0
 11
1855.792298666311
 21
605.252154027724
 31
0.0
  0
LINE
  5
28F
330
1F
100
AcDbEntity
  8
0
100
AcDbLine
 10
1855.792298666311
 20
605.252154027724
 30
0.0
 11
1852.792298666311
 21
605.252154027724
 31
0.0
  0
LINE
  5
290
330
1F
100
AcDbEntity
  8
0
100
AcDbLine
 10
1852.792298666311
 20
605.252154027724
 30
0.0
 11
1852.792298666311
 21
595.252154027724
 31
0.0
  0
LINE
  5
291
330
1F
100
AcDbEntity
  8
0
100
AcDbLine
 10
1534.292298666311
 20
605.2521540277241
 30
0.0
 11
1537.292298666311
 21
605.2521540277241
 31
0.0
  0
LINE
  5
292
330
1F
100
AcDbEntity
  8
0
100
AcDbLine
 10
1644.29229866631
 20
605.2521540277241
 30
0.0
 11
1647.29229866631
 21
605.2521540277241
 31
0.0
  0
LINE
  5
293
330
1F
100
AcDbEntity
  8
0
100
AcDbLine
 10
1754.29229866631
 20
605.252154027724
 30
0.0
 11
1757.292298666311
 21
605.252154027724
 31
0.0
  0
LINE
  5
294
330
1F
100
AcDbEntity
  8
0
100
AcDbLine
 10
1870.766298145084
 20
813.2557779252984
 30
0.0
 11
1879.342732249711
 21
818.4060934507678
 31
0.0
  0
LINE
  5
295
330
1F
100
AcDbEntity
  8
0
100
AcDbLine
 10
1869.221828654548
 20
815.8276671128028
 30
0.0
 11
1877.826128897194
 21
820.9947167962594
 31
0.0
  0
LINE
  5
296
330
1F
100
AcDbEntity
  8
0
100
AcDbLine
 10
1869.221828654549
 20
815.827667112803
 30
0.0
 11
1870.766298145085
 21
813.2557779252985
 31
0.0
  0
LINE
  5
297
330
1F
100
AcDbEntity
  8
0
100
AcDbLine
 10
1531.203750847926
 20
813.024306704672
 30
0.0
 11
1522.560705287186
 21
818.2146237053943
 31
0.0
  0
LINE
  5
298
330
1F
100
AcDbEntity
  8
0
100
AcDbLine
 10
1532.748220338462
 20
815.5961958921764
 30
0.0
 11
1524.143920095817
 21
820.7632455756328
 31
0.0
  0
LINE
  5
299
330
1F
100
AcDbEntity
  8
0
100
AcDbLine
 10
1532.748220338462
 20
815.5961958921764
 30
0.0
 11
1531.203750847925
 21
813.0243067046722
 31
0.0
  0
LINE
  5
29A
330
1F
100
AcDbEntity
  8
0
100
AcDbLine
 10
1476.227567434722
 20
723.0893489656619
 30
0.0
 11
1467.646684308631
 21
728.3332219871617
 31
0.0
  0
LINE
  5
29B
330
1F
100
AcDbEntity
  8
0
100
AcDbLine
 10
1477.791917463084
 20
725.6491944666175
 30
0.0
 11
1469.211034336993
 21
730.8930674881176
 31
0.0
  0
LINE
  5
29C
330
1F
100
AcDbEntity
  8
0
100
AcDbLine
 10
1477.791917463084
 20
725.6491944666176
 30
0.0
 11
1476.227567434721
 21
723.0893489656617
 31
0.0
  0
LINE
  5
29D
330
1F
100
AcDbEntity
  8
0
100
AcDbLine
 10
1869.301172045998
 20
684.8810357364003
 30
0.0
 11
1877.922426931494
 21
679.7038044600764
 31
0.0
  0
LINE
  5
29E
330
1F
100
AcDbEntity
  8
0
100
AcDbLine
 10
1870.845641536534
 20
687.4529249239047
 30
0.0
 11
1879.466896422031
 21
682.2756936475808
 31
0.0
  0
LINE
  5
29F
330
1F
100
AcDbEntity
  8
0
100
AcDbLine
 10
1870.845641536534
 20
687.4529249239047
 30
0.0
 11
1869.301172045998
 21
684.8810357364003
 31
0.0
  0
ARC
  5
2A6
330
1F
100
AcDbEntity
  8
0
100
AcDbCircle
 10
1590.79229866631
 20
840.2521540277239
 30
0.0
 40
65.0
100
AcDbArc
 50
0.0
 51
186.918842720853
  0
ARC
  5
2A7
330
1F
100
AcDbEntity
  8
0
100
AcDbCircle
 10
1810.792298666311
 20
840.2521540277239
 30
0.0
 40
65.0
100
AcDbArc
 50
0.0
 51
180.0
  0
ARC
  5
2AA
330
1F
100
AcDbEntity
  8
0
100
AcDbCircle
 10
1700.792298666311
 20
840.2521540277239
 30
0.0
 40
45.0
100
AcDbArc
 50
180.0
 51
268.0897868282901
  0
LINE
  5
2AC
330
1F
100
AcDbEntity
  8
0
100
AcDbLine
 10
1702.292298666311
 20
795.2771609760291
 30
0.0
 11
1702.292298666311
 21
785.2521540277239
 31
0.0
  0
LINE
  5
2AD
330
1F
100
AcDbEntity
  8
0
100
AcDbLine
 10
1699.292298666311
 20
795.2771609760291
 30
0.0
 11
1699.292298666311
 21
785.2521540277239
 31
0.0
  0
LINE
  5
2AE
330
1F
100
AcDbEntity
  8
0
100
AcDbLine
 10
1699.292298666311
 20
785.2521540277239
 30
0.0
 11
1702.292298666311
 21
785.2521540277239
 31
0.0
  0
ARC
  5
2AF
330
1F
100
AcDbEntity
  8
0
100
AcDbCircle
 10
1700.792298666311
 20
840.2521540277239
 30
0.0
 40
45.0
100
AcDbArc
 50
271.9102131717099
 51
0.0
  0
LINE
  5
2E3
330
1F
100
AcDbEntity
  8
0
100
AcDbLine
 10
1052.407187184539
 20
-0.5672031856679496
 30
0.0
 11
1252.407187184539
 21
-0.5672031856679496
 31
0.0
  0
LINE
  5
2E4
330
1F
100
AcDbEntity
  8
0
100
AcDbLine
 10
1252.407187184539
 20
-0.5672031856679496
 30
0.0
 11
1252.407187184539
 21
19.43279681433205
 31
0.0
  0
LINE
  5
2E5
330
1F
100
AcDbEntity
  8
0
100
AcDbLine
 10
1252.407187184539
 20
19.43279681433205
 30
0.0
 11
1242.407187184539
 21
19.43279681433205
 31
0.0
  0
LINE
  5
2E6
330
1F
100
AcDbEntity
  8
0
100
AcDbLine
 10
1052.407187184539
 20
19.4327968143321
 30
0.0
 11
1052.407187184539
 21
-0.5672031856679496
 31
0.0
  0
LINE
  5
2E7
330
1F
100
AcDbEntity
  8
0
100
AcDbLine
 10
1062.407187184539
 20
19.4327968143321
 30
0.0
 11
1062.407187184539
 21
9.432796814332164
 31
0.0
  0
LINE
  5
2E8
330
1F
100
AcDbEntity
  8
0
100
AcDbLine
 10
1242.407187184539
 20
9.43279681433205
 30
0.0
 11
1242.407187184539
 21
19.43279681433205
 31
0.0
  0
LINE
  5
2E9
330
1F
100
AcDbEntity
  8
0
100
AcDbLine
 10
1242.407187184539
 20
9.43279681433205
 30
0.0
 11
1239.407187184539
 21
9.43279681433205
 31
0.0
  0
LINE
  5
2EA
330
1F
100
AcDbEntity
  8
0
100
AcDbLine
 10
1065.407187184539
 20
19.4327968143321
 30
0.0
 11
1065.407187184539
 21
9.432796814332164
 31
0.0
  0
LINE
  5
2EB
330
1F
100
AcDbEntity
  8
0
100
AcDbLine
 10
1239.407187184539
 20
9.43279681433205
 30
0.0
 11
1239.407187184539
 21
19.43279681433205
 31
0.0
  0
LINE
  5
2EC
330
1F
100
AcDbEntity
  8
0
100
AcDbLine
 10
1065.407187184539
 20
9.432796814332164
 30
0.0
 11
1062.407187184539
 21
9.432796814332107
 31
0.0
  0
LINE
  5
2ED
330
1F
100
AcDbEntity
  8
0
100
AcDbLine
 10
1239.407187184539
 20
19.43279681433205
 30
0.0
 11
1207.007187184539
 21
19.43279681433199
 31
0.0
  0
LINE
  5
2EE
330
1F
100
AcDbEntity
  8
0
100
AcDbLine
 10
1062.407187184539
 20
19.4327968143321
 30
0.0
 11
1052.407187184539
 21
19.4327968143321
 31
0.0
  0
LINE
  5
2F0
330
1F
100
AcDbEntity
  8
0
100
AcDbLine
 10
1100.807187184539
 20
19.4327968143321
 30
0.0
 11
1100.807187184539
 21
9.432796814332164
 31
0.0
  0
LINE
  5
2F1
330
1F
100
AcDbEntity
  8
0
100
AcDbLine
 10
1136.207187184539
 20
19.4327968143321
 30
0.0
 11
1136.207187184539
 21
9.432796814332164
 31
0.0
  0
LINE
  5
2F2
330
1F
100
AcDbEntity
  8
0
100
AcDbLine
 10
1171.607187184539
 20
19.4327968143321
 30
0.0
 11
1171.607187184539
 21
9.432796814332164
 31
0.0
  0
LINE
  5
2F3
330
1F
100
AcDbEntity
  8
0
100
AcDbLine
 10
1207.007187184539
 20
19.4327968143321
 30
0.0
 11
1207.007187184539
 21
9.432796814332164
 31
0.0
  0
LINE
  5
2F4
330
1F
100
AcDbEntity
  8
0
100
AcDbLine
 10
1100.807187184539
 20
9.432796814332164
 30
0.0
 11
1097.807187184538
 21
9.432796814332107
 31
0.0
  0
LINE
  5
2F5
330
1F
100
AcDbEntity
  8
0
100
AcDbLine
 10
1097.807187184538
 20
19.4327968143321
 30
0.0
 11
1097.807187184538
 21
9.432796814332164
 31
0.0
  0
LINE
  5
2F6
330
1F
100
AcDbEntity
  8
0
100
AcDbLine
 10
1136.207187184539
 20
9.432796814332164
 30
0.0
 11
1133.207187184539
 21
9.432796814332107
 31
0.0
  0
LINE
  5
2F7
330
1F
100
AcDbEntity
  8
0
100
AcDbLine
 10
1133.207187184539
 20
19.4327968143321
 30
0.0
 11
1133.207187184539
 21
9.432796814332164
 31
0.0
  0
LINE
  5
2F8
330
1F
100
AcDbEntity
  8
0
100
AcDbLine
 10
1171.607187184539
 20
9.432796814332164
 30
0.0
 11
1168.607187184539
 21
9.432796814332107
 31
0.0
  0
LINE
  5
2F9
330
1F
100
AcDbEntity
  8
0
100
AcDbLine
 10
1168.607187184539
 20
19.4327968143321
 30
0.0
 11
1168.607187184539
 21
9.432796814332164
 31
0.0
  0
LINE
  5
2FA
330
1F
100
AcDbEntity
  8
0
100
AcDbLine
 10
1207.007187184539
 20
9.432796814332164
 30
0.0
 11
1204.007187184539
 21
9.432796814332107
 31
0.0
  0
LINE
  5
2FB
330
1F
100
AcDbEntity
  8
0
100
AcDbLine
 10
1204.007187184539
 20
19.4327968143321
 30
0.0
 11
1204.007187184539
 21
9.432796814332164
 31
0.0
  0
LINE
  5
2FC
330
1F
100
AcDbEntity
  8
0
100
AcDbLine
 10
1097.807187184538
 20
19.43279681433205
 30
0.0
 11
1065.407187184539
 21
19.4327968143321
 31
0.0
  0
LINE
  5
2FD
330
1F
100
AcDbEntity
  8
0
100
AcDbLine
 10
1133.207187184539
 20
19.43279681433205
 30
0.0
 11
1100.807187184539
 21
19.43279681433205
 31
0.0
  0
LINE
  5
2FE
330
1F
100
AcDbEntity
  8
0
100
AcDbLine
 10
1168.607187184539
 20
19.43279681433205
 30
0.0
 11
1136.207187184539
 21
19.43279681433205
 31
0.0
  0
LINE
  5
2FF
330
1F
100
AcDbEntity
  8
0
100
AcDbLine
 10
1204.007187184539
 20
19.43279681433199
 30
0.0
 11
1171.607187184539
 21
19.43279681433205
 31
0.0
  0
LINE
  5
3FC
330
1F
100
AcDbEntity
  8
0
100
AcDbLine
 10
1052.407187184539
 20
22.43279681433205
 30
0.0
 11
1252.407187184539
 21
22.43279681433205
 31
0.0
  0
LINE
  5
3FD
330
1F
100
AcDbEntity
  8
0
100
AcDbLine
 10
1252.407187184539
 20
22.43279681433205
 30
0.0
 11
1252.407187184539
 21
42.43279681433205
 31
0.0
  0
LINE
  5
3FE
330
1F
100
AcDbEntity
  8
0
100
AcDbLine
 10
1242.407187184539
 20
32.43279681433205
 30
0.0
 11
1242.407187184539
 21
42.43279681433205
 31
0.0
  0
LINE
  5
3FF
330
1F
100
AcDbEntity
  8
0
100
AcDbLine
 10
1239.407187184539
 20
32.43279681433205
 30
0.0
 11
1239.407187184539
 21
42.43279681433205
 31
0.0
  0
LINE
  5
400
330
1F
100
AcDbEntity
  8
0
100
AcDbLine
 10
1252.407187184539
 20
42.43279681433205
 30
0.0
 11
1242.407187184539
 21
42.43279681433205
 31
0.0
  0
LINE
  5
401
330
1F
100
AcDbEntity
  8
0
100
AcDbLine
 10
1239.407187184539
 20
42.43279681433205
 30
0.0
 11
1207.007187184539
 21
42.43279681433199
 31
0.0
  0
LINE
  5
402
330
1F
100
AcDbEntity
  8
0
100
AcDbLine
 10
1204.007187184539
 20
42.43279681433199
 30
0.0
 11
1171.607187184539
 21
42.43279681433205
 31
0.0
  0
LINE
  5
403
330
1F
100
AcDbEntity
  8
0
100
AcDbLine
 10
1168.607187184539
 20
42.43279681433205
 30
0.0
 11
1136.207187184539
 21
42.43279681433205
 31
0.0
  0
LINE
  5
404
330
1F
100
AcDbEntity
  8
0
100
AcDbLine
 10
1133.207187184539
 20
42.43279681433205
 30
0.0
 11
1100.807187184539
 21
42.43279681433205
 31
0.0
  0
LINE
  5
405
330
1F
100
AcDbEntity
  8
0
100
AcDbLine
 10
1097.807187184538
 20
42.43279681433205
 30
0.0
 11
1065.407187184539
 21
42.4327968143321
 31
0.0
  0
LINE
  5
406
330
1F
100
AcDbEntity
  8
0
100
AcDbLine
 10
1062.407187184539
 20
42.4327968143321
 30
0.0
 11
1052.407187184539
 21
42.4327968143321
 31
0.0
  0
LINE
  5
407
330
1F
100
AcDbEntity
  8
0
100
AcDbLine
 10
1242.407187184539
 20
32.43279681433205
 30
0.0
 11
1239.407187184539
 21
32.43279681433205
 31
0.0
  0
LINE
  5
408
330
1F
100
AcDbEntity
  8
0
100
AcDbLine
 10
1065.407187184539
 20
32.43279681433217
 30
0.0
 11
1062.407187184539
 21
32.43279681433211
 31
0.0
  0
LINE
  5
409
330
1F
100
AcDbEntity
  8
0
100
AcDbLine
 10
1052.407187184539
 20
42.4327968143321
 30
0.0
 11
1052.407187184539
 21
22.43279681433205
 31
0.0
  0
LINE
  5
40A
330
1F
100
AcDbEntity
  8
0
100
AcDbLine
 10
1062.407187184539
 20
42.4327968143321
 30
0.0
 11
1062.407187184539
 21
32.43279681433217
 31
0.0
  0
LINE
  5
40B
330
1F
100
AcDbEntity
  8
0
100
AcDbLine
 10
1065.407187184539
 20
42.4327968143321
 30
0.0
 11
1065.407187184539
 21
32.43279681433217
 31
0.0
  0
LINE
  5
40C
330
1F
100
AcDbEntity
  8
0
100
AcDbLine
 10
1100.807187184539
 20
42.4327968143321
 30
0.0
 11
1100.807187184539
 21
32.43279681433217
 31
0.0
  0
LINE
  5
40D
330
1F
100
AcDbEntity
  8
0
100
AcDbLine
 10
1136.207187184539
 20
42.4327968143321
 30
0.0
 11
1136.207187184539
 21
32.43279681433217
 31
0.0
  0
LINE
  5
40E
330
1F
100
AcDbEntity
  8
0
100
AcDbLine
 10
1171.607187184539
 20
42.4327968143321
 30
0.0
 11
1171.607187184539
 21
32.43279681433217
 31
0.0
  0
LINE
  5
40F
330
1F
100
AcDbEntity
  8
0
100
AcDbLine
 10
1207.007187184539
 20
42.4327968143321
 30
0.0
 11
1207.007187184539
 21
32.43279681433217
 31
0.0
  0
LINE
  5
410
330
1F
100
AcDbEntity
  8
0
100
AcDbLine
 10
1100.807187184539
 20
32.43279681433217
 30
0.0
 11
1097.807187184538
 21
32.43279681433211
 31
0.0
  0
LINE
  5
411
330
1F
100
AcDbEntity
  8
0
100
AcDbLine
 10
1097.807187184538
 20
42.4327968143321
 30
0.0
 11
1097.807187184538
 21
32.43279681433217
 31
0.0
  0
LINE
  5
412
330
1F
100
AcDbEntity
  8
0
100
AcDbLine
 10
1136.207187184539
 20
32.43279681433217
 30
0.0
 11
1133.207187184539
 21
32.43279681433211
 31
0.0
  0
LINE
  5
413
330
1F
100
AcDbEntity
  8
0
100
AcDbLine
 10
1133.207187184539
 20
42.4327968143321
 30
0.0
 11
1133.207187184539
 21
32.43279681433217
 31
0.0
  0
LINE
  5
414
330
1F
100
AcDbEntity
  8
0
100
AcDbLine
 10
1171.607187184539
 20
32.43279681433217
 30
0.0
 11
1168.607187184539
 21
32.43279681433211
 31
0.0
  0
LINE
  5
415
330
1F
100
AcDbEntity
  8
0
100
AcDbLine
 10
1168.607187184539
 20
42.4327968143321
 30
0.0
 11
1168.607187184539
 21
32.43279681433217
 31
0.0
  0
LINE
  5
416
330
1F
100
AcDbEntity
  8
0
100
AcDbLine
 10
1207.007187184539
 20
32.43279681433217
 30
0.0
 11
1204.007187184539
 21
32.43279681433211
 31
0.0
  0
LINE
  5
417
330
1F
100
AcDbEntity
  8
0
100
AcDbLine
 10
1204.007187184539
 20
42.4327968143321
 30
0.0
 11
1204.007187184539
 21
32.43279681433217
 31
0.0
  0
LINE
  5
418
330
1F
100
AcDbEntity
  8
0
100
AcDbLine
 10
1052.407187184539
 20
45.43279681433205
 30
0.0
 11
1252.407187184539
 21
45.43279681433205
 31
0.0
  0
LINE
  5
419
330
1F
100
AcDbEntity
  8
0
100
AcDbLine
 10
1252.407187184539
 20
45.43279681433205
 30
0.0
 11
1252.407187184539
 21
65.43279681433205
 31
0.0
  0
LINE
  5
41A
330
1F
100
AcDbEntity
  8
0
100
AcDbLine
 10
1242.407187184539
 20
55.43279681433205
 30
0.0
 11
1242.407187184539
 21
65.43279681433205
 31
0.0
  0
LINE
  5
41B
330
1F
100
AcDbEntity
  8
0
100
AcDbLine
 10
1239.407187184539
 20
55.43279681433205
 30
0.0
 11
1239.407187184539
 21
65.43279681433205
 31
0.0
  0
LINE
  5
41C
330
1F
100
AcDbEntity
  8
0
100
AcDbLine
 10
1252.407187184539
 20
65.43279681433205
 30
0.0
 11
1242.407187184539
 21
65.43279681433205
 31
0.0
  0
LINE
  5
41D
330
1F
100
AcDbEntity
  8
0
100
AcDbLine
 10
1239.407187184539
 20
65.43279681433205
 30
0.0
 11
1207.007187184539
 21
65.43279681433199
 31
0.0
  0
LINE
  5
41E
330
1F
100
AcDbEntity
  8
0
100
AcDbLine
 10
1204.007187184539
 20
65.43279681433199
 30
0.0
 11
1171.607187184539
 21
65.43279681433205
 31
0.0
  0
LINE
  5
41F
330
1F
100
AcDbEntity
  8
0
100
AcDbLine
 10
1168.607187184539
 20
65.43279681433205
 30
0.0
 11
1136.207187184539
 21
65.43279681433205
 31
0.0
  0
LINE
  5
420
330
1F
100
AcDbEntity
  8
0
100
AcDbLine
 10
1133.207187184539
 20
65.43279681433205
 30
0.0
 11
1100.807187184539
 21
65.43279681433205
 31
0.0
  0
LINE
  5
421
330
1F
100
AcDbEntity
  8
0
100
AcDbLine
 10
1097.807187184538
 20
65.43279681433205
 30
0.0
 11
1065.407187184539
 21
65.43279681433211
 31
0.0
  0
LINE
  5
422
330
1F
100
AcDbEntity
  8
0
100
AcDbLine
 10
1062.407187184539
 20
65.43279681433211
 30
0.0
 11
1052.407187184539
 21
65.43279681433211
 31
0.0
  0
LINE
  5
423
330
1F
100
AcDbEntity
  8
0
100
AcDbLine
 10
1242.407187184539
 20
55.43279681433205
 30
0.0
 11
1239.407187184539
 21
55.43279681433205
 31
0.0
  0
LINE
  5
424
330
1F
100
AcDbEntity
  8
0
100
AcDbLine
 10
1065.407187184539
 20
55.43279681433216
 30
0.0
 11
1062.407187184539
 21
55.43279681433211
 31
0.0
  0
LINE
  5
425
330
1F
100
AcDbEntity
  8
0
100
AcDbLine
 10
1052.407187184539
 20
65.43279681433211
 30
0.0
 11
1052.407187184539
 21
45.43279681433205
 31
0.0
  0
LINE
  5
426
330
1F
100
AcDbEntity
  8
0
100
AcDbLine
 10
1062.407187184539
 20
65.43279681433211
 30
0.0
 11
1062.407187184539
 21
55.43279681433216
 31
0.0
  0
LINE
  5
427
330
1F
100
AcDbEntity
  8
0
100
AcDbLine
 10
1065.407187184539
 20
65.43279681433211
 30
0.0
 11
1065.407187184539
 21
55.43279681433216
 31
0.0
  0
LINE
  5
428
330
1F
100
AcDbEntity
  8
0
100
AcDbLine
 10
1100.807187184539
 20
65.43279681433211
 30
0.0
 11
1100.807187184539
 21
55.43279681433216
 31
0.0
  0
LINE
  5
429
330
1F
100
AcDbEntity
  8
0
100
AcDbLine
 10
1136.207187184539
 20
65.43279681433211
 30
0.0
 11
1136.207187184539
 21
55.43279681433216
 31
0.0
  0
LINE
  5
42A
330
1F
100
AcDbEntity
  8
0
100
AcDbLine
 10
1171.607187184539
 20
65.43279681433211
 30
0.0
 11
1171.607187184539
 21
55.43279681433216
 31
0.0
  0
LINE
  5
42B
330
1F
100
AcDbEntity
  8
0
100
AcDbLine
 10
1207.007187184539
 20
65.43279681433211
 30
0.0
 11
1207.007187184539
 21
55.43279681433216
 31
0.0
  0
LINE
  5
42C
330
1F
100
AcDbEntity
  8
0
100
AcDbLine
 10
1100.807187184539
 20
55.43279681433216
 30
0.0
 11
1097.807187184538
 21
55.43279681433211
 31
0.0
  0
LINE
  5
42D
330
1F
100
AcDbEntity
  8
0
100
AcDbLine
 10
1097.807187184538
 20
65.43279681433211
 30
0.0
 11
1097.807187184538
 21
55.43279681433216
 31
0.0
  0
LINE
  5
42E
330
1F
100
AcDbEntity
  8
0
100
AcDbLine
 10
1136.207187184539
 20
55.43279681433216
 30
0.0
 11
1133.207187184539
 21
55.43279681433211
 31
0.0
  0
LINE
  5
42F
330
1F
100
AcDbEntity
  8
0
100
AcDbLine
 10
1133.207187184539
 20
65.43279681433211
 30
0.0
 11
1133.207187184539
 21
55.43279681433216
 31
0.0
  0
LINE
  5
430
330
1F
100
AcDbEntity
  8
0
100
AcDbLine
 10
1171.607187184539
 20
55.43279681433216
 30
0.0
 11
1168.607187184539
 21
55.43279681433211
 31
0.0
  0
LINE
  5
431
330
1F
100
AcDbEntity
  8
0
100
AcDbLine
 10
1168.607187184539
 20
65.43279681433211
 30
0.0
 11
1168.607187184539
 21
55.43279681433216
 31
0.0
  0
LINE
  5
432
330
1F
100
AcDbEntity
  8
0
100
AcDbLine
 10
1207.007187184539
 20
55.43279681433216
 30
0.0
 11
1204.007187184539
 21
55.43279681433211
 31
0.0
  0
LINE
  5
433
330
1F
100
AcDbEntity
  8
0
100
AcDbLine
 10
1204.007187184539
 20
65.43279681433211
 30
0.0
 11
1204.007187184539
 21
55.43279681433216
 31
0.0
  0
LINE
  5
434
330
1F
100
AcDbEntity
  8
0
100
AcDbLine
 10
1052.407187184539
 20
68.43279681433205
 30
0.0
 11
1252.407187184539
 21
68.43279681433205
 31
0.0
  0
LINE
  5
435
330
1F
100
AcDbEntity
  8
0
100
AcDbLine
 10
1252.407187184539
 20
68.43279681433205
 30
0.0
 11
1252.407187184539
 21
88.43279681433205
 31
0.0
  0
LINE
  5
436
330
1F
100
AcDbEntity
  8
0
100
AcDbLine
 10
1242.407187184539
 20
78.43279681433205
 30
0.0
 11
1242.407187184539
 21
88.43279681433205
 31
0.0
  0
LINE
  5
437
330
1F
100
AcDbEntity
  8
0
100
AcDbLine
 10
1239.407187184539
 20
78.43279681433205
 30
0.0
 11
1239.407187184539
 21
88.43279681433205
 31
0.0
  0
LINE
  5
438
330
1F
100
AcDbEntity
  8
0
100
AcDbLine
 10
1252.407187184539
 20
88.43279681433205
 30
0.0
 11
1242.407187184539
 21
88.43279681433205
 31
0.0
  0
LINE
  5
439
330
1F
100
AcDbEntity
  8
0
100
AcDbLine
 10
1239.407187184539
 20
88.43279681433205
 30
0.0
 11
1207.007187184539
 21
88.432796814332
 31
0.0
  0
LINE
  5
43A
330
1F
100
AcDbEntity
  8
0
100
AcDbLine
 10
1204.007187184539
 20
88.432796814332
 30
0.0
 11
1171.607187184539
 21
88.43279681433205
 31
0.0
  0
LINE
  5
43B
330
1F
100
AcDbEntity
  8
0
100
AcDbLine
 10
1168.607187184539
 20
88.43279681433205
 30
0.0
 11
1136.207187184539
 21
88.43279681433205
 31
0.0
  0
LINE
  5
43C
330
1F
100
AcDbEntity
  8
0
100
AcDbLine
 10
1133.207187184539
 20
88.43279681433205
 30
0.0
 11
1100.807187184539
 21
88.43279681433205
 31
0.0
  0
LINE
  5
43D
330
1F
100
AcDbEntity
  8
0
100
AcDbLine
 10
1097.807187184538
 20
88.43279681433205
 30
0.0
 11
1065.407187184539
 21
88.43279681433211
 31
0.0
  0
LINE
  5
43E
330
1F
100
AcDbEntity
  8
0
100
AcDbLine
 10
1062.407187184539
 20
88.43279681433211
 30
0.0
 11
1052.407187184539
 21
88.43279681433211
 31
0.0
  0
LINE
  5
43F
330
1F
100
AcDbEntity
  8
0
100
AcDbLine
 10
1242.407187184539
 20
78.43279681433205
 30
0.0
 11
1239.407187184539
 21
78.43279681433205
 31
0.0
  0
LINE
  5
440
330
1F
100
AcDbEntity
  8
0
100
AcDbLine
 10
1065.407187184539
 20
78.43279681433216
 30
0.0
 11
1062.407187184539
 21
78.43279681433211
 31
0.0
  0
LINE
  5
441
330
1F
100
AcDbEntity
  8
0
100
AcDbLine
 10
1052.407187184539
 20
88.43279681433211
 30
0.0
 11
1052.407187184539
 21
68.43279681433205
 31
0.0
  0
LINE
  5
442
330
1F
100
AcDbEntity
  8
0
100
AcDbLine
 10
1062.407187184539
 20
88.43279681433211
 30
0.0
 11
1062.407187184539
 21
78.43279681433216
 31
0.0
  0
LINE
  5
443
330
1F
100
AcDbEntity
  8
0
100
AcDbLine
 10
1065.407187184539
 20
88.43279681433211
 30
0.0
 11
1065.407187184539
 21
78.43279681433216
 31
0.0
  0
LINE
  5
444
330
1F
100
AcDbEntity
  8
0
100
AcDbLine
 10
1100.807187184539
 20
88.43279681433211
 30
0.0
 11
1100.807187184539
 21
78.43279681433216
 31
0.0
  0
LINE
  5
445
330
1F
100
AcDbEntity
  8
0
100
AcDbLine
 10
1136.207187184539
 20
88.43279681433211
 30
0.0
 11
1136.207187184539
 21
78.43279681433216
 31
0.0
  0
LINE
  5
446
330
1F
100
AcDbEntity
  8
0
100
AcDbLine
 10
1171.607187184539
 20
88.43279681433211
 30
0.0
 11
1171.607187184539
 21
78.43279681433216
 31
0.0
  0
LINE
  5
447
330
1F
100
AcDbEntity
  8
0
100
AcDbLine
 10
1207.007187184539
 20
88.43279681433211
 30
0.0
 11
1207.007187184539
 21
78.43279681433216
 31
0.0
  0
LINE
  5
448
330
1F
100
AcDbEntity
  8
0
100
AcDbLine
 10
1100.807187184539
 20
78.43279681433216
 30
0.0
 11
1097.807187184538
 21
78.43279681433211
 31
0.0
  0
LINE
  5
449
330
1F
100
AcDbEntity
  8
0
100
AcDbLine
 10
1097.807187184538
 20
88.43279681433211
 30
0.0
 11
1097.807187184538
 21
78.43279681433216
 31
0.0
  0
LINE
  5
44A
330
1F
100
AcDbEntity
  8
0
100
AcDbLine
 10
1136.207187184539
 20
78.43279681433216
 30
0.0
 11
1133.207187184539
 21
78.43279681433211
 31
0.0
  0
LINE
  5
44B
330
1F
100
AcDbEntity
  8
0
100
AcDbLine
 10
1133.207187184539
 20
88.43279681433211
 30
0.0
 11
1133.207187184539
 21
78.43279681433216
 31
0.0
  0
LINE
  5
44C
330
1F
100
AcDbEntity
  8
0
100
AcDbLine
 10
1171.607187184539
 20
78.43279681433216
 30
0.0
 11
1168.607187184539
 21
78.43279681433211
 31
0.0
  0
LINE
  5
44D
330
1F
100
AcDbEntity
  8
0
100
AcDbLine
 10
1168.607187184539
 20
88.43279681433211
 30
0.0
 11
1168.607187184539
 21
78.43279681433216
 31
0.0
  0
LINE
  5
44E
330
1F
100
AcDbEntity
  8
0
100
AcDbLine
 10
1207.007187184539
 20
78.43279681433216
 30
0.0
 11
1204.007187184539
 21
78.43279681433211
 31
0.0
  0
LINE
  5
44F
330
1F
100
AcDbEntity
  8
0
100
AcDbLine
 10
1204.007187184539
 20
88.43279681433211
 30
0.0
 11
1204.007187184539
 21
78.43279681433216
 31
0.0
  0
LINE
  5
450
330
1F
100
AcDbEntity
  8
0
100
AcDbLine
 10
1052.407187184539
 20
91.43279681433204
 30
0.0
 11
1252.407187184539
 21
91.43279681433204
 31
0.0
  0
LINE
  5
451
330
1F
100
AcDbEntity
  8
0
100
AcDbLine
 10
1252.407187184539
 20
91.43279681433204
 30
0.0
 11
1252.407187184539
 21
111.432796814332
 31
0.0
  0
LINE
  5
452
330
1F
100
AcDbEntity
  8
0
100
AcDbLine
 10
1242.407187184539
 20
101.432796814332
 30
0.0
 11
1242.407187184539
 21
111.432796814332
 31
0.0
  0
LINE
  5
453
330
1F
100
AcDbEntity
  8
0
100
AcDbLine
 10
1239.407187184539
 20
101.432796814332
 30
0.0
 11
1239.407187184539
 21
111.432796814332
 31
0.0
  0
LINE
  5
454
330
1F
100
AcDbEntity
  8
0
100
AcDbLine
 10
1252.407187184539
 20
111.432796814332
 30
0.0
 11
1242.407187184539
 21
111.432796814332
 31
0.0
  0
LINE
  5
455
330
1F
100
AcDbEntity
  8
0
100
AcDbLine
 10
1239.407187184539
 20
111.432796814332
 30
0.0
 11
1207.007187184539
 21
111.432796814332
 31
0.0
  0
LINE
  5
456
330
1F
100
AcDbEntity
  8
0
100
AcDbLine
 10
1204.007187184539
 20
111.432796814332
 30
0.0
 11
1171.607187184539
 21
111.432796814332
 31
0.0
  0
LINE
  5
457
330
1F
100
AcDbEntity
  8
0
100
AcDbLine
 10
1168.607187184539
 20
111.432796814332
 30
0.0
 11
1136.207187184539
 21
111.432796814332
 31
0.0
  0
LINE
  5
458
330
1F
100
AcDbEntity
  8
0
100
AcDbLine
 10
1133.207187184539
 20
111.432796814332
 30
0.0
 11
1100.807187184539
 21
111.432796814332
 31
0.0
  0
LINE
  5
459
330
1F
100
AcDbEntity
  8
0
100
AcDbLine
 10
1097.807187184538
 20
111.432796814332
 30
0.0
 11
1065.407187184539
 21
111.4327968143321
 31
0.0
  0
LINE
  5
45A
330
1F
100
AcDbEntity
  8
0
100
AcDbLine
 10
1062.407187184539
 20
111.4327968143321
 30
0.0
 11
1052.407187184539
 21
111.4327968143321
 31
0.0
  0
LINE
  5
45B
330
1F
100
AcDbEntity
  8
0
100
AcDbLine
 10
1242.407187184539
 20
101.432796814332
 30
0.0
 11
1239.407187184539
 21
101.432796814332
 31
0.0
  0
LINE
  5
45C
330
1F
100
AcDbEntity
  8
0
100
AcDbLine
 10
1065.407187184539
 20
101.4327968143321
 30
0.0
 11
1062.407187184539
 21
101.4327968143321
 31
0.0
  0
LINE
  5
45D
330
1F
100
AcDbEntity
  8
0
100
AcDbLine
 10
1052.407187184539
 20
111.4327968143321
 30
0.0
 11
1052.407187184539
 21
91.43279681433204
 31
0.0
  0
LINE
  5
45E
330
1F
100
AcDbEntity
  8
0
100
AcDbLine
 10
1062.407187184539
 20
111.4327968143321
 30
0.0
 11
1062.407187184539
 21
101.4327968143321
 31
0.0
  0
LINE
  5
45F
330
1F
100
AcDbEntity
  8
0
100
AcDbLine
 10
1065.407187184539
 20
111.4327968143321
 30
0.0
 11
1065.407187184539
 21
101.4327968143321
 31
0.0
  0
LINE
  5
460
330
1F
100
AcDbEntity
  8
0
100
AcDbLine
 10
1100.807187184539
 20
111.4327968143321
 30
0.0
 11
1100.807187184539
 21
101.4327968143321
 31
0.0
  0
LINE
  5
461
330
1F
100
AcDbEntity
  8
0
100
AcDbLine
 10
1136.207187184539
 20
111.4327968143321
 30
0.0
 11
1136.207187184539
 21
101.4327968143321
 31
0.0
  0
LINE
  5
462
330
1F
100
AcDbEntity
  8
0
100
AcDbLine
 10
1171.607187184539
 20
111.4327968143321
 30
0.0
 11
1171.607187184539
 21
101.4327968143321
 31
0.0
  0
LINE
  5
463
330
1F
100
AcDbEntity
  8
0
100
AcDbLine
 10
1207.007187184539
 20
111.4327968143321
 30
0.0
 11
1207.007187184539
 21
101.4327968143321
 31
0.0
  0
LINE
  5
464
330
1F
100
AcDbEntity
  8
0
100
AcDbLine
 10
1100.807187184539
 20
101.4327968143321
 30
0.0
 11
1097.807187184538
 21
101.4327968143321
 31
0.0
  0
LINE
  5
465
330
1F
100
AcDbEntity
  8
0
100
AcDbLine
 10
1097.807187184538
 20
111.4327968143321
 30
0.0
 11
1097.807187184538
 21
101.4327968143321
 31
0.0
  0
LINE
  5
466
330
1F
100
AcDbEntity
  8
0
100
AcDbLine
 10
1136.207187184539
 20
101.4327968143321
 30
0.0
 11
1133.207187184539
 21
101.4327968143321
 31
0.0
  0
LINE
  5
467
330
1F
100
AcDbEntity
  8
0
100
AcDbLine
 10
1133.207187184539
 20
111.4327968143321
 30
0.0
 11
1133.207187184539
 21
101.4327968143321
 31
0.0
  0
LINE
  5
468
330
1F
100
AcDbEntity
  8
0
100
AcDbLine
 10
1171.607187184539
 20
101.4327968143321
 30
0.0
 11
1168.607187184539
 21
101.4327968143321
 31
0.0
  0
LINE
  5
469
330
1F
100
AcDbEntity
  8
0
100
AcDbLine
 10
1168.607187184539
 20
111.4327968143321
 30
0.0
 11
1168.607187184539
 21
101.4327968143321
 31
0.0
  0
LINE
  5
46A
330
1F
100
AcDbEntity
  8
0
100
AcDbLine
 10
1207.007187184539
 20
101.4327968143321
 30
0.0
 11
1204.007187184539
 21
101.4327968143321
 31
0.0
  0
LINE
  5
46B
330
1F
100
AcDbEntity
  8
0
100
AcDbLine
 10
1204.007187184539
 20
111.4327968143321
 30
0.0
 11
1204.007187184539
 21
101.4327968143321
 31
0.0
  0
LINE
  5
46C
330
1F
100
AcDbEntity
  8
0
100
AcDbLine
 10
1052.407187184539
 20
114.432796814332
 30
0.0
 11
1252.407187184539
 21
114.432796814332
 31
0.0
  0
LINE
  5
46D
330
1F
100
AcDbEntity
  8
0
100
AcDbLine
 10
1252.407187184539
 20
114.432796814332
 30
0.0
 11
1252.407187184539
 21
134.432796814332
 31
0.0
  0
LINE
  5
46E
330
1F
100
AcDbEntity
  8
0
100
AcDbLine
 10
1242.407187184539
 20
124.432796814332
 30
0.0
 11
1242.407187184539
 21
134.432796814332
 31
0.0
  0
LINE
  5
46F
330
1F
100
AcDbEntity
  8
0
100
AcDbLine
 10
1239.407187184539
 20
124.432796814332
 30
0.0
 11
1239.407187184539
 21
134.432796814332
 31
0.0
  0
LINE
  5
470
330
1F
100
AcDbEntity
  8
0
100
AcDbLine
 10
1252.407187184539
 20
134.432796814332
 30
0.0
 11
1242.407187184539
 21
134.432796814332
 31
0.0
  0
LINE
  5
471
330
1F
100
AcDbEntity
  8
0
100
AcDbLine
 10
1239.407187184539
 20
134.432796814332
 30
0.0
 11
1207.007187184539
 21
134.432796814332
 31
0.0
  0
LINE
  5
472
330
1F
100
AcDbEntity
  8
0
100
AcDbLine
 10
1204.007187184539
 20
134.432796814332
 30
0.0
 11
1171.607187184539
 21
134.432796814332
 31
0.0
  0
LINE
  5
473
330
1F
100
AcDbEntity
  8
0
100
AcDbLine
 10
1168.607187184539
 20
134.432796814332
 30
0.0
 11
1136.207187184539
 21
134.432796814332
 31
0.0
  0
LINE
  5
474
330
1F
100
AcDbEntity
  8
0
100
AcDbLine
 10
1133.207187184539
 20
134.432796814332
 30
0.0
 11
1100.807187184539
 21
134.432796814332
 31
0.0
  0
LINE
  5
475
330
1F
100
AcDbEntity
  8
0
100
AcDbLine
 10
1097.807187184538
 20
134.432796814332
 30
0.0
 11
1065.407187184539
 21
134.4327968143321
 31
0.0
  0
LINE
  5
476
330
1F
100
AcDbEntity
  8
0
100
AcDbLine
 10
1062.407187184539
 20
134.4327968143321
 30
0.0
 11
1052.407187184539
 21
134.4327968143321
 31
0.0
  0
LINE
  5
477
330
1F
100
AcDbEntity
  8
0
100
AcDbLine
 10
1242.407187184539
 20
124.432796814332
 30
0.0
 11
1239.407187184539
 21
124.432796814332
 31
0.0
  0
LINE
  5
478
330
1F
100
AcDbEntity
  8
0
100
AcDbLine
 10
1065.407187184539
 20
124.4327968143321
 30
0.0
 11
1062.407187184539
 21
124.4327968143321
 31
0.0
  0
LINE
  5
479
330
1F
100
AcDbEntity
  8
0
100
AcDbLine
 10
1052.407187184539
 20
134.4327968143321
 30
0.0
 11
1052.407187184539
 21
114.432796814332
 31
0.0
  0
LINE
  5
47A
330
1F
100
AcDbEntity
  8
0
100
AcDbLine
 10
1062.407187184539
 20
134.4327968143321
 30
0.0
 11
1062.407187184539
 21
124.4327968143321
 31
0.0
  0
LINE
  5
47B
330
1F
100
AcDbEntity
  8
0
100
AcDbLine
 10
1065.407187184539
 20
134.4327968143321
 30
0.0
 11
1065.407187184539
 21
124.4327968143321
 31
0.0
  0
LINE
  5
47C
330
1F
100
AcDbEntity
  8
0
100
AcDbLine
 10
1100.807187184539
 20
134.4327968143321
 30
0.0
 11
1100.807187184539
 21
124.4327968143321
 31
0.0
  0
LINE
  5
47D
330
1F
100
AcDbEntity
  8
0
100
AcDbLine
 10
1136.207187184539
 20
134.4327968143321
 30
0.0
 11
1136.207187184539
 21
124.4327968143321
 31
0.0
  0
LINE
  5
47E
330
1F
100
AcDbEntity
  8
0
100
AcDbLine
 10
1171.607187184539
 20
134.4327968143321
 30
0.0
 11
1171.607187184539
 21
124.4327968143321
 31
0.0
  0
LINE
  5
47F
330
1F
100
AcDbEntity
  8
0
100
AcDbLine
 10
1207.007187184539
 20
134.4327968143321
 30
0.0
 11
1207.007187184539
 21
124.4327968143321
 31
0.0
  0
LINE
  5
480
330
1F
100
AcDbEntity
  8
0
100
AcDbLine
 10
1100.807187184539
 20
124.4327968143321
 30
0.0
 11
1097.807187184538
 21
124.4327968143321
 31
0.0
  0
LINE
  5
481
330
1F
100
AcDbEntity
  8
0
100
AcDbLine
 10
1097.807187184538
 20
134.4327968143321
 30
0.0
 11
1097.807187184538
 21
124.4327968143321
 31
0.0
  0
LINE
  5
482
330
1F
100
AcDbEntity
  8
0
100
AcDbLine
 10
1136.207187184539
 20
124.4327968143321
 30
0.0
 11
1133.207187184539
 21
124.4327968143321
 31
0.0
  0
LINE
  5
483
330
1F
100
AcDbEntity
  8
0
100
AcDbLine
 10
1133.207187184539
 20
134.4327968143321
 30
0.0
 11
1133.207187184539
 21
124.4327968143321
 31
0.0
  0
LINE
  5
484
330
1F
100
AcDbEntity
  8
0
100
AcDbLine
 10
1171.607187184539
 20
124.4327968143321
 30
0.0
 11
1168.607187184539
 21
124.4327968143321
 31
0.0
  0
LINE
  5
485
330
1F
100
AcDbEntity
  8
0
100
AcDbLine
 10
1168.607187184539
 20
134.4327968143321
 30
0.0
 11
1168.607187184539
 21
124.4327968143321
 31
0.0
  0
LINE
  5
486
330
1F
100
AcDbEntity
  8
0
100
AcDbLine
 10
1207.007187184539
 20
124.4327968143321
 30
0.0
 11
1204.007187184539
 21
124.4327968143321
 31
0.0
  0
LINE
  5
487
330
1F
100
AcDbEntity
  8
0
100
AcDbLine
 10
1204.007187184539
 20
134.4327968143321
 30
0.0
 11
1204.007187184539
 21
124.4327968143321
 31
0.0
  0
LINE
  5
488
330
1F
100
AcDbEntity
  8
0
100
AcDbLine
 10
1052.407187184539
 20
137.432796814332
 30
0.0
 11
1252.407187184539
 21
137.432796814332
 31
0.0
  0
LINE
  5
489
330
1F
100
AcDbEntity
  8
0
100
AcDbLine
 10
1252.407187184539
 20
137.432796814332
 30
0.0
 11
1252.407187184539
 21
157.432796814332
 31
0.0
  0
LINE
  5
48A
330
1F
100
AcDbEntity
  8
0
100
AcDbLine
 10
1242.407187184539
 20
147.432796814332
 30
0.0
 11
1242.407187184539
 21
157.432796814332
 31
0.0
  0
LINE
  5
48B
330
1F
100
AcDbEntity
  8
0
100
AcDbLine
 10
1239.407187184539
 20
147.432796814332
 30
0.0
 11
1239.407187184539
 21
157.432796814332
 31
0.0
  0
LINE
  5
48C
330
1F
100
AcDbEntity
  8
0
100
AcDbLine
 10
1252.407187184539
 20
157.432796814332
 30
0.0
 11
1242.407187184539
 21
157.432796814332
 31
0.0
  0
LINE
  5
48D
330
1F
100
AcDbEntity
  8
0
100
AcDbLine
 10
1239.407187184539
 20
157.432796814332
 30
0.0
 11
1207.007187184539
 21
157.432796814332
 31
0.0
  0
LINE
  5
48E
330
1F
100
AcDbEntity
  8
0
100
AcDbLine
 10
1204.007187184539
 20
157.432796814332
 30
0.0
 11
1171.607187184539
 21
157.432796814332
 31
0.0
  0
LINE
  5
48F
330
1F
100
AcDbEntity
  8
0
100
AcDbLine
 10
1168.607187184539
 20
157.432796814332
 30
0.0
 11
1136.207187184539
 21
157.432796814332
 31
0.0
  0
LINE
  5
490
330
1F
100
AcDbEntity
  8
0
100
AcDbLine
 10
1133.207187184539
 20
157.432796814332
 30
0.0
 11
1100.807187184539
 21
157.432796814332
 31
0.0
  0
LINE
  5
491
330
1F
100
AcDbEntity
  8
0
100
AcDbLine
 10
1097.807187184538
 20
157.432796814332
 30
0.0
 11
1065.407187184539
 21
157.4327968143321
 31
0.0
  0
LINE
  5
492
330
1F
100
AcDbEntity
  8
0
100
AcDbLine
 10
1062.407187184539
 20
157.4327968143321
 30
0.0
 11
1052.407187184539
 21
157.4327968143321
 31
0.0
  0
LINE
  5
493
330
1F
100
AcDbEntity
  8
0
100
AcDbLine
 10
1242.407187184539
 20
147.432796814332
 30
0.0
 11
1239.407187184539
 21
147.432796814332
 31
0.0
  0
LINE
  5
494
330
1F
100
AcDbEntity
  8
0
100
AcDbLine
 10
1065.407187184539
 20
147.4327968143321
 30
0.0
 11
1062.407187184539
 21
147.4327968143321
 31
0.0
  0
LINE
  5
495
330
1F
100
AcDbEntity
  8
0
100
AcDbLine
 10
1052.407187184539
 20
157.4327968143321
 30
0.0
 11
1052.407187184539
 21
137.432796814332
 31
0.0
  0
LINE
  5
496
330
1F
100
AcDbEntity
  8
0
100
AcDbLine
 10
1062.407187184539
 20
157.4327968143321
 30
0.0
 11
1062.407187184539
 21
147.4327968143321
 31
0.0
  0
LINE
  5
497
330
1F
100
AcDbEntity
  8
0
100
AcDbLine
 10
1065.407187184539
 20
157.4327968143321
 30
0.0
 11
1065.407187184539
 21
147.4327968143321
 31
0.0
  0
LINE
  5
498
330
1F
100
AcDbEntity
  8
0
100
AcDbLine
 10
1100.807187184539
 20
157.4327968143321
 30
0.0
 11
1100.807187184539
 21
147.4327968143321
 31
0.0
  0
LINE
  5
499
330
1F
100
AcDbEntity
  8
0
100
AcDbLine
 10
1136.207187184539
 20
157.4327968143321
 30
0.0
 11
1136.207187184539
 21
147.4327968143321
 31
0.0
  0
LINE
  5
49A
330
1F
100
AcDbEntity
  8
0
100
AcDbLine
 10
1171.607187184539
 20
157.4327968143321
 30
0.0
 11
1171.607187184539
 21
147.4327968143321
 31
0.0
  0
LINE
  5
49B
330
1F
100
AcDbEntity
  8
0
100
AcDbLine
 10
1207.007187184539
 20
157.4327968143321
 30
0.0
 11
1207.007187184539
 21
147.4327968143321
 31
0.0
  0
LINE
  5
49C
330
1F
100
AcDbEntity
  8
0
100
AcDbLine
 10
1100.807187184539
 20
147.4327968143321
 30
0.0
 11
1097.807187184538
 21
147.4327968143321
 31
0.0
  0
LINE
  5
49D
330
1F
100
AcDbEntity
  8
0
100
AcDbLine
 10
1097.807187184538
 20
157.4327968143321
 30
0.0
 11
1097.807187184538
 21
147.4327968143321
 31
0.0
  0
LINE
  5
49E
330
1F
100
AcDbEntity
  8
0
100
AcDbLine
 10
1136.207187184539
 20
147.4327968143321
 30
0.0
 11
1133.207187184539
 21
147.4327968143321
 31
0.0
  0
LINE
  5
49F
330
1F
100
AcDbEntity
  8
0
100
AcDbLine
 10
1133.207187184539
 20
157.4327968143321
 30
0.0
 11
1133.207187184539
 21
147.4327968143321
 31
0.0
  0
LINE
  5
4A0
330
1F
100
AcDbEntity
  8
0
100
AcDbLine
 10
1171.607187184539
 20
147.4327968143321
 30
0.0
 11
1168.607187184539
 21
147.4327968143321
 31
0.0
  0
LINE
  5
4A1
330
1F
100
AcDbEntity
  8
0
100
AcDbLine
 10
1168.607187184539
 20
157.4327968143321
 30
0.0
 11
1168.607187184539
 21
147.4327968143321
 31
0.0
  0
LINE
  5
4A2
330
1F
100
AcDbEntity
  8
0
100
AcDbLine
 10
1207.007187184539
 20
147.4327968143321
 30
0.0
 11
1204.007187184539
 21
147.4327968143321
 31
0.0
  0
LINE
  5
4A3
330
1F
100
AcDbEntity
  8
0
100
AcDbLine
 10
1204.007187184539
 20
157.4327968143321
 30
0.0
 11
1204.007187184539
 21
147.4327968143321
 31
0.0
  0
LINE
  5
4A4
330
1F
100
AcDbEntity
  8
0
100
AcDbLine
 10
1052.407187184539
 20
160.432796814332
 30
0.0
 11
1252.407187184539
 21
160.432796814332
 31
0.0
  0
LINE
  5
4A5
330
1F
100
AcDbEntity
  8
0
100
AcDbLine
 10
1252.407187184539
 20
160.432796814332
 30
0.0
 11
1252.407187184539
 21
180.432796814332
 31
0.0
  0
LINE
  5
4A6
330
1F
100
AcDbEntity
  8
0
100
AcDbLine
 10
1242.407187184539
 20
170.432796814332
 30
0.0
 11
1242.407187184539
 21
180.432796814332
 31
0.0
  0
LINE
  5
4A7
330
1F
100
AcDbEntity
  8
0
100
AcDbLine
 10
1239.407187184539
 20
170.432796814332
 30
0.0
 11
1239.407187184539
 21
180.432796814332
 31
0.0
  0
LINE
  5
4A8
330
1F
100
AcDbEntity
  8
0
100
AcDbLine
 10
1252.407187184539
 20
180.432796814332
 30
0.0
 11
1242.407187184539
 21
180.432796814332
 31
0.0
  0
LINE
  5
4A9
330
1F
100
AcDbEntity
  8
0
100
AcDbLine
 10
1239.407187184539
 20
180.432796814332
 30
0.0
 11
1207.007187184539
 21
180.432796814332
 31
0.0
  0
LINE
  5
4AA
330
1F
100
AcDbEntity
  8
0
100
AcDbLine
 10
1204.007187184539
 20
180.432796814332
 30
0.0
 11
1171.607187184539
 21
180.432796814332
 31
0.0
  0
LINE
  5
4AB
330
1F
100
AcDbEntity
  8
0
100
AcDbLine
 10
1168.607187184539
 20
180.432796814332
 30
0.0
 11
1136.207187184539
 21
180.432796814332
 31
0.0
  0
LINE
  5
4AC
330
1F
100
AcDbEntity
  8
0
100
AcDbLine
 10
1133.207187184539
 20
180.432796814332
 30
0.0
 11
1100.807187184539
 21
180.432796814332
 31
0.0
  0
LINE
  5
4AD
330
1F
100
AcDbEntity
  8
0
100
AcDbLine
 10
1097.807187184538
 20
180.432796814332
 30
0.0
 11
1065.407187184539
 21
180.4327968143321
 31
0.0
  0
LINE
  5
4AE
330
1F
100
AcDbEntity
  8
0
100
AcDbLine
 10
1062.407187184539
 20
180.4327968143321
 30
0.0
 11
1052.407187184539
 21
180.4327968143321
 31
0.0
  0
LINE
  5
4AF
330
1F
100
AcDbEntity
  8
0
100
AcDbLine
 10
1242.407187184539
 20
170.432796814332
 30
0.0
 11
1239.407187184539
 21
170.432796814332
 31
0.0
  0
LINE
  5
4B0
330
1F
100
AcDbEntity
  8
0
100
AcDbLine
 10
1065.407187184539
 20
170.4327968143321
 30
0.0
 11
1062.407187184539
 21
170.4327968143321
 31
0.0
  0
LINE
  5
4B1
330
1F
100
AcDbEntity
  8
0
100
AcDbLine
 10
1052.407187184539
 20
180.4327968143321
 30
0.0
 11
1052.407187184539
 21
160.432796814332
 31
0.0
  0
LINE
  5
4B2
330
1F
100
AcDbEntity
  8
0
100
AcDbLine
 10
1062.407187184539
 20
180.4327968143321
 30
0.0
 11
1062.407187184539
 21
170.4327968143321
 31
0.0
  0
LINE
  5
4B3
330
1F
100
AcDbEntity
  8
0
100
AcDbLine
 10
1065.407187184539
 20
180.4327968143321
 30
0.0
 11
1065.407187184539
 21
170.4327968143321
 31
0.0
  0
LINE
  5
4B4
330
1F
100
AcDbEntity
  8
0
100
AcDbLine
 10
1100.807187184539
 20
180.4327968143321
 30
0.0
 11
1100.807187184539
 21
170.4327968143321
 31
0.0
  0
LINE
  5
4B5
330
1F
100
AcDbEntity
  8
0
100
AcDbLine
 10
1136.207187184539
 20
180.4327968143321
 30
0.0
 11
1136.207187184539
 21
170.4327968143321
 31
0.0
  0
LINE
  5
4B6
330
1F
100
AcDbEntity
  8
0
100
AcDbLine
 10
1171.607187184539
 20
180.4327968143321
 30
0.0
 11
1171.607187184539
 21
170.4327968143321
 31
0.0
  0
LINE
  5
4B7
330
1F
100
AcDbEntity
  8
0
100
AcDbLine
 10
1207.007187184539
 20
180.4327968143321
 30
0.0
 11
1207.007187184539
 21
170.4327968143321
 31
0.0
  0
LINE
  5
4B8
330
1F
100
AcDbEntity
  8
0
100
AcDbLine
 10
1100.807187184539
 20
170.4327968143321
 30
0.0
 11
1097.807187184538
 21
170.4327968143321
 31
0.0
  0
LINE
  5
4B9
330
1F
100
AcDbEntity
  8
0
100
AcDbLine
 10
1097.807187184538
 20
180.4327968143321
 30
0.0
 11
1097.807187184538
 21
170.4327968143321
 31
0.0
  0
LINE
  5
4BA
330
1F
100
AcDbEntity
  8
0
100
AcDbLine
 10
1136.207187184539
 20
170.4327968143321
 30
0.0
 11
1133.207187184539
 21
170.4327968143321
 31
0.0
  0
LINE
  5
4BB
330
1F
100
AcDbEntity
  8
0
100
AcDbLine
 10
1133.207187184539
 20
180.4327968143321
 30
0.0
 11
1133.207187184539
 21
170.4327968143321
 31
0.0
  0
LINE
  5
4BC
330
1F
100
AcDbEntity
  8
0
100
AcDbLine
 10
1171.607187184539
 20
170.4327968143321
 30
0.0
 11
1168.607187184539
 21
170.4327968143321
 31
0.0
  0
LINE
  5
4BD
330
1F
100
AcDbEntity
  8
0
100
AcDbLine
 10
1168.607187184539
 20
180.4327968143321
 30
0.0
 11
1168.607187184539
 21
170.4327968143321
 31
0.0
  0
LINE
  5
4BE
330
1F
100
AcDbEntity
  8
0
100
AcDbLine
 10
1207.007187184539
 20
170.4327968143321
 30
0.0
 11
1204.007187184539
 21
170.4327968143321
 31
0.0
  0
LINE
  5
4BF
330
1F
100
AcDbEntity
  8
0
100
AcDbLine
 10
1204.007187184539
 20
180.4327968143321
 30
0.0
 11
1204.007187184539
 21
170.4327968143321
 31
0.0
  0
LINE
  5
4C0
330
1F
100
AcDbEntity
  8
0
100
AcDbLine
 10
1052.407187184539
 20
183.432796814332
 30
0.0
 11
1252.407187184539
 21
183.432796814332
 31
0.0
  0
LINE
  5
4C1
330
1F
100
AcDbEntity
  8
0
100
AcDbLine
 10
1252.407187184539
 20
183.432796814332
 30
0.0
 11
1252.407187184539
 21
203.432796814332
 31
0.0
  0
LINE
  5
4C2
330
1F
100
AcDbEntity
  8
0
100
AcDbLine
 10
1242.407187184539
 20
193.432796814332
 30
0.0
 11
1242.407187184539
 21
203.432796814332
 31
0.0
  0
LINE
  5
4C3
330
1F
100
AcDbEntity
  8
0
100
AcDbLine
 10
1239.407187184539
 20
193.432796814332
 30
0.0
 11
1239.407187184539
 21
203.432796814332
 31
0.0
  0
LINE
  5
4C4
330
1F
100
AcDbEntity
  8
0
100
AcDbLine
 10
1252.407187184539
 20
203.432796814332
 30
0.0
 11
1242.407187184539
 21
203.432796814332
 31
0.0
  0
LINE
  5
4C5
330
1F
100
AcDbEntity
  8
0
100
AcDbLine
 10
1239.407187184539
 20
203.432796814332
 30
0.0
 11
1207.007187184539
 21
203.432796814332
 31
0.0
  0
LINE
  5
4C6
330
1F
100
AcDbEntity
  8
0
100
AcDbLine
 10
1204.007187184539
 20
203.432796814332
 30
0.0
 11
1171.607187184539
 21
203.432796814332
 31
0.0
  0
LINE
  5
4C7
330
1F
100
AcDbEntity
  8
0
100
AcDbLine
 10
1168.607187184539
 20
203.432796814332
 30
0.0
 11
1136.207187184539
 21
203.432796814332
 31
0.0
  0
LINE
  5
4C8
330
1F
100
AcDbEntity
  8
0
100
AcDbLine
 10
1133.207187184539
 20
203.432796814332
 30
0.0
 11
1100.807187184539
 21
203.432796814332
 31
0.0
  0
LINE
  5
4C9
330
1F
100
AcDbEntity
  8
0
100
AcDbLine
 10
1097.807187184538
 20
203.432796814332
 30
0.0
 11
1065.407187184539
 21
203.4327968143321
 31
0.0
  0
LINE
  5
4CA
330
1F
100
AcDbEntity
  8
0
100
AcDbLine
 10
1062.407187184539
 20
203.4327968143321
 30
0.0
 11
1052.407187184539
 21
203.4327968143321
 31
0.0
  0
LINE
  5
4CB
330
1F
100
AcDbEntity
  8
0
100
AcDbLine
 10
1242.407187184539
 20
193.432796814332
 30
0.0
 11
1239.407187184539
 21
193.432796814332
 31
0.0
  0
LINE
  5
4CC
330
1F
100
AcDbEntity
  8
0
100
AcDbLine
 10
1065.407187184539
 20
193.4327968143321
 30
0.0
 11
1062.407187184539
 21
193.4327968143321
 31
0.0
  0
LINE
  5
4CD
330
1F
100
AcDbEntity
  8
0
100
AcDbLine
 10
1052.407187184539
 20
203.4327968143321
 30
0.0
 11
1052.407187184539
 21
183.432796814332
 31
0.0
  0
LINE
  5
4CE
330
1F
100
AcDbEntity
  8
0
100
AcDbLine
 10
1062.407187184539
 20
203.4327968143321
 30
0.0
 11
1062.407187184539
 21
193.4327968143321
 31
0.0
  0
LINE
  5
4CF
330
1F
100
AcDbEntity
  8
0
100
AcDbLine
 10
1065.407187184539
 20
203.4327968143321
 30
0.0
 11
1065.407187184539
 21
193.4327968143321
 31
0.0
  0
LINE
  5
4D0
330
1F
100
AcDbEntity
  8
0
100
AcDbLine
 10
1100.807187184539
 20
203.4327968143321
 30
0.0
 11
1100.807187184539
 21
193.4327968143321
 31
0.0
  0
LINE
  5
4D1
330
1F
100
AcDbEntity
  8
0
100
AcDbLine
 10
1136.207187184539
 20
203.4327968143321
 30
0.0
 11
1136.207187184539
 21
193.4327968143321
 31
0.0
  0
LINE
  5
4D2
330
1F
100
AcDbEntity
  8
0
100
AcDbLine
 10
1171.607187184539
 20
203.4327968143321
 30
0.0
 11
1171.607187184539
 21
193.4327968143321
 31
0.0
  0
LINE
  5
4D3
330
1F
100
AcDbEntity
  8
0
100
AcDbLine
 10
1207.007187184539
 20
203.4327968143321
 30
0.0
 11
1207.007187184539
 21
193.4327968143321
 31
0.0
  0
LINE
  5
4D4
330
1F
100
AcDbEntity
  8
0
100
AcDbLine
 10
1100.807187184539
 20
193.4327968143321
 30
0.0
 11
1097.807187184538
 21
193.4327968143321
 31
0.0
  0
LINE
  5
4D5
330
1F
100
AcDbEntity
  8
0
100
AcDbLine
 10
1097.807187184538
 20
203.4327968143321
 30
0.0
 11
1097.807187184538
 21
193.4327968143321
 31
0.0
  0
LINE
  5
4D6
330
1F
100
AcDbEntity
  8
0
100
AcDbLine
 10
1136.207187184539
 20
193.4327968143321
 30
0.0
 11
1133.207187184539
 21
193.4327968143321
 31
0.0
  0
LINE
  5
4D7
330
1F
100
AcDbEntity
  8
0
100
AcDbLine
 10
1133.207187184539
 20
203.4327968143321
 30
0.0
 11
1133.207187184539
 21
193.4327968143321
 31
0.0
  0
LINE
  5
4D8
330
1F
100
AcDbEntity
  8
0
100
AcDbLine
 10
1171.607187184539
 20
193.4327968143321
 30
0.0
 11
1168.607187184539
 21
193.4327968143321
 31
0.0
  0
LINE
  5
4D9
330
1F
100
AcDbEntity
  8
0
100
AcDbLine
 10
1168.607187184539
 20
203.4327968143321
 30
0.0
 11
1168.607187184539
 21
193.4327968143321
 31
0.0
  0
LINE
  5
4DA
330
1F
100
AcDbEntity
  8
0
100
AcDbLine
 10
1207.007187184539
 20
193.4327968143321
 30
0.0
 11
1204.007187184539
 21
193.4327968143321
 31
0.0
  0
LINE
  5
4DB
330
1F
100
AcDbEntity
  8
0
100
AcDbLine
 10
1204.007187184539
 20
203.4327968143321
 30
0.0
 11
1204.007187184539
 21
193.4327968143321
 31
0.0
  0
LINE
  5
4DC
330
1F
100
AcDbEntity
  8
0
100
AcDbLine
 10
1052.407187184539
 20
206.4327968143321
 30
0.0
 11
1252.407187184539
 21
206.4327968143321
 31
0.0
  0
LINE
  5
4DD
330
1F
100
AcDbEntity
  8
0
100
AcDbLine
 10
1252.407187184539
 20
206.4327968143321
 30
0.0
 11
1252.407187184539
 21
226.4327968143321
 31
0.0
  0
LINE
  5
4DE
330
1F
100
AcDbEntity
  8
0
100
AcDbLine
 10
1242.407187184539
 20
216.4327968143321
 30
0.0
 11
1242.407187184539
 21
226.4327968143321
 31
0.0
  0
LINE
  5
4DF
330
1F
100
AcDbEntity
  8
0
100
AcDbLine
 10
1239.407187184539
 20
216.4327968143321
 30
0.0
 11
1239.407187184539
 21
226.4327968143321
 31
0.0
  0
LINE
  5
4E0
330
1F
100
AcDbEntity
  8
0
100
AcDbLine
 10
1252.407187184539
 20
226.4327968143321
 30
0.0
 11
1242.407187184539
 21
226.4327968143321
 31
0.0
  0
LINE
  5
4E1
330
1F
100
AcDbEntity
  8
0
100
AcDbLine
 10
1239.407187184539
 20
226.4327968143321
 30
0.0
 11
1207.007187184539
 21
226.4327968143321
 31
0.0
  0
LINE
  5
4E2
330
1F
100
AcDbEntity
  8
0
100
AcDbLine
 10
1204.007187184539
 20
226.4327968143321
 30
0.0
 11
1171.607187184539
 21
226.4327968143321
 31
0.0
  0
LINE
  5
4E3
330
1F
100
AcDbEntity
  8
0
100
AcDbLine
 10
1168.607187184539
 20
226.4327968143321
 30
0.0
 11
1136.207187184539
 21
226.4327968143321
 31
0.0
  0
LINE
  5
4E4
330
1F
100
AcDbEntity
  8
0
100
AcDbLine
 10
1133.207187184539
 20
226.4327968143321
 30
0.0
 11
1100.807187184539
 21
226.4327968143321
 31
0.0
  0
LINE
  5
4E5
330
1F
100
AcDbEntity
  8
0
100
AcDbLine
 10
1097.807187184538
 20
226.4327968143321
 30
0.0
 11
1065.407187184539
 21
226.4327968143321
 31
0.0
  0
LINE
  5
4E6
330
1F
100
AcDbEntity
  8
0
100
AcDbLine
 10
1062.407187184539
 20
226.4327968143321
 30
0.0
 11
1052.407187184539
 21
226.4327968143321
 31
0.0
  0
LINE
  5
4E7
330
1F
100
AcDbEntity
  8
0
100
AcDbLine
 10
1242.407187184539
 20
216.4327968143321
 30
0.0
 11
1239.407187184539
 21
216.4327968143321
 31
0.0
  0
LINE
  5
4E8
330
1F
100
AcDbEntity
  8
0
100
AcDbLine
 10
1065.407187184539
 20
216.4327968143322
 30
0.0
 11
1062.407187184539
 21
216.4327968143321
 31
0.0
  0
LINE
  5
4E9
330
1F
100
AcDbEntity
  8
0
100
AcDbLine
 10
1052.407187184539
 20
226.4327968143321
 30
0.0
 11
1052.407187184539
 21
206.4327968143321
 31
0.0
  0
LINE
  5
4EA
330
1F
100
AcDbEntity
  8
0
100
AcDbLine
 10
1062.407187184539
 20
226.4327968143321
 30
0.0
 11
1062.407187184539
 21
216.4327968143322
 31
0.0
  0
LINE
  5
4EB
330
1F
100
AcDbEntity
  8
0
100
AcDbLine
 10
1065.407187184539
 20
226.4327968143321
 30
0.0
 11
1065.407187184539
 21
216.4327968143322
 31
0.0
  0
LINE
  5
4EC
330
1F
100
AcDbEntity
  8
0
100
AcDbLine
 10
1100.807187184539
 20
226.4327968143321
 30
0.0
 11
1100.807187184539
 21
216.4327968143322
 31
0.0
  0
LINE
  5
4ED
330
1F
100
AcDbEntity
  8
0
100
AcDbLine
 10
1136.207187184539
 20
226.4327968143321
 30
0.0
 11
1136.207187184539
 21
216.4327968143322
 31
0.0
  0
LINE
  5
4EE
330
1F
100
AcDbEntity
  8
0
100
AcDbLine
 10
1171.607187184539
 20
226.4327968143321
 30
0.0
 11
1171.607187184539
 21
216.4327968143322
 31
0.0
  0
LINE
  5
4EF
330
1F
100
AcDbEntity
  8
0
100
AcDbLine
 10
1207.007187184539
 20
226.4327968143321
 30
0.0
 11
1207.007187184539
 21
216.4327968143322
 31
0.0
  0
LINE
  5
4F0
330
1F
100
AcDbEntity
  8
0
100
AcDbLine
 10
1100.807187184539
 20
216.4327968143322
 30
0.0
 11
1097.807187184538
 21
216.4327968143321
 31
0.0
  0
LINE
  5
4F1
330
1F
100
AcDbEntity
  8
0
100
AcDbLine
 10
1097.807187184538
 20
226.4327968143321
 30
0.0
 11
1097.807187184538
 21
216.4327968143322
 31
0.0
  0
LINE
  5
4F2
330
1F
100
AcDbEntity
  8
0
100
AcDbLine
 10
1136.207187184539
 20
216.4327968143322
 30
0.0
 11
1133.207187184539
 21
216.4327968143321
 31
0.0
  0
LINE
  5
4F3
330
1F
100
AcDbEntity
  8
0
100
AcDbLine
 10
1133.207187184539
 20
226.4327968143321
 30
0.0
 11
1133.207187184539
 21
216.4327968143322
 31
0.0
  0
LINE
  5
4F4
330
1F
100
AcDbEntity
  8
0
100
AcDbLine
 10
1171.607187184539
 20
216.4327968143322
 30
0.0
 11
1168.607187184539
 21
216.4327968143321
 31
0.0
  0
LINE
  5
4F5
330
1F
100
AcDbEntity
  8
0
100
AcDbLine
 10
1168.607187184539
 20
226.4327968143321
 30
0.0
 11
1168.607187184539
 21
216.4327968143322
 31
0.0
  0
LINE
  5
4F6
330
1F
100
AcDbEntity
  8
0
100
AcDbLine
 10
1207.007187184539
 20
216.4327968143322
 30
0.0
 11
1204.007187184539
 21
216.4327968143321
 31
0.0
  0
LINE
  5
4F7
330
1F
100
AcDbEntity
  8
0
100
AcDbLine
 10
1204.007187184539
 20
226.4327968143321
 30
0.0
 11
1204.007187184539
 21
216.4327968143322
 31
0.0
  0
CIRCLE
  5
4FD
330
1F
100
AcDbEntity
  8
0
100
AcDbCircle
 10
1979.981164931716
 20
660.2521540277239
 30
0.0
 40
45.0
  0
CIRCLE
  5
4FE
330
1F
100
AcDbEntity
  8
0
100
AcDbCircle
 10
2089.981164931716
 20
660.2521540277239
 30
0.0
 40
45.0
  0
CIRCLE
  5
4FF
330
1F
100
AcDbEntity
  8
0
100
AcDbCircle
 10
2199.981164931716
 20
660.2521540277239
 30
0.0
 40
45.0
  0
CIRCLE
  5
500
330
1F
100
AcDbEntity
  8
0
100
AcDbCircle
 10
2309.981164931716
 20
660.2521540277239
 30
0.0
 40
45.0
  0
LINE
  5
501
330
1F
100
AcDbEntity
  8
0
100
AcDbLine
 10
1937.981164931716
 20
595.252154027724
 30
0.0
 11
2033.481164931716
 21
595.252154027724
 31
0.0
  0
LINE
  5
502
330
1F
100
AcDbEntity
  8
0
100
AcDbLine
 10
2036.481164931717
 20
595.252154027724
 30
0.0
 11
2143.481164931716
 21
595.252154027724
 31
0.0
  0
LINE
  5
503
330
1F
100
AcDbEntity
  8
0
100
AcDbLine
 10
2146.481164931716
 20
595.252154027724
 30
0.0
 11
2253.481164931717
 21
595.252154027724
 31
0.0
  0
LINE
  5
504
330
1F
100
AcDbEntity
  8
0
100
AcDbLine
 10
2256.481164931716
 20
595.252154027724
 30
0.0
 11
2351.981164931716
 21
595.252154027724
 31
0.0
  0
ARC
  5
505
330
1F
100
AcDbEntity
  8
0
100
AcDbCircle
 10
2354.981164931716
 20
615.252154027724
 30
0.0
 40
20.0
100
AcDbArc
 50
270.0
 51
0.0
  0
ARC
  5
506
330
1F
100
AcDbEntity
  8
0
100
AcDbCircle
 10
1934.981164931716
 20
615.252154027724
 30
0.0
 40
20.0
100
AcDbArc
 50
179.9999999999999
 51
270.0
  0
CIRCLE
  5
507
330
1F
100
AcDbEntity
  8
0
100
AcDbCircle
 10
2034.981164931716
 20
750.2521540277239
 30
0.0
 40
45.0
  0
CIRCLE
  5
508
330
1F
100
AcDbEntity
  8
0
100
AcDbCircle
 10
2144.981164931716
 20
750.2521540277239
 30
0.0
 40
45.0
  0
CIRCLE
  5
509
330
1F
100
AcDbEntity
  8
0
100
AcDbCircle
 10
2254.981164931717
 20
750.2521540277239
 30
0.0
 40
45.0
  0
CIRCLE
  5
50A
330
1F
100
AcDbEntity
  8
0
100
AcDbCircle
 10
2364.981164931716
 20
750.2521540277239
 30
0.0
 40
45.0
  0
LINE
  5
50B
330
1F
100
AcDbEntity
  8
0
100
AcDbLine
 10
1914.981164931716
 20
615.252154027724
 30
0.0
 11
1914.981164931716
 21
660.2521540277239
 31
0.0
  0
ARC
  5
50C
330
1F
100
AcDbEntity
  8
0
100
AcDbCircle
 10
1979.981164931716
 20
660.2521540277239
 30
0.0
 40
64.99999999999989
100
AcDbArc
 50
110.222026049471
 51
179.9999999999999
  0
ARC
  5
50D
330
1F
100
AcDbEntity
  8
0
100
AcDbCircle
 10
1950.60015370475
 20
740.0127719997587
 30
0.0
 40
20.0
100
AcDbArc
 50
290.222026049471
 51
324.2692120804926
  0
ARC
  5
50E
330
1F
100
AcDbEntity
  8
0
100
AcDbCircle
 10
1950.60015370475
 20
740.0127719997587
 30
0.0
 40
20.0
100
AcDbArc
 50
332.8716566898334
 51
6.918842720853043
  0
ARC
  5
50F
330
1F
100
AcDbEntity
  8
0
100
AcDbCircle
 10
2034.981164931716
 20
750.2521540277239
 30
0.0
 40
65.0
100
AcDbArc
 50
110.222026049471
 51
186.9188427208531
  0
ARC
  5
510
330
1F
100
AcDbEntity
  8
0
100
AcDbCircle
 10
2005.60015370475
 20
830.0127719997588
 30
0.0
 40
20.0
100
AcDbArc
 50
290.222026049471
 51
323.8495616557622
  0
ARC
  5
511
330
1F
100
AcDbEntity
  8
0
100
AcDbCircle
 10
2005.60015370475
 20
830.0127719997588
 30
0.0
 40
20.0
100
AcDbArc
 50
332.4529842187137
 51
6.918842720853043
  0
ARC
  5
512
330
1F
100
AcDbEntity
  8
0
100
AcDbCircle
 10
2394.981164931716
 20
670.7222854247895
 30
0.0
 40
20.0
100
AcDbArc
 50
110.6673164935138
 51
144.7131419726624
  0
ARC
  5
513
330
1F
100
AcDbEntity
  8
0
100
AcDbCircle
 10
2394.981164931716
 20
670.7222854247895
 30
0.0
 40
20.0
100
AcDbArc
 50
153.315586582004
 51
180.0000000000007
  0
LINE
  5
514
330
1F
100
AcDbEntity
  8
0
100
AcDbLine
 10
2374.981164931716
 20
660.2521540277239
 30
0.0
 11
2374.981164931716
 21
615.252154027724
 31
0.0
  0
LINE
  5
515
330
1F
100
AcDbEntity
  8
0
100
AcDbLine
 10
2374.981164931716
 20
660.2521540277239
 30
0.0
 11
2374.981164931716
 21
670.7222854247893
 31
0.0
  0
CIRCLE
  5
516
330
1F
100
AcDbEntity
  8
0
100
AcDbCircle
 10
2089.981164931716
 20
840.2521540277239
 30
0.0
 40
45.0
  0
CIRCLE
  5
517
330
1F
100
AcDbEntity
  8
0
100
AcDbCircle
 10
2309.981164931716
 20
840.2521540277239
 30
0.0
 40
45.0
  0
ARC
  5
518
330
1F
100
AcDbEntity
  8
0
100
AcDbCircle
 10
2364.981164931716
 20
750.2521540277239
 30
0.0
 40
65.0
100
AcDbArc
 50
290.6673164935138
 51
69.33268350648614
  0
ARC
  5
519
330
1F
100
AcDbEntity
  8
0
100
AcDbCircle
 10
2394.981164931716
 20
829.7820226306582
 30
0.0
 40
20.0
100
AcDbArc
 50
180.0
 51
206.0633912666081
  0
ARC
  5
51A
330
1F
100
AcDbEntity
  8
0
100
AcDbCircle
 10
2394.981164931716
 20
829.7820226306582
 30
0.0
 40
20.0
100
AcDbArc
 50
214.6663417532427
 51
249.3326835064861
  0
LINE
  5
51B
330
1F
100
AcDbEntity
  8
0
100
AcDbLine
 10
2374.981164931716
 20
840.2521540277239
 30
0.0
 11
2374.981164931716
 21
829.7820226306582
 31
0.0
  0
LINE
  5
51C
330
1F
100
AcDbEntity
  8
0
100
AcDbLine
 10
2033.481164931717
 20
605.2521540277241
 30
0.0
 11
2033.481164931716
 21
595.252154027724
 31
0.0
  0
LINE
  5
51D
330
1F
100
AcDbEntity
  8
0
100
AcDbLine
 10
2036.481164931716
 20
605.2521540277241
 30
0.0
 11
2036.481164931716
 21
595.252154027724
 31
0.0
  0
LINE
  5
51E
330
1F
100
AcDbEntity
  8
0
100
AcDbLine
 10
2143.481164931716
 20
605.2521540277241
 30
0.0
 11
2143.481164931716
 21
595.252154027724
 31
0.0
  0
LINE
  5
51F
330
1F
100
AcDbEntity
  8
0
100
AcDbLine
 10
2146.481164931716
 20
605.2521540277241
 30
0.0
 11
2146.481164931716
 21
595.252154027724
 31
0.0
  0
LINE
  5
520
330
1F
100
AcDbEntity
  8
0
100
AcDbLine
 10
2253.481164931717
 20
605.252154027724
 30
0.0
 11
2253.481164931717
 21
595.252154027724
 31
0.0
  0
LINE
  5
521
330
1F
100
AcDbEntity
  8
0
100
AcDbLine
 10
2256.481164931716
 20
605.252154027724
 30
0.0
 11
2256.481164931716
 21
595.252154027724
 31
0.0
  0
LINE
  5
522
330
1F
100
AcDbEntity
  8
0
100
AcDbLine
 10
1934.981164931716
 20
595.252154027724
 30
0.0
 11
1934.981164931716
 21
605.252154027724
 31
0.0
  0
LINE
  5
523
330
1F
100
AcDbEntity
  8
0
100
AcDbLine
 10
1934.981164931716
 20
605.252154027724
 30
0.0
 11
1937.981164931716
 21
605.252154027724
 31
0.0
  0
LINE
  5
524
330
1F
100
AcDbEntity
  8
0
100
AcDbLine
 10
1937.981164931716
 20
605.252154027724
 30
0.0
 11
1937.981164931716
 21
595.252154027724
 31
0.0
  0
LINE
  5
525
330
1F
100
AcDbEntity
  8
0
100
AcDbLine
 10
2354.981164931716
 20
595.252154027724
 30
0.0
 11
2354.981164931716
 21
605.252154027724
 31
0.0
  0
LINE
  5
526
330
1F
100
AcDbEntity
  8
0
100
AcDbLine
 10
2354.981164931716
 20
605.252154027724
 30
0.0
 11
2351.981164931716
 21
605.252154027724
 31
0.0
  0
LINE
  5
527
330
1F
100
AcDbEntity
  8
0
100
AcDbLine
 10
2351.981164931716
 20
605.252154027724
 30
0.0
 11
2351.981164931716
 21
595.252154027724
 31
0.0
  0
LINE
  5
528
330
1F
100
AcDbEntity
  8
0
100
AcDbLine
 10
2033.481164931717
 20
605.2521540277241
 30
0.0
 11
2036.481164931716
 21
605.2521540277241
 31
0.0
  0
LINE
  5
529
330
1F
100
AcDbEntity
  8
0
100
AcDbLine
 10
2143.481164931716
 20
605.2521540277241
 30
0.0
 11
2146.481164931716
 21
605.2521540277241
 31
0.0
  0
LINE
  5
52A
330
1F
100
AcDbEntity
  8
0
100
AcDbLine
 10
2253.481164931717
 20
605.252154027724
 30
0.0
 11
2256.481164931716
 21
605.252154027724
 31
0.0
  0
LINE
  5
52B
330
1F
100
AcDbEntity
  8
0
100
AcDbLine
 10
2369.95516441049
 20
813.2557779252984
 30
0.0
 11
2378.531598515117
 21
818.4060934507678
 31
0.0
  0
LINE
  5
52C
330
1F
100
AcDbEntity
  8
0
100
AcDbLine
 10
2368.410694919953
 20
815.8276671128028
 30
0.0
 11
2377.014995162599
 21
820.9947167962594
 31
0.0
  0
LINE
  5
52D
330
1F
100
AcDbEntity
  8
0
100
AcDbLine
 10
2368.410694919954
 20
815.827667112803
 30
0.0
 11
2369.955164410491
 21
813.2557779252985
 31
0.0
  0
LINE
  5
52E
330
1F
100
AcDbEntity
  8
0
100
AcDbLine
 10
2030.392617113332
 20
813.024306704672
 30
0.0
 11
2021.749571552592
 21
818.2146237053943
 31
0.0
  0
LINE
  5
52F
330
1F
100
AcDbEntity
  8
0
100
AcDbLine
 10
2031.937086603868
 20
815.5961958921764
 30
0.0
 11
2023.332786361223
 21
820.7632455756328
 31
0.0
  0
LINE
  5
530
330
1F
100
AcDbEntity
  8
0
100
AcDbLine
 10
2031.937086603868
 20
815.5961958921764
 30
0.0
 11
2030.392617113331
 21
813.0243067046722
 31
0.0
  0
LINE
  5
531
330
1F
100
AcDbEntity
  8
0
100
AcDbLine
 10
1975.416433700127
 20
723.0893489656619
 30
0.0
 11
1966.835550574037
 21
728.3332219871617
 31
0.0
  0
LINE
  5
532
330
1F
100
AcDbEntity
  8
0
100
AcDbLine
 10
1976.98078372849
 20
725.6491944666175
 30
0.0
 11
1968.399900602399
 21
730.8930674881176
 31
0.0
  0
LINE
  5
533
330
1F
100
AcDbEntity
  8
0
100
AcDbLine
 10
1976.980783728489
 20
725.6491944666176
 30
0.0
 11
1975.416433700127
 21
723.0893489656617
 31
0.0
  0
LINE
  5
534
330
1F
100
AcDbEntity
  8
0
100
AcDbLine
 10
2368.490038311403
 20
684.8810357364003
 30
0.0
 11
2377.1112931969
 21
679.7038044600764
 31
0.0
  0
LINE
  5
535
330
1F
100
AcDbEntity
  8
0
100
AcDbLine
 10
2370.03450780194
 20
687.4529249239047
 30
0.0
 11
2378.655762687436
 21
682.2756936475808
 31
0.0
  0
LINE
  5
536
330
1F
100
AcDbEntity
  8
0
100
AcDbLine
 10
2370.03450780194
 20
687.4529249239047
 30
0.0
 11
2368.490038311403
 21
684.8810357364003
 31
0.0
  0
ARC
  5
537
330
1F
100
AcDbEntity
  8
0
100
AcDbCircle
 10
2089.981164931716
 20
840.2521540277239
 30
0.0
 40
65.0
100
AcDbArc
 50
0.0
 51
186.918842720853
  0
ARC
  5
538
330
1F
100
AcDbEntity
  8
0
100
AcDbCircle
 10
2309.981164931716
 20
840.2521540277239
 30
0.0
 40
65.0
100
AcDbArc
 50
0.0
 51
180.0
  0
ARC
  5
539
330
1F
100
AcDbEntity
  8
0
100
AcDbCircle
 10
2199.981164931716
 20
840.2521540277239
 30
0.0
 40
45.0
100
AcDbArc
 50
180.0
 51
268.0897868282886
  0
ARC
  5
53A
330
1F
100
AcDbEntity
  8
0
100
AcDbCircle
 10
2199.981164931716
 20
840.2521540277239
 30
0.0
 40
45.0
100
AcDbArc
 50
271.9102131717114
 51
0.0
  0
LINE
  5
53B
330
1F
100
AcDbEntity
  8
0
100
AcDbLine
 10
2198.481164931716
 20
795.2771609760291
 30
0.0
 11
2198.481164931716
 21
785.2521540277239
 31
0.0
  0
LINE
  5
53C
330
1F
100
AcDbEntity
  8
0
100
AcDbLine
 10
2201.481164931716
 20
795.2771609760291
 30
0.0
 11
2201.481164931716
 21
785.2521540277239
 31
0.0
  0
LINE
  5
53D
330
1F
100
AcDbEntity
  8
0
100
AcDbLine
 10
2198.481164931716
 20
785.2521540277239
 30
0.0
 11
2201.481164931716
 21
785.2521540277239
 31
0.0
  0
CIRCLE
  5
53E
330
1F
100
AcDbEntity
  8
0
100
AcDbCircle
 10
985.7365947763828
 20
660.2521540277239
 30
0.0
 40
45.0
  0
CIRCLE
  5
53F
330
1F
100
AcDbEntity
  8
0
100
AcDbCircle
 10
1095.736594776383
 20
660.2521540277239
 30
0.0
 40
45.0
  0
CIRCLE
  5
540
330
1F
100
AcDbEntity
  8
0
100
AcDbCircle
 10
1205.736594776383
 20
660.2521540277239
 30
0.0
 40
45.0
  0
CIRCLE
  5
541
330
1F
100
AcDbEntity
  8
0
100
AcDbCircle
 10
1315.736594776383
 20
660.2521540277239
 30
0.0
 40
45.0
  0
LINE
  5
542
330
1F
100
AcDbEntity
  8
0
100
AcDbLine
 10
943.7365947763828
 20
595.252154027724
 30
0.0
 11
1039.236594776383
 21
595.252154027724
 31
0.0
  0
LINE
  5
543
330
1F
100
AcDbEntity
  8
0
100
AcDbLine
 10
1042.236594776383
 20
595.252154027724
 30
0.0
 11
1149.236594776382
 21
595.252154027724
 31
0.0
  0
LINE
  5
544
330
1F
100
AcDbEntity
  8
0
100
AcDbLine
 10
1152.236594776383
 20
595.252154027724
 30
0.0
 11
1259.236594776383
 21
595.252154027724
 31
0.0
  0
LINE
  5
545
330
1F
100
AcDbEntity
  8
0
100
AcDbLine
 10
1262.236594776383
 20
595.252154027724
 30
0.0
 11
1357.736594776383
 21
595.252154027724
 31
0.0
  0
ARC
  5
546
330
1F
100
AcDbEntity
  8
0
100
AcDbCircle
 10
1360.736594776383
 20
615.252154027724
 30
0.0
 40
20.0
100
AcDbArc
 50
270.0
 51
0.0
  0
ARC
  5
547
330
1F
100
AcDbEntity
  8
0
100
AcDbCircle
 10
940.7365947763828
 20
615.252154027724
 30
0.0
 40
20.0
100
AcDbArc
 50
179.9999999999999
 51
270.0
  0
CIRCLE
  5
548
330
1F
100
AcDbEntity
  8
0
100
AcDbCircle
 10
1040.736594776383
 20
750.2521540277239
 30
0.0
 40
45.0
  0
CIRCLE
  5
549
330
1F
100
AcDbEntity
  8
0
100
AcDbCircle
 10
1150.736594776383
 20
750.2521540277239
 30
0.0
 40
45.0
  0
CIRCLE
  5
54A
330
1F
100
AcDbEntity
  8
0
100
AcDbCircle
 10
1260.736594776383
 20
750.2521540277239
 30
0.0
 40
45.0
  0
CIRCLE
  5
54B
330
1F
100
AcDbEntity
  8
0
100
AcDbCircle
 10
1370.736594776383
 20
750.2521540277239
 30
0.0
 40
45.0
  0
LINE
  5
54C
330
1F
100
AcDbEntity
  8
0
100
AcDbLine
 10
920.7365947763829
 20
615.252154027724
 30
0.0
 11
920.7365947763829
 21
660.2521540277239
 31
0.0
  0
ARC
  5
54D
330
1F
100
AcDbEntity
  8
0
100
AcDbCircle
 10
985.7365947763828
 20
660.2521540277239
 30
0.0
 40
64.99999999999989
100
AcDbArc
 50
110.222026049471
 51
179.9999999999999
  0
ARC
  5
54E
330
1F
100
AcDbEntity
  8
0
100
AcDbCircle
 10
956.3555835494167
 20
740.0127719997587
 30
0.0
 40
20.0
100
AcDbArc
 50
290.222026049471
 51
324.2692120804926
  0
ARC
  5
54F
330
1F
100
AcDbEntity
  8
0
100
AcDbCircle
 10
956.3555835494167
 20
740.0127719997587
 30
0.0
 40
20.0
100
AcDbArc
 50
332.8716566898334
 51
6.918842720853043
  0
ARC
  5
550
330
1F
100
AcDbEntity
  8
0
100
AcDbCircle
 10
1040.736594776383
 20
750.2521540277239
 30
0.0
 40
65.0
100
AcDbArc
 50
110.222026049471
 51
186.9188427208531
  0
ARC
  5
551
330
1F
100
AcDbEntity
  8
0
100
AcDbCircle
 10
1011.355583549416
 20
830.0127719997588
 30
0.0
 40
20.0
100
AcDbArc
 50
290.222026049471
 51
323.8495616557622
  0
ARC
  5
552
330
1F
100
AcDbEntity
  8
0
100
AcDbCircle
 10
1011.355583549416
 20
830.0127719997588
 30
0.0
 40
20.0
100
AcDbArc
 50
332.4529842187137
 51
6.918842720853043
  0
ARC
  5
553
330
1F
100
AcDbEntity
  8
0
100
AcDbCircle
 10
1400.736594776383
 20
670.7222854247895
 30
0.0
 40
20.0
100
AcDbArc
 50
110.6673164935138
 51
144.7131419726624
  0
ARC
  5
554
330
1F
100
AcDbEntity
  8
0
100
AcDbCircle
 10
1400.736594776383
 20
670.7222854247895
 30
0.0
 40
20.0
100
AcDbArc
 50
153.315586582004
 51
180.0000000000007
  0
LINE
  5
555
330
1F
100
AcDbEntity
  8
0
100
AcDbLine
 10
1380.736594776383
 20
660.2521540277239
 30
0.0
 11
1380.736594776383
 21
615.252154027724
 31
0.0
  0
LINE
  5
556
330
1F
100
AcDbEntity
  8
0
100
AcDbLine
 10
1380.736594776383
 20
660.2521540277239
 30
0.0
 11
1380.736594776383
 21
670.7222854247893
 31
0.0
  0
CIRCLE
  5
557
330
1F
100
AcDbEntity
  8
0
100
AcDbCircle
 10
1095.736594776383
 20
840.2521540277239
 30
0.0
 40
45.0
  0
CIRCLE
  5
558
330
1F
100
AcDbEntity
  8
0
100
AcDbCircle
 10
1315.736594776383
 20
840.2521540277239
 30
0.0
 40
45.0
  0
ARC
  5
559
330
1F
100
AcDbEntity
  8
0
100
AcDbCircle
 10
1370.736594776383
 20
750.2521540277239
 30
0.0
 40
65.0
100
AcDbArc
 50
290.6673164935138
 51
69.33268350648614
  0
ARC
  5
55A
330
1F
100
AcDbEntity
  8
0
100
AcDbCircle
 10
1400.736594776383
 20
829.7820226306582
 30
0.0
 40
20.0
100
AcDbArc
 50
180.0
 51
206.0633912666081
  0
ARC
  5
55B
330
1F
100
AcDbEntity
  8
0
100
AcDbCircle
 10
1400.736594776383
 20
829.7820226306582
 30
0.0
 40
20.0
100
AcDbArc
 50
214.6663417532427
 51
249.3326835064861
  0
LINE
  5
55C
330
1F
100
AcDbEntity
  8
0
100
AcDbLine
 10
1380.736594776383
 20
840.2521540277239
 30
0.0
 11
1380.736594776383
 21
829.7820226306582
 31
0.0
  0
LINE
  5
55D
330
1F
100
AcDbEntity
  8
0
100
AcDbLine
 10
1039.236594776383
 20
605.2521540277241
 30
0.0
 11
1039.236594776383
 21
595.252154027724
 31
0.0
  0
LINE
  5
55E
330
1F
100
AcDbEntity
  8
0
100
AcDbLine
 10
1042.236594776383
 20
605.2521540277241
 30
0.0
 11
1042.236594776383
 21
595.252154027724
 31
0.0
  0
LINE
  5
55F
330
1F
100
AcDbEntity
  8
0
100
AcDbLine
 10
1149.236594776382
 20
605.2521540277241
 30
0.0
 11
1149.236594776382
 21
595.252154027724
 31
0.0
  0
LINE
  5
560
330
1F
100
AcDbEntity
  8
0
100
AcDbLine
 10
1152.236594776383
 20
605.2521540277241
 30
0.0
 11
1152.236594776382
 21
595.252154027724
 31
0.0
  0
LINE
  5
561
330
1F
100
AcDbEntity
  8
0
100
AcDbLine
 10
1259.236594776383
 20
605.252154027724
 30
0.0
 11
1259.236594776383
 21
595.252154027724
 31
0.0
  0
LINE
  5
562
330
1F
100
AcDbEntity
  8
0
100
AcDbLine
 10
1262.236594776383
 20
605.252154027724
 30
0.0
 11
1262.236594776383
 21
595.252154027724
 31
0.0
  0
LINE
  5
563
330
1F
100
AcDbEntity
  8
0
100
AcDbLine
 10
940.7365947763828
 20
595.252154027724
 30
0.0
 11
940.7365947763828
 21
605.252154027724
 31
0.0
  0
LINE
  5
564
330
1F
100
AcDbEntity
  8
0
100
AcDbLine
 10
940.7365947763828
 20
605.252154027724
 30
0.0
 11
943.7365947763828
 21
605.252154027724
 31
0.0
  0
LINE
  5
565
330
1F
100
AcDbEntity
  8
0
100
AcDbLine
 10
943.7365947763828
 20
605.252154027724
 30
0.0
 11
943.7365947763828
 21
595.252154027724
 31
0.0
  0
LINE
  5
566
330
1F
100
AcDbEntity
  8
0
100
AcDbLine
 10
1360.736594776383
 20
595.252154027724
 30
0.0
 11
1360.736594776383
 21
605.252154027724
 31
0.0
  0
LINE
  5
567
330
1F
100
AcDbEntity
  8
0
100
AcDbLine
 10
1360.736594776383
 20
605.252154027724
 30
0.0
 11
1357.736594776383
 21
605.252154027724
 31
0.0
  0
LINE
  5
568
330
1F
100
AcDbEntity
  8
0
100
AcDbLine
 10
1357.736594776383
 20
605.252154027724
 30
0.0
 11
1357.736594776383
 21
595.252154027724
 31
0.0
  0
LINE
  5
569
330
1F
100
AcDbEntity
  8
0
100
AcDbLine
 10
1039.236594776383
 20
605.2521540277241
 30
0.0
 11
1042.236594776383
 21
605.2521540277241
 31
0.0
  0
LINE
  5
56A
330
1F
100
AcDbEntity
  8
0
100
AcDbLine
 10
1149.236594776382
 20
605.2521540277241
 30
0.0
 11
1152.236594776382
 21
605.2521540277241
 31
0.0
  0
LINE
  5
56B
330
1F
100
AcDbEntity
  8
0
100
AcDbLine
 10
1259.236594776383
 20
605.252154027724
 30
0.0
 11
1262.236594776383
 21
605.252154027724
 31
0.0
  0
LINE
  5
56C
330
1F
100
AcDbEntity
  8
0
100
AcDbLine
 10
1375.710594255156
 20
813.2557779252984
 30
0.0
 11
1384.287028359783
 21
818.4060934507678
 31
0.0
  0
LINE
  5
56D
330
1F
100
AcDbEntity
  8
0
100
AcDbLine
 10
1374.16612476462
 20
815.8276671128028
 30
0.0
 11
1382.770425007265
 21
820.9947167962594
 31
0.0
  0
LINE
  5
56E
330
1F
100
AcDbEntity
  8
0
100
AcDbLine
 10
1374.16612476462
 20
815.827667112803
 30
0.0
 11
1375.710594255157
 21
813.2557779252985
 31
0.0
  0
LINE
  5
56F
330
1F
100
AcDbEntity
  8
0
100
AcDbLine
 10
1036.148046957999
 20
813.024306704672
 30
0.0
 11
1027.505001397258
 21
818.2146237053943
 31
0.0
  0
LINE
  5
570
330
1F
100
AcDbEntity
  8
0
100
AcDbLine
 10
1037.692516448534
 20
815.5961958921764
 30
0.0
 11
1029.088216205889
 21
820.7632455756328
 31
0.0
  0
LINE
  5
571
330
1F
100
AcDbEntity
  8
0
100
AcDbLine
 10
1037.692516448534
 20
815.5961958921764
 30
0.0
 11
1036.148046957998
 21
813.0243067046722
 31
0.0
  0
LINE
  5
572
330
1F
100
AcDbEntity
  8
0
100
AcDbLine
 10
981.1718635447942
 20
723.0893489656619
 30
0.0
 11
972.5909804187036
 21
728.3332219871617
 31
0.0
  0
LINE
  5
573
330
1F
100
AcDbEntity
  8
0
100
AcDbLine
 10
982.7362135731563
 20
725.6491944666175
 30
0.0
 11
974.1553304470654
 21
730.8930674881176
 31
0.0
  0
LINE
  5
574
330
1F
100
AcDbEntity
  8
0
100
AcDbLine
 10
982.736213573156
 20
725.6491944666176
 30
0.0
 11
981.1718635447936
 21
723.0893489656617
 31
0.0
  0
LINE
  5
575
330
1F
100
AcDbEntity
  8
0
100
AcDbLine
 10
1374.24546815607
 20
684.8810357364003
 30
0.0
 11
1382.866723041567
 21
679.7038044600764
 31
0.0
  0
LINE
  5
576
330
1F
100
AcDbEntity
  8
0
100
AcDbLine
 10
1375.789937646606
 20
687.4529249239047
 30
0.0
 11
1384.411192532103
 21
682.2756936475808
 31
0.0
  0
LINE
  5
577
330
1F
100
AcDbEntity
  8
0
100
AcDbLine
 10
1375.789937646606
 20
687.4529249239047
 30
0.0
 11
1374.24546815607
 21
684.8810357364003
 31
0.0
  0
ARC
  5
578
330
1F
100
AcDbEntity
  8
0
100
AcDbCircle
 10
1095.736594776383
 20
840.2521540277239
 30
0.0
 40
65.0
100
AcDbArc
 50
0.0
 51
186.918842720853
  0
ARC
  5
579
330
1F
100
AcDbEntity
  8
0
100
AcDbCircle
 10
1315.736594776383
 20
840.2521540277239
 30
0.0
 40
65.0
100
AcDbArc
 50
0.0
 51
180.0
  0
ARC
  5
57A
330
1F
100
AcDbEntity
  8
0
100
AcDbCircle
 10
1205.736594776383
 20
840.2521540277239
 30
0.0
 40
45.0
100
AcDbArc
 50
180.0
 51
268.0897868282886
  0
ARC
  5
57B
330
1F
100
AcDbEntity
  8
0
100
AcDbCircle
 10
1205.736594776383
 20
840.2521540277239
 30
0.0
 40
45.0
100
AcDbArc
 50
271.9102131717114
 51
0.0
  0
LINE
  5
57C
330
1F
100
AcDbEntity
  8
0
100
AcDbLine
 10
1204.236594776383
 20
795.2771609760291
 30
0.0
 11
1204.236594776383
 21
785.2521540277239
 31
0.0
  0
LINE
  5
57D
330
1F
100
AcDbEntity
  8
0
100
AcDbLine
 10
1207.236594776383
 20
795.2771609760291
 30
0.0
 11
1207.236594776383
 21
785.2521540277239
 31
0.0
  0
LINE
  5
57E
330
1F
100
AcDbEntity
  8
0
100
AcDbLine
 10
1204.236594776383
 20
785.2521540277239
 30
0.0
 11
1207.236594776383
 21
785.2521540277239
 31
0.0
  0
CIRCLE
  5
57F
330
1F
100
AcDbEntity
  8
0
100
AcDbCircle
 10
1480.79229866631
 20
328.6255816291268
 30
0.0
 40
45.0
  0
CIRCLE
  5
580
330
1F
100
AcDbEntity
  8
0
100
AcDbCircle
 10
1590.79229866631
 20
328.6255816291268
 30
0.0
 40
45.0
  0
CIRCLE
  5
581
330
1F
100
AcDbEntity
  8
0
100
AcDbCircle
 10
1700.792298666311
 20
328.6255816291268
 30
0.0
 40
45.0
  0
CIRCLE
  5
582
330
1F
100
AcDbEntity
  8
0
100
AcDbCircle
 10
1810.792298666311
 20
328.6255816291268
 30
0.0
 40
45.0
  0
LINE
  5
583
330
1F
100
AcDbEntity
  8
0
100
AcDbLine
 10
1438.79229866631
 20
263.6255816291269
 30
0.0
 11
1534.292298666311
 21
263.6255816291269
 31
0.0
  0
LINE
  5
584
330
1F
100
AcDbEntity
  8
0
100
AcDbLine
 10
1537.292298666311
 20
263.6255816291269
 30
0.0
 11
1644.29229866631
 21
263.6255816291269
 31
0.0
  0
LINE
  5
585
330
1F
100
AcDbEntity
  8
0
100
AcDbLine
 10
1647.29229866631
 20
263.6255816291269
 30
0.0
 11
1754.29229866631
 21
263.6255816291269
 31
0.0
  0
LINE
  5
586
330
1F
100
AcDbEntity
  8
0
100
AcDbLine
 10
1757.292298666311
 20
263.6255816291269
 30
0.0
 11
1852.792298666311
 21
263.6255816291269
 31
0.0
  0
ARC
  5
587
330
1F
100
AcDbEntity
  8
0
100
AcDbCircle
 10
1855.792298666311
 20
283.625581629127
 30
0.0
 40
20.0
100
AcDbArc
 50
270.0
 51
0.0
  0
ARC
  5
588
330
1F
100
AcDbEntity
  8
0
100
AcDbCircle
 10
1435.79229866631
 20
283.625581629127
 30
0.0
 40
20.0
100
AcDbArc
 50
180.0
 51
270.0
  0
CIRCLE
  5
589
330
1F
100
AcDbEntity
  8
0
100
AcDbCircle
 10
1535.792298666311
 20
418.6255816291268
 30
0.0
 40
45.0
  0
CIRCLE
  5
58A
330
1F
100
AcDbEntity
  8
0
100
AcDbCircle
 10
1645.79229866631
 20
418.6255816291268
 30
0.0
 40
45.0
  0
CIRCLE
  5
58B
330
1F
100
AcDbEntity
  8
0
100
AcDbCircle
 10
1755.79229866631
 20
418.6255816291268
 30
0.0
 40
45.0
  0
CIRCLE
  5
58C
330
1F
100
AcDbEntity
  8
0
100
AcDbCircle
 10
1865.79229866631
 20
418.6255816291268
 30
0.0
 40
45.0
  0
LINE
  5
58D
330
1F
100
AcDbEntity
  8
0
100
AcDbLine
 10
1415.792298666311
 20
283.625581629127
 30
0.0
 11
1415.792298666311
 21
328.6255816291268
 31
0.0
  0
ARC
  5
58E
330
1F
100
AcDbEntity
  8
0
100
AcDbCircle
 10
1480.79229866631
 20
328.6255816291268
 30
0.0
 40
64.99999999999989
100
AcDbArc
 50
110.2220260494714
 51
180.0
  0
ARC
  5
58F
330
1F
100
AcDbEntity
  8
0
100
AcDbCircle
 10
1451.411287439344
 20
408.3861996011616
 30
0.0
 40
20.0
100
AcDbArc
 50
290.2220260494715
 51
324.269212080493
  0
ARC
  5
590
330
1F
100
AcDbEntity
  8
0
100
AcDbCircle
 10
1451.411287439344
 20
408.3861996011616
 30
0.0
 40
20.0
100
AcDbArc
 50
332.8716566898338
 51
6.918842720854621
  0
ARC
  5
591
330
1F
100
AcDbEntity
  8
0
100
AcDbCircle
 10
1535.792298666311
 20
418.6255816291268
 30
0.0
 40
65.0
100
AcDbArc
 50
110.2220260494714
 51
186.9188427208546
  0
ARC
  5
592
330
1F
100
AcDbEntity
  8
0
100
AcDbCircle
 10
1506.411287439344
 20
498.3861996011617
 30
0.0
 40
20.0
100
AcDbArc
 50
290.2220260494715
 51
323.849561655761
  0
ARC
  5
593
330
1F
100
AcDbEntity
  8
0
100
AcDbCircle
 10
1506.411287439344
 20
498.3861996011617
 30
0.0
 40
20.0
100
AcDbArc
 50
332.4529842187135
 51
6.918842720854621
  0
ARC
  5
594
330
1F
100
AcDbEntity
  8
0
100
AcDbCircle
 10
1895.792298666311
 20
339.0957130261925
 30
0.0
 40
20.0
100
AcDbArc
 50
110.6673164935143
 51
144.7131419726616
  0
ARC
  5
595
330
1F
100
AcDbEntity
  8
0
100
AcDbCircle
 10
1895.792298666311
 20
339.0957130261925
 30
0.0
 40
20.0
100
AcDbArc
 50
153.3155865820026
 51
180.0
  0
LINE
  5
596
330
1F
100
AcDbEntity
  8
0
100
AcDbLine
 10
1875.792298666311
 20
328.6255816291268
 30
0.0
 11
1875.792298666311
 21
283.625581629127
 31
0.0
  0
LINE
  5
597
330
1F
100
AcDbEntity
  8
0
100
AcDbLine
 10
1875.792298666311
 20
328.6255816291268
 30
0.0
 11
1875.792298666311
 21
339.0957130261922
 31
0.0
  0
CIRCLE
  5
598
330
1F
100
AcDbEntity
  8
0
100
AcDbCircle
 10
1590.79229866631
 20
508.6255816291268
 30
0.0
 40
45.0
  0
CIRCLE
  5
599
330
1F
100
AcDbEntity
  8
0
100
AcDbCircle
 10
1810.792298666311
 20
508.6255816291268
 30
0.0
 40
45.0
  0
ARC
  5
59A
330
1F
100
AcDbEntity
  8
0
100
AcDbCircle
 10
1865.79229866631
 20
418.6255816291268
 30
0.0
 40
65.0
100
AcDbArc
 50
290.6673164935142
 51
69.33268350648571
  0
ARC
  5
59B
330
1F
100
AcDbEntity
  8
0
100
AcDbCircle
 10
1895.792298666311
 20
498.155450232061
 30
0.0
 40
20.0
100
AcDbArc
 50
180.0
 51
206.0633912666082
  0
ARC
  5
59C
330
1F
100
AcDbEntity
  8
0
100
AcDbCircle
 10
1895.792298666311
 20
498.155450232061
 30
0.0
 40
20.0
100
AcDbArc
 50
214.6663417532417
 51
249.3326835064857
  0
LINE
  5
59D
330
1F
100
AcDbEntity
  8
0
100
AcDbLine
 10
1875.792298666311
 20
508.6255816291268
 30
0.0
 11
1875.792298666311
 21
498.155450232061
 31
0.0
  0
LINE
  5
59E
330
1F
100
AcDbEntity
  8
0
100
AcDbLine
 10
1534.292298666311
 20
273.625581629127
 30
0.0
 11
1534.292298666311
 21
263.6255816291269
 31
0.0
  0
LINE
  5
59F
330
1F
100
AcDbEntity
  8
0
100
AcDbLine
 10
1537.292298666311
 20
273.625581629127
 30
0.0
 11
1537.292298666311
 21
263.6255816291269
 31
0.0
  0
LINE
  5
5A0
330
1F
100
AcDbEntity
  8
0
100
AcDbLine
 10
1644.29229866631
 20
273.625581629127
 30
0.0
 11
1644.29229866631
 21
263.6255816291269
 31
0.0
  0
LINE
  5
5A1
330
1F
100
AcDbEntity
  8
0
100
AcDbLine
 10
1647.29229866631
 20
273.625581629127
 30
0.0
 11
1647.29229866631
 21
263.6255816291269
 31
0.0
  0
LINE
  5
5A2
330
1F
100
AcDbEntity
  8
0
100
AcDbLine
 10
1754.29229866631
 20
273.625581629127
 30
0.0
 11
1754.29229866631
 21
263.6255816291269
 31
0.0
  0
LINE
  5
5A3
330
1F
100
AcDbEntity
  8
0
100
AcDbLine
 10
1757.292298666311
 20
273.625581629127
 30
0.0
 11
1757.292298666311
 21
263.6255816291269
 31
0.0
  0
LINE
  5
5A4
330
1F
100
AcDbEntity
  8
0
100
AcDbLine
 10
1435.79229866631
 20
263.6255816291269
 30
0.0
 11
1435.79229866631
 21
273.625581629127
 31
0.0
  0
LINE
  5
5A5
330
1F
100
AcDbEntity
  8
0
100
AcDbLine
 10
1435.79229866631
 20
273.625581629127
 30
0.0
 11
1438.79229866631
 21
273.625581629127
 31
0.0
  0
LINE
  5
5A6
330
1F
100
AcDbEntity
  8
0
100
AcDbLine
 10
1438.79229866631
 20
273.625581629127
 30
0.0
 11
1438.79229866631
 21
263.6255816291269
 31
0.0
  0
LINE
  5
5A7
330
1F
100
AcDbEntity
  8
0
100
AcDbLine
 10
1855.792298666311
 20
263.6255816291269
 30
0.0
 11
1855.792298666311
 21
273.625581629127
 31
0.0
  0
LINE
  5
5A8
330
1F
100
AcDbEntity
  8
0
100
AcDbLine
 10
1855.792298666311
 20
273.625581629127
 30
0.0
 11
1852.792298666311
 21
273.625581629127
 31
0.0
  0
LINE
  5
5A9
330
1F
100
AcDbEntity
  8
0
100
AcDbLine
 10
1852.792298666311
 20
273.625581629127
 30
0.0
 11
1852.792298666311
 21
263.6255816291269
 31
0.0
  0
LINE
  5
5AA
330
1F
100
AcDbEntity
  8
0
100
AcDbLine
 10
1534.292298666311
 20
273.625581629127
 30
0.0
 11
1537.292298666311
 21
273.625581629127
 31
0.0
  0
LINE
  5
5AB
330
1F
100
AcDbEntity
  8
0
100
AcDbLine
 10
1644.29229866631
 20
273.625581629127
 30
0.0
 11
1647.29229866631
 21
273.625581629127
 31
0.0
  0
LINE
  5
5AC
330
1F
100
AcDbEntity
  8
0
100
AcDbLine
 10
1754.29229866631
 20
273.625581629127
 30
0.0
 11
1757.292298666311
 21
273.625581629127
 31
0.0
  0
LINE
  5
5AD
330
1F
100
AcDbEntity
  8
0
100
AcDbLine
 10
1870.766298145084
 20
481.6292055267012
 30
0.0
 11
1879.342732249711
 21
486.7795210521706
 31
0.0
  0
LINE
  5
5AE
330
1F
100
AcDbEntity
  8
0
100
AcDbLine
 10
1869.221828654548
 20
484.2010947142057
 30
0.0
 11
1877.826128897194
 21
489.3681443976624
 31
0.0
  0
LINE
  5
5AF
330
1F
100
AcDbEntity
  8
0
100
AcDbLine
 10
1869.221828654549
 20
484.2010947142058
 30
0.0
 11
1870.766298145085
 21
481.6292055267015
 31
0.0
  0
LINE
  5
5B0
330
1F
100
AcDbEntity
  8
0
100
AcDbLine
 10
1531.203750847926
 20
481.3977343060749
 30
0.0
 11
1522.560705287186
 21
486.5880513067972
 31
0.0
  0
LINE
  5
5B1
330
1F
100
AcDbEntity
  8
0
100
AcDbLine
 10
1532.748220338462
 20
483.9696234935793
 30
0.0
 11
1524.143920095817
 21
489.1366731770357
 31
0.0
  0
LINE
  5
5B2
330
1F
100
AcDbEntity
  8
0
100
AcDbLine
 10
1532.748220338462
 20
483.9696234935794
 30
0.0
 11
1531.203750847925
 21
481.397734306075
 31
0.0
  0
LINE
  5
5B3
330
1F
100
AcDbEntity
  8
0
100
AcDbLine
 10
1476.227567434722
 20
391.4627765670648
 30
0.0
 11
1467.646684308631
 21
396.7066495885647
 31
0.0
  0
LINE
  5
5B4
330
1F
100
AcDbEntity
  8
0
100
AcDbLine
 10
1477.791917463084
 20
394.0226220680205
 30
0.0
 11
1469.211034336993
 21
399.2664950895206
 31
0.0
  0
LINE
  5
5B5
330
1F
100
AcDbEntity
  8
0
100
AcDbLine
 10
1477.791917463084
 20
394.0226220680206
 30
0.0
 11
1476.227567434721
 21
391.4627765670647
 31
0.0
  0
LINE
  5
5B6
330
1F
100
AcDbEntity
  8
0
100
AcDbLine
 10
1869.301172045998
 20
353.2544633378033
 30
0.0
 11
1877.922426931494
 21
348.0772320614793
 31
0.0
  0
LINE
  5
5B7
330
1F
100
AcDbEntity
  8
0
100
AcDbLine
 10
1870.845641536534
 20
355.8263525253076
 30
0.0
 11
1879.466896422031
 21
350.6491212489838
 31
0.0
  0
LINE
  5
5B8
330
1F
100
AcDbEntity
  8
0
100
AcDbLine
 10
1870.845641536534
 20
355.8263525253077
 30
0.0
 11
1869.301172045998
 21
353.2544633378033
 31
0.0
  0
ARC
  5
5B9
330
1F
100
AcDbEntity
  8
0
100
AcDbCircle
 10
1590.79229866631
 20
508.6255816291268
 30
0.0
 40
65.0
100
AcDbArc
 50
0.0
 51
186.9188427208514
  0
ARC
  5
5BA
330
1F
100
AcDbEntity
  8
0
100
AcDbCircle
 10
1810.792298666311
 20
508.6255816291268
 30
0.0
 40
65.0
100
AcDbArc
 50
0.0
 51
180.0
  0
ARC
  5
5BB
330
1F
100
AcDbEntity
  8
0
100
AcDbCircle
 10
1700.792298666311
 20
508.6255816291268
 30
0.0
 40
45.0
100
AcDbArc
 50
180.0
 51
268.0897868282901
  0
ARC
  5
5BC
330
1F
100
AcDbEntity
  8
0
100
AcDbCircle
 10
1700.792298666311
 20
508.6255816291268
 30
0.0
 40
45.0
100
AcDbArc
 50
271.9102131717099
 51
0.0
  0
LINE
  5
5BD
330
1F
100
AcDbEntity
  8
0
100
AcDbLine
 10
1699.292298666311
 20
463.650588577432
 30
0.0
 11
1699.292298666311
 21
453.6255816291268
 31
0.0
  0
LINE
  5
5BE
330
1F
100
AcDbEntity
  8
0
100
AcDbLine
 10
1702.292298666311
 20
463.650588577432
 30
0.0
 11
1702.292298666311
 21
453.6255816291268
 31
0.0
  0
LINE
  5
5BF
330
1F
100
AcDbEntity
  8
0
100
AcDbLine
 10
1699.292298666311
 20
453.6255816291268
 30
0.0
 11
1702.292298666311
 21
453.6255816291268
 31
0.0
  0
CIRCLE
  5
5C0
330
1F
100
AcDbEntity
  8
0
100
AcDbCircle
 10
971.5029563515763
 20
328.6255816291269
 30
0.0
 40
45.0
  0
CIRCLE
  5
5C1
330
1F
100
AcDbEntity
  8
0
100
AcDbCircle
 10
1081.502956351576
 20
328.6255816291269
 30
0.0
 40
45.0
  0
CIRCLE
  5
5C2
330
1F
100
AcDbEntity
  8
0
100
AcDbCircle
 10
1191.502956351576
 20
328.6255816291269
 30
0.0
 40
45.0
  0
CIRCLE
  5
5C3
330
1F
100
AcDbEntity
  8
0
100
AcDbCircle
 10
1301.502956351576
 20
328.6255816291269
 30
0.0
 40
45.0
  0
LINE
  5
5C4
330
1F
100
AcDbEntity
  8
0
100
AcDbLine
 10
929.5029563515763
 20
263.625581629127
 30
0.0
 11
1025.002956351576
 21
263.625581629127
 31
0.0
  0
LINE
  5
5C5
330
1F
100
AcDbEntity
  8
0
100
AcDbLine
 10
1028.002956351577
 20
263.625581629127
 30
0.0
 11
1135.002956351576
 21
263.625581629127
 31
0.0
  0
LINE
  5
5C6
330
1F
100
AcDbEntity
  8
0
100
AcDbLine
 10
1138.002956351576
 20
263.625581629127
 30
0.0
 11
1245.002956351576
 21
263.625581629127
 31
0.0
  0
LINE
  5
5C7
330
1F
100
AcDbEntity
  8
0
100
AcDbLine
 10
1248.002956351576
 20
263.625581629127
 30
0.0
 11
1343.502956351576
 21
263.625581629127
 31
0.0
  0
ARC
  5
5C8
330
1F
100
AcDbEntity
  8
0
100
AcDbCircle
 10
1346.502956351576
 20
283.625581629127
 30
0.0
 40
20.0
100
AcDbArc
 50
270.0
 51
0.0
  0
ARC
  5
5C9
330
1F
100
AcDbEntity
  8
0
100
AcDbCircle
 10
926.5029563515764
 20
283.625581629127
 30
0.0
 40
20.0
100
AcDbArc
 50
180.0
 51
270.0
  0
CIRCLE
  5
5CA
330
1F
100
AcDbEntity
  8
0
100
AcDbCircle
 10
1026.502956351576
 20
418.6255816291269
 30
0.0
 40
45.0
  0
CIRCLE
  5
5CB
330
1F
100
AcDbEntity
  8
0
100
AcDbCircle
 10
1136.502956351576
 20
418.6255816291269
 30
0.0
 40
45.0
  0
CIRCLE
  5
5CC
330
1F
100
AcDbEntity
  8
0
100
AcDbCircle
 10
1246.502956351576
 20
418.6255816291269
 30
0.0
 40
45.0
  0
CIRCLE
  5
5CD
330
1F
100
AcDbEntity
  8
0
100
AcDbCircle
 10
1356.502956351576
 20
418.6255816291269
 30
0.0
 40
45.0
  0
LINE
  5
5CE
330
1F
100
AcDbEntity
  8
0
100
AcDbLine
 10
906.5029563515762
 20
283.625581629127
 30
0.0
 11
906.5029563515762
 21
328.6255816291269
 31
0.0
  0
ARC
  5
5CF
330
1F
100
AcDbEntity
  8
0
100
AcDbCircle
 10
971.5029563515763
 20
328.6255816291269
 30
0.0
 40
64.99999999999989
100
AcDbArc
 50
110.2220260494714
 51
180.0
  0
ARC
  5
5D0
330
1F
100
AcDbEntity
  8
0
100
AcDbCircle
 10
942.1219451246102
 20
408.3861996011616
 30
0.0
 40
20.0
100
AcDbArc
 50
290.2220260494715
 51
324.2692120804922
  0
ARC
  5
5D1
330
1F
100
AcDbEntity
  8
0
100
AcDbCircle
 10
942.1219451246102
 20
408.3861996011616
 30
0.0
 40
20.0
100
AcDbArc
 50
332.8716566898342
 51
6.918842720854635
  0
ARC
  5
5D2
330
1F
100
AcDbEntity
  8
0
100
AcDbCircle
 10
1026.502956351576
 20
418.6255816291269
 30
0.0
 40
65.0
100
AcDbArc
 50
110.2220260494714
 51
186.9188427208546
  0
ARC
  5
5D3
330
1F
100
AcDbEntity
  8
0
100
AcDbCircle
 10
997.1219451246101
 20
498.3861996011618
 30
0.0
 40
20.0
100
AcDbArc
 50
290.2220260494715
 51
323.8495616557608
  0
ARC
  5
5D4
330
1F
100
AcDbEntity
  8
0
100
AcDbCircle
 10
997.1219451246101
 20
498.3861996011618
 30
0.0
 40
20.0
100
AcDbArc
 50
332.452984218714
 51
6.918842720854635
  0
ARC
  5
5D5
330
1F
100
AcDbEntity
  8
0
100
AcDbCircle
 10
1386.502956351576
 20
339.0957130261925
 30
0.0
 40
20.0
100
AcDbArc
 50
110.6673164935143
 51
144.7131419726624
  0
ARC
  5
5D6
330
1F
100
AcDbEntity
  8
0
100
AcDbCircle
 10
1386.502956351576
 20
339.0957130261925
 30
0.0
 40
20.0
100
AcDbArc
 50
153.3155865820029
 51
180.0
  0
LINE
  5
5D7
330
1F
100
AcDbEntity
  8
0
100
AcDbLine
 10
1366.502956351576
 20
328.6255816291269
 30
0.0
 11
1366.502956351576
 21
283.625581629127
 31
0.0
  0
LINE
  5
5D8
330
1F
100
AcDbEntity
  8
0
100
AcDbLine
 10
1366.502956351576
 20
328.6255816291269
 30
0.0
 11
1366.502956351576
 21
339.0957130261923
 31
0.0
  0
CIRCLE
  5
5D9
330
1F
100
AcDbEntity
  8
0
100
AcDbCircle
 10
1081.502956351576
 20
508.6255816291268
 30
0.0
 40
45.0
  0
CIRCLE
  5
5DA
330
1F
100
AcDbEntity
  8
0
100
AcDbCircle
 10
1301.502956351576
 20
508.6255816291268
 30
0.0
 40
45.0
  0
ARC
  5
5DB
330
1F
100
AcDbEntity
  8
0
100
AcDbCircle
 10
1356.502956351576
 20
418.6255816291269
 30
0.0
 40
65.0
100
AcDbArc
 50
290.6673164935143
 51
69.33268350648567
  0
ARC
  5
5DC
330
1F
100
AcDbEntity
  8
0
100
AcDbCircle
 10
1386.502956351576
 20
498.1554502320611
 30
0.0
 40
20.0
100
AcDbArc
 50
180.0
 51
206.0633912666078
  0
ARC
  5
5DD
330
1F
100
AcDbEntity
  8
0
100
AcDbCircle
 10
1386.502956351576
 20
498.1554502320611
 30
0.0
 40
20.0
100
AcDbArc
 50
214.6663417532415
 51
249.3326835064857
  0
LINE
  5
5DE
330
1F
100
AcDbEntity
  8
0
100
AcDbLine
 10
1366.502956351576
 20
508.6255816291268
 30
0.0
 11
1366.502956351576
 21
498.1554502320611
 31
0.0
  0
LINE
  5
5DF
330
1F
100
AcDbEntity
  8
0
100
AcDbLine
 10
1025.002956351577
 20
273.6255816291271
 30
0.0
 11
1025.002956351576
 21
263.625581629127
 31
0.0
  0
LINE
  5
5E0
330
1F
100
AcDbEntity
  8
0
100
AcDbLine
 10
1028.002956351576
 20
273.6255816291271
 30
0.0
 11
1028.002956351576
 21
263.625581629127
 31
0.0
  0
LINE
  5
5E1
330
1F
100
AcDbEntity
  8
0
100
AcDbLine
 10
1135.002956351576
 20
273.6255816291271
 30
0.0
 11
1135.002956351576
 21
263.625581629127
 31
0.0
  0
LINE
  5
5E2
330
1F
100
AcDbEntity
  8
0
100
AcDbLine
 10
1138.002956351576
 20
273.6255816291271
 30
0.0
 11
1138.002956351576
 21
263.625581629127
 31
0.0
  0
LINE
  5
5E3
330
1F
100
AcDbEntity
  8
0
100
AcDbLine
 10
1245.002956351576
 20
273.625581629127
 30
0.0
 11
1245.002956351576
 21
263.625581629127
 31
0.0
  0
LINE
  5
5E4
330
1F
100
AcDbEntity
  8
0
100
AcDbLine
 10
1248.002956351576
 20
273.625581629127
 30
0.0
 11
1248.002956351576
 21
263.625581629127
 31
0.0
  0
LINE
  5
5E5
330
1F
100
AcDbEntity
  8
0
100
AcDbLine
 10
926.5029563515764
 20
263.625581629127
 30
0.0
 11
926.5029563515764
 21
273.625581629127
 31
0.0
  0
LINE
  5
5E6
330
1F
100
AcDbEntity
  8
0
100
AcDbLine
 10
926.5029563515764
 20
273.625581629127
 30
0.0
 11
929.5029563515763
 21
273.625581629127
 31
0.0
  0
LINE
  5
5E7
330
1F
100
AcDbEntity
  8
0
100
AcDbLine
 10
929.5029563515763
 20
273.625581629127
 30
0.0
 11
929.5029563515763
 21
263.625581629127
 31
0.0
  0
LINE
  5
5E8
330
1F
100
AcDbEntity
  8
0
100
AcDbLine
 10
1346.502956351576
 20
263.625581629127
 30
0.0
 11
1346.502956351576
 21
273.625581629127
 31
0.0
  0
LINE
  5
5E9
330
1F
100
AcDbEntity
  8
0
100
AcDbLine
 10
1346.502956351576
 20
273.625581629127
 30
0.0
 11
1343.502956351576
 21
273.625581629127
 31
0.0
  0
LINE
  5
5EA
330
1F
100
AcDbEntity
  8
0
100
AcDbLine
 10
1343.502956351576
 20
273.625581629127
 30
0.0
 11
1343.502956351576
 21
263.625581629127
 31
0.0
  0
LINE
  5
5EB
330
1F
100
AcDbEntity
  8
0
100
AcDbLine
 10
1025.002956351577
 20
273.6255816291271
 30
0.0
 11
1028.002956351576
 21
273.6255816291271
 31
0.0
  0
LINE
  5
5EC
330
1F
100
AcDbEntity
  8
0
100
AcDbLine
 10
1135.002956351576
 20
273.6255816291271
 30
0.0
 11
1138.002956351576
 21
273.6255816291271
 31
0.0
  0
LINE
  5
5ED
330
1F
100
AcDbEntity
  8
0
100
AcDbLine
 10
1245.002956351576
 20
273.625581629127
 30
0.0
 11
1248.002956351576
 21
273.625581629127
 31
0.0
  0
LINE
  5
5EE
330
1F
100
AcDbEntity
  8
0
100
AcDbLine
 10
1361.476955830349
 20
481.6292055267013
 30
0.0
 11
1370.053389934976
 21
486.7795210521707
 31
0.0
  0
LINE
  5
5EF
330
1F
100
AcDbEntity
  8
0
100
AcDbLine
 10
1359.932486339814
 20
484.2010947142058
 30
0.0
 11
1368.536786582459
 21
489.3681443976624
 31
0.0
  0
LINE
  5
5F0
330
1F
100
AcDbEntity
  8
0
100
AcDbLine
 10
1359.932486339814
 20
484.2010947142059
 30
0.0
 11
1361.47695583035
 21
481.6292055267015
 31
0.0
  0
LINE
  5
5F1
330
1F
100
AcDbEntity
  8
0
100
AcDbLine
 10
1021.914408533192
 20
481.3977343060749
 30
0.0
 11
1013.271362972451
 21
486.5880513067973
 31
0.0
  0
LINE
  5
5F2
330
1F
100
AcDbEntity
  8
0
100
AcDbLine
 10
1023.458878023728
 20
483.9696234935793
 30
0.0
 11
1014.854577781083
 21
489.1366731770357
 31
0.0
  0
LINE
  5
5F3
330
1F
100
AcDbEntity
  8
0
100
AcDbLine
 10
1023.458878023728
 20
483.9696234935795
 30
0.0
 11
1021.914408533191
 21
481.3977343060751
 31
0.0
  0
LINE
  5
5F4
330
1F
100
AcDbEntity
  8
0
100
AcDbLine
 10
966.9382251199877
 20
391.4627765670648
 30
0.0
 11
958.357341993897
 21
396.7066495885648
 31
0.0
  0
LINE
  5
5F5
330
1F
100
AcDbEntity
  8
0
100
AcDbLine
 10
968.5025751483498
 20
394.0226220680206
 30
0.0
 11
959.9216920222588
 21
399.2664950895207
 31
0.0
  0
LINE
  5
5F6
330
1F
100
AcDbEntity
  8
0
100
AcDbLine
 10
968.5025751483495
 20
394.0226220680207
 30
0.0
 11
966.9382251199872
 21
391.4627765670648
 31
0.0
  0
LINE
  5
5F7
330
1F
100
AcDbEntity
  8
0
100
AcDbLine
 10
1360.011829731263
 20
353.2544633378033
 30
0.0
 11
1368.63308461676
 21
348.0772320614794
 31
0.0
  0
LINE
  5
5F8
330
1F
100
AcDbEntity
  8
0
100
AcDbLine
 10
1361.5562992218
 20
355.8263525253076
 30
0.0
 11
1370.177554107296
 21
350.6491212489838
 31
0.0
  0
LINE
  5
5F9
330
1F
100
AcDbEntity
  8
0
100
AcDbLine
 10
1361.556299221799
 20
355.8263525253078
 30
0.0
 11
1360.011829731263
 21
353.2544633378033
 31
0.0
  0
ARC
  5
5FA
330
1F
100
AcDbEntity
  8
0
100
AcDbCircle
 10
1081.502956351576
 20
508.6255816291268
 30
0.0
 40
65.0
100
AcDbArc
 50
0.0
 51
186.9188427208514
  0
ARC
  5
5FB
330
1F
100
AcDbEntity
  8
0
100
AcDbCircle
 10
1301.502956351576
 20
508.6255816291268
 30
0.0
 40
65.0
100
AcDbArc
 50
0.0
 51
180.0
  0
ARC
  5
5FC
330
1F
100
AcDbEntity
  8
0
100
AcDbCircle
 10
1191.502956351576
 20
508.6255816291268
 30
0.0
 40
45.0
100
AcDbArc
 50
180.0
 51
268.0897868282886
  0
ARC
  5
5FD
330
1F
100
AcDbEntity
  8
0
100
AcDbCircle
 10
1191.502956351576
 20
508.6255816291268
 30
0.0
 40
45.0
100
AcDbArc
 50
271.9102131717114
 51
0.0
  0
LINE
  5
5FE
330
1F
100
AcDbEntity
  8
0
100
AcDbLine
 10
1190.002956351576
 20
463.6505885774321
 30
0.0
 11
1190.002956351576
 21
453.6255816291268
 31
0.0
  0
LINE
  5
5FF
330
1F
100
AcDbEntity
  8
0
100
AcDbLine
 10
1193.002956351576
 20
463.6505885774321
 30
0.0
 11
1193.002956351576
 21
453.6255816291268
 31
0.0
  0
LINE
  5
600
330
1F
100
AcDbEntity
  8
0
100
AcDbLine
 10
1190.002956351576
 20
453.6255816291268
 30
0.0
 11
1193.002956351576
 21
453.6255816291268
 31
0.0
  0
CIRCLE
  5
601
330
1F
100
AcDbEntity
  8
0
100
AcDbCircle
 10
1988.139565819598
 20
330.9081587420519
 30
0.0
 40
45.0
  0
CIRCLE
  5
602
330
1F
100
AcDbEntity
  8
0
100
AcDbCircle
 10
2098.139565819598
 20
330.9081587420519
 30
0.0
 40
45.0
  0
CIRCLE
  5
603
330
1F
100
AcDbEntity
  8
0
100
AcDbCircle
 10
2208.139565819598
 20
330.9081587420519
 30
0.0
 40
45.0
  0
CIRCLE
  5
604
330
1F
100
AcDbEntity
  8
0
100
AcDbCircle
 10
2318.139565819598
 20
330.9081587420519
 30
0.0
 40
45.0
  0
LINE
  5
605
330
1F
100
AcDbEntity
  8
0
100
AcDbLine
 10
1946.139565819598
 20
265.908158742052
 30
0.0
 11
2041.639565819598
 21
265.908158742052
 31
0.0
  0
LINE
  5
606
330
1F
100
AcDbEntity
  8
0
100
AcDbLine
 10
2044.639565819599
 20
265.908158742052
 30
0.0
 11
2151.639565819598
 21
265.908158742052
 31
0.0
  0
LINE
  5
607
330
1F
100
AcDbEntity
  8
0
100
AcDbLine
 10
2154.639565819598
 20
265.908158742052
 30
0.0
 11
2261.639565819598
 21
265.908158742052
 31
0.0
  0
LINE
  5
608
330
1F
100
AcDbEntity
  8
0
100
AcDbLine
 10
2264.639565819598
 20
265.908158742052
 30
0.0
 11
2360.139565819598
 21
265.908158742052
 31
0.0
  0
ARC
  5
609
330
1F
100
AcDbEntity
  8
0
100
AcDbCircle
 10
2363.139565819598
 20
285.908158742052
 30
0.0
 40
20.0
100
AcDbArc
 50
270.0
 51
0.0
  0
ARC
  5
60A
330
1F
100
AcDbEntity
  8
0
100
AcDbCircle
 10
1943.139565819597
 20
285.908158742052
 30
0.0
 40
20.0
100
AcDbArc
 50
180.0
 51
270.0
  0
CIRCLE
  5
60B
330
1F
100
AcDbEntity
  8
0
100
AcDbCircle
 10
2043.139565819598
 20
420.9081587420518
 30
0.0
 40
45.0
  0
CIRCLE
  5
60C
330
1F
100
AcDbEntity
  8
0
100
AcDbCircle
 10
2153.139565819598
 20
420.9081587420518
 30
0.0
 40
45.0
  0
CIRCLE
  5
60D
330
1F
100
AcDbEntity
  8
0
100
AcDbCircle
 10
2263.139565819598
 20
420.9081587420518
 30
0.0
 40
45.0
  0
CIRCLE
  5
60E
330
1F
100
AcDbEntity
  8
0
100
AcDbCircle
 10
2373.139565819598
 20
420.9081587420518
 30
0.0
 40
45.0
  0
LINE
  5
60F
330
1F
100
AcDbEntity
  8
0
100
AcDbLine
 10
1923.139565819598
 20
285.908158742052
 30
0.0
 11
1923.139565819598
 21
330.9081587420519
 31
0.0
  0
ARC
  5
610
330
1F
100
AcDbEntity
  8
0
100
AcDbCircle
 10
1988.139565819598
 20
330.9081587420519
 30
0.0
 40
64.99999999999989
100
AcDbArc
 50
110.2220260494711
 51
180.0
  0
ARC
  5
611
330
1F
100
AcDbEntity
  8
0
100
AcDbCircle
 10
1958.758554592631
 20
410.6687767140867
 30
0.0
 40
20.0
100
AcDbArc
 50
290.2220260494711
 51
324.2692120804923
  0
ARC
  5
612
330
1F
100
AcDbEntity
  8
0
100
AcDbCircle
 10
1958.758554592631
 20
410.6687767140867
 30
0.0
 40
20.0
100
AcDbArc
 50
332.871656689834
 51
6.918842720854612
  0
ARC
  5
613
330
1F
100
AcDbEntity
  8
0
100
AcDbCircle
 10
2043.139565819598
 20
420.9081587420518
 30
0.0
 40
65.0
100
AcDbArc
 50
110.2220260494711
 51
186.9188427208546
  0
ARC
  5
614
330
1F
100
AcDbEntity
  8
0
100
AcDbCircle
 10
2013.758554592632
 20
500.6687767140867
 30
0.0
 40
20.0
100
AcDbArc
 50
290.2220260494711
 51
323.8495616557613
  0
ARC
  5
615
330
1F
100
AcDbEntity
  8
0
100
AcDbCircle
 10
2013.758554592632
 20
500.6687767140867
 30
0.0
 40
20.0
100
AcDbArc
 50
332.452984218714
 51
6.918842720854612
  0
ARC
  5
616
330
1F
100
AcDbEntity
  8
0
100
AcDbCircle
 10
2403.139565819598
 20
341.3782901391176
 30
0.0
 40
20.0
100
AcDbArc
 50
110.6673164935139
 51
144.7131419726624
  0
ARC
  5
617
330
1F
100
AcDbEntity
  8
0
100
AcDbCircle
 10
2403.139565819598
 20
341.3782901391176
 30
0.0
 40
20.0
100
AcDbArc
 50
153.3155865820031
 51
180.0
  0
LINE
  5
618
330
1F
100
AcDbEntity
  8
0
100
AcDbLine
 10
2383.139565819598
 20
330.9081587420519
 30
0.0
 11
2383.139565819598
 21
285.908158742052
 31
0.0
  0
LINE
  5
619
330
1F
100
AcDbEntity
  8
0
100
AcDbLine
 10
2383.139565819598
 20
330.9081587420519
 30
0.0
 11
2383.139565819598
 21
341.3782901391173
 31
0.0
  0
CIRCLE
  5
61A
330
1F
100
AcDbEntity
  8
0
100
AcDbCircle
 10
2098.139565819598
 20
510.9081587420519
 30
0.0
 40
45.0
  0
CIRCLE
  5
61B
330
1F
100
AcDbEntity
  8
0
100
AcDbCircle
 10
2318.139565819598
 20
510.9081587420519
 30
0.0
 40
45.0
  0
ARC
  5
61C
330
1F
100
AcDbEntity
  8
0
100
AcDbCircle
 10
2373.139565819598
 20
420.9081587420518
 30
0.0
 40
65.0
100
AcDbArc
 50
290.6673164935139
 51
69.33268350648607
  0
ARC
  5
61D
330
1F
100
AcDbEntity
  8
0
100
AcDbCircle
 10
2403.139565819598
 20
500.4380273449861
 30
0.0
 40
20.0
100
AcDbArc
 50
180.0
 51
206.0633912666078
  0
ARC
  5
61E
330
1F
100
AcDbEntity
  8
0
100
AcDbCircle
 10
2403.139565819598
 20
500.4380273449861
 30
0.0
 40
20.0
100
AcDbArc
 50
214.6663417532419
 51
249.3326835064861
  0
LINE
  5
61F
330
1F
100
AcDbEntity
  8
0
100
AcDbLine
 10
2383.139565819598
 20
510.9081587420519
 30
0.0
 11
2383.139565819598
 21
500.4380273449861
 31
0.0
  0
LINE
  5
620
330
1F
100
AcDbEntity
  8
0
100
AcDbLine
 10
2041.639565819599
 20
275.9081587420521
 30
0.0
 11
2041.639565819598
 21
265.908158742052
 31
0.0
  0
LINE
  5
621
330
1F
100
AcDbEntity
  8
0
100
AcDbLine
 10
2044.639565819598
 20
275.9081587420521
 30
0.0
 11
2044.639565819598
 21
265.908158742052
 31
0.0
  0
LINE
  5
622
330
1F
100
AcDbEntity
  8
0
100
AcDbLine
 10
2151.639565819598
 20
275.9081587420521
 30
0.0
 11
2151.639565819598
 21
265.908158742052
 31
0.0
  0
LINE
  5
623
330
1F
100
AcDbEntity
  8
0
100
AcDbLine
 10
2154.639565819598
 20
275.9081587420521
 30
0.0
 11
2154.639565819598
 21
265.908158742052
 31
0.0
  0
LINE
  5
624
330
1F
100
AcDbEntity
  8
0
100
AcDbLine
 10
2261.639565819598
 20
275.908158742052
 30
0.0
 11
2261.639565819598
 21
265.908158742052
 31
0.0
  0
LINE
  5
625
330
1F
100
AcDbEntity
  8
0
100
AcDbLine
 10
2264.639565819598
 20
275.908158742052
 30
0.0
 11
2264.639565819598
 21
265.908158742052
 31
0.0
  0
LINE
  5
626
330
1F
100
AcDbEntity
  8
0
100
AcDbLine
 10
1943.139565819597
 20
265.908158742052
 30
0.0
 11
1943.139565819597
 21
275.908158742052
 31
0.0
  0
LINE
  5
627
330
1F
100
AcDbEntity
  8
0
100
AcDbLine
 10
1943.139565819597
 20
275.908158742052
 30
0.0
 11
1946.139565819598
 21
275.908158742052
 31
0.0
  0
LINE
  5
628
330
1F
100
AcDbEntity
  8
0
100
AcDbLine
 10
1946.139565819598
 20
275.908158742052
 30
0.0
 11
1946.139565819598
 21
265.908158742052
 31
0.0
  0
LINE
  5
629
330
1F
100
AcDbEntity
  8
0
100
AcDbLine
 10
2363.139565819598
 20
265.908158742052
 30
0.0
 11
2363.139565819598
 21
275.908158742052
 31
0.0
  0
LINE
  5
62A
330
1F
100
AcDbEntity
  8
0
100
AcDbLine
 10
2363.139565819598
 20
275.908158742052
 30
0.0
 11
2360.139565819598
 21
275.908158742052
 31
0.0
  0
LINE
  5
62B
330
1F
100
AcDbEntity
  8
0
100
AcDbLine
 10
2360.139565819598
 20
275.908158742052
 30
0.0
 11
2360.139565819598
 21
265.908158742052
 31
0.0
  0
LINE
  5
62C
330
1F
100
AcDbEntity
  8
0
100
AcDbLine
 10
2041.639565819599
 20
275.9081587420521
 30
0.0
 11
2044.639565819598
 21
275.9081587420521
 31
0.0
  0
LINE
  5
62D
330
1F
100
AcDbEntity
  8
0
100
AcDbLine
 10
2151.639565819598
 20
275.9081587420521
 30
0.0
 11
2154.639565819598
 21
275.9081587420521
 31
0.0
  0
LINE
  5
62E
330
1F
100
AcDbEntity
  8
0
100
AcDbLine
 10
2261.639565819598
 20
275.908158742052
 30
0.0
 11
2264.639565819598
 21
275.908158742052
 31
0.0
  0
LINE
  5
62F
330
1F
100
AcDbEntity
  8
0
100
AcDbLine
 10
2378.113565298372
 20
483.9117826396264
 30
0.0
 11
2386.689999402998
 21
489.0620981650958
 31
0.0
  0
LINE
  5
630
330
1F
100
AcDbEntity
  8
0
100
AcDbLine
 10
2376.569095807835
 20
486.4836718271308
 30
0.0
 11
2385.173396050481
 21
491.6507215105874
 31
0.0
  0
LINE
  5
631
330
1F
100
AcDbEntity
  8
0
100
AcDbLine
 10
2376.569095807836
 20
486.4836718271309
 30
0.0
 11
2378.113565298372
 21
483.9117826396265
 31
0.0
  0
LINE
  5
632
330
1F
100
AcDbEntity
  8
0
100
AcDbLine
 10
2038.551018001214
 20
483.6803114189999
 30
0.0
 11
2029.907972440474
 21
488.8706284197223
 31
0.0
  0
LINE
  5
633
330
1F
100
AcDbEntity
  8
0
100
AcDbLine
 10
2040.09548749175
 20
486.2522006065043
 30
0.0
 11
2031.491187249105
 21
491.4192502899608
 31
0.0
  0
LINE
  5
634
330
1F
100
AcDbEntity
  8
0
100
AcDbLine
 10
2040.095487491749
 20
486.2522006065045
 30
0.0
 11
2038.551018001213
 21
483.6803114190002
 31
0.0
  0
LINE
  5
635
330
1F
100
AcDbEntity
  8
0
100
AcDbLine
 10
1983.574834588009
 20
393.7453536799899
 30
0.0
 11
1974.993951461918
 21
398.9892267014898
 31
0.0
  0
LINE
  5
636
330
1F
100
AcDbEntity
  8
0
100
AcDbLine
 10
1985.139184616371
 20
396.3051991809456
 30
0.0
 11
1976.55830149028
 21
401.5490722024456
 31
0.0
  0
LINE
  5
637
330
1F
100
AcDbEntity
  8
0
100
AcDbLine
 10
1985.139184616371
 20
396.3051991809457
 30
0.0
 11
1983.574834588009
 21
393.7453536799898
 31
0.0
  0
LINE
  5
638
330
1F
100
AcDbEntity
  8
0
100
AcDbLine
 10
2376.648439199285
 20
355.5370404507284
 30
0.0
 11
2385.269694084782
 21
350.3598091744044
 31
0.0
  0
LINE
  5
639
330
1F
100
AcDbEntity
  8
0
100
AcDbLine
 10
2378.192908689822
 20
358.1089296382327
 30
0.0
 11
2386.814163575318
 21
352.9316983619088
 31
0.0
  0
LINE
  5
63A
330
1F
100
AcDbEntity
  8
0
100
AcDbLine
 10
2378.192908689821
 20
358.1089296382328
 30
0.0
 11
2376.648439199285
 21
355.5370404507284
 31
0.0
  0
ARC
  5
63B
330
1F
100
AcDbEntity
  8
0
100
AcDbCircle
 10
2098.139565819598
 20
510.9081587420519
 30
0.0
 40
65.0
100
AcDbArc
 50
0.0
 51
186.9188427208514
  0
ARC
  5
63C
330
1F
100
AcDbEntity
  8
0
100
AcDbCircle
 10
2318.139565819598
 20
510.9081587420519
 30
0.0
 40
65.0
100
AcDbArc
 50
0.0
 51
180.0
  0
ARC
  5
63D
330
1F
100
AcDbEntity
  8
0
100
AcDbCircle
 10
2208.139565819598
 20
510.9081587420519
 30
0.0
 40
45.0
100
AcDbArc
 50
180.0
 51
268.0897868282886
  0
ARC
  5
63E
330
1F
100
AcDbEntity
  8
0
100
AcDbCircle
 10
2208.139565819598
 20
510.9081587420519
 30
0.0
 40
45.0
100
AcDbArc
 50
271.9102131717114
 51
0.0
  0
LINE
  5
63F
330
1F
100
AcDbEntity
  8
0
100
AcDbLine
 10
2206.639565819598
 20
465.9331656903571
 30
0.0
 11
2206.639565819598
 21
455.9081587420519
 31
0.0
  0
LINE
  5
640
330
1F
100
AcDbEntity
  8
0
100
AcDbLine
 10
2209.639565819598
 20
465.9331656903571
 30
0.0
 11
2209.639565819598
 21
455.9081587420519
 31
0.0
  0
LINE
  5
641
330
1F
100
AcDbEntity
  8
0
100
AcDbLine
 10
2206.639565819598
 20
455.9081587420519
 30
0.0
 11
2209.639565819598
 21
455.9081587420519
 31
0.0
  0
ENDSEC
  0
SECTION
  2
OBJECTS
  0
DICTIONARY
  5
C
330
0
100
AcDbDictionary
281
     1
  3
ACAD_COLOR
350
6B
  3
ACAD_GROUP
350
D
  3
ACAD_LAYOUT
350
1A
  3
ACAD_MATERIAL
350
6A
  3
ACAD_MLINESTYLE
350
17
  3
ACAD_PLOTSETTINGS
350
19
  3
ACAD_PLOTSTYLENAME
350
E
  3
ACAD_TABLESTYLE
350
7E
  3
ACAD_VISUALSTYLE
350
EF
  3
AcDbVariableDictionary
350
5E
  0
DICTIONARY
  5
13C
330
1F
100
AcDbDictionary
280
     1
281
     1
  3
ACAD_SORTENTS
360
13D
  0
DICTIONARY
  5
6B
102
{ACAD_REACTORS
330
C
102
}
330
C
100
AcDbDictionary
281
     1
  0
DICTIONARY
  5
D
102
{ACAD_REACTORS
330
C
102
}
330
C
100
AcDbDictionary
281
     1
  0
DICTIONARY
  5
1A
102
{ACAD_REACTORS
330
C
102
}
330
C
100
AcDbDictionary
281
     1
  3
Layout1
350
D3
  3
Layout2
350
D7
  3
Model
350
22
  0
DICTIONARY
  5
6A
102
{ACAD_REACTORS
330
C
102
}
330
C
100
AcDbDictionary
281
     1
  3
ByBlock
350
ED
  3
ByLayer
350
EC
  3
Global
350
EE
  0
DICTIONARY
  5
17
102
{ACAD_REACTORS
330
C
102
}
330
C
100
AcDbDictionary
281
     1
  3
Standard
350
18
  0
DICTIONARY
  5
19
102
{ACAD_REACTORS
330
C
102
}
330
C
100
AcDbDictionary
281
     1
  0
ACDBDICTIONARYWDFLT
  5
E
102
{ACAD_REACTORS
330
C
102
}
330
C
100
AcDbDictionary
281
     1
  3
Normal
350
F
100
AcDbDictionaryWithDefault
340
F
  0
DICTIONARY
  5
7E
102
{ACAD_REACTORS
330
C
102
}
330
C
100
AcDbDictionary
281
     1
  3
Standard
350
7F
  0
DICTIONARY
  5
EF
102
{ACAD_REACTORS
330
C
102
}
330
C
100
AcDbDictionary
281
     1
  3
2dWireframe
350
F5
  3
3D Hidden
350
F7
  3
3dWireframe
350
F6
  3
Basic
350
F4
  3
Brighten
350
FB
  3
ColorChange
350
FF
  3
Conceptual
350
F8
  3
Dim
350
FA
  3
Facepattern
350
FE
  3
Flat
350
F0
  3
FlatWithEdges
350
F1
  3
Gouraud
350
F2
  3
GouraudWithEdges
350
F3
  3
Linepattern
350
FD
  3
Realistic
350
F9
  3
Thicken
350
FC
  0
DICTIONARY
  5
5E
102
{ACAD_REACTORS
330
C
102
}
330
C
100
AcDbDictionary
281
     1
  3
CTABLESTYLE
350
84
  3
DIMASSOC
350
5F
  3
HIDETEXT
350
63
  0
SORTENTSTABLE
  5
13D
102
{ACAD_REACTORS
330
13C
102
}
330
13C
100
AcDbSortentsTable
330
1F
331
26F
  5
26F
331
2EB
  5
2E6
331
291
  5
291
331
2FC
  5
2EC
331
280
  5
280
331
266
  5
266
331
26D
  5
26D
331
2E9
  5
2EE
331
28F
  5
28F
331
27E
  5
27E
331
264
  5
264
331
2FA
  5
2FE
331
2E7
  5
2F1
331
2AF
  5
2AC
331
28D
  5
28D
331
26B
  5
26B
331
262
  5
262
331
2F8
  5
2FC
331
29E
  5
29E
331
28B
  5
28B
331
269
  5
269
331
2E5
  5
2E7
331
2AD
  5
2AD
331
260
  5
260
331
2F6
  5
2FA
331
29C
  5
29C
331
289
  5
289
331
2E3
  5
2E3
331
278
  5
278
331
25E
  5
25E
331
2F4
  5
2F8
331
29A
  5
29A
331
276
  5
276
331
2F2
  5
2F5
331
298
  5
298
331
287
  5
287
331
274
  5
274
331
2F0
  5
2F3
331
296
  5
296
331
285
  5
285
331
2A7
  5
2A7
331
272
  5
272
331
2EE
  5
2ED
331
294
  5
294
331
2FF
  5
2E9
331
270
  5
270
331
2EC
  5
2EF
331
292
  5
292
331
267
  5
267
331
2FD
  5
2EB
331
26E
  5
26E
331
2EA
  5
2F2
331
290
  5
290
331
27F
  5
27F
331
265
  5
265
331
2FB
  5
2FF
331
26C
  5
26C
331
2E8
  5
2E5
331
28E
  5
28E
331
27D
  5
27D
331
263
  5
263
331
2F9
  5
2FD
331
29F
  5
29F
331
2E6
  5
2F0
331
2AE
  5
2AF
331
28C
  5
28C
331
26A
  5
26A
331
261
  5
261
331
2F7
  5
2FB
331
29D
  5
29D
331
28A
  5
28A
331
268
  5
268
331
2E4
  5
2E4
331
2AC
  5
2AE
331
25F
  5
25F
331
2F5
  5
2F9
331
29B
  5
29B
331
288
  5
288
331
2AA
  5
2AA
331
277
  5
277
331
2F3
  5
2F6
331
299
  5
299
331
275
  5
275
331
2F1
  5
2F4
331
297
  5
297
331
286
  5
286
331
273
  5
273
331
295
  5
295
331
2A6
  5
2A6
331
271
  5
271
331
2ED
  5
2E8
331
293
  5
293
331
2FE
  5
2EA
  0
LAYOUT
  5
D3
102
{ACAD_REACTORS
330
1A
102
}
330
1A
100
AcDbPlotSettings
  1

  2
C:\Documents and Settings\basas\Application Data\Autodesk\AutoCAD 2005\R16.1\enu\plotters\Default Windows System Printer.pc3
  4

  6

 40
0.0
 41
0.0
 42
0.0
 43
0.0
 44
0.0
 45
0.0
 46
0.0
 47
0.0
 48
0.0
 49
0.0
140
0.0
141
0.0
142
1.0
143
1.0
 70
   688
 72
     0
 73
     0
 74
     5
  7

 75
    16
147
1.0
 76
     0
 77
     2
 78
   300
148
0.0
149
0.0
100
AcDbLayout
  1
Layout1
 70
     1
 71
     1
 10
0.0
 20
0.0
 11
12.0
 21
9.0
 12
0.0
 22
0.0
 32
0.0
 14
0.0
 24
0.0
 34
0.0
 15
0.0
 25
0.0
 35
0.0
146
0.0
 13
0.0
 23
0.0
 33
0.0
 16
1.0
 26
0.0
 36
0.0
 17
0.0
 27
1.0
 37
0.0
 76
     0
330
D2
  0
LAYOUT
  5
D7
102
{ACAD_REACTORS
330
1A
102
}
330
1A
100
AcDbPlotSettings
  1

  2
C:\Documents and Settings\basas\Application Data\Autodesk\AutoCAD 2005\R16.1\enu\plotters\Default Windows System Printer.pc3
  4

  6

 40
0.0
 41
0.0
 42
0.0
 43
0.0
 44
0.0
 45
0.0
 46
0.0
 47
0.0
 48
0.0
 49
0.0
140
0.0
141
0.0
142
1.0
143
1.0
 70
   688
 72
     0
 73
     0
 74
     5
  7

 75
    16
147
1.0
 76
     0
 77
     2
 78
   300
148
0.0
149
0.0
100
AcDbLayout
  1
Layout2
 70
     1
 71
     2
 10
0.0
 20
0.0
 11
12.0
 21
9.0
 12
0.0
 22
0.0
 32
0.0
 14
0.0
 24
0.0
 34
0.0
 15
0.0
 25
0.0
 35
0.0
146
0.0
 13
0.0
 23
0.0
 33
0.0
 16
1.0
 26
0.0
 36
0.0
 17
0.0
 27
1.0
 37
0.0
 76
     0
330
D6
  0
LAYOUT
  5
22
102
{ACAD_REACTORS
330
1A
102
}
330
1A
100
AcDbPlotSettings
  1

  2
none_device
  4
ISO_A4_(210.00_x_297.00_MM)
  6

 40
7.5
 41
20.0
 42
7.5
 43
20.0
 44
210.0
 45
297.0
 46
11.54999923706054
 47
-13.65000009536743
 48
0.0
 49
0.0
140
0.0
141
0.0
142
1.0
143
8.704084754739808
 70
 11952
 72
     1
 73
     0
 74
     0
  7

 75
     0
147
0.1148885871608098
 76
     0
 77
     2
 78
   300
148
0.0
149
0.0
100
AcDbLayout
  1
Model
 70
     1
 71
     0
 10
0.0
 20
0.0
 11
12.0
 21
9.0
 12
0.0
 22
0.0
 32
0.0
 14
0.0
 24
0.0
 34
0.0
 15
0.0
 25
0.0
 35
0.0
146
0.0
 13
0.0
 23
0.0
 33
0.0
 16
1.0
 26
0.0
 36
0.0
 17
0.0
 27
1.0
 37
0.0
 76
     0
330
1F
331
EA
1001
ACAD_PSEXT
1000
None
1000
None
1000
Not applicable
1000
The layout will not be plotted unless a new plotter configuration name is selected.
1070
     0
  0
MATERIAL
  5
ED
102
{ACAD_REACTORS
330
6A
102
}
330
6A
100
AcDbMaterial
  1
ByBlock
  0
MATERIAL
  5
EC
102
{ACAD_REACTORS
330
6A
102
}
330
6A
100
AcDbMaterial
  1
ByLayer
  0
MATERIAL
  5
EE
102
{ACAD_REACTORS
330
6A
102
}
330
6A
100
AcDbMaterial
  1
Global
  0
MLINESTYLE
  5
18
102
{ACAD_REACTORS
330
17
102
}
330
17
100
AcDbMlineStyle
  2
STANDARD
 70
     0
  3

 62
   256
 51
90.0
 52
90.0
 71
     2
 49
0.5
 62
   256
  6
BYLAYER
 49
-0.5
 62
   256
  6
BYLAYER
  0
ACDBPLACEHOLDER
  5
F
102
{ACAD_REACTORS
330
E
102
}
330
E
  0
TABLESTYLE
  5
7F
102
{ACAD_REACTORS
330
7E
102
}
330
7E
100
AcDbTableStyle
  3
Standard
 70
     0
 71
     0
 40
1.5
 41
1.5
280
     0
281
     0
  7
Standard
140
4.5
170
     2
 62
     0
 63
     7
283
     0
 90
      512
 91
        0
  1

274
    -2
284
     1
 64
     0
275
    -2
285
     1
 65
     0
276
    -2
286
     1
 66
     0
277
    -2
287
     1
 67
     0
278
    -2
288
     1
 68
     0
279
    -2
289
     1
 69
     0
  7
Standard
140
6.0
170
     5
 62
     0
 63
     7
283
     0
 90
      512
 91
        0
  1

274
    -2
284
     1
 64
     0
275
    -2
285
     1
 65
     0
276
    -2
286
     1
 66
     0
277
    -2
287
     1
 67
     0
278
    -2
288
     1
 68
     0
279
    -2
289
     1
 69
     0
  7
Standard
140
4.5
170
     5
 62
     0
 63
     7
283
     0
 90
      512
 91
        0
  1

274
    -2
284
     1
 64
     0
275
    -2
285
     1
 65
     0
276
    -2
286
     1
 66
     0
277
    -2
287
     1
 67
     0
278
    -2
288
     1
 68
     0
279
    -2
289
     1
 69
     0
  0
VISUALSTYLE
  5
F5
102
{ACAD_REACTORS
330
EF
102
}
330
EF
100
AcDbVisualStyle
  2
2dWireframe
 70
     4
 71
     0
 72
     2
 73
     1
 90
        0
 40
-0.6
 41
-30.0
 62
     5
 63
     7
421
 16777215
 74
     1
 91
        4
 64
     7
 65
   257
 75
     1
175
     1
 42
1.0
 92
        0
 66
   257
 43
1.0
 76
     1
 77
     6
 78
     2
 67
     7
 79
     5
170
     0
171
     0
290
     0
174
     0
 93
        1
 44
0.0
173
     0
291
     0
 45
0.0
  0
VISUALSTYLE
  5
F7
102
{ACAD_REACTORS
330
EF
102
}
330
EF
100
AcDbVisualStyle
  2
3D Hidden
 70
     6
 71
     1
 72
     2
 73
     2
 90
        0
 40
-0.6
 41
-30.0
 62
     5
 63
     7
421
 16777215
 74
     2
 91
        2
 64
     7
 65
   257
 75
     2
175
     1
 42
40.0
 92
        0
 66
   257
 43
1.0
 76
     1
 77
     6
 78
     2
 67
     7
 79
     3
170
     0
171
     0
290
     0
174
     0
 93
        1
 44
0.0
173
     0
291
     0
 45
0.0
  0
VISUALSTYLE
  5
F6
102
{ACAD_REACTORS
330
EF
102
}
330
EF
100
AcDbVisualStyle
  2
3dWireframe
 70
     5
 71
     0
 72
     2
 73
     1
 90
        0
 40
-0.6
 41
-30.0
 62
     5
 63
     7
421
 16777215
 74
     1
 91
        4
 64
     7
 65
   257
 75
     1
175
     1
 42
1.0
 92
        0
 66
   257
 43
1.0
 76
     1
 77
     6
 78
     2
 67
     7
 79
     5
170
     0
171
     0
290
     0
174
     0
 93
        1
 44
0.0
173
     0
291
     0
 45
0.0
  0
VISUALSTYLE
  5
F4
102
{ACAD_REACTORS
330
EF
102
}
330
EF
100
AcDbVisualStyle
  2
Basic
 70
     7
 71
     1
 72
     0
 73
     1
 90
        0
 40
-0.6
 41
-30.0
 62
     5
 63
     7
421
 16777215
 74
     0
 91
        4
 64
     7
 65
   257
 75
     1
175
     1
 42
1.0
 92
        8
 66
     7
 43
1.0
 76
     1
 77
     6
 78
     2
 67
     7
 79
     5
170
     0
171
     0
290
     0
174
     0
 93
        1
 44
0.0
173
     0
291
     1
 45
0.0
  0
VISUALSTYLE
  5
FB
102
{ACAD_REACTORS
330
EF
102
}
330
EF
100
AcDbVisualStyle
  2
Brighten
 70
    12
 71
     2
 72
     2
 73
     1
 90
        0
 40
-0.6
 41
-30.0
 62
     5
 63
     7
421
 16777215
 74
     1
 91
        4
 64
     7
 65
   257
 75
     1
175
     1
 42
1.0
 92
        8
 66
     7
 43
1.0
 76
     1
 77
     6
 78
     2
 67
     7
 79
     5
170
     0
171
     0
290
     0
174
     0
 93
        1
 44
50.0
173
     0
291
     1
 45
0.0
  0
VISUALSTYLE
  5
FF
102
{ACAD_REACTORS
330
EF
102
}
330
EF
100
AcDbVisualStyle
  2
ColorChange
 70
    16
 71
     2
 72
     2
 73
     3
 90
        0
 40
-0.6
 41
-30.0
 62
     5
 63
     8
421
  8421504
 74
     1
 91
        4
 64
     7
 65
   257
 75
     1
175
     1
 42
1.0
 92
        8
 66
     8
424
  8421504
 43
1.0
 76
     1
 77
     6
 78
     2
 67
     7
 79
     5
170
     0
171
     0
290
     0
174
     0
 93
        1
 44
0.0
173
     0
291
     1
 45
0.0
  0
VISUALSTYLE
  5
F8
102
{ACAD_REACTORS
330
EF
102
}
330
EF
100
AcDbVisualStyle
  2
Conceptual
 70
     9
 71
     3
 72
     2
 73
     1
 90
        0
 40
-0.6
 41
-30.0
 62
     5
 63
     7
421
 16777215
 74
     2
 91
        2
 64
     7
 65
   257
 75
     1
175
     1
 42
40.0
 92
        8
 66
     7
 43
1.0
 76
     1
 77
     6
 78
     2
 67
     7
 79
     3
170
     0
171
     0
290
     0
174
     0
 93
        1
 44
0.0
173
     0
291
     0
 45
0.0
  0
VISUALSTYLE
  5
FA
102
{ACAD_REACTORS
330
EF
102
}
330
EF
100
AcDbVisualStyle
  2
Dim
 70
    11
 71
     2
 72
     2
 73
     1
 90
        0
 40
-0.6
 41
-30.0
 62
     5
 63
     7
421
 16777215
 74
     1
 91
        4
 64
     7
 65
   257
 75
     1
175
     1
 42
1.0
 92
        8
 66
     7
 43
1.0
 76
     1
 77
     6
 78
     2
 67
     7
 79
     5
170
     0
171
     0
290
     0
174
     0
 93
        1
 44
-50.0
173
     0
291
     1
 45
0.0
  0
VISUALSTYLE
  5
FE
102
{ACAD_REACTORS
330
EF
102
}
330
EF
100
AcDbVisualStyle
  2
Facepattern
 70
    15
 71
     2
 72
     2
 73
     1
 90
        0
 40
-0.6
 41
-30.0
 62
     5
 63
     7
421
 16777215
 74
     1
 91
        4
 64
     7
 65
   257
 75
     1
175
     1
 42
1.0
 92
        8
 66
     7
 43
1.0
 76
     1
 77
     6
 78
     2
 67
     7
 79
     5
170
     0
171
     0
290
     0
174
     0
 93
        1
 44
0.0
173
     0
291
     1
 45
0.0
  0
VISUALSTYLE
  5
F0
102
{ACAD_REACTORS
330
EF
102
}
330
EF
100
AcDbVisualStyle
  2
Flat
 70
     0
 71
     2
 72
     1
 73
     1
 90
        2
 40
-0.6
 41
30.0
 62
     5
 63
     7
421
 16777215
 74
     0
 91
        4
 64
     7
 65
   257
 75
     1
175
     1
 42
1.0
 92
        8
 66
     7
 43
1.0
 76
     1
 77
     6
 78
     2
 67
     7
 79
     5
170
     0
171
     0
290
     0
174
     0
 93
        1
 44
0.0
173
     0
291
     1
 45
0.0
  0
VISUALSTYLE
  5
F1
102
{ACAD_REACTORS
330
EF
102
}
330
EF
100
AcDbVisualStyle
  2
FlatWithEdges
 70
     1
 71
     2
 72
     1
 73
     1
 90
        2
 40
-0.6
 41
30.0
 62
     5
 63
     7
421
 16777215
 74
     1
 91
        4
 64
     7
 65
   257
 75
     1
175
     1
 42
1.0
 92
        0
 66
   257
 43
1.0
 76
     1
 77
     6
 78
     2
 67
     7
 79
     5
170
     0
171
     0
290
     0
174
     0
 93
        1
 44
0.0
173
     0
291
     1
 45
0.0
  0
VISUALSTYLE
  5
F2
102
{ACAD_REACTORS
330
EF
102
}
330
EF
100
AcDbVisualStyle
  2
Gouraud
 70
     2
 71
     2
 72
     2
 73
     1
 90
        2
 40
-0.6
 41
30.0
 62
     5
 63
     7
421
 16777215
 74
     0
 91
        4
 64
     7
 65
   257
 75
     1
175
     1
 42
1.0
 92
        0
 66
     7
 43
1.0
 76
     1
 77
     6
 78
     2
 67
     7
 79
     5
170
     0
171
     0
290
     0
174
     0
 93
        1
 44
0.0
173
     0
291
     1
 45
0.0
  0
VISUALSTYLE
  5
F3
102
{ACAD_REACTORS
330
EF
102
}
330
EF
100
AcDbVisualStyle
  2
GouraudWithEdges
 70
     3
 71
     2
 72
     2
 73
     1
 90
        2
 40
-0.6
 41
30.0
 62
     5
 63
     7
421
 16777215
 74
     1
 91
        4
 64
     7
 65
   257
 75
     1
175
     1
 42
1.0
 92
        0
 66
   257
 43
1.0
 76
     1
 77
     6
 78
     2
 67
     7
 79
     5
170
     0
171
     0
290
     0
174
     0
 93
        1
 44
0.0
173
     0
291
     1
 45
0.0
  0
VISUALSTYLE
  5
FD
102
{ACAD_REACTORS
330
EF
102
}
330
EF
100
AcDbVisualStyle
  2
Linepattern
 70
    14
 71
     2
 72
     2
 73
     1
 90
        0
 40
-0.6
 41
-30.0
 62
     5
 63
     7
421
 16777215
 74
     1
 91
        4
 64
     7
 65
   257
 75
     7
175
     7
 42
1.0
 92
        8
 66
     7
 43
1.0
 76
     1
 77
     6
 78
     2
 67
     7
 79
     5
170
     0
171
     0
290
     0
174
     0
 93
        1
 44
0.0
173
     0
291
     1
 45
0.0
  0
VISUALSTYLE
  5
F9
102
{ACAD_REACTORS
330
EF
102
}
330
EF
100
AcDbVisualStyle
  2
Realistic
 70
     8
 71
     2
 72
     2
 73
     1
 90
        0
 40
-0.6
 41
-30.0
 62
     5
 63
     7
421
 16777215
 74
     1
 91
        0
 64
     7
 65
   257
 75
     1
175
     1
 42
1.0
 92
        8
 66
     8
424
  7895160
 43
1.0
 76
     1
 77
     6
 78
     2
 67
     7
 79
     5
170
     0
171
     0
290
     0
174
     0
 93
       13
 44
0.0
173
     0
291
     0
 45
0.0
  0
VISUALSTYLE
  5
FC
102
{ACAD_REACTORS
330
EF
102
}
330
EF
100
AcDbVisualStyle
  2
Thicken
 70
    13
 71
     2
 72
     2
 73
     1
 90
        0
 40
-0.6
 41
-30.0
 62
     5
 63
     7
421
 16777215
 74
     1
 91
        4
 64
     7
 65
   257
 75
     1
175
     1
 42
1.0
 92
       12
 66
     7
 43
1.0
 76
     1
 77
     6
 78
     2
 67
     7
 79
     5
170
     0
171
     0
290
     0
174
     0
 93
        1
 44
0.0
173
     0
291
     1
 45
0.0
  0
DICTIONARYVAR
  5
84
102
{ACAD_REACTORS
330
5E
102
}
330
5E
100
DictionaryVariables
280
     0
  1
STANDARD
  0
DICTIONARYVAR
  5
5F
102
{ACAD_REACTORS
330
5E
102
}
330
5E
100
DictionaryVariables
280
     0
  1
2
  0
DICTIONARYVAR
  5
63
102
{ACAD_REACTORS
330
5E
102
}
330
5E
100
DictionaryVariables
280
     0
  1
1
  0
ENDSEC
  0
EOF
