999
dxflib 2.2.0.0
  0
SECTION
  2
HEADER
  9
$ACADVER
  1
AC1015
  9
$HANDSEED
  5
FFFF
  9
$DIMASZ
 40
2.5
  9
$PLIMMIN
 10
0.0
 20
0.0
  9
$DIMEXE
 40
1.25
  9
$DIMGAP
 40
0.625
  9
$PLIMMAX
 10
210.0
 20
297.0
  9
$INSUNITS
 70
4
  9
$DIMSTYLE
  2
Standard
  9
$DIMEXO
 40
0.625
  9
$DIMTXT
 40
2.5
  9
$CLAYER
  8
0
  0
ENDSEC
  0
SECTION
  2
TABLES
  0
TABLE
  2
VPORT
  5
8
100
AcDbSymbolTable
 70
1
  0
VPORT
  5
30
100
AcDbSymbolTableRecord
100
AcDbViewportTableRecord
  2
*Active
 70
0
 10
0.0
 20
0.0
 11
1.0
 21
1.0
 12
286.3055555555554861
 22
148.5
 13
0.0
 23
0.0
 14
10.0
 24
10.0
 15
10.0
 25
10.0
 16
0.0
 26
0.0
 36
1.0
 17
0.0
 27
0.0
 37
0.0
 40
297.0
 41
1.92798353909465
 42
50.0
 43
0.0
 44
0.0
 50
0.0
 51
0.0
 71
0
 72
100
 73
1
 74
3
 75
1
 76
1
 77
0
 78
0
281
0
 65
1
110
0.0
120
0.0
130
0.0
111
1.0
121
0.0
131
0.0
112
0.0
122
1.0
132
0.0
 79
0
146
0.0
  0
ENDTAB
  0
TABLE
  2
LTYPE
  5
5
100
AcDbSymbolTable
 70
21
  0
LTYPE
  5
14
100
AcDbSymbolTableRecord
100
AcDbLinetypeTableRecord
  2
ByBlock
 70
0
  3

 72
65
 73
0
 40
0.0
  0
LTYPE
  5
15
100
AcDbSymbolTableRecord
100
AcDbLinetypeTableRecord
  2
ByLayer
 70
0
  3

 72
65
 73
0
 40
0.0
  0
LTYPE
  5
16
100
AcDbSymbolTableRecord
100
AcDbLinetypeTableRecord
  2
CONTINUOUS
 70
0
  3
Solid line
 72
65
 73
0
 40
0.0
  0
LTYPE
  5
31
100
AcDbSymbolTableRecord
100
AcDbLinetypeTableRecord
  2
DOT
 70
0
  3
Dot . . . . . . . . . . . . . . . . . . . . . .
 72
65
 73
2
 40
6.3499999999999996
 49
0.0
 74
0
 49
-6.3499999999999996
 74
0
  0
LTYPE
  5
32
100
AcDbSymbolTableRecord
100
AcDbLinetypeTableRecord
  2
DOT2
 70
0
  3
Dot (.5x) .....................................
 72
65
 73
2
 40
3.1749999999999998
 49
0.0
 74
0
 49
-3.1749999999999998
 74
0
  0
LTYPE
  5
33
100
AcDbSymbolTableRecord
100
AcDbLinetypeTableRecord
  2
DOTX2
 70
0
  3
Dot (2x) .  .  .  .  .  .  .  .  .  .  .  .  .
 72
65
 73
2
 40
12.6999999999999993
 49
0.0
 74
0
 49
-12.6999999999999993
 74
0
  0
LTYPE
  5
34
100
AcDbSymbolTableRecord
100
AcDbLinetypeTableRecord
  2
DASHED
 70
0
  3
Dashed __ __ __ __ __ __ __ __ __ __ __ __ __ _
 72
65
 73
2
 40
19.0500000000000007
 49
12.6999999999999993
 74
0
 49
-6.3499999999999996
 74
0
  0
LTYPE
  5
35
100
AcDbSymbolTableRecord
100
AcDbLinetypeTableRecord
  2
DASHED2
 70
0
  3
Dashed (.5x) _ _ _ _ _ _ _ _ _ _ _ _ _ _ _ _ _
 72
65
 73
2
 40
9.5250000000000004
 49
6.3499999999999996
 74
0
 49
-3.1749999999999998
 74
0
  0
LTYPE
  5
36
100
AcDbSymbolTableRecord
100
AcDbLinetypeTableRecord
  2
DASHEDX2
 70
0
  3
Dashed (2x) ____  ____  ____  ____  ____  ___
 72
65
 73
2
 40
38.1000000000000014
 49
25.3999999999999986
 74
0
 49
-12.6999999999999993
 74
0
  0
LTYPE
  5
37
100
AcDbSymbolTableRecord
100
AcDbLinetypeTableRecord
  2
DASHDOT
 70
0
  3
Dash dot __ . __ . __ . __ . __ . __ . __ . __
 72
65
 73
4
 40
25.3999999999999986
 49
12.6999999999999993
 74
0
 49
-6.3499999999999996
 74
0
 49
0.0
 74
0
 49
-6.3499999999999996
 74
0
  0
LTYPE
  5
38
100
AcDbSymbolTableRecord
100
AcDbLinetypeTableRecord
  2
DASHDOT2
 70
0
  3
Dash dot (.5x) _._._._._._._._._._._._._._._.
 72
65
 73
4
 40
12.6999999999999993
 49
6.3499999999999996
 74
0
 49
-3.1749999999999998
 74
0
 49
0.0
 74
0
 49
-3.1749999999999998
 74
0
  0
LTYPE
  5
39
100
AcDbSymbolTableRecord
100
AcDbLinetypeTableRecord
  2
DASHDOTX2
 70
0
  3
Dash dot (2x) ____  .  ____  .  ____  .  ___
 72
65
 73
4
 40
50.7999999999999972
 49
25.3999999999999986
 74
0
 49
-12.6999999999999993
 74
0
 49
0.0
 74
0
 49
-12.6999999999999993
 74
0
  0
LTYPE
  5
3A
100
AcDbSymbolTableRecord
100
AcDbLinetypeTableRecord
  2
DIVIDE
 70
0
  3
Divide ____ . . ____ . . ____ . . ____ . . ____
 72
65
 73
6
 40
31.75
 49
12.6999999999999993
 74
0
 49
-6.3499999999999996
 74
0
 49
0.0
 74
0
 49
-6.3499999999999996
 74
0
 49
0.0
 74
0
 49
-6.3499999999999996
 74
0
  0
LTYPE
  5
3B
100
AcDbSymbolTableRecord
100
AcDbLinetypeTableRecord
  2
DIVIDE2
 70
0
  3
Divide (.5x) __..__..__..__..__..__..__..__.._
 72
65
 73
6
 40
15.875
 49
6.3499999999999996
 74
0
 49
-3.1749999999999998
 74
0
 49
0.0
 74
0
 49
-3.1749999999999998
 74
0
 49
0.0
 74
0
 49
-3.1749999999999998
 74
0
  0
LTYPE
  5
3C
100
AcDbSymbolTableRecord
100
AcDbLinetypeTableRecord
  2
DIVIDEX2
 70
0
  3
Divide (2x) ________  .  .  ________  .  .  _
 72
65
 73
6
 40
63.5
 49
25.3999999999999986
 74
0
 49
-12.6999999999999993
 74
0
 49
0.0
 74
0
 49
-12.6999999999999993
 74
0
 49
0.0
 74
0
 49
-12.6999999999999993
 74
0
  0
LTYPE
  5
3D
100
AcDbSymbolTableRecord
100
AcDbLinetypeTableRecord
  2
CENTER
 70
0
  3
Center ____ _ ____ _ ____ _ ____ _ ____ _ ____
 72
65
 73
4
 40
50.7999999999999972
 49
31.75
 74
0
 49
-6.3499999999999996
 74
0
 49
6.3499999999999996
 74
0
 49
-6.3499999999999996
 74
0
  0
LTYPE
  5
3E
100
AcDbSymbolTableRecord
100
AcDbLinetypeTableRecord
  2
CENTER2
 70
0
  3
Center (.5x) ___ _ ___ _ ___ _ ___ _ ___ _ ___
 72
65
 73
4
 40
28.5749999999999993
 49
19.0500000000000007
 74
0
 49
-3.1749999999999998
 74
0
 49
3.1749999999999998
 74
0
 49
-3.1749999999999998
 74
0
  0
LTYPE
  5
3F
100
AcDbSymbolTableRecord
100
AcDbLinetypeTableRecord
  2
CENTERX2
 70
0
  3
Center (2x) ________  __  ________  __  _____
 72
65
 73
4
 40
101.5999999999999943
 49
63.5
 74
0
 49
-12.6999999999999993
 74
0
 49
12.6999999999999993
 74
0
 49
-12.6999999999999993
 74
0
  0
LTYPE
  5
40
100
AcDbSymbolTableRecord
100
AcDbLinetypeTableRecord
  2
BORDER
 70
0
  3
Border __ __ . __ __ . __ __ . __ __ . __ __ .
 72
65
 73
6
 40
44.4500000000000028
 49
12.6999999999999993
 74
0
 49
-6.3499999999999996
 74
0
 49
12.6999999999999993
 74
0
 49
-6.3499999999999996
 74
0
 49
0.0
 74
0
 49
-6.3499999999999996
 74
0
  0
LTYPE
  5
41
100
AcDbSymbolTableRecord
100
AcDbLinetypeTableRecord
  2
BORDER2
 70
0
  3
Border (.5x) __.__.__.__.__.__.__.__.__.__.__.
 72
65
 73
6
 40
22.2250000000000014
 49
6.3499999999999996
 74
0
 49
-3.1749999999999998
 74
0
 49
6.3499999999999996
 74
0
 49
-3.1749999999999998
 74
0
 49
0.0
 74
0
 49
-3.1749999999999998
 74
0
  0
LTYPE
  5
42
100
AcDbSymbolTableRecord
100
AcDbLinetypeTableRecord
  2
BORDERX2
 70
0
  3
Border (2x) ____  ____  .  ____  ____  .  ___
 72
65
 73
6
 40
88.9000000000000057
 49
25.3999999999999986
 74
0
 49
-12.6999999999999993
 74
0
 49
25.3999999999999986
 74
0
 49
-12.6999999999999993
 74
0
 49
0.0
 74
0
 49
-12.6999999999999993
 74
0
  0
ENDTAB
  0
TABLE
  2
LAYER
  5
2
100
AcDbSymbolTable
 70
2
  0
LAYER
  5
10
100
AcDbSymbolTableRecord
100
AcDbLayerTableRecord
  2
0
 70
0
 62
7
420
0
  6
CONTINUOUS
370
25
390
F
  0
LAYER
  5
43
100
AcDbSymbolTableRecord
100
AcDbLayerTableRecord
  2
Layer0
 70
0
 62
7
  6
ByLayer
390
F
  0
ENDTAB
  0
TABLE
  2
STYLE
  5
3
100
AcDbSymbolTable
 70
1
  0
STYLE
  5
11
100
AcDbSymbolTableRecord
100
AcDbTextStyleTableRecord
  2
Standard
 70
0
 40
0.0
 41
0.75
 50
0.0
 71
0
 42
2.5
  3
txt
  4

  0
ENDTAB
  0
TABLE
  2
VIEW
  5
6
100
AcDbSymbolTable
 70
0
  0
ENDTAB
  0
TABLE
  2
UCS
  5
7
100
AcDbSymbolTable
 70
0
  0
ENDTAB
  0
TABLE
  2
APPID
  5
9
100
AcDbSymbolTable
 70
1
  0
APPID
  5
12
100
AcDbSymbolTableRecord
100
AcDbRegAppTableRecord
  2
ACAD
 70
0
  0
ENDTAB
  0
TABLE
  2
DIMSTYLE
  5
A
100
AcDbSymbolTable
 70
1
100
AcDbDimStyleTable
 71
0
  0
DIMSTYLE
105
27
100
AcDbSymbolTableRecord
100
AcDbDimStyleTableRecord
  2
Standard
 41
2.5
 42
0.625
 43
3.75
 44
1.25
 70
0
 73
0
 74
0
 77
1
 78
8
140
2.5
141
2.5
143
0.03937007874016
147
0.625
171
3
172
1
271
2
272
2
274
3
278
44
283
0
284
8
340
11
  0
ENDTAB
  0
TABLE
  2
BLOCK_RECORD
  5
1
100
AcDbSymbolTable
 70
1
  0
BLOCK_RECORD
  5
1F
100
AcDbSymbolTableRecord
100
AcDbBlockTableRecord
  2
*Model_Space
340
22
  0
BLOCK_RECORD
  5
1B
100
AcDbSymbolTableRecord
100
AcDbBlockTableRecord
  2
*Paper_Space
340
1E
  0
BLOCK_RECORD
  5
23
100
AcDbSymbolTableRecord
100
AcDbBlockTableRecord
  2
*Paper_Space0
340
26
  0
ENDTAB
  0
ENDSEC
  0
SECTION
  2
BLOCKS
  0
BLOCK
  5
20
100
AcDbEntity
  8
0
100
AcDbBlockBegin
  2
*Model_Space
 70
0
 10
0.0
 20
0.0
 30
0.0
  3
*Model_Space
  1

  0
ENDBLK
  5
21
100
AcDbEntity
  8
0
100
AcDbBlockEnd
  0
BLOCK
  5
1C
100
AcDbEntity
 67
1
  8
0
100
AcDbBlockBegin
  2
*Paper_Space
 70
0
 10
0.0
 20
0.0
 30
0.0
  3
*Paper_Space
  1

  0
ENDBLK
  5
1D
100
AcDbEntity
 67
1
  8
0
100
AcDbBlockEnd
  0
BLOCK
  5
24
100
AcDbEntity
  8
0
100
AcDbBlockBegin
  2
*Paper_Space0
 70
0
 10
0.0
 20
0.0
 30
0.0
  3
*Paper_Space0
  1

  0
ENDBLK
  5
25
100
AcDbEntity
  8
0
100
AcDbBlockEnd
  0
ENDSEC
  0
SECTION
  2
ENTITIES
  0
LINE
  5
44
100
AcDbEntity
100
AcDbLine
  8
Layer0
 62
256
370
-1
  6
ByLayer
 10
-129.3380500817569896
 20
98.4999999999999432
 30
0.0
 11
-197.4019237886460019
 21
98.4999999999999574
 31
0.0
  0
LINE
  5
45
100
AcDbEntity
100
AcDbLine
  8
Layer0
 62
256
370
-1
  6
ByLayer
 10
-197.4019237886460019
 20
98.4999999999999574
 30
0.0
 11
-198.1783809239540233
 21
98.6022225211328731
 31
0.0
  0
LINE
  5
46
100
AcDbEntity
100
AcDbLine
  8
Layer0
 62
256
370
-1
  6
ByLayer
 10
-198.1783809239540233
 20
98.6022225211328731
 30
0.0
 11
-198.9019237886460019
 21
98.9019237886466271
 31
0.0
  0
LINE
  5
47
100
AcDbEntity
100
AcDbLine
  8
Layer0
 62
256
370
-1
  6
ByLayer
 10
-198.9019237886460019
 20
98.9019237886466271
 30
0.0
 11
-199.5232441322060026
 21
99.3786796564401982
 31
0.0
  0
LINE
  5
48
100
AcDbEntity
100
AcDbLine
  8
Layer0
 62
256
370
-1
  6
ByLayer
 10
-199.5232441322060026
 20
99.3786796564401982
 30
0.0
 11
-200.0
 21
100.0
 31
0.0
  0
LINE
  5
49
100
AcDbEntity
100
AcDbLine
  8
Layer0
 62
256
370
-1
  6
ByLayer
 10
-200.0
 20
100.0
 30
0.0
 11
-200.299701267514024
 21
100.7235428646923907
 31
0.0
  0
LINE
  5
4A
100
AcDbEntity
100
AcDbLine
  8
Layer0
 62
256
370
-1
  6
ByLayer
 10
-200.299701267514024
 20
100.7235428646923907
 30
0.0
 11
-200.4019237886460019
 21
101.4999999999999574
 31
0.0
  0
LINE
  5
4B
100
AcDbEntity
100
AcDbLine
  8
Layer0
 62
256
370
-1
  6
ByLayer
 10
-200.4019237886460019
 20
101.4999999999999574
 30
0.0
 11
-200.4019237886460019
 21
183.9999999999999432
 31
0.0
  0
LINE
  5
4C
100
AcDbEntity
100
AcDbLine
  8
Layer0
 62
256
370
-1
  6
ByLayer
 10
-200.4019237886460019
 20
183.9999999999999432
 30
0.0
 11
-200.2997012675130009
 21
184.7764571353075667
 31
0.0
  0
LINE
  5
4D
100
AcDbEntity
100
AcDbLine
  8
Layer0
 62
256
370
-1
  6
ByLayer
 10
-200.2997012675130009
 20
184.7764571353075667
 30
0.0
 11
-199.9999999999989768
 21
185.4999999999999432
 31
0.0
  0
LINE
  5
4E
100
AcDbEntity
100
AcDbLine
  8
Layer0
 62
256
370
-1
  6
ByLayer
 10
-199.9999999999989768
 20
185.4999999999999432
 30
0.0
 11
-199.5232441322060026
 21
186.1213203435596597
 31
0.0
  0
LINE
  5
4F
100
AcDbEntity
100
AcDbLine
  8
Layer0
 62
256
370
-1
  6
ByLayer
 10
-199.5232441322060026
 20
186.1213203435596597
 30
0.0
 11
-198.9019237886460019
 21
186.5980762113532592
 31
0.0
  0
LINE
  5
50
100
AcDbEntity
100
AcDbLine
  8
Layer0
 62
256
370
-1
  6
ByLayer
 10
-198.9019237886460019
 20
186.5980762113532592
 30
0.0
 11
-198.1783809239540233
 21
186.8977774788671695
 31
0.0
  0
LINE
  5
51
100
AcDbEntity
100
AcDbLine
  8
Layer0
 62
256
370
-1
  6
ByLayer
 10
-198.1783809239540233
 20
186.8977774788671695
 30
0.0
 11
-197.4019237886460019
 21
186.9999999999999432
 31
0.0
  0
LINE
  5
52
100
AcDbEntity
100
AcDbLine
  8
Layer0
 62
256
370
-1
  6
ByLayer
 10
-197.4019237886460019
 20
186.9999999999999432
 30
0.0
 11
-129.3380500817569896
 21
186.9999999999998579
 31
0.0
  0
LINE
  5
53
100
AcDbEntity
100
AcDbLine
  8
Layer0
 62
256
370
-1
  6
ByLayer
 10
-129.3380500817569896
 20
186.9999999999998579
 30
0.0
 11
-128.5615929464499914
 21
186.8977774788670558
 31
0.0
  0
LINE
  5
54
100
AcDbEntity
100
AcDbLine
  8
Layer0
 62
256
370
-1
  6
ByLayer
 10
-128.5615929464499914
 20
186.8977774788670558
 30
0.0
 11
-127.8380500817569896
 21
186.5980762113531455
 31
0.0
  0
LINE
  5
55
100
AcDbEntity
100
AcDbLine
  8
Layer0
 62
256
370
-1
  6
ByLayer
 10
-127.8380500817569896
 20
186.5980762113531455
 30
0.0
 11
-127.2167297381979836
 21
186.1213203435596597
 31
0.0
  0
LINE
  5
56
100
AcDbEntity
100
AcDbLine
  8
Layer0
 62
256
370
-1
  6
ByLayer
 10
-127.2167297381979836
 20
186.1213203435596597
 30
0.0
 11
-126.7399738704039862
 21
185.4999999999998579
 31
0.0
  0
LINE
  5
57
100
AcDbEntity
100
AcDbLine
  8
Layer0
 62
256
370
-1
  6
ByLayer
 10
-126.7399738704039862
 20
185.4999999999998579
 30
0.0
 11
-126.4402726028899906
 21
184.776457135307453
 31
0.0
  0
LINE
  5
58
100
AcDbEntity
100
AcDbLine
  8
Layer0
 62
256
370
-1
  6
ByLayer
 10
-126.4402726028899906
 20
184.776457135307453
 30
0.0
 11
-126.3380500817569896
 21
183.9999999999999432
 31
0.0
  0
LINE
  5
59
100
AcDbEntity
100
AcDbLine
  8
Layer0
 62
256
370
-1
  6
ByLayer
 10
-126.3380500817569896
 20
183.9999999999999432
 30
0.0
 11
-126.3380500817569896
 21
101.4999999999999574
 31
0.0
  0
LINE
  5
5A
100
AcDbEntity
100
AcDbLine
  8
Layer0
 62
256
370
-1
  6
ByLayer
 10
-126.3380500817569896
 20
101.4999999999999574
 30
0.0
 11
-126.4402726028899906
 21
100.7235428646923765
 31
0.0
  0
LINE
  5
5B
100
AcDbEntity
100
AcDbLine
  8
Layer0
 62
256
370
-1
  6
ByLayer
 10
-126.4402726028899906
 20
100.7235428646923765
 30
0.0
 11
-126.7399738704039862
 21
99.9999999999999432
 31
0.0
  0
LINE
  5
5C
100
AcDbEntity
100
AcDbLine
  8
Layer0
 62
256
370
-1
  6
ByLayer
 10
-126.7399738704039862
 20
99.9999999999999432
 30
0.0
 11
-127.2167297381979836
 21
99.3786796564402835
 31
0.0
  0
LINE
  5
5D
100
AcDbEntity
100
AcDbLine
  8
Layer0
 62
256
370
-1
  6
ByLayer
 10
-127.2167297381979836
 20
99.3786796564402835
 30
0.0
 11
-127.8380500817569896
 21
98.9019237886466129
 31
0.0
  0
LINE
  5
5E
100
AcDbEntity
100
AcDbLine
  8
Layer0
 62
256
370
-1
  6
ByLayer
 10
-127.8380500817569896
 20
98.9019237886466129
 30
0.0
 11
-128.5615929464499914
 21
98.602222521132731
 31
0.0
  0
LINE
  5
5F
100
AcDbEntity
100
AcDbLine
  8
Layer0
 62
256
370
-1
  6
ByLayer
 10
-128.5615929464499914
 20
98.602222521132731
 30
0.0
 11
-129.3380500817569896
 21
98.4999999999999432
 31
0.0
  0
LINE
  5
60
100
AcDbEntity
100
AcDbLine
  8
Layer0
 62
256
370
-1
  6
ByLayer
 10
-137.8380500817569896
 20
135.9836070586030701
 30
0.0
 11
-137.8380500817569896
 21
172.9836070586030701
 31
0.0
  0
LINE
  5
61
100
AcDbEntity
100
AcDbLine
  8
Layer0
 62
256
370
-1
  6
ByLayer
 10
-137.8380500817569896
 20
172.9836070586030701
 30
0.0
 11
-137.8891613423240017
 21
173.3718356262568534
 31
0.0
  0
LINE
  5
62
100
AcDbEntity
100
AcDbLine
  8
Layer0
 62
256
370
-1
  6
ByLayer
 10
-137.8891613423240017
 20
173.3718356262568534
 30
0.0
 11
-138.0390119760799905
 21
173.7336070586030701
 31
0.0
  0
LINE
  5
63
100
AcDbEntity
100
AcDbLine
  8
Layer0
 62
256
370
-1
  6
ByLayer
 10
-138.0390119760799905
 20
173.7336070586030701
 30
0.0
 11
-138.2773899099769892
 21
174.0442672303829568
 31
0.0
  0
LINE
  5
64
100
AcDbEntity
100
AcDbLine
  8
Layer0
 62
256
370
-1
  6
ByLayer
 10
-138.2773899099769892
 20
174.0442672303829568
 30
0.0
 11
-138.5880500817569896
 21
174.2826451642797565
 31
0.0
  0
LINE
  5
65
100
AcDbEntity
100
AcDbLine
  8
Layer0
 62
256
370
-1
  6
ByLayer
 10
-138.5880500817569896
 20
174.2826451642797565
 30
0.0
 11
-138.9498215141030073
 21
174.4324957980366548
 31
0.0
  0
LINE
  5
66
100
AcDbEntity
100
AcDbLine
  8
Layer0
 62
256
370
-1
  6
ByLayer
 10
-138.9498215141030073
 20
174.4324957980366548
 30
0.0
 11
-139.3380500817569896
 21
174.4836070586031553
 31
0.0
  0
LINE
  5
67
100
AcDbEntity
100
AcDbLine
  8
Layer0
 62
256
370
-1
  6
ByLayer
 10
-139.3380500817569896
 20
174.4836070586031553
 30
0.0
 11
-139.7262786494110003
 21
174.4324957980366548
 31
0.0
  0
LINE
  5
68
100
AcDbEntity
100
AcDbLine
  8
Layer0
 62
256
370
-1
  6
ByLayer
 10
-139.7262786494110003
 20
174.4324957980366548
 30
0.0
 11
-140.0880500817569896
 21
174.2826451642797565
 31
0.0
  0
LINE
  5
69
100
AcDbEntity
100
AcDbLine
  8
Layer0
 62
256
370
-1
  6
ByLayer
 10
-140.0880500817569896
 20
174.2826451642797565
 30
0.0
 11
-140.39871025353699
 21
174.0442672303829568
 31
0.0
  0
LINE
  5
6A
100
AcDbEntity
100
AcDbLine
  8
Layer0
 62
256
370
-1
  6
ByLayer
 10
-140.39871025353699
 20
174.0442672303829568
 30
0.0
 11
-140.6370881874339887
 21
173.7336070586030701
 31
0.0
  0
LINE
  5
6B
100
AcDbEntity
100
AcDbLine
  8
Layer0
 62
256
370
-1
  6
ByLayer
 10
-140.6370881874339887
 20
173.7336070586030701
 30
0.0
 11
-140.7869388211910007
 21
173.3718356262568534
 31
0.0
  0
LINE
  5
6C
100
AcDbEntity
100
AcDbLine
  8
Layer0
 62
256
370
-1
  6
ByLayer
 10
-140.7869388211910007
 20
173.3718356262568534
 30
0.0
 11
-140.8380500817569896
 21
172.9836070586030701
 31
0.0
  0
LINE
  5
6D
100
AcDbEntity
100
AcDbLine
  8
Layer0
 62
256
370
-1
  6
ByLayer
 10
-140.8380500817569896
 20
172.9836070586030701
 30
0.0
 11
-140.8380500817569896
 21
135.9836070586030701
 31
0.0
  0
LINE
  5
6E
100
AcDbEntity
100
AcDbLine
  8
Layer0
 62
256
370
-1
  6
ByLayer
 10
-140.8380500817569896
 20
135.9836070586030701
 30
0.0
 11
-140.7869388211910007
 21
135.5953784909492583
 31
0.0
  0
LINE
  5
6F
100
AcDbEntity
100
AcDbLine
  8
Layer0
 62
256
370
-1
  6
ByLayer
 10
-140.7869388211910007
 20
135.5953784909492583
 30
0.0
 11
-140.6370881874339887
 21
135.2336070586030701
 31
0.0
  0
LINE
  5
70
100
AcDbEntity
100
AcDbLine
  8
Layer0
 62
256
370
-1
  6
ByLayer
 10
-140.6370881874339887
 20
135.2336070586030701
 30
0.0
 11
-140.39871025353699
 21
134.9229468868232402
 31
0.0
  0
LINE
  5
71
100
AcDbEntity
100
AcDbLine
  8
Layer0
 62
256
370
-1
  6
ByLayer
 10
-140.39871025353699
 20
134.9229468868232402
 30
0.0
 11
-140.0880500817569896
 21
134.6845689529263552
 31
0.0
  0
LINE
  5
72
100
AcDbEntity
100
AcDbLine
  8
Layer0
 62
256
370
-1
  6
ByLayer
 10
-140.0880500817569896
 20
134.6845689529263552
 30
0.0
 11
-139.7262786494110003
 21
134.5347183191694569
 31
0.0
  0
LINE
  5
73
100
AcDbEntity
100
AcDbLine
  8
Layer0
 62
256
370
-1
  6
ByLayer
 10
-139.7262786494110003
 20
134.5347183191694569
 30
0.0
 11
-139.3380500817569896
 21
134.4836070586030701
 31
0.0
  0
LINE
  5
74
100
AcDbEntity
100
AcDbLine
  8
Layer0
 62
256
370
-1
  6
ByLayer
 10
-139.3380500817569896
 20
134.4836070586030701
 30
0.0
 11
-138.9498215141030073
 21
134.5347183191694569
 31
0.0
  0
LINE
  5
75
100
AcDbEntity
100
AcDbLine
  8
Layer0
 62
256
370
-1
  6
ByLayer
 10
-138.9498215141030073
 20
134.5347183191694569
 30
0.0
 11
-138.5880500817569896
 21
134.6845689529263552
 31
0.0
  0
LINE
  5
76
100
AcDbEntity
100
AcDbLine
  8
Layer0
 62
256
370
-1
  6
ByLayer
 10
-138.5880500817569896
 20
134.6845689529263552
 30
0.0
 11
-138.2773899099769892
 21
134.9229468868232402
 31
0.0
  0
LINE
  5
77
100
AcDbEntity
100
AcDbLine
  8
Layer0
 62
256
370
-1
  6
ByLayer
 10
-138.2773899099769892
 20
134.9229468868232402
 30
0.0
 11
-138.0390119760799905
 21
135.2336070586030701
 31
0.0
  0
LINE
  5
78
100
AcDbEntity
100
AcDbLine
  8
Layer0
 62
256
370
-1
  6
ByLayer
 10
-138.0390119760799905
 20
135.2336070586030701
 30
0.0
 11
-137.8891613423240017
 21
135.5953784909492583
 31
0.0
  0
LINE
  5
79
100
AcDbEntity
100
AcDbLine
  8
Layer0
 62
256
370
-1
  6
ByLayer
 10
-137.8891613423240017
 20
135.5953784909492583
 30
0.0
 11
-137.8380500817569896
 21
135.9836070586030701
 31
0.0
  0
LINE
  5
7A
100
AcDbEntity
100
AcDbLine
  8
Layer0
 62
256
370
-1
  6
ByLayer
 10
-185.8380500817569896
 20
126.9836070586030559
 30
0.0
 11
-185.8380500817569896
 21
172.9836070586030701
 31
0.0
  0
LINE
  5
7B
100
AcDbEntity
100
AcDbLine
  8
Layer0
 62
256
370
-1
  6
ByLayer
 10
-185.8380500817569896
 20
172.9836070586030701
 30
0.0
 11
-185.8891613423240017
 21
173.3718356262568534
 31
0.0
  0
LINE
  5
7C
100
AcDbEntity
100
AcDbLine
  8
Layer0
 62
256
370
-1
  6
ByLayer
 10
-185.8891613423240017
 20
173.3718356262568534
 30
0.0
 11
-186.0390119760799905
 21
173.7336070586030701
 31
0.0
  0
LINE
  5
7D
100
AcDbEntity
100
AcDbLine
  8
Layer0
 62
256
370
-1
  6
ByLayer
 10
-186.0390119760799905
 20
173.7336070586030701
 30
0.0
 11
-186.2773899099769892
 21
174.0442672303828431
 31
0.0
  0
LINE
  5
7E
100
AcDbEntity
100
AcDbLine
  8
Layer0
 62
256
370
-1
  6
ByLayer
 10
-186.2773899099769892
 20
174.0442672303828431
 30
0.0
 11
-186.5880500817569896
 21
174.2826451642797565
 31
0.0
  0
LINE
  5
7F
100
AcDbEntity
100
AcDbLine
  8
Layer0
 62
256
370
-1
  6
ByLayer
 10
-186.5880500817569896
 20
174.2826451642797565
 30
0.0
 11
-186.9498215141030073
 21
174.4324957980366548
 31
0.0
  0
LINE
  5
80
100
AcDbEntity
100
AcDbLine
  8
Layer0
 62
256
370
-1
  6
ByLayer
 10
-186.9498215141030073
 20
174.4324957980366548
 30
0.0
 11
-187.3380500817569896
 21
174.4836070586030701
 31
0.0
  0
LINE
  5
81
100
AcDbEntity
100
AcDbLine
  8
Layer0
 62
256
370
-1
  6
ByLayer
 10
-187.3380500817569896
 20
174.4836070586030701
 30
0.0
 11
-187.7262786494110003
 21
174.4324957980366548
 31
0.0
  0
LINE
  5
82
100
AcDbEntity
100
AcDbLine
  8
Layer0
 62
256
370
-1
  6
ByLayer
 10
-187.7262786494110003
 20
174.4324957980366548
 30
0.0
 11
-188.0880500817569896
 21
174.2826451642797565
 31
0.0
  0
LINE
  5
83
100
AcDbEntity
100
AcDbLine
  8
Layer0
 62
256
370
-1
  6
ByLayer
 10
-188.0880500817569896
 20
174.2826451642797565
 30
0.0
 11
-188.39871025353699
 21
174.0442672303828431
 31
0.0
  0
LINE
  5
84
100
AcDbEntity
100
AcDbLine
  8
Layer0
 62
256
370
-1
  6
ByLayer
 10
-188.39871025353699
 20
174.0442672303828431
 30
0.0
 11
-188.6370881874339887
 21
173.7336070586030701
 31
0.0
  0
LINE
  5
85
100
AcDbEntity
100
AcDbLine
  8
Layer0
 62
256
370
-1
  6
ByLayer
 10
-188.6370881874339887
 20
173.7336070586030701
 30
0.0
 11
-188.7869388211910007
 21
173.3718356262568534
 31
0.0
  0
LINE
  5
86
100
AcDbEntity
100
AcDbLine
  8
Layer0
 62
256
370
-1
  6
ByLayer
 10
-188.7869388211910007
 20
173.3718356262568534
 30
0.0
 11
-188.8380500817569896
 21
172.9836070586030701
 31
0.0
  0
LINE
  5
87
100
AcDbEntity
100
AcDbLine
  8
Layer0
 62
256
370
-1
  6
ByLayer
 10
-188.8380500817569896
 20
172.9836070586030701
 30
0.0
 11
-188.8380500817569896
 21
126.9836070586030559
 31
0.0
  0
LINE
  5
88
100
AcDbEntity
100
AcDbLine
  8
Layer0
 62
256
370
-1
  6
ByLayer
 10
-188.8380500817569896
 20
126.9836070586030559
 30
0.0
 11
-188.7869388211910007
 21
126.5953784909492583
 31
0.0
  0
LINE
  5
89
100
AcDbEntity
100
AcDbLine
  8
Layer0
 62
256
370
-1
  6
ByLayer
 10
-188.7869388211910007
 20
126.5953784909492583
 30
0.0
 11
-188.6370881874339887
 21
126.2336070586030559
 31
0.0
  0
LINE
  5
8A
100
AcDbEntity
100
AcDbLine
  8
Layer0
 62
256
370
-1
  6
ByLayer
 10
-188.6370881874339887
 20
126.2336070586030559
 30
0.0
 11
-188.39871025353699
 21
125.9229468868232544
 31
0.0
  0
LINE
  5
8B
100
AcDbEntity
100
AcDbLine
  8
Layer0
 62
256
370
-1
  6
ByLayer
 10
-188.39871025353699
 20
125.9229468868232544
 30
0.0
 11
-188.0880500817569896
 21
125.6845689529264547
 31
0.0
  0
LINE
  5
8C
100
AcDbEntity
100
AcDbLine
  8
Layer0
 62
256
370
-1
  6
ByLayer
 10
-188.0880500817569896
 20
125.6845689529264547
 30
0.0
 11
-187.7262786494110003
 21
125.5347183191694569
 31
0.0
  0
LINE
  5
8D
100
AcDbEntity
100
AcDbLine
  8
Layer0
 62
256
370
-1
  6
ByLayer
 10
-187.7262786494110003
 20
125.5347183191694569
 30
0.0
 11
-187.3380500817569896
 21
125.4836070586030559
 31
0.0
  0
LINE
  5
8E
100
AcDbEntity
100
AcDbLine
  8
Layer0
 62
256
370
-1
  6
ByLayer
 10
-187.3380500817569896
 20
125.4836070586030559
 30
0.0
 11
-186.9498215141030073
 21
125.5347183191694569
 31
0.0
  0
LINE
  5
8F
100
AcDbEntity
100
AcDbLine
  8
Layer0
 62
256
370
-1
  6
ByLayer
 10
-186.9498215141030073
 20
125.5347183191694569
 30
0.0
 11
-186.5880500817569896
 21
125.6845689529264547
 31
0.0
  0
LINE
  5
90
100
AcDbEntity
100
AcDbLine
  8
Layer0
 62
256
370
-1
  6
ByLayer
 10
-186.5880500817569896
 20
125.6845689529264547
 30
0.0
 11
-186.2773899099769892
 21
125.9229468868232544
 31
0.0
  0
LINE
  5
91
100
AcDbEntity
100
AcDbLine
  8
Layer0
 62
256
370
-1
  6
ByLayer
 10
-186.2773899099769892
 20
125.9229468868232544
 30
0.0
 11
-186.0390119760799905
 21
126.2336070586030559
 31
0.0
  0
LINE
  5
92
100
AcDbEntity
100
AcDbLine
  8
Layer0
 62
256
370
-1
  6
ByLayer
 10
-186.0390119760799905
 20
126.2336070586030559
 30
0.0
 11
-185.8891613423240017
 21
126.5953784909492583
 31
0.0
  0
LINE
  5
93
100
AcDbEntity
100
AcDbLine
  8
Layer0
 62
256
370
-1
  6
ByLayer
 10
-185.8891613423240017
 20
126.5953784909492583
 30
0.0
 11
-185.8380500817569896
 21
126.9836070586030559
 31
0.0
  0
LINE
  5
94
100
AcDbEntity
100
AcDbLine
  8
Layer0
 62
256
370
-1
  6
ByLayer
 10
-132.3380500817569896
 20
102.9999999999999574
 30
0.0
 11
-132.2869388211910007
 21
102.6117714323461598
 31
0.0
  0
LINE
  5
95
100
AcDbEntity
100
AcDbLine
  8
Layer0
 62
256
370
-1
  6
ByLayer
 10
-132.2869388211910007
 20
102.6117714323461598
 30
0.0
 11
-132.1370881874339887
 21
102.2499999999999574
 31
0.0
  0
LINE
  5
96
100
AcDbEntity
100
AcDbLine
  8
Layer0
 62
256
370
-1
  6
ByLayer
 10
-132.1370881874339887
 20
102.2499999999999574
 30
0.0
 11
-131.89871025353699
 21
101.9393398282201559
 31
0.0
  0
LINE
  5
97
100
AcDbEntity
100
AcDbLine
  8
Layer0
 62
256
370
-1
  6
ByLayer
 10
-131.89871025353699
 20
101.9393398282201559
 30
0.0
 11
-131.5880500817569896
 21
101.7009618943232567
 31
0.0
  0
LINE
  5
98
100
AcDbEntity
100
AcDbLine
  8
Layer0
 62
256
370
-1
  6
ByLayer
 10
-131.5880500817569896
 20
101.7009618943232567
 30
0.0
 11
-131.2262786494110003
 21
101.5511112605663584
 31
0.0
  0
LINE
  5
99
100
AcDbEntity
100
AcDbLine
  8
Layer0
 62
256
370
-1
  6
ByLayer
 10
-131.2262786494110003
 20
101.5511112605663584
 30
0.0
 11
-130.8380500817569896
 21
101.4999999999999574
 31
0.0
  0
LINE
  5
9A
100
AcDbEntity
100
AcDbLine
  8
Layer0
 62
256
370
-1
  6
ByLayer
 10
-130.8380500817569896
 20
101.4999999999999574
 30
0.0
 11
-130.4498215141030073
 21
101.5511112605663584
 31
0.0
  0
LINE
  5
9B
100
AcDbEntity
100
AcDbLine
  8
Layer0
 62
256
370
-1
  6
ByLayer
 10
-130.4498215141030073
 20
101.5511112605663584
 30
0.0
 11
-130.0880500817569896
 21
101.7009618943232567
 31
0.0
  0
LINE
  5
9C
100
AcDbEntity
100
AcDbLine
  8
Layer0
 62
256
370
-1
  6
ByLayer
 10
-130.0880500817569896
 20
101.7009618943232567
 30
0.0
 11
-129.7773899099769892
 21
101.9393398282201559
 31
0.0
  0
LINE
  5
9D
100
AcDbEntity
100
AcDbLine
  8
Layer0
 62
256
370
-1
  6
ByLayer
 10
-129.7773899099769892
 20
101.9393398282201559
 30
0.0
 11
-129.5390119760809853
 21
102.2499999999999574
 31
0.0
  0
LINE
  5
9E
100
AcDbEntity
100
AcDbLine
  8
Layer0
 62
256
370
-1
  6
ByLayer
 10
-129.5390119760809853
 20
102.2499999999999574
 30
0.0
 11
-129.3891613423240017
 21
102.6117714323461598
 31
0.0
  0
LINE
  5
9F
100
AcDbEntity
100
AcDbLine
  8
Layer0
 62
256
370
-1
  6
ByLayer
 10
-129.3891613423240017
 20
102.6117714323461598
 30
0.0
 11
-129.3380500817569896
 21
102.9999999999999574
 31
0.0
  0
LINE
  5
A0
100
AcDbEntity
100
AcDbLine
  8
Layer0
 62
256
370
-1
  6
ByLayer
 10
-129.3380500817569896
 20
102.9999999999999574
 30
0.0
 11
-129.3891613423240017
 21
103.3882285676537549
 31
0.0
  0
LINE
  5
A1
100
AcDbEntity
100
AcDbLine
  8
Layer0
 62
256
370
-1
  6
ByLayer
 10
-129.3891613423240017
 20
103.3882285676537549
 30
0.0
 11
-129.5390119760809853
 21
103.7499999999999574
 31
0.0
  0
LINE
  5
A2
100
AcDbEntity
100
AcDbLine
  8
Layer0
 62
256
370
-1
  6
ByLayer
 10
-129.5390119760809853
 20
103.7499999999999574
 30
0.0
 11
-129.7773899099769892
 21
104.0606601717797588
 31
0.0
  0
LINE
  5
A3
100
AcDbEntity
100
AcDbLine
  8
Layer0
 62
256
370
-1
  6
ByLayer
 10
-129.7773899099769892
 20
104.0606601717797588
 30
0.0
 11
-130.0880500817569896
 21
104.2990381056765585
 31
0.0
  0
LINE
  5
A4
100
AcDbEntity
100
AcDbLine
  8
Layer0
 62
256
370
-1
  6
ByLayer
 10
-130.0880500817569896
 20
104.2990381056765585
 30
0.0
 11
-130.4498215141030073
 21
104.4488887394335563
 31
0.0
  0
LINE
  5
A5
100
AcDbEntity
100
AcDbLine
  8
Layer0
 62
256
370
-1
  6
ByLayer
 10
-130.4498215141030073
 20
104.4488887394335563
 30
0.0
 11
-130.8380500817569896
 21
104.4999999999999574
 31
0.0
  0
LINE
  5
A6
100
AcDbEntity
100
AcDbLine
  8
Layer0
 62
256
370
-1
  6
ByLayer
 10
-130.8380500817569896
 20
104.4999999999999574
 30
0.0
 11
-131.2262786494110003
 21
104.4488887394335563
 31
0.0
  0
LINE
  5
A7
100
AcDbEntity
100
AcDbLine
  8
Layer0
 62
256
370
-1
  6
ByLayer
 10
-131.2262786494110003
 20
104.4488887394335563
 30
0.0
 11
-131.5880500817569896
 21
104.2990381056765585
 31
0.0
  0
LINE
  5
A8
100
AcDbEntity
100
AcDbLine
  8
Layer0
 62
256
370
-1
  6
ByLayer
 10
-131.5880500817569896
 20
104.2990381056765585
 30
0.0
 11
-131.89871025353699
 21
104.0606601717797588
 31
0.0
  0
LINE
  5
A9
100
AcDbEntity
100
AcDbLine
  8
Layer0
 62
256
370
-1
  6
ByLayer
 10
-131.89871025353699
 20
104.0606601717797588
 30
0.0
 11
-132.1370881874339887
 21
103.7499999999999574
 31
0.0
  0
LINE
  5
AA
100
AcDbEntity
100
AcDbLine
  8
Layer0
 62
256
370
-1
  6
ByLayer
 10
-132.1370881874339887
 20
103.7499999999999574
 30
0.0
 11
-132.2869388211910007
 21
103.3882285676537549
 31
0.0
  0
LINE
  5
AB
100
AcDbEntity
100
AcDbLine
  8
Layer0
 62
256
370
-1
  6
ByLayer
 10
-132.2869388211910007
 20
103.3882285676537549
 30
0.0
 11
-132.3380500817569896
 21
102.9999999999999574
 31
0.0
  0
LINE
  5
AC
100
AcDbEntity
100
AcDbLine
  8
Layer0
 62
256
370
-1
  6
ByLayer
 10
-132.3380500817569896
 20
182.4999999999999432
 30
0.0
 11
-132.2869388211910007
 21
182.1117714323461598
 31
0.0
  0
LINE
  5
AD
100
AcDbEntity
100
AcDbLine
  8
Layer0
 62
256
370
-1
  6
ByLayer
 10
-132.2869388211910007
 20
182.1117714323461598
 30
0.0
 11
-132.1370881874339887
 21
181.7499999999999432
 31
0.0
  0
LINE
  5
AE
100
AcDbEntity
100
AcDbLine
  8
Layer0
 62
256
370
-1
  6
ByLayer
 10
-132.1370881874339887
 20
181.7499999999999432
 30
0.0
 11
-131.89871025353699
 21
181.4393398282201701
 31
0.0
  0
LINE
  5
AF
100
AcDbEntity
100
AcDbLine
  8
Layer0
 62
256
370
-1
  6
ByLayer
 10
-131.89871025353699
 20
181.4393398282201701
 30
0.0
 11
-131.5880500817569896
 21
181.2009618943233704
 31
0.0
  0
LINE
  5
B0
100
AcDbEntity
100
AcDbLine
  8
Layer0
 62
256
370
-1
  6
ByLayer
 10
-131.5880500817569896
 20
181.2009618943233704
 30
0.0
 11
-131.2262786494110003
 21
181.0511112605663584
 31
0.0
  0
LINE
  5
B1
100
AcDbEntity
100
AcDbLine
  8
Layer0
 62
256
370
-1
  6
ByLayer
 10
-131.2262786494110003
 20
181.0511112605663584
 30
0.0
 11
-130.8380500817569896
 21
180.9999999999999432
 31
0.0
  0
LINE
  5
B2
100
AcDbEntity
100
AcDbLine
  8
Layer0
 62
256
370
-1
  6
ByLayer
 10
-130.8380500817569896
 20
180.9999999999999432
 30
0.0
 11
-130.4498215141030073
 21
181.0511112605663584
 31
0.0
  0
LINE
  5
B3
100
AcDbEntity
100
AcDbLine
  8
Layer0
 62
256
370
-1
  6
ByLayer
 10
-130.4498215141030073
 20
181.0511112605663584
 30
0.0
 11
-130.0880500817569896
 21
181.2009618943233704
 31
0.0
  0
LINE
  5
B4
100
AcDbEntity
100
AcDbLine
  8
Layer0
 62
256
370
-1
  6
ByLayer
 10
-130.0880500817569896
 20
181.2009618943233704
 30
0.0
 11
-129.7773899099769892
 21
181.4393398282201701
 31
0.0
  0
LINE
  5
B5
100
AcDbEntity
100
AcDbLine
  8
Layer0
 62
256
370
-1
  6
ByLayer
 10
-129.7773899099769892
 20
181.4393398282201701
 30
0.0
 11
-129.5390119760809853
 21
181.7499999999999432
 31
0.0
  0
LINE
  5
B6
100
AcDbEntity
100
AcDbLine
  8
Layer0
 62
256
370
-1
  6
ByLayer
 10
-129.5390119760809853
 20
181.7499999999999432
 30
0.0
 11
-129.3891613423240017
 21
182.1117714323461598
 31
0.0
  0
LINE
  5
B7
100
AcDbEntity
100
AcDbLine
  8
Layer0
 62
256
370
-1
  6
ByLayer
 10
-129.3891613423240017
 20
182.1117714323461598
 30
0.0
 11
-129.3380500817569896
 21
182.4999999999999432
 31
0.0
  0
LINE
  5
B8
100
AcDbEntity
100
AcDbLine
  8
Layer0
 62
256
370
-1
  6
ByLayer
 10
-129.3380500817569896
 20
182.4999999999999432
 30
0.0
 11
-129.3891613423240017
 21
182.8882285676537549
 31
0.0
  0
LINE
  5
B9
100
AcDbEntity
100
AcDbLine
  8
Layer0
 62
256
370
-1
  6
ByLayer
 10
-129.3891613423240017
 20
182.8882285676537549
 30
0.0
 11
-129.5390119760809853
 21
183.2499999999999432
 31
0.0
  0
LINE
  5
BA
100
AcDbEntity
100
AcDbLine
  8
Layer0
 62
256
370
-1
  6
ByLayer
 10
-129.5390119760809853
 20
183.2499999999999432
 30
0.0
 11
-129.7773899099769892
 21
183.5606601717798583
 31
0.0
  0
LINE
  5
BB
100
AcDbEntity
100
AcDbLine
  8
Layer0
 62
256
370
-1
  6
ByLayer
 10
-129.7773899099769892
 20
183.5606601717798583
 30
0.0
 11
-130.0880500817569896
 21
183.799038105676658
 31
0.0
  0
LINE
  5
BC
100
AcDbEntity
100
AcDbLine
  8
Layer0
 62
256
370
-1
  6
ByLayer
 10
-130.0880500817569896
 20
183.799038105676658
 30
0.0
 11
-130.4498215141030073
 21
183.9488887394335563
 31
0.0
  0
LINE
  5
BD
100
AcDbEntity
100
AcDbLine
  8
Layer0
 62
256
370
-1
  6
ByLayer
 10
-130.4498215141030073
 20
183.9488887394335563
 30
0.0
 11
-130.8380500817569896
 21
183.9999999999999432
 31
0.0
  0
LINE
  5
BE
100
AcDbEntity
100
AcDbLine
  8
Layer0
 62
256
370
-1
  6
ByLayer
 10
-130.8380500817569896
 20
183.9999999999999432
 30
0.0
 11
-131.2262786494110003
 21
183.9488887394335563
 31
0.0
  0
LINE
  5
BF
100
AcDbEntity
100
AcDbLine
  8
Layer0
 62
256
370
-1
  6
ByLayer
 10
-131.2262786494110003
 20
183.9488887394335563
 30
0.0
 11
-131.5880500817569896
 21
183.799038105676658
 31
0.0
  0
LINE
  5
C0
100
AcDbEntity
100
AcDbLine
  8
Layer0
 62
256
370
-1
  6
ByLayer
 10
-131.5880500817569896
 20
183.799038105676658
 30
0.0
 11
-131.89871025353699
 21
183.5606601717798583
 31
0.0
  0
LINE
  5
C1
100
AcDbEntity
100
AcDbLine
  8
Layer0
 62
256
370
-1
  6
ByLayer
 10
-131.89871025353699
 20
183.5606601717798583
 30
0.0
 11
-132.1370881874339887
 21
183.2499999999999432
 31
0.0
  0
LINE
  5
C2
100
AcDbEntity
100
AcDbLine
  8
Layer0
 62
256
370
-1
  6
ByLayer
 10
-132.1370881874339887
 20
183.2499999999999432
 30
0.0
 11
-132.2869388211910007
 21
182.8882285676537549
 31
0.0
  0
LINE
  5
C3
100
AcDbEntity
100
AcDbLine
  8
Layer0
 62
256
370
-1
  6
ByLayer
 10
-132.2869388211910007
 20
182.8882285676537549
 30
0.0
 11
-132.3380500817569896
 21
182.4999999999999432
 31
0.0
  0
LINE
  5
C4
100
AcDbEntity
100
AcDbLine
  8
Layer0
 62
256
370
-1
  6
ByLayer
 10
-194.4019237886460019
 20
103.0000000000000568
 30
0.0
 11
-194.4530350492129855
 21
103.3882285676538544
 31
0.0
  0
LINE
  5
C5
100
AcDbEntity
100
AcDbLine
  8
Layer0
 62
256
370
-1
  6
ByLayer
 10
-194.4530350492129855
 20
103.3882285676538544
 30
0.0
 11
-194.6028856829699976
 21
103.7500000000000568
 31
0.0
  0
LINE
  5
C6
100
AcDbEntity
100
AcDbLine
  8
Layer0
 62
256
370
-1
  6
ByLayer
 10
-194.6028856829699976
 20
103.7500000000000568
 30
0.0
 11
-194.8412636168670247
 21
104.0606601717798583
 31
0.0
  0
LINE
  5
C7
100
AcDbEntity
100
AcDbLine
  8
Layer0
 62
256
370
-1
  6
ByLayer
 10
-194.8412636168670247
 20
104.0606601717798583
 30
0.0
 11
-195.1519237886460019
 21
104.2990381056767575
 31
0.0
  0
LINE
  5
C8
100
AcDbEntity
100
AcDbLine
  8
Layer0
 62
256
370
-1
  6
ByLayer
 10
-195.1519237886460019
 20
104.2990381056767575
 30
0.0
 11
-195.5136952209929859
 21
104.4488887394336558
 31
0.0
  0
LINE
  5
C9
100
AcDbEntity
100
AcDbLine
  8
Layer0
 62
256
370
-1
  6
ByLayer
 10
-195.5136952209929859
 20
104.4488887394336558
 30
0.0
 11
-195.9019237886460019
 21
104.5000000000000568
 31
0.0
  0
LINE
  5
CA
100
AcDbEntity
100
AcDbLine
  8
Layer0
 62
256
370
-1
  6
ByLayer
 10
-195.9019237886460019
 20
104.5000000000000568
 30
0.0
 11
-196.2901523562999841
 21
104.4488887394336558
 31
0.0
  0
LINE
  5
CB
100
AcDbEntity
100
AcDbLine
  8
Layer0
 62
256
370
-1
  6
ByLayer
 10
-196.2901523562999841
 20
104.4488887394336558
 30
0.0
 11
-196.6519237886460019
 21
104.2990381056767575
 31
0.0
  0
LINE
  5
CC
100
AcDbEntity
100
AcDbLine
  8
Layer0
 62
256
370
-1
  6
ByLayer
 10
-196.6519237886460019
 20
104.2990381056767575
 30
0.0
 11
-196.9625839604260022
 21
104.0606601717798583
 31
0.0
  0
LINE
  5
CD
100
AcDbEntity
100
AcDbLine
  8
Layer0
 62
256
370
-1
  6
ByLayer
 10
-196.9625839604260022
 20
104.0606601717798583
 30
0.0
 11
-197.2009618943229725
 21
103.7500000000000568
 31
0.0
  0
LINE
  5
CE
100
AcDbEntity
100
AcDbLine
  8
Layer0
 62
256
370
-1
  6
ByLayer
 10
-197.2009618943229725
 20
103.7500000000000568
 30
0.0
 11
-197.3508125280799845
 21
103.3882285676538544
 31
0.0
  0
LINE
  5
CF
100
AcDbEntity
100
AcDbLine
  8
Layer0
 62
256
370
-1
  6
ByLayer
 10
-197.3508125280799845
 20
103.3882285676538544
 30
0.0
 11
-197.4019237886460019
 21
103.0000000000000568
 31
0.0
  0
LINE
  5
D0
100
AcDbEntity
100
AcDbLine
  8
Layer0
 62
256
370
-1
  6
ByLayer
 10
-197.4019237886460019
 20
103.0000000000000568
 30
0.0
 11
-197.3508125280799845
 21
102.6117714323462593
 31
0.0
  0
LINE
  5
D1
100
AcDbEntity
100
AcDbLine
  8
Layer0
 62
256
370
-1
  6
ByLayer
 10
-197.3508125280799845
 20
102.6117714323462593
 30
0.0
 11
-197.2009618943229725
 21
102.2500000000000568
 31
0.0
  0
LINE
  5
D2
100
AcDbEntity
100
AcDbLine
  8
Layer0
 62
256
370
-1
  6
ByLayer
 10
-197.2009618943229725
 20
102.2500000000000568
 30
0.0
 11
-196.9625839604260022
 21
101.9393398282202554
 31
0.0
  0
LINE
  5
D3
100
AcDbEntity
100
AcDbLine
  8
Layer0
 62
256
370
-1
  6
ByLayer
 10
-196.9625839604260022
 20
101.9393398282202554
 30
0.0
 11
-196.6519237886460019
 21
101.7009618943233562
 31
0.0
  0
LINE
  5
D4
100
AcDbEntity
100
AcDbLine
  8
Layer0
 62
256
370
-1
  6
ByLayer
 10
-196.6519237886460019
 20
101.7009618943233562
 30
0.0
 11
-196.2901523562999841
 21
101.5511112605664579
 31
0.0
  0
LINE
  5
D5
100
AcDbEntity
100
AcDbLine
  8
Layer0
 62
256
370
-1
  6
ByLayer
 10
-196.2901523562999841
 20
101.5511112605664579
 30
0.0
 11
-195.9019237886460019
 21
101.5000000000000568
 31
0.0
  0
LINE
  5
D6
100
AcDbEntity
100
AcDbLine
  8
Layer0
 62
256
370
-1
  6
ByLayer
 10
-195.9019237886460019
 20
101.5000000000000568
 30
0.0
 11
-195.5136952209929859
 21
101.5511112605664579
 31
0.0
  0
LINE
  5
D7
100
AcDbEntity
100
AcDbLine
  8
Layer0
 62
256
370
-1
  6
ByLayer
 10
-195.5136952209929859
 20
101.5511112605664579
 30
0.0
 11
-195.1519237886460019
 21
101.7009618943233562
 31
0.0
  0
LINE
  5
D8
100
AcDbEntity
100
AcDbLine
  8
Layer0
 62
256
370
-1
  6
ByLayer
 10
-195.1519237886460019
 20
101.7009618943233562
 30
0.0
 11
-194.8412636168670247
 21
101.9393398282202554
 31
0.0
  0
LINE
  5
D9
100
AcDbEntity
100
AcDbLine
  8
Layer0
 62
256
370
-1
  6
ByLayer
 10
-194.8412636168670247
 20
101.9393398282202554
 30
0.0
 11
-194.6028856829699976
 21
102.2500000000000568
 31
0.0
  0
LINE
  5
DA
100
AcDbEntity
100
AcDbLine
  8
Layer0
 62
256
370
-1
  6
ByLayer
 10
-194.6028856829699976
 20
102.2500000000000568
 30
0.0
 11
-194.4530350492129855
 21
102.6117714323462593
 31
0.0
  0
LINE
  5
DB
100
AcDbEntity
100
AcDbLine
  8
Layer0
 62
256
370
-1
  6
ByLayer
 10
-194.4530350492129855
 20
102.6117714323462593
 30
0.0
 11
-194.4019237886460019
 21
103.0000000000000568
 31
0.0
  0
LINE
  5
DC
100
AcDbEntity
100
AcDbLine
  8
Layer0
 62
256
370
-1
  6
ByLayer
 10
-195.9019237886460019
 20
180.9999999999999432
 30
0.0
 11
-195.5136952209929859
 21
181.0511112605663584
 31
0.0
  0
LINE
  5
DD
100
AcDbEntity
100
AcDbLine
  8
Layer0
 62
256
370
-1
  6
ByLayer
 10
-195.5136952209929859
 20
181.0511112605663584
 30
0.0
 11
-195.1519237886460019
 21
181.2009618943233704
 31
0.0
  0
LINE
  5
DE
100
AcDbEntity
100
AcDbLine
  8
Layer0
 62
256
370
-1
  6
ByLayer
 10
-195.1519237886460019
 20
181.2009618943233704
 30
0.0
 11
-194.8412636168670247
 21
181.4393398282201701
 31
0.0
  0
LINE
  5
DF
100
AcDbEntity
100
AcDbLine
  8
Layer0
 62
256
370
-1
  6
ByLayer
 10
-194.8412636168670247
 20
181.4393398282201701
 30
0.0
 11
-194.6028856829699976
 21
181.7499999999999432
 31
0.0
  0
LINE
  5
E0
100
AcDbEntity
100
AcDbLine
  8
Layer0
 62
256
370
-1
  6
ByLayer
 10
-194.6028856829699976
 20
181.7499999999999432
 30
0.0
 11
-194.4530350492129855
 21
182.1117714323461598
 31
0.0
  0
LINE
  5
E1
100
AcDbEntity
100
AcDbLine
  8
Layer0
 62
256
370
-1
  6
ByLayer
 10
-194.4530350492129855
 20
182.1117714323461598
 30
0.0
 11
-194.4019237886460019
 21
182.4999999999999432
 31
0.0
  0
LINE
  5
E2
100
AcDbEntity
100
AcDbLine
  8
Layer0
 62
256
370
-1
  6
ByLayer
 10
-194.4019237886460019
 20
182.4999999999999432
 30
0.0
 11
-194.4530350492129855
 21
182.8882285676537549
 31
0.0
  0
LINE
  5
E3
100
AcDbEntity
100
AcDbLine
  8
Layer0
 62
256
370
-1
  6
ByLayer
 10
-194.4530350492129855
 20
182.8882285676537549
 30
0.0
 11
-194.6028856829699976
 21
183.2499999999999432
 31
0.0
  0
LINE
  5
E4
100
AcDbEntity
100
AcDbLine
  8
Layer0
 62
256
370
-1
  6
ByLayer
 10
-194.6028856829699976
 20
183.2499999999999432
 30
0.0
 11
-194.8412636168670247
 21
183.5606601717798583
 31
0.0
  0
LINE
  5
E5
100
AcDbEntity
100
AcDbLine
  8
Layer0
 62
256
370
-1
  6
ByLayer
 10
-194.8412636168670247
 20
183.5606601717798583
 30
0.0
 11
-195.1519237886460019
 21
183.799038105676658
 31
0.0
  0
LINE
  5
E6
100
AcDbEntity
100
AcDbLine
  8
Layer0
 62
256
370
-1
  6
ByLayer
 10
-195.1519237886460019
 20
183.799038105676658
 30
0.0
 11
-195.5136952209929859
 21
183.9488887394335563
 31
0.0
  0
LINE
  5
E7
100
AcDbEntity
100
AcDbLine
  8
Layer0
 62
256
370
-1
  6
ByLayer
 10
-195.5136952209929859
 20
183.9488887394335563
 30
0.0
 11
-195.9019237886460019
 21
183.9999999999999432
 31
0.0
  0
LINE
  5
E8
100
AcDbEntity
100
AcDbLine
  8
Layer0
 62
256
370
-1
  6
ByLayer
 10
-195.9019237886460019
 20
183.9999999999999432
 30
0.0
 11
-196.2901523562999841
 21
183.9488887394335563
 31
0.0
  0
LINE
  5
E9
100
AcDbEntity
100
AcDbLine
  8
Layer0
 62
256
370
-1
  6
ByLayer
 10
-196.2901523562999841
 20
183.9488887394335563
 30
0.0
 11
-196.6519237886460019
 21
183.799038105676658
 31
0.0
  0
LINE
  5
EA
100
AcDbEntity
100
AcDbLine
  8
Layer0
 62
256
370
-1
  6
ByLayer
 10
-196.6519237886460019
 20
183.799038105676658
 30
0.0
 11
-196.9625839604260022
 21
183.5606601717798583
 31
0.0
  0
LINE
  5
EB
100
AcDbEntity
100
AcDbLine
  8
Layer0
 62
256
370
-1
  6
ByLayer
 10
-196.9625839604260022
 20
183.5606601717798583
 30
0.0
 11
-197.2009618943229725
 21
183.2499999999999432
 31
0.0
  0
LINE
  5
EC
100
AcDbEntity
100
AcDbLine
  8
Layer0
 62
256
370
-1
  6
ByLayer
 10
-197.2009618943229725
 20
183.2499999999999432
 30
0.0
 11
-197.3508125280799845
 21
182.8882285676537549
 31
0.0
  0
LINE
  5
ED
100
AcDbEntity
100
AcDbLine
  8
Layer0
 62
256
370
-1
  6
ByLayer
 10
-197.3508125280799845
 20
182.8882285676537549
 30
0.0
 11
-197.4019237886460019
 21
182.4999999999999432
 31
0.0
  0
LINE
  5
EE
100
AcDbEntity
100
AcDbLine
  8
Layer0
 62
256
370
-1
  6
ByLayer
 10
-197.4019237886460019
 20
182.4999999999999432
 30
0.0
 11
-197.3508125280799845
 21
182.1117714323461598
 31
0.0
  0
LINE
  5
EF
100
AcDbEntity
100
AcDbLine
  8
Layer0
 62
256
370
-1
  6
ByLayer
 10
-197.3508125280799845
 20
182.1117714323461598
 30
0.0
 11
-197.2009618943229725
 21
181.7499999999999432
 31
0.0
  0
LINE
  5
F0
100
AcDbEntity
100
AcDbLine
  8
Layer0
 62
256
370
-1
  6
ByLayer
 10
-197.2009618943229725
 20
181.7499999999999432
 30
0.0
 11
-196.9625839604260022
 21
181.4393398282201701
 31
0.0
  0
LINE
  5
F1
100
AcDbEntity
100
AcDbLine
  8
Layer0
 62
256
370
-1
  6
ByLayer
 10
-196.9625839604260022
 20
181.4393398282201701
 30
0.0
 11
-196.6519237886460019
 21
181.2009618943233704
 31
0.0
  0
LINE
  5
F2
100
AcDbEntity
100
AcDbLine
  8
Layer0
 62
256
370
-1
  6
ByLayer
 10
-196.6519237886460019
 20
181.2009618943233704
 30
0.0
 11
-196.2901523562999841
 21
181.0511112605663584
 31
0.0
  0
LINE
  5
F3
100
AcDbEntity
100
AcDbLine
  8
Layer0
 62
256
370
-1
  6
ByLayer
 10
-196.2901523562999841
 20
181.0511112605663584
 30
0.0
 11
-195.9019237886460019
 21
180.9999999999999432
 31
0.0
  0
LINE
  5
F4
100
AcDbEntity
100
AcDbLine
  8
Layer0
 62
256
370
-1
  6
ByLayer
 10
-163.9531910775129973
 20
162.7415758255512515
 30
0.0
 11
-163.9032408662600062
 21
162.8621663030000377
 31
0.0
  0
LINE
  5
F5
100
AcDbEntity
100
AcDbLine
  8
Layer0
 62
256
370
-1
  6
ByLayer
 10
-163.8862037794050082
 20
162.9915758255512515
 30
0.0
 11
-163.9032408662600062
 21
163.1209853481025505
 31
0.0
  0
LINE
  5
F6
100
AcDbEntity
100
AcDbLine
  8
Layer0
 62
256
370
-1
  6
ByLayer
 10
-163.9032408662600062
 20
163.1209853481025505
 30
0.0
 11
-163.9531910775129973
 21
163.2415758255513651
 31
0.0
  0
LINE
  5
F7
100
AcDbEntity
100
AcDbLine
  8
Layer0
 62
256
370
-1
  6
ByLayer
 10
-163.9531910775129973
 20
163.2415758255513651
 30
0.0
 11
-164.0326503888109926
 21
163.3451292161445565
 31
0.0
  0
LINE
  5
F8
100
AcDbEntity
100
AcDbLine
  8
Layer0
 62
256
370
-1
  6
ByLayer
 10
-164.0326503888109926
 20
163.3451292161445565
 30
0.0
 11
-164.1362037794050082
 21
163.424588527443575
 31
0.0
  0
LINE
  5
F9
100
AcDbEntity
100
AcDbLine
  8
Layer0
 62
256
370
-1
  6
ByLayer
 10
-164.1362037794050082
 20
163.424588527443575
 30
0.0
 11
-164.2567942568529986
 21
163.4745387386958555
 31
0.0
  0
LINE
  5
FA
100
AcDbEntity
100
AcDbLine
  8
Layer0
 62
256
370
-1
  6
ByLayer
 10
-164.2567942568529986
 20
163.4745387386958555
 30
0.0
 11
-164.3862037794050082
 21
163.4915758255513651
 31
0.0
  0
LINE
  5
FB
100
AcDbEntity
100
AcDbLine
  8
Layer0
 62
256
370
-1
  6
ByLayer
 10
-164.3862037794050082
 20
163.4915758255513651
 30
0.0
 11
-164.5156133019559945
 21
163.4745387386958555
 31
0.0
  0
LINE
  5
FC
100
AcDbEntity
100
AcDbLine
  8
Layer0
 62
256
370
-1
  6
ByLayer
 10
-164.5156133019559945
 20
163.4745387386958555
 30
0.0
 11
-164.6362037794050082
 21
163.424588527443575
 31
0.0
  0
LINE
  5
FD
100
AcDbEntity
100
AcDbLine
  8
Layer0
 62
256
370
-1
  6
ByLayer
 10
-164.6362037794050082
 20
163.424588527443575
 30
0.0
 11
-164.7397571699980006
 21
163.3451292161445565
 31
0.0
  0
LINE
  5
FE
100
AcDbEntity
100
AcDbLine
  8
Layer0
 62
256
370
-1
  6
ByLayer
 10
-164.7397571699980006
 20
163.3451292161445565
 30
0.0
 11
-164.8192164812969907
 21
163.2415758255512515
 31
0.0
  0
LINE
  5
FF
100
AcDbEntity
100
AcDbLine
  8
Layer0
 62
256
370
-1
  6
ByLayer
 10
-164.8192164812969907
 20
163.2415758255512515
 30
0.0
 11
-164.8691666925489869
 21
163.1209853481025505
 31
0.0
  0
LINE
  5
100
100
AcDbEntity
100
AcDbLine
  8
Layer0
 62
256
370
-1
  6
ByLayer
 10
-164.8691666925489869
 20
163.1209853481025505
 30
0.0
 11
-164.8862037794050082
 21
162.9915758255512515
 31
0.0
  0
LINE
  5
101
100
AcDbEntity
100
AcDbLine
  8
Layer0
 62
256
370
-1
  6
ByLayer
 10
-164.8862037794050082
 20
162.9915758255512515
 30
0.0
 11
-164.8691666925489869
 21
162.8621663030000377
 31
0.0
  0
LINE
  5
102
100
AcDbEntity
100
AcDbLine
  8
Layer0
 62
256
370
-1
  6
ByLayer
 10
-164.8691666925489869
 20
162.8621663030000377
 30
0.0
 11
-164.8192164812969907
 21
162.7415758255512515
 31
0.0
  0
LINE
  5
103
100
AcDbEntity
100
AcDbLine
  8
Layer0
 62
256
370
-1
  6
ByLayer
 10
-164.8192164812969907
 20
162.7415758255512515
 30
0.0
 11
-164.7397571699980006
 21
162.6380224349579748
 31
0.0
  0
LINE
  5
104
100
AcDbEntity
100
AcDbLine
  8
Layer0
 62
256
370
-1
  6
ByLayer
 10
-164.7397571699980006
 20
162.6380224349579748
 30
0.0
 11
-164.6362037794050082
 21
162.5585631236590416
 31
0.0
  0
LINE
  5
105
100
AcDbEntity
100
AcDbLine
  8
Layer0
 62
256
370
-1
  6
ByLayer
 10
-164.6362037794050082
 20
162.5585631236590416
 30
0.0
 11
-164.5156133019559945
 21
162.5086129124067611
 31
0.0
  0
LINE
  5
106
100
AcDbEntity
100
AcDbLine
  8
Layer0
 62
256
370
-1
  6
ByLayer
 10
-164.5156133019559945
 20
162.5086129124067611
 30
0.0
 11
-164.3862037794050082
 21
162.4915758255512515
 31
0.0
  0
LINE
  5
107
100
AcDbEntity
100
AcDbLine
  8
Layer0
 62
256
370
-1
  6
ByLayer
 10
-164.3862037794050082
 20
162.4915758255512515
 30
0.0
 11
-164.2567942568529986
 21
162.5086129124067611
 31
0.0
  0
LINE
  5
108
100
AcDbEntity
100
AcDbLine
  8
Layer0
 62
256
370
-1
  6
ByLayer
 10
-164.2567942568529986
 20
162.5086129124067611
 30
0.0
 11
-164.1362037794050082
 21
162.5585631236590416
 31
0.0
  0
LINE
  5
109
100
AcDbEntity
100
AcDbLine
  8
Layer0
 62
256
370
-1
  6
ByLayer
 10
-164.1362037794050082
 20
162.5585631236590416
 30
0.0
 11
-164.0326503888109926
 21
162.6380224349579748
 31
0.0
  0
LINE
  5
10A
100
AcDbEntity
100
AcDbLine
  8
Layer0
 62
256
370
-1
  6
ByLayer
 10
-164.0326503888109926
 20
162.6380224349579748
 30
0.0
 11
-163.9531910775129973
 21
162.7415758255512515
 31
0.0
  0
LINE
  5
10B
100
AcDbEntity
100
AcDbLine
  8
Layer0
 62
256
370
-1
  6
ByLayer
 10
-163.9032408662600062
 20
162.8621663030000377
 30
0.0
 11
-163.8862037794050082
 21
162.9915758255512515
 31
0.0
  0
LINE
  5
10C
100
AcDbEntity
100
AcDbLine
  8
Layer0
 62
256
370
-1
  6
ByLayer
 10
-179.3019237886460076
 20
180.8999999999999773
 30
0.0
 11
-179.3019237886460076
 21
178.0999999999999659
 31
0.0
  0
LINE
  5
10D
100
AcDbEntity
100
AcDbLine
  8
Layer0
 62
256
370
-1
  6
ByLayer
 10
-179.3019237886460076
 20
178.0999999999999659
 30
0.0
 11
-147.5019237886459962
 21
178.0999999999999659
 31
0.0
  0
LINE
  5
10E
100
AcDbEntity
100
AcDbLine
  8
Layer0
 62
256
370
-1
  6
ByLayer
 10
-147.5019237886459962
 20
178.0999999999999659
 30
0.0
 11
-147.5019237886459962
 21
180.8999999999999773
 31
0.0
  0
LINE
  5
10F
100
AcDbEntity
100
AcDbLine
  8
Layer0
 62
256
370
-1
  6
ByLayer
 10
-147.5019237886459962
 20
180.8999999999999773
 30
0.0
 11
-179.3019237886460076
 21
180.8999999999999773
 31
0.0
  0
LINE
  5
110
100
AcDbEntity
100
AcDbLine
  8
Layer0
 62
256
370
-1
  6
ByLayer
 10
-194.3019237886459791
 20
124.5999999999999659
 30
0.0
 11
-191.5019237886460246
 21
124.5999999999999659
 31
0.0
  0
LINE
  5
111
100
AcDbEntity
100
AcDbLine
  8
Layer0
 62
256
370
-1
  6
ByLayer
 10
-191.5019237886460246
 20
124.5999999999999659
 30
0.0
 11
-191.5019237886460246
 21
160.8999999999999773
 31
0.0
  0
LINE
  5
112
100
AcDbEntity
100
AcDbLine
  8
Layer0
 62
256
370
-1
  6
ByLayer
 10
-191.5019237886460246
 20
160.8999999999999773
 30
0.0
 11
-194.3019237886459791
 21
160.8999999999999773
 31
0.0
  0
LINE
  5
113
100
AcDbEntity
100
AcDbLine
  8
Layer0
 62
256
370
-1
  6
ByLayer
 10
-194.3019237886459791
 20
160.8999999999999773
 30
0.0
 11
-194.3019237886459791
 21
124.5999999999999659
 31
0.0
  0
LINE
  5
114
100
AcDbEntity
100
AcDbLine
  8
Layer0
 62
256
370
-1
  6
ByLayer
 10
-132.4380500817569839
 20
124.5999999999999659
 30
0.0
 11
-132.4380500817569839
 21
160.8999999999999773
 31
0.0
  0
LINE
  5
115
100
AcDbEntity
100
AcDbLine
  8
Layer0
 62
256
370
-1
  6
ByLayer
 10
-132.4380500817569839
 20
160.8999999999999773
 30
0.0
 11
-135.2380500817569953
 21
160.8999999999999773
 31
0.0
  0
LINE
  5
116
100
AcDbEntity
100
AcDbLine
  8
Layer0
 62
256
370
-1
  6
ByLayer
 10
-135.2380500817569953
 20
160.8999999999999773
 30
0.0
 11
-135.2380500817569953
 21
124.5999999999999659
 31
0.0
  0
LINE
  5
117
100
AcDbEntity
100
AcDbLine
  8
Layer0
 62
256
370
-1
  6
ByLayer
 10
-135.2380500817569953
 20
124.5999999999999659
 30
0.0
 11
-132.4380500817569839
 21
124.5999999999999659
 31
0.0
  0
LINE
  5
118
100
AcDbEntity
100
AcDbLine
  8
Layer0
 62
256
370
-1
  6
ByLayer
 10
-147.5019237886459962
 20
104.5999999999999517
 30
0.0
 11
-147.5019237886459962
 21
107.3999999999999631
 31
0.0
  0
LINE
  5
119
100
AcDbEntity
100
AcDbLine
  8
Layer0
 62
256
370
-1
  6
ByLayer
 10
-147.5019237886459962
 20
107.3999999999999631
 30
0.0
 11
-179.3019237886460076
 21
107.3999999999999631
 31
0.0
  0
LINE
  5
11A
100
AcDbEntity
100
AcDbLine
  8
Layer0
 62
256
370
-1
  6
ByLayer
 10
-179.3019237886460076
 20
107.3999999999999631
 30
0.0
 11
-179.3019237886460076
 21
104.5999999999999517
 31
0.0
  0
LINE
  5
11B
100
AcDbEntity
100
AcDbLine
  8
Layer0
 62
256
370
-1
  6
ByLayer
 10
-179.3019237886460076
 20
104.5999999999999517
 30
0.0
 11
-147.5019237886459962
 21
104.5999999999999517
 31
0.0
  0
LINE
  5
11C
100
AcDbEntity
100
AcDbLine
  8
Layer0
 62
256
370
-1
  6
ByLayer
 10
-170.8982551880535823
 20
264.3750896442503517
 30
0.0
 11
-171.1949156915765684
 21
264.0948301947278196
 31
0.0
  0
LINE
  5
11D
100
AcDbEntity
100
AcDbLine
  8
Layer0
 62
256
370
-1
  6
ByLayer
 10
-145.28782816963556
 20
266.6284498839713706
 30
0.0
 11
-144.9287396445365914
 21
266.8223783360854213
 31
0.0
  0
LINE
  5
11E
100
AcDbEntity
100
AcDbLine
  8
Layer0
 62
256
370
-1
  6
ByLayer
 10
-144.5316943874245794
 20
266.9167598872603548
 30
0.0
 11
-144.123750376423601
 21
266.9051625907584366
 31
0.0
  0
LINE
  5
11F
100
AcDbEntity
100
AcDbLine
  8
Layer0
 62
256
370
-1
  6
ByLayer
 10
-171.8629592611825672
 20
266.9051625907584366
 30
0.0
 11
-171.4719172064835675
 21
266.7883767831683599
 31
0.0
  0
LINE
  5
120
100
AcDbEntity
100
AcDbLine
  8
Layer0
 62
256
370
-1
  6
ByLayer
 10
-173.6544989243935788
 20
265.6096571511529874
 30
0.0
 11
-173.5377131168045821
 21
266.0006992058523565
 31
0.0
  0
LINE
  5
121
100
AcDbEntity
100
AcDbLine
  8
Layer0
 62
256
370
-1
  6
ByLayer
 10
-145.0108266547295841
 20
263.9349032955304892
 30
0.0
 11
-145.3583178833265777
 21
264.1489188544173885
 31
0.0
  0
LINE
  5
122
100
AcDbEntity
100
AcDbLine
  8
Layer0
 62
256
370
-1
  6
ByLayer
 10
-172.2709032721825793
 20
266.9167598872603548
 30
0.0
 11
-171.8629592611825672
 21
266.9051625907584366
 31
0.0
  0
LINE
  5
123
100
AcDbEntity
100
AcDbLine
  8
Layer0
 62
256
370
-1
  6
ByLayer
 10
-173.5717146697215867
 20
264.8046678830404517
 30
0.0
 11
-173.6660962208965771
 21
265.2017131401523784
 31
0.0
  0
LINE
  5
124
100
AcDbEntity
100
AcDbLine
  8
Layer0
 62
256
370
-1
  6
ByLayer
 10
-145.7985042320455875
 20
266.0006992058523565
 30
0.0
 11
-145.5844886731595693
 21
266.3481904344483837
 31
0.0
  0
LINE
  5
125
100
AcDbEntity
100
AcDbLine
  8
Layer0
 62
256
370
-1
  6
ByLayer
 10
-186.8083874404285893
 20
216.6051625907581979
 30
0.0
 11
-186.4173453857295897
 21
216.488376783168718
 31
0.0
  0
LINE
  5
126
100
AcDbEntity
100
AcDbLine
  8
Layer0
 62
256
370
-1
  6
ByLayer
 10
-145.3583178833265777
 20
264.1489188544173885
 30
0.0
 11
-145.6385773328485698
 21
264.4455793579408009
 31
0.0
  0
LINE
  5
127
100
AcDbEntity
100
AcDbLine
  8
Layer0
 62
256
370
-1
  6
ByLayer
 10
-188.6115244001425708
 20
214.9017131401523955
 30
0.0
 11
-188.5999271036405673
 21
215.3096571511530044
 31
0.0
  0
LINE
  5
128
100
AcDbEntity
100
AcDbLine
  8
Layer0
 62
256
370
-1
  6
ByLayer
 10
-171.1244259778865739
 20
266.5743612242813469
 30
0.0
 11
-170.8441665283635871
 21
266.2777007207583893
 31
0.0
  0
LINE
  5
129
100
AcDbEntity
100
AcDbLine
  8
Layer0
 62
256
370
-1
  6
ByLayer
 10
-142.828244936818578
 20
265.1136229275462028
 30
0.0
 11
-142.9450307444075747
 21
264.7225808728472884
 31
0.0
  0
LINE
  5
12A
100
AcDbEntity
100
AcDbLine
  8
Layer0
 62
256
370
-1
  6
ByLayer
 10
-187.216331451428573
 20
216.6167598872607982
 30
0.0
 11
-186.8083874404285893
 21
216.6051625907581979
 31
0.0
  0
LINE
  5
12B
100
AcDbEntity
100
AcDbLine
  8
Layer0
 62
256
370
-1
  6
ByLayer
 10
-186.0698541571325677
 20
216.274361224281904
 30
0.0
 11
-185.7895947076095808
 21
215.97770072075852
 31
0.0
  0
LINE
  5
12C
100
AcDbEntity
100
AcDbLine
  8
Layer0
 62
256
370
-1
  6
ByLayer
 10
-188.5171428489675804
 20
214.5046678830404119
 30
0.0
 11
-188.6115244001425708
 21
214.9017131401523955
 31
0.0
  0
LINE
  5
12D
100
AcDbEntity
100
AcDbLine
  8
Layer0
 62
256
370
-1
  6
ByLayer
 10
-188.4831412960505759
 20
215.7006992058519188
 30
0.0
 11
-188.2691257371635913
 21
216.0481904344489124
 31
0.0
  0
LINE
  5
12E
100
AcDbEntity
100
AcDbLine
  8
Layer0
 62
256
370
-1
  6
ByLayer
 10
-185.5956662554955869
 20
215.6186121956588977
 30
0.0
 11
-185.5012847043205682
 21
215.2215669385469141
 31
0.0
  0
LINE
  5
12F
100
AcDbEntity
100
AcDbLine
  8
Layer0
 62
256
370
-1
  6
ByLayer
 10
-186.4173453857295897
 20
216.488376783168718
 30
0.0
 11
-186.0698541571325677
 21
216.274361224281904
 31
0.0
  0
LINE
  5
130
100
AcDbEntity
100
AcDbLine
  8
Layer0
 62
256
370
-1
  6
ByLayer
 10
-188.2691257371635913
 20
216.0481904344489124
 30
0.0
 11
-187.9724652336405768
 21
216.3284498839715013
 31
0.0
  0
LINE
  5
131
100
AcDbEntity
100
AcDbLine
  8
Layer0
 62
256
370
-1
  6
ByLayer
 10
-143.7327083217245729
 20
266.7883767831683599
 30
0.0
 11
-143.3852170931275793
 21
266.5743612242813469
 31
0.0
  0
LINE
  5
132
100
AcDbEntity
100
AcDbLine
  8
Layer0
 62
256
370
-1
  6
ByLayer
 10
-144.123750376423601
 20
266.9051625907584366
 30
0.0
 11
-143.7327083217245729
 21
266.7883767831683599
 31
0.0
  0
LINE
  5
133
100
AcDbEntity
100
AcDbLine
  8
Layer0
 62
256
370
-1
  6
ByLayer
 10
-187.6954637187335777
 20
213.63490329553062
 30
0.0
 11
-188.0429549473305713
 21
213.8489188544174056
 31
0.0
  0
LINE
  5
134
100
AcDbEntity
100
AcDbLine
  8
Layer0
 62
256
370
-1
  6
ByLayer
 10
-186.1403438708225906
 20
213.7948301947278082
 30
0.0
 11
-186.4994323959225824
 21
213.6009017426140133
 31
0.0
  0
LINE
  5
135
100
AcDbEntity
100
AcDbLine
  8
Layer0
 62
256
370
-1
  6
ByLayer
 10
-185.7895947076095808
 20
215.97770072075852
 30
0.0
 11
-185.5956662554955869
 21
215.6186121956588977
 31
0.0
  0
LINE
  5
136
100
AcDbEntity
100
AcDbLine
  8
Layer0
 62
256
370
-1
  6
ByLayer
 10
-188.0429549473305713
 20
213.8489188544174056
 30
0.0
 11
-188.3232143968535865
 21
214.145579357940818
 31
0.0
  0
LINE
  5
137
100
AcDbEntity
100
AcDbLine
  8
Layer0
 62
256
370
-1
  6
ByLayer
 10
-172.6679485292945913
 20
266.8223783360854213
 30
0.0
 11
-172.2709032721825793
 21
266.9167598872603548
 31
0.0
  0
LINE
  5
138
100
AcDbEntity
100
AcDbLine
  8
Layer0
 62
256
370
-1
  6
ByLayer
 10
-143.3852170931275793
 20
266.5743612242813469
 30
0.0
 11
-143.1049576436045925
 21
266.2777007207583893
 31
0.0
  0
LINE
  5
139
100
AcDbEntity
100
AcDbLine
  8
Layer0
 62
256
370
-1
  6
ByLayer
 10
-171.9510494737885722
 20
263.8065201914384943
 30
0.0
 11
-172.3589934847885843
 21
263.8181174879410946
 31
0.0
  0
LINE
  5
13A
100
AcDbEntity
100
AcDbLine
  8
Layer0
 62
256
370
-1
  6
ByLayer
 10
-186.8964776530345944
 20
213.5065201914385113
 30
0.0
 11
-187.3044216640355728
 21
213.5181174879411117
 31
0.0
  0
LINE
  5
13B
100
AcDbEntity
100
AcDbLine
  8
Layer0
 62
256
370
-1
  6
ByLayer
 10
-145.915290039635579
 20
265.6096571511529874
 30
0.0
 11
-145.7985042320455875
 21
266.0006992058523565
 31
0.0
  0
LINE
  5
13C
100
AcDbEntity
100
AcDbLine
  8
Layer0
 62
256
370
-1
  6
ByLayer
 10
-171.1949156915765684
 20
264.0948301947278196
 30
0.0
 11
-171.5540042166765886
 21
263.9009017426139962
 31
0.0
  0
LINE
  5
13D
100
AcDbEntity
100
AcDbLine
  8
Layer0
 62
256
370
-1
  6
ByLayer
 10
-171.5540042166765886
 20
263.9009017426139962
 30
0.0
 11
-171.9510494737885722
 21
263.8065201914384943
 31
0.0
  0
LINE
  5
13E
100
AcDbEntity
100
AcDbLine
  8
Layer0
 62
256
370
-1
  6
ByLayer
 10
-145.5844886731595693
 20
266.3481904344483837
 30
0.0
 11
-145.28782816963556
 21
266.6284498839713706
 31
0.0
  0
LINE
  5
13F
100
AcDbEntity
100
AcDbLine
  8
Layer0
 62
256
370
-1
  6
ByLayer
 10
-173.3777862176075928
 20
264.4455793579408009
 30
0.0
 11
-173.5717146697215867
 21
264.8046678830404517
 31
0.0
  0
LINE
  5
140
100
AcDbEntity
100
AcDbLine
  8
Layer0
 62
256
370
-1
  6
ByLayer
 10
-187.3044216640355728
 20
213.5181174879411117
 30
0.0
 11
-187.6954637187335777
 21
213.63490329553062
 31
0.0
  0
LINE
  5
141
100
AcDbEntity
100
AcDbLine
  8
Layer0
 62
256
370
-1
  6
ByLayer
 10
-173.0975267680845775
 20
264.1489188544173885
 30
0.0
 11
-173.3777862176075928
 21
264.4455793579408009
 31
0.0
  0
LINE
  5
142
100
AcDbEntity
100
AcDbLine
  8
Layer0
 62
256
370
-1
  6
ByLayer
 10
-185.6296678084125915
 20
214.4225808728473055
 30
0.0
 11
-185.843683367299576
 21
214.0750896442503972
 31
0.0
  0
LINE
  5
143
100
AcDbEntity
100
AcDbLine
  8
Layer0
 62
256
370
-1
  6
ByLayer
 10
-173.3236975579175692
 20
266.3481904344483837
 30
0.0
 11
-173.027037054394583
 21
266.6284498839713706
 31
0.0
  0
LINE
  5
144
100
AcDbEntity
100
AcDbLine
  8
Layer0
 62
256
370
-1
  6
ByLayer
 10
-173.027037054394583
 20
266.6284498839713706
 30
0.0
 11
-172.6679485292945913
 21
266.8223783360854213
 31
0.0
  0
LINE
  5
145
100
AcDbEntity
100
AcDbLine
  8
Layer0
 62
256
370
-1
  6
ByLayer
 10
-170.5674538215765779
 20
265.1136229275462028
 30
0.0
 11
-170.6842396291665693
 21
264.7225808728472884
 31
0.0
  0
LINE
  5
146
100
AcDbEntity
100
AcDbLine
  8
Layer0
 62
256
370
-1
  6
ByLayer
 10
-143.4557068068175738
 20
264.0948301947278196
 30
0.0
 11
-143.1590463032945593
 21
264.3750896442503517
 31
0.0
  0
LINE
  5
147
100
AcDbEntity
100
AcDbLine
  8
Layer0
 62
256
370
-1
  6
ByLayer
 10
-143.1590463032945593
 20
264.3750896442503517
 30
0.0
 11
-142.9450307444075747
 21
264.7225808728472884
 31
0.0
  0
LINE
  5
148
100
AcDbEntity
100
AcDbLine
  8
Layer0
 62
256
370
-1
  6
ByLayer
 10
-173.0975267680845775
 20
264.1489188544173885
 30
0.0
 11
-172.7500355394875839
 21
263.9349032955304892
 31
0.0
  0
LINE
  5
149
100
AcDbEntity
100
AcDbLine
  8
Layer0
 62
256
370
-1
  6
ByLayer
 10
-172.7500355394875839
 20
263.9349032955304892
 30
0.0
 11
-172.3589934847885843
 21
263.8181174879410946
 31
0.0
  0
LINE
  5
14A
100
AcDbEntity
100
AcDbLine
  8
Layer0
 62
256
370
-1
  6
ByLayer
 10
-170.8982551880535823
 20
264.3750896442503517
 30
0.0
 11
-170.6842396291665693
 21
264.7225808728472884
 31
0.0
  0
LINE
  5
14B
100
AcDbEntity
100
AcDbLine
  8
Layer0
 62
256
370
-1
  6
ByLayer
 10
-170.5674538215765779
 20
265.1136229275462028
 30
0.0
 11
-170.5558565250745744
 21
265.5215669385469255
 31
0.0
  0
LINE
  5
14C
100
AcDbEntity
100
AcDbLine
  8
Layer0
 62
256
370
-1
  6
ByLayer
 10
-170.5558565250745744
 20
265.5215669385469255
 30
0.0
 11
-170.6502380762495932
 21
265.9186121956583975
 31
0.0
  0
LINE
  5
14D
100
AcDbEntity
100
AcDbLine
  8
Layer0
 62
256
370
-1
  6
ByLayer
 10
-170.6502380762495932
 20
265.9186121956583975
 30
0.0
 11
-170.8441665283635871
 21
266.2777007207583893
 31
0.0
  0
LINE
  5
14E
100
AcDbEntity
100
AcDbLine
  8
Layer0
 62
256
370
-1
  6
ByLayer
 10
-171.1244259778865739
 20
266.5743612242813469
 30
0.0
 11
-171.4719172064835675
 21
266.7883767831683599
 31
0.0
  0
LINE
  5
14F
100
AcDbEntity
100
AcDbLine
  8
Layer0
 62
256
370
-1
  6
ByLayer
 10
-173.3236975579175692
 20
266.3481904344483837
 30
0.0
 11
-173.5377131168045821
 21
266.0006992058523565
 31
0.0
  0
LINE
  5
150
100
AcDbEntity
100
AcDbLine
  8
Layer0
 62
256
370
-1
  6
ByLayer
 10
-173.6544989243935788
 20
265.6096571511529874
 30
0.0
 11
-173.6660962208965771
 21
265.2017131401523784
 31
0.0
  0
LINE
  5
151
100
AcDbEntity
100
AcDbLine
  8
Layer0
 62
256
370
-1
  6
ByLayer
 10
-145.0108266547295841
 20
263.9349032955304892
 30
0.0
 11
-144.6197846000305844
 21
263.8181174879410946
 31
0.0
  0
LINE
  5
152
100
AcDbEntity
100
AcDbLine
  8
Layer0
 62
256
370
-1
  6
ByLayer
 10
-144.6197846000305844
 20
263.8181174879410946
 30
0.0
 11
-144.2118405890295776
 21
263.8065201914384943
 31
0.0
  0
LINE
  5
153
100
AcDbEntity
100
AcDbLine
  8
Layer0
 62
256
370
-1
  6
ByLayer
 10
-144.2118405890295776
 20
263.8065201914384943
 30
0.0
 11
-143.8147953319175656
 21
263.9009017426139962
 31
0.0
  0
LINE
  5
154
100
AcDbEntity
100
AcDbLine
  8
Layer0
 62
256
370
-1
  6
ByLayer
 10
-143.8147953319175656
 20
263.9009017426139962
 30
0.0
 11
-143.4557068068175738
 21
264.0948301947278196
 31
0.0
  0
LINE
  5
155
100
AcDbEntity
100
AcDbLine
  8
Layer0
 62
256
370
-1
  6
ByLayer
 10
-187.216331451428573
 20
216.6167598872607982
 30
0.0
 11
-187.613376708540585
 21
216.5223783360852963
 31
0.0
  0
LINE
  5
156
100
AcDbEntity
100
AcDbLine
  8
Layer0
 62
256
370
-1
  6
ByLayer
 10
-187.613376708540585
 20
216.5223783360852963
 30
0.0
 11
-187.9724652336405768
 21
216.3284498839715013
 31
0.0
  0
LINE
  5
157
100
AcDbEntity
100
AcDbLine
  8
Layer0
 62
256
370
-1
  6
ByLayer
 10
-188.4831412960505759
 20
215.7006992058519188
 30
0.0
 11
-188.5999271036405673
 21
215.3096571511530044
 31
0.0
  0
LINE
  5
158
100
AcDbEntity
100
AcDbLine
  8
Layer0
 62
256
370
-1
  6
ByLayer
 10
-188.5171428489675804
 20
214.5046678830404119
 30
0.0
 11
-188.3232143968535865
 21
214.145579357940818
 31
0.0
  0
LINE
  5
159
100
AcDbEntity
100
AcDbLine
  8
Layer0
 62
256
370
-1
  6
ByLayer
 10
-186.8964776530345944
 20
213.5065201914385113
 30
0.0
 11
-186.4994323959225824
 21
213.6009017426140133
 31
0.0
  0
LINE
  5
15A
100
AcDbEntity
100
AcDbLine
  8
Layer0
 62
256
370
-1
  6
ByLayer
 10
-186.1403438708225906
 20
213.7948301947278082
 30
0.0
 11
-185.843683367299576
 21
214.0750896442503972
 31
0.0
  0
LINE
  5
15B
100
AcDbEntity
100
AcDbLine
  8
Layer0
 62
256
370
-1
  6
ByLayer
 10
-185.6296678084125915
 20
214.4225808728473055
 30
0.0
 11
-185.5128820008235664
 21
214.8136229275462199
 31
0.0
  0
LINE
  5
15C
100
AcDbEntity
100
AcDbLine
  8
Layer0
 62
256
370
-1
  6
ByLayer
 10
-185.5128820008235664
 20
214.8136229275462199
 30
0.0
 11
-185.5012847043205682
 21
215.2215669385469141
 31
0.0
  0
LINE
  5
15D
100
AcDbEntity
100
AcDbLine
  8
Layer0
 62
256
370
-1
  6
ByLayer
 10
-142.828244936818578
 20
265.1136229275462028
 30
0.0
 11
-142.8166476403155798
 21
265.5215669385469255
 31
0.0
  0
LINE
  5
15E
100
AcDbEntity
100
AcDbLine
  8
Layer0
 62
256
370
-1
  6
ByLayer
 10
-142.8166476403155798
 20
265.5215669385469255
 30
0.0
 11
-142.9110291914915649
 21
265.9186121956583975
 31
0.0
  0
LINE
  5
15F
100
AcDbEntity
100
AcDbLine
  8
Layer0
 62
256
370
-1
  6
ByLayer
 10
-142.9110291914915649
 20
265.9186121956583975
 30
0.0
 11
-143.1049576436045925
 21
266.2777007207583893
 31
0.0
  0
LINE
  5
160
100
AcDbEntity
100
AcDbLine
  8
Layer0
 62
256
370
-1
  6
ByLayer
 10
-144.5316943874245794
 20
266.9167598872603548
 30
0.0
 11
-144.9287396445365914
 21
266.8223783360854213
 31
0.0
  0
LINE
  5
161
100
AcDbEntity
100
AcDbLine
  8
Layer0
 62
256
370
-1
  6
ByLayer
 10
-145.915290039635579
 20
265.6096571511529874
 30
0.0
 11
-145.9268873361375825
 21
265.2017131401523784
 31
0.0
  0
LINE
  5
162
100
AcDbEntity
100
AcDbLine
  8
Layer0
 62
256
370
-1
  6
ByLayer
 10
-145.9268873361375825
 20
265.2017131401523784
 30
0.0
 11
-145.8325057849625921
 21
264.8046678830404517
 31
0.0
  0
LINE
  5
163
100
AcDbEntity
100
AcDbLine
  8
Layer0
 62
256
370
-1
  6
ByLayer
 10
-145.8325057849625921
 20
264.8046678830404517
 30
0.0
 11
-145.6385773328485698
 21
264.4455793579408009
 31
0.0
  0
LINE
  5
164
100
AcDbEntity
100
AcDbLine
  8
Layer0
 62
256
370
-1
  6
ByLayer
 10
-198.7154821022115812
 20
278.0038212109903952
 30
0.0
 11
-197.9919392375185794
 21
278.3035224785044193
 31
0.0
  0
LINE
  5
165
100
AcDbEntity
100
AcDbLine
  8
Layer0
 62
256
370
-1
  6
ByLayer
 10
-197.2154821022115812
 20
278.4057449996373634
 30
0.0
 11
-197.9919392375185794
 21
278.3035224785044193
 31
0.0
  0
LINE
  5
166
100
AcDbEntity
100
AcDbLine
  8
Layer0
 62
256
370
-1
  6
ByLayer
 10
-197.2154821022115812
 20
278.4057449996373634
 30
0.0
 11
-129.1516083953225973
 21
278.4057449996373634
 31
0.0
  0
LINE
  5
167
100
AcDbEntity
100
AcDbLine
  8
Layer0
 62
256
370
-1
  6
ByLayer
 10
-128.3751512600145759
 20
278.3035224785044193
 30
0.0
 11
-129.1516083953225973
 21
278.4057449996373634
 31
0.0
  0
LINE
  5
168
100
AcDbEntity
100
AcDbLine
  8
Layer0
 62
256
370
-1
  6
ByLayer
 10
-127.6516083953225831
 20
278.0038212109903952
 30
0.0
 11
-128.3751512600145759
 21
278.3035224785044193
 31
0.0
  0
LINE
  5
169
100
AcDbEntity
100
AcDbLine
  8
Layer0
 62
256
370
-1
  6
ByLayer
 10
-127.0302880517625823
 20
277.5270653431973642
 30
0.0
 11
-127.6516083953225831
 21
278.0038212109903952
 31
0.0
  0
LINE
  5
16A
100
AcDbEntity
100
AcDbLine
  8
Layer0
 62
256
370
-1
  6
ByLayer
 10
-126.5535321839685849
 20
276.9057449996373634
 30
0.0
 11
-127.0302880517625823
 21
277.5270653431973642
 31
0.0
  0
LINE
  5
16B
100
AcDbEntity
100
AcDbLine
  8
Layer0
 62
256
370
-1
  6
ByLayer
 10
-126.2538309164545751
 20
276.1822021349454417
 30
0.0
 11
-126.5535321839685849
 21
276.9057449996373634
 31
0.0
  0
LINE
  5
16C
100
AcDbEntity
100
AcDbLine
  8
Layer0
 62
256
370
-1
  6
ByLayer
 10
-126.1516083953225831
 20
275.4057449996373634
 30
0.0
 11
-126.2538309164545751
 21
276.1822021349454417
 31
0.0
  0
LINE
  5
16D
100
AcDbEntity
100
AcDbLine
  8
Layer0
 62
256
370
-1
  6
ByLayer
 10
-126.1516083953225831
 20
275.4057449996373634
 30
0.0
 11
-126.1516083953225831
 21
192.9057449996373919
 31
0.0
  0
LINE
  5
16E
100
AcDbEntity
100
AcDbLine
  8
Layer0
 62
256
370
-1
  6
ByLayer
 10
-126.2538309164545751
 20
192.1292878643299105
 30
0.0
 11
-126.1516083953225831
 21
192.9057449996373919
 31
0.0
  0
LINE
  5
16F
100
AcDbEntity
100
AcDbLine
  8
Layer0
 62
256
370
-1
  6
ByLayer
 10
-126.5535321839685849
 20
191.4057449996373919
 30
0.0
 11
-126.2538309164545751
 21
192.1292878643299105
 31
0.0
  0
LINE
  5
170
100
AcDbEntity
100
AcDbLine
  8
Layer0
 62
256
370
-1
  6
ByLayer
 10
-127.0302880517625823
 20
190.784424656077789
 30
0.0
 11
-126.5535321839685849
 21
191.4057449996373919
 31
0.0
  0
LINE
  5
171
100
AcDbEntity
100
AcDbLine
  8
Layer0
 62
256
370
-1
  6
ByLayer
 10
-127.6516083953225831
 20
190.3076687882841043
 30
0.0
 11
-127.0302880517625823
 21
190.784424656077789
 31
0.0
  0
LINE
  5
172
100
AcDbEntity
100
AcDbLine
  8
Layer0
 62
256
370
-1
  6
ByLayer
 10
-128.3751512600145759
 20
190.0079675207701939
 30
0.0
 11
-127.6516083953225831
 21
190.3076687882841043
 31
0.0
  0
LINE
  5
173
100
AcDbEntity
100
AcDbLine
  8
Layer0
 62
256
370
-1
  6
ByLayer
 10
-129.1516083953225973
 20
189.9057449996375055
 30
0.0
 11
-128.3751512600145759
 21
190.0079675207701939
 31
0.0
  0
LINE
  5
174
100
AcDbEntity
100
AcDbLine
  8
Layer0
 62
256
370
-1
  6
ByLayer
 10
-129.1516083953225973
 20
189.9057449996375055
 30
0.0
 11
-197.2154821022115812
 21
189.9057449996375055
 31
0.0
  0
LINE
  5
175
100
AcDbEntity
100
AcDbLine
  8
Layer0
 62
256
370
-1
  6
ByLayer
 10
-197.9919392375185794
 20
190.0079675207703929
 30
0.0
 11
-197.2154821022115812
 21
189.9057449996375055
 31
0.0
  0
LINE
  5
176
100
AcDbEntity
100
AcDbLine
  8
Layer0
 62
256
370
-1
  6
ByLayer
 10
-198.7154821022115812
 20
190.3076687882841043
 30
0.0
 11
-197.9919392375185794
 21
190.0079675207703929
 31
0.0
  0
LINE
  5
177
100
AcDbEntity
100
AcDbLine
  8
Layer0
 62
256
370
-1
  6
ByLayer
 10
-199.3368024457705872
 20
190.7844246560777037
 30
0.0
 11
-198.7154821022115812
 21
190.3076687882841043
 31
0.0
  0
LINE
  5
178
100
AcDbEntity
100
AcDbLine
  8
Layer0
 62
256
370
-1
  6
ByLayer
 10
-199.8135583135645845
 20
191.4057449996375055
 30
0.0
 11
-199.3368024457705872
 21
190.7844246560777037
 31
0.0
  0
LINE
  5
179
100
AcDbEntity
100
AcDbLine
  8
Layer0
 62
256
370
-1
  6
ByLayer
 10
-200.1132595810785801
 20
192.1292878643299105
 30
0.0
 11
-199.8135583135645845
 21
191.4057449996375055
 31
0.0
  0
LINE
  5
17A
100
AcDbEntity
100
AcDbLine
  8
Layer0
 62
256
370
-1
  6
ByLayer
 10
-200.2154821022115812
 20
192.9057449996375055
 30
0.0
 11
-200.1132595810785801
 21
192.1292878643299105
 31
0.0
  0
LINE
  5
17B
100
AcDbEntity
100
AcDbLine
  8
Layer0
 62
256
370
-1
  6
ByLayer
 10
-200.2154821022115812
 20
192.9057449996375055
 30
0.0
 11
-200.2154821022115812
 21
275.4057449996373634
 31
0.0
  0
LINE
  5
17C
100
AcDbEntity
100
AcDbLine
  8
Layer0
 62
256
370
-1
  6
ByLayer
 10
-200.1132595810785801
 20
276.1822021349454417
 30
0.0
 11
-200.2154821022115812
 21
275.4057449996373634
 31
0.0
  0
LINE
  5
17D
100
AcDbEntity
100
AcDbLine
  8
Layer0
 62
256
370
-1
  6
ByLayer
 10
-199.8135583135645845
 20
276.9057449996373634
 30
0.0
 11
-200.1132595810785801
 21
276.1822021349454417
 31
0.0
  0
LINE
  5
17E
100
AcDbEntity
100
AcDbLine
  8
Layer0
 62
256
370
-1
  6
ByLayer
 10
-199.3368024457705872
 20
277.5270653431973642
 30
0.0
 11
-199.8135583135645845
 21
276.9057449996373634
 31
0.0
  0
LINE
  5
17F
100
AcDbEntity
100
AcDbLine
  8
Layer0
 62
256
370
-1
  6
ByLayer
 10
-198.7154821022115812
 20
278.0038212109903952
 30
0.0
 11
-199.3368024457705872
 21
277.5270653431973642
 31
0.0
  0
LINE
  5
180
100
AcDbEntity
100
AcDbLine
  8
Layer0
 62
256
370
-1
  6
ByLayer
 10
-194.2154821022115812
 20
273.9057449996373634
 30
0.0
 11
-194.2665933627775701
 21
274.2939735672913457
 31
0.0
  0
LINE
  5
181
100
AcDbEntity
100
AcDbLine
  8
Layer0
 62
256
370
-1
  6
ByLayer
 10
-194.2665933627775701
 20
274.2939735672913457
 30
0.0
 11
-194.4164439965345821
 21
274.6557449996373634
 31
0.0
  0
LINE
  5
182
100
AcDbEntity
100
AcDbLine
  8
Layer0
 62
256
370
-1
  6
ByLayer
 10
-194.4164439965345821
 20
274.6557449996373634
 30
0.0
 11
-194.6548219304315808
 21
274.9664051714173638
 31
0.0
  0
LINE
  5
183
100
AcDbEntity
100
AcDbLine
  8
Layer0
 62
256
370
-1
  6
ByLayer
 10
-194.6548219304315808
 20
274.9664051714173638
 30
0.0
 11
-194.9654821022115812
 21
275.2047831053143909
 31
0.0
  0
LINE
  5
184
100
AcDbEntity
100
AcDbLine
  8
Layer0
 62
256
370
-1
  6
ByLayer
 10
-194.9654821022115812
 20
275.2047831053143909
 30
0.0
 11
-195.3272535345575704
 21
275.3546337390713461
 31
0.0
  0
LINE
  5
185
100
AcDbEntity
100
AcDbLine
  8
Layer0
 62
256
370
-1
  6
ByLayer
 10
-195.3272535345575704
 20
275.3546337390713461
 30
0.0
 11
-195.7154821022115812
 21
275.4057449996373634
 31
0.0
  0
LINE
  5
186
100
AcDbEntity
100
AcDbLine
  8
Layer0
 62
256
370
-1
  6
ByLayer
 10
-195.7154821022115812
 20
275.4057449996373634
 30
0.0
 11
-196.1037106698655919
 21
275.3546337390713461
 31
0.0
  0
LINE
  5
187
100
AcDbEntity
100
AcDbLine
  8
Layer0
 62
256
370
-1
  6
ByLayer
 10
-196.1037106698655919
 20
275.3546337390713461
 30
0.0
 11
-196.4654821022115812
 21
275.2047831053143909
 31
0.0
  0
LINE
  5
188
100
AcDbEntity
100
AcDbLine
  8
Layer0
 62
256
370
-1
  6
ByLayer
 10
-196.4654821022115812
 20
275.2047831053143909
 30
0.0
 11
-196.7761422739915815
 21
274.9664051714173638
 31
0.0
  0
LINE
  5
189
100
AcDbEntity
100
AcDbLine
  8
Layer0
 62
256
370
-1
  6
ByLayer
 10
-196.7761422739915815
 20
274.9664051714173638
 30
0.0
 11
-197.0145202078875855
 21
274.6557449996373634
 31
0.0
  0
LINE
  5
18A
100
AcDbEntity
100
AcDbLine
  8
Layer0
 62
256
370
-1
  6
ByLayer
 10
-197.0145202078875855
 20
274.6557449996373634
 30
0.0
 11
-197.1643708416445691
 21
274.2939735672913457
 31
0.0
  0
LINE
  5
18B
100
AcDbEntity
100
AcDbLine
  8
Layer0
 62
256
370
-1
  6
ByLayer
 10
-197.1643708416445691
 20
274.2939735672913457
 30
0.0
 11
-197.2154821022115812
 21
273.9057449996373634
 31
0.0
  0
LINE
  5
18C
100
AcDbEntity
100
AcDbLine
  8
Layer0
 62
256
370
-1
  6
ByLayer
 10
-197.2154821022115812
 20
273.9057449996373634
 30
0.0
 11
-197.1643708416445691
 21
273.5175164319833812
 31
0.0
  0
LINE
  5
18D
100
AcDbEntity
100
AcDbLine
  8
Layer0
 62
256
370
-1
  6
ByLayer
 10
-197.1643708416445691
 20
273.5175164319833812
 30
0.0
 11
-197.0145202078875855
 21
273.1557449996373634
 31
0.0
  0
LINE
  5
18E
100
AcDbEntity
100
AcDbLine
  8
Layer0
 62
256
370
-1
  6
ByLayer
 10
-197.0145202078875855
 20
273.1557449996373634
 30
0.0
 11
-196.7761422739915815
 21
272.8450848278573631
 31
0.0
  0
LINE
  5
18F
100
AcDbEntity
100
AcDbLine
  8
Layer0
 62
256
370
-1
  6
ByLayer
 10
-196.7761422739915815
 20
272.8450848278573631
 30
0.0
 11
-196.4654821022115812
 21
272.6067068939604496
 31
0.0
  0
LINE
  5
190
100
AcDbEntity
100
AcDbLine
  8
Layer0
 62
256
370
-1
  6
ByLayer
 10
-196.4654821022115812
 20
272.6067068939604496
 30
0.0
 11
-196.1037106698655919
 21
272.4568562602033808
 31
0.0
  0
LINE
  5
191
100
AcDbEntity
100
AcDbLine
  8
Layer0
 62
256
370
-1
  6
ByLayer
 10
-196.1037106698655919
 20
272.4568562602033808
 30
0.0
 11
-195.7154821022115812
 21
272.4057449996373634
 31
0.0
  0
LINE
  5
192
100
AcDbEntity
100
AcDbLine
  8
Layer0
 62
256
370
-1
  6
ByLayer
 10
-195.7154821022115812
 20
272.4057449996373634
 30
0.0
 11
-195.3272535345575704
 21
272.4568562602033808
 31
0.0
  0
LINE
  5
193
100
AcDbEntity
100
AcDbLine
  8
Layer0
 62
256
370
-1
  6
ByLayer
 10
-195.3272535345575704
 20
272.4568562602033808
 30
0.0
 11
-194.9654821022115812
 21
272.6067068939604496
 31
0.0
  0
LINE
  5
194
100
AcDbEntity
100
AcDbLine
  8
Layer0
 62
256
370
-1
  6
ByLayer
 10
-194.9654821022115812
 20
272.6067068939604496
 30
0.0
 11
-194.6548219304315808
 21
272.8450848278573631
 31
0.0
  0
LINE
  5
195
100
AcDbEntity
100
AcDbLine
  8
Layer0
 62
256
370
-1
  6
ByLayer
 10
-194.6548219304315808
 20
272.8450848278573631
 30
0.0
 11
-194.4164439965345821
 21
273.1557449996373634
 31
0.0
  0
LINE
  5
196
100
AcDbEntity
100
AcDbLine
  8
Layer0
 62
256
370
-1
  6
ByLayer
 10
-194.4164439965345821
 20
273.1557449996373634
 30
0.0
 11
-194.2665933627775701
 21
273.5175164319833812
 31
0.0
  0
LINE
  5
197
100
AcDbEntity
100
AcDbLine
  8
Layer0
 62
256
370
-1
  6
ByLayer
 10
-194.2665933627775701
 20
273.5175164319833812
 30
0.0
 11
-194.2154821022115812
 21
273.9057449996373634
 31
0.0
  0
LINE
  5
198
100
AcDbEntity
100
AcDbLine
  8
Layer0
 62
256
370
-1
  6
ByLayer
 10
-132.1516083953225973
 20
273.9057449996373634
 30
0.0
 11
-132.1004971347555852
 21
273.5175164319833812
 31
0.0
  0
LINE
  5
199
100
AcDbEntity
100
AcDbLine
  8
Layer0
 62
256
370
-1
  6
ByLayer
 10
-132.1004971347555852
 20
273.5175164319833812
 30
0.0
 11
-131.9506465009986016
 21
273.1557449996373634
 31
0.0
  0
LINE
  5
19A
100
AcDbEntity
100
AcDbLine
  8
Layer0
 62
256
370
-1
  6
ByLayer
 10
-131.9506465009986016
 20
273.1557449996373634
 30
0.0
 11
-131.7122685671015745
 21
272.8450848278573631
 31
0.0
  0
LINE
  5
19B
100
AcDbEntity
100
AcDbLine
  8
Layer0
 62
256
370
-1
  6
ByLayer
 10
-131.7122685671015745
 20
272.8450848278573631
 30
0.0
 11
-131.4016083953225973
 21
272.6067068939604496
 31
0.0
  0
LINE
  5
19C
100
AcDbEntity
100
AcDbLine
  8
Layer0
 62
256
370
-1
  6
ByLayer
 10
-131.4016083953225973
 20
272.6067068939604496
 30
0.0
 11
-131.0398369629755848
 21
272.4568562602033808
 31
0.0
  0
LINE
  5
19D
100
AcDbEntity
100
AcDbLine
  8
Layer0
 62
256
370
-1
  6
ByLayer
 10
-131.0398369629755848
 20
272.4568562602033808
 30
0.0
 11
-130.6516083953225973
 21
272.4057449996373634
 31
0.0
  0
LINE
  5
19E
100
AcDbEntity
100
AcDbLine
  8
Layer0
 62
256
370
-1
  6
ByLayer
 10
-130.6516083953225973
 20
272.4057449996373634
 30
0.0
 11
-130.2633798276685866
 21
272.4568562602033808
 31
0.0
  0
LINE
  5
19F
100
AcDbEntity
100
AcDbLine
  8
Layer0
 62
256
370
-1
  6
ByLayer
 10
-130.2633798276685866
 20
272.4568562602033808
 30
0.0
 11
-129.9016083953225973
 21
272.6067068939604496
 31
0.0
  0
LINE
  5
1A0
100
AcDbEntity
100
AcDbLine
  8
Layer0
 62
256
370
-1
  6
ByLayer
 10
-129.9016083953225973
 20
272.6067068939604496
 30
0.0
 11
-129.5909482235425969
 21
272.8450848278573631
 31
0.0
  0
LINE
  5
1A1
100
AcDbEntity
100
AcDbLine
  8
Layer0
 62
256
370
-1
  6
ByLayer
 10
-129.5909482235425969
 20
272.8450848278573631
 30
0.0
 11
-129.3525702896455698
 21
273.1557449996373634
 31
0.0
  0
LINE
  5
1A2
100
AcDbEntity
100
AcDbLine
  8
Layer0
 62
256
370
-1
  6
ByLayer
 10
-129.3525702896455698
 20
273.1557449996373634
 30
0.0
 11
-129.2027196558885862
 21
273.5175164319833812
 31
0.0
  0
LINE
  5
1A3
100
AcDbEntity
100
AcDbLine
  8
Layer0
 62
256
370
-1
  6
ByLayer
 10
-129.2027196558885862
 20
273.5175164319833812
 30
0.0
 11
-129.1516083953225973
 21
273.9057449996373634
 31
0.0
  0
LINE
  5
1A4
100
AcDbEntity
100
AcDbLine
  8
Layer0
 62
256
370
-1
  6
ByLayer
 10
-129.1516083953225973
 20
273.9057449996373634
 30
0.0
 11
-129.2027196558885862
 21
274.2939735672913457
 31
0.0
  0
LINE
  5
1A5
100
AcDbEntity
100
AcDbLine
  8
Layer0
 62
256
370
-1
  6
ByLayer
 10
-129.2027196558885862
 20
274.2939735672913457
 30
0.0
 11
-129.3525702896455698
 21
274.6557449996373634
 31
0.0
  0
LINE
  5
1A6
100
AcDbEntity
100
AcDbLine
  8
Layer0
 62
256
370
-1
  6
ByLayer
 10
-129.3525702896455698
 20
274.6557449996373634
 30
0.0
 11
-129.5909482235425969
 21
274.9664051714173638
 31
0.0
  0
LINE
  5
1A7
100
AcDbEntity
100
AcDbLine
  8
Layer0
 62
256
370
-1
  6
ByLayer
 10
-129.5909482235425969
 20
274.9664051714173638
 30
0.0
 11
-129.9016083953225973
 21
275.2047831053143909
 31
0.0
  0
LINE
  5
1A8
100
AcDbEntity
100
AcDbLine
  8
Layer0
 62
256
370
-1
  6
ByLayer
 10
-129.9016083953225973
 20
275.2047831053143909
 30
0.0
 11
-130.2633798276685866
 21
275.3546337390713461
 31
0.0
  0
LINE
  5
1A9
100
AcDbEntity
100
AcDbLine
  8
Layer0
 62
256
370
-1
  6
ByLayer
 10
-130.2633798276685866
 20
275.3546337390713461
 30
0.0
 11
-130.6516083953225973
 21
275.4057449996373634
 31
0.0
  0
LINE
  5
1AA
100
AcDbEntity
100
AcDbLine
  8
Layer0
 62
256
370
-1
  6
ByLayer
 10
-130.6516083953225973
 20
275.4057449996373634
 30
0.0
 11
-131.0398369629755848
 21
275.3546337390713461
 31
0.0
  0
LINE
  5
1AB
100
AcDbEntity
100
AcDbLine
  8
Layer0
 62
256
370
-1
  6
ByLayer
 10
-131.0398369629755848
 20
275.3546337390713461
 30
0.0
 11
-131.4016083953225973
 21
275.2047831053143909
 31
0.0
  0
LINE
  5
1AC
100
AcDbEntity
100
AcDbLine
  8
Layer0
 62
256
370
-1
  6
ByLayer
 10
-131.4016083953225973
 20
275.2047831053143909
 30
0.0
 11
-131.7122685671015745
 21
274.9664051714173638
 31
0.0
  0
LINE
  5
1AD
100
AcDbEntity
100
AcDbLine
  8
Layer0
 62
256
370
-1
  6
ByLayer
 10
-131.7122685671015745
 20
274.9664051714173638
 30
0.0
 11
-131.9506465009986016
 21
274.6557449996373634
 31
0.0
  0
LINE
  5
1AE
100
AcDbEntity
100
AcDbLine
  8
Layer0
 62
256
370
-1
  6
ByLayer
 10
-131.9506465009986016
 20
274.6557449996373634
 30
0.0
 11
-132.1004971347555852
 21
274.2939735672913457
 31
0.0
  0
LINE
  5
1AF
100
AcDbEntity
100
AcDbLine
  8
Layer0
 62
256
370
-1
  6
ByLayer
 10
-132.1004971347555852
 20
274.2939735672913457
 30
0.0
 11
-132.1516083953225973
 21
273.9057449996373634
 31
0.0
  0
LINE
  5
1B0
100
AcDbEntity
100
AcDbLine
  8
Layer0
 62
256
370
-1
  6
ByLayer
 10
-132.1516083953225973
 20
194.4057449996375055
 30
0.0
 11
-132.1004971347555852
 21
194.0175164319836938
 31
0.0
  0
LINE
  5
1B1
100
AcDbEntity
100
AcDbLine
  8
Layer0
 62
256
370
-1
  6
ByLayer
 10
-132.1004971347555852
 20
194.0175164319836938
 30
0.0
 11
-131.9506465009986016
 21
193.6557449996375055
 31
0.0
  0
LINE
  5
1B2
100
AcDbEntity
100
AcDbLine
  8
Layer0
 62
256
370
-1
  6
ByLayer
 10
-131.9506465009986016
 20
193.6557449996375055
 30
0.0
 11
-131.7122685671015745
 21
193.3450848278576188
 31
0.0
  0
LINE
  5
1B3
100
AcDbEntity
100
AcDbLine
  8
Layer0
 62
256
370
-1
  6
ByLayer
 10
-131.7122685671015745
 20
193.3450848278576188
 30
0.0
 11
-131.4016083953225973
 21
193.1067068939608191
 31
0.0
  0
LINE
  5
1B4
100
AcDbEntity
100
AcDbLine
  8
Layer0
 62
256
370
-1
  6
ByLayer
 10
-131.4016083953225973
 20
193.1067068939608191
 30
0.0
 11
-131.0398369629755848
 21
192.9568562602038924
 31
0.0
  0
LINE
  5
1B5
100
AcDbEntity
100
AcDbLine
  8
Layer0
 62
256
370
-1
  6
ByLayer
 10
-131.0398369629755848
 20
192.9568562602038924
 30
0.0
 11
-130.6516083953225973
 21
192.9057449996375055
 31
0.0
  0
LINE
  5
1B6
100
AcDbEntity
100
AcDbLine
  8
Layer0
 62
256
370
-1
  6
ByLayer
 10
-130.6516083953225973
 20
192.9057449996375055
 30
0.0
 11
-130.2633798276685866
 21
192.9568562602038924
 31
0.0
  0
LINE
  5
1B7
100
AcDbEntity
100
AcDbLine
  8
Layer0
 62
256
370
-1
  6
ByLayer
 10
-130.2633798276685866
 20
192.9568562602038924
 30
0.0
 11
-129.9016083953225973
 21
193.1067068939608191
 31
0.0
  0
LINE
  5
1B8
100
AcDbEntity
100
AcDbLine
  8
Layer0
 62
256
370
-1
  6
ByLayer
 10
-129.9016083953225973
 20
193.1067068939608191
 30
0.0
 11
-129.5909482235425969
 21
193.3450848278576188
 31
0.0
  0
LINE
  5
1B9
100
AcDbEntity
100
AcDbLine
  8
Layer0
 62
256
370
-1
  6
ByLayer
 10
-129.5909482235425969
 20
193.3450848278576188
 30
0.0
 11
-129.3525702896455698
 21
193.6557449996375055
 31
0.0
  0
LINE
  5
1BA
100
AcDbEntity
100
AcDbLine
  8
Layer0
 62
256
370
-1
  6
ByLayer
 10
-129.3525702896455698
 20
193.6557449996375055
 30
0.0
 11
-129.2027196558885862
 21
194.0175164319836938
 31
0.0
  0
LINE
  5
1BB
100
AcDbEntity
100
AcDbLine
  8
Layer0
 62
256
370
-1
  6
ByLayer
 10
-129.2027196558885862
 20
194.0175164319836938
 30
0.0
 11
-129.1516083953225973
 21
194.4057449996375055
 31
0.0
  0
LINE
  5
1BC
100
AcDbEntity
100
AcDbLine
  8
Layer0
 62
256
370
-1
  6
ByLayer
 10
-129.1516083953225973
 20
194.4057449996375055
 30
0.0
 11
-129.2027196558885862
 21
194.7939735672912036
 31
0.0
  0
LINE
  5
1BD
100
AcDbEntity
100
AcDbLine
  8
Layer0
 62
256
370
-1
  6
ByLayer
 10
-129.2027196558885862
 20
194.7939735672912036
 30
0.0
 11
-129.3525702896455698
 21
195.1557449996375055
 31
0.0
  0
LINE
  5
1BE
100
AcDbEntity
100
AcDbLine
  8
Layer0
 62
256
370
-1
  6
ByLayer
 10
-129.3525702896455698
 20
195.1557449996375055
 30
0.0
 11
-129.5909482235425969
 21
195.466405171417307
 31
0.0
  0
LINE
  5
1BF
100
AcDbEntity
100
AcDbLine
  8
Layer0
 62
256
370
-1
  6
ByLayer
 10
-129.5909482235425969
 20
195.466405171417307
 30
0.0
 11
-129.9016083953225973
 21
195.7047831053141067
 31
0.0
  0
LINE
  5
1C0
100
AcDbEntity
100
AcDbLine
  8
Layer0
 62
256
370
-1
  6
ByLayer
 10
-129.9016083953225973
 20
195.7047831053141067
 30
0.0
 11
-130.2633798276685866
 21
195.8546337390710903
 31
0.0
  0
LINE
  5
1C1
100
AcDbEntity
100
AcDbLine
  8
Layer0
 62
256
370
-1
  6
ByLayer
 10
-130.2633798276685866
 20
195.8546337390710903
 30
0.0
 11
-130.6516083953225973
 21
195.9057449996375055
 31
0.0
  0
LINE
  5
1C2
100
AcDbEntity
100
AcDbLine
  8
Layer0
 62
256
370
-1
  6
ByLayer
 10
-130.6516083953225973
 20
195.9057449996375055
 30
0.0
 11
-131.0398369629755848
 21
195.8546337390710903
 31
0.0
  0
LINE
  5
1C3
100
AcDbEntity
100
AcDbLine
  8
Layer0
 62
256
370
-1
  6
ByLayer
 10
-131.0398369629755848
 20
195.8546337390710903
 30
0.0
 11
-131.4016083953225973
 21
195.7047831053141067
 31
0.0
  0
LINE
  5
1C4
100
AcDbEntity
100
AcDbLine
  8
Layer0
 62
256
370
-1
  6
ByLayer
 10
-131.4016083953225973
 20
195.7047831053141067
 30
0.0
 11
-131.7122685671015745
 21
195.466405171417307
 31
0.0
  0
LINE
  5
1C5
100
AcDbEntity
100
AcDbLine
  8
Layer0
 62
256
370
-1
  6
ByLayer
 10
-131.7122685671015745
 20
195.466405171417307
 30
0.0
 11
-131.9506465009986016
 21
195.1557449996375055
 31
0.0
  0
LINE
  5
1C6
100
AcDbEntity
100
AcDbLine
  8
Layer0
 62
256
370
-1
  6
ByLayer
 10
-131.9506465009986016
 20
195.1557449996375055
 30
0.0
 11
-132.1004971347555852
 21
194.7939735672912036
 31
0.0
  0
LINE
  5
1C7
100
AcDbEntity
100
AcDbLine
  8
Layer0
 62
256
370
-1
  6
ByLayer
 10
-132.1004971347555852
 20
194.7939735672912036
 30
0.0
 11
-132.1516083953225973
 21
194.4057449996375055
 31
0.0
  0
LINE
  5
1C8
100
AcDbEntity
100
AcDbLine
  8
Layer0
 62
256
370
-1
  6
ByLayer
 10
-195.7154821022115812
 20
195.9057449996375055
 30
0.0
 11
-196.1037106698655919
 21
195.8546337390710903
 31
0.0
  0
LINE
  5
1C9
100
AcDbEntity
100
AcDbLine
  8
Layer0
 62
256
370
-1
  6
ByLayer
 10
-196.1037106698655919
 20
195.8546337390710903
 30
0.0
 11
-196.4654821022115812
 21
195.7047831053141067
 31
0.0
  0
LINE
  5
1CA
100
AcDbEntity
100
AcDbLine
  8
Layer0
 62
256
370
-1
  6
ByLayer
 10
-196.4654821022115812
 20
195.7047831053141067
 30
0.0
 11
-196.7761422739915815
 21
195.466405171417307
 31
0.0
  0
LINE
  5
1CB
100
AcDbEntity
100
AcDbLine
  8
Layer0
 62
256
370
-1
  6
ByLayer
 10
-196.7761422739915815
 20
195.466405171417307
 30
0.0
 11
-197.0145202078885802
 21
195.1557449996375055
 31
0.0
  0
LINE
  5
1CC
100
AcDbEntity
100
AcDbLine
  8
Layer0
 62
256
370
-1
  6
ByLayer
 10
-197.0145202078885802
 20
195.1557449996375055
 30
0.0
 11
-197.1643708416455922
 21
194.7939735672913173
 31
0.0
  0
LINE
  5
1CD
100
AcDbEntity
100
AcDbLine
  8
Layer0
 62
256
370
-1
  6
ByLayer
 10
-197.1643708416455922
 20
194.7939735672913173
 30
0.0
 11
-197.2154821022115812
 21
194.4057449996375055
 31
0.0
  0
LINE
  5
1CE
100
AcDbEntity
100
AcDbLine
  8
Layer0
 62
256
370
-1
  6
ByLayer
 10
-197.2154821022115812
 20
194.4057449996375055
 30
0.0
 11
-197.1643708416455922
 21
194.0175164319836938
 31
0.0
  0
LINE
  5
1CF
100
AcDbEntity
100
AcDbLine
  8
Layer0
 62
256
370
-1
  6
ByLayer
 10
-197.1643708416455922
 20
194.0175164319836938
 30
0.0
 11
-197.0145202078885802
 21
193.6557449996375055
 31
0.0
  0
LINE
  5
1D0
100
AcDbEntity
100
AcDbLine
  8
Layer0
 62
256
370
-1
  6
ByLayer
 10
-197.0145202078885802
 20
193.6557449996375055
 30
0.0
 11
-196.7761422739915815
 21
193.3450848278577041
 31
0.0
  0
LINE
  5
1D1
100
AcDbEntity
100
AcDbLine
  8
Layer0
 62
256
370
-1
  6
ByLayer
 10
-196.7761422739915815
 20
193.3450848278577041
 30
0.0
 11
-196.4654821022115812
 21
193.1067068939608191
 31
0.0
  0
LINE
  5
1D2
100
AcDbEntity
100
AcDbLine
  8
Layer0
 62
256
370
-1
  6
ByLayer
 10
-196.4654821022115812
 20
193.1067068939608191
 30
0.0
 11
-196.1037106698655919
 21
192.9568562602038924
 31
0.0
  0
LINE
  5
1D3
100
AcDbEntity
100
AcDbLine
  8
Layer0
 62
256
370
-1
  6
ByLayer
 10
-196.1037106698655919
 20
192.9568562602038924
 30
0.0
 11
-195.7154821022115812
 21
192.9057449996375055
 31
0.0
  0
LINE
  5
1D4
100
AcDbEntity
100
AcDbLine
  8
Layer0
 62
256
370
-1
  6
ByLayer
 10
-195.7154821022115812
 20
192.9057449996375055
 30
0.0
 11
-195.3272535345575704
 21
192.9568562602038924
 31
0.0
  0
LINE
  5
1D5
100
AcDbEntity
100
AcDbLine
  8
Layer0
 62
256
370
-1
  6
ByLayer
 10
-195.3272535345575704
 20
192.9568562602038924
 30
0.0
 11
-194.9654821022115812
 21
193.1067068939608191
 31
0.0
  0
LINE
  5
1D6
100
AcDbEntity
100
AcDbLine
  8
Layer0
 62
256
370
-1
  6
ByLayer
 10
-194.9654821022115812
 20
193.1067068939608191
 30
0.0
 11
-194.6548219304315808
 21
193.3450848278577041
 31
0.0
  0
LINE
  5
1D7
100
AcDbEntity
100
AcDbLine
  8
Layer0
 62
256
370
-1
  6
ByLayer
 10
-194.6548219304315808
 20
193.3450848278577041
 30
0.0
 11
-194.4164439965345821
 21
193.6557449996375055
 31
0.0
  0
LINE
  5
1D8
100
AcDbEntity
100
AcDbLine
  8
Layer0
 62
256
370
-1
  6
ByLayer
 10
-194.4164439965345821
 20
193.6557449996375055
 30
0.0
 11
-194.2665933627775701
 21
194.0175164319836938
 31
0.0
  0
LINE
  5
1D9
100
AcDbEntity
100
AcDbLine
  8
Layer0
 62
256
370
-1
  6
ByLayer
 10
-194.2665933627775701
 20
194.0175164319836938
 30
0.0
 11
-194.2154821022115812
 21
194.4057449996375055
 31
0.0
  0
LINE
  5
1DA
100
AcDbEntity
100
AcDbLine
  8
Layer0
 62
256
370
-1
  6
ByLayer
 10
-194.2154821022115812
 20
194.4057449996375055
 30
0.0
 11
-194.2665933627775701
 21
194.7939735672913173
 31
0.0
  0
LINE
  5
1DB
100
AcDbEntity
100
AcDbLine
  8
Layer0
 62
256
370
-1
  6
ByLayer
 10
-194.2665933627775701
 20
194.7939735672913173
 30
0.0
 11
-194.4164439965345821
 21
195.1557449996375055
 31
0.0
  0
LINE
  5
1DC
100
AcDbEntity
100
AcDbLine
  8
Layer0
 62
256
370
-1
  6
ByLayer
 10
-194.4164439965345821
 20
195.1557449996375055
 30
0.0
 11
-194.6548219304315808
 21
195.466405171417307
 31
0.0
  0
LINE
  5
1DD
100
AcDbEntity
100
AcDbLine
  8
Layer0
 62
256
370
-1
  6
ByLayer
 10
-194.6548219304315808
 20
195.466405171417307
 30
0.0
 11
-194.9654821022115812
 21
195.7047831053141067
 31
0.0
  0
LINE
  5
1DE
100
AcDbEntity
100
AcDbLine
  8
Layer0
 62
256
370
-1
  6
ByLayer
 10
-194.9654821022115812
 20
195.7047831053141067
 30
0.0
 11
-195.3272535345575704
 21
195.8546337390710903
 31
0.0
  0
LINE
  5
1DF
100
AcDbEntity
100
AcDbLine
  8
Layer0
 62
256
370
-1
  6
ByLayer
 10
-195.3272535345575704
 20
195.8546337390710903
 30
0.0
 11
-195.7154821022115812
 21
195.9057449996375055
 31
0.0
  0
LINE
  5
1E0
100
AcDbEntity
100
AcDbLine
  8
Layer0
 62
256
370
-1
  6
ByLayer
 10
-191.3154821022115755
 20
252.3057449996374828
 30
0.0
 11
-194.1154821022115868
 21
252.3057449996374828
 31
0.0
  0
LINE
  5
1E1
100
AcDbEntity
100
AcDbLine
  8
Layer0
 62
256
370
-1
  6
ByLayer
 10
-194.1154821022115868
 20
252.3057449996374828
 30
0.0
 11
-194.1154821022115868
 21
216.0057449996374999
 31
0.0
  0
LINE
  5
1E2
100
AcDbEntity
100
AcDbLine
  8
Layer0
 62
256
370
-1
  6
ByLayer
 10
-194.1154821022115868
 20
216.0057449996374999
 30
0.0
 11
-191.3154821022115755
 21
216.0057449996374999
 31
0.0
  0
LINE
  5
1E3
100
AcDbEntity
100
AcDbLine
  8
Layer0
 62
256
370
-1
  6
ByLayer
 10
-191.3154821022115755
 20
216.0057449996374999
 30
0.0
 11
-191.3154821022115755
 21
252.3057449996374828
 31
0.0
  0
LINE
  5
1E4
100
AcDbEntity
100
AcDbLine
  8
Layer0
 62
256
370
-1
  6
ByLayer
 10
-147.3154821022115755
 20
198.8057449996375112
 30
0.0
 11
-179.1154821022115868
 21
198.8057449996375112
 31
0.0
  0
LINE
  5
1E5
100
AcDbEntity
100
AcDbLine
  8
Layer0
 62
256
370
-1
  6
ByLayer
 10
-179.1154821022115868
 20
198.8057449996375112
 30
0.0
 11
-179.1154821022115868
 21
196.0057449996374999
 31
0.0
  0
LINE
  5
1E6
100
AcDbEntity
100
AcDbLine
  8
Layer0
 62
256
370
-1
  6
ByLayer
 10
-179.1154821022115868
 20
196.0057449996374999
 30
0.0
 11
-147.3154821022115755
 21
196.0057449996374999
 31
0.0
  0
LINE
  5
1E7
100
AcDbEntity
100
AcDbLine
  8
Layer0
 62
256
370
-1
  6
ByLayer
 10
-147.3154821022115755
 20
196.0057449996374999
 30
0.0
 11
-147.3154821022115755
 21
198.8057449996375112
 31
0.0
  0
LINE
  5
1E8
100
AcDbEntity
100
AcDbLine
  8
Layer0
 62
256
370
-1
  6
ByLayer
 10
-135.0516083953225746
 20
252.3057449996374828
 30
0.0
 11
-135.0516083953225746
 21
216.0057449996374999
 31
0.0
  0
LINE
  5
1E9
100
AcDbEntity
100
AcDbLine
  8
Layer0
 62
256
370
-1
  6
ByLayer
 10
-135.0516083953225746
 20
216.0057449996374999
 30
0.0
 11
-132.2516083953225632
 21
216.0057449996374999
 31
0.0
  0
LINE
  5
1EA
100
AcDbEntity
100
AcDbLine
  8
Layer0
 62
256
370
-1
  6
ByLayer
 10
-132.2516083953225632
 20
216.0057449996374999
 30
0.0
 11
-132.2516083953225632
 21
252.3057449996374828
 31
0.0
  0
LINE
  5
1EB
100
AcDbEntity
100
AcDbLine
  8
Layer0
 62
256
370
-1
  6
ByLayer
 10
-132.2516083953225632
 20
252.3057449996374828
 30
0.0
 11
-135.0516083953225746
 21
252.3057449996374828
 31
0.0
  0
LINE
  5
1EC
100
AcDbEntity
100
AcDbLine
  8
Layer0
 62
256
370
-1
  6
ByLayer
 10
-179.1154821022115868
 20
269.5057449996373862
 30
0.0
 11
-147.3154821022115755
 21
269.5057449996373862
 31
0.0
  0
LINE
  5
1ED
100
AcDbEntity
100
AcDbLine
  8
Layer0
 62
256
370
-1
  6
ByLayer
 10
-147.3154821022115755
 20
269.5057449996373862
 30
0.0
 11
-147.3154821022115755
 21
272.3057449996373407
 31
0.0
  0
LINE
  5
1EE
100
AcDbEntity
100
AcDbLine
  8
Layer0
 62
256
370
-1
  6
ByLayer
 10
-147.3154821022115755
 20
272.3057449996373407
 30
0.0
 11
-179.1154821022115868
 21
272.3057449996373407
 31
0.0
  0
LINE
  5
1EF
100
AcDbEntity
100
AcDbLine
  8
Layer0
 62
256
370
-1
  6
ByLayer
 10
-179.1154821022115868
 20
272.3057449996373407
 30
0.0
 11
-179.1154821022115868
 21
269.5057449996373862
 31
0.0
  0
LINE
  5
1F0
100
AcDbEntity
100
AcDbLine
  8
Layer0
 62
256
370
-1
  6
ByLayer
 10
-184.9658813230999783
 20
284.5448881880060412
 30
0.0
 11
-199.9658813230999783
 21
284.5448881880060412
 31
0.0
  0
LINE
  5
1F1
100
AcDbEntity
100
AcDbLine
  8
Layer0
 62
256
370
-1
  6
ByLayer
 10
-199.9658813230999783
 20
297.5400717228790768
 30
0.0
 11
-199.9658813230999783
 21
302.6400717228790427
 31
0.0
  0
LINE
  5
1F2
100
AcDbEntity
100
AcDbLine
  8
Layer0
 62
256
370
-1
  6
ByLayer
 10
-199.9658813230999783
 20
302.6400717228790427
 30
0.0
 11
-184.9658813230999783
 21
302.6400717228790427
 31
0.0
  0
LINE
  5
1F3
100
AcDbEntity
100
AcDbLine
  8
Layer0
 62
256
370
-1
  6
ByLayer
 10
-184.9658813230999783
 20
302.6400717228790427
 30
0.0
 11
-184.9658813230999783
 21
305.6400717228790427
 31
0.0
  0
LINE
  5
1F4
100
AcDbEntity
100
AcDbLine
  8
Layer0
 62
256
370
-1
  6
ByLayer
 10
-137.9658813230999783
 20
302.6400717228790427
 30
0.0
 11
-152.9658813230999783
 21
302.6400717228790427
 31
0.0
  0
LINE
  5
1F5
100
AcDbEntity
100
AcDbLine
  8
Layer0
 62
256
370
-1
  6
ByLayer
 10
-137.9658813230999783
 20
297.5400717228790768
 30
0.0
 11
-137.9658813230999783
 21
302.6400717228790427
 31
0.0
  0
LINE
  5
1F6
100
AcDbEntity
100
AcDbLine
  8
Layer0
 62
256
370
-1
  6
ByLayer
 10
-137.9658813230999783
 20
284.5448881880060412
 30
0.0
 11
-152.9658813230999783
 21
284.5448881880060412
 31
0.0
  0
LINE
  5
1F7
100
AcDbEntity
100
AcDbLine
  8
Layer0
 62
256
370
-1
  6
ByLayer
 10
-152.9658813230999783
 20
284.5448881880060412
 30
0.0
 11
-152.9658813230999783
 21
281.5448881880060412
 31
0.0
  0
LINE
  5
1F8
100
AcDbEntity
100
AcDbLine
  8
Layer0
 62
256
370
-1
  6
ByLayer
 10
-184.9658813230999783
 20
281.5448881880060412
 30
0.0
 11
-152.9658813230999783
 21
281.5448881880060412
 31
0.0
  0
LINE
  5
1F9
100
AcDbEntity
100
AcDbLine
  8
Layer0
 62
256
370
-1
  6
ByLayer
 10
-184.9658813230999783
 20
284.5448881880060412
 30
0.0
 11
-184.9658813230999783
 21
281.5448881880060412
 31
0.0
  0
LINE
  5
1FA
100
AcDbEntity
100
AcDbLine
  8
Layer0
 62
256
370
-1
  6
ByLayer
 10
-137.9658813230999783
 20
284.5448881880060412
 30
0.0
 11
-137.9658813230999783
 21
289.644888188006064
 31
0.0
  0
LINE
  5
1FB
100
AcDbEntity
100
AcDbLine
  8
Layer0
 62
256
370
-1
  6
ByLayer
 10
-199.9658813230999783
 20
284.5448881880060412
 30
0.0
 11
-199.9658813230999783
 21
289.644888188006064
 31
0.0
  0
LINE
  5
1FC
100
AcDbEntity
100
AcDbLine
  8
Layer0
 62
256
370
-1
  6
ByLayer
 10
-184.9658813230999783
 20
305.6400717228790427
 30
0.0
 11
-152.9658813230999783
 21
305.6400717228790427
 31
0.0
  0
LINE
  5
1FD
100
AcDbEntity
100
AcDbLine
  8
Layer0
 62
256
370
-1
  6
ByLayer
 10
-152.9658813230999783
 20
305.6400717228790427
 30
0.0
 11
-152.9658813230999783
 21
302.6400717228790427
 31
0.0
  0
LINE
  5
1FE
100
AcDbEntity
100
AcDbLine
  8
Layer0
 62
256
370
-1
  6
ByLayer
 10
-140.9658813230999783
 20
289.644888188006064
 30
0.0
 11
-137.9658813230999783
 21
289.644888188006064
 31
0.0
  0
LINE
  5
1FF
100
AcDbEntity
100
AcDbLine
  8
Layer0
 62
256
370
-1
  6
ByLayer
 10
-140.9658813230999783
 20
289.644888188006064
 30
0.0
 11
-140.9658813230999783
 21
297.5400717228790768
 31
0.0
  0
LINE
  5
200
100
AcDbEntity
100
AcDbLine
  8
Layer0
 62
256
370
-1
  6
ByLayer
 10
-140.9658813230999783
 20
297.5400717228790768
 30
0.0
 11
-137.9658813230999783
 21
297.5400717228790768
 31
0.0
  0
LINE
  5
201
100
AcDbEntity
100
AcDbLine
  8
Layer0
 62
256
370
-1
  6
ByLayer
 10
-196.9658813230999783
 20
289.644888188006064
 30
0.0
 11
-199.9658813230999783
 21
289.644888188006064
 31
0.0
  0
LINE
  5
202
100
AcDbEntity
100
AcDbLine
  8
Layer0
 62
256
370
-1
  6
ByLayer
 10
-196.9658813230999783
 20
297.5400717228790768
 30
0.0
 11
-199.9658813230999783
 21
297.5400717228790768
 31
0.0
  0
LINE
  5
203
100
AcDbEntity
100
AcDbLine
  8
Layer0
 62
256
370
-1
  6
ByLayer
 10
-196.9658813230999783
 20
297.5400717228790768
 30
0.0
 11
-196.9658813230999783
 21
289.644888188006064
 31
0.0
  0
LINE
  5
204
100
AcDbEntity
100
AcDbLine
  8
Layer0
 62
256
370
-1
  6
ByLayer
 10
-145.0371958314179608
 20
327.736416931014503
 30
0.0
 11
-145.0371958314179608
 21
315.736416931014503
 31
0.0
  0
LINE
  5
205
100
AcDbEntity
100
AcDbLine
  8
Layer0
 62
256
370
-1
  6
ByLayer
 10
-153.0371958314179608
 20
329.7316004658875386
 30
0.0
 11
-140.9733221245284653
 21
329.7316004658875386
 31
0.0
  0
LINE
  5
206
100
AcDbEntity
100
AcDbLine
  8
Layer0
 62
256
370
-1
  6
ByLayer
 10
-153.0371958314179608
 20
311.6364169310145371
 30
0.0
 11
-140.9733221245284653
 21
311.6364169310145371
 31
0.0
  0
LINE
  5
207
100
AcDbEntity
100
AcDbLine
  8
Layer0
 62
256
370
-1
  6
ByLayer
 10
-200.0371958314179608
 20
316.6364169310145371
 30
0.0
 11
-200.0371958314179608
 21
324.7316004658875386
 31
0.0
  0
LINE
  5
208
100
AcDbEntity
100
AcDbLine
  8
Layer0
 62
256
370
-1
  6
ByLayer
 10
-140.9733221245284653
 20
311.6364169310145371
 30
0.0
 11
-140.9733221245284653
 21
316.6364169310145371
 31
0.0
  0
LINE
  5
209
100
AcDbEntity
100
AcDbLine
  8
Layer0
 62
256
370
-1
  6
ByLayer
 10
-153.0371958314179608
 20
332.7316004658865154
 30
0.0
 11
-185.0371958314179608
 21
332.7316004658865154
 31
0.0
  0
LINE
  5
20A
100
AcDbEntity
100
AcDbLine
  8
Layer0
 62
256
370
-1
  6
ByLayer
 10
-174.0371958314179608
 20
315.736416931014503
 30
0.0
 11
-174.0371958314179608
 21
327.736416931014503
 31
0.0
  0
LINE
  5
20B
100
AcDbEntity
100
AcDbLine
  8
Layer0
 62
256
370
-1
  6
ByLayer
 10
-145.0371958314179608
 20
315.736416931014503
 30
0.0
 11
-155.0371958314179608
 21
315.736416931014503
 31
0.0
  0
LINE
  5
20C
100
AcDbEntity
100
AcDbLine
  8
Layer0
 62
256
370
-1
  6
ByLayer
 10
-197.0371958314179608
 20
329.7316004658875386
 30
0.0
 11
-185.0371958314179608
 21
329.7316004658875386
 31
0.0
  0
LINE
  5
20D
100
AcDbEntity
100
AcDbLine
  8
Layer0
 62
256
370
-1
  6
ByLayer
 10
-197.0371958314179608
 20
311.6364169310145371
 30
0.0
 11
-197.0371958314179608
 21
316.6364169310145371
 31
0.0
  0
LINE
  5
20E
100
AcDbEntity
100
AcDbLine
  8
Layer0
 62
256
370
-1
  6
ByLayer
 10
-140.9733221245284653
 20
324.7316004658875386
 30
0.0
 11
-138.0371958314176766
 21
324.7316004658875386
 31
0.0
  0
LINE
  5
20F
100
AcDbEntity
100
AcDbLine
  8
Layer0
 62
256
370
-1
  6
ByLayer
 10
-197.0371958314179608
 20
316.6364169310145371
 30
0.0
 11
-200.0371958314179608
 21
316.6364169310145371
 31
0.0
  0
LINE
  5
210
100
AcDbEntity
100
AcDbLine
  8
Layer0
 62
256
370
-1
  6
ByLayer
 10
-187.0371958314179608
 20
327.736416931014503
 30
0.0
 11
-187.0371958314179608
 21
315.736416931014503
 31
0.0
  0
LINE
  5
211
100
AcDbEntity
100
AcDbLine
  8
Layer0
 62
256
370
-1
  6
ByLayer
 10
-155.0371958314179608
 20
315.736416931014503
 30
0.0
 11
-155.0371958314179608
 21
327.736416931014503
 31
0.0
  0
LINE
  5
212
100
AcDbEntity
100
AcDbLine
  8
Layer0
 62
256
370
-1
  6
ByLayer
 10
-153.0371958314179608
 20
329.7316004658875386
 30
0.0
 11
-153.0371958314179608
 21
332.7316004658865154
 31
0.0
  0
LINE
  5
213
100
AcDbEntity
100
AcDbLine
  8
Layer0
 62
256
370
-1
  6
ByLayer
 10
-197.0371958314179608
 20
311.6364169310145371
 30
0.0
 11
-185.0371958314179608
 21
311.6364169310145371
 31
0.0
  0
LINE
  5
214
100
AcDbEntity
100
AcDbLine
  8
Layer0
 62
256
370
-1
  6
ByLayer
 10
-185.0371958314179608
 20
329.7316004658875386
 30
0.0
 11
-185.0371958314179608
 21
332.7316004658865154
 31
0.0
  0
LINE
  5
215
100
AcDbEntity
100
AcDbLine
  8
Layer0
 62
256
370
-1
  6
ByLayer
 10
-155.0371958314179608
 20
327.736416931014503
 30
0.0
 11
-145.0371958314179608
 21
327.736416931014503
 31
0.0
  0
LINE
  5
216
100
AcDbEntity
100
AcDbLine
  8
Layer0
 62
256
370
-1
  6
ByLayer
 10
-197.0371958314179608
 20
324.7316004658875386
 30
0.0
 11
-200.0371958314179608
 21
324.7316004658875386
 31
0.0
  0
LINE
  5
217
100
AcDbEntity
100
AcDbLine
  8
Layer0
 62
256
370
-1
  6
ByLayer
 10
-140.9733221245284653
 20
316.6364169310145371
 30
0.0
 11
-138.0371958314176766
 21
316.6364169310145371
 31
0.0
  0
LINE
  5
218
100
AcDbEntity
100
AcDbLine
  8
Layer0
 62
256
370
-1
  6
ByLayer
 10
-174.0371958314179608
 20
327.736416931014503
 30
0.0
 11
-187.0371958314179608
 21
327.736416931014503
 31
0.0
  0
LINE
  5
219
100
AcDbEntity
100
AcDbLine
  8
Layer0
 62
256
370
-1
  6
ByLayer
 10
-153.0371958314179608
 20
311.6364169310145371
 30
0.0
 11
-153.0371958314179608
 21
308.6364169310145371
 31
0.0
  0
LINE
  5
21A
100
AcDbEntity
100
AcDbLine
  8
Layer0
 62
256
370
-1
  6
ByLayer
 10
-138.0371958314176766
 20
316.6364169310145371
 30
0.0
 11
-138.0371958314176766
 21
324.7316004658875386
 31
0.0
  0
LINE
  5
21B
100
AcDbEntity
100
AcDbLine
  8
Layer0
 62
256
370
-1
  6
ByLayer
 10
-140.9733221245284653
 20
329.7316004658875386
 30
0.0
 11
-140.9733221245284653
 21
324.7316004658875386
 31
0.0
  0
LINE
  5
21C
100
AcDbEntity
100
AcDbLine
  8
Layer0
 62
256
370
-1
  6
ByLayer
 10
-197.0371958314179608
 20
329.7316004658875386
 30
0.0
 11
-197.0371958314179608
 21
324.7316004658875386
 31
0.0
  0
LINE
  5
21D
100
AcDbEntity
100
AcDbLine
  8
Layer0
 62
256
370
-1
  6
ByLayer
 10
-187.0371958314179608
 20
315.736416931014503
 30
0.0
 11
-174.0371958314179608
 21
315.736416931014503
 31
0.0
  0
LINE
  5
21E
100
AcDbEntity
100
AcDbLine
  8
Layer0
 62
256
370
-1
  6
ByLayer
 10
-185.0371958314179608
 20
308.6364169310145371
 30
0.0
 11
-185.0371958314179608
 21
311.6364169310145371
 31
0.0
  0
LINE
  5
21F
100
AcDbEntity
100
AcDbLine
  8
Layer0
 62
256
370
-1
  6
ByLayer
 10
-153.0371958314179608
 20
308.6364169310145371
 30
0.0
 11
-185.0371958314179608
 21
308.6364169310145371
 31
0.0
  0
LINE
  5
220
100
AcDbEntity
100
AcDbLine
  8
Layer0
 62
256
370
-1
  6
ByLayer
 10
-169.2691091551764657
 20
355.9039680735016873
 30
0.0
 11
-172.2691091551764657
 21
355.9039680735016873
 31
0.0
  0
LINE
  5
221
100
AcDbEntity
100
AcDbLine
  8
Layer0
 62
256
370
-1
  6
ByLayer
 10
-172.2691091551764373
 20
392.4039680735016873
 30
0.0
 11
-172.2691091551764657
 21
355.9039680735016873
 31
0.0
  0
LINE
  5
222
100
AcDbEntity
100
AcDbLine
  8
Layer0
 62
256
370
-1
  6
ByLayer
 10
-169.2691091551764373
 20
392.4039680735016873
 30
0.0
 11
-172.2691091551764373
 21
392.4039680735016873
 31
0.0
  0
LINE
  5
223
100
AcDbEntity
100
AcDbLine
  8
Layer0
 62
256
370
-1
  6
ByLayer
 10
-169.2691091551764373
 20
409.4039680735016873
 30
0.0
 11
-169.2691091551764373
 21
392.4039680735016873
 31
0.0
  0
LINE
  5
224
100
AcDbEntity
100
AcDbLine
  8
Layer0
 62
256
370
-1
  6
ByLayer
 10
-164.2691091551764373
 20
409.4039680735016873
 30
0.0
 11
-164.2691091551764373
 21
412.4039680735016873
 31
0.0
  0
LINE
  5
225
100
AcDbEntity
100
AcDbLine
  8
Layer0
 62
256
370
-1
  6
ByLayer
 10
-156.1739256203034358
 20
412.4039680735016873
 30
0.0
 11
-164.2691091551764373
 21
412.4039680735016873
 31
0.0
  0
LINE
  5
226
100
AcDbEntity
100
AcDbLine
  8
Layer0
 62
256
370
-1
  6
ByLayer
 10
-156.1739256203034358
 20
409.4039680735016873
 30
0.0
 11
-156.1739256203034358
 21
412.4039680735016873
 31
0.0
  0
LINE
  5
227
100
AcDbEntity
100
AcDbLine
  8
Layer0
 62
256
370
-1
  6
ByLayer
 10
-151.1739256203034358
 20
409.4039680735016873
 30
0.0
 11
-156.1739256203034358
 21
409.4039680735016873
 31
0.0
  0
LINE
  5
228
100
AcDbEntity
100
AcDbLine
  8
Layer0
 62
256
370
-1
  6
ByLayer
 10
-151.1739256203034358
 20
355.9039680735016873
 30
0.0
 11
-148.1739256203034358
 21
355.9039680735016873
 31
0.0
  0
LINE
  5
229
100
AcDbEntity
100
AcDbLine
  8
Layer0
 62
256
370
-1
  6
ByLayer
 10
-151.1739256203034358
 20
355.9039680735016873
 30
0.0
 11
-151.1739256203034358
 21
335.9039680735016873
 31
0.0
  0
LINE
  5
22A
100
AcDbEntity
100
AcDbLine
  8
Layer0
 62
256
370
-1
  6
ByLayer
 10
-151.1739256203034358
 20
335.9039680735016873
 30
0.0
 11
-156.2739256203034586
 21
335.9039680735016873
 31
0.0
  0
LINE
  5
22B
100
AcDbEntity
100
AcDbLine
  8
Layer0
 62
256
370
-1
  6
ByLayer
 10
-164.169109155176443
 20
335.9039680735016873
 30
0.0
 11
-169.2691091551764373
 21
335.9039680735016873
 31
0.0
  0
LINE
  5
22C
100
AcDbEntity
100
AcDbLine
  8
Layer0
 62
256
370
-1
  6
ByLayer
 10
-169.2691091551764373
 20
409.4039680735016873
 30
0.0
 11
-164.2691091551764373
 21
409.4039680735016873
 31
0.0
  0
LINE
  5
22D
100
AcDbEntity
100
AcDbLine
  8
Layer0
 62
256
370
-1
  6
ByLayer
 10
-151.1739256203034358
 20
409.4039680735016873
 30
0.0
 11
-151.1739256203034358
 21
392.4039680735016873
 31
0.0
  0
LINE
  5
22E
100
AcDbEntity
100
AcDbLine
  8
Layer0
 62
256
370
-1
  6
ByLayer
 10
-151.1739256203034358
 20
392.4039680735016873
 30
0.0
 11
-148.1739256203034358
 21
392.4039680735016873
 31
0.0
  0
LINE
  5
22F
100
AcDbEntity
100
AcDbLine
  8
Layer0
 62
256
370
-1
  6
ByLayer
 10
-148.1739256203034358
 20
392.4039680735016873
 30
0.0
 11
-148.1739256203034358
 21
355.9039680735016873
 31
0.0
  0
LINE
  5
230
100
AcDbEntity
100
AcDbLine
  8
Layer0
 62
256
370
-1
  6
ByLayer
 10
-169.2691091551764373
 20
335.9039680735016873
 30
0.0
 11
-169.2691091551764657
 21
355.9039680735016873
 31
0.0
  0
LINE
  5
231
100
AcDbEntity
100
AcDbLine
  8
Layer0
 62
256
370
-1
  6
ByLayer
 10
-164.1691091551764146
 20
338.9039680735016873
 30
0.0
 11
-164.169109155176443
 21
335.9039680735016873
 31
0.0
  0
LINE
  5
232
100
AcDbEntity
100
AcDbLine
  8
Layer0
 62
256
370
-1
  6
ByLayer
 10
-164.1691091551764146
 20
338.9039680735016873
 30
0.0
 11
-156.2739256203034302
 21
338.9039680735016873
 31
0.0
  0
LINE
  5
233
100
AcDbEntity
100
AcDbLine
  8
Layer0
 62
256
370
-1
  6
ByLayer
 10
-156.2739256203034302
 20
338.9039680735016873
 30
0.0
 11
-156.2739256203034586
 21
335.9039680735016873
 31
0.0
  0
LINE
  5
234
100
AcDbEntity
100
AcDbLine
  8
Layer0
 62
256
370
-1
  6
ByLayer
 10
-197.3491968053088499
 20
355.6811102350088163
 30
0.0
 11
-200.3491968053088499
 21
355.6811102350088163
 31
0.0
  0
LINE
  5
235
100
AcDbEntity
100
AcDbLine
  8
Layer0
 62
256
370
-1
  6
ByLayer
 10
-200.3491968053088499
 20
392.1811102350088163
 30
0.0
 11
-200.3491968053088499
 21
355.6811102350088163
 31
0.0
  0
LINE
  5
236
100
AcDbEntity
100
AcDbLine
  8
Layer0
 62
256
370
-1
  6
ByLayer
 10
-197.3491968053088499
 20
392.1811102350088163
 30
0.0
 11
-200.3491968053088499
 21
392.1811102350088163
 31
0.0
  0
LINE
  5
237
100
AcDbEntity
100
AcDbLine
  8
Layer0
 62
256
370
-1
  6
ByLayer
 10
-197.3491968053088499
 20
409.1811102350088163
 30
0.0
 11
-197.3491968053088499
 21
392.1811102350088163
 31
0.0
  0
LINE
  5
238
100
AcDbEntity
100
AcDbLine
  8
Layer0
 62
256
370
-1
  6
ByLayer
 10
-192.3491968053088499
 20
409.1811102350088163
 30
0.0
 11
-192.3491968053088499
 21
412.1811102350088163
 31
0.0
  0
LINE
  5
239
100
AcDbEntity
100
AcDbLine
  8
Layer0
 62
256
370
-1
  6
ByLayer
 10
-184.2540132704358484
 20
412.1811102350088163
 30
0.0
 11
-192.3491968053088499
 21
412.1811102350088163
 31
0.0
  0
LINE
  5
23A
100
AcDbEntity
100
AcDbLine
  8
Layer0
 62
256
370
-1
  6
ByLayer
 10
-184.2540132704358484
 20
409.1811102350088163
 30
0.0
 11
-184.2540132704358484
 21
412.1811102350088163
 31
0.0
  0
LINE
  5
23B
100
AcDbEntity
100
AcDbLine
  8
Layer0
 62
256
370
-1
  6
ByLayer
 10
-179.2540132704358484
 20
409.1811102350088163
 30
0.0
 11
-184.2540132704358484
 21
409.1811102350088163
 31
0.0
  0
LINE
  5
23C
100
AcDbEntity
100
AcDbLine
  8
Layer0
 62
256
370
-1
  6
ByLayer
 10
-179.2540132704358484
 20
355.6811102350088163
 30
0.0
 11
-176.2540132704358484
 21
355.6811102350088163
 31
0.0
  0
LINE
  5
23D
100
AcDbEntity
100
AcDbLine
  8
Layer0
 62
256
370
-1
  6
ByLayer
 10
-179.2540132704358484
 20
355.6811102350088163
 30
0.0
 11
-179.2540132704358484
 21
335.6811102350088163
 31
0.0
  0
LINE
  5
23E
100
AcDbEntity
100
AcDbLine
  8
Layer0
 62
256
370
-1
  6
ByLayer
 10
-179.2540132704358484
 20
335.6811102350088163
 30
0.0
 11
-184.3540132704358427
 21
335.6811102350088163
 31
0.0
  0
LINE
  5
23F
100
AcDbEntity
100
AcDbLine
  8
Layer0
 62
256
370
-1
  6
ByLayer
 10
-192.2491968053088272
 20
335.6811102350088163
 30
0.0
 11
-197.3491968053088499
 21
335.6811102350088163
 31
0.0
  0
LINE
  5
240
100
AcDbEntity
100
AcDbLine
  8
Layer0
 62
256
370
-1
  6
ByLayer
 10
-197.3491968053088499
 20
409.1811102350088163
 30
0.0
 11
-192.3491968053088499
 21
409.1811102350088163
 31
0.0
  0
LINE
  5
241
100
AcDbEntity
100
AcDbLine
  8
Layer0
 62
256
370
-1
  6
ByLayer
 10
-179.2540132704358484
 20
409.1811102350088163
 30
0.0
 11
-179.2540132704358484
 21
392.1811102350088163
 31
0.0
  0
LINE
  5
242
100
AcDbEntity
100
AcDbLine
  8
Layer0
 62
256
370
-1
  6
ByLayer
 10
-179.2540132704358484
 20
392.1811102350088163
 30
0.0
 11
-176.2540132704358484
 21
392.1811102350088163
 31
0.0
  0
LINE
  5
243
100
AcDbEntity
100
AcDbLine
  8
Layer0
 62
256
370
-1
  6
ByLayer
 10
-176.2540132704358484
 20
392.1811102350088163
 30
0.0
 11
-176.2540132704358484
 21
355.6811102350088163
 31
0.0
  0
LINE
  5
244
100
AcDbEntity
100
AcDbLine
  8
Layer0
 62
256
370
-1
  6
ByLayer
 10
-197.3491968053088499
 20
335.6811102350088163
 30
0.0
 11
-197.3491968053088499
 21
355.6811102350088163
 31
0.0
  0
LINE
  5
245
100
AcDbEntity
100
AcDbLine
  8
Layer0
 62
256
370
-1
  6
ByLayer
 10
-192.2491968053088272
 20
338.6811102350088163
 30
0.0
 11
-192.2491968053088272
 21
335.6811102350088163
 31
0.0
  0
LINE
  5
246
100
AcDbEntity
100
AcDbLine
  8
Layer0
 62
256
370
-1
  6
ByLayer
 10
-192.2491968053088272
 20
338.6811102350088163
 30
0.0
 11
-184.3540132704358427
 21
338.6811102350088163
 31
0.0
  0
LINE
  5
247
100
AcDbEntity
100
AcDbLine
  8
Layer0
 62
256
370
-1
  6
ByLayer
 10
-184.3540132704358427
 20
338.6811102350088163
 30
0.0
 11
-184.3540132704358427
 21
335.6811102350088163
 31
0.0
  0
ENDSEC
  0
SECTION
  2
OBJECTS
  0
DICTIONARY
  5
C
100
AcDbDictionary
280
0
281
1
  3
ACAD_GROUP
350
D
  3
ACAD_LAYOUT
350
1A
  3
ACAD_MLINESTYLE
350
17
  3
ACAD_PLOTSETTINGS
350
19
  3
ACAD_PLOTSTYLENAME
350
E
  3
AcDbVariableDictionary
350
248
  0
DICTIONARY
  5
D
100
AcDbDictionary
280
0
281
1
  0
ACDBDICTIONARYWDFLT
  5
E
100
AcDbDictionary
281
1
  3
Normal
350
F
100
AcDbDictionaryWithDefault
340
F
  0
ACDBPLACEHOLDER
  5
F
  0
DICTIONARY
  5
17
100
AcDbDictionary
280
0
281
1
  3
Standard
350
18
  0
MLINESTYLE
  5
18
100
AcDbMlineStyle
  2
STANDARD
 70
0
  3

 62
256
 51
90.0
 52
90.0
 71
2
 49
0.5
 62
256
  6
BYLAYER
 49
-0.5
 62
256
  6
BYLAYER
  0
DICTIONARY
  5
19
100
AcDbDictionary
280
0
281
1
  0
DICTIONARY
  5
1A
100
AcDbDictionary
281
1
  3
Layout1
350
1E
  3
Layout2
350
26
  3
Model
350
22
  0
LAYOUT
  5
1E
100
AcDbPlotSettings
  1

  2
C:\Program Files\AutoCAD 2002\plotters\DWF ePlot (optimized for plotting).pc3
  4

  6

 40
0.0
 41
0.0
 42
0.0
 43
0.0
 44
0.0
 45
0.0
 46
0.0
 47
0.0
 48
0.0
 49
0.0
140
0.0
141
0.0
142
1.0
143
1.0
 70
688
 72
0
 73
0
 74
5
  7

 75
16
147
1.0
148
0.0
149
0.0
100
AcDbLayout
  1
Layout1
 70
1
 71
1
 10
0.0
 20
0.0
 11
420.0
 21
297.0
 12
0.0
 22
0.0
 32
0.0
 14
100000000000000000000.0
 24
100000000000000000000.0
 34
100000000000000000000.0
 15
-100000000000000000000.0
 25
-100000000000000000000.0
 35
-100000000000000000000.0
146
0.0
 13
0.0
 23
0.0
 33
0.0
 16
1.0
 26
0.0
 36
0.0
 17
0.0
 27
1.0
 37
0.0
 76
0
330
1B
  0
LAYOUT
  5
22
100
AcDbPlotSettings
  1

  2
C:\Program Files\AutoCAD 2002\plotters\DWF ePlot (optimized for plotting).pc3
  4

  6

 40
0.0
 41
0.0
 42
0.0
 43
0.0
 44
0.0
 45
0.0
 46
0.0
 47
0.0
 48
0.0
 49
0.0
140
0.0
141
0.0
142
1.0
143
1.0
 70
1712
 72
0
 73
0
 74
0
  7

 75
0
147
1.0
148
0.0
149
0.0
100
AcDbLayout
  1
Model
 70
1
 71
0
 10
0.0
 20
0.0
 11
12.0
 21
9.0
 12
0.0
 22
0.0
 32
0.0
 14
0.0
 24
0.0
 34
0.0
 15
0.0
 25
0.0
 35
0.0
146
0.0
 13
0.0
 23
0.0
 33
0.0
 16
1.0
 26
0.0
 36
0.0
 17
0.0
 27
1.0
 37
0.0
 76
0
330
1F
  0
LAYOUT
  5
26
100
AcDbPlotSettings
  1

  2
C:\Program Files\AutoCAD 2002\plotters\DWF ePlot (optimized for plotting).pc3
  4

  6

 40
0.0
 41
0.0
 42
0.0
 43
0.0
 44
0.0
 45
0.0
 46
0.0
 47
0.0
 48
0.0
 49
0.0
140
0.0
141
0.0
142
1.0
143
1.0
 70
688
 72
0
 73
0
 74
5
  7

 75
16
147
1.0
148
0.0
149
0.0
100
AcDbLayout
  1
Layout2
 70
1
 71
2
 10
0.0
 20
0.0
 11
12.0
 21
9.0
 12
0.0
 22
0.0
 32
0.0
 14
0.0
 24
0.0
 34
0.0
 15
0.0
 25
0.0
 35
0.0
146
0.0
 13
0.0
 23
0.0
 33
0.0
 16
1.0
 26
0.0
 36
0.0
 17
0.0
 27
1.0
 37
0.0
 76
0
330
23
  0
DICTIONARY
  5
248
100
AcDbDictionary
281
1
  3
DIMASSOC
350
24A
  3
HIDETEXT
350
249
  0
DICTIONARYVAR
  5
249
100
DictionaryVariables
280
0
  1
2
  0
DICTIONARYVAR
  5
24A
100
DictionaryVariables
280
0
  1
1
  0
ENDSEC
  0
EOF
