  0
SECTION
  2
HEADER
  9
$ACADVER
  1
AC1009
  9
$DWGCODEPAGE
  3
ansi_1252
  9
$INSBASE
 10
0.0
 20
0.0
 30
0.0
  9
$EXTMIN
 10
0.0
 20
0.0
 30
0.0
  9
$EXTMAX
 10
226.7760628209824
 20
155.2471529445064
 30
15.99686822787768
  9
$LIMMIN
 10
0.0
 20
0.0
  9
$LIMMAX
 10
420.0
 20
297.0
  9
$ORTHOMODE
 70
     0
  9
$REGENMODE
 70
     1
  9
$FILLMODE
 70
     1
  9
$QTEXTMODE
 70
     0
  9
$MIRRTEXT
 70
     1
  9
$DRAGMODE
 70
     2
  9
$LTSCALE
 40
1.0
  9
$OSMODE
 70
    37
  9
$ATTMODE
 70
     1
  9
$TEXTSIZE
 40
2.5
  9
$TRACEWID
 40
1.0
  9
$TEXTSTYLE
  7
STANDARD
  9
$CLAYER
  8
0
  9
$CELTYPE
  6
BYLAYER
  9
$CECOLOR
 62
   256
  9
$DIMSCALE
 40
1.0
  9
$DIMASZ
 40
2.5
  9
$DIMEXO
 40
0.625
  9
$DIMDLI
 40
3.75
  9
$DIMRND
 40
0.0
  9
$DIMDLE
 40
0.0
  9
$DIMEXE
 40
1.25
  9
$DIMTP
 40
0.0
  9
$DIMTM
 40
0.0
  9
$DIMTXT
 40
2.5
  9
$DIMCEN
 40
2.5
  9
$DIMTSZ
 40
0.0
  9
$DIMTOL
 70
     0
  9
$DIMLIM
 70
     0
  9
$DIMTIH
 70
     0
  9
$DIMTOH
 70
     0
  9
$DIMSE1
 70
     0
  9
$DIMSE2
 70
     0
  9
$DIMTAD
 70
     1
  9
$DIMZIN
 70
     8
  9
$DIMBLK
  1

  9
$DIMASO
 70
     1
  9
$DIMSHO
 70
     1
  9
$DIMPOST
  1

  9
$DIMAPOST
  1

  9
$DIMALT
 70
     0
  9
$DIMALTD
 70
     3
  9
$DIMALTF
 40
0.03937007874016
  9
$DIMLFAC
 40
1.0
  9
$DIMTOFL
 70
     1
  9
$DIMTVP
 40
0.0
  9
$DIMTIX
 70
     0
  9
$DIMSOXD
 70
     0
  9
$DIMSAH
 70
     0
  9
$DIMBLK1
  1

  9
$DIMBLK2
  1

  9
$DIMSTYLE
  2
ISO-25
  9
$DIMCLRD
 70
     0
  9
$DIMCLRE
 70
     0
  9
$DIMCLRT
 70
     0
  9
$DIMTFAC
 40
1.0
  9
$DIMGAP
 40
0.625
  9
$LUNITS
 70
     2
  9
$LUPREC
 70
     4
  9
$SKETCHINC
 40
1.0
  9
$FILLETRAD
 40
10.0
  9
$AUNITS
 70
     0
  9
$AUPREC
 70
     0
  9
$MENU
  1
.
  9
$ELEVATION
 40
0.0
  9
$PELEVATION
 40
0.0
  9
$THICKNESS
 40
0.0
  9
$LIMCHECK
 70
     0
  9
$CHAMFERA
 40
10.0
  9
$CHAMFERB
 40
10.0
  9
$SKPOLY
 70
     0
  9
$TDCREATE
 40
2305814.222256945
  9
$TDUPDATE
 40
2305814.222256956
  9
$TDINDWG
 40
0.0000000116
  9
$TDUSRTIMER
 40
0.0000000116
  9
$USRTIMER
 70
     1
  9
$ANGBASE
 50
0.0
  9
$ANGDIR
 70
     0
  9
$PDMODE
 70
     0
  9
$PDSIZE
 40
0.0
  9
$PLINEWID
 40
0.0
  9
$COORDS
 70
     1
  9
$SPLFRAME
 70
     0
  9
$SPLINETYPE
 70
     6
  9
$SPLINESEGS
 70
     8
  9
$ATTDIA
 70
     0
  9
$ATTREQ
 70
     1
  9
$HANDLING
 70
     1
  9
$HANDSEED
  5
27C
  9
$SURFTAB1
 70
     6
  9
$SURFTAB2
 70
     6
  9
$SURFTYPE
 70
     6
  9
$SURFU
 70
     6
  9
$SURFV
 70
     6
  9
$UCSNAME
  2

  9
$UCSORG
 10
0.0
 20
0.0
 30
0.0
  9
$UCSXDIR
 10
1.0
 20
0.0
 30
0.0
  9
$UCSYDIR
 10
0.0
 20
1.0
 30
0.0
  9
$PUCSNAME
  2

  9
$PUCSORG
 10
0.0
 20
0.0
 30
0.0
  9
$PUCSXDIR
 10
1.0
 20
0.0
 30
0.0
  9
$PUCSYDIR
 10
0.0
 20
1.0
 30
0.0
  9
$USERI1
 70
     0
  9
$USERI2
 70
     0
  9
$USERI3
 70
     0
  9
$USERI4
 70
     0
  9
$USERI5
 70
     0
  9
$USERR1
 40
0.0
  9
$USERR2
 40
0.0
  9
$USERR3
 40
0.0
  9
$USERR4
 40
0.0
  9
$USERR5
 40
0.0
  9
$WORLDVIEW
 70
     1
  9
$SHADEDGE
 70
     3
  9
$SHADEDIF
 70
    70
  9
$TILEMODE
 70
     1
  9
$MAXACTVP
 70
    64
  9
$PLIMCHECK
 70
     0
  9
$PEXTMIN
 10
1.000000000000000E+20
 20
1.000000000000000E+20
 30
1.000000000000000E+20
  9
$PEXTMAX
 10
-1.000000000000000E+20
 20
-1.000000000000000E+20
 30
-1.000000000000000E+20
  9
$PLIMMIN
 10
0.0
 20
0.0
  9
$PLIMMAX
 10
420.0
 20
297.0
  9
$UNITMODE
 70
     0
  9
$VISRETAIN
 70
     1
  9
$PLINEGEN
 70
     0
  9
$PSLTSCALE
 70
     1
  0
ENDSEC
  0
SECTION
  2
TABLES
  0
TABLE
  2
VPORT
 70
     1
  0
VPORT
  2
*ACTIVE
 70
     0
 10
0.0
 20
0.0
 11
1.0
 21
1.0
 12
113.8723117839122
 22
78.70711357667062
 13
0.0
 23
0.0
 14
10.0
 24
10.0
 15
10.0
 25
10.0
 16
0.0
 26
0.0
 36
1.0
 17
0.0
 27
0.0
 37
0.0
 40
156.1416803103849
 41
1.47509397655883
 42
50.0
 43
0.0
 44
0.0
 50
0.0
 51
0.0
 71
     0
 72
   100
 73
     1
 74
     3
 75
     0
 76
     0
 77
     0
 78
     0
  0
ENDTAB
  0
TABLE
  2
LTYPE
 70
    11
  0
LTYPE
  2
CONTINUOUS
 70
     0
  3
Solid line
 72
    65
 73
     0
 40
0.0
  0
LTYPE
  2
BORDER
 70
     0
  3
__ __ . __ __ . __ 
 72
    65
 73
     6
 40
22.225
 49
0.25
 49
-0.125
 49
0.25
 49
-0.125
 49
0.0
 49
-0.125
  0
LTYPE
  2
CENTER
 70
     0
  3
___ _ ___ _ ___ _ _
 72
    65
 73
     4
 40
28.575
 49
0.75
 49
-0.125
 49
0.125
 49
-0.125
  0
LTYPE
  2
DASHDOT
 70
     0
  3
_._._._._._._._._._
 72
    65
 73
     4
 40
12.7
 49
0.25
 49
-0.125
 49
0.0
 49
-0.125
  0
LTYPE
  2
DASHED
 70
     0
  3
_ _ _ _ _ _ _ _ _ _
 72
    65
 73
     2
 40
9.524999999999999
 49
0.25
 49
-0.125
  0
LTYPE
  2
DIVIDE
 70
     0
  3
__..__..__..__..__.
 72
    65
 73
     6
 40
15.875
 49
0.25
 49
-0.125
 49
0.0
 49
-0.125
 49
0.0
 49
-0.125
  0
LTYPE
  2
DOT
 70
     0
  3
...................
 72
    65
 73
     2
 40
3.175
 49
0.0
 49
-3.175
  0
LTYPE
  2
HIDDEN
 70
     0
  3
__ __ __ __ __ __ _
 72
    65
 73
     2
 40
4.762499999999999
 49
0.125
 49
-0.0625
  0
LTYPE
  2
PHANTOM
 70
     0
  3
___ _ _ ___ _ _ ___
 72
    65
 73
     6
 40
31.75
 49
0.625
 49
-0.125
 49
0.125
 49
-0.125
 49
0.125
 49
-0.125
  0
LTYPE
  2
CUTTING
 70
     0
  3
________ _ _ ______
 72
    65
 73
     6
 40
37.2745
 49
1.0
 49
-0.0725
 49
0.125
 49
-0.0725
 49
0.125
 49
-0.0725
  0
LTYPE
  2
STITCH
 70
     0
  3
_ _ _ _ _ _ _ _ _ _
 72
    65
 73
     2
 40
3.682999999999999
 49
0.0725
 49
-0.0725
  0
ENDTAB
  0
TABLE
  2
LAYER
 70
     5
  0
LAYER
  2
0
 70
     0
 62
     7
  6
CONTINUOUS
  0
LAYER
  2
LAYER1
 70
     0
 62
     7
  6
CONTINUOUS
  0
LAYER
  2
DXF_JUST_HOLES
 70
     0
 62
     7
  6
CONTINUOUS
  0
LAYER
  2
DXF_JUST_HOLES_MODEL
 70
     0
 62
     7
  6
CONTINUOUS
  0
LAYER
  2
DXF_JUST_HOLES_MODEL_TOP_S
 70
     0
 62
     2
  6
CONTINUOUS
  0
ENDTAB
  0
TABLE
  2
STYLE
 70
     1
  0
STYLE
  2
STANDARD
 70
     0
 40
0.0
 41
1.0
 50
0.0
 71
     0
 42
2.5
  3
txt
  4

  0
ENDTAB
  0
TABLE
  2
VIEW
 70
     0
  0
ENDTAB
  0
TABLE
  2
UCS
 70
     0
  0
ENDTAB
  0
TABLE
  2
APPID
 70
     2
  0
APPID
  2
ACAD
 70
     0
  0
APPID
  2
PUNCH__SOFTWARE_VIACAD
 70
     0
  0
ENDTAB
  0
TABLE
  2
DIMSTYLE
 70
     1
  0
DIMSTYLE
  2
ISO-25
 70
     0
  3

  4

  5

  6

  7

 40
1.0
 41
2.5
 42
0.625
 43
3.75
 44
1.25
 45
0.0
 46
0.0
 47
0.0
 48
0.0
140
2.5
141
2.5
142
0.0
143
0.03937007874016
144
1.0
145
0.0
146
1.0
147
0.625
 71
     0
 72
     0
 73
     0
 74
     0
 75
     0
 76
     0
 77
     1
 78
     8
170
     0
171
     3
172
     1
173
     0
174
     0
175
     0
176
     0
177
     0
178
     0
  0
ENDTAB
  0
ENDSEC
  0
SECTION
  2
BLOCKS
  0
BLOCK
  8
0
  2
$MODEL_SPACE
 70
     0
 10
0.0
 20
0.0
 30
0.0
  3
$MODEL_SPACE
  1

  0
ENDBLK
  5
21
  8
0
  0
BLOCK
 67
     1
  8
0
  2
$PAPER_SPACE
 70
     0
 10
0.0
 20
0.0
 30
0.0
  3
$PAPER_SPACE
  1

  0
ENDBLK
  5
1D
 67
     1
  8
0
  0
ENDSEC
  0
SECTION
  2
ENTITIES
  0
POLYLINE
  5
4F
  8
LAYER1
 62
   150
 10
0.0
 20
0.0
 30
0.0
 66
     1
 70
    12
 75
     6
  0
VERTEX
  5
50
  8
LAYER1
 62
   150
 10
141.5370638647101
 20
93.28581141078513
 30
0.0
 70
    32
  0
VERTEX
  5
51
  8
LAYER1
 62
   150
 10
140.8617349211806
 20
84.92801332358978
 30
0.0
 70
    32
  0
VERTEX
  5
52
  8
LAYER1
 62
   150
 10
138.6965383850709
 20
76.37529864610103
 30
0.0
 70
    32
  0
VERTEX
  5
53
  8
LAYER1
 62
   150
 10
134.9419580825253
 20
68.14235429052596
 30
0.0
 70
    32
  0
VERTEX
  5
54
  8
LAYER1
 62
   150
 10
129.6863915636553
 20
60.79114294644423
 30
0.0
 70
    32
  0
VERTEX
  5
55
  8
LAYER1
 62
   150
 10
123.2173255808634
 20
54.81890826591024
 30
0.0
 70
    32
  0
VERTEX
  5
56
  8
LAYER1
 62
   150
 10
115.9723345479573
 20
50.55233974029026
 30
0.0
 70
    32
  0
VERTEX
  5
57
  8
LAYER1
 62
   150
 10
108.4459456317672
 20
48.09188913107464
 30
0.0
 70
    32
  0
VERTEX
  5
58
  8
LAYER1
 62
   150
 10
101.0910833150353
 20
47.32446987706391
 30
0.0
 70
    32
  0
SEQEND
  5
59
  8
LAYER1
 62
   150
  0
POLYLINE
  5
5A
  8
LAYER1
 62
   150
 10
0.0
 20
0.0
 30
0.0
 66
     1
 70
    12
 75
     6
  0
VERTEX
  5
5B
  8
LAYER1
 62
   150
 10
141.5370638647101
 20
109.2858114107851
 30
0.0
 70
    32
  0
VERTEX
  5
5C
  8
LAYER1
 62
   150
 10
140.8617349211806
 20
117.6436094979805
 30
0.0
 70
    32
  0
VERTEX
  5
5D
  8
LAYER1
 62
   150
 10
138.6965383850709
 20
126.1963241754692
 30
0.0
 70
    32
  0
VERTEX
  5
5E
  8
LAYER1
 62
   150
 10
134.9419580825253
 20
134.4292685310444
 30
0.0
 70
    32
  0
VERTEX
  5
5F
  8
LAYER1
 62
   150
 10
129.6863915636553
 20
141.7804798751261
 30
0.0
 70
    32
  0
VERTEX
  5
60
  8
LAYER1
 62
   150
 10
123.2173255808635
 20
147.7527145556601
 30
0.0
 70
    32
  0
VERTEX
  5
61
  8
LAYER1
 62
   150
 10
115.9723345479573
 20
152.0192830812801
 30
0.0
 70
    32
  0
VERTEX
  5
62
  8
LAYER1
 62
   150
 10
108.4459456317673
 20
154.4797336904957
 30
0.0
 70
    32
  0
VERTEX
  5
63
  8
LAYER1
 62
   150
 10
101.0910833150353
 20
155.2471529445064
 30
0.0
 70
    32
  0
SEQEND
  5
64
  8
LAYER1
 62
   150
  0
LINE
  5
65
  8
LAYER1
 62
   150
 10
151.1282364161364
 20
8.047280930523511
 30
0.0
 11
151.1282364161364
 21
43.99428093052352
 31
0.0
  0
LINE
  5
66
  8
LAYER1
 62
   150
 10
151.1282364161364
 20
43.99428093052352
 30
0.0
 11
131.1282364161363
 21
43.99428093052352
 31
0.0
  0
LINE
  5
67
  8
LAYER1
 62
   150
 10
131.1282364161363
 20
8.047280930523518
 30
0.0
 11
137.9069482323191
 21
8.047280930523515
 31
0.0
  0
LINE
  5
68
  8
LAYER1
 62
   150
 10
114.4286459820145
 20
2.367046942226936
 30
0.0
 11
114.4286459820145
 21
5.512363349212334
 31
0.0
  0
LINE
  5
69
  8
LAYER1
 62
   150
 10
121.2073577981972
 20
6.097280930523524
 30
0.0
 11
121.2073577981972
 21
8.047280930523524
 31
0.0
  0
LINE
  5
6A
  8
LAYER1
 62
   150
 10
114.4286459820145
 20
5.512363349212334
 30
0.0
 11
114.4286459820145
 21
5.997280930523528
 31
0.0
  0
LINE
  5
6B
  8
LAYER1
 62
   150
 10
121.2073577981972
 20
6.097280930523524
 30
0.0
 11
114.4286459820145
 21
6.097280930523524
 31
0.0
  0
LINE
  5
6C
  8
LAYER1
 62
   150
 10
114.4286459820145
 20
2.367046942226933
 30
0.0
 11
123.6854858764282
 21
2.36704694222693
 31
0.0
  0
LINE
  5
6D
  8
LAYER1
 62
   150
 10
137.3529482323191
 20
8.047280930523518
 30
0.0
 11
129.4926908133795
 21
8.04728093052352
 31
0.0
  0
LINE
  5
6E
  8
LAYER1
 62
   150
 10
123.6854858764282
 20
2.367046942226933
 30
0.0
 11
129.4926908133795
 21
8.04728093052352
 31
0.0
  0
LINE
  5
6F
  8
LAYER1
 62
   150
 10
136.0641915847714
 20
2.367046942226927
 30
0.0
 11
136.0641915847714
 21
5.512363349212329
 31
0.0
  0
LINE
  5
70
  8
LAYER1
 62
   150
 10
142.8429034009541
 20
6.097280930523513
 30
0.0
 11
142.8429034009541
 21
8.047280930523515
 31
0.0
  0
LINE
  5
71
  8
LAYER1
 62
   150
 10
136.0641915847714
 20
8.047280930523518
 30
0.0
 11
142.8429034009541
 21
8.047280930523515
 31
0.0
  0
LINE
  5
72
  8
LAYER1
 62
   150
 10
136.0641915847714
 20
5.512363349212329
 30
0.0
 11
136.0641915847714
 21
5.997280930523521
 31
0.0
  0
LINE
  5
73
  8
LAYER1
 62
   150
 10
142.8429034009541
 20
6.097280930523513
 30
0.0
 11
136.0641915847714
 21
6.097280930523516
 31
0.0
  0
LINE
  5
74
  8
LAYER1
 62
   150
 10
136.0641915847714
 20
2.367046942226924
 30
0.0
 11
145.3210314791851
 21
2.367046942226924
 31
0.0
  0
LINE
  5
75
  8
LAYER1
 62
   150
 10
145.3210314791851
 20
2.367046942226927
 30
0.0
 11
151.1282364161364
 21
8.047280930523511
 31
0.0
  0
LINE
  5
76
  8
LAYER1
 62
   150
 10
136.0641915847714
 20
5.997280930523521
 30
0.0
 11
136.0641915847714
 21
6.097280930523516
 31
0.0
  0
LINE
  5
77
  8
LAYER1
 62
   150
 10
114.4286459820145
 20
5.997280930523528
 30
0.0
 11
114.4286459820145
 21
6.097280930523524
 31
0.0
  0
LINE
  5
78
  8
LAYER1
 62
   150
 10
114.9826459820145
 20
8.047280930523524
 30
0.0
 11
114.4286459820145
 21
8.047280930523524
 31
0.0
  0
LINE
  5
79
  8
LAYER1
 62
   150
 10
114.9826459820145
 20
8.047280930523524
 30
0.0
 11
121.2073577981972
 21
8.047280930523524
 31
0.0
  0
LINE
  5
7A
  8
LAYER1
 62
   150
 10
97.1581761049505
 20
7.947294563827483
 30
0.0
 11
90.37946428876774
 21
7.947294563827486
 31
0.0
  0
LINE
  5
7B
  8
LAYER1
 62
   150
 10
93.30376653907234
 20
43.89429456382748
 30
0.0
 11
113.3037665390724
 21
43.89429456382748
 31
0.0
  0
LINE
  5
7C
  8
LAYER1
 62
   150
 10
113.8577665390724
 20
43.89429456382748
 30
0.0
 11
113.8577665390724
 21
7.94729456382748
 31
0.0
  0
LINE
  5
7D
  8
LAYER1
 62
   150
 10
113.8577665390724
 20
2.267060575530893
 30
0.0
 11
113.8577665390724
 21
5.412376982516294
 31
0.0
  0
LINE
  5
7E
  8
LAYER1
 62
   150
 10
107.0790547228896
 20
5.997294563827483
 30
0.0
 11
107.0790547228896
 21
7.94729456382748
 31
0.0
  0
LINE
  5
7F
  8
LAYER1
 62
   150
 10
113.8577665390724
 20
5.412376982516294
 30
0.0
 11
113.8577665390724
 21
5.897294563827484
 31
0.0
  0
LINE
  5
80
  8
LAYER1
 62
   150
 10
107.0790547228896
 20
5.997294563827483
 30
0.0
 11
113.8577665390724
 21
5.997294563827483
 31
0.0
  0
LINE
  5
81
  8
LAYER1
 62
   150
 10
113.8577665390724
 20
2.267060575530893
 30
0.0
 11
104.6009266446587
 21
2.267060575530896
 31
0.0
  0
LINE
  5
82
  8
LAYER1
 62
   150
 10
90.93346428876775
 20
7.947294563827486
 30
0.0
 11
98.79372170770735
 21
7.947294563827483
 31
0.0
  0
LINE
  5
83
  8
LAYER1
 62
   150
 10
104.6009266446587
 20
2.267060575530896
 30
0.0
 11
98.79372170770735
 21
7.947294563827483
 31
0.0
  0
LINE
  5
84
  8
LAYER1
 62
   150
 10
92.2222209363155
 20
2.267060575530898
 30
0.0
 11
92.2222209363155
 21
5.4123769825163
 31
0.0
  0
LINE
  5
85
  8
LAYER1
 62
   150
 10
85.44350912013275
 20
5.99729456382749
 30
0.0
 11
85.44350912013275
 21
7.947294563827486
 31
0.0
  0
LINE
  5
86
  8
LAYER1
 62
   150
 10
92.2222209363155
 20
7.947294563827486
 30
0.0
 11
85.44350912013275
 21
7.947294563827486
 31
0.0
  0
LINE
  5
87
  8
LAYER1
 62
   150
 10
92.2222209363155
 20
5.4123769825163
 30
0.0
 11
92.2222209363155
 21
5.89729456382749
 31
0.0
  0
LINE
  5
88
  8
LAYER1
 62
   150
 10
85.44350912013275
 20
5.99729456382749
 30
0.0
 11
92.2222209363155
 21
5.99729456382749
 31
0.0
  0
LINE
  5
89
  8
LAYER1
 62
   150
 10
92.2222209363155
 20
2.267060575530887
 30
0.0
 11
82.96538104190182
 21
2.26706057553089
 31
0.0
  0
LINE
  5
8A
  8
LAYER1
 62
   150
 10
82.96538104190182
 20
2.267060575530901
 30
0.0
 11
77.1581761049505
 21
7.947294563827489
 31
0.0
  0
LINE
  5
8B
  8
LAYER1
 62
   150
 10
92.2222209363155
 20
5.89729456382749
 30
0.0
 11
92.2222209363155
 21
5.99729456382749
 31
0.0
  0
LINE
  5
8C
  8
LAYER1
 62
   150
 10
113.8577665390724
 20
5.897294563827484
 30
0.0
 11
113.8577665390724
 21
5.997294563827483
 31
0.0
  0
LINE
  5
8D
  8
LAYER1
 62
   150
 10
113.3037665390723
 20
7.94729456382748
 30
0.0
 11
113.8577665390724
 21
7.94729456382748
 31
0.0
  0
LINE
  5
8E
  8
LAYER1
 62
   150
 10
113.3037665390724
 20
43.89429456382748
 30
0.0
 11
113.8577665390724
 21
43.89429456382748
 31
0.0
  0
LINE
  5
8F
  8
LAYER1
 62
   150
 10
113.3037665390723
 20
7.94729456382748
 30
0.0
 11
107.0790547228896
 21
7.94729456382748
 31
0.0
  0
LINE
  5
90
  8
LAYER1
 62
   150
 10
113.1040367497435
 20
55.6974153309577
 30
0.0
 11
113.1040367497435
 21
55.7974153309577
 31
0.0
  0
LINE
  5
91
  8
LAYER1
 62
   150
 10
51.91953297725768
 20
121.9174153309577
 30
0.0
 11
51.91953297725768
 21
122.0174153309576
 31
0.0
  0
LINE
  5
92
  8
LAYER1
 62
   150
 10
87.55507858001451
 20
120.0474153309576
 30
0.0
 11
87.55507858001451
 21
120.1474153309576
 31
0.0
  0
LINE
  5
93
  8
LAYER1
 62
   150
 10
69.37341948189005
 20
150.4613032358769
 30
0.0
 11
69.37341948189005
 21
152.4113032358769
 31
0.0
  0
LINE
  5
94
  8
LAYER1
 62
   150
 10
91.00403674974348
 20
150.4613032358769
 30
0.0
 11
91.00403674974348
 21
152.4113032358769
 31
0.0
  0
LINE
  5
95
  8
LAYER1
 62
   150
 10
120.3253249335607
 20
130.0113032358769
 30
0.0
 11
120.3253249335607
 21
131.9613032358769
 31
0.0
  0
LINE
  5
96
  8
LAYER1
 62
   150
 10
98.68977933080384
 20
130.0113032358769
 30
0.0
 11
98.68977933080384
 21
131.9613032358769
 31
0.0
  0
LINE
  5
97
  8
LAYER1
 62
   150
 10
105.4684911469866
 20
127.0413032358769
 30
0.0
 11
105.4684911469866
 21
127.1413032358769
 31
0.0
  0
LINE
  5
98
  8
LAYER1
 62
   150
 10
113.1040367497435
 20
127.0413032358769
 30
0.0
 11
113.1040367497435
 21
127.1413032358769
 31
0.0
  0
LINE
  5
99
  8
LAYER1
 62
   150
 10
105.5500367497434
 20
152.4113032358769
 30
0.0
 11
106.1040367497434
 21
152.4113032358769
 31
0.0
  0
LINE
  5
9A
  8
LAYER1
 62
   150
 10
120.3253249335607
 20
131.9613032358769
 30
0.0
 11
105.2253249335607
 21
131.9613032358769
 31
0.0
  0
LINE
  5
9B
  8
LAYER1
 62
   150
 10
98.68977933080384
 20
131.9613032358769
 30
0.0
 11
83.58977933080382
 21
131.9613032358769
 31
0.0
  0
LINE
  5
9C
  8
LAYER1
 62
   150
 10
105.2253249335607
 20
131.9613032358769
 30
0.0
 11
105.2253249335607
 21
130.0113032358769
 31
0.0
  0
LINE
  5
9D
  8
LAYER1
 62
   150
 10
98.68977933080384
 20
130.0113032358769
 30
0.0
 11
83.58977933080382
 21
130.0113032358769
 31
0.0
  0
LINE
  5
9E
  8
LAYER1
 62
   150
 10
83.58977933080382
 20
131.9613032358769
 30
0.0
 11
83.58977933080382
 21
130.0113032358769
 31
0.0
  0
LINE
  5
9F
  8
LAYER1
 62
   150
 10
105.2253249335607
 20
130.0113032358769
 30
0.0
 11
120.3253249335607
 21
130.0113032358769
 31
0.0
  0
LINE
  5
A0
  8
LAYER1
 62
   150
 10
69.37341948189005
 20
150.4613032358769
 30
0.0
 11
84.47341948189005
 21
150.4613032358769
 31
0.0
  0
LINE
  5
A1
  8
LAYER1
 62
   150
 10
91.00403674974348
 20
150.4613032358769
 30
0.0
 11
106.1040367497434
 21
150.4613032358769
 31
0.0
  0
LINE
  5
A2
  8
LAYER1
 62
   150
 10
91.00378546424558
 20
152.4113032358769
 30
0.0
 11
106.1037854642455
 21
152.4113032358769
 31
0.0
  0
LINE
  5
A3
  8
LAYER1
 62
   150
 10
84.47341948189005
 20
152.4113032358769
 30
0.0
 11
84.47341948189005
 21
150.4613032358769
 31
0.0
  0
LINE
  5
A4
  8
LAYER1
 62
   150
 10
106.1040367497434
 20
152.4113032358769
 30
0.0
 11
106.1040367497434
 21
150.4613032358769
 31
0.0
  0
ARC
  5
A5
  8
DXF_JUST_HOLES_MODEL_TOP_S
 62
     2
 10
116.1282364161364
 20
8.04733093052352
 30
0.0
 40
0.0002500000000012
 50
270.0
 51
90.0
  0
ARC
  5
A6
  8
DXF_JUST_HOLES_MODEL_TOP_S
 62
     2
 10
116.1282364161364
 20
8.04733093052352
 30
0.0
 40
0.0002499999999994
 50
90.0
 51
270.0
  0
LINE
  5
A7
  8
LAYER1
 62
   150
 10
93.30376653907234
 20
43.89429456382748
 30
0.0
 11
97.1581761049505
 21
43.89429456382748
 31
0.0
  0
LINE
  5
A8
  8
LAYER1
 62
   150
 10
93.30376653907234
 20
43.89429456382748
 30
0.0
 11
97.1581761049505
 21
43.89429456382748
 31
0.0
  0
LINE
  5
A9
  8
LAYER1
 62
   150
 10
134.9826459820145
 20
43.99428093052352
 30
0.0
 11
130.5693080812329
 21
43.99428093052352
 31
0.0
  0
LINE
  5
AA
  8
LAYER1
 62
   150
 10
93.30376653907234
 20
37.53270265517899
 30
0.0
 11
93.30376653907234
 21
43.89429456382748
 31
0.0
  0
LINE
  5
AB
  8
LAYER1
 62
   150
 10
130.5693080812329
 20
37.63268902187502
 30
0.0
 11
130.5693080812329
 21
43.99428093052349
 31
0.0
  0
LINE
  5
AC
  8
LAYER1
 62
   150
 10
75.43862105802785
 20
7.947294563827489
 30
0.0
 11
75.43862105802785
 21
43.89429456382749
 31
0.0
  0
LINE
  5
AD
  8
LAYER1
 62
   150
 10
75.43862105802785
 20
43.89429456382749
 30
0.0
 11
55.43862105802785
 21
43.89429456382749
 31
0.0
  0
LINE
  5
AE
  8
LAYER1
 62
   150
 10
55.43862105802785
 20
7.947294563827494
 30
0.0
 11
62.21733287421061
 21
7.947294563827492
 31
0.0
  0
LINE
  5
AF
  8
LAYER1
 62
   150
 10
38.73903062390596
 20
2.267060575530913
 30
0.0
 11
38.73903062390596
 21
5.412376982516311
 31
0.0
  0
LINE
  5
B0
  8
LAYER1
 62
   150
 10
45.51774244008872
 20
5.997294563827498
 30
0.0
 11
45.51774244008872
 21
7.9472945638275
 31
0.0
  0
LINE
  5
B1
  8
LAYER1
 62
   150
 10
38.73903062390596
 20
5.412376982516311
 30
0.0
 11
38.73903062390596
 21
5.897294563827504
 31
0.0
  0
LINE
  5
B2
  8
LAYER1
 62
   150
 10
45.51774244008872
 20
5.997294563827498
 30
0.0
 11
38.73903062390596
 21
5.997294563827498
 31
0.0
  0
LINE
  5
B3
  8
LAYER1
 62
   150
 10
38.73903062390596
 20
2.267060575530909
 30
0.0
 11
47.99587051831967
 21
2.267060575530907
 31
0.0
  0
LINE
  5
B4
  8
LAYER1
 62
   150
 10
61.66333287421062
 20
7.947294563827492
 30
0.0
 11
53.80307545527098
 21
7.947294563827497
 31
0.0
  0
LINE
  5
B5
  8
LAYER1
 62
   150
 10
47.99587051831967
 20
2.267060575530907
 30
0.0
 11
53.80307545527098
 21
7.947294563827497
 31
0.0
  0
LINE
  5
B6
  8
LAYER1
 62
   150
 10
60.37457622666287
 20
2.267060575530904
 30
0.0
 11
60.37457622666287
 21
5.412376982516303
 31
0.0
  0
LINE
  5
B7
  8
LAYER1
 62
   150
 10
67.1532880428456
 20
5.997294563827492
 30
0.0
 11
67.1532880428456
 21
7.947294563827492
 31
0.0
  0
LINE
  5
B8
  8
LAYER1
 62
   150
 10
60.37457622666287
 20
7.947294563827492
 30
0.0
 11
67.1532880428456
 21
7.947294563827492
 31
0.0
  0
LINE
  5
B9
  8
LAYER1
 62
   150
 10
60.37457622666287
 20
5.412376982516303
 30
0.0
 11
60.37457622666287
 21
5.897294563827495
 31
0.0
  0
LINE
  5
BA
  8
LAYER1
 62
   150
 10
67.1532880428456
 20
5.997294563827492
 30
0.0
 11
60.37457622666287
 21
5.997294563827492
 31
0.0
  0
LINE
  5
BB
  8
LAYER1
 62
   150
 10
60.37457622666287
 20
2.267060575530901
 30
0.0
 11
69.63141612107653
 21
2.267060575530898
 31
0.0
  0
LINE
  5
BC
  8
LAYER1
 62
   150
 10
69.63141612107653
 20
2.267060575530901
 30
0.0
 11
75.43862105802785
 21
7.947294563827489
 31
0.0
  0
LINE
  5
BD
  8
LAYER1
 62
   150
 10
60.37457622666287
 20
5.897294563827495
 30
0.0
 11
60.37457622666287
 21
5.997294563827492
 31
0.0
  0
LINE
  5
BE
  8
LAYER1
 62
   150
 10
38.73903062390596
 20
5.897294563827504
 30
0.0
 11
38.73903062390596
 21
5.997294563827498
 31
0.0
  0
LINE
  5
BF
  8
LAYER1
 62
   150
 10
39.29303062390598
 20
7.9472945638275
 30
0.0
 11
38.73903062390596
 21
7.9472945638275
 31
0.0
  0
LINE
  5
C0
  8
LAYER1
 62
   150
 10
39.29303062390598
 20
7.9472945638275
 30
0.0
 11
45.51774244008872
 21
7.9472945638275
 31
0.0
  0
LINE
  5
C1
  8
LAYER1
 62
   150
 10
20.96856074684199
 20
7.84730819713146
 30
0.0
 11
14.18984893065923
 21
7.847308197131463
 31
0.0
  0
LINE
  5
C2
  8
LAYER1
 62
   150
 10
17.11415118096385
 20
43.79430819713146
 30
0.0
 11
37.11415118096386
 21
43.79430819713146
 31
0.0
  0
LINE
  5
C3
  8
LAYER1
 62
   150
 10
37.66815118096387
 20
43.79430819713146
 30
0.0
 11
37.66815118096387
 21
7.847308197131454
 31
0.0
  0
LINE
  5
C4
  8
LAYER1
 62
   150
 10
37.66815118096387
 20
2.167074208834869
 30
0.0
 11
37.66815118096387
 21
5.312390615820268
 31
0.0
  0
LINE
  5
C5
  8
LAYER1
 62
   150
 10
30.88943936478111
 20
5.89730819713146
 30
0.0
 11
30.88943936478111
 21
7.847308197131457
 31
0.0
  0
LINE
  5
C6
  8
LAYER1
 62
   150
 10
37.66815118096387
 20
5.312390615820268
 30
0.0
 11
37.66815118096387
 21
5.797308197131458
 31
0.0
  0
LINE
  5
C7
  8
LAYER1
 62
   150
 10
30.88943936478111
 20
5.89730819713146
 30
0.0
 11
37.66815118096387
 21
5.897308197131458
 31
0.0
  0
LINE
  5
C8
  8
LAYER1
 62
   150
 10
37.66815118096387
 20
2.167074208834869
 30
0.0
 11
28.41131128655015
 21
2.167074208834872
 31
0.0
  0
LINE
  5
C9
  8
LAYER1
 62
   150
 10
14.74384893065925
 20
7.84730819713146
 30
0.0
 11
22.60410634959886
 21
7.84730819713146
 31
0.0
  0
LINE
  5
CA
  8
LAYER1
 62
   150
 10
28.41131128655015
 20
2.167074208834872
 30
0.0
 11
22.60410634959886
 21
7.84730819713146
 31
0.0
  0
LINE
  5
CB
  8
LAYER1
 62
   150
 10
16.03260557820699
 20
2.167074208834875
 30
0.0
 11
16.03260557820699
 21
5.312390615820274
 31
0.0
  0
LINE
  5
CC
  8
LAYER1
 62
   150
 10
9.253893762024232
 20
5.897308197131466
 30
0.0
 11
9.253893762024232
 21
7.847308197131463
 31
0.0
  0
LINE
  5
CD
  8
LAYER1
 62
   150
 10
16.03260557820699
 20
7.84730819713146
 30
0.0
 11
9.253893762024232
 21
7.847308197131463
 31
0.0
  0
LINE
  5
CE
  8
LAYER1
 62
   150
 10
16.03260557820699
 20
5.312390615820274
 30
0.0
 11
16.03260557820699
 21
5.797308197131463
 31
0.0
  0
LINE
  5
CF
  8
LAYER1
 62
   150
 10
9.253893762024232
 20
5.897308197131466
 30
0.0
 11
16.03260557820699
 21
5.897308197131464
 31
0.0
  0
LINE
  5
D0
  8
LAYER1
 62
   150
 10
16.03260557820699
 20
2.167074208834864
 30
0.0
 11
6.775765683793336
 21
2.167074208834867
 31
0.0
  0
LINE
  5
D1
  8
LAYER1
 62
   150
 10
6.775765683793336
 20
2.167074208834878
 30
0.0
 11
0.9685607468419842
 21
7.847308197131466
 31
0.0
  0
LINE
  5
D2
  8
LAYER1
 62
   150
 10
16.03260557820699
 20
5.797308197131463
 30
0.0
 11
16.03260557820699
 21
5.897308197131464
 31
0.0
  0
LINE
  5
D3
  8
LAYER1
 62
   150
 10
37.66815118096387
 20
5.797308197131458
 30
0.0
 11
37.66815118096387
 21
5.897308197131458
 31
0.0
  0
LINE
  5
D4
  8
LAYER1
 62
   150
 10
37.11415118096386
 20
7.847308197131457
 30
0.0
 11
37.66815118096387
 21
7.847308197131454
 31
0.0
  0
LINE
  5
D5
  8
LAYER1
 62
   150
 10
37.11415118096386
 20
43.79430819713146
 30
0.0
 11
37.66815118096387
 21
43.79430819713146
 31
0.0
  0
LINE
  5
D6
  8
LAYER1
 62
   150
 10
37.11415118096386
 20
7.847308197131457
 30
0.0
 11
30.88943936478111
 21
7.847308197131457
 31
0.0
  0
ARC
  5
D7
  8
DXF_JUST_HOLES_MODEL_TOP_S
 62
     2
 10
40.43862105802782
 20
7.947344563827496
 30
0.0
 40
0.0002499999999976
 50
270.0
 51
90.0
  0
ARC
  5
D8
  8
DXF_JUST_HOLES_MODEL_TOP_S
 62
     2
 10
40.43862105802782
 20
7.947344563827496
 30
0.0
 40
0.0002500000000003
 50
90.0
 51
270.0
  0
LINE
  5
D9
  8
LAYER1
 62
   150
 10
17.11415118096385
 20
43.79430819713146
 30
0.0
 11
20.96856074684199
 21
43.79430819713146
 31
0.0
  0
LINE
  5
DA
  8
LAYER1
 62
   150
 10
17.11415118096385
 20
43.79430819713146
 30
0.0
 11
20.96856074684199
 21
43.79430819713146
 31
0.0
  0
LINE
  5
DB
  8
LAYER1
 62
   150
 10
59.29303062390599
 20
43.89429456382749
 30
0.0
 11
54.87969272312439
 21
43.89429456382749
 31
0.0
  0
LINE
  5
DC
  8
LAYER1
 62
   150
 10
17.11415118096385
 20
37.43271628848296
 30
0.0
 11
17.11415118096385
 21
43.79430819713146
 31
0.0
  0
LINE
  5
DD
  8
LAYER1
 62
   150
 10
54.87969272312439
 20
37.532702655179
 30
0.0
 11
54.87969272312439
 21
43.89429456382747
 31
0.0
  0
LINE
  5
DE
  8
LAYER1
 62
   150
 10
73.55507858001452
 20
54.90546765761554
 30
0.0
 11
73.55507858001452
 21
55.00546765761552
 31
0.0
  0
LINE
  5
DF
  8
LAYER1
 62
   150
 10
83.37341948189004
 20
70.3193555625348
 30
0.0
 11
83.37341948189004
 21
72.26935556253481
 31
0.0
  0
LINE
  5
E0
  8
LAYER1
 62
   150
 10
105.0040367497435
 20
70.3193555625348
 30
0.0
 11
105.0040367497435
 21
72.26935556253481
 31
0.0
  0
LINE
  5
E1
  8
LAYER1
 62
   150
 10
106.3253249335607
 20
49.86935556253475
 30
0.0
 11
106.3253249335607
 21
51.81935556253475
 31
0.0
  0
LINE
  5
E2
  8
LAYER1
 62
   150
 10
84.68977933080384
 20
49.86935556253475
 30
0.0
 11
84.68977933080384
 21
51.81935556253475
 31
0.0
  0
LINE
  5
E3
  8
LAYER1
 62
   150
 10
91.46849114698661
 20
49.89935556253479
 30
0.0
 11
91.46849114698661
 21
49.99935556253477
 31
0.0
  0
LINE
  5
E4
  8
LAYER1
 62
   150
 10
119.5500367497435
 20
72.26935556253481
 30
0.0
 11
120.1040367497435
 21
72.26935556253481
 31
0.0
  0
LINE
  5
E5
  8
LAYER1
 62
   150
 10
106.3253249335607
 20
51.81935556253475
 30
0.0
 11
91.22532493356071
 21
51.81935556253475
 31
0.0
  0
LINE
  5
E6
  8
LAYER1
 62
   150
 10
84.68977933080384
 20
51.81935556253475
 30
0.0
 11
69.58977933080382
 21
51.81935556253475
 31
0.0
  0
LINE
  5
E7
  8
LAYER1
 62
   150
 10
91.22532493356071
 20
51.81935556253475
 30
0.0
 11
91.22532493356071
 21
49.86935556253475
 31
0.0
  0
LINE
  5
E8
  8
LAYER1
 62
   150
 10
69.58977933080382
 20
51.81935556253475
 30
0.0
 11
69.58977933080382
 21
49.86935556253475
 31
0.0
  0
LINE
  5
E9
  8
LAYER1
 62
   150
 10
91.22532493356071
 20
49.86935556253475
 30
0.0
 11
106.3253249335607
 21
49.86935556253475
 31
0.0
  0
LINE
  5
EA
  8
LAYER1
 62
   150
 10
83.37341948189004
 20
70.3193555625348
 30
0.0
 11
98.47341948189002
 21
70.3193555625348
 31
0.0
  0
LINE
  5
EB
  8
LAYER1
 62
   150
 10
105.0040367497435
 20
70.3193555625348
 30
0.0
 11
120.1040367497435
 21
70.3193555625348
 31
0.0
  0
LINE
  5
EC
  8
LAYER1
 62
   150
 10
105.0037854642456
 20
72.26935556253481
 30
0.0
 11
120.1037854642456
 21
72.26935556253481
 31
0.0
  0
LINE
  5
ED
  8
LAYER1
 62
   150
 10
83.37341948189004
 20
72.26935556253481
 30
0.0
 11
98.47341948189002
 21
72.26935556253481
 31
0.0
  0
LINE
  5
EE
  8
LAYER1
 62
   150
 10
98.47341948189002
 20
72.26935556253481
 30
0.0
 11
98.47341948189002
 21
70.3193555625348
 31
0.0
  0
LINE
  5
EF
  8
LAYER1
 62
   150
 10
120.1040367497435
 20
72.26935556253481
 30
0.0
 11
120.1040367497435
 21
70.3193555625348
 31
0.0
  0
LINE
  5
F0
  8
LAYER1
 62
   150
 10
114.4286459820145
 20
32.67289541089539
 30
0.0
 11
114.4286459820145
 21
8.047280930523524
 31
0.0
  0
LINE
  5
F1
  8
LAYER1
 62
   150
 10
77.1581761049505
 20
7.947294563827489
 30
0.0
 11
77.1581761049505
 21
32.66010434284969
 31
0.0
  0
LINE
  5
F2
  8
LAYER1
 62
   150
 10
38.73903062390596
 20
32.64709926517716
 30
0.0
 11
38.73903062390596
 21
7.9472945638275
 31
0.0
  0
LINE
  5
F3
  8
LAYER1
 62
   150
 10
0.9685607468419842
 20
7.847308197131466
 30
0.0
 11
0.9685607468419842
 21
32.63430819713147
 31
0.0
  0
LINE
  5
F4
  8
LAYER1
 62
   150
 10
5.174940192368391
 20
32.6356959565753
 30
0.0
 11
0.9685607468419842
 21
32.63430819713147
 31
0.0
  0
LINE
  5
F5
  8
LAYER1
 62
   150
 10
118.6282364161364
 20
32.67428093052353
 30
0.0
 11
114.4286459820145
 21
32.67289541089539
 31
0.0
  0
LINE
  5
F6
  8
LAYER1
 62
   150
 10
81.36323799039602
 20
32.661491667607
 30
0.0
 11
77.1581761049505
 21
32.66010434284969
 31
0.0
  0
LINE
  5
F7
  8
LAYER1
 62
   150
 10
42.93901422679337
 20
32.64848491451868
 30
0.0
 11
38.73903062390596
 21
32.64709926517717
 31
0.0
  0
LINE
  5
F8
  8
LAYER1
 62
   150
 10
141.5370638647101
 20
95.28581141078513
 30
0.0
 11
141.5370638647101
 21
98.28581141078513
 31
0.0
  0
LINE
  5
F9
  8
LAYER1
 62
   150
 10
141.5370638647101
 20
104.2858114107851
 30
0.0
 11
141.5370638647101
 21
107.2858114107851
 31
0.0
  0
LINE
  5
FA
  8
LAYER1
 62
   150
 10
1.420384372139258
 20
107.2858114107852
 30
0.0
 11
1.420384372139258
 21
104.2858114107852
 31
0.0
  0
LINE
  5
FB
  8
LAYER1
 62
   150
 10
1.420384372139257
 20
98.28581141078519
 30
0.0
 11
1.420384372139257
 21
95.28581141078519
 31
0.0
  0
LINE
  5
FC
  8
LAYER1
 62
   150
 10
159.7552097947296
 20
51.14203117061206
 30
0.0
 11
166.5339216109123
 21
51.14203117061206
 31
0.0
  0
LINE
  5
FD
  8
LAYER1
 62
   150
 10
143.0556193606077
 20
45.46179718231549
 30
0.0
 11
143.0556193606077
 21
48.60711358930088
 31
0.0
  0
LINE
  5
FE
  8
LAYER1
 62
   150
 10
149.8343311767904
 20
49.19203117061208
 30
0.0
 11
149.8343311767904
 21
51.14203117061207
 31
0.0
  0
LINE
  5
FF
  8
LAYER1
 62
   150
 10
143.0556193606077
 20
48.60711358930088
 30
0.0
 11
143.0556193606077
 21
49.09203117061208
 31
0.0
  0
LINE
  5
100
  8
LAYER1
 62
   150
 10
149.8343311767904
 20
49.19203117061208
 30
0.0
 11
143.0556193606077
 21
49.19203117061208
 31
0.0
  0
LINE
  5
101
  8
LAYER1
 62
   150
 10
143.0556193606077
 20
45.46179718231549
 30
0.0
 11
152.3124592550214
 21
45.46179718231549
 31
0.0
  0
LINE
  5
102
  8
LAYER1
 62
   150
 10
165.9799216109124
 20
51.14203117061206
 30
0.0
 11
158.1196641919727
 21
51.14203117061206
 31
0.0
  0
LINE
  5
103
  8
LAYER1
 62
   150
 10
152.3124592550214
 20
45.46179718231549
 30
0.0
 11
158.1196641919727
 21
51.14203117061206
 31
0.0
  0
LINE
  5
104
  8
LAYER1
 62
   150
 10
164.6911649633646
 20
45.46179718231549
 30
0.0
 11
164.6911649633646
 21
48.60711358930088
 31
0.0
  0
LINE
  5
105
  8
LAYER1
 62
   150
 10
171.4698767795473
 20
49.19203117061206
 30
0.0
 11
171.4698767795473
 21
51.14203117061206
 31
0.0
  0
LINE
  5
106
  8
LAYER1
 62
   150
 10
164.6911649633646
 20
51.14203117061206
 30
0.0
 11
171.4698767795473
 21
51.14203117061206
 31
0.0
  0
LINE
  5
107
  8
LAYER1
 62
   150
 10
164.6911649633646
 20
48.60711358930088
 30
0.0
 11
164.6911649633646
 21
49.09203117061207
 31
0.0
  0
LINE
  5
108
  8
LAYER1
 62
   150
 10
171.4698767795473
 20
49.19203117061206
 30
0.0
 11
164.6911649633646
 21
49.19203117061207
 31
0.0
  0
LINE
  5
109
  8
LAYER1
 62
   150
 10
164.6911649633646
 20
45.46179718231549
 30
0.0
 11
173.9480048577783
 21
45.46179718231549
 31
0.0
  0
LINE
  5
10A
  8
LAYER1
 62
   150
 10
173.9480048577783
 20
45.46179718231549
 30
0.0
 11
179.7552097947296
 21
51.14203117061206
 31
0.0
  0
LINE
  5
10B
  8
LAYER1
 62
   150
 10
164.6911649633646
 20
49.09203117061207
 30
0.0
 11
164.6911649633646
 21
49.19203117061207
 31
0.0
  0
LINE
  5
10C
  8
LAYER1
 62
   150
 10
143.0556193606077
 20
49.09203117061208
 30
0.0
 11
143.0556193606077
 21
49.19203117061208
 31
0.0
  0
LINE
  5
10D
  8
LAYER1
 62
   150
 10
143.6096193606077
 20
51.14203117061207
 30
0.0
 11
143.0556193606077
 21
51.14203117061207
 31
0.0
  0
LINE
  5
10E
  8
LAYER1
 62
   150
 10
143.6096193606077
 20
51.14203117061207
 30
0.0
 11
149.8343311767904
 21
51.14203117061207
 31
0.0
  0
ARC
  5
10F
  8
DXF_JUST_HOLES_MODEL_TOP_S
 62
     2
 10
144.7552097947296
 20
53.14208117061206
 30
0.0
 40
0.0002500000000012
 50
270.0
 51
90.0
  0
ARC
  5
110
  8
DXF_JUST_HOLES_MODEL_TOP_S
 62
     2
 10
144.7552097947296
 20
53.14208117061206
 30
0.0
 40
0.0002500000000012
 50
90.0
 51
270.0
  0
LINE
  5
111
  8
LAYER1
 62
   150
 10
162.6939150262653
 20
105.4009647434968
 30
0.0
 11
155.9152032100826
 21
105.4009647434968
 31
0.0
  0
LINE
  5
112
  8
LAYER1
 62
   150
 10
179.3935054603872
 20
99.72073075520021
 30
0.0
 11
179.3935054603872
 21
102.8660471621856
 31
0.0
  0
LINE
  5
113
  8
LAYER1
 62
   150
 10
172.6147936442044
 20
103.4509647434968
 30
0.0
 11
172.6147936442044
 21
105.4009647434968
 31
0.0
  0
LINE
  5
114
  8
LAYER1
 62
   150
 10
179.3935054603872
 20
102.8660471621856
 30
0.0
 11
179.3935054603872
 21
103.3509647434968
 31
0.0
  0
LINE
  5
115
  8
LAYER1
 62
   150
 10
172.6147936442044
 20
103.4509647434968
 30
0.0
 11
179.3935054603872
 21
103.4509647434968
 31
0.0
  0
LINE
  5
116
  8
LAYER1
 62
   150
 10
179.3935054603872
 20
99.72073075520021
 30
0.0
 11
170.1366655659735
 21
99.72073075520021
 31
0.0
  0
LINE
  5
117
  8
LAYER1
 62
   150
 10
156.4692032100826
 20
105.4009647434968
 30
0.0
 11
164.3294606290222
 21
105.4009647434968
 31
0.0
  0
LINE
  5
118
  8
LAYER1
 62
   150
 10
170.1366655659735
 20
99.72073075520021
 30
0.0
 11
164.3294606290222
 21
105.4009647434968
 31
0.0
  0
LINE
  5
119
  8
LAYER1
 62
   150
 10
157.7579598576303
 20
99.72073075520021
 30
0.0
 11
157.7579598576303
 21
102.8660471621856
 31
0.0
  0
LINE
  5
11A
  8
LAYER1
 62
   150
 10
150.9792480414476
 20
103.4509647434968
 30
0.0
 11
150.9792480414476
 21
105.4009647434968
 31
0.0
  0
LINE
  5
11B
  8
LAYER1
 62
   150
 10
157.7579598576303
 20
105.4009647434968
 30
0.0
 11
150.9792480414476
 21
105.4009647434968
 31
0.0
  0
LINE
  5
11C
  8
LAYER1
 62
   150
 10
157.7579598576303
 20
102.8660471621856
 30
0.0
 11
157.7579598576303
 21
103.3509647434968
 31
0.0
  0
LINE
  5
11D
  8
LAYER1
 62
   150
 10
150.9792480414476
 20
103.4509647434968
 30
0.0
 11
157.7579598576303
 21
103.4509647434968
 31
0.0
  0
LINE
  5
11E
  8
LAYER1
 62
   150
 10
157.7579598576303
 20
99.72073075520021
 30
0.0
 11
148.5011199632166
 21
99.72073075520021
 31
0.0
  0
LINE
  5
11F
  8
LAYER1
 62
   150
 10
148.5011199632166
 20
99.72073075520021
 30
0.0
 11
142.6939150262653
 21
105.4009647434968
 31
0.0
  0
LINE
  5
120
  8
LAYER1
 62
   150
 10
157.7579598576303
 20
103.3509647434968
 30
0.0
 11
157.7579598576303
 21
103.4509647434968
 31
0.0
  0
LINE
  5
121
  8
LAYER1
 62
   150
 10
179.3935054603872
 20
103.3509647434968
 30
0.0
 11
179.3935054603872
 21
103.4509647434968
 31
0.0
  0
LINE
  5
122
  8
LAYER1
 62
   150
 10
178.8395054603872
 20
105.4009647434968
 30
0.0
 11
179.3935054603872
 21
105.4009647434968
 31
0.0
  0
LINE
  5
123
  8
LAYER1
 62
   150
 10
178.8395054603872
 20
105.4009647434968
 30
0.0
 11
172.6147936442044
 21
105.4009647434968
 31
0.0
  0
LINE
  5
124
  8
LAYER1
 62
   150
 10
143.0556193606077
 20
72.39203117061207
 30
0.0
 11
152.2306193606077
 21
97.32803117061208
 31
0.0
  0
LINE
  5
125
  8
LAYER1
 62
   150
 10
179.7556193606077
 20
72.39203117061207
 30
0.0
 11
170.5806193606077
 21
97.32803117061208
 31
0.0
  0
LINE
  5
126
  8
LAYER1
 62
   150
 10
170.5806193606077
 20
97.32803117061208
 30
0.0
 11
152.2306193606077
 21
97.32803117061208
 31
0.0
  0
LINE
  5
127
  8
LAYER1
 62
   150
 10
168.9556193606077
 20
93.29103067167321
 30
0.0
 11
168.9556193606077
 21
95.24103067167322
 31
0.0
  0
LINE
  5
128
  8
LAYER1
 62
   150
 10
154.0987855740336
 20
93.32103067167326
 30
0.0
 11
154.0987855740336
 21
93.42103067167324
 31
0.0
  0
LINE
  5
129
  8
LAYER1
 62
   150
 10
168.9556193606077
 20
95.24103067167322
 30
0.0
 11
153.8556193606077
 21
95.24103067167322
 31
0.0
  0
LINE
  5
12A
  8
LAYER1
 62
   150
 10
153.8556193606077
 20
95.24103067167322
 30
0.0
 11
153.8556193606077
 21
93.29103067167321
 31
0.0
  0
LINE
  5
12B
  8
LAYER1
 62
   150
 10
153.8556193606077
 20
93.29103067167321
 30
0.0
 11
168.9556193606077
 21
93.29103067167321
 31
0.0
  0
LINE
  5
12C
  8
LAYER1
 62
   150
 10
142.6939150262653
 20
126.6509647434969
 30
0.0
 11
151.8689150262653
 21
151.5869647434968
 31
0.0
  0
LINE
  5
12D
  8
LAYER1
 62
   150
 10
179.3939150262653
 20
126.6509647434969
 30
0.0
 11
170.2189150262653
 21
151.5869647434968
 31
0.0
  0
LINE
  5
12E
  8
LAYER1
 62
   150
 10
170.2189150262653
 20
151.5869647434968
 30
0.0
 11
151.8689150262653
 21
151.5869647434968
 31
0.0
  0
LINE
  5
12F
  8
LAYER1
 62
   150
 10
168.5939150262653
 20
147.549964244558
 30
0.0
 11
168.5939150262653
 21
149.499964244558
 31
0.0
  0
LINE
  5
130
  8
LAYER1
 62
   150
 10
153.7370812396912
 20
147.579964244558
 30
0.0
 11
153.7370812396912
 21
147.679964244558
 31
0.0
  0
LINE
  5
131
  8
LAYER1
 62
   150
 10
168.5939150262653
 20
149.499964244558
 30
0.0
 11
153.4939150262653
 21
149.499964244558
 31
0.0
  0
LINE
  5
132
  8
LAYER1
 62
   150
 10
153.4939150262653
 20
149.499964244558
 30
0.0
 11
153.4939150262653
 21
147.549964244558
 31
0.0
  0
LINE
  5
133
  8
LAYER1
 62
   150
 10
153.4939150262653
 20
147.549964244558
 30
0.0
 11
168.5939150262653
 21
147.549964244558
 31
0.0
  0
LINE
  5
134
  8
LAYER1
 62
   150
 10
10.83633445476826
 20
95.43772704191984
 30
0.0
 11
10.83633445476826
 21
95.53772704191982
 31
0.0
  0
LINE
  5
135
  8
LAYER1
 62
   150
 10
18.15467535664379
 20
110.5526149468391
 30
0.0
 11
18.15467535664379
 21
112.5026149468391
 31
0.0
  0
LINE
  5
136
  8
LAYER1
 62
   150
 10
39.78529262449721
 20
110.5526149468391
 30
0.0
 11
39.78529262449721
 21
112.5026149468391
 31
0.0
  0
LINE
  5
137
  8
LAYER1
 62
   150
 10
41.10658080831445
 20
90.10261494683905
 30
0.0
 11
41.10658080831445
 21
92.05261494683906
 31
0.0
  0
LINE
  5
138
  8
LAYER1
 62
   150
 10
19.47103520555758
 20
90.10261494683905
 30
0.0
 11
19.47103520555758
 21
92.05261494683906
 31
0.0
  0
LINE
  5
139
  8
LAYER1
 62
   150
 10
26.24974702174035
 20
90.1326149468391
 30
0.0
 11
26.24974702174035
 21
90.23261494683908
 31
0.0
  0
LINE
  5
13A
  8
LAYER1
 62
   150
 10
54.33129262449724
 20
112.5026149468391
 30
0.0
 11
54.88529262449726
 21
112.5026149468391
 31
0.0
  0
LINE
  5
13B
  8
LAYER1
 62
   150
 10
41.10658080831445
 20
92.05261494683906
 30
0.0
 11
26.00658080831445
 21
92.05261494683906
 31
0.0
  0
LINE
  5
13C
  8
LAYER1
 62
   150
 10
19.47103520555758
 20
92.05261494683906
 30
0.0
 11
4.37103520555757
 21
92.05261494683906
 31
0.0
  0
LINE
  5
13D
  8
LAYER1
 62
   150
 10
26.00658080831445
 20
92.05261494683906
 30
0.0
 11
26.00658080831445
 21
90.10261494683905
 31
0.0
  0
LINE
  5
13E
  8
LAYER1
 62
   150
 10
4.37103520555757
 20
92.05261494683906
 30
0.0
 11
4.37103520555757
 21
90.10261494683905
 31
0.0
  0
LINE
  5
13F
  8
LAYER1
 62
   150
 10
26.00658080831445
 20
90.10261494683905
 30
0.0
 11
41.10658080831445
 21
90.10261494683905
 31
0.0
  0
LINE
  5
140
  8
LAYER1
 62
   150
 10
18.15467535664379
 20
110.5526149468391
 30
0.0
 11
33.25467535664376
 21
110.5526149468391
 31
0.0
  0
LINE
  5
141
  8
LAYER1
 62
   150
 10
39.78529262449721
 20
110.5526149468391
 30
0.0
 11
54.88529262449726
 21
110.5526149468391
 31
0.0
  0
LINE
  5
142
  8
LAYER1
 62
   150
 10
39.7850413389993
 20
112.5026149468391
 30
0.0
 11
54.88504133899935
 21
112.5026149468391
 31
0.0
  0
LINE
  5
143
  8
LAYER1
 62
   150
 10
18.15467535664379
 20
112.5026149468391
 30
0.0
 11
33.25467535664376
 21
112.5026149468391
 31
0.0
  0
LINE
  5
144
  8
LAYER1
 62
   150
 10
33.25467535664376
 20
112.5026149468391
 30
0.0
 11
33.25467535664376
 21
110.5526149468391
 31
0.0
  0
LINE
  5
145
  8
LAYER1
 62
   150
 10
54.88529262449726
 20
112.5026149468391
 30
0.0
 11
54.88529262449726
 21
110.5526149468391
 31
0.0
  0
LINE
  5
146
  8
LAYER1
 62
   150
 10
4.37103520555757
 20
90.10261494683905
 30
0.0
 11
19.47103520555758
 21
90.10261494683905
 31
0.0
  0
LINE
  5
147
  8
LAYER1
 62
   150
 10
203.414284540618
 20
76.65786962861554
 30
0.0
 11
205.3642845406179
 21
76.65786962861554
 31
0.0
  0
LINE
  5
148
  8
LAYER1
 62
   150
 10
205.694284540618
 20
91.51470341518963
 30
0.0
 11
205.794284540618
 21
91.51470341518963
 31
0.0
  0
LINE
  5
149
  8
LAYER1
 62
   150
 10
205.3642845406179
 20
76.65786962861554
 30
0.0
 11
205.3642845406179
 21
91.75786962861555
 31
0.0
  0
LINE
  5
14A
  8
LAYER1
 62
   150
 10
205.3642845406179
 20
91.75786962861555
 30
0.0
 11
203.414284540618
 21
91.75786962861555
 31
0.0
  0
LINE
  5
14B
  8
LAYER1
 62
   150
 10
182.9642845406178
 20
76.65786962861554
 30
0.0
 11
184.9142845406178
 21
76.65786962861554
 31
0.0
  0
LINE
  5
14C
  8
LAYER1
 62
   150
 10
184.9142845406178
 20
91.75786962861555
 30
0.0
 11
182.9642845406178
 21
91.75786962861555
 31
0.0
  0
LINE
  5
14D
  8
LAYER1
 62
   150
 10
182.9642845406178
 20
91.75786962861555
 30
0.0
 11
182.9642845406178
 21
76.65786962861554
 31
0.0
  0
LINE
  5
14E
  8
LAYER1
 62
   150
 10
203.414284540618
 20
72.70786962861554
 30
0.0
 11
203.414284540618
 21
76.65786962861554
 31
0.0
  0
LINE
  5
14F
  8
LAYER1
 62
   150
 10
203.414284540618
 20
91.75786962861555
 30
0.0
 11
203.414284540618
 21
95.70786962861557
 31
0.0
  0
LINE
  5
150
  8
LAYER1
 62
   150
 10
184.9142845406178
 20
95.70786962861557
 30
0.0
 11
184.9142845406178
 21
91.75786962861555
 31
0.0
  0
LINE
  5
151
  8
LAYER1
 62
   150
 10
184.9142845406178
 20
76.65786962861554
 30
0.0
 11
184.9142845406178
 21
72.70786962861554
 31
0.0
  0
LINE
  5
152
  8
LAYER1
 62
   150
 10
203.414284540618
 20
98.20994241723936
 30
0.0
 11
203.414284540618
 21
93.73286962861556
 31
0.0
  0
LINE
  5
153
  8
LAYER1
 62
   150
 10
184.9142845406178
 20
98.20994241723936
 30
0.0
 11
184.9142845406178
 21
95.70786962861557
 31
0.0
  0
LINE
  5
154
  8
LAYER1
 62
   150
 10
184.9142845406178
 20
69.08261053003761
 30
0.0
 11
184.9142845406178
 21
72.70786962861554
 31
0.0
  0
LINE
  5
155
  8
LAYER1
 62
   150
 10
203.414284540618
 20
69.08261053003761
 30
0.0
 11
203.414284540618
 21
74.68286962861555
 31
0.0
  0
LINE
  5
156
  8
LAYER1
 62
   150
 10
101.4604646855186
 20
110.5526149468391
 30
0.0
 11
101.4604646855186
 21
112.5026149468391
 31
0.0
  0
LINE
  5
157
  8
LAYER1
 62
   150
 10
123.091081953372
 20
110.5526149468391
 30
0.0
 11
123.091081953372
 21
112.5026149468391
 31
0.0
  0
LINE
  5
158
  8
LAYER1
 62
   150
 10
124.4123701371893
 20
90.10261494683905
 30
0.0
 11
124.4123701371893
 21
92.05261494683906
 31
0.0
  0
LINE
  5
159
  8
LAYER1
 62
   150
 10
102.7768245344324
 20
90.10261494683905
 30
0.0
 11
102.7768245344324
 21
92.05261494683906
 31
0.0
  0
LINE
  5
15A
  8
LAYER1
 62
   150
 10
109.5555363506152
 20
90.1326149468391
 30
0.0
 11
109.5555363506152
 21
90.23261494683908
 31
0.0
  0
LINE
  5
15B
  8
LAYER1
 62
   150
 10
137.6370819533721
 20
112.5026149468391
 30
0.0
 11
138.1910819533721
 21
112.5026149468391
 31
0.0
  0
LINE
  5
15C
  8
LAYER1
 62
   150
 10
124.4123701371893
 20
92.05261494683906
 30
0.0
 11
109.3123701371893
 21
92.05261494683906
 31
0.0
  0
LINE
  5
15D
  8
LAYER1
 62
   150
 10
102.7768245344324
 20
92.05261494683906
 30
0.0
 11
87.67682453443243
 21
92.05261494683906
 31
0.0
  0
LINE
  5
15E
  8
LAYER1
 62
   150
 10
109.3123701371893
 20
92.05261494683906
 30
0.0
 11
109.3123701371893
 21
90.10261494683905
 31
0.0
  0
LINE
  5
15F
  8
LAYER1
 62
   150
 10
87.67682453443243
 20
92.05261494683906
 30
0.0
 11
87.67682453443243
 21
90.10261494683905
 31
0.0
  0
LINE
  5
160
  8
LAYER1
 62
   150
 10
109.3123701371893
 20
90.10261494683905
 30
0.0
 11
124.4123701371893
 21
90.10261494683905
 31
0.0
  0
LINE
  5
161
  8
LAYER1
 62
   150
 10
101.4604646855186
 20
110.5526149468391
 30
0.0
 11
116.5604646855186
 21
110.5526149468391
 31
0.0
  0
LINE
  5
162
  8
LAYER1
 62
   150
 10
123.091081953372
 20
110.5526149468391
 30
0.0
 11
138.1910819533721
 21
110.5526149468391
 31
0.0
  0
LINE
  5
163
  8
LAYER1
 62
   150
 10
123.0908306678741
 20
112.5026149468391
 30
0.0
 11
138.1908306678742
 21
112.5026149468391
 31
0.0
  0
LINE
  5
164
  8
LAYER1
 62
   150
 10
101.4604646855186
 20
112.5026149468391
 30
0.0
 11
116.5604646855186
 21
112.5026149468391
 31
0.0
  0
LINE
  5
165
  8
LAYER1
 62
   150
 10
116.5604646855186
 20
112.5026149468391
 30
0.0
 11
116.5604646855186
 21
110.5526149468391
 31
0.0
  0
LINE
  5
166
  8
LAYER1
 62
   150
 10
138.1910819533721
 20
112.5026149468391
 30
0.0
 11
138.1910819533721
 21
110.5526149468391
 31
0.0
  0
LINE
  5
167
  8
LAYER1
 62
   150
 10
87.67682453443243
 20
90.10261494683905
 30
0.0
 11
102.7768245344324
 21
90.10261494683905
 31
0.0
  0
LINE
  5
168
  8
LAYER1
 62
   150
 10
135.5370638647101
 20
107.2858114107851
 30
0.0
 11
135.5370638647101
 21
102.7858114107851
 31
0.0
  0
LINE
  5
169
  8
LAYER1
 62
   150
 10
138.5370638647101
 20
102.7858114107851
 30
0.0
 11
135.5370638647101
 21
102.7858114107851
 31
0.0
  0
LINE
  5
16A
  8
LAYER1
 62
   150
 10
138.5370638647101
 20
99.78581141078514
 30
0.0
 11
135.5370638647101
 21
99.78581141078514
 31
0.0
  0
LINE
  5
16B
  8
LAYER1
 62
   150
 10
141.5370638647101
 20
98.28581141078513
 30
0.0
 11
138.5370638647101
 21
99.78581141078514
 31
0.0
  0
LINE
  5
16C
  8
LAYER1
 62
   150
 10
141.5370638647101
 20
104.2858114107851
 30
0.0
 11
138.5370638647101
 21
102.7858114107851
 31
0.0
  0
LINE
  5
16D
  8
LAYER1
 62
   150
 10
135.5370638647101
 20
95.28581141078513
 30
0.0
 11
135.5370638647101
 21
99.78581141078514
 31
0.0
  0
LINE
  5
16E
  8
LAYER1
 62
   150
 10
7.420384372139227
 20
107.2858114107852
 30
0.0
 11
7.420384372139227
 21
102.7858114107852
 31
0.0
  0
LINE
  5
16F
  8
LAYER1
 62
   150
 10
4.420384372139234
 20
102.7858114107852
 30
0.0
 11
7.420384372139227
 21
102.7858114107852
 31
0.0
  0
LINE
  5
170
  8
LAYER1
 62
   150
 10
4.420384372139234
 20
99.78581141078519
 30
0.0
 11
7.420384372139227
 21
99.78581141078519
 31
0.0
  0
LINE
  5
171
  8
LAYER1
 62
   150
 10
1.420384372139239
 20
98.28581141078519
 30
0.0
 11
4.420384372139234
 21
99.78581141078519
 31
0.0
  0
LINE
  5
172
  8
LAYER1
 62
   150
 10
1.420384372139239
 20
104.2858114107852
 30
0.0
 11
4.420384372139234
 21
102.7858114107852
 31
0.0
  0
LINE
  5
173
  8
LAYER1
 62
   150
 10
7.420384372139227
 20
95.28581141078517
 30
0.0
 11
7.420384372139227
 21
99.78581141078519
 31
0.0
  0
LINE
  5
174
  8
LAYER1
 62
   150
 10
179.3939150262653
 20
112.6509647434968
 30
0.0
 11
179.3935054603872
 21
105.4009647434968
 31
0.0
  0
LINE
  5
175
  8
LAYER1
 62
   150
 10
142.6939150262653
 20
112.6509647434968
 30
0.0
 11
142.6939150262653
 21
105.4009647434968
 31
0.0
  0
LINE
  5
176
  8
LAYER1
 62
   150
 10
179.7556193606077
 20
58.39203117061209
 30
0.0
 11
179.7552097947296
 21
51.14203117061206
 31
0.0
  0
LINE
  5
177
  8
LAYER1
 62
   150
 10
143.0556193606077
 20
58.39203117061209
 30
0.0
 11
143.0556193606077
 21
51.14203117061207
 31
0.0
  0
LINE
  5
178
  8
LAYER1
 62
   150
 10
179.3939150262653
 20
114.6509647434968
 30
0.0
 11
179.3939150262653
 21
112.6509647434968
 31
0.0
  0
LINE
  5
179
  8
LAYER1
 62
   150
 10
142.6939150262653
 20
114.6509647434968
 30
0.0
 11
142.6939150262653
 21
112.6509647434968
 31
0.0
  0
LINE
  5
17A
  8
LAYER1
 62
   150
 10
143.0556193606077
 20
60.39203117061209
 30
0.0
 11
143.0556193606077
 21
58.39203117061209
 31
0.0
  0
LINE
  5
17B
  8
LAYER1
 62
   150
 10
179.7556193606077
 20
60.39203117061209
 30
0.0
 11
179.7556193606077
 21
58.39203117061209
 31
0.0
  0
LINE
  5
17C
  8
LAYER1
 62
   150
 10
203.414284540618
 20
98.20994241723936
 30
0.0
 11
184.9142845406178
 21
98.20994241723936
 31
0.0
  0
LINE
  5
17D
  8
LAYER1
 62
   150
 10
184.9142845406178
 20
69.08261053003761
 30
0.0
 11
203.414284540618
 21
69.08261053003761
 31
0.0
  0
LINE
  5
17E
  8
LAYER1
 62
   150
 10
179.3939150262653
 20
114.6509647434968
 30
0.0
 11
179.3939150262653
 21
116.6509647434968
 31
0.0
  0
LINE
  5
17F
  8
LAYER1
 62
   150
 10
142.6939150262653
 20
116.6509647434968
 30
0.0
 11
142.6939150262653
 21
114.6509647434968
 31
0.0
  0
LINE
  5
180
  8
LAYER1
 62
   150
 10
143.0556193606077
 20
62.39203117061209
 30
0.0
 11
143.0556193606077
 21
60.39203117061209
 31
0.0
  0
LINE
  5
181
  8
LAYER1
 62
   150
 10
179.7556193606077
 20
62.39203117061209
 30
0.0
 11
179.7556193606077
 21
60.39203117061209
 31
0.0
  0
LINE
  5
182
  8
LAYER1
 62
   150
 10
60.15467535664379
 20
110.5526149468391
 30
0.0
 11
60.15467535664379
 21
112.5026149468391
 31
0.0
  0
LINE
  5
183
  8
LAYER1
 62
   150
 10
81.7852926244972
 20
110.5526149468391
 30
0.0
 11
81.7852926244972
 21
112.5026149468391
 31
0.0
  0
LINE
  5
184
  8
LAYER1
 62
   150
 10
83.10658080831446
 20
90.10261494683905
 30
0.0
 11
83.10658080831446
 21
92.05261494683906
 31
0.0
  0
LINE
  5
185
  8
LAYER1
 62
   150
 10
61.47103520555758
 20
90.10261494683905
 30
0.0
 11
61.47103520555758
 21
92.05261494683906
 31
0.0
  0
LINE
  5
186
  8
LAYER1
 62
   150
 10
68.24974702174035
 20
90.1326149468391
 30
0.0
 11
68.24974702174035
 21
90.23261494683908
 31
0.0
  0
LINE
  5
187
  8
LAYER1
 62
   150
 10
96.33129262449724
 20
112.5026149468391
 30
0.0
 11
96.88529262449727
 21
112.5026149468391
 31
0.0
  0
LINE
  5
188
  8
LAYER1
 62
   150
 10
83.10658080831446
 20
92.05261494683906
 30
0.0
 11
68.00658080831445
 21
92.05261494683906
 31
0.0
  0
LINE
  5
189
  8
LAYER1
 62
   150
 10
61.47103520555758
 20
92.05261494683906
 30
0.0
 11
46.37103520555757
 21
92.05261494683906
 31
0.0
  0
LINE
  5
18A
  8
LAYER1
 62
   150
 10
68.00658080831445
 20
92.05261494683906
 30
0.0
 11
68.00658080831445
 21
90.10261494683905
 31
0.0
  0
LINE
  5
18B
  8
LAYER1
 62
   150
 10
46.37103520555757
 20
92.05261494683906
 30
0.0
 11
46.37103520555757
 21
90.10261494683905
 31
0.0
  0
LINE
  5
18C
  8
LAYER1
 62
   150
 10
68.00658080831445
 20
90.10261494683905
 30
0.0
 11
83.10658080831446
 21
90.10261494683905
 31
0.0
  0
LINE
  5
18D
  8
LAYER1
 62
   150
 10
60.15467535664379
 20
110.5526149468391
 30
0.0
 11
75.25467535664376
 21
110.5526149468391
 31
0.0
  0
LINE
  5
18E
  8
LAYER1
 62
   150
 10
81.7852926244972
 20
110.5526149468391
 30
0.0
 11
96.88529262449727
 21
110.5526149468391
 31
0.0
  0
LINE
  5
18F
  8
LAYER1
 62
   150
 10
81.7850413389993
 20
112.5026149468391
 30
0.0
 11
96.88504133899936
 21
112.5026149468391
 31
0.0
  0
LINE
  5
190
  8
LAYER1
 62
   150
 10
60.15467535664379
 20
112.5026149468391
 30
0.0
 11
75.25467535664376
 21
112.5026149468391
 31
0.0
  0
LINE
  5
191
  8
LAYER1
 62
   150
 10
75.25467535664376
 20
112.5026149468391
 30
0.0
 11
75.25467535664376
 21
110.5526149468391
 31
0.0
  0
LINE
  5
192
  8
LAYER1
 62
   150
 10
96.88529262449727
 20
112.5026149468391
 30
0.0
 11
96.88529262449727
 21
110.5526149468391
 31
0.0
  0
LINE
  5
193
  8
LAYER1
 62
   150
 10
46.37103520555757
 20
90.10261494683905
 30
0.0
 11
61.47103520555758
 21
90.10261494683905
 31
0.0
  0
LINE
  5
194
  8
LAYER1
 62
   150
 10
81.7852926244972
 20
140.1406149468391
 30
0.0
 11
81.7852926244972
 21
142.0906149468391
 31
0.0
  0
LINE
  5
195
  8
LAYER1
 62
   150
 10
83.10658080831446
 20
60.19061494683906
 30
0.0
 11
83.10658080831446
 21
62.14061494683906
 31
0.0
  0
LINE
  5
196
  8
LAYER1
 62
   150
 10
68.24974702174035
 20
60.2206149468391
 30
0.0
 11
68.24974702174035
 21
60.32061494683908
 31
0.0
  0
LINE
  5
197
  8
LAYER1
 62
   150
 10
96.33129262449724
 20
142.0906149468391
 30
0.0
 11
96.88529262449727
 21
142.0906149468391
 31
0.0
  0
LINE
  5
198
  8
LAYER1
 62
   150
 10
83.10658080831446
 20
62.14061494683906
 30
0.0
 11
68.00658080831445
 21
62.14061494683906
 31
0.0
  0
LINE
  5
199
  8
LAYER1
 62
   150
 10
68.00658080831445
 20
62.14061494683906
 30
0.0
 11
68.00658080831445
 21
60.19061494683906
 31
0.0
  0
LINE
  5
19A
  8
LAYER1
 62
   150
 10
68.00658080831445
 20
60.19061494683906
 30
0.0
 11
83.10658080831446
 21
60.19061494683906
 31
0.0
  0
LINE
  5
19B
  8
LAYER1
 62
   150
 10
81.7852926244972
 20
140.1406149468391
 30
0.0
 11
96.88529262449727
 21
140.1406149468391
 31
0.0
  0
LINE
  5
19C
  8
LAYER1
 62
   150
 10
81.7850413389993
 20
142.0906149468391
 30
0.0
 11
96.88504133899936
 21
142.0906149468391
 31
0.0
  0
LINE
  5
19D
  8
LAYER1
 62
   150
 10
96.88529262449727
 20
142.0906149468391
 30
0.0
 11
96.88529262449727
 21
140.1406149468391
 31
0.0
  0
LINE
  5
19E
  8
LAYER1
 62
   150
 10
179.3939150262653
 20
126.6509647434969
 30
0.0
 11
179.3939150262653
 21
116.6509647434968
 31
0.0
  0
LINE
  5
19F
  8
LAYER1
 62
   150
 10
142.6939150262653
 20
126.6509647434969
 30
0.0
 11
142.6939150262653
 21
116.6509647434968
 31
0.0
  0
LINE
  5
1A0
  8
LAYER1
 62
   150
 10
179.7556193606077
 20
72.39203117061207
 30
0.0
 11
179.7556193606077
 21
62.39203117061209
 31
0.0
  0
LINE
  5
1A1
  8
LAYER1
 62
   150
 10
143.0556193606077
 20
72.39203117061207
 30
0.0
 11
143.0556193606077
 21
62.39203117061209
 31
0.0
  0
LINE
  5
1A2
  8
LAYER1
 62
   150
 10
37.78529262449721
 20
140.1406149468391
 30
0.0
 11
37.78529262449721
 21
142.0906149468391
 31
0.0
  0
LINE
  5
1A3
  8
LAYER1
 62
   150
 10
39.10658080831445
 20
60.19061494683906
 30
0.0
 11
39.10658080831445
 21
62.14061494683906
 31
0.0
  0
LINE
  5
1A4
  8
LAYER1
 62
   150
 10
24.24974702174035
 20
60.2206149468391
 30
0.0
 11
24.24974702174035
 21
60.32061494683908
 31
0.0
  0
LINE
  5
1A5
  8
LAYER1
 62
   150
 10
52.33129262449724
 20
142.0906149468391
 30
0.0
 11
52.88529262449726
 21
142.0906149468391
 31
0.0
  0
LINE
  5
1A6
  8
LAYER1
 62
   150
 10
39.10658080831445
 20
62.14061494683906
 30
0.0
 11
24.00658080831445
 21
62.14061494683906
 31
0.0
  0
LINE
  5
1A7
  8
LAYER1
 62
   150
 10
24.00658080831445
 20
62.14061494683906
 30
0.0
 11
24.00658080831445
 21
60.19061494683906
 31
0.0
  0
LINE
  5
1A8
  8
LAYER1
 62
   150
 10
24.00658080831445
 20
60.19061494683906
 30
0.0
 11
39.10658080831445
 21
60.19061494683906
 31
0.0
  0
LINE
  5
1A9
  8
LAYER1
 62
   150
 10
37.78529262449721
 20
140.1406149468391
 30
0.0
 11
52.88529262449726
 21
140.1406149468391
 31
0.0
  0
LINE
  5
1AA
  8
LAYER1
 62
   150
 10
37.78504133899931
 20
142.0906149468391
 30
0.0
 11
52.88504133899936
 21
142.0906149468391
 31
0.0
  0
LINE
  5
1AB
  8
LAYER1
 62
   150
 10
52.88529262449726
 20
142.0906149468391
 30
0.0
 11
52.88529262449726
 21
140.1406149468391
 31
0.0
  0
LINE
  5
1AC
  8
LAYER1
 62
   150
 10
141.5370638647101
 20
109.2858114107851
 30
0.0
 11
141.5370638647101
 21
105.7858114107851
 31
0.0
  0
LINE
  5
1AD
  8
LAYER1
 62
   150
 10
141.5370638647101
 20
95.28581141078513
 30
0.0
 11
141.5370638647101
 21
93.28581141078513
 31
0.0
  0
LINE
  5
1AE
  8
LAYER1
 62
   150
 10
1.420384372139258
 20
107.2858114107852
 30
0.0
 11
1.420384372139257
 21
109.2858114107852
 31
0.0
  0
LINE
  5
1AF
  8
LAYER1
 62
   150
 10
1.420384372139257
 20
95.28581141078519
 30
0.0
 11
1.420384372139257
 21
93.28581141078519
 31
0.0
  0
LINE
  5
1B0
  8
LAYER1
 62
   150
 10
82.67195021320472
 20
103.1906435698181
 30
0.0
 11
82.67195021320472
 21
105.1406435698181
 31
0.0
  0
LINE
  5
1B1
  8
LAYER1
 62
   150
 10
67.81511642663062
 20
103.2206435698181
 30
0.0
 11
67.81511642663062
 21
103.3206435698181
 31
0.0
  0
LINE
  5
1B2
  8
LAYER1
 62
   150
 10
82.67195021320472
 20
105.1406435698181
 30
0.0
 11
67.57195021320473
 21
105.1406435698181
 31
0.0
  0
LINE
  5
1B3
  8
LAYER1
 62
   150
 10
67.57195021320473
 20
105.1406435698181
 30
0.0
 11
67.57195021320473
 21
103.1906435698181
 31
0.0
  0
LINE
  5
1B4
  8
LAYER1
 62
   150
 10
67.57195021320473
 20
103.1906435698181
 30
0.0
 11
82.67195021320472
 21
103.1906435698181
 31
0.0
  0
LINE
  5
1B5
  8
LAYER1
 62
   150
 10
38.67195021320473
 20
103.1906435698181
 30
0.0
 11
38.67195021320473
 21
105.1406435698181
 31
0.0
  0
LINE
  5
1B6
  8
LAYER1
 62
   150
 10
23.81511642663062
 20
103.2206435698181
 30
0.0
 11
23.81511642663062
 21
103.3206435698181
 31
0.0
  0
LINE
  5
1B7
  8
LAYER1
 62
   150
 10
38.67195021320473
 20
105.1406435698181
 30
0.0
 11
23.57195021320473
 21
105.1406435698181
 31
0.0
  0
LINE
  5
1B8
  8
LAYER1
 62
   150
 10
23.57195021320473
 20
105.1406435698181
 30
0.0
 11
23.57195021320473
 21
103.1906435698181
 31
0.0
  0
LINE
  5
1B9
  8
LAYER1
 62
   150
 10
23.57195021320473
 20
103.1906435698181
 30
0.0
 11
38.67195021320473
 21
103.1906435698181
 31
0.0
  0
LINE
  5
1BA
  8
LAYER1
 62
   150
 10
81.7852926244972
 20
97.14105030057623
 30
0.0
 11
81.7852926244972
 21
99.09105030057623
 31
0.0
  0
LINE
  5
1BB
  8
LAYER1
 62
   150
 10
96.33129262449724
 20
99.09105030057623
 30
0.0
 11
96.88529262449727
 21
99.09105030057623
 31
0.0
  0
LINE
  5
1BC
  8
LAYER1
 62
   150
 10
81.7852926244972
 20
97.14105030057623
 30
0.0
 11
96.88529262449727
 21
97.14105030057623
 31
0.0
  0
LINE
  5
1BD
  8
LAYER1
 62
   150
 10
81.7850413389993
 20
99.09105030057623
 30
0.0
 11
96.88504133899936
 21
99.09105030057623
 31
0.0
  0
LINE
  5
1BE
  8
LAYER1
 62
   150
 10
96.88529262449727
 20
99.09105030057623
 30
0.0
 11
96.88529262449727
 21
97.14105030057623
 31
0.0
  0
LINE
  5
1BF
  8
LAYER1
 62
   150
 10
37.78529262449721
 20
97.14105030057623
 30
0.0
 11
37.78529262449721
 21
99.09105030057623
 31
0.0
  0
LINE
  5
1C0
  8
LAYER1
 62
   150
 10
52.33129262449724
 20
99.09105030057623
 30
0.0
 11
52.88529262449726
 21
99.09105030057623
 31
0.0
  0
LINE
  5
1C1
  8
LAYER1
 62
   150
 10
37.78529262449721
 20
97.14105030057623
 30
0.0
 11
52.88529262449726
 21
97.14105030057623
 31
0.0
  0
LINE
  5
1C2
  8
LAYER1
 62
   150
 10
37.78504133899931
 20
99.09105030057623
 30
0.0
 11
52.88504133899936
 21
99.09105030057623
 31
0.0
  0
LINE
  5
1C3
  8
LAYER1
 62
   150
 10
52.88529262449726
 20
99.09105030057623
 30
0.0
 11
52.88529262449726
 21
97.14105030057623
 31
0.0
  0
LINE
  5
1C4
  8
LAYER1
 62
   150
 10
169.0356779627159
 20
8.631841628548068
 30
0.0
 11
175.8143897788987
 21
8.631841628548068
 31
0.0
  0
LINE
  5
1C5
  8
LAYER1
 62
   150
 10
152.3360875285941
 20
2.951607640251495
 30
0.0
 11
152.3360875285941
 21
6.096924047236882
 31
0.0
  0
LINE
  5
1C6
  8
LAYER1
 62
   150
 10
159.1147993447768
 20
6.681841628548095
 30
0.0
 11
159.1147993447768
 21
8.63184162854808
 31
0.0
  0
LINE
  5
1C7
  8
LAYER1
 62
   150
 10
152.3360875285941
 20
6.096924047236882
 30
0.0
 11
152.3360875285941
 21
6.581841628548095
 31
0.0
  0
LINE
  5
1C8
  8
LAYER1
 62
   150
 10
159.1147993447768
 20
6.681841628548095
 30
0.0
 11
152.3360875285941
 21
6.681841628548095
 31
0.0
  0
LINE
  5
1C9
  8
LAYER1
 62
   150
 10
152.3360875285941
 20
2.951607640251495
 30
0.0
 11
161.5929274230078
 21
2.951607640251495
 31
0.0
  0
LINE
  5
1CA
  8
LAYER1
 62
   150
 10
175.2603897788987
 20
8.631841628548068
 30
0.0
 11
167.4001323599591
 21
8.631841628548068
 31
0.0
  0
LINE
  5
1CB
  8
LAYER1
 62
   150
 10
161.5929274230078
 20
2.951607640251495
 30
0.0
 11
167.4001323599591
 21
8.631841628548068
 31
0.0
  0
LINE
  5
1CC
  8
LAYER1
 62
   150
 10
173.971633131351
 20
2.951607640251495
 30
0.0
 11
173.971633131351
 21
6.096924047236882
 31
0.0
  0
LINE
  5
1CD
  8
LAYER1
 62
   150
 10
180.7503449475338
 20
6.681841628548073
 30
0.0
 11
180.7503449475338
 21
8.631841628548068
 31
0.0
  0
LINE
  5
1CE
  8
LAYER1
 62
   150
 10
173.971633131351
 20
8.631841628548068
 30
0.0
 11
180.7503449475338
 21
8.631841628548068
 31
0.0
  0
LINE
  5
1CF
  8
LAYER1
 62
   150
 10
173.971633131351
 20
6.096924047236882
 30
0.0
 11
173.971633131351
 21
6.581841628548073
 31
0.0
  0
LINE
  5
1D0
  8
LAYER1
 62
   150
 10
180.7503449475338
 20
6.681841628548073
 30
0.0
 11
173.971633131351
 21
6.681841628548073
 31
0.0
  0
LINE
  5
1D1
  8
LAYER1
 62
   150
 10
173.971633131351
 20
2.951607640251495
 30
0.0
 11
183.2284730257647
 21
2.951607640251495
 31
0.0
  0
LINE
  5
1D2
  8
LAYER1
 62
   150
 10
183.2284730257647
 20
2.951607640251495
 30
0.0
 11
189.0356779627161
 21
8.631841628548068
 31
0.0
  0
LINE
  5
1D3
  8
LAYER1
 62
   150
 10
173.971633131351
 20
6.581841628548073
 30
0.0
 11
173.971633131351
 21
6.681841628548073
 31
0.0
  0
LINE
  5
1D4
  8
LAYER1
 62
   150
 10
152.3360875285941
 20
6.581841628548095
 30
0.0
 11
152.3360875285941
 21
6.681841628548095
 31
0.0
  0
LINE
  5
1D5
  8
LAYER1
 62
   150
 10
152.8900875285941
 20
8.63184162854808
 30
0.0
 11
152.3360875285941
 21
8.63184162854808
 31
0.0
  0
LINE
  5
1D6
  8
LAYER1
 62
   150
 10
152.8900875285941
 20
8.63184162854808
 30
0.0
 11
159.1147993447768
 21
8.63184162854808
 31
0.0
  0
ARC
  5
1D7
  8
DXF_JUST_HOLES_MODEL_TOP_S
 62
     2
 10
154.0356779627159
 20
10.63189162854807
 30
0.0
 40
0.0002500000000012
 50
270.0
 51
90.0
  0
ARC
  5
1D8
  8
DXF_JUST_HOLES_MODEL_TOP_S
 62
     2
 10
154.0356779627159
 20
10.63189162854807
 30
0.0
 40
0.0002500000000012
 50
90.0
 51
270.0
  0
LINE
  5
1D9
  8
LAYER1
 62
   150
 10
210.0760628209824
 20
9.14802474648675
 30
0.0
 11
203.2973510047997
 21
9.14802474648675
 31
0.0
  0
LINE
  5
1DA
  8
LAYER1
 62
   150
 10
226.7756532551043
 20
3.467790758190142
 30
0.0
 11
226.7756532551043
 21
6.613107165175563
 31
0.0
  0
LINE
  5
1DB
  8
LAYER1
 62
   150
 10
219.9969414389216
 20
7.198024746486742
 30
0.0
 11
219.9969414389216
 21
9.14802474648675
 31
0.0
  0
LINE
  5
1DC
  8
LAYER1
 62
   150
 10
226.7756532551043
 20
6.613107165175563
 30
0.0
 11
226.7756532551043
 21
7.098024746486765
 31
0.0
  0
LINE
  5
1DD
  8
LAYER1
 62
   150
 10
219.9969414389216
 20
7.198024746486742
 30
0.0
 11
226.7756532551043
 21
7.198024746486742
 31
0.0
  0
LINE
  5
1DE
  8
LAYER1
 62
   150
 10
226.7756532551043
 20
3.467790758190142
 30
0.0
 11
217.5188133606906
 21
3.467790758190142
 31
0.0
  0
LINE
  5
1DF
  8
LAYER1
 62
   150
 10
203.8513510047997
 20
9.14802474648675
 30
0.0
 11
211.7116084237393
 21
9.14802474648675
 31
0.0
  0
LINE
  5
1E0
  8
LAYER1
 62
   150
 10
217.5188133606906
 20
3.467790758190142
 30
0.0
 11
211.7116084237393
 21
9.14802474648675
 31
0.0
  0
LINE
  5
1E1
  8
LAYER1
 62
   150
 10
205.1401076523475
 20
3.467790758190142
 30
0.0
 11
205.1401076523475
 21
6.613107165175563
 31
0.0
  0
LINE
  5
1E2
  8
LAYER1
 62
   150
 10
198.3613958361647
 20
7.198024746486742
 30
0.0
 11
198.3613958361647
 21
9.14802474648675
 31
0.0
  0
LINE
  5
1E3
  8
LAYER1
 62
   150
 10
205.1401076523475
 20
9.14802474648675
 30
0.0
 11
198.3613958361647
 21
9.14802474648675
 31
0.0
  0
LINE
  5
1E4
  8
LAYER1
 62
   150
 10
205.1401076523475
 20
6.613107165175563
 30
0.0
 11
205.1401076523475
 21
7.098024746486765
 31
0.0
  0
LINE
  5
1E5
  8
LAYER1
 62
   150
 10
198.3613958361647
 20
7.198024746486742
 30
0.0
 11
205.1401076523475
 21
7.198024746486742
 31
0.0
  0
LINE
  5
1E6
  8
LAYER1
 62
   150
 10
205.1401076523475
 20
3.467790758190142
 30
0.0
 11
195.8832677579338
 21
3.467790758190142
 31
0.0
  0
LINE
  5
1E7
  8
LAYER1
 62
   150
 10
195.8832677579338
 20
3.467790758190142
 30
0.0
 11
190.0760628209825
 21
9.14802474648675
 31
0.0
  0
LINE
  5
1E8
  8
LAYER1
 62
   150
 10
205.1401076523475
 20
7.098024746486765
 30
0.0
 11
205.1401076523475
 21
7.198024746486742
 31
0.0
  0
LINE
  5
1E9
  8
LAYER1
 62
   150
 10
226.7756532551043
 20
7.098024746486765
 30
0.0
 11
226.7756532551043
 21
7.198024746486742
 31
0.0
  0
LINE
  5
1EA
  8
LAYER1
 62
   150
 10
226.2216532551042
 20
9.14802474648675
 30
0.0
 11
226.7756532551043
 21
9.14802474648675
 31
0.0
  0
LINE
  5
1EB
  8
LAYER1
 62
   150
 10
226.2216532551042
 20
9.14802474648675
 30
0.0
 11
219.9969414389216
 21
9.14802474648675
 31
0.0
  0
LINE
  5
1EC
  8
LAYER1
 62
   150
 10
226.7760628209824
 20
16.39802474648677
 30
0.0
 11
226.7756532551043
 21
9.14802474648675
 31
0.0
  0
LINE
  5
1ED
  8
LAYER1
 62
   150
 10
190.0760628209825
 20
16.39802474648677
 30
0.0
 11
190.0760628209825
 21
9.14802474648675
 31
0.0
  0
LINE
  5
1EE
  8
LAYER1
 62
   150
 10
189.0360875285942
 20
15.8818416285481
 30
0.0
 11
189.0356779627161
 21
8.631841628548068
 31
0.0
  0
LINE
  5
1EF
  8
LAYER1
 62
   150
 10
152.3360875285941
 20
15.8818416285481
 30
0.0
 11
152.3360875285941
 21
8.63184162854808
 31
0.0
  0
LINE
  5
1F0
  8
LAYER1
 62
   150
 10
226.7760628209824
 20
18.39802474648677
 30
0.0
 11
226.7760628209824
 21
16.39802474648677
 31
0.0
  0
LINE
  5
1F1
  8
LAYER1
 62
   150
 10
190.0760628209825
 20
18.39802474648677
 30
0.0
 11
190.0760628209825
 21
16.39802474648677
 31
0.0
  0
LINE
  5
1F2
  8
LAYER1
 62
   150
 10
152.3360875285941
 20
17.88184162854808
 30
0.0
 11
152.3360875285941
 21
15.8818416285481
 31
0.0
  0
LINE
  5
1F3
  8
LAYER1
 62
   150
 10
189.0360875285942
 20
17.88184162854808
 30
0.0
 11
189.0360875285942
 21
15.8818416285481
 31
0.0
  0
LINE
  5
1F4
  8
LAYER1
 62
   150
 10
226.7760628209824
 20
18.39802474648677
 30
0.0
 11
226.7760628209824
 21
20.39802474648676
 31
0.0
  0
LINE
  5
1F5
  8
LAYER1
 62
   150
 10
190.0760628209825
 20
20.39802474648676
 30
0.0
 11
190.0760628209825
 21
18.39802474648677
 31
0.0
  0
LINE
  5
1F6
  8
LAYER1
 62
   150
 10
152.3360875285941
 20
19.88184162854811
 30
0.0
 11
152.3360875285941
 21
17.88184162854808
 31
0.0
  0
LINE
  5
1F7
  8
LAYER1
 62
   150
 10
189.0360875285942
 20
19.88184162854811
 30
0.0
 11
189.0360875285942
 21
17.88184162854808
 31
0.0
  0
LINE
  5
1F8
  8
LAYER1
 62
   150
 10
226.7760628209824
 20
30.39802474648679
 30
0.0
 11
226.7760628209824
 21
20.39802474648676
 31
0.0
  0
LINE
  5
1F9
  8
LAYER1
 62
   150
 10
190.0760628209825
 20
30.39802474648679
 30
0.0
 11
190.0760628209825
 21
20.39802474648676
 31
0.0
  0
LINE
  5
1FA
  8
LAYER1
 62
   150
 10
189.0360875285942
 20
29.88184162854807
 30
0.0
 11
189.0360875285942
 21
19.88184162854811
 31
0.0
  0
LINE
  5
1FB
  8
LAYER1
 62
   150
 10
152.3360875285941
 20
29.88184162854807
 30
0.0
 11
152.3360875285941
 21
19.88184162854811
 31
0.0
  0
LINE
  5
1FC
  8
LAYER1
 62
   150
 10
194.6635628209824
 20
44.70902474648671
 30
0.0
 11
222.1885628209825
 21
44.70902474648671
 31
0.0
  0
LINE
  5
1FD
  8
LAYER1
 62
   150
 10
156.9235875285941
 20
44.19284162854809
 30
0.0
 11
184.4485875285941
 21
44.19284162854809
 31
0.0
  0
LINE
  5
1FE
  8
LAYER1
 62
   150
 10
226.7760628209824
 20
30.39802474648679
 30
0.0
 11
222.1885628209825
 21
44.70902474648671
 31
0.0
  0
LINE
  5
1FF
  8
LAYER1
 62
   150
 10
190.0760628209825
 20
30.39802474648679
 30
0.0
 11
194.6635628209824
 21
44.70902474648671
 31
0.0
  0
LINE
  5
200
  8
LAYER1
 62
   150
 10
152.3360875285941
 20
29.88184162854807
 30
0.0
 11
156.9235875285941
 21
44.19284162854809
 31
0.0
  0
LINE
  5
201
  8
LAYER1
 62
   150
 10
189.0360875285942
 20
29.88184162854807
 30
0.0
 11
184.4485875285941
 21
44.19284162854809
 31
0.0
  0
LINE
  5
202
  8
LAYER1
 62
   150
 10
176.0177824917728
 20
39.34882436280137
 30
0.0
 11
176.0177824917728
 21
41.29882436280138
 31
0.0
  0
LINE
  5
203
  8
LAYER1
 62
   150
 10
163.1609487051987
 20
39.37882436280142
 30
0.0
 11
163.1609487051987
 21
39.4788243628014
 31
0.0
  0
LINE
  5
204
  8
LAYER1
 62
   150
 10
164.9177824917728
 20
41.29882436280138
 30
0.0
 11
164.9177824917728
 21
39.34882436280137
 31
0.0
  0
LINE
  5
205
  8
LAYER1
 62
   150
 10
213.7577577841612
 20
39.86500748074005
 30
0.0
 11
213.7577577841612
 21
41.81500748074005
 31
0.0
  0
LINE
  5
206
  8
LAYER1
 62
   150
 10
200.9009239975871
 20
39.89500748074009
 30
0.0
 11
200.9009239975871
 21
39.99500748074007
 31
0.0
  0
LINE
  5
207
  8
LAYER1
 62
   150
 10
202.6577577841612
 20
41.81500748074005
 30
0.0
 11
202.6577577841612
 21
39.86500748074005
 31
0.0
  0
LINE
  5
208
  8
LAYER1
 62
   150
 10
176.0177824917728
 20
41.29882436280138
 30
0.0
 11
164.9177824917728
 21
41.29882436280138
 31
0.0
  0
LINE
  5
209
  8
LAYER1
 62
   150
 10
164.9177824917728
 20
39.34882436280137
 30
0.0
 11
176.0177824917728
 21
39.34882436280137
 31
0.0
  0
LINE
  5
20A
  8
LAYER1
 62
   150
 10
213.7577577841612
 20
41.81500748074005
 30
0.0
 11
202.6577577841612
 21
41.81500748074005
 31
0.0
  0
LINE
  5
20B
  8
LAYER1
 62
   150
 10
202.6577577841612
 20
39.86500748074005
 30
0.0
 11
213.7577577841612
 21
39.86500748074005
 31
0.0
  0
LINE
  5
20C
  8
LAYER1
 62
   150
 10
177.8752061094056
 20
152.1805184811137
 30
0.0
 11
175.9252061094056
 21
152.1805184811137
 31
0.0
  0
LINE
  5
20D
  8
LAYER1
 62
   150
 10
175.5952061094055
 20
141.3236846945396
 30
0.0
 11
175.4952061094056
 21
141.3236846945396
 31
0.0
  0
LINE
  5
20E
  8
LAYER1
 62
   150
 10
175.9252061094056
 20
141.0805184811137
 30
0.0
 11
177.8752061094056
 21
141.0805184811137
 31
0.0
  0
LINE
  5
20F
  8
LAYER1
 62
   150
 10
198.3252061094054
 20
152.1805184811137
 30
0.0
 11
196.3752061094056
 21
152.1805184811137
 31
0.0
  0
LINE
  5
210
  8
LAYER1
 62
   150
 10
196.3752061094056
 20
141.0805184811137
 30
0.0
 11
198.3252061094054
 21
141.0805184811137
 31
0.0
  0
LINE
  5
211
  8
LAYER1
 62
   150
 10
198.3252061094054
 20
141.0805184811137
 30
0.0
 11
198.3252061094054
 21
152.1805184811137
 31
0.0
  0
LINE
  5
212
  8
LAYER1
 62
   150
 10
175.9252061094056
 20
152.1805184811137
 30
0.0
 11
175.9252061094056
 21
141.0805184811137
 31
0.0
  0
LINE
  5
213
  8
LAYER1
 62
   150
 10
196.3752061094056
 20
153.1805184811137
 30
0.0
 11
177.8752061094056
 21
153.1805184811137
 31
0.0
  0
LINE
  5
214
  8
LAYER1
 62
   150
 10
177.8752061094056
 20
140.0805184811137
 30
0.0
 11
196.3752061094056
 21
140.0805184811137
 31
0.0
  0
LINE
  5
215
  8
LAYER1
 62
   150
 10
196.3752061094056
 20
152.1805184811137
 30
0.0
 11
196.3752061094056
 21
153.1805184811137
 31
0.0
  0
LINE
  5
216
  8
LAYER1
 62
   150
 10
177.8752061094056
 20
153.1805184811137
 30
0.0
 11
177.8752061094056
 21
152.1805184811137
 31
0.0
  0
LINE
  5
217
  8
LAYER1
 62
   150
 10
177.8752061094056
 20
141.0805184811137
 30
0.0
 11
177.8752061094056
 21
140.0805184811137
 31
0.0
  0
LINE
  5
218
  8
LAYER1
 62
   150
 10
196.3752061094056
 20
140.0805184811137
 30
0.0
 11
196.3752061094056
 21
141.0805184811137
 31
0.0
  0
LINE
  5
219
  8
LAYER1
 62
   150
 10
66.08977933080385
 20
55.86935556253474
 30
0.0
 11
61.58977933080383
 21
55.86935556253474
 31
0.0
  0
LINE
  5
21A
  8
LAYER1
 62
   150
 10
61.58977933080383
 20
52.86935556253474
 30
0.0
 11
61.58977933080383
 21
55.86935556253474
 31
0.0
  0
LINE
  5
21B
  8
LAYER1
 62
   150
 10
58.58977933080386
 20
52.86935556253474
 30
0.0
 11
58.58977933080386
 21
55.86935556253474
 31
0.0
  0
LINE
  5
21C
  8
LAYER1
 62
   150
 10
57.08977933080384
 20
49.86935556253475
 30
0.0
 11
58.58977933080386
 21
52.86935556253474
 31
0.0
  0
LINE
  5
21D
  8
LAYER1
 62
   150
 10
63.08977933080383
 20
49.86935556253475
 30
0.0
 11
61.58977933080383
 21
52.86935556253474
 31
0.0
  0
LINE
  5
21E
  8
LAYER1
 62
   150
 10
54.08977933080384
 20
55.86935556253474
 30
0.0
 11
58.58977933080386
 21
55.86935556253474
 31
0.0
  0
LINE
  5
21F
  8
LAYER1
 62
   150
 10
65.9442973192245
 20
146.4113032358769
 30
0.0
 11
61.44429731922449
 21
146.4113032358769
 31
0.0
  0
LINE
  5
220
  8
LAYER1
 62
   150
 10
61.44429731922449
 20
149.4113032358769
 30
0.0
 11
61.44429731922449
 21
146.4113032358769
 31
0.0
  0
LINE
  5
221
  8
LAYER1
 62
   150
 10
58.44429731922452
 20
149.4113032358769
 30
0.0
 11
58.44429731922452
 21
146.4113032358769
 31
0.0
  0
LINE
  5
222
  8
LAYER1
 62
   150
 10
56.9442973192245
 20
152.4113032358769
 30
0.0
 11
58.44429731922452
 21
149.4113032358769
 31
0.0
  0
LINE
  5
223
  8
LAYER1
 62
   150
 10
62.94429731922448
 20
152.4113032358769
 30
0.0
 11
61.44429731922449
 21
149.4113032358769
 31
0.0
  0
LINE
  5
224
  8
LAYER1
 62
   150
 10
53.9442973192245
 20
146.4113032358769
 30
0.0
 11
58.44429731922452
 21
146.4113032358769
 31
0.0
  0
LINE
  5
225
  8
LAYER1
 62
   150
 10
69.37341948189005
 20
152.4113032358769
 30
0.0
 11
62.94429731922448
 21
152.4113032358769
 31
0.0
  0
LINE
  5
226
  8
LAYER1
 62
   150
 10
56.9442973192245
 20
152.4113032358769
 30
0.0
 11
31.4966124020896
 21
152.411303235877
 31
0.0
  0
LINE
  5
227
  8
LAYER1
 62
   150
 10
69.58977933080382
 20
49.86935556253475
 30
0.0
 11
63.08977933080383
 21
49.86935556253474
 31
0.0
  0
LINE
  5
228
  8
LAYER1
 62
   150
 10
57.08977933080384
 20
49.86935556253474
 30
0.0
 11
32.30924278527914
 21
49.86935556253473
 31
0.0
  0
LINE
  5
229
  8
LAYER1
 62
   150
 10
84.47341948189005
 20
152.4113032358769
 30
0.0
 11
96.936667356749
 21
155.2471529445064
 31
0.0
  0
LINE
  5
22A
  8
LAYER1
 62
   150
 10
96.93666735674904
 20
155.2471529445064
 30
0.0
 11
101.0910833150353
 21
155.2471529445064
 31
0.0
  0
LINE
  5
22B
  8
LAYER1
 62
   150
 10
101.0910833150353
 20
47.32446987706391
 30
0.0
 11
95.87427229412529
 21
47.32446987706392
 31
0.0
  0
LINE
  5
22C
  8
LAYER1
 62
   150
 10
84.68977933080384
 20
49.86935556253475
 30
0.0
 11
95.8742722941253
 21
47.32446987706392
 31
0.0
  0
LINE
  5
22D
  8
LAYER1
 62
   150
 10
203.5719398317115
 20
49.82440365378521
 30
0.0
 11
205.5219398317114
 21
49.82440365378521
 31
0.0
  0
LINE
  5
22E
  8
LAYER1
 62
   150
 10
205.8519398317115
 20
64.68123744035933
 30
0.0
 11
205.9519398317115
 21
64.68123744035933
 31
0.0
  0
LINE
  5
22F
  8
LAYER1
 62
   150
 10
205.5219398317114
 20
49.82440365378521
 30
0.0
 11
205.5219398317114
 21
64.92440365378525
 31
0.0
  0
LINE
  5
230
  8
LAYER1
 62
   150
 10
205.5219398317114
 20
64.92440365378525
 30
0.0
 11
203.5719398317115
 21
64.92440365378525
 31
0.0
  0
LINE
  5
231
  8
LAYER1
 62
   150
 10
183.1219398317113
 20
49.82440365378521
 30
0.0
 11
185.0719398317113
 21
49.82440365378521
 31
0.0
  0
LINE
  5
232
  8
LAYER1
 62
   150
 10
185.0719398317113
 20
64.92440365378525
 30
0.0
 11
183.1219398317113
 21
64.92440365378525
 31
0.0
  0
LINE
  5
233
  8
LAYER1
 62
   150
 10
183.1219398317113
 20
64.92440365378525
 30
0.0
 11
183.1219398317113
 21
49.82440365378521
 31
0.0
  0
LINE
  5
234
  8
LAYER1
 62
   150
 10
185.0719398317113
 20
66.89940365378526
 30
0.0
 11
203.5719398317115
 21
66.89940365378526
 31
0.0
  0
LINE
  5
235
  8
LAYER1
 62
   150
 10
185.0719398317113
 20
47.84940365378521
 30
0.0
 11
203.5719398317115
 21
47.8494036537852
 31
0.0
  0
LINE
  5
236
  8
LAYER1
 62
   150
 10
185.0719398317113
 20
66.89940365378526
 30
0.0
 11
185.0719398317113
 21
64.92440365378525
 31
0.0
  0
LINE
  5
237
  8
LAYER1
 62
   150
 10
203.5719398317115
 20
64.92440365378525
 30
0.0
 11
203.5719398317115
 21
66.89940365378526
 31
0.0
  0
LINE
  5
238
  8
LAYER1
 62
   150
 10
203.5719398317115
 20
47.8494036537852
 30
0.0
 11
203.5719398317115
 21
49.82440365378521
 31
0.0
  0
LINE
  5
239
  8
LAYER1
 62
   150
 10
185.0719398317113
 20
49.82440365378521
 30
0.0
 11
185.0719398317113
 21
47.84940365378521
 31
0.0
  0
CIRCLE
  5
23A
  8
LAYER1
 62
   150
 10
146.1282364161364
 20
23.67428093052352
 30
0.0
 40
1.5
  0
CIRCLE
  5
23B
  8
LAYER1
 62
   150
 10
146.1282364161364
 20
41.17428093052351
 30
0.0
 40
1.500000000000007
  0
CIRCLE
  5
23C
  8
LAYER1
 62
   150
 10
136.6282364161364
 20
32.67428093052353
 30
0.0
 40
1.999999999999986
  0
CIRCLE
  5
23D
  8
LAYER1
 62
   150
 10
108.8626948739758
 20
23.57429456382747
 30
0.0
 40
1.500000000000011
  0
CIRCLE
  5
23E
  8
LAYER1
 62
   150
 10
108.8626948739758
 20
41.07429456382748
 30
0.0
 40
1.5
  0
CIRCLE
  5
23F
  8
LAYER1
 62
   150
 10
99.36269487397581
 20
32.57429456382748
 30
0.0
 40
2.0
  0
CIRCLE
  5
240
  8
LAYER1
 62
   150
 10
79.62140461044785
 20
124.9819444403213
 30
0.0
 40
1.0
  0
CIRCLE
  5
241
  8
LAYER1
 62
   150
 10
56.81640461044785
 20
124.9819444403213
 30
0.0
 40
1.0
  0
CIRCLE
  5
242
  8
LAYER1
 62
   150
 10
85.15640461044786
 20
76.64194444032128
 30
0.0
 40
1.000000000000028
  0
CIRCLE
  5
243
  8
LAYER1
 62
   150
 10
126.1573511060459
 20
124.9824514107851
 30
0.0
 40
1.015999999999977
  0
CIRCLE
  5
244
  8
LAYER1
 62
   150
 10
126.1573511060459
 20
76.64117141078512
 30
0.0
 40
1.016000000000005
  0
CIRCLE
  5
245
  8
LAYER1
 62
   150
 10
103.3506911060458
 20
76.641
 30
0.0
 40
1.016000000000005
  0
CIRCLE
  5
246
  8
LAYER1
 62
   150
 10
15.81468556695209
 20
76.64117141078519
 30
0.0
 40
1.015999999999977
  0
CIRCLE
  5
247
  8
LAYER1
 62
   150
 10
15.81468556695216
 20
124.9824514107852
 30
0.0
 40
1.015999999999991
  0
CIRCLE
  5
248
  8
LAYER1
 62
   150
 10
38.62134556695213
 20
124.9824514107852
 30
0.0
 40
1.015999999999991
  0
CIRCLE
  5
249
  8
LAYER1
 62
   150
 10
70.43862105802785
 20
23.57429456382749
 30
0.0
 40
1.5
  0
CIRCLE
  5
24A
  8
LAYER1
 62
   150
 10
70.43862105802785
 20
41.07429456382749
 30
0.0
 40
1.5
  0
CIRCLE
  5
24B
  8
LAYER1
 62
   150
 10
60.93862105802786
 20
32.5742945638275
 30
0.0
 40
2.0
  0
CIRCLE
  5
24C
  8
LAYER1
 62
   150
 10
32.67307951586728
 20
23.47430819713145
 30
0.0
 40
1.500000000000007
  0
CIRCLE
  5
24D
  8
LAYER1
 62
   150
 10
32.67307951586728
 20
40.97430819713146
 30
0.0
 40
1.500000000000007
  0
CIRCLE
  5
24E
  8
LAYER1
 62
   150
 10
23.17307951586731
 20
32.47430819713146
 30
0.0
 40
1.999999999999993
  0
ARC
  5
24F
  8
LAYER1
 62
   150
 10
125.6282364161363
 20
32.67428093052352
 30
0.0
 40
6.999999999999961
 50
180.0
 51
45.10033891328059
  0
ARC
  5
250
  8
LAYER1
 62
   150
 10
88.3626948739758
 20
32.57429456382748
 30
0.0
 40
6.999999999999995
 50
179.2862635361438
 51
0.7515422572979316
  0
ARC
  5
251
  8
LAYER1
 62
   150
 10
88.3626948739759
 20
32.57429456382754
 30
0.0
 40
6.999999999999893
 50
0.7515422572969616
 51
45.10033891328106
  0
ARC
  5
252
  8
LAYER1
 62
   150
 10
12.1730795158673
 20
32.47430819713147
 30
0.0
 40
7.000000000000005
 50
178.6789061611696
 51
1.358899632271357
  0
ARC
  5
253
  8
LAYER1
 62
   150
 10
12.17307951586728
 20
32.47430819713146
 30
0.0
 40
7.000000000000022
 50
1.358899632271357
 51
45.10033891328086
  0
ARC
  5
254
  8
LAYER1
 62
   150
 10
135.5370638647101
 20
101.2858114107851
 30
0.0
 40
6.000000000000014
 50
90.0
 51
270.0
  0
ARC
  5
255
  8
LAYER1
 62
   150
 10
7.420384372139231
 20
101.2858114107852
 30
0.0
 40
6.000000000000001
 50
270.0
 51
90.0
  0
ARC
  5
256
  8
LAYER1
 62
   150
 10
47.3928962556824
 20
109.2745423987542
 30
0.0
 40
45.97251326470142
 50
110.229295220858
 51
179.9859553722836
  0
ARC
  5
257
  8
LAYER1
 62
   150
 10
47.39336315695724
 20
93.29727541123754
 30
0.0
 40
45.97298021417178
 50
180.0142874977152
 51
250.8459975828291
  0
CIRCLE
  5
258
  8
LAYER1
 62
   150
 10
79.62140461044785
 20
76.64167838124908
 30
0.0
 40
1.0
  0
CIRCLE
  5
259
  8
LAYER1
 62
   150
 10
56.81640461044785
 20
76.64167838124904
 30
0.0
 40
1.0
  0
CIRCLE
  5
25A
  8
LAYER1
 62
   150
 10
85.15640461044785
 20
124.9816783812491
 30
0.0
 40
1.000000000000014
  0
CIRCLE
  5
25B
  8
LAYER1
 62
   150
 10
103.3506911060458
 20
124.9826228215703
 30
0.0
 40
1.016000000000005
  0
CIRCLE
  5
25C
  8
LAYER1
 62
   150
 10
38.62134556695213
 20
76.64117141078512
 30
0.0
 40
1.015999999999977
  0
CIRCLE
  5
25D
  8
LAYER1
 62
   150
 10
62.35140461044785
 20
124.9819444403213
 30
0.0
 40
1.0
  0
CIRCLE
  5
25E
  8
LAYER1
 62
   150
 10
62.35140461044785
 20
76.64167838124908
 30
0.0
 40
1.0
  0
CIRCLE
  5
25F
  8
LAYER1
 62
   150
 10
161.2889272411759
 20
40.39111359450374
 30
0.0
 40
1.5
  0
CIRCLE
  5
260
  8
LAYER1
 62
   150
 10
179.5064908462276
 20
40.39111359450374
 30
0.0
 40
1.5
  0
CIRCLE
  5
261
  8
LAYER1
 62
   150
 10
199.0289025335643
 20
40.90729671244242
 30
0.0
 40
1.5
  0
CIRCLE
  5
262
  8
LAYER1
 62
   150
 10
217.2464661386158
 20
40.90729671244241
 30
0.0
 40
1.500000000000028
  0
CIRCLE
  5
263
  8
LAYER1
 62
   150
 10
184.6322253017128
 20
17.92293466271327
 30
0.0
 40
1.5
  0
CIRCLE
  5
264
  8
LAYER1
 62
   150
 10
222.3722005941011
 20
18.43911778065199
 30
0.0
 40
1.500000000000028
  0
CIRCLE
  5
265
  8
LAYER1
 62
   150
 10
103.7895889806868
 20
141.0818782540308
 30
0.0
 40
4.349999999999994
  0
CIRCLE
  5
266
  8
LAYER1
 62
   150
 10
117.2892623230365
 20
141.0818782540308
 30
0.0
 40
4.349999999999994
  0
CIRCLE
  5
267
  8
LAYER1
 62
   150
 10
103.7895889806868
 20
60.54174456753954
 30
0.0
 40
4.349999999999994
  0
CIRCLE
  5
268
  8
LAYER1
 62
   150
 10
117.2892623230365
 20
60.54174456753954
 30
0.0
 40
4.349999999999994
  0
ARC
  5
269
  8
LAYER1
 62
   150
 10
60.08977933080385
 20
55.86935556253474
 30
0.0
 40
6.000000000000011
 50
0.0
 51
180.0
  0
ARC
  5
26A
  8
LAYER1
 62
   150
 10
59.94429731922451
 20
146.4113032358769
 30
0.0
 40
6.000000000000007
 50
180.0
 51
0.0
  0
ARC
  5
26B
  8
LAYER1
 62
   150
 10
49.93862105802788
 20
32.57429456382751
 30
0.0
 40
7.000000000000037
 50
179.3927323483259
 51
45.10033891328113
  0
CIRCLE
  5
26C
  8
LAYER1
 62
   150
 10
152.0084590731896
 20
82.90130313656773
 30
0.0
 40
1.5
  0
CIRCLE
  5
26D
  8
LAYER1
 62
   150
 10
170.2260226782411
 20
82.90130313656773
 30
0.0
 40
1.5
  0
CIRCLE
  5
26E
  8
LAYER1
 62
   150
 10
151.6467547388472
 20
137.1602367094525
 30
0.0
 40
1.5
  0
CIRCLE
  5
26F
  8
LAYER1
 62
   150
 10
169.8643183438987
 20
137.1602367094525
 30
0.0
 40
1.5
  0
CIRCLE
  5
270
  8
LAYER1
 62
   150
 10
194.1642845406179
 20
91.2824920275872
 30
0.0
 40
4.789999999999992
  0
CIRCLE
  5
271
  8
LAYER1
 62
   150
 10
194.1642845406179
 20
76.01006091968972
 30
0.0
 40
4.789999999999992
  0
CIRCLE
  5
272
  8
LAYER1
 62
   150
 10
147.3517924798321
 20
60.43312420477725
 30
0.0
 40
1.5
  0
CIRCLE
  5
273
  8
LAYER1
 62
   150
 10
146.9900881454897
 20
114.6920577776621
 30
0.0
 40
1.5
  0
CIRCLE
  5
274
  8
LAYER1
 62
   150
 10
194.3219398317113
 20
57.37440365378523
 30
0.0
 40
4.789999999999992
  0
VIEWPORT
  5
44
 67
     1
  8
0
 10
0.0
 20
0.0
 30
0.0
 40
1.0
 41
1.0
 68
     1
 69
     1
1001
ACAD
1000
MVIEW
1002
{
1070
    16
1010
0.0
1020
0.0
1030
0.0
1020
0.0
1030
0.0
1010
0.0
1020
0.0
1030
1.0
1020
0.0
1030
1.0
1040
0.0
1040
1.0
1040
0.0
1040
0.0
1040
50.0
1040
0.0
1040
0.0
1070
     0
1070
   100
1070
     0
1070
     3
1070
     0
1070
     0
1070
     0
1070
     0
1040
0.0
1040
0.0
1040
0.0
1040
0.5
1040
0.5
1040
0.0
1040
0.0
1070
     0
1002
{
1002
}
1002
}
  0
ENDSEC
  0
EOF
